<svg width="288" height="272" viewBox="0 0 288 272" fill="none" xmlns="http://www.w3.org/2000/svg">
<path d="M14.6886 133.765C14.9496 135.655 14.9196 137.103 14.6191 137.145C14.2891 137.19 14.506 140.209 15.202 145.248C15.8979 150.287 16.5074 153.252 16.8374 153.207C17.1268 153.167 17.5104 154.197 17.6899 155.496C17.8693 156.795 18.2529 157.825 18.5423 157.785C18.8318 157.745 19.1567 158.35 19.2643 159.13C19.372 159.909 19.6969 160.514 19.9863 160.474C20.2758 160.434 20.6007 161.039 20.7083 161.819C20.816 162.598 21.1409 163.203 21.4303 163.163C21.7197 163.123 22.0153 163.516 22.087 164.035C22.1588 164.555 22.4544 164.948 22.7438 164.908C23.0332 164.868 23.3288 165.26 23.4005 165.78C23.4723 166.299 23.7678 166.692 24.0573 166.652C24.3467 166.612 24.6305 166.919 24.6879 167.335C24.7452 167.75 25.5849 168.588 26.5538 169.196C27.5226 169.804 28.3481 170.538 28.3881 170.828C28.4901 171.566 37.1644 177.358 37.9959 177.244C38.3711 177.192 39.0777 177.527 39.5668 177.989C40.0559 178.451 40.825 178.779 41.276 178.716C41.727 178.654 42.4962 178.981 42.9853 179.443C43.5076 179.936 44.4782 180.2 45.3371 180.081C46.1412 179.97 46.8289 180.092 46.8648 180.351C46.9007 180.611 47.6405 180.726 48.5088 180.606C49.3771 180.486 50.1169 180.6 50.1528 180.86C50.1887 181.12 51.1653 181.202 52.3231 181.042C53.4808 180.882 54.4575 180.964 54.4933 181.224C54.5296 181.486 55.9621 181.502 57.7161 181.26C59.4701 181.018 60.9026 181.033 60.9389 181.296C60.9748 181.556 61.7146 181.67 62.5829 181.55C63.4512 181.431 64.1323 181.12 64.0964 180.86C64.0605 180.6 64.6401 180.304 65.3842 180.201C66.9072 179.99 68.1063 178.829 67.9523 177.714C67.8959 177.306 68.0866 176.939 68.376 176.899C68.6655 176.859 68.7848 175.976 68.6413 174.937C68.4978 173.897 68.1435 173.08 67.8541 173.12C67.5646 173.16 67.2817 172.859 67.2253 172.45C67.0934 171.496 65.6691 170.533 64.6055 170.68C64.1509 170.743 63.7494 170.582 63.7136 170.322C63.6763 170.052 62.0695 170.067 59.9645 170.358C57.8595 170.649 56.2527 170.664 56.2155 170.395C56.1796 170.135 55.7908 169.972 55.3509 170.033C54.3789 170.167 46.9185 165.208 46.7997 164.348C46.7532 164.011 46.1991 163.494 45.5685 163.2C44.9379 162.905 44.3762 162.333 44.3203 161.928C44.2643 161.523 43.7026 160.95 43.072 160.656C42.4414 160.361 41.8732 159.742 41.8094 159.28C41.7455 158.818 41.4565 158.472 41.167 158.512C40.8776 158.552 40.5233 157.734 40.3798 156.695C40.2363 155.656 39.882 154.838 39.5926 154.878C39.3031 154.918 38.9195 153.888 38.7401 152.589C38.5607 151.29 38.177 150.259 37.8876 150.299C37.5661 150.344 37.0568 148.167 36.5784 144.703C36.1 141.239 36.0002 139.006 36.3217 138.962C36.6222 138.92 36.6523 137.472 36.3913 135.582C36.1303 133.692 36.1603 132.244 36.4608 132.203C36.7503 132.163 36.8403 131.067 36.6609 129.768C36.4814 128.469 36.5714 127.373 36.8609 127.333C37.1503 127.293 37.2991 126.623 37.1914 125.843C37.0838 125.064 37.2325 124.393 37.5219 124.353C37.8114 124.313 37.9307 123.43 37.7872 122.391C37.6437 121.352 37.763 120.469 38.0525 120.429C38.3419 120.389 38.4907 119.718 38.383 118.939C38.2753 118.159 38.4241 117.489 38.7135 117.449C39.003 117.409 39.1811 116.951 39.1093 116.431C39.0375 115.912 39.2156 115.454 39.5051 115.414C39.7945 115.374 39.9432 114.704 39.8356 113.924C39.7279 113.145 39.8767 112.474 40.1661 112.434C40.4555 112.394 40.6336 111.936 40.5619 111.417C40.4901 110.897 40.6682 110.439 40.9576 110.399C41.2471 110.359 41.4252 109.901 41.3534 109.382C41.2816 108.862 41.4597 108.404 41.7492 108.364C42.0386 108.324 42.2167 107.866 42.1449 107.347C42.0732 106.827 42.2513 106.369 42.5407 106.329C42.8301 106.289 43.0082 105.831 42.9365 105.312C42.8647 104.792 43.0428 104.334 43.3322 104.294C43.6217 104.254 43.8062 103.843 43.7424 103.381C43.6785 102.919 44.0576 102.169 44.5848 101.714C45.1119 101.26 45.491 100.51 45.4271 100.047C45.3633 99.5852 45.5479 99.1741 45.8373 99.1341C46.1268 99.0941 46.3113 98.683 46.2475 98.221C46.1836 97.7585 46.5627 97.0086 47.0899 96.554C47.617 96.0995 48.0078 95.4345 47.9584 95.0765C47.909 94.7189 48.4966 93.7317 49.2644 92.8838C50.0322 92.0359 50.6258 91.0917 50.5835 90.7856C50.5413 90.4799 51.3412 89.2819 52.361 88.1234C53.3808 86.9648 54.1832 85.7848 54.144 85.5009C54.0509 84.8272 61.7212 75.7581 62.4717 75.6544C62.788 75.6107 63.8393 74.599 64.8083 73.406C65.7773 72.2131 66.8913 71.1927 67.2844 71.1384C67.6775 71.0841 68.2813 70.5674 68.6269 69.9902C68.9724 69.4129 69.6241 68.8896 70.0751 68.8273C70.5261 68.765 71.1779 68.2417 71.5234 67.6645C71.869 67.0872 72.5728 66.5567 73.088 66.4855C73.6027 66.4145 73.9949 66.1437 73.959 65.8838C73.9231 65.624 74.3153 65.3532 74.8299 65.2821C75.3451 65.211 76.049 64.6805 76.3945 64.1032C76.7401 63.5259 77.4439 62.9954 77.9591 62.9243C78.4738 62.8532 78.8659 62.5824 78.8301 62.3226C78.7942 62.0628 79.4753 61.7521 80.3436 61.6321C81.2119 61.5122 81.893 61.2015 81.8571 60.9417C81.8212 60.6819 82.2655 60.4039 82.8444 60.3239C83.4232 60.244 83.8675 59.966 83.8316 59.7061C83.7957 59.4463 84.24 59.1683 84.8189 59.0884C85.3978 59.0084 85.842 58.7304 85.8062 58.4706C85.7703 58.2108 86.4514 57.9001 87.3197 57.7802C88.188 57.6602 88.8691 57.3495 88.8332 57.0897C88.7973 56.8299 89.4784 56.5192 90.3467 56.3993C91.215 56.2793 91.8961 55.9686 91.8602 55.7088C91.8244 55.449 92.5054 55.1383 93.3738 55.0184C94.2421 54.8984 94.9232 54.5877 94.8873 54.3279C94.8514 54.0681 95.7693 53.7247 96.9271 53.5648C98.0848 53.4049 99.0027 53.0615 98.9668 52.8016C98.931 52.5418 100.086 52.1657 101.533 51.9658C102.98 51.766 104.135 51.3898 104.099 51.13C104.062 50.8603 105.612 50.4396 107.717 50.1488C109.822 49.8581 111.373 49.4374 111.336 49.1677C111.294 48.8658 115.832 48.0653 123.901 46.9509C131.97 45.8365 136.555 45.3771 136.596 45.6789C136.633 45.9487 138.24 45.9333 140.345 45.6426C142.45 45.3518 144.057 45.3364 144.094 45.6062C144.13 45.866 145.344 45.9151 146.791 45.7152C148.238 45.5153 149.451 45.5644 149.487 45.8242C149.523 46.084 150.263 46.1985 151.131 46.0785C152 45.9586 152.739 46.0731 152.775 46.3329C152.811 46.5927 153.788 46.6745 154.946 46.5146C156.103 46.3547 157.08 46.4364 157.116 46.6963C157.152 46.9561 157.892 47.0705 158.76 46.9506C159.628 46.8307 160.368 46.9451 160.404 47.205C160.44 47.4648 161.18 47.5792 162.048 47.4593C162.916 47.3394 163.656 47.4539 163.692 47.7137C163.728 47.9735 164.231 48.1207 164.81 48.0407C165.389 47.9608 165.892 48.1079 165.927 48.3678C165.963 48.6276 166.466 48.7748 167.045 48.6948C167.624 48.6149 168.127 48.762 168.163 49.0218C168.199 49.2817 168.702 49.4288 169.281 49.3489C169.86 49.2689 170.363 49.4161 170.398 49.6759C170.434 49.9357 170.937 50.0829 171.516 50.003C172.095 49.923 172.598 50.0702 172.634 50.33C172.67 50.5898 173.173 50.737 173.752 50.6571C174.331 50.5771 174.834 50.7243 174.869 50.9841C174.905 51.2439 175.408 51.3911 175.987 51.3111C176.566 51.2312 177.069 51.3783 177.105 51.6382C177.141 51.898 177.644 52.0452 178.223 51.9652C178.802 51.8853 179.305 52.0324 179.341 52.2923C179.376 52.5521 179.827 52.7064 180.342 52.6354C180.857 52.5642 181.678 52.884 182.168 53.3461C182.657 53.8081 183.478 54.1279 183.993 54.0568C184.508 53.9857 184.959 54.14 184.995 54.3999C185.03 54.6597 185.438 54.82 185.901 54.756C186.364 54.6922 187.494 55.1859 188.413 55.8534C189.332 56.5209 190.362 57.0284 190.703 56.9813C191.044 56.9343 192.35 57.6204 193.606 58.5061C194.862 59.3917 196.148 60.0806 196.465 60.0369C197.215 59.9333 207.056 66.5839 207.149 67.2575C207.189 67.5414 208.281 68.4598 209.577 69.2986C210.872 70.1374 211.972 71.1119 212.021 71.4648C212.07 71.8177 212.625 72.3471 213.256 72.6417C213.887 72.9364 214.448 73.5087 214.504 73.9136C214.56 74.3184 215.122 74.8908 215.753 75.1854C216.383 75.4801 216.951 76.0992 217.015 76.5617C217.079 77.0237 217.368 77.3694 217.658 77.3294C217.947 77.2894 218.242 77.6819 218.314 78.2015C218.386 78.7212 218.682 79.1136 218.971 79.0737C219.26 79.0337 219.556 79.4261 219.628 79.9458C219.7 80.4654 219.995 80.8579 220.284 80.8179C220.574 80.7779 220.869 81.1704 220.941 81.69C221.013 82.2097 221.309 82.6022 221.598 82.5622C221.887 82.5222 222.183 82.9147 222.255 83.4343C222.326 83.9539 222.622 84.3464 222.911 84.3064C223.201 84.2665 223.526 84.8715 223.633 85.651C223.741 86.4304 224.066 87.0355 224.355 86.9955C224.645 86.9555 224.94 87.348 225.012 87.8676C225.084 88.3873 225.379 88.7797 225.669 88.7397C225.958 88.6998 226.283 89.3048 226.391 90.0843C226.499 90.8637 226.823 91.4688 227.113 91.4288C227.402 91.3888 227.727 91.9939 227.835 92.7733C227.943 93.5528 228.267 94.1578 228.557 94.1179C228.846 94.0779 229.201 94.8955 229.344 95.9348C229.488 96.9741 229.842 97.7917 230.131 97.7517C230.424 97.7113 230.832 98.939 231.049 100.513C231.267 102.088 231.674 103.316 231.967 103.275C232.274 103.233 232.711 104.777 233.015 106.982C233.32 109.186 233.756 110.731 234.063 110.688C234.389 110.643 234.937 113.135 235.503 117.229C236.068 121.324 236.216 123.871 235.89 123.916C235.583 123.958 235.581 125.563 235.886 127.768C236.19 129.972 236.188 131.577 235.881 131.62C235.592 131.659 235.502 132.755 235.681 134.054C235.861 135.353 235.771 136.449 235.481 136.489C235.192 136.529 235.102 137.625 235.281 138.924C235.461 140.223 235.371 141.318 235.081 141.358C234.792 141.398 234.643 142.069 234.751 142.848C234.858 143.628 234.71 144.298 234.42 144.338C234.131 144.378 234.011 145.261 234.155 146.3C234.299 147.34 234.179 148.223 233.89 148.263C233.6 148.303 233.452 148.973 233.559 149.753C233.667 150.532 233.518 151.203 233.229 151.243C232.939 151.282 232.761 151.74 232.833 152.26C232.905 152.78 232.727 153.238 232.437 153.277C232.148 153.317 231.999 153.988 232.107 154.767C232.214 155.547 232.066 156.217 231.776 156.257C231.487 156.297 231.309 156.755 231.38 157.275C231.452 157.794 231.274 158.252 230.985 158.292C230.695 158.332 230.546 159.003 230.654 159.782C230.762 160.562 230.613 161.232 230.324 161.272C230.034 161.312 229.856 161.77 229.928 162.29C230 162.809 229.821 163.267 229.532 163.307C229.243 163.347 229.064 163.805 229.136 164.325C229.208 164.844 229.03 165.302 228.74 165.342C228.451 165.382 228.273 165.84 228.345 166.36C228.416 166.879 228.238 167.337 227.949 167.377C227.66 167.417 227.481 167.875 227.553 168.394C227.625 168.914 227.447 169.372 227.157 169.412C226.868 169.452 226.69 169.91 226.762 170.429C226.833 170.949 226.655 171.407 226.366 171.447C226.076 171.487 225.898 171.945 225.97 172.464C226.042 172.984 225.864 173.442 225.574 173.482C225.285 173.522 225.1 173.933 225.164 174.395C225.228 174.858 224.849 175.607 224.322 176.062C223.795 176.517 223.416 177.266 223.479 177.729C223.543 178.191 223.359 178.602 223.069 178.642C222.78 178.682 222.595 179.093 222.659 179.555C222.723 180.018 222.344 180.768 221.817 181.222C221.29 181.677 220.904 182.38 220.96 182.785C221.016 183.19 220.63 183.893 220.103 184.347C219.576 184.802 219.185 185.467 219.235 185.825C219.284 186.182 218.696 187.17 217.929 188.018C217.161 188.865 216.567 189.81 216.61 190.116C216.652 190.421 215.852 191.619 214.832 192.778C213.812 193.937 213.01 195.116 213.049 195.399C213.143 196.077 203.621 207.324 202.865 207.429C202.544 207.473 201.705 208.239 201.002 209.131C200.298 210.022 199.396 210.797 198.998 210.852C198.599 210.907 197.99 211.424 197.644 212.001C197.299 212.579 196.647 213.102 196.196 213.164C195.745 213.226 195.093 213.75 194.748 214.327C194.402 214.904 193.698 215.435 193.183 215.506C192.668 215.577 192.276 215.848 192.312 216.108C192.348 216.368 191.904 216.646 191.325 216.725C190.746 216.805 190.302 217.083 190.337 217.343C190.373 217.603 189.929 217.881 189.35 217.961C188.771 218.041 188.327 218.319 188.363 218.579C188.399 218.839 187.718 219.149 186.849 219.269C185.981 219.389 185.3 219.7 185.336 219.96C185.372 220.219 184.928 220.497 184.349 220.577C183.77 220.657 183.326 220.935 183.361 221.195C183.397 221.455 182.243 221.831 180.795 222.031C179.348 222.231 178.193 222.607 178.229 222.867C178.267 223.137 176.716 223.557 174.611 223.848C172.506 224.139 170.899 224.154 170.862 223.884C170.826 223.625 169.849 223.543 168.691 223.703C167.534 223.863 166.557 223.781 166.521 223.521C166.485 223.261 166.034 223.107 165.52 223.178C165.005 223.249 164.183 222.929 163.694 222.467C163.205 222.005 162.491 221.671 162.108 221.723C161.205 221.848 158.533 220.043 158.421 219.232C158.373 218.888 157.818 218.365 157.188 218.07C156.557 217.776 155.995 217.203 155.939 216.798C155.884 216.394 155.322 215.821 154.691 215.527C154.018 215.212 153.47 214.449 153.363 213.678C153.264 212.956 152.945 212.398 152.656 212.438C152.366 212.478 152.071 212.085 151.999 211.566C151.927 211.046 151.632 210.654 151.342 210.694C151.053 210.734 150.728 210.128 150.62 209.349C150.513 208.57 150.188 207.964 149.898 208.004C149.609 208.044 149.255 207.227 149.111 206.188C148.968 205.148 148.613 204.331 148.324 204.371C148.031 204.411 147.624 203.183 147.406 201.609C147.189 200.034 146.781 198.807 146.488 198.847C146.165 198.892 145.636 196.558 145.114 192.779C144.592 188.999 144.468 186.609 144.792 186.565C145.085 186.524 145.144 185.232 144.927 183.657C144.709 182.083 144.769 180.791 145.062 180.75C145.351 180.71 145.47 179.827 145.327 178.788C145.183 177.749 145.303 176.866 145.592 176.826C145.882 176.786 146.03 176.115 145.923 175.336C145.815 174.556 145.964 173.886 146.253 173.846C146.543 173.806 146.691 173.136 146.584 172.356C146.476 171.577 146.625 170.906 146.914 170.866C147.204 170.826 147.382 170.368 147.31 169.849C147.238 169.329 147.416 168.871 147.706 168.831C147.995 168.791 148.173 168.333 148.102 167.814C148.03 167.294 148.208 166.836 148.497 166.796C148.787 166.756 148.971 166.345 148.907 165.883C148.844 165.421 149.223 164.671 149.75 164.216C150.277 163.762 150.67 163.115 150.624 162.779C150.514 161.982 158.156 152.945 159.044 152.823C159.418 152.771 160.008 152.256 160.353 151.679C160.699 151.102 161.402 150.571 161.918 150.5C162.432 150.429 162.825 150.158 162.789 149.899C162.753 149.639 163.197 149.361 163.776 149.281C164.355 149.201 164.799 148.923 164.763 148.663C164.727 148.403 165.408 148.092 166.277 147.973C167.145 147.853 167.826 147.542 167.79 147.282C167.754 147.022 168.672 146.679 169.83 146.519C170.988 146.359 171.906 146.016 171.87 145.756C171.83 145.47 174.085 144.968 177.593 144.484C181.102 143.999 183.408 143.871 183.447 144.157C183.483 144.417 184.171 144.538 184.975 144.427C185.834 144.309 186.805 144.572 187.327 145.065C187.816 145.527 188.536 145.861 188.927 145.807C189.843 145.681 191.302 146.667 191.416 147.489C191.464 147.84 192.02 148.368 192.65 148.663C193.281 148.957 193.849 149.577 193.913 150.039C193.977 150.501 194.266 150.847 194.555 150.807C194.845 150.767 195.14 151.159 195.212 151.679C195.284 152.199 195.579 152.591 195.869 152.551C196.158 152.511 196.483 153.116 196.591 153.896C196.699 154.675 197.023 155.28 197.313 155.24C197.602 155.2 197.898 155.593 197.97 156.112C198.041 156.632 198.337 157.024 198.626 156.984C198.916 156.944 199.211 157.337 199.283 157.856C199.38 158.556 199.765 158.753 200.767 158.614C202.493 158.376 203.483 157.205 203.269 155.655C203.177 154.987 203.338 154.408 203.628 154.368C203.921 154.327 203.98 153.035 203.763 151.461C203.545 149.886 203.605 148.594 203.897 148.554C204.204 148.511 204.206 146.906 203.902 144.702C203.597 142.497 203.16 140.953 202.854 140.995C202.564 141.035 202.21 140.218 202.066 139.178C201.923 138.139 201.569 137.321 201.279 137.361C200.99 137.401 200.665 136.796 200.557 136.017C200.449 135.237 200.125 134.632 199.835 134.672C199.546 134.712 199.25 134.32 199.178 133.8C199.107 133.28 198.811 132.888 198.522 132.928C198.232 132.968 197.943 132.622 197.879 132.16C197.815 131.698 197.247 131.079 196.617 130.784C195.986 130.489 195.432 129.972 195.385 129.634C195.275 128.833 189.027 124.611 188.135 124.734C187.758 124.786 187.05 124.451 186.561 123.989C186.072 123.527 185.251 123.207 184.736 123.278C184.221 123.349 183.77 123.195 183.734 122.935C183.698 122.675 183.195 122.528 182.616 122.608C182.038 122.688 181.535 122.541 181.499 122.281C181.463 122.021 180.96 121.874 180.381 121.954C179.802 122.034 179.299 121.887 179.263 121.627C179.227 121.367 178.487 121.252 177.619 121.372C176.751 121.492 176.011 121.378 175.975 121.118C175.939 120.858 174.963 120.776 173.805 120.936C172.647 121.096 171.67 121.015 171.635 120.755C171.594 120.459 168.237 120.743 162.623 121.518C157.009 122.293 153.701 122.93 153.742 123.226C153.778 123.486 152.623 123.862 151.176 124.062C149.729 124.262 148.574 124.638 148.61 124.898C148.646 125.157 147.965 125.468 147.096 125.588C146.228 125.708 145.547 126.019 145.583 126.278C145.619 126.538 144.938 126.849 144.069 126.969C143.201 127.089 142.52 127.4 142.556 127.659C142.592 127.919 141.911 128.23 141.042 128.35C140.174 128.47 139.493 128.78 139.529 129.04C139.565 129.3 139.12 129.578 138.541 129.658C137.963 129.738 137.518 130.016 137.554 130.276C137.59 130.536 137.146 130.814 136.567 130.894C135.988 130.973 135.544 131.251 135.58 131.511C135.616 131.771 135.223 132.042 134.709 132.113C134.193 132.184 133.49 132.715 133.144 133.292C132.799 133.869 132.189 134.387 131.791 134.442C131.392 134.497 130.49 135.271 129.787 136.163C129.083 137.054 128.244 137.82 127.921 137.865C127.155 137.97 120.412 145.944 120.506 146.631C120.546 146.921 119.951 147.852 119.183 148.7C118.416 149.548 117.828 150.535 117.877 150.892C117.927 151.25 117.536 151.915 117.009 152.37C116.482 152.825 116.102 153.574 116.166 154.037C116.23 154.499 116.046 154.91 115.756 154.95C115.467 154.99 115.289 155.448 115.36 155.968C115.432 156.487 115.254 156.945 114.965 156.985C114.675 157.025 114.497 157.483 114.569 158.002C114.641 158.522 114.463 158.98 114.173 159.02C113.884 159.06 113.706 159.518 113.777 160.037C113.849 160.557 113.671 161.015 113.382 161.055C113.092 161.095 112.914 161.553 112.986 162.072C113.058 162.592 112.879 163.05 112.59 163.09C112.301 163.13 112.152 163.8 112.26 164.58C112.367 165.359 112.218 166.03 111.929 166.07C111.64 166.11 111.491 166.78 111.598 167.56C111.706 168.339 111.557 169.01 111.268 169.05C110.979 169.09 110.83 169.76 110.937 170.539C111.045 171.319 110.896 171.989 110.607 172.029C110.317 172.069 110.169 172.74 110.276 173.519C110.384 174.299 110.235 174.969 109.946 175.009C109.656 175.049 109.566 176.145 109.746 177.444C109.925 178.743 109.835 179.839 109.546 179.879C109.253 179.919 109.194 181.211 109.411 182.786C109.628 184.36 109.569 185.652 109.276 185.693C108.939 185.739 109.337 190.017 110.381 197.576C111.425 205.134 112.202 209.359 112.538 209.313C112.831 209.273 113.239 210.5 113.456 212.075C113.674 213.649 114.081 214.877 114.374 214.836C114.663 214.796 115.018 215.614 115.161 216.653C115.305 217.693 115.659 218.51 115.948 218.47C116.238 218.43 116.592 219.248 116.736 220.287C116.879 221.327 117.233 222.144 117.523 222.104C117.812 222.064 118.108 222.457 118.18 222.976C118.251 223.496 118.547 223.888 118.836 223.848C119.126 223.808 119.451 224.414 119.558 225.193C119.666 225.972 119.991 226.577 120.28 226.538C120.57 226.498 120.865 226.89 120.937 227.41C121.009 227.929 121.304 228.322 121.594 228.282C121.883 228.242 122.179 228.634 122.251 229.154C122.322 229.674 122.618 230.066 122.907 230.026C123.197 229.986 123.492 230.379 123.564 230.898C123.636 231.418 123.931 231.81 124.221 231.77C124.51 231.73 124.806 232.123 124.878 232.642C124.949 233.162 125.245 233.555 125.534 233.515C125.824 233.475 126.107 233.782 126.165 234.197C126.222 234.613 127.062 235.45 128.031 236.058C129 236.666 129.825 237.4 129.865 237.688C129.967 238.425 143.381 247.418 144.208 247.304C144.581 247.252 145.287 247.588 145.776 248.05C146.265 248.512 147.086 248.832 147.601 248.761C148.116 248.69 148.567 248.844 148.603 249.104C148.639 249.364 149.142 249.511 149.721 249.431C150.299 249.351 150.802 249.498 150.838 249.758C150.874 250.018 151.377 250.165 151.956 250.085C152.535 250.005 153.038 250.152 153.074 250.412C153.11 250.672 153.613 250.819 154.192 250.739C154.77 250.659 155.273 250.806 155.309 251.066C155.345 251.326 156.085 251.44 156.953 251.32C157.822 251.2 158.561 251.315 158.597 251.575C158.633 251.835 159.373 251.949 160.241 251.829C161.11 251.709 161.849 251.824 161.885 252.083C161.921 252.343 163.135 252.392 164.582 252.192C166.029 251.993 167.242 252.042 167.278 252.301C167.319 252.594 170.15 252.386 174.711 251.756C179.272 251.126 182.054 250.559 182.014 250.266C181.978 250.006 183.132 249.63 184.58 249.43C186.027 249.231 187.181 248.854 187.146 248.595C187.11 248.335 188.028 247.991 189.185 247.832C190.343 247.672 191.261 247.328 191.225 247.068C191.189 246.809 191.87 246.498 192.739 246.378C193.607 246.258 194.288 245.947 194.252 245.688C194.216 245.428 194.661 245.15 195.239 245.07C195.818 244.99 196.263 244.712 196.227 244.452C196.191 244.192 196.872 243.881 197.74 243.762C198.609 243.642 199.29 243.331 199.254 243.071C199.218 242.811 199.662 242.533 200.241 242.453C200.82 242.373 201.264 242.095 201.228 241.836C201.192 241.576 201.637 241.298 202.216 241.218C202.794 241.138 203.239 240.86 203.203 240.6C203.167 240.34 203.611 240.062 204.19 239.982C204.769 239.902 205.213 239.624 205.177 239.364C205.141 239.105 205.586 238.827 206.165 238.747C206.743 238.667 207.188 238.389 207.152 238.129C207.116 237.869 207.508 237.598 208.023 237.527C208.538 237.456 209.242 236.926 209.587 236.348C209.933 235.771 210.637 235.241 211.152 235.169C211.667 235.098 212.059 234.827 212.023 234.568C211.987 234.308 212.379 234.037 212.894 233.966C213.409 233.895 214.113 233.364 214.459 232.787C214.804 232.21 215.413 231.692 215.812 231.637C216.21 231.582 217.113 230.808 217.816 229.916C218.519 229.025 219.379 228.256 219.725 228.208C220.072 228.16 220.931 227.392 221.635 226.5C222.338 225.609 223.189 224.841 223.526 224.795C223.863 224.748 225.145 223.488 226.375 221.994C227.606 220.5 228.867 219.243 229.179 219.2C229.915 219.098 239.437 207.844 239.346 207.184C239.308 206.906 240.524 205.231 242.05 203.461C243.575 201.691 244.789 199.998 244.748 199.698C244.706 199.398 245.3 198.459 246.068 197.611C246.836 196.763 247.429 195.814 247.386 195.503C247.343 195.192 247.936 194.243 248.704 193.395C249.472 192.548 250.059 191.56 250.01 191.203C249.96 190.845 250.351 190.18 250.878 189.725C251.405 189.271 251.791 188.567 251.735 188.163C251.679 187.758 252.065 187.055 252.592 186.6C253.119 186.145 253.505 185.442 253.449 185.037C253.393 184.633 253.778 183.929 254.305 183.475C254.833 183.02 255.212 182.27 255.148 181.808C255.084 181.346 255.269 180.935 255.558 180.895C255.847 180.855 256.032 180.444 255.968 179.982C255.904 179.519 256.283 178.769 256.811 178.315C257.338 177.86 257.717 177.11 257.653 176.648C257.589 176.186 257.774 175.775 258.063 175.735C258.353 175.695 258.531 175.237 258.459 174.717C258.387 174.198 258.565 173.74 258.855 173.7C259.144 173.66 259.329 173.249 259.265 172.787C259.201 172.324 259.58 171.574 260.107 171.12C260.634 170.665 261.013 169.915 260.95 169.453C260.886 168.991 261.07 168.58 261.36 168.54C261.649 168.5 261.827 168.042 261.755 167.522C261.684 167.002 261.862 166.545 262.151 166.505C262.441 166.465 262.589 165.794 262.482 165.015C262.374 164.235 262.523 163.565 262.812 163.525C263.102 163.485 263.28 163.027 263.208 162.507C263.136 161.988 263.314 161.53 263.604 161.49C263.893 161.45 264.071 160.992 264 160.472C263.928 159.953 264.106 159.495 264.395 159.455C264.685 159.415 264.863 158.957 264.791 158.437C264.719 157.918 264.897 157.46 265.187 157.42C265.476 157.38 265.625 156.709 265.517 155.93C265.41 155.15 265.558 154.48 265.848 154.44C266.137 154.4 266.286 153.73 266.178 152.95C266.071 152.171 266.22 151.5 266.509 151.46C266.798 151.42 266.976 150.962 266.905 150.443C266.833 149.923 267.011 149.465 267.3 149.425C267.59 149.385 267.739 148.715 267.631 147.935C267.523 147.156 267.672 146.485 267.962 146.446C268.251 146.406 268.37 145.522 268.227 144.483C268.083 143.444 268.203 142.561 268.492 142.521C268.782 142.481 268.93 141.81 268.823 141.031C268.715 140.252 268.864 139.581 269.153 139.541C269.443 139.501 269.562 138.618 269.418 137.579C269.275 136.54 269.394 135.656 269.684 135.617C269.973 135.577 270.063 134.481 269.884 133.182C269.704 131.883 269.794 130.787 270.084 130.747C270.376 130.707 270.436 129.415 270.219 127.84C270.001 126.265 270.061 124.973 270.353 124.933C270.669 124.889 270.619 122.971 270.227 120.136C269.836 117.302 269.785 115.383 270.101 115.339C270.428 115.294 270.257 112.59 269.649 108.181C269.04 103.772 268.471 101.122 268.144 101.167C267.832 101.21 267.378 99.5077 267.03 96.9883C266.682 94.469 266.229 92.7663 265.917 92.8094C265.627 92.8493 265.244 91.8191 265.064 90.52C264.885 89.2209 264.501 88.1907 264.212 88.2307C263.922 88.2707 263.539 87.2405 263.359 85.9414C263.18 84.6422 262.796 83.612 262.507 83.652C262.217 83.692 261.863 82.8744 261.72 81.8351C261.576 80.7958 261.222 79.9782 260.932 80.0181C260.643 80.0581 260.318 79.4531 260.21 78.6736C260.103 77.8941 259.778 77.2891 259.488 77.3291C259.199 77.369 258.874 76.764 258.766 75.9845C258.659 75.2051 258.334 74.6 258.044 74.64C257.755 74.68 257.43 74.0749 257.322 73.2955C257.215 72.516 256.89 71.911 256.6 71.9509C256.311 71.9909 256.015 71.5985 255.944 71.0788C255.872 70.5592 255.576 70.1667 255.287 70.2067C254.997 70.2467 254.673 69.6416 254.565 68.8622C254.457 68.0827 254.132 67.4777 253.843 67.5176C253.553 67.5576 253.258 67.1651 253.186 66.6455C253.114 66.1259 252.819 65.7334 252.529 65.7734C252.24 65.8133 251.944 65.4209 251.873 64.9012C251.801 64.3816 251.505 63.9891 251.216 64.0291C250.927 64.0691 250.631 63.6766 250.559 63.157C250.487 62.6373 250.192 62.2449 249.902 62.2849C249.613 62.3248 249.317 61.9324 249.246 61.4127C249.174 60.8931 248.878 60.5006 248.589 60.5406C248.3 60.5806 248.004 60.1881 247.932 59.6685C247.86 59.1488 247.565 58.7564 247.275 58.7964C246.986 58.8363 246.697 58.4906 246.633 58.0286C246.569 57.5661 246.001 56.947 245.37 56.6524C244.74 56.3577 244.172 55.7386 244.108 55.2762C244.044 54.8141 243.755 54.4684 243.466 54.5084C243.176 54.5484 242.887 54.2027 242.823 53.7407C242.759 53.2782 242.191 52.6591 241.561 52.3644C240.93 52.0698 240.373 51.5357 240.324 51.1776C240.275 50.82 239.441 50.0291 238.473 49.421C237.504 48.813 236.676 48.0607 236.633 47.7494C236.59 47.4381 235.762 46.6859 234.793 46.0779C233.824 45.4698 232.999 44.737 232.959 44.4493C232.866 43.7724 214.742 31.5162 213.988 31.6203C213.674 31.6637 212.389 30.9746 211.133 30.089C209.877 29.2033 208.528 28.5231 208.135 28.5774C207.742 28.6317 207.021 28.298 206.532 27.836C206.042 27.374 205.273 27.0469 204.822 27.1092C204.371 27.1715 203.602 26.8445 203.113 26.3825C202.624 25.9205 201.855 25.5934 201.404 25.6557C200.953 25.718 200.184 25.3909 199.695 24.9289C199.205 24.4669 198.384 24.1471 197.869 24.2182C197.354 24.2893 196.903 24.135 196.868 23.8751C196.832 23.6153 196.381 23.4609 195.866 23.532C195.351 23.6032 194.53 23.2833 194.041 22.8213C193.551 22.3593 192.73 22.0395 192.215 22.1106C191.7 22.1817 191.249 22.0273 191.213 21.7675C191.178 21.5077 190.675 21.3605 190.096 21.4405C189.517 21.5204 189.014 21.3733 188.978 21.1134C188.942 20.8536 188.439 20.7064 187.86 20.7864C187.281 20.8663 186.778 20.7192 186.742 20.4594C186.707 20.1995 186.204 20.0524 185.625 20.1323C185.046 20.2123 184.543 20.0651 184.507 19.8053C184.471 19.5455 183.731 19.431 182.863 19.5509C181.995 19.6708 181.255 19.5564 181.219 19.2966C181.183 19.0367 180.68 18.8896 180.101 18.9695C179.522 19.0495 179.019 18.9023 178.983 18.6425C178.948 18.3827 178.208 18.2682 177.339 18.3881C176.471 18.508 175.731 18.3936 175.695 18.1338C175.66 17.8739 174.92 17.7595 174.051 17.8794C173.183 17.9993 172.443 17.8849 172.407 17.625C172.372 17.3652 171.632 17.2508 170.763 17.3707C169.895 17.4906 169.155 17.3761 169.119 17.1163C169.083 16.8565 168.344 16.742 167.475 16.862C166.607 16.9819 165.867 16.8674 165.831 16.6076C165.795 16.3478 164.819 16.266 163.661 16.4259C162.503 16.5858 161.527 16.5041 161.491 16.2443C161.455 15.9844 160.478 15.9027 159.321 16.0626C158.163 16.2225 157.186 16.1407 157.15 15.8809C157.114 15.6182 155.682 15.6023 153.928 15.8446C152.174 16.0868 150.741 16.0709 150.705 15.8083C150.668 15.5456 149.236 15.5297 147.482 15.772C145.728 16.0142 144.295 15.9983 144.259 15.7357C144.217 15.4305 138.054 16.1112 126.828 17.6618C115.601 19.2123 109.484 20.2275 109.526 20.5327C109.564 20.8024 108.013 21.2231 105.908 21.5138C103.803 21.8046 102.252 22.2253 102.289 22.495C102.326 22.7577 100.951 23.1613 99.197 23.4035C97.443 23.6458 96.0684 24.0494 96.1047 24.312C96.1406 24.5718 95.2227 24.9152 94.0649 25.0751C92.9071 25.235 91.9892 25.5785 92.0251 25.8383C92.061 26.0981 91.1431 26.4415 89.9854 26.6014C88.8276 26.7613 87.9097 27.1047 87.9456 27.3645C87.9815 27.6244 87.3004 27.9351 86.4321 28.055C85.5637 28.1749 84.8826 28.4856 84.9185 28.7454C84.9544 29.0053 84.2733 29.316 83.405 29.4359C82.5367 29.5558 81.8556 29.8665 81.8915 30.1263C81.9274 30.3862 81.2463 30.6969 80.378 30.8168C79.5096 30.9367 78.8286 31.2474 78.8644 31.5072C78.9003 31.7671 78.2192 32.0778 77.3509 32.1977C76.4826 32.3176 75.8015 32.6283 75.8374 32.8881C75.8733 33.148 75.429 33.426 74.8501 33.5059C74.2713 33.5859 73.827 33.8639 73.8629 34.1237C73.8988 34.3835 73.2177 34.6942 72.3494 34.8141C71.481 34.9341 70.7999 35.2448 70.8358 35.5046C70.8717 35.7644 70.4274 36.0424 69.8486 36.1223C69.2697 36.2023 68.8254 36.4803 68.8613 36.7401C68.8972 36.9999 68.4529 37.2779 67.874 37.3579C67.2952 37.4378 66.8509 37.7158 66.8868 37.9757C66.9227 38.2355 66.4784 38.5135 65.8995 38.5934C65.3206 38.6734 64.8763 38.9514 64.9122 39.2112C64.9481 39.471 64.5559 39.7418 64.0413 39.8129C63.5261 39.8841 62.8222 40.4145 62.4767 40.9918C62.1311 41.5691 61.4273 42.0996 60.9121 42.1707C60.3974 42.2418 60.0053 42.5126 60.0411 42.7724C60.077 43.0323 59.6849 43.3031 59.1702 43.3741C58.655 43.4453 57.9512 43.9758 57.6056 44.5531C57.2601 45.1303 56.651 45.6477 56.252 45.7028C55.8537 45.7579 54.9513 46.5324 54.248 47.4239C53.5447 48.3153 52.6903 49.0832 52.3493 49.1303C52.0088 49.1774 50.9374 50.1919 49.9685 51.3848C48.9995 52.5778 47.9476 53.5896 47.6308 53.6333C46.884 53.7365 40.1326 61.7121 40.2252 62.3824C40.2639 62.663 39.2546 64.0916 37.9822 65.5571C36.7098 67.0225 35.7081 68.5069 35.7563 68.8561C35.8046 69.2056 35.4127 69.8629 34.8856 70.3175C34.3584 70.7721 33.9676 71.437 34.0171 71.7951C34.0665 72.1527 33.4788 73.1398 32.711 73.9877C31.9432 74.8356 31.362 75.8695 31.4194 76.2848C31.4768 76.7005 31.2869 77.0729 30.9975 77.1129C30.708 77.1529 30.5235 77.564 30.5873 78.026C30.6512 78.4885 30.2721 79.2384 29.7449 79.693C29.2178 80.1475 28.8387 80.8974 28.9026 81.3599C28.9664 81.8219 28.7818 82.233 28.4924 82.273C28.2029 82.313 28.0249 82.7709 28.0966 83.2905C28.1684 83.8102 27.9903 84.268 27.7009 84.308C27.4114 84.348 27.2269 84.7591 27.2907 85.2211C27.3545 85.6836 26.9755 86.4335 26.4483 86.8881C25.9212 87.3426 25.5421 88.0925 25.606 88.555C25.6698 89.017 25.4852 89.4282 25.1958 89.4681C24.9063 89.5081 24.7282 89.966 24.8 90.4856C24.8718 91.0053 24.6937 91.4631 24.4042 91.5031C24.1148 91.5431 23.9367 92.001 24.0085 92.5206C24.0802 93.0403 23.9021 93.4981 23.6127 93.5381C23.3233 93.5781 23.1745 94.2485 23.2822 95.028C23.3898 95.8075 23.2411 96.4779 22.9517 96.5179C22.6622 96.5579 22.4841 97.0157 22.5559 97.5354C22.6277 98.055 22.4496 98.5129 22.1601 98.5529C21.8707 98.5929 21.6926 99.0507 21.7644 99.5704C21.8361 100.09 21.658 100.548 21.3686 100.588C21.0792 100.628 20.9011 101.086 20.9728 101.605C21.0446 102.125 20.8665 102.583 20.5771 102.623C20.2876 102.663 20.1389 103.333 20.2465 104.113C20.3542 104.892 20.2055 105.563 19.916 105.603C19.6266 105.643 19.4485 106.1 19.5203 106.62C19.592 107.14 19.4139 107.598 19.1245 107.638C18.835 107.678 18.6863 108.348 18.794 109.128C18.9016 109.907 18.7529 110.577 18.4634 110.617C18.174 110.657 18.0253 111.328 18.1329 112.107C18.2406 112.887 18.0918 113.557 17.8024 113.597C17.513 113.637 17.3642 114.308 17.4719 115.087C17.5795 115.867 17.4308 116.537 17.1414 116.577C16.8519 116.617 16.7032 117.287 16.8108 118.067C16.9185 118.846 16.7698 119.517 16.4803 119.557C16.1909 119.597 16.0421 120.267 16.1498 121.047C16.2574 121.826 16.1087 122.497 15.8193 122.537C15.5298 122.577 15.4105 123.46 15.554 124.499C15.6975 125.538 15.5782 126.421 15.2887 126.461C14.9993 126.501 14.8799 127.384 15.0234 128.423C15.167 129.463 15.0476 130.346 14.7582 130.386C14.4577 130.427 14.4276 131.876 14.6886 133.765Z" fill="white"/>
</svg>
