<?xml version="1.0" encoding="UTF-8" standalone="no"?>
<!DOCTYPE svg PUBLIC "-//W3C//DTD SVG 1.1//EN" "http://www.w3.org/Graphics/SVG/1.1/DTD/svg11.dtd">
<svg width="100%" height="100%" viewBox="0 0 257 237" version="1.1" xmlns="http://www.w3.org/2000/svg" xmlns:xlink="http://www.w3.org/1999/xlink" xml:space="preserve" xmlns:serif="http://www.serif.com/" style="fill-rule:evenodd;clip-rule:evenodd;stroke-linejoin:round;stroke-miterlimit:2;">
    <g transform="matrix(1,0,0,1,-14.4678,-15.6003)">
        <path d="M14.689,133.765C14.95,135.655 14.92,137.103 14.619,137.145C14.289,137.19 14.506,140.209 15.202,145.248C15.898,150.287 16.507,153.252 16.837,153.207C17.127,153.167 17.51,154.197 17.69,155.496C17.869,156.795 18.253,157.825 18.542,157.785C18.832,157.745 19.157,158.35 19.264,159.13C19.372,159.909 19.697,160.514 19.986,160.474C20.276,160.434 20.601,161.039 20.708,161.819C20.816,162.598 21.141,163.203 21.43,163.163C21.72,163.123 22.015,163.516 22.087,164.035C22.159,164.555 22.454,164.948 22.744,164.908C23.033,164.868 23.329,165.26 23.401,165.78C23.472,166.299 23.768,166.692 24.057,166.652C24.347,166.612 24.631,166.919 24.688,167.335C24.745,167.75 25.585,168.588 26.554,169.196C27.523,169.804 28.348,170.538 28.388,170.828C28.49,171.566 37.164,177.358 37.996,177.244C38.371,177.192 39.078,177.527 39.567,177.989C40.056,178.451 40.825,178.779 41.276,178.716C41.727,178.654 42.496,178.981 42.985,179.443C43.508,179.936 44.478,180.2 45.337,180.081C46.141,179.97 46.829,180.092 46.865,180.351C46.901,180.611 47.641,180.726 48.509,180.606C49.377,180.486 50.117,180.6 50.153,180.86C50.189,181.12 51.165,181.202 52.323,181.042C53.481,180.882 54.458,180.964 54.493,181.224C54.53,181.486 55.962,181.502 57.716,181.26C59.47,181.018 60.903,181.033 60.939,181.296C60.975,181.556 61.715,181.67 62.583,181.55C63.451,181.431 64.132,181.12 64.096,180.86C64.061,180.6 64.64,180.304 65.384,180.201C66.907,179.99 68.106,178.829 67.952,177.714C67.896,177.306 68.087,176.939 68.376,176.899C68.666,176.859 68.785,175.976 68.641,174.937C68.498,173.897 68.144,173.08 67.854,173.12C67.565,173.16 67.282,172.859 67.225,172.45C67.093,171.496 65.669,170.533 64.606,170.68C64.151,170.743 63.749,170.582 63.714,170.322C63.676,170.052 62.07,170.067 59.965,170.358C57.859,170.649 56.253,170.664 56.216,170.395C56.18,170.135 55.791,169.972 55.351,170.033C54.379,170.167 46.919,165.208 46.8,164.348C46.753,164.011 46.199,163.494 45.569,163.2C44.938,162.905 44.376,162.333 44.32,161.928C44.264,161.523 43.703,160.95 43.072,160.656C42.441,160.361 41.873,159.742 41.809,159.28C41.746,158.818 41.457,158.472 41.167,158.512C40.878,158.552 40.523,157.734 40.38,156.695C40.236,155.656 39.882,154.838 39.593,154.878C39.303,154.918 38.92,153.888 38.74,152.589C38.561,151.29 38.177,150.259 37.888,150.299C37.566,150.344 37.057,148.167 36.578,144.703C36.1,141.239 36,139.006 36.322,138.962C36.622,138.92 36.652,137.472 36.391,135.582C36.13,133.692 36.16,132.244 36.461,132.203C36.75,132.163 36.84,131.067 36.661,129.768C36.481,128.469 36.571,127.373 36.861,127.333C37.15,127.293 37.299,126.623 37.191,125.843C37.084,125.064 37.233,124.393 37.522,124.353C37.811,124.313 37.931,123.43 37.787,122.391C37.644,121.352 37.763,120.469 38.053,120.429C38.342,120.389 38.491,119.718 38.383,118.939C38.275,118.159 38.424,117.489 38.714,117.449C39.003,117.409 39.181,116.951 39.109,116.431C39.038,115.912 39.216,115.454 39.505,115.414C39.795,115.374 39.943,114.704 39.836,113.924C39.728,113.145 39.877,112.474 40.166,112.434C40.456,112.394 40.634,111.936 40.562,111.417C40.49,110.897 40.668,110.439 40.958,110.399C41.247,110.359 41.425,109.901 41.353,109.382C41.282,108.862 41.46,108.404 41.749,108.364C42.039,108.324 42.217,107.866 42.145,107.347C42.073,106.827 42.251,106.369 42.541,106.329C42.83,106.289 43.008,105.831 42.937,105.312C42.865,104.792 43.043,104.334 43.332,104.294C43.622,104.254 43.806,103.843 43.742,103.381C43.679,102.919 44.058,102.169 44.585,101.714C45.112,101.26 45.491,100.51 45.427,100.047C45.363,99.585 45.548,99.174 45.837,99.134C46.127,99.094 46.311,98.683 46.248,98.221C46.184,97.759 46.563,97.009 47.09,96.554C47.617,96.1 48.008,95.435 47.958,95.077C47.909,94.719 48.497,93.732 49.264,92.884C50.032,92.036 50.626,91.092 50.584,90.786C50.541,90.48 51.341,89.282 52.361,88.123C53.381,86.965 54.183,85.785 54.144,85.501C54.051,84.827 61.721,75.758 62.472,75.654C62.788,75.611 63.839,74.599 64.808,73.406C65.777,72.213 66.891,71.193 67.284,71.138C67.678,71.084 68.281,70.567 68.627,69.99C68.972,69.413 69.624,68.89 70.075,68.827C70.526,68.765 71.178,68.242 71.523,67.665C71.869,67.087 72.573,66.557 73.088,66.486C73.603,66.415 73.995,66.144 73.959,65.884C73.923,65.624 74.315,65.353 74.83,65.282C75.345,65.211 76.049,64.68 76.394,64.103C76.74,63.526 77.444,62.995 77.959,62.924C78.474,62.853 78.866,62.582 78.83,62.323C78.794,62.063 79.475,61.752 80.344,61.632C81.212,61.512 81.893,61.202 81.857,60.942C81.821,60.682 82.266,60.404 82.844,60.324C83.423,60.244 83.868,59.966 83.832,59.706C83.796,59.446 84.24,59.168 84.819,59.088C85.398,59.008 85.842,58.73 85.806,58.471C85.77,58.211 86.451,57.9 87.32,57.78C88.188,57.66 88.869,57.35 88.833,57.09C88.797,56.83 89.478,56.519 90.347,56.399C91.215,56.279 91.896,55.969 91.86,55.709C91.824,55.449 92.505,55.138 93.374,55.018C94.242,54.898 94.923,54.588 94.887,54.328C94.851,54.068 95.769,53.725 96.927,53.565C98.085,53.405 99.003,53.062 98.967,52.802C98.931,52.542 100.086,52.166 101.533,51.966C102.98,51.766 104.135,51.39 104.099,51.13C104.062,50.86 105.612,50.44 107.717,50.149C109.822,49.858 111.373,49.437 111.336,49.168C111.294,48.866 115.832,48.065 123.901,46.951C131.97,45.837 136.555,45.377 136.596,45.679C136.633,45.949 138.24,45.933 140.345,45.643C142.45,45.352 144.057,45.336 144.094,45.606C144.13,45.866 145.344,45.915 146.791,45.715C148.238,45.515 149.451,45.564 149.487,45.824C149.523,46.084 150.263,46.199 151.131,46.079C152,45.959 152.739,46.073 152.775,46.333C152.811,46.593 153.788,46.675 154.946,46.515C156.103,46.355 157.08,46.436 157.116,46.696C157.152,46.956 157.892,47.071 158.76,46.951C159.628,46.831 160.368,46.945 160.404,47.205C160.44,47.465 161.18,47.579 162.048,47.459C162.916,47.339 163.656,47.454 163.692,47.714C163.728,47.974 164.231,48.121 164.81,48.041C165.389,47.961 165.892,48.108 165.927,48.368C165.963,48.628 166.466,48.775 167.045,48.695C167.624,48.615 168.127,48.762 168.163,49.022C168.199,49.282 168.702,49.429 169.281,49.349C169.86,49.269 170.363,49.416 170.398,49.676C170.434,49.936 170.937,50.083 171.516,50.003C172.095,49.923 172.598,50.07 172.634,50.33C172.67,50.59 173.173,50.737 173.752,50.657C174.331,50.577 174.834,50.724 174.869,50.984C174.905,51.244 175.408,51.391 175.987,51.311C176.566,51.231 177.069,51.378 177.105,51.638C177.141,51.898 177.644,52.045 178.223,51.965C178.802,51.885 179.305,52.032 179.341,52.292C179.376,52.552 179.827,52.706 180.342,52.635C180.857,52.564 181.678,52.884 182.168,53.346C182.657,53.808 183.478,54.128 183.993,54.057C184.508,53.986 184.959,54.14 184.995,54.4C185.03,54.66 185.438,54.82 185.901,54.756C186.364,54.692 187.494,55.186 188.413,55.853C189.332,56.521 190.362,57.028 190.703,56.981C191.044,56.934 192.35,57.62 193.606,58.506C194.862,59.392 196.148,60.081 196.465,60.037C197.215,59.933 207.056,66.584 207.149,67.257C207.189,67.541 208.281,68.46 209.577,69.299C210.872,70.137 211.972,71.112 212.021,71.465C212.07,71.818 212.625,72.347 213.256,72.642C213.887,72.936 214.448,73.509 214.504,73.914C214.56,74.318 215.122,74.891 215.753,75.185C216.383,75.48 216.951,76.099 217.015,76.562C217.079,77.024 217.368,77.369 217.658,77.329C217.947,77.289 218.242,77.682 218.314,78.202C218.386,78.721 218.682,79.114 218.971,79.074C219.26,79.034 219.556,79.426 219.628,79.946C219.7,80.465 219.995,80.858 220.284,80.818C220.574,80.778 220.869,81.17 220.941,81.69C221.013,82.21 221.309,82.602 221.598,82.562C221.887,82.522 222.183,82.915 222.255,83.434C222.326,83.954 222.622,84.346 222.911,84.306C223.201,84.266 223.526,84.872 223.633,85.651C223.741,86.43 224.066,87.036 224.355,86.996C224.645,86.956 224.94,87.348 225.012,87.868C225.084,88.387 225.379,88.78 225.669,88.74C225.958,88.7 226.283,89.305 226.391,90.084C226.499,90.864 226.823,91.469 227.113,91.429C227.402,91.389 227.727,91.994 227.835,92.773C227.943,93.553 228.267,94.158 228.557,94.118C228.846,94.078 229.201,94.896 229.344,95.935C229.488,96.974 229.842,97.792 230.131,97.752C230.424,97.711 230.832,98.939 231.049,100.513C231.267,102.088 231.674,103.316 231.967,103.275C232.274,103.233 232.711,104.777 233.015,106.982C233.32,109.186 233.756,110.731 234.063,110.688C234.389,110.643 234.937,113.135 235.503,117.229C236.068,121.324 236.216,123.871 235.89,123.916C235.583,123.958 235.581,125.563 235.886,127.768C236.19,129.972 236.188,131.577 235.881,131.62C235.592,131.659 235.502,132.755 235.681,134.054C235.861,135.353 235.771,136.449 235.481,136.489C235.192,136.529 235.102,137.625 235.281,138.924C235.461,140.223 235.371,141.318 235.081,141.358C234.792,141.398 234.643,142.069 234.751,142.848C234.858,143.628 234.71,144.298 234.42,144.338C234.131,144.378 234.011,145.261 234.155,146.3C234.299,147.34 234.179,148.223 233.89,148.263C233.6,148.303 233.452,148.973 233.559,149.753C233.667,150.532 233.518,151.203 233.229,151.243C232.939,151.282 232.761,151.74 232.833,152.26C232.905,152.78 232.727,153.238 232.437,153.277C232.148,153.317 231.999,153.988 232.107,154.767C232.214,155.547 232.066,156.217 231.776,156.257C231.487,156.297 231.309,156.755 231.38,157.275C231.452,157.794 231.274,158.252 230.985,158.292C230.695,158.332 230.546,159.003 230.654,159.782C230.762,160.562 230.613,161.232 230.324,161.272C230.034,161.312 229.856,161.77 229.928,162.29C230,162.809 229.821,163.267 229.532,163.307C229.243,163.347 229.064,163.805 229.136,164.325C229.208,164.844 229.03,165.302 228.74,165.342C228.451,165.382 228.273,165.84 228.345,166.36C228.416,166.879 228.238,167.337 227.949,167.377C227.66,167.417 227.481,167.875 227.553,168.394C227.625,168.914 227.447,169.372 227.157,169.412C226.868,169.452 226.69,169.91 226.762,170.429C226.833,170.949 226.655,171.407 226.366,171.447C226.076,171.487 225.898,171.945 225.97,172.464C226.042,172.984 225.864,173.442 225.574,173.482C225.285,173.522 225.1,173.933 225.164,174.395C225.228,174.858 224.849,175.607 224.322,176.062C223.795,176.517 223.416,177.266 223.479,177.729C223.543,178.191 223.359,178.602 223.069,178.642C222.78,178.682 222.595,179.093 222.659,179.555C222.723,180.018 222.344,180.768 221.817,181.222C221.29,181.677 220.904,182.38 220.96,182.785C221.016,183.19 220.63,183.893 220.103,184.347C219.576,184.802 219.185,185.467 219.235,185.825C219.284,186.182 218.696,187.17 217.929,188.018C217.161,188.865 216.567,189.81 216.61,190.116C216.652,190.421 215.852,191.619 214.832,192.778C213.812,193.937 213.01,195.116 213.049,195.399C213.143,196.077 203.621,207.324 202.865,207.429C202.544,207.473 201.705,208.239 201.002,209.131C200.298,210.022 199.396,210.797 198.998,210.852C198.599,210.907 197.99,211.424 197.644,212.001C197.299,212.579 196.647,213.102 196.196,213.164C195.745,213.226 195.093,213.75 194.748,214.327C194.402,214.904 193.698,215.435 193.183,215.506C192.668,215.577 192.276,215.848 192.312,216.108C192.348,216.368 191.904,216.646 191.325,216.725C190.746,216.805 190.302,217.083 190.337,217.343C190.373,217.603 189.929,217.881 189.35,217.961C188.771,218.041 188.327,218.319 188.363,218.579C188.399,218.839 187.718,219.149 186.849,219.269C185.981,219.389 185.3,219.7 185.336,219.96C185.372,220.219 184.928,220.497 184.349,220.577C183.77,220.657 183.326,220.935 183.361,221.195C183.397,221.455 182.243,221.831 180.795,222.031C179.348,222.231 178.193,222.607 178.229,222.867C178.267,223.137 176.716,223.557 174.611,223.848C172.506,224.139 170.899,224.154 170.862,223.884C170.826,223.625 169.849,223.543 168.691,223.703C167.534,223.863 166.557,223.781 166.521,223.521C166.485,223.261 166.034,223.107 165.52,223.178C165.005,223.249 164.183,222.929 163.694,222.467C163.205,222.005 162.491,221.671 162.108,221.723C161.205,221.848 158.533,220.043 158.421,219.232C158.373,218.888 157.818,218.365 157.188,218.07C156.557,217.776 155.995,217.203 155.939,216.798C155.884,216.394 155.322,215.821 154.691,215.527C154.018,215.212 153.47,214.449 153.363,213.678C153.264,212.956 152.945,212.398 152.656,212.438C152.366,212.478 152.071,212.085 151.999,211.566C151.927,211.046 151.632,210.654 151.342,210.694C151.053,210.734 150.728,210.128 150.62,209.349C150.513,208.57 150.188,207.964 149.898,208.004C149.609,208.044 149.255,207.227 149.111,206.188C148.968,205.148 148.613,204.331 148.324,204.371C148.031,204.411 147.624,203.183 147.406,201.609C147.189,200.034 146.781,198.807 146.488,198.847C146.165,198.892 145.636,196.558 145.114,192.779C144.592,188.999 144.468,186.609 144.792,186.565C145.085,186.524 145.144,185.232 144.927,183.657C144.709,182.083 144.769,180.791 145.062,180.75C145.351,180.71 145.47,179.827 145.327,178.788C145.183,177.749 145.303,176.866 145.592,176.826C145.882,176.786 146.03,176.115 145.923,175.336C145.815,174.556 145.964,173.886 146.253,173.846C146.543,173.806 146.691,173.136 146.584,172.356C146.476,171.577 146.625,170.906 146.914,170.866C147.204,170.826 147.382,170.368 147.31,169.849C147.238,169.329 147.416,168.871 147.706,168.831C147.995,168.791 148.173,168.333 148.102,167.814C148.03,167.294 148.208,166.836 148.497,166.796C148.787,166.756 148.971,166.345 148.907,165.883C148.844,165.421 149.223,164.671 149.75,164.216C150.277,163.762 150.67,163.115 150.624,162.779C150.514,161.982 158.156,152.945 159.044,152.823C159.418,152.771 160.008,152.256 160.353,151.679C160.699,151.102 161.402,150.571 161.918,150.5C162.432,150.429 162.825,150.158 162.789,149.899C162.753,149.639 163.197,149.361 163.776,149.281C164.355,149.201 164.799,148.923 164.763,148.663C164.727,148.403 165.408,148.092 166.277,147.973C167.145,147.853 167.826,147.542 167.79,147.282C167.754,147.022 168.672,146.679 169.83,146.519C170.988,146.359 171.906,146.016 171.87,145.756C171.83,145.47 174.085,144.968 177.593,144.484C181.102,143.999 183.408,143.871 183.447,144.157C183.483,144.417 184.171,144.538 184.975,144.427C185.834,144.309 186.805,144.572 187.327,145.065C187.816,145.527 188.536,145.861 188.927,145.807C189.843,145.681 191.302,146.667 191.416,147.489C191.464,147.84 192.02,148.368 192.65,148.663C193.281,148.957 193.849,149.577 193.913,150.039C193.977,150.501 194.266,150.847 194.555,150.807C194.845,150.767 195.14,151.159 195.212,151.679C195.284,152.199 195.579,152.591 195.869,152.551C196.158,152.511 196.483,153.116 196.591,153.896C196.699,154.675 197.023,155.28 197.313,155.24C197.602,155.2 197.898,155.593 197.97,156.112C198.041,156.632 198.337,157.024 198.626,156.984C198.916,156.944 199.211,157.337 199.283,157.856C199.38,158.556 199.765,158.753 200.767,158.614C202.493,158.376 203.483,157.205 203.269,155.655C203.177,154.987 203.338,154.408 203.628,154.368C203.921,154.327 203.98,153.035 203.763,151.461C203.545,149.886 203.605,148.594 203.897,148.554C204.204,148.511 204.206,146.906 203.902,144.702C203.597,142.497 203.16,140.953 202.854,140.995C202.564,141.035 202.21,140.218 202.066,139.178C201.923,138.139 201.569,137.321 201.279,137.361C200.99,137.401 200.665,136.796 200.557,136.017C200.449,135.237 200.125,134.632 199.835,134.672C199.546,134.712 199.25,134.32 199.178,133.8C199.107,133.28 198.811,132.888 198.522,132.928C198.232,132.968 197.943,132.622 197.879,132.16C197.815,131.698 197.247,131.079 196.617,130.784C195.986,130.489 195.432,129.972 195.385,129.634C195.275,128.833 189.027,124.611 188.135,124.734C187.758,124.786 187.05,124.451 186.561,123.989C186.072,123.527 185.251,123.207 184.736,123.278C184.221,123.349 183.77,123.195 183.734,122.935C183.698,122.675 183.195,122.528 182.616,122.608C182.038,122.688 181.535,122.541 181.499,122.281C181.463,122.021 180.96,121.874 180.381,121.954C179.802,122.034 179.299,121.887 179.263,121.627C179.227,121.367 178.487,121.252 177.619,121.372C176.751,121.492 176.011,121.378 175.975,121.118C175.939,120.858 174.963,120.776 173.805,120.936C172.647,121.096 171.67,121.015 171.635,120.755C171.594,120.459 168.237,120.743 162.623,121.518C157.009,122.293 153.701,122.93 153.742,123.226C153.778,123.486 152.623,123.862 151.176,124.062C149.729,124.262 148.574,124.638 148.61,124.898C148.646,125.157 147.965,125.468 147.096,125.588C146.228,125.708 145.547,126.019 145.583,126.278C145.619,126.538 144.938,126.849 144.069,126.969C143.201,127.089 142.52,127.4 142.556,127.659C142.592,127.919 141.911,128.23 141.042,128.35C140.174,128.47 139.493,128.78 139.529,129.04C139.565,129.3 139.12,129.578 138.541,129.658C137.963,129.738 137.518,130.016 137.554,130.276C137.59,130.536 137.146,130.814 136.567,130.894C135.988,130.973 135.544,131.251 135.58,131.511C135.616,131.771 135.223,132.042 134.709,132.113C134.193,132.184 133.49,132.715 133.144,133.292C132.799,133.869 132.189,134.387 131.791,134.442C131.392,134.497 130.49,135.271 129.787,136.163C129.083,137.054 128.244,137.82 127.921,137.865C127.155,137.97 120.412,145.944 120.506,146.631C120.546,146.921 119.951,147.852 119.183,148.7C118.416,149.548 117.828,150.535 117.877,150.892C117.927,151.25 117.536,151.915 117.009,152.37C116.482,152.825 116.102,153.574 116.166,154.037C116.23,154.499 116.046,154.91 115.756,154.95C115.467,154.99 115.289,155.448 115.36,155.968C115.432,156.487 115.254,156.945 114.965,156.985C114.675,157.025 114.497,157.483 114.569,158.002C114.641,158.522 114.463,158.98 114.173,159.02C113.884,159.06 113.706,159.518 113.777,160.037C113.849,160.557 113.671,161.015 113.382,161.055C113.092,161.095 112.914,161.553 112.986,162.072C113.058,162.592 112.879,163.05 112.59,163.09C112.301,163.13 112.152,163.8 112.26,164.58C112.367,165.359 112.218,166.03 111.929,166.07C111.64,166.11 111.491,166.78 111.598,167.56C111.706,168.339 111.557,169.01 111.268,169.05C110.979,169.09 110.83,169.76 110.937,170.539C111.045,171.319 110.896,171.989 110.607,172.029C110.317,172.069 110.169,172.74 110.276,173.519C110.384,174.299 110.235,174.969 109.946,175.009C109.656,175.049 109.566,176.145 109.746,177.444C109.925,178.743 109.835,179.839 109.546,179.879C109.253,179.919 109.194,181.211 109.411,182.786C109.628,184.36 109.569,185.652 109.276,185.693C108.939,185.739 109.337,190.017 110.381,197.576C111.425,205.134 112.202,209.359 112.538,209.313C112.831,209.273 113.239,210.5 113.456,212.075C113.674,213.649 114.081,214.877 114.374,214.836C114.663,214.796 115.018,215.614 115.161,216.653C115.305,217.693 115.659,218.51 115.948,218.47C116.238,218.43 116.592,219.248 116.736,220.287C116.879,221.327 117.233,222.144 117.523,222.104C117.812,222.064 118.108,222.457 118.18,222.976C118.251,223.496 118.547,223.888 118.836,223.848C119.126,223.808 119.451,224.414 119.558,225.193C119.666,225.972 119.991,226.577 120.28,226.538C120.57,226.498 120.865,226.89 120.937,227.41C121.009,227.929 121.304,228.322 121.594,228.282C121.883,228.242 122.179,228.634 122.251,229.154C122.322,229.674 122.618,230.066 122.907,230.026C123.197,229.986 123.492,230.379 123.564,230.898C123.636,231.418 123.931,231.81 124.221,231.77C124.51,231.73 124.806,232.123 124.878,232.642C124.949,233.162 125.245,233.555 125.534,233.515C125.824,233.475 126.107,233.782 126.165,234.197C126.222,234.613 127.062,235.45 128.031,236.058C129,236.666 129.825,237.4 129.865,237.688C129.967,238.425 143.381,247.418 144.208,247.304C144.581,247.252 145.287,247.588 145.776,248.05C146.265,248.512 147.086,248.832 147.601,248.761C148.116,248.69 148.567,248.844 148.603,249.104C148.639,249.364 149.142,249.511 149.721,249.431C150.299,249.351 150.802,249.498 150.838,249.758C150.874,250.018 151.377,250.165 151.956,250.085C152.535,250.005 153.038,250.152 153.074,250.412C153.11,250.672 153.613,250.819 154.192,250.739C154.77,250.659 155.273,250.806 155.309,251.066C155.345,251.326 156.085,251.44 156.953,251.32C157.822,251.2 158.561,251.315 158.597,251.575C158.633,251.835 159.373,251.949 160.241,251.829C161.11,251.709 161.849,251.824 161.885,252.083C161.921,252.343 163.135,252.392 164.582,252.192C166.029,251.993 167.242,252.042 167.278,252.301C167.319,252.594 170.15,252.386 174.711,251.756C179.272,251.126 182.054,250.559 182.014,250.266C181.978,250.006 183.132,249.63 184.58,249.43C186.027,249.231 187.181,248.854 187.146,248.595C187.11,248.335 188.028,247.991 189.185,247.832C190.343,247.672 191.261,247.328 191.225,247.068C191.189,246.809 191.87,246.498 192.739,246.378C193.607,246.258 194.288,245.947 194.252,245.688C194.216,245.428 194.661,245.15 195.239,245.07C195.818,244.99 196.263,244.712 196.227,244.452C196.191,244.192 196.872,243.881 197.74,243.762C198.609,243.642 199.29,243.331 199.254,243.071C199.218,242.811 199.662,242.533 200.241,242.453C200.82,242.373 201.264,242.095 201.228,241.836C201.192,241.576 201.637,241.298 202.216,241.218C202.794,241.138 203.239,240.86 203.203,240.6C203.167,240.34 203.611,240.062 204.19,239.982C204.769,239.902 205.213,239.624 205.177,239.364C205.141,239.105 205.586,238.827 206.165,238.747C206.743,238.667 207.188,238.389 207.152,238.129C207.116,237.869 207.508,237.598 208.023,237.527C208.538,237.456 209.242,236.926 209.587,236.348C209.933,235.771 210.637,235.241 211.152,235.169C211.667,235.098 212.059,234.827 212.023,234.568C211.987,234.308 212.379,234.037 212.894,233.966C213.409,233.895 214.113,233.364 214.459,232.787C214.804,232.21 215.413,231.692 215.812,231.637C216.21,231.582 217.113,230.808 217.816,229.916C218.519,229.025 219.379,228.256 219.725,228.208C220.072,228.16 220.931,227.392 221.635,226.5C222.338,225.609 223.189,224.841 223.526,224.795C223.863,224.748 225.145,223.488 226.375,221.994C227.606,220.5 228.867,219.243 229.179,219.2C229.915,219.098 239.437,207.844 239.346,207.184C239.308,206.906 240.524,205.231 242.05,203.461C243.575,201.691 244.789,199.998 244.748,199.698C244.706,199.398 245.3,198.459 246.068,197.611C246.836,196.763 247.429,195.814 247.386,195.503C247.343,195.192 247.936,194.243 248.704,193.395C249.472,192.548 250.059,191.56 250.01,191.203C249.96,190.845 250.351,190.18 250.878,189.725C251.405,189.271 251.791,188.567 251.735,188.163C251.679,187.758 252.065,187.055 252.592,186.6C253.119,186.145 253.505,185.442 253.449,185.037C253.393,184.633 253.778,183.929 254.305,183.475C254.833,183.02 255.212,182.27 255.148,181.808C255.084,181.346 255.269,180.935 255.558,180.895C255.847,180.855 256.032,180.444 255.968,179.982C255.904,179.519 256.283,178.769 256.811,178.315C257.338,177.86 257.717,177.11 257.653,176.648C257.589,176.186 257.774,175.775 258.063,175.735C258.353,175.695 258.531,175.237 258.459,174.717C258.387,174.198 258.565,173.74 258.855,173.7C259.144,173.66 259.329,173.249 259.265,172.787C259.201,172.324 259.58,171.574 260.107,171.12C260.634,170.665 261.013,169.915 260.95,169.453C260.886,168.991 261.07,168.58 261.36,168.54C261.649,168.5 261.827,168.042 261.755,167.522C261.684,167.002 261.862,166.545 262.151,166.505C262.441,166.465 262.589,165.794 262.482,165.015C262.374,164.235 262.523,163.565 262.812,163.525C263.102,163.485 263.28,163.027 263.208,162.507C263.136,161.988 263.314,161.53 263.604,161.49C263.893,161.45 264.071,160.992 264,160.472C263.928,159.953 264.106,159.495 264.395,159.455C264.685,159.415 264.863,158.957 264.791,158.437C264.719,157.918 264.897,157.46 265.187,157.42C265.476,157.38 265.625,156.709 265.517,155.93C265.41,155.15 265.558,154.48 265.848,154.44C266.137,154.4 266.286,153.73 266.178,152.95C266.071,152.171 266.22,151.5 266.509,151.46C266.798,151.42 266.976,150.962 266.905,150.443C266.833,149.923 267.011,149.465 267.3,149.425C267.59,149.385 267.739,148.715 267.631,147.935C267.523,147.156 267.672,146.485 267.962,146.446C268.251,146.406 268.37,145.522 268.227,144.483C268.083,143.444 268.203,142.561 268.492,142.521C268.782,142.481 268.93,141.81 268.823,141.031C268.715,140.252 268.864,139.581 269.153,139.541C269.443,139.501 269.562,138.618 269.418,137.579C269.275,136.54 269.394,135.656 269.684,135.617C269.973,135.577 270.063,134.481 269.884,133.182C269.704,131.883 269.794,130.787 270.084,130.747C270.376,130.707 270.436,129.415 270.219,127.84C270.001,126.265 270.061,124.973 270.353,124.933C270.669,124.889 270.619,122.971 270.227,120.136C269.836,117.302 269.785,115.383 270.101,115.339C270.428,115.294 270.257,112.59 269.649,108.181C269.04,103.772 268.471,101.122 268.144,101.167C267.832,101.21 267.378,99.508 267.03,96.988C266.682,94.469 266.229,92.766 265.917,92.809C265.627,92.849 265.244,91.819 265.064,90.52C264.885,89.221 264.501,88.191 264.212,88.231C263.922,88.271 263.539,87.241 263.359,85.941C263.18,84.642 262.796,83.612 262.507,83.652C262.217,83.692 261.863,82.874 261.72,81.835C261.576,80.796 261.222,79.978 260.932,80.018C260.643,80.058 260.318,79.453 260.21,78.674C260.103,77.894 259.778,77.289 259.488,77.329C259.199,77.369 258.874,76.764 258.766,75.985C258.659,75.205 258.334,74.6 258.044,74.64C257.755,74.68 257.43,74.075 257.322,73.296C257.215,72.516 256.89,71.911 256.6,71.951C256.311,71.991 256.015,71.599 255.944,71.079C255.872,70.559 255.576,70.167 255.287,70.207C254.997,70.247 254.673,69.642 254.565,68.862C254.457,68.083 254.132,67.478 253.843,67.518C253.553,67.558 253.258,67.165 253.186,66.646C253.114,66.126 252.819,65.733 252.529,65.773C252.24,65.813 251.944,65.421 251.873,64.901C251.801,64.382 251.505,63.989 251.216,64.029C250.927,64.069 250.631,63.677 250.559,63.157C250.487,62.637 250.192,62.245 249.902,62.285C249.613,62.325 249.317,61.932 249.246,61.413C249.174,60.893 248.878,60.501 248.589,60.541C248.3,60.581 248.004,60.188 247.932,59.669C247.86,59.149 247.565,58.756 247.275,58.796C246.986,58.836 246.697,58.491 246.633,58.029C246.569,57.566 246.001,56.947 245.37,56.652C244.74,56.358 244.172,55.739 244.108,55.276C244.044,54.814 243.755,54.468 243.466,54.508C243.176,54.548 242.887,54.203 242.823,53.741C242.759,53.278 242.191,52.659 241.561,52.364C240.93,52.07 240.373,51.536 240.324,51.178C240.275,50.82 239.441,50.029 238.473,49.421C237.504,48.813 236.676,48.061 236.633,47.749C236.59,47.438 235.762,46.686 234.793,46.078C233.824,45.47 232.999,44.737 232.959,44.449C232.866,43.772 214.742,31.516 213.988,31.62C213.674,31.664 212.389,30.975 211.133,30.089C209.877,29.203 208.528,28.523 208.135,28.577C207.742,28.632 207.021,28.298 206.532,27.836C206.042,27.374 205.273,27.047 204.822,27.109C204.371,27.172 203.602,26.845 203.113,26.383C202.624,25.921 201.855,25.593 201.404,25.656C200.953,25.718 200.184,25.391 199.695,24.929C199.205,24.467 198.384,24.147 197.869,24.218C197.354,24.289 196.903,24.135 196.868,23.875C196.832,23.615 196.381,23.461 195.866,23.532C195.351,23.603 194.53,23.283 194.041,22.821C193.551,22.359 192.73,22.04 192.215,22.111C191.7,22.182 191.249,22.027 191.213,21.767C191.178,21.508 190.675,21.36 190.096,21.441C189.517,21.52 189.014,21.373 188.978,21.113C188.942,20.854 188.439,20.706 187.86,20.786C187.281,20.866 186.778,20.719 186.742,20.459C186.707,20.2 186.204,20.052 185.625,20.132C185.046,20.212 184.543,20.065 184.507,19.805C184.471,19.546 183.731,19.431 182.863,19.551C181.995,19.671 181.255,19.556 181.219,19.297C181.183,19.037 180.68,18.89 180.101,18.97C179.522,19.049 179.019,18.902 178.983,18.642C178.948,18.383 178.208,18.268 177.339,18.388C176.471,18.508 175.731,18.394 175.695,18.134C175.66,17.874 174.92,17.76 174.051,17.879C173.183,17.999 172.443,17.885 172.407,17.625C172.372,17.365 171.632,17.251 170.763,17.371C169.895,17.491 169.155,17.376 169.119,17.116C169.083,16.857 168.344,16.742 167.475,16.862C166.607,16.982 165.867,16.867 165.831,16.608C165.795,16.348 164.819,16.266 163.661,16.426C162.503,16.586 161.527,16.504 161.491,16.244C161.455,15.984 160.478,15.903 159.321,16.063C158.163,16.223 157.186,16.141 157.15,15.881C157.114,15.618 155.682,15.602 153.928,15.845C152.174,16.087 150.741,16.071 150.705,15.808C150.668,15.546 149.236,15.53 147.482,15.772C145.728,16.014 144.295,15.998 144.259,15.736C144.217,15.431 138.054,16.111 126.828,17.662C115.601,19.212 109.484,20.228 109.526,20.533C109.564,20.802 108.013,21.223 105.908,21.514C103.803,21.805 102.252,22.225 102.289,22.495C102.326,22.758 100.951,23.161 99.197,23.404C97.443,23.646 96.068,24.049 96.105,24.312C96.141,24.572 95.223,24.915 94.065,25.075C92.907,25.235 91.989,25.578 92.025,25.838C92.061,26.098 91.143,26.442 89.985,26.601C88.828,26.761 87.91,27.105 87.946,27.365C87.982,27.624 87.3,27.935 86.432,28.055C85.564,28.175 84.883,28.486 84.919,28.745C84.954,29.005 84.273,29.316 83.405,29.436C82.537,29.556 81.856,29.866 81.891,30.126C81.927,30.386 81.246,30.697 80.378,30.817C79.51,30.937 78.829,31.247 78.864,31.507C78.9,31.767 78.219,32.078 77.351,32.198C76.483,32.318 75.802,32.628 75.837,32.888C75.873,33.148 75.429,33.426 74.85,33.506C74.271,33.586 73.827,33.864 73.863,34.124C73.899,34.384 73.218,34.694 72.349,34.814C71.481,34.934 70.8,35.245 70.836,35.505C70.872,35.764 70.427,36.042 69.849,36.122C69.27,36.202 68.825,36.48 68.861,36.74C68.897,37 68.453,37.278 67.874,37.358C67.295,37.438 66.851,37.716 66.887,37.976C66.923,38.236 66.478,38.514 65.9,38.593C65.321,38.673 64.876,38.951 64.912,39.211C64.948,39.471 64.556,39.742 64.041,39.813C63.526,39.884 62.822,40.414 62.477,40.992C62.131,41.569 61.427,42.1 60.912,42.171C60.397,42.242 60.005,42.513 60.041,42.772C60.077,43.032 59.685,43.303 59.17,43.374C58.655,43.445 57.951,43.976 57.606,44.553C57.26,45.13 56.651,45.648 56.252,45.703C55.854,45.758 54.951,46.532 54.248,47.424C53.545,48.315 52.69,49.083 52.349,49.13C52.009,49.177 50.937,50.192 49.969,51.385C49,52.578 47.948,53.59 47.631,53.633C46.884,53.737 40.133,61.712 40.225,62.382C40.264,62.663 39.255,64.092 37.982,65.557C36.71,67.022 35.708,68.507 35.756,68.856C35.805,69.206 35.413,69.863 34.886,70.318C34.358,70.772 33.968,71.437 34.017,71.795C34.067,72.153 33.479,73.14 32.711,73.988C31.943,74.836 31.362,75.87 31.419,76.285C31.477,76.701 31.287,77.073 30.997,77.113C30.708,77.153 30.523,77.564 30.587,78.026C30.651,78.489 30.272,79.238 29.745,79.693C29.218,80.147 28.839,80.897 28.903,81.36C28.966,81.822 28.782,82.233 28.492,82.273C28.203,82.313 28.025,82.771 28.097,83.29C28.168,83.81 27.99,84.268 27.701,84.308C27.411,84.348 27.227,84.759 27.291,85.221C27.355,85.684 26.976,86.434 26.448,86.888C25.921,87.343 25.542,88.093 25.606,88.555C25.67,89.017 25.485,89.428 25.196,89.468C24.906,89.508 24.728,89.966 24.8,90.486C24.872,91.005 24.694,91.463 24.404,91.503C24.115,91.543 23.937,92.001 24.009,92.521C24.08,93.04 23.902,93.498 23.613,93.538C23.323,93.578 23.174,94.249 23.282,95.028C23.39,95.808 23.241,96.478 22.952,96.518C22.662,96.558 22.484,97.016 22.556,97.535C22.628,98.055 22.45,98.513 22.16,98.553C21.871,98.593 21.693,99.051 21.764,99.57C21.836,100.09 21.658,100.548 21.369,100.588C21.079,100.628 20.901,101.086 20.973,101.605C21.045,102.125 20.866,102.583 20.577,102.623C20.288,102.663 20.139,103.333 20.247,104.113C20.354,104.892 20.206,105.563 19.916,105.603C19.627,105.643 19.449,106.1 19.52,106.62C19.592,107.14 19.414,107.598 19.125,107.638C18.835,107.678 18.686,108.348 18.794,109.128C18.902,109.907 18.753,110.577 18.463,110.617C18.174,110.657 18.025,111.328 18.133,112.107C18.241,112.887 18.092,113.557 17.802,113.597C17.513,113.637 17.364,114.308 17.472,115.087C17.58,115.867 17.431,116.537 17.141,116.577C16.852,116.617 16.703,117.287 16.811,118.067C16.919,118.846 16.77,119.517 16.48,119.557C16.191,119.597 16.042,120.267 16.15,121.047C16.257,121.826 16.109,122.497 15.819,122.537C15.53,122.577 15.411,123.46 15.554,124.499C15.698,125.538 15.578,126.421 15.289,126.461C14.999,126.501 14.88,127.384 15.023,128.423C15.167,129.463 15.048,130.346 14.758,130.386C14.458,130.427 14.428,131.876 14.689,133.765Z" style="fill:white;fill-rule:nonzero;"/>
    </g>
</svg>
