<svg width="261" height="257" viewBox="0 0 261 257" fill="none" xmlns="http://www.w3.org/2000/svg">
<mask id="path-1-outside-1" maskUnits="userSpaceOnUse" x="0" y="0" width="261" height="258" fill="black">
<rect fill="white" width="261" height="258"/>
<path fill-rule="evenodd" clip-rule="evenodd" d="M102.886 4.08078C100.312 4.32935 91.6294 5.91543 87.9432 6.81045C80.616 8.58922 74.791 10.7425 67.1899 14.4815C61.3487 17.355 60.6704 17.7379 56.7012 20.4046C55.2501 21.3797 53.8879 22.1771 53.6741 22.1771C53.4603 22.1771 53.2765 22.3181 53.2657 22.4899C53.2549 22.6617 52.3114 23.4596 51.1688 24.2624C50.0261 25.0652 48.653 26.0975 48.1176 26.5562C43.2746 30.7056 41.8443 32.0143 38.7624 35.1185C33.103 40.8181 27.2643 48.2877 22.4711 55.9591C20.0334 59.8611 19.3892 61.0297 17.1844 65.5515C16.0097 67.9601 14.8803 70.2456 14.674 70.6305C14 71.8892 11.3519 78.8963 10.0764 82.7962C7.56313 90.4814 5.58285 99.4503 4.72075 107.049C3.53574 117.499 3.83874 131.803 5.43259 140.623C5.81155 142.72 6.04398 146.125 6.00165 148.964C5.80532 162.124 7.8985 175.446 12.055 187.491C14.4678 194.483 18.413 203.209 21.384 208.125C22.2648 209.582 22.9853 210.927 22.9853 211.114C22.9853 211.301 23.1256 211.516 23.2966 211.593C23.4681 211.669 24.3542 212.858 25.2661 214.234C26.178 215.61 27.1119 216.949 27.3415 217.209C27.571 217.468 28.4019 218.501 29.1885 219.503C31.2995 222.192 38.105 229.029 40.3409 230.708C41.4105 231.511 42.4723 232.32 42.7006 232.505C45.2657 234.587 54.6449 239.678 57.4358 240.504C58.0066 240.672 59.0338 241.053 59.7187 241.35C61.8982 242.296 66.8533 243.637 71.4501 244.527C77.0344 245.608 90.6378 246.063 95.5929 245.335C97.8998 244.996 99.1189 244.981 99.6439 245.284C102.948 247.195 112.975 250.37 120.941 252.028C125.381 252.952 126.598 253.019 138.374 252.997C151.934 252.97 154.261 252.695 164.835 249.862C176.004 246.871 190.549 240.46 200.219 234.267C208.592 228.905 211.89 226.416 218.077 220.789C221.773 217.427 229.808 208.617 231.471 206.101C232.002 205.299 233.106 203.703 233.923 202.556C235.849 199.853 239.088 194.31 241.353 189.836C246.555 179.569 249.767 169.498 251.665 157.514C252.693 151.023 253.069 149.071 253.878 146.044C255.845 138.686 256.538 133.897 256.925 124.983C257.217 118.267 256.635 109.288 255.561 103.921C255.216 102.201 254.763 99.9487 254.554 98.9165C253.281 92.6468 249.658 82.6965 245.883 75.1014C238.164 59.5713 228.181 48.0942 213.596 37.9825C204.597 31.7432 194.181 25.9586 187.767 23.6393C186.739 23.2677 184.685 22.5316 183.201 22.0036C181.717 21.4756 177.69 19.6564 174.252 17.961C170.813 16.2657 167.44 14.6437 166.754 14.3568C156.422 10.0302 147.342 7.3618 135.676 5.22311C130.409 4.25803 128.679 4.14709 117.205 4.03907C110.243 3.97359 103.799 3.99236 102.886 4.08078ZM125.299 7.36806C135.212 8.29185 143.35 10.076 154.119 13.687C159.671 15.5491 161.414 16.2648 161.118 16.5622C161.032 16.6481 158.448 16.4492 155.375 16.1197C152.302 15.7902 148.13 15.517 146.104 15.5124C137.981 15.4941 122.101 17.5277 114.715 19.5321C105.176 22.1208 101.296 23.3732 93.9617 26.2305C86.4569 29.1545 72.3944 36.24 66.2315 40.2033C65.6172 40.5983 64.4608 41.3027 63.6618 41.7694C61.9053 42.7945 57.9103 45.6068 53.7098 48.7756C49.269 52.1255 41.4089 60.254 38.1353 64.8813C37.6787 65.5265 36.6331 66.9266 35.8121 67.9926C30.1722 75.3141 23.4963 86.1657 19.3527 94.7459C16.9636 99.6935 15.7835 102.542 13.0486 109.969C11.9898 112.843 10.2349 118.817 9.89248 120.713C9.32218 123.868 8.87308 122.642 8.87308 117.93C8.87308 113.681 10.6064 97.3074 11.1497 96.4241C11.263 96.2402 11.6341 94.7083 11.9749 93.0196C13.0092 87.8923 16.2521 77.7402 18.4175 72.8501C25.3454 57.2049 32.7797 46.0335 43.2833 35.4851C51.1804 27.5543 58.2793 22.3393 67.612 17.614C73.7189 14.5219 74.1456 14.3372 79.0193 12.6723C86.7599 10.0281 86.3062 10.1486 95.1226 8.38694C102.907 6.8313 115.116 6.41924 125.299 7.36806ZM159.127 20.0413C167.102 21.3129 177.463 23.872 178.635 24.8596C178.978 25.1482 180.285 25.9815 181.541 26.7118C182.796 27.4417 184.29 28.3888 184.861 28.8167C185.432 29.2442 187.3 30.6155 189.012 31.8638C193.217 34.9304 195.034 36.5403 200.658 42.1806C205.141 46.6761 211.706 54.2854 215.245 59.0871C216.09 60.234 217.023 61.4476 217.317 61.7838C217.611 62.1204 218.299 63.0588 218.846 63.8691C219.393 64.6799 220.624 66.4699 221.582 67.847C223.07 69.9878 227.37 76.9936 229.772 81.1914C230.166 81.8795 231.788 85.07 233.377 88.2814C240.007 101.679 243.646 112.524 246.113 126.234C247.114 131.8 247.243 133.571 247.283 142.291L247.329 152.092L246.016 155.637C244.696 159.2 243.101 162.935 241.743 165.646C239.797 169.528 237.385 173.963 236.301 175.656C235.639 176.688 234.969 177.814 234.811 178.158C234.653 178.502 233.499 180.285 232.246 182.12C222.054 197.045 209.825 209.302 195.834 218.613C176.13 231.727 157.307 238.911 137.336 240.939C130.54 241.629 122.514 241.597 117.942 240.863L116.308 240.6L119.143 239.375C126.109 236.365 131.291 233.557 137.188 229.598C141.715 226.558 142.731 225.595 142.38 224.676C141.913 223.453 139.455 223.898 137.27 225.601C136.165 226.462 134.42 227.712 133.393 228.377C132.366 229.043 130.992 229.953 130.341 230.4C127.747 232.182 118.402 236.562 114.092 238.017L109.527 239.559L105.791 238.824C103.736 238.421 101.402 237.857 100.603 237.572C99.8037 237.287 97.8425 236.639 96.2445 236.132C92.9813 235.098 86.0883 232.384 85.4528 231.885C74.8877 223.578 66.4843 215.46 59.8424 207.144C49.7123 194.46 43.8134 181.34 40.2475 163.561C37.242 148.576 36.6622 132.174 38.5561 115.707C39.1302 110.716 39.6839 106.351 39.7868 106.007C40.3173 104.229 41.6496 95.4778 41.4413 95.1391C41.0797 94.5515 39.2887 94.6645 37.9514 95.3589C36.9419 95.8836 36.6767 96.4112 36.116 99.0082C31.661 119.644 31.1032 143.5 34.6317 162.518C36.3679 171.879 39.5054 181.907 43.1347 189.696C43.9234 191.389 44.5688 192.843 44.5688 192.928C44.5688 193.013 45.4442 194.651 46.5142 196.568C49.8036 202.463 53.7571 207.901 59.4672 214.386C62.7744 218.142 62.4025 218.254 58.2004 214.766C51.4398 209.155 45.0976 203.146 39.5834 197.129C37.1287 194.45 30.9036 186.808 29.2279 184.417C23.8171 176.696 20.9204 171.536 17.1682 162.935C15.5424 159.209 12.2878 148.787 11.7557 145.604C11.3182 142.986 11.346 141.454 11.9329 135.826C12.3156 132.156 12.8121 128.403 13.0358 127.485C13.2599 126.568 14.0016 123.471 14.684 120.604C16.1604 114.399 18.6886 106.829 21.2657 100.896C22.3652 98.3651 26.9567 89.171 28.1176 87.1754C28.6049 86.3379 29.7364 84.3673 30.6317 82.7962C31.5274 81.2255 32.9747 78.963 33.8484 77.7685C34.7226 76.5741 35.4373 75.4909 35.4373 75.3621C35.4373 74.9821 41.941 66.4895 45.3458 62.4236C48.9535 58.1153 53.3491 53.5969 56.5024 50.9552C59.2991 48.6126 66.5167 43.5157 69.2652 41.9425C69.7218 41.6814 71.7764 40.4799 73.831 39.2729C79.9756 35.6628 88.5276 31.4567 94.5843 29.067C108.893 23.4204 118.538 21.0189 134.638 19.0954C138.441 18.6408 154.151 19.2477 159.127 20.0413ZM200.69 34.7932C203.963 36.5315 214.34 44.0028 217.859 47.1545C224.24 52.8695 231.894 61.5482 234.499 66.0207C234.747 66.4478 235.227 67.1268 235.565 67.5297C235.903 67.9325 236.933 69.5762 237.854 71.1819C246.704 86.6157 251.784 104.749 251.64 120.395C251.598 124.991 251.608 125.009 249.817 117.267C248.134 109.992 245.57 102.159 242.787 95.7885C242.487 95.1004 241.708 93.3174 241.058 91.8264C238.855 86.7721 233.613 77.0791 230.865 72.9773C229.989 71.6711 229.273 70.497 229.273 70.3686C229.273 70.2406 228.459 68.9631 227.462 67.5305C226.467 66.0979 225.204 64.2691 224.657 63.4662C218.401 54.2838 205.919 39.8776 200.473 35.5531C198.823 34.2427 198.932 33.8594 200.69 34.7932ZM13.4255 167.145C13.4641 168.479 19.2888 178.867 23.3427 184.831C28.7253 192.75 41.6799 207.034 49.1345 213.269C52.3924 215.993 59.3194 221.484 60.7564 222.482C67.9798 227.494 71.3655 229.555 77.7741 232.843C80.1711 234.072 83.8224 236.229 85.8886 237.635C87.9544 239.041 90.009 240.313 90.4544 240.461C90.8993 240.61 91.7307 241.115 92.3014 241.584L93.3391 242.437L85.4528 242.267C77.0805 242.086 72.6102 241.389 65.5296 239.16C57.8073 236.729 49.836 232.437 43.7386 227.428C32.3364 218.062 22.1826 202.387 16.8204 185.874C14.7749 179.576 12.7735 171.267 12.3397 167.274C12.1106 165.163 12.1367 165.074 12.7535 165.855C13.1159 166.314 13.4185 166.894 13.4255 167.145ZM242.178 176.731C233.016 201.905 216.317 221.383 191.917 235.351C187.57 237.84 179.383 241.969 178.795 241.969C178.662 241.969 177.964 242.239 177.245 242.57C175.208 243.507 169.595 245.54 166.391 246.503C156.88 249.36 149.337 250.482 139.619 250.483C128.261 250.486 118.969 248.718 108.281 244.521C105.336 243.364 106.714 242.987 111.288 243.698C113.708 244.074 118.666 244.255 126.129 244.241C135.843 244.222 138.055 244.093 142.732 243.275C157.084 240.763 168.733 236.937 181.52 230.537C186.328 228.13 190.747 225.713 191.502 225.077C191.845 224.789 192.685 224.243 193.37 223.864C195.075 222.921 196.46 222.031 199.269 220.073C217.248 207.537 230.852 193.061 242.315 174.264C243.503 172.316 243.453 173.226 242.178 176.731Z"/>
</mask>
<path fill-rule="evenodd" clip-rule="evenodd" d="M102.886 4.08078C100.312 4.32935 91.6294 5.91543 87.9432 6.81045C80.616 8.58922 74.791 10.7425 67.1899 14.4815C61.3487 17.355 60.6704 17.7379 56.7012 20.4046C55.2501 21.3797 53.8879 22.1771 53.6741 22.1771C53.4603 22.1771 53.2765 22.3181 53.2657 22.4899C53.2549 22.6617 52.3114 23.4596 51.1688 24.2624C50.0261 25.0652 48.653 26.0975 48.1176 26.5562C43.2746 30.7056 41.8443 32.0143 38.7624 35.1185C33.103 40.8181 27.2643 48.2877 22.4711 55.9591C20.0334 59.8611 19.3892 61.0297 17.1844 65.5515C16.0097 67.9601 14.8803 70.2456 14.674 70.6305C14 71.8892 11.3519 78.8963 10.0764 82.7962C7.56313 90.4814 5.58285 99.4503 4.72075 107.049C3.53574 117.499 3.83874 131.803 5.43259 140.623C5.81155 142.72 6.04398 146.125 6.00165 148.964C5.80532 162.124 7.8985 175.446 12.055 187.491C14.4678 194.483 18.413 203.209 21.384 208.125C22.2648 209.582 22.9853 210.927 22.9853 211.114C22.9853 211.301 23.1256 211.516 23.2966 211.593C23.4681 211.669 24.3542 212.858 25.2661 214.234C26.178 215.61 27.1119 216.949 27.3415 217.209C27.571 217.468 28.4019 218.501 29.1885 219.503C31.2995 222.192 38.105 229.029 40.3409 230.708C41.4105 231.511 42.4723 232.32 42.7006 232.505C45.2657 234.587 54.6449 239.678 57.4358 240.504C58.0066 240.672 59.0338 241.053 59.7187 241.35C61.8982 242.296 66.8533 243.637 71.4501 244.527C77.0344 245.608 90.6378 246.063 95.5929 245.335C97.8998 244.996 99.1189 244.981 99.6439 245.284C102.948 247.195 112.975 250.37 120.941 252.028C125.381 252.952 126.598 253.019 138.374 252.997C151.934 252.97 154.261 252.695 164.835 249.862C176.004 246.871 190.549 240.46 200.219 234.267C208.592 228.905 211.89 226.416 218.077 220.789C221.773 217.427 229.808 208.617 231.471 206.101C232.002 205.299 233.106 203.703 233.923 202.556C235.849 199.853 239.088 194.31 241.353 189.836C246.555 179.569 249.767 169.498 251.665 157.514C252.693 151.023 253.069 149.071 253.878 146.044C255.845 138.686 256.538 133.897 256.925 124.983C257.217 118.267 256.635 109.288 255.561 103.921C255.216 102.201 254.763 99.9487 254.554 98.9165C253.281 92.6468 249.658 82.6965 245.883 75.1014C238.164 59.5713 228.181 48.0942 213.596 37.9825C204.597 31.7432 194.181 25.9586 187.767 23.6393C186.739 23.2677 184.685 22.5316 183.201 22.0036C181.717 21.4756 177.69 19.6564 174.252 17.961C170.813 16.2657 167.44 14.6437 166.754 14.3568C156.422 10.0302 147.342 7.3618 135.676 5.22311C130.409 4.25803 128.679 4.14709 117.205 4.03907C110.243 3.97359 103.799 3.99236 102.886 4.08078ZM125.299 7.36806C135.212 8.29185 143.35 10.076 154.119 13.687C159.671 15.5491 161.414 16.2648 161.118 16.5622C161.032 16.6481 158.448 16.4492 155.375 16.1197C152.302 15.7902 148.13 15.517 146.104 15.5124C137.981 15.4941 122.101 17.5277 114.715 19.5321C105.176 22.1208 101.296 23.3732 93.9617 26.2305C86.4569 29.1545 72.3944 36.24 66.2315 40.2033C65.6172 40.5983 64.4608 41.3027 63.6618 41.7694C61.9053 42.7945 57.9103 45.6068 53.7098 48.7756C49.269 52.1255 41.4089 60.254 38.1353 64.8813C37.6787 65.5265 36.6331 66.9266 35.8121 67.9926C30.1722 75.3141 23.4963 86.1657 19.3527 94.7459C16.9636 99.6935 15.7835 102.542 13.0486 109.969C11.9898 112.843 10.2349 118.817 9.89248 120.713C9.32218 123.868 8.87308 122.642 8.87308 117.93C8.87308 113.681 10.6064 97.3074 11.1497 96.4241C11.263 96.2402 11.6341 94.7083 11.9749 93.0196C13.0092 87.8923 16.2521 77.7402 18.4175 72.8501C25.3454 57.2049 32.7797 46.0335 43.2833 35.4851C51.1804 27.5543 58.2793 22.3393 67.612 17.614C73.7189 14.5219 74.1456 14.3372 79.0193 12.6723C86.7599 10.0281 86.3062 10.1486 95.1226 8.38694C102.907 6.8313 115.116 6.41924 125.299 7.36806ZM159.127 20.0413C167.102 21.3129 177.463 23.872 178.635 24.8596C178.978 25.1482 180.285 25.9815 181.541 26.7118C182.796 27.4417 184.29 28.3888 184.861 28.8167C185.432 29.2442 187.3 30.6155 189.012 31.8638C193.217 34.9304 195.034 36.5403 200.658 42.1806C205.141 46.6761 211.706 54.2854 215.245 59.0871C216.09 60.234 217.023 61.4476 217.317 61.7838C217.611 62.1204 218.299 63.0588 218.846 63.8691C219.393 64.6799 220.624 66.4699 221.582 67.847C223.07 69.9878 227.37 76.9936 229.772 81.1914C230.166 81.8795 231.788 85.07 233.377 88.2814C240.007 101.679 243.646 112.524 246.113 126.234C247.114 131.8 247.243 133.571 247.283 142.291L247.329 152.092L246.016 155.637C244.696 159.2 243.101 162.935 241.743 165.646C239.797 169.528 237.385 173.963 236.301 175.656C235.639 176.688 234.969 177.814 234.811 178.158C234.653 178.502 233.499 180.285 232.246 182.12C222.054 197.045 209.825 209.302 195.834 218.613C176.13 231.727 157.307 238.911 137.336 240.939C130.54 241.629 122.514 241.597 117.942 240.863L116.308 240.6L119.143 239.375C126.109 236.365 131.291 233.557 137.188 229.598C141.715 226.558 142.731 225.595 142.38 224.676C141.913 223.453 139.455 223.898 137.27 225.601C136.165 226.462 134.42 227.712 133.393 228.377C132.366 229.043 130.992 229.953 130.341 230.4C127.747 232.182 118.402 236.562 114.092 238.017L109.527 239.559L105.791 238.824C103.736 238.421 101.402 237.857 100.603 237.572C99.8037 237.287 97.8425 236.639 96.2445 236.132C92.9813 235.098 86.0883 232.384 85.4528 231.885C74.8877 223.578 66.4843 215.46 59.8424 207.144C49.7123 194.46 43.8134 181.34 40.2475 163.561C37.242 148.576 36.6622 132.174 38.5561 115.707C39.1302 110.716 39.6839 106.351 39.7868 106.007C40.3173 104.229 41.6496 95.4778 41.4413 95.1391C41.0797 94.5515 39.2887 94.6645 37.9514 95.3589C36.9419 95.8836 36.6767 96.4112 36.116 99.0082C31.661 119.644 31.1032 143.5 34.6317 162.518C36.3679 171.879 39.5054 181.907 43.1347 189.696C43.9234 191.389 44.5688 192.843 44.5688 192.928C44.5688 193.013 45.4442 194.651 46.5142 196.568C49.8036 202.463 53.7571 207.901 59.4672 214.386C62.7744 218.142 62.4025 218.254 58.2004 214.766C51.4398 209.155 45.0976 203.146 39.5834 197.129C37.1287 194.45 30.9036 186.808 29.2279 184.417C23.8171 176.696 20.9204 171.536 17.1682 162.935C15.5424 159.209 12.2878 148.787 11.7557 145.604C11.3182 142.986 11.346 141.454 11.9329 135.826C12.3156 132.156 12.8121 128.403 13.0358 127.485C13.2599 126.568 14.0016 123.471 14.684 120.604C16.1604 114.399 18.6886 106.829 21.2657 100.896C22.3652 98.3651 26.9567 89.171 28.1176 87.1754C28.6049 86.3379 29.7364 84.3673 30.6317 82.7962C31.5274 81.2255 32.9747 78.963 33.8484 77.7685C34.7226 76.5741 35.4373 75.4909 35.4373 75.3621C35.4373 74.9821 41.941 66.4895 45.3458 62.4236C48.9535 58.1153 53.3491 53.5969 56.5024 50.9552C59.2991 48.6126 66.5167 43.5157 69.2652 41.9425C69.7218 41.6814 71.7764 40.4799 73.831 39.2729C79.9756 35.6628 88.5276 31.4567 94.5843 29.067C108.893 23.4204 118.538 21.0189 134.638 19.0954C138.441 18.6408 154.151 19.2477 159.127 20.0413ZM200.69 34.7932C203.963 36.5315 214.34 44.0028 217.859 47.1545C224.24 52.8695 231.894 61.5482 234.499 66.0207C234.747 66.4478 235.227 67.1268 235.565 67.5297C235.903 67.9325 236.933 69.5762 237.854 71.1819C246.704 86.6157 251.784 104.749 251.64 120.395C251.598 124.991 251.608 125.009 249.817 117.267C248.134 109.992 245.57 102.159 242.787 95.7885C242.487 95.1004 241.708 93.3174 241.058 91.8264C238.855 86.7721 233.613 77.0791 230.865 72.9773C229.989 71.6711 229.273 70.497 229.273 70.3686C229.273 70.2406 228.459 68.9631 227.462 67.5305C226.467 66.0979 225.204 64.2691 224.657 63.4662C218.401 54.2838 205.919 39.8776 200.473 35.5531C198.823 34.2427 198.932 33.8594 200.69 34.7932ZM13.4255 167.145C13.4641 168.479 19.2888 178.867 23.3427 184.831C28.7253 192.75 41.6799 207.034 49.1345 213.269C52.3924 215.993 59.3194 221.484 60.7564 222.482C67.9798 227.494 71.3655 229.555 77.7741 232.843C80.1711 234.072 83.8224 236.229 85.8886 237.635C87.9544 239.041 90.009 240.313 90.4544 240.461C90.8993 240.61 91.7307 241.115 92.3014 241.584L93.3391 242.437L85.4528 242.267C77.0805 242.086 72.6102 241.389 65.5296 239.16C57.8073 236.729 49.836 232.437 43.7386 227.428C32.3364 218.062 22.1826 202.387 16.8204 185.874C14.7749 179.576 12.7735 171.267 12.3397 167.274C12.1106 165.163 12.1367 165.074 12.7535 165.855C13.1159 166.314 13.4185 166.894 13.4255 167.145ZM242.178 176.731C233.016 201.905 216.317 221.383 191.917 235.351C187.57 237.84 179.383 241.969 178.795 241.969C178.662 241.969 177.964 242.239 177.245 242.57C175.208 243.507 169.595 245.54 166.391 246.503C156.88 249.36 149.337 250.482 139.619 250.483C128.261 250.486 118.969 248.718 108.281 244.521C105.336 243.364 106.714 242.987 111.288 243.698C113.708 244.074 118.666 244.255 126.129 244.241C135.843 244.222 138.055 244.093 142.732 243.275C157.084 240.763 168.733 236.937 181.52 230.537C186.328 228.13 190.747 225.713 191.502 225.077C191.845 224.789 192.685 224.243 193.37 223.864C195.075 222.921 196.46 222.031 199.269 220.073C217.248 207.537 230.852 193.061 242.315 174.264C243.503 172.316 243.453 173.226 242.178 176.731Z" fill="white"/>
<path fill-rule="evenodd" clip-rule="evenodd" d="M102.886 4.08078C100.312 4.32935 91.6294 5.91543 87.9432 6.81045C80.616 8.58922 74.791 10.7425 67.1899 14.4815C61.3487 17.355 60.6704 17.7379 56.7012 20.4046C55.2501 21.3797 53.8879 22.1771 53.6741 22.1771C53.4603 22.1771 53.2765 22.3181 53.2657 22.4899C53.2549 22.6617 52.3114 23.4596 51.1688 24.2624C50.0261 25.0652 48.653 26.0975 48.1176 26.5562C43.2746 30.7056 41.8443 32.0143 38.7624 35.1185C33.103 40.8181 27.2643 48.2877 22.4711 55.9591C20.0334 59.8611 19.3892 61.0297 17.1844 65.5515C16.0097 67.9601 14.8803 70.2456 14.674 70.6305C14 71.8892 11.3519 78.8963 10.0764 82.7962C7.56313 90.4814 5.58285 99.4503 4.72075 107.049C3.53574 117.499 3.83874 131.803 5.43259 140.623C5.81155 142.72 6.04398 146.125 6.00165 148.964C5.80532 162.124 7.8985 175.446 12.055 187.491C14.4678 194.483 18.413 203.209 21.384 208.125C22.2648 209.582 22.9853 210.927 22.9853 211.114C22.9853 211.301 23.1256 211.516 23.2966 211.593C23.4681 211.669 24.3542 212.858 25.2661 214.234C26.178 215.61 27.1119 216.949 27.3415 217.209C27.571 217.468 28.4019 218.501 29.1885 219.503C31.2995 222.192 38.105 229.029 40.3409 230.708C41.4105 231.511 42.4723 232.32 42.7006 232.505C45.2657 234.587 54.6449 239.678 57.4358 240.504C58.0066 240.672 59.0338 241.053 59.7187 241.35C61.8982 242.296 66.8533 243.637 71.4501 244.527C77.0344 245.608 90.6378 246.063 95.5929 245.335C97.8998 244.996 99.1189 244.981 99.6439 245.284C102.948 247.195 112.975 250.37 120.941 252.028C125.381 252.952 126.598 253.019 138.374 252.997C151.934 252.97 154.261 252.695 164.835 249.862C176.004 246.871 190.549 240.46 200.219 234.267C208.592 228.905 211.89 226.416 218.077 220.789C221.773 217.427 229.808 208.617 231.471 206.101C232.002 205.299 233.106 203.703 233.923 202.556C235.849 199.853 239.088 194.31 241.353 189.836C246.555 179.569 249.767 169.498 251.665 157.514C252.693 151.023 253.069 149.071 253.878 146.044C255.845 138.686 256.538 133.897 256.925 124.983C257.217 118.267 256.635 109.288 255.561 103.921C255.216 102.201 254.763 99.9487 254.554 98.9165C253.281 92.6468 249.658 82.6965 245.883 75.1014C238.164 59.5713 228.181 48.0942 213.596 37.9825C204.597 31.7432 194.181 25.9586 187.767 23.6393C186.739 23.2677 184.685 22.5316 183.201 22.0036C181.717 21.4756 177.69 19.6564 174.252 17.961C170.813 16.2657 167.44 14.6437 166.754 14.3568C156.422 10.0302 147.342 7.3618 135.676 5.22311C130.409 4.25803 128.679 4.14709 117.205 4.03907C110.243 3.97359 103.799 3.99236 102.886 4.08078ZM125.299 7.36806C135.212 8.29185 143.35 10.076 154.119 13.687C159.671 15.5491 161.414 16.2648 161.118 16.5622C161.032 16.6481 158.448 16.4492 155.375 16.1197C152.302 15.7902 148.13 15.517 146.104 15.5124C137.981 15.4941 122.101 17.5277 114.715 19.5321C105.176 22.1208 101.296 23.3732 93.9617 26.2305C86.4569 29.1545 72.3944 36.24 66.2315 40.2033C65.6172 40.5983 64.4608 41.3027 63.6618 41.7694C61.9053 42.7945 57.9103 45.6068 53.7098 48.7756C49.269 52.1255 41.4089 60.254 38.1353 64.8813C37.6787 65.5265 36.6331 66.9266 35.8121 67.9926C30.1722 75.3141 23.4963 86.1657 19.3527 94.7459C16.9636 99.6935 15.7835 102.542 13.0486 109.969C11.9898 112.843 10.2349 118.817 9.89248 120.713C9.32218 123.868 8.87308 122.642 8.87308 117.93C8.87308 113.681 10.6064 97.3074 11.1497 96.4241C11.263 96.2402 11.6341 94.7083 11.9749 93.0196C13.0092 87.8923 16.2521 77.7402 18.4175 72.8501C25.3454 57.2049 32.7797 46.0335 43.2833 35.4851C51.1804 27.5543 58.2793 22.3393 67.612 17.614C73.7189 14.5219 74.1456 14.3372 79.0193 12.6723C86.7599 10.0281 86.3062 10.1486 95.1226 8.38694C102.907 6.8313 115.116 6.41924 125.299 7.36806ZM159.127 20.0413C167.102 21.3129 177.463 23.872 178.635 24.8596C178.978 25.1482 180.285 25.9815 181.541 26.7118C182.796 27.4417 184.29 28.3888 184.861 28.8167C185.432 29.2442 187.3 30.6155 189.012 31.8638C193.217 34.9304 195.034 36.5403 200.658 42.1806C205.141 46.6761 211.706 54.2854 215.245 59.0871C216.09 60.234 217.023 61.4476 217.317 61.7838C217.611 62.1204 218.299 63.0588 218.846 63.8691C219.393 64.6799 220.624 66.4699 221.582 67.847C223.07 69.9878 227.37 76.9936 229.772 81.1914C230.166 81.8795 231.788 85.07 233.377 88.2814C240.007 101.679 243.646 112.524 246.113 126.234C247.114 131.8 247.243 133.571 247.283 142.291L247.329 152.092L246.016 155.637C244.696 159.2 243.101 162.935 241.743 165.646C239.797 169.528 237.385 173.963 236.301 175.656C235.639 176.688 234.969 177.814 234.811 178.158C234.653 178.502 233.499 180.285 232.246 182.12C222.054 197.045 209.825 209.302 195.834 218.613C176.13 231.727 157.307 238.911 137.336 240.939C130.54 241.629 122.514 241.597 117.942 240.863L116.308 240.6L119.143 239.375C126.109 236.365 131.291 233.557 137.188 229.598C141.715 226.558 142.731 225.595 142.38 224.676C141.913 223.453 139.455 223.898 137.27 225.601C136.165 226.462 134.42 227.712 133.393 228.377C132.366 229.043 130.992 229.953 130.341 230.4C127.747 232.182 118.402 236.562 114.092 238.017L109.527 239.559L105.791 238.824C103.736 238.421 101.402 237.857 100.603 237.572C99.8037 237.287 97.8425 236.639 96.2445 236.132C92.9813 235.098 86.0883 232.384 85.4528 231.885C74.8877 223.578 66.4843 215.46 59.8424 207.144C49.7123 194.46 43.8134 181.34 40.2475 163.561C37.242 148.576 36.6622 132.174 38.5561 115.707C39.1302 110.716 39.6839 106.351 39.7868 106.007C40.3173 104.229 41.6496 95.4778 41.4413 95.1391C41.0797 94.5515 39.2887 94.6645 37.9514 95.3589C36.9419 95.8836 36.6767 96.4112 36.116 99.0082C31.661 119.644 31.1032 143.5 34.6317 162.518C36.3679 171.879 39.5054 181.907 43.1347 189.696C43.9234 191.389 44.5688 192.843 44.5688 192.928C44.5688 193.013 45.4442 194.651 46.5142 196.568C49.8036 202.463 53.7571 207.901 59.4672 214.386C62.7744 218.142 62.4025 218.254 58.2004 214.766C51.4398 209.155 45.0976 203.146 39.5834 197.129C37.1287 194.45 30.9036 186.808 29.2279 184.417C23.8171 176.696 20.9204 171.536 17.1682 162.935C15.5424 159.209 12.2878 148.787 11.7557 145.604C11.3182 142.986 11.346 141.454 11.9329 135.826C12.3156 132.156 12.8121 128.403 13.0358 127.485C13.2599 126.568 14.0016 123.471 14.684 120.604C16.1604 114.399 18.6886 106.829 21.2657 100.896C22.3652 98.3651 26.9567 89.171 28.1176 87.1754C28.6049 86.3379 29.7364 84.3673 30.6317 82.7962C31.5274 81.2255 32.9747 78.963 33.8484 77.7685C34.7226 76.5741 35.4373 75.4909 35.4373 75.3621C35.4373 74.9821 41.941 66.4895 45.3458 62.4236C48.9535 58.1153 53.3491 53.5969 56.5024 50.9552C59.2991 48.6126 66.5167 43.5157 69.2652 41.9425C69.7218 41.6814 71.7764 40.4799 73.831 39.2729C79.9756 35.6628 88.5276 31.4567 94.5843 29.067C108.893 23.4204 118.538 21.0189 134.638 19.0954C138.441 18.6408 154.151 19.2477 159.127 20.0413ZM200.69 34.7932C203.963 36.5315 214.34 44.0028 217.859 47.1545C224.24 52.8695 231.894 61.5482 234.499 66.0207C234.747 66.4478 235.227 67.1268 235.565 67.5297C235.903 67.9325 236.933 69.5762 237.854 71.1819C246.704 86.6157 251.784 104.749 251.64 120.395C251.598 124.991 251.608 125.009 249.817 117.267C248.134 109.992 245.57 102.159 242.787 95.7885C242.487 95.1004 241.708 93.3174 241.058 91.8264C238.855 86.7721 233.613 77.0791 230.865 72.9773C229.989 71.6711 229.273 70.497 229.273 70.3686C229.273 70.2406 228.459 68.9631 227.462 67.5305C226.467 66.0979 225.204 64.2691 224.657 63.4662C218.401 54.2838 205.919 39.8776 200.473 35.5531C198.823 34.2427 198.932 33.8594 200.69 34.7932ZM13.4255 167.145C13.4641 168.479 19.2888 178.867 23.3427 184.831C28.7253 192.75 41.6799 207.034 49.1345 213.269C52.3924 215.993 59.3194 221.484 60.7564 222.482C67.9798 227.494 71.3655 229.555 77.7741 232.843C80.1711 234.072 83.8224 236.229 85.8886 237.635C87.9544 239.041 90.009 240.313 90.4544 240.461C90.8993 240.61 91.7307 241.115 92.3014 241.584L93.3391 242.437L85.4528 242.267C77.0805 242.086 72.6102 241.389 65.5296 239.16C57.8073 236.729 49.836 232.437 43.7386 227.428C32.3364 218.062 22.1826 202.387 16.8204 185.874C14.7749 179.576 12.7735 171.267 12.3397 167.274C12.1106 165.163 12.1367 165.074 12.7535 165.855C13.1159 166.314 13.4185 166.894 13.4255 167.145ZM242.178 176.731C233.016 201.905 216.317 221.383 191.917 235.351C187.57 237.84 179.383 241.969 178.795 241.969C178.662 241.969 177.964 242.239 177.245 242.57C175.208 243.507 169.595 245.54 166.391 246.503C156.88 249.36 149.337 250.482 139.619 250.483C128.261 250.486 118.969 248.718 108.281 244.521C105.336 243.364 106.714 242.987 111.288 243.698C113.708 244.074 118.666 244.255 126.129 244.241C135.843 244.222 138.055 244.093 142.732 243.275C157.084 240.763 168.733 236.937 181.52 230.537C186.328 228.13 190.747 225.713 191.502 225.077C191.845 224.789 192.685 224.243 193.37 223.864C195.075 222.921 196.46 222.031 199.269 220.073C217.248 207.537 230.852 193.061 242.315 174.264C243.503 172.316 243.453 173.226 242.178 176.731Z" stroke="white" stroke-width="8" mask="url(#path-1-outside-1)"/>
</svg>
