<?xml version="1.0" encoding="UTF-8" standalone="no"?><!DOCTYPE svg PUBLIC "-//W3C//DTD SVG 1.1//EN" "http://www.w3.org/Graphics/SVG/1.1/DTD/svg11.dtd"><svg width="100%" height="100%" viewBox="0 0 440 512" version="1.1" xmlns="http://www.w3.org/2000/svg" xmlns:xlink="http://www.w3.org/1999/xlink" xml:space="preserve" xmlns:serif="http://www.serif.com/" style="fill-rule:evenodd;clip-rule:evenodd;stroke-linejoin:round;stroke-miterlimit:2;"><path d="M315,305l-5,0c-22.056,0 -40,17.944 -40,40l0,69.58c17.459,6.192 30,22.865 30,42.42l0,55l40,0l0,-182c0,-13.785 -11.215,-25 -25,-25Z" style="fill:#fff;fill-rule:nonzero;"/><rect x="170" y="355" width="70" height="57" style="fill:#fff;fill-rule:nonzero;"/><path d="M125,305c-13.785,0 -25,11.215 -25,25l0,182l170,0l0,-55c0,-8.271 -6.729,-15 -15,-15l-100,0c-8.284,0 -15,-6.716 -15,-15l0,-122l-15,0Z" style="fill:#fff;fill-rule:nonzero;"/><path d="M240,325l0,-70.271c-10.112,6.489 -22.119,10.271 -35,10.271c-1.684,0 -3.348,-0.085 -5,-0.211l0,25.211c0,8.284 -6.716,15 -15,15l-15,0l0,20l70,0Z" style="fill:#fff;fill-rule:nonzero;"/><path d="M235,95c-5.163,0 -10.181,0.623 -15,1.766c28.63,6.792 50,32.556 50,63.234l0,127.604c8.755,-6.12 18.963,-10.292 30,-11.879l0,-115.725c0,-35.841 -29.159,-65 -65,-65Z" style="fill:#fff;fill-rule:nonzero;"/><path d="M425,0l-410,0c-8.284,0 -15,6.716 -15,15l0,482c0,8.284 6.716,15 15,15l55,0l0,-182c0,-30.327 24.673,-55 55,-55l45,0l0,-20.271c-18.023,-11.567 -30,-31.769 -30,-54.729l0,-40c0,-52.383 42.617,-95 95,-95c52.383,0 95,42.617 95,95l0,117.096c23.057,6.547 40,27.777 40,52.904l0,182l55,0c8.284,0 15,-6.716 15,-15l0,-482c0,-8.284 -6.716,-15 -15,-15Z" style="fill:#fff;fill-rule:nonzero;"/><path d="M205,235c19.299,0 35,-15.701 35,-35l0,-40c0,-19.299 -15.701,-35 -35,-35c-19.299,0 -35,15.701 -35,35l0,40c0,19.299 15.701,35 35,35Z" style="fill:#fff;fill-rule:nonzero;"/></svg>