<?xml version="1.0" encoding="utf-8"?>
<!-- Generator: Adobe Illustrator 16.0.0, SVG Export Plug-In . SVG Version: 6.00 Build 0)  -->
<!DOCTYPE svg PUBLIC "-//W3C//DTD SVG 1.1//EN" "http://www.w3.org/Graphics/SVG/1.1/DTD/svg11.dtd">
<svg version="1.1" xmlns="http://www.w3.org/2000/svg" xmlns:xlink="http://www.w3.org/1999/xlink" x="0px" y="0px" width="500px"
	 height="500px" viewBox="1338.67 708.293 500 500" enable-background="new 1338.67 708.293 500 500" xml:space="preserve">
<g id="Layer_6">
</g>
<g id="Layer_2">
</g>
<g id="Layer_4">
	<g id="XMLID_1_">
		<g>
			<path fill="#FFFFFF" d="M1781.145,718.825l-0.271,7.63l-0.8,22.55l-0.49,13.601l-0.3,8.479
				c-5.06,138.44-10.12,252.71-15.18,426.851h-39.84l-2.55-109.061h-254.29l-2.551,109.061h-39.83
				c-5.119-176.37-10.25-291.33-15.38-432.19l-0.359-10.04l-1.07-30.029l-0.27-7.65v-0.01l36.899,3.1v11.69l154.48,7.449
				l154.479-7.449c0-3.87,0-7.761,0-11.69C1762.935,720.355,1772.044,719.585,1781.145,718.825z M1737.454,832.726
				c0-18.351,0-37,0-55.48c-9.1,0-18.21,0-27.31,0c0,18.48,0,37.13,0,55.48C1719.244,832.726,1728.355,832.726,1737.454,832.726z
				 M1736.755,932.195c0-18.35,0-37,0-55.48c-9.11,0-18.211,0-27.311,0c0,18.48,0,37.131,0,55.48
				C1718.544,932.195,1727.645,932.195,1736.755,932.195z M1719.905,1031.676c0-18.351,0-37,0-55.48c-9.1,0-18.21,0-27.31,0
				c0,18.48,0,37.13,0,55.48C1701.695,1031.676,1710.805,1031.676,1719.905,1031.676z M1672.225,832.726c0-18.351,0-37,0-55.48
				c-9.11,0-18.21,0-27.32,0c0,18.48,0,37.13,0,55.48C1654.015,832.726,1663.115,832.726,1672.225,832.726z M1668.565,932.195
				c0-18.35,0-37,0-55.48c-9.11,0-18.21,0-27.32,0c0,18.48,0,37.131,0,55.48C1650.355,932.195,1659.454,932.195,1668.565,932.195z
				 M1633.225,932.195c0-18.35,0-37,0-55.48c-9.11,0-18.21,0-27.32,0c0,18.48,0,37.131,0,55.48
				C1615.015,932.195,1624.115,932.195,1633.225,932.195z M1632.095,1031.676c0-18.351,0-37,0-55.48c-9.11,0-18.21,0-27.32,0
				c0,18.48,0,37.13,0,55.48C1613.885,1031.676,1622.985,1031.676,1632.095,1031.676z M1621.124,832.726c0-18.351,0-37,0-55.48
				c-9.109,0-18.21,0-27.319,0c0,18.48,0,37.13,0,55.48C1602.914,832.726,1612.015,832.726,1621.124,832.726z M1595.735,932.195
				c0-18.35,0-37,0-55.48c-9.11,0-18.21,0-27.32,0c0,18.48,0,37.131,0,55.48C1577.525,932.195,1586.624,932.195,1595.735,932.195z
				 M1547.475,1031.676c0-18.351,0-37,0-55.48c-9.101,0-18.2,0-27.311,0c0,18.48,0,37.13,0,55.48
				C1529.275,1031.676,1538.374,1031.676,1547.475,1031.676z M1526.345,832.726c0-18.351,0-37,0-55.48c-9.11,0-18.21,0-27.32,0
				c0,18.48,0,37.13,0,55.48C1508.135,832.726,1517.235,832.726,1526.345,832.726z M1508.744,1031.676c0-18.351,0-37,0-55.48
				c-9.1,0-18.21,0-27.31,0c0,18.48,0,37.13,0,55.48C1490.534,1031.676,1499.645,1031.676,1508.744,1031.676z M1502.374,932.195
				c0-18.35,0-37,0-55.48c-9.1,0-18.21,0-27.31,0c0,18.48,0,37.131,0,55.48C1484.164,932.195,1493.275,932.195,1502.374,932.195z
				 M1482.055,832.726c0-18.351,0-37,0-55.48c-9.11,0-18.21,0-27.311,0c0,18.48,0,37.13,0,55.48
				C1463.845,832.726,1472.945,832.726,1482.055,832.726z"/>
			<path fill="#FFFFFF" d="M1780.074,749.005l0.8-22.55C1780.615,734.065,1780.345,741.575,1780.074,749.005z"/>
			<path fill="#FFFFFF" d="M1779.584,762.605l0.49-13.601C1779.914,753.565,1779.755,758.105,1779.584,762.605z"/>
			<path fill="#FFFFFF" d="M1779.284,771.085l-15.18,426.851C1769.164,1023.795,1774.225,909.525,1779.284,771.085z"/>
			<path fill="#FFFFFF" d="M1721.715,1088.875l2.55,109.061c-0.75-25.79-1.49-50.26-2.24-73.7
				C1721.645,1112.426,1721.265,1100.886,1721.715,1088.875z"/>
			<path fill="#FFFFFF" d="M1467.425,1088.875c0.449,12.011,0.08,23.551-0.301,35.36c-0.75,23.44-1.5,47.91-2.25,73.7
				L1467.425,1088.875z"/>
			<path fill="#FFFFFF" d="M1425.044,1197.936l-15.38-432.19C1414.794,906.605,1419.925,1021.565,1425.044,1197.936z"/>
			<path fill="#FFFFFF" d="M1408.235,725.676l1.07,30.029C1408.945,745.835,1408.584,735.846,1408.235,725.676z"/>
		</g>
		<g>
			<path fill="none" stroke="#FFFFFF" stroke-miterlimit="10" d="M1464.874,1197.936c0.75-25.79,1.5-50.26,2.25-73.7
				c0.381-11.81,0.75-23.35,0.301-35.36"/>
			<path fill="none" stroke="#FFFFFF" stroke-miterlimit="10" d="M1721.715,1088.875c-0.45,12.011-0.07,23.551,0.31,35.36
				c0.75,23.44,1.49,47.91,2.24,73.7"/>
			<path fill="none" stroke="#FFFFFF" stroke-miterlimit="10" d="M1779.584,762.605c0.171-4.5,0.33-9.04,0.49-13.601
				c0.271-7.43,0.54-14.939,0.8-22.55"/>
			<path fill="none" stroke="#FFFFFF" stroke-miterlimit="10" d="M1764.105,1197.936c5.06-174.141,10.12-288.41,15.18-426.851"/>
			<line fill="none" stroke="#FFFFFF" stroke-miterlimit="10" x1="1779.584" y1="762.605" x2="1779.284" y2="771.085"/>
			<line fill="none" stroke="#FFFFFF" stroke-miterlimit="10" x1="1781.145" y1="718.825" x2="1780.874" y2="726.455"/>
			<path fill="none" stroke="#FFFFFF" stroke-miterlimit="10" d="M1409.664,765.745c5.13,140.86,10.261,255.82,15.38,432.19"/>
			<path fill="none" stroke="#FFFFFF" stroke-miterlimit="10" d="M1408.235,725.676c0.35,10.17,0.71,20.159,1.07,30.029"/>
			<line fill="none" stroke="#FFFFFF" stroke-miterlimit="10" x1="1408.235" y1="725.676" x2="1407.965" y2="718.025"/>
			<line fill="none" stroke="#FFFFFF" stroke-miterlimit="10" x1="1409.664" y1="765.745" x2="1409.305" y2="755.705"/>
			<path fill="none" stroke="#FFFFFF" stroke-miterlimit="10" d="M1781.145,718.825c-9.101,0.76-18.21,1.53-27.32,2.29"/>
			<path fill="none" stroke="#FFFFFF" stroke-miterlimit="10" d="M1499.025,832.726c9.11,0,18.21,0,27.32,0c0-18.351,0-37,0-55.48
				c-9.11,0-18.21,0-27.32,0C1499.025,795.726,1499.025,814.375,1499.025,832.726z"/>
			<path fill="none" stroke="#FFFFFF" stroke-miterlimit="10" d="M1692.595,1031.676c9.1,0,18.21,0,27.31,0c0-18.351,0-37,0-55.48
				c-9.1,0-18.21,0-27.31,0C1692.595,994.676,1692.595,1013.325,1692.595,1031.676z"/>
			<path fill="none" stroke="#FFFFFF" stroke-miterlimit="10" d="M1508.744,1031.676c-9.1,0-18.21,0-27.31,0c0-18.351,0-37,0-55.48
				c9.1,0,18.21,0,27.31,0C1508.744,994.676,1508.744,1013.325,1508.744,1031.676z"/>
			<path fill="none" stroke="#FFFFFF" stroke-miterlimit="10" d="M1604.775,1031.676c9.11,0,18.21,0,27.32,0c0-18.351,0-37,0-55.48
				c-9.11,0-18.21,0-27.32,0C1604.775,994.676,1604.775,1013.325,1604.775,1031.676z"/>
			<line fill="none" stroke="#FFFFFF" stroke-miterlimit="10" x1="1467.425" y1="1088.875" x2="1721.715" y2="1088.875"/>
			<path fill="none" stroke="#FFFFFF" stroke-miterlimit="10" d="M1502.374,932.195c-9.1,0-18.21,0-27.31,0c0-18.35,0-37,0-55.48
				c9.1,0,18.21,0,27.31,0C1502.374,895.195,1502.374,913.846,1502.374,932.195z"/>
			<path fill="none" stroke="#FFFFFF" stroke-miterlimit="10" d="M1454.744,832.726c9.101,0,18.2,0,27.311,0c0-18.351,0-37,0-55.48
				c-9.11,0-18.21,0-27.311,0C1454.744,795.726,1454.744,814.375,1454.744,832.726z"/>
			<path fill="none" stroke="#FFFFFF" stroke-miterlimit="10" d="M1593.805,832.726c9.109,0,18.21,0,27.319,0c0-18.351,0-37,0-55.48
				c-9.109,0-18.21,0-27.319,0C1593.805,795.726,1593.805,814.375,1593.805,832.726z"/>
			<path fill="none" stroke="#FFFFFF" stroke-miterlimit="10" d="M1520.164,1031.676c9.11,0,18.21,0,27.311,0c0-18.351,0-37,0-55.48
				c-9.101,0-18.2,0-27.311,0C1520.164,994.676,1520.164,1013.325,1520.164,1031.676z"/>
			<path fill="none" stroke="#FFFFFF" stroke-miterlimit="10" d="M1644.905,832.726c9.11,0,18.21,0,27.32,0c0-18.351,0-37,0-55.48
				c-9.11,0-18.21,0-27.32,0C1644.905,795.726,1644.905,814.375,1644.905,832.726z"/>
			<path fill="none" stroke="#FFFFFF" stroke-miterlimit="10" d="M1710.145,832.726c9.1,0,18.21,0,27.31,0c0-18.351,0-37,0-55.48
				c-9.1,0-18.21,0-27.31,0C1710.145,795.726,1710.145,814.375,1710.145,832.726z"/>
			<path fill="none" stroke="#FFFFFF" stroke-miterlimit="10" d="M1605.905,932.195c9.11,0,18.21,0,27.32,0c0-18.35,0-37,0-55.48
				c-9.11,0-18.21,0-27.32,0C1605.905,895.195,1605.905,913.846,1605.905,932.195z"/>
			<path fill="none" stroke="#FFFFFF" stroke-miterlimit="10" d="M1595.735,932.195c-9.11,0-18.21,0-27.32,0c0-18.35,0-37,0-55.48
				c9.11,0,18.21,0,27.32,0C1595.735,895.195,1595.735,913.846,1595.735,932.195z"/>
			<path fill="none" stroke="#FFFFFF" stroke-miterlimit="10" d="M1641.244,932.195c9.11,0,18.21,0,27.32,0c0-18.35,0-37,0-55.48
				c-9.11,0-18.21,0-27.32,0C1641.244,895.195,1641.244,913.846,1641.244,932.195z"/>
			<path fill="none" stroke="#FFFFFF" stroke-miterlimit="10" d="M1753.824,721.115c0,3.93,0,7.82,0,11.69"/>
			<polyline fill="none" stroke="#FFFFFF" stroke-miterlimit="10" points="1407.805,718.005 1407.965,718.016 1444.865,721.115 			
				"/>
			<line fill="none" stroke="#FFFFFF" stroke-miterlimit="10" x1="1444.865" y1="732.806" x2="1444.865" y2="721.115"/>
			<line fill="none" stroke="#FFFFFF" stroke-miterlimit="10" x1="1444.865" y1="732.806" x2="1599.345" y2="740.255"/>
			<line fill="none" stroke="#FFFFFF" stroke-miterlimit="10" x1="1599.345" y1="740.255" x2="1753.824" y2="732.806"/>
			<line fill="none" stroke="#FFFFFF" stroke-miterlimit="10" x1="1425.044" y1="1197.936" x2="1464.874" y2="1197.936"/>
			<path fill="none" stroke="#FFFFFF" stroke-miterlimit="10" d="M1709.445,932.195c9.1,0,18.2,0,27.311,0c0-18.35,0-37,0-55.48
				c-9.11,0-18.211,0-27.311,0C1709.445,895.195,1709.445,913.846,1709.445,932.195z"/>
			<line fill="none" stroke="#FFFFFF" stroke-miterlimit="10" x1="1724.265" y1="1197.936" x2="1764.105" y2="1197.936"/>
		</g>
	</g>
</g>
<g id="Capa_1">
</g>
<g id="Layer_3">
</g>
<g id="Layer_5">
</g>
</svg>
