<?xml version="1.0" encoding="utf-8"?>
<!-- Generator: Adobe Illustrator 16.0.0, SVG Export Plug-In . SVG Version: 6.00 Build 0)  -->
<!DOCTYPE svg PUBLIC "-//W3C//DTD SVG 1.1//EN" "http://www.w3.org/Graphics/SVG/1.1/DTD/svg11.dtd">
<svg version="1.1" id="Layer_1" xmlns="http://www.w3.org/2000/svg" xmlns:xlink="http://www.w3.org/1999/xlink" x="0px" y="0px"
	 width="500px" height="500px" viewBox="0 0 500 500" enable-background="new 0 0 500 500" xml:space="preserve">
<g id="Layer_6">
</g>
<g id="Layer_2">
</g>
<g id="Layer_4">
	<path fill="#FFFFFF" d="M-578.917,185.353c-1.162,4.11-4.913,6.949-9.187,6.949c-16.995,0-33.987,0-50.982,0
		c-19.55,0-39.1-0.066-58.648,0.13c-9.777,0.097-19.508-0.159-29.271,1.363c-12.154,1.892-16.86,6.511-20.166,18.191
		c-7.628,26.947-15.252,53.896-22.879,80.843c-1.194,4.219,0.639,8.709,4.443,10.889c6.319,3.613,17.476,4.029,24.148,4.029
		c38.491,0,76.983,0,115.477,0c2.308,0,4.479-0.277,6.695,1.004c2.131,1.229,3.859,2.27,4.271,5.061
		c0.473,3.195-1.829,10.611-2.628,13.432c-5.444,19.24-10.892,38.482-16.338,57.726c-2.234,7.906-3.864,15.723-3.979,24.021
		c-0.118,8.541,1.913,15.918,5.623,23.5c4.307,8.8,7.225,12.804,14.665,19.238c5.021,4.336,13.79,11.105,20.139,13.648
		c8.999,3.039,27.771,4.467,37.037,4.241c6.269-0.153,12.381-0.387,18.505-2.241c7.108-2.148,10.133-6.142,12.077-13.015
		c11.978-42.315,23.954-84.635,35.93-126.953c0.589-2.069,0.218-3.438-1.335-4.932c-13.15-12.662-26.302-25.322-39.451-37.981
		c-3.224-3.103-1.026-8.552,3.446-8.552c63.489,0,126.979,0,190.47,0c12.01,0,21.088-4.455,30.679-10.719
		c4.604-3.004,9.271-5.854,13.446-9.509c4.393-3.846,7.002-8.217,8.821-13.685c3.125-9.399,4.402-22.838,4.185-32.602
		c-0.15-6.66-0.481-10.189-7.036-13.66c-5.242-2.776-10.438-3-16.068-3c-46.39,0-92.778,0-139.169,0
		c-6.331,0-10.909-6.055-9.188-12.148c6.521-23.035,13.039-46.071,19.561-69.106c8.723-30.818-5.683-56.692-32.602-71.396
		c-13.252-7.238-26.525-9.246-41.185-9.679c-18.873-0.559-26.037,1.326-31.551,20.806
		C-553.614,95.95-566.264,140.651-578.917,185.353z"/>
</g>
<g id="Capa_1">
</g>
<g id="Layer_3">
</g>
<g id="Layer_5">
</g>
</svg>
