<?xml version="1.0" encoding="utf-8"?>
<!-- Generator: Adobe Illustrator 23.0.4, SVG Export Plug-In . SVG Version: 6.00 Build 0)  -->
<svg version="1.1" id="Layer_1" xmlns="http://www.w3.org/2000/svg" xmlns:xlink="http://www.w3.org/1999/xlink" x="0px" y="0px"
	 viewBox="0 0 500 500" style="enable-background:new 0 0 500 500;" xml:space="preserve">
<style type="text/css">
	.st0{fill:#FFFFFF;}
</style>
<g id="Layer_6">
</g>
<g id="Layer_4">
	<path class="st0" d="M196.6,188.1c-1.2,4.2-5,7.1-9.4,7.1c-17.4,0-34.9,0-52.3,0c-20.1,0-40.1-0.1-60.2,0.1c-10,0.1-20-0.2-30,1.4
		c-12.5,1.9-17.3,6.7-20.7,18.7c-7.8,27.7-15.7,55.3-23.5,83c-1.2,4.3,0.7,8.9,4.6,11.2c6.5,3.7,17.9,4.1,24.8,4.1
		c39.5,0,79,0,118.5,0c2.4,0,4.6-0.3,6.9,1c2.2,1.3,4,2.3,4.4,5.2c0.5,3.3-1.9,10.9-2.7,13.8c-5.6,19.7-11.2,39.5-16.8,59.3
		c-2.3,8.1-4,16.1-4.1,24.7c-0.1,8.8,2,16.3,5.8,24.1c4.4,9,7.4,13.1,15.1,19.7c5.2,4.5,14.2,11.4,20.7,14c9.2,3.1,28.5,4.6,38,4.4
		c6.4-0.2,12.7-0.4,19-2.3c7.3-2.2,10.4-6.3,12.4-13.4c12.3-43.4,24.6-86.9,36.9-130.3c0.6-2.1,0.2-3.5-1.4-5.1
		c-13.5-13-27-26-40.5-39c-3.3-3.2-1.1-8.8,3.5-8.8c65.2,0,130.3,0,195.5,0c12.3,0,21.6-4.6,31.5-11c4.7-3.1,9.5-6,13.8-9.8
		c4.5-3.9,7.2-8.4,9.1-14c3.2-9.6,4.5-23.4,4.3-33.5c-0.2-6.8-0.5-10.5-7.2-14c-5.4-2.8-10.7-3.1-16.5-3.1c-47.6,0-95.2,0-142.8,0
		c-6.5,0-11.2-6.2-9.4-12.5c6.7-23.6,13.4-47.3,20.1-70.9c9-31.6-5.8-58.2-33.5-73.3c-13.6-7.4-27.2-9.5-42.3-9.9
		c-19.4-0.6-26.7,1.4-32.4,21.4C222.5,96.3,209.5,142.2,196.6,188.1z"/>
</g>
<g id="Capa_1">
</g>
<g id="Layer_3">
</g>
<g id="Layer_5">
</g>
</svg>
