<?xml version="1.0" encoding="utf-8"?>
<!-- Generator: Adobe Illustrator 16.0.0, SVG Export Plug-In . SVG Version: 6.00 Build 0)  -->
<!DOCTYPE svg PUBLIC "-//W3C//DTD SVG 1.1//EN" "http://www.w3.org/Graphics/SVG/1.1/DTD/svg11.dtd">
<svg version="1.1" xmlns="http://www.w3.org/2000/svg" xmlns:xlink="http://www.w3.org/1999/xlink" x="0px" y="0px" width="500px"
	 height="500px" viewBox="792.615 708.293 500 500" enable-background="new 792.615 708.293 500 500" xml:space="preserve">
<g id="Layer_6">
</g>
<g id="Layer_2">
</g>
<g id="Layer_4">
	<polygon fill="#C1B2B2" points="1209.844,942.62 1209.844,1198.086 1232.619,1198.086 1232.619,921.905 	"/>
	<polygon fill="#C1B2B2" points="1166.61,981.938 1166.61,1198.086 1189.387,1198.086 1189.387,961.224 	"/>
	<polygon fill="#FFFFFF" stroke="#FFFFFF" stroke-miterlimit="10" points="1146.127,1000.568 1276.553,881.947 1276.553,844.454 
		1125.514,981.82 	"/>
	<polygon fill="#FFFFFF" stroke="#FFFFFF" stroke-miterlimit="10" points="1112.818,970.276 1276.553,821.364 1276.553,783.87 
		1092.204,951.528 	"/>
	<polygon fill="#FFFFFF" stroke="#FFFFFF" stroke-miterlimit="10" points="1077.929,938.546 1276.553,757.902 1276.553,720.408 
		1057.315,919.797 	"/>
	<polygon fill="#FFFFFF" stroke="#FFFFFF" stroke-miterlimit="10" points="923.688,989.508 1040.987,1096.191 1130.714,1014.586 
		805.418,718.739 805.418,1198.086 923.688,1198.086 	"/>
	<polygon fill="#C1B2B2" points="1253.778,902.663 1253.778,1198.086 1276.553,1198.086 1276.553,881.947 	"/>
</g>
<g id="Capa_1">
</g>
<g id="Layer_3">
</g>
<g id="Layer_5">
</g>
</svg>
