<?xml version="1.0" encoding="UTF-8" standalone="no"?><!DOCTYPE svg PUBLIC "-//W3C//DTD SVG 1.1//EN" "http://www.w3.org/Graphics/SVG/1.1/DTD/svg11.dtd"><svg width="100%" height="100%" viewBox="0 0 400 400" version="1.1" xmlns="http://www.w3.org/2000/svg" xmlns:xlink="http://www.w3.org/1999/xlink" xml:space="preserve" xmlns:serif="http://www.serif.com/" style="fill-rule:evenodd;clip-rule:evenodd;stroke-linejoin:round;stroke-miterlimit:2;"><path d="M259.8,0l20.4,34.1l10.2,17.1l109.6,182.9l-40.9,0l-20.4,0l-157.7,0l20.4,-34.1l137.2,0l-68.6,-114.7l-10.2,-17.1l-78.8,131.8l-20.4,34.1l-20.4,34.1l-10.2,17.1l-68.7,114.7l-40.9,0l20.4,-34.1l68.6,-114.7l-48.2,80.5l48.2,-80.5l10.2,-17.1l-10.2,-17.1l-109.4,-182.9l219,0l-20.4,34.1l-116.9,0l-20.4,0l68.6,114.7l10.2,17.1l119.7,-200Z" style="fill:#fff;"/></svg>