<?xml version="1.0" encoding="UTF-8" standalone="no"?><!DOCTYPE svg PUBLIC "-//W3C//DTD SVG 1.1//EN" "http://www.w3.org/Graphics/SVG/1.1/DTD/svg11.dtd"><svg width="100%" height="100%" viewBox="0 0 90 100" version="1.1" xmlns="http://www.w3.org/2000/svg" xmlns:xlink="http://www.w3.org/1999/xlink" xml:space="preserve" xmlns:serif="http://www.serif.com/" style="fill-rule:evenodd;clip-rule:evenodd;stroke-linejoin:round;stroke-miterlimit:2;"><path d="M69.912,35.172l-17.128,11.292c-0.163,-0.298 -0.349,-0.596 -0.555,-0.874l17.065,-11.24c0.185,0.288 0.391,0.565 0.618,0.822Z" style="fill:#fff;fill-rule:nonzero;"/><path d="M38.596,60.879l-5.332,11.969c-0.288,-0.195 -0.596,-0.35 -0.925,-0.463l5.363,-12.01l0.216,0.092c0.011,0 0.011,0.011 0.021,0.011c0.011,0 0.011,0.011 0.021,0.011c0,0 0.011,0 0.011,0.01c0.193,0.142 0.409,0.256 0.625,0.38Z" style="fill:#fff;fill-rule:nonzero;"/><path d="M27.982,73.268c-0.246,0.226 -0.473,0.494 -0.667,0.78l-9.504,-9.894c0.298,-0.194 0.565,-0.41 0.792,-0.667l9.379,9.781Z" style="fill:#fff;fill-rule:nonzero;"/><path d="M79.774,73.648l-22.027,4.859c-0.03,-0.349 -0.103,-0.688 -0.195,-1.017l21.915,-4.828c0.061,0.35 0.164,0.679 0.307,0.986Z" style="fill:#fff;fill-rule:nonzero;"/><path d="M24.459,35.881l-6.709,21.093c-0.288,-0.185 -0.596,-0.328 -0.935,-0.432l6.719,-21.134c0.288,0.186 0.596,0.339 0.925,0.473Z" style="fill:#fff;fill-rule:nonzero;"/><path d="M51.058,73.506c-0.339,0.061 -0.667,0.153 -0.986,0.276l-3.564,-12.021c0.328,-0.093 0.657,-0.206 0.976,-0.34l3.574,12.085Z" style="fill:#fff;fill-rule:nonzero;"/><path d="M33.674,55.063l-13.952,4.962c-0.041,-0.349 -0.124,-0.678 -0.257,-0.997l13.921,-4.951c0.083,0.339 0.175,0.667 0.288,0.986Z" style="fill:#fff;fill-rule:nonzero;"/><path d="M37.24,43.278c-0.268,0.216 -0.534,0.432 -0.781,0.668l-6.679,-8.486c0.298,-0.174 0.576,-0.37 0.833,-0.596l6.627,8.414Z" style="fill:#fff;fill-rule:nonzero;"/><path d="M20.893,28.668c-0.103,0.329 -0.165,0.668 -0.195,1.018l-13.449,-2.425c0.113,-0.318 0.175,-0.667 0.185,-1.017l13.459,2.424Z" style="fill:#fff;fill-rule:nonzero;"/><path d="M85.219,7.401l-5.362,15.38c-0.298,-0.164 -0.617,-0.308 -0.936,-0.421l5.312,-15.257c0.308,0.134 0.638,0.237 0.986,0.298Z" style="fill:#fff;fill-rule:nonzero;"/><path d="M68.905,26.141c-0.165,0.298 -0.309,0.617 -0.422,0.946l-20.137,-10.336c0.185,-0.288 0.328,-0.596 0.432,-0.915l20.127,10.305Z" style="fill:#fff;fill-rule:nonzero;"/><path d="M45.253,18.692l-1.079,22.429c-0.185,-0.01 -0.36,-0.01 -0.545,-0.01c-0.164,0 -0.329,0 -0.493,0.01l1.089,-22.438c0.174,0.03 0.349,0.041 0.534,0.041c0.165,-0.001 0.329,-0.011 0.494,-0.032Z" style="fill:#fff;fill-rule:nonzero;"/><path d="M14.472,56.48c-0.339,0.083 -0.658,0.206 -0.956,0.371l-9.441,-26.662c0.339,-0.082 0.658,-0.185 0.966,-0.339l9.431,26.63Z" style="fill:#fff;fill-rule:nonzero;"/><path d="M81.655,68.141c-0.309,0.154 -0.586,0.36 -0.843,0.596l-6.123,-8.26c0.318,-0.154 0.616,-0.328 0.894,-0.544l6.072,8.208Z" style="fill:#fff;fill-rule:nonzero;"/><path d="M75.141,37.956l-1.562,11.28c-0.328,-0.092 -0.657,-0.153 -1.006,-0.174l1.561,-11.291c0.328,0.083 0.668,0.144 1.007,0.185Z" style="fill:#fff;fill-rule:nonzero;"/><path d="M27.253,78.549l-11.229,4.604c-0.103,-0.329 -0.236,-0.647 -0.391,-0.955l11.199,-4.582c0.102,0.338 0.236,0.646 0.421,0.933Z" style="fill:#fff;fill-rule:nonzero;"/><path d="M66.018,55.063c0,0.092 0,0.185 0.01,0.276l-12.186,-1.171c0.082,-0.329 0.154,-0.668 0.195,-1.018l12.031,1.151c-0.03,0.249 -0.05,0.505 -0.05,0.762Z" style="fill:#fff;fill-rule:nonzero;"/><path d="M15.006,64.792l-2.969,14.518c-0.319,-0.092 -0.658,-0.153 -1.007,-0.185l2.979,-14.59c0.319,0.134 0.648,0.216 0.997,0.257Z" style="fill:#fff;fill-rule:nonzero;"/><path d="M74.114,89.748c-0.134,0.318 -0.257,0.647 -0.339,0.986l-16.901,-8.507c0.195,-0.287 0.359,-0.596 0.482,-0.914l16.758,8.435Z" style="fill:#fff;fill-rule:nonzero;"/><path d="M84.131,76.104l-0.443,8.959c-0.328,-0.082 -0.667,-0.154 -1.016,-0.205l0.431,-8.765c0.175,0.031 0.35,0.041 0.534,0.041c0.164,0.001 0.329,-0.009 0.494,-0.03Z" style="fill:#fff;fill-rule:nonzero;"/><path d="M81.912,4.493l0,0.011l-32.97,9.287c-0.052,-0.349 -0.145,-0.678 -0.277,-0.986l33.052,-9.318c0.02,0.349 0.081,0.678 0.195,1.006Z" style="fill:#fff;fill-rule:nonzero;"/><path d="M42.058,17.758l-10.551,8.897c-0.195,-0.277 -0.432,-0.534 -0.688,-0.771l10.531,-8.876c0.205,0.277 0.451,0.524 0.708,0.75Z" style="fill:#fff;fill-rule:nonzero;"/><path d="M46.507,77.8c-0.083,0.329 -0.134,0.668 -0.145,1.027l-11.569,-0.833c0.134,-0.318 0.227,-0.647 0.278,-1.006l11.436,0.812Z" style="fill:#fff;fill-rule:nonzero;"/><path d="M43.63,42.14c-5.24,0 -9.5,4.26 -9.5,9.5c0,5.229 4.26,9.5 9.5,9.5c5.24,0 9.49,-4.271 9.49,-9.5c0,-5.24 -4.25,-9.5 -9.49,-9.5Zm-0.07,1.77c0.66,0 1.19,0.53 1.19,1.2c0,0.66 -0.53,1.19 -1.19,1.19c-0.66,0 -1.2,-0.53 -1.2,-1.19c0,-0.67 0.54,-1.2 1.2,-1.2Zm2.8,7.87c0,0.72 -0.939,0.72 -0.939,0l0,-3.58l-0.29,0l-0.011,9.7c0,0.37 -0.299,0.67 -0.669,0.67c-0.37,0 -0.67,-0.3 -0.67,-0.67l0,-5.62l-0.3,0l0,5.62c0,0.37 -0.3,0.67 -0.67,0.67c-0.37,0 -0.67,-0.3 -0.67,-0.67l0,-9.7l-0.3,0l0,3.58c0,0.71 -0.94,0.71 -0.94,0l0,-3.68c0,-0.86 0.53,-1.55 1.38,-1.55l2.68,0c0.93,0 1.399,0.78 1.399,1.57l0,3.66Z" style="fill:#fff;fill-rule:nonzero;"/><path d="M30.88,73.15c-1.78,0 -3.22,1.43 -3.22,3.21c0,1.77 1.44,3.21 3.22,3.21c1.77,0 3.22,-1.44 3.22,-3.21c0,-1.78 -1.45,-3.21 -3.22,-3.21Zm-0.03,0.33c0.25,0 0.45,0.2 0.45,0.45c0,0.239 -0.2,0.439 -0.45,0.439c-0.24,0 -0.44,-0.2 -0.44,-0.439c0,-0.25 0.2,-0.45 0.44,-0.45Zm1.04,2.93c0,0.271 -0.34,0.271 -0.34,0l0,-1.33l-0.12,0l0,3.61c0,0.14 -0.11,0.25 -0.25,0.25c-0.13,0 -0.25,-0.11 -0.25,-0.25l0,-2.1l-0.11,0l0,2.101c0,0.14 -0.11,0.25 -0.25,0.25c-0.13,0 -0.25,-0.11 -0.25,-0.25l0.01,-3.61l-0.12,0l0,1.33c0,0.26 -0.35,0.26 -0.35,0l0,-1.37c0,-0.32 0.2,-0.58 0.52,-0.58l0.99,0c0.35,0 0.52,0.29 0.52,0.59l0,1.359Z" style="fill:#fff;fill-rule:nonzero;"/><path d="M83.64,68.68c-1.78,0 -3.22,1.43 -3.22,3.21c0,1.77 1.439,3.22 3.22,3.22c1.76,0 3.21,-1.45 3.21,-3.22c0,-1.78 -1.45,-3.21 -3.21,-3.21Zm-0.03,0.33c0.24,0 0.44,0.2 0.44,0.45c0,0.24 -0.2,0.44 -0.44,0.44c-0.25,0 -0.45,-0.2 -0.45,-0.44c0,-0.25 0.2,-0.45 0.45,-0.45Zm1.04,2.93c0,0.27 -0.35,0.27 -0.35,0l0,-1.33l-0.11,0l0,3.609c0,0.141 -0.109,0.25 -0.25,0.25c-0.14,0 -0.25,-0.109 -0.25,-0.25l0,-2.09l-0.11,0l0,2.09c0,0.141 -0.11,0.25 -0.25,0.25c-0.141,0 -0.25,-0.109 -0.25,-0.25l0,-3.609l-0.11,0l0,1.33c0,0.27 -0.351,0.27 -0.351,0l0,-1.37c0,-0.32 0.2,-0.57 0.511,-0.57l1,0c0.35,0 0.52,0.29 0.52,0.58l0,1.36Z" style="fill:#fff;fill-rule:nonzero;"/><path d="M44.76,11.26c-1.77,0 -3.22,1.45 -3.22,3.22c0,1.78 1.45,3.22 3.22,3.22c1.78,0 3.22,-1.44 3.22,-3.22c0,-1.77 -1.44,-3.22 -3.22,-3.22Zm-0.03,0.34c0.25,0 0.45,0.2 0.45,0.45c0,0.25 -0.2,0.44 -0.45,0.44c-0.24,0 -0.44,-0.19 -0.44,-0.44c0,-0.25 0.2,-0.45 0.44,-0.45Zm1.05,2.93c0,0.27 -0.35,0.27 -0.35,0l0,-1.33l-0.11,0l0,3.61c0,0.14 -0.109,0.25 -0.25,0.25c-0.14,0 -0.25,-0.11 -0.25,-0.25l0,-2.09l-0.11,0l0,2.09c0,0.14 -0.11,0.25 -0.25,0.25c-0.14,0 -0.25,-0.11 -0.25,-0.25l0,-3.61l-0.11,0l0,1.33c0,0.27 -0.36,0.27 -0.36,0l0,-1.37c0,-0.32 0.2,-0.57 0.52,-0.57l1,0c0.34,0 0.52,0.29 0.52,0.58l0,1.36Z" style="fill:#fff;fill-rule:nonzero;"/><path d="M3.2,22.81c-1.77,0 -3.2,1.44 -3.2,3.22c0,1.77 1.43,3.21 3.2,3.21c1.78,0 3.22,-1.44 3.22,-3.21c0,-1.78 -1.44,-3.22 -3.22,-3.22Zm-0.02,0.34c0.25,0 0.45,0.19 0.45,0.44c0,0.25 -0.2,0.45 -0.45,0.45c-0.25,0 -0.45,-0.2 -0.45,-0.45c0,-0.25 0.2,-0.44 0.45,-0.44Zm1.04,2.92c0,0.27 -0.35,0.27 -0.35,0l0,-1.33l-0.11,0l0,3.62c0,0.13 -0.11,0.25 -0.25,0.25c-0.14,0 -0.25,-0.12 -0.25,-0.25l0,-2.1l-0.11,0l0,2.1c0,0.13 -0.11,0.25 -0.25,0.25c-0.14,0 -0.25,-0.12 -0.25,-0.25l0,-3.62l-0.11,0l0,1.33c0,0.27 -0.35,0.27 -0.35,0l0,-1.36c0,-0.32 0.2,-0.58 0.51,-0.58l1,0c0.35,0 0.52,0.29 0.52,0.59l0,1.35Z" style="fill:#fff;fill-rule:nonzero;"/><path d="M85.95,0c-1.77,0 -3.22,1.45 -3.22,3.22c0,1.78 1.45,3.22 3.22,3.22c1.78,0 3.21,-1.44 3.21,-3.22c0,-1.77 -1.43,-3.22 -3.21,-3.22Zm-0.03,0.34c0.25,0 0.449,0.2 0.449,0.45c0,0.25 -0.199,0.44 -0.449,0.44c-0.24,0 -0.44,-0.19 -0.44,-0.44c0,-0.25 0.2,-0.45 0.44,-0.45Zm1.05,2.93c0,0.27 -0.351,0.27 -0.351,0l0,-1.33l-0.109,0l0,3.61c0,0.14 -0.12,0.25 -0.25,0.25c-0.141,0 -0.25,-0.11 -0.25,-0.25l0,-2.09l-0.11,0l0,2.09c0,0.14 -0.12,0.25 -0.25,0.25c-0.14,0 -0.25,-0.11 -0.25,-0.25l0,-3.61l-0.11,0l0,1.33c0,0.27 -0.36,0.27 -0.36,0l0,-1.36c0,-0.33 0.2,-0.58 0.52,-0.58l1,0c0.341,0 0.521,0.29 0.521,0.58l0,1.36l-0.001,0Z" style="fill:#fff;fill-rule:nonzero;"/><path d="M52.06,74.44c-2.58,0 -4.69,2.109 -4.69,4.689c0,2.59 2.11,4.7 4.69,4.7c2.59,0 4.7,-2.11 4.7,-4.7c0,-2.579 -2.11,-4.689 -4.7,-4.689Zm-0.03,0.67c0.34,0 0.62,0.28 0.62,0.62c0,0.35 -0.28,0.63 -0.62,0.63c-0.35,0 -0.63,-0.28 -0.63,-0.63c0,-0.34 0.28,-0.62 0.63,-0.62Zm1.45,4.09c0,0.38 -0.479,0.38 -0.479,0l0,-1.86l-0.16,0l0,5.051c0,0.199 -0.16,0.35 -0.351,0.35c-0.189,0 -0.35,-0.15 -0.35,-0.35l0,-2.931l-0.15,0l0,2.931c0,0.199 -0.159,0.35 -0.35,0.35c-0.191,0 -0.35,-0.15 -0.35,-0.35l0,-5.051l-0.16,0l0,1.86c0,0.38 -0.49,0.38 -0.49,0l0,-1.91c0,-0.439 0.28,-0.8 0.72,-0.8l1.4,0c0.479,0 0.72,0.4 0.72,0.81l0,1.9Z" style="fill:#fff;fill-rule:nonzero;"/><path d="M26.7,25.28c-2.76,0 -5.01,2.24 -5.01,5c0,2.75 2.25,5.01 5.01,5.01c2.76,0 5,-2.26 5,-5.01c0,-2.76 -2.24,-5 -5,-5Zm-0.04,0.74c0.37,0 0.66,0.3 0.66,0.66c0,0.37 -0.29,0.66 -0.66,0.66c-0.36,0 -0.66,-0.29 -0.66,-0.66c0,-0.36 0.3,-0.66 0.66,-0.66Zm1.54,4.34c0.01,0.39 -0.51,0.39 -0.51,0l0,-1.97l-0.16,0l-0.01,5.34c0,0.21 -0.16,0.37 -0.36,0.37c-0.21,0 -0.37,-0.16 -0.37,-0.37l0,-3.1l-0.17,0l0,3.1c0,0.21 -0.16,0.37 -0.37,0.37c-0.2,0 -0.37,-0.16 -0.37,-0.37l0,-5.34l-0.16,0l0,1.97c0,0.39 -0.52,0.39 -0.52,0l0,-2.03c0,-0.47 0.29,-0.85 0.76,-0.85l1.48,0c0.51,0 0.76,0.43 0.76,0.87l0,2.01Z" style="fill:#fff;fill-rule:nonzero;"/><path d="M76.06,22.85c-3.9,0 -7.06,3.17 -7.06,7.06c0,3.91 3.159,7.07 7.06,7.07c3.89,0 7.06,-3.16 7.06,-7.07c0,-3.89 -3.17,-7.06 -7.06,-7.06Zm-0.06,1.22c0.5,0 0.909,0.4 0.909,0.9c0,0.5 -0.409,0.91 -0.909,0.91c-0.5,0 -0.9,-0.41 -0.9,-0.91c0,-0.5 0.4,-0.9 0.9,-0.9Zm2.12,5.95c0,0.55 -0.71,0.55 -0.71,0l0,-2.7l-0.22,0l0,7.34c0,0.28 -0.229,0.51 -0.51,0.51c-0.281,0 -0.51,-0.23 -0.51,-0.51l0,-4.26l-0.22,0l0,4.26c0,0.28 -0.229,0.51 -0.51,0.51c-0.281,0 -0.51,-0.23 -0.51,-0.51l0,-7.34l-0.22,0l0,2.7c0,0.54 -0.721,0.54 -0.721,0l0,-2.78c0,-0.65 0.4,-1.17 1.04,-1.17l2.03,0c0.71,0 1.06,0.59 1.06,1.19l0,2.76l0.001,0Z" style="fill:#fff;fill-rule:nonzero;"/><path d="M81.57,85.81c-3.89,0 -7.069,3.18 -7.069,7.069c0,3.9 3.18,7.07 7.069,7.07c3.9,0 7.061,-3.17 7.061,-7.07c-0.001,-3.889 -3.161,-7.069 -7.061,-7.069Zm-0.05,1.22c0.5,0 0.9,0.41 0.9,0.91c0,0.5 -0.4,0.91 -0.9,0.91c-0.5,0 -0.91,-0.41 -0.91,-0.91c0,-0.5 0.41,-0.91 0.91,-0.91Zm2.12,5.96c0,0.54 -0.71,0.54 -0.71,0l0,-2.71l-0.23,0l0,7.34c0,0.29 -0.229,0.51 -0.51,0.51c-0.281,0 -0.5,-0.22 -0.5,-0.51l0,-4.25l-0.23,0l0,4.25c0,0.29 -0.23,0.51 -0.511,0.51c-0.279,0 -0.5,-0.22 -0.5,-0.51l0,-7.34l-0.229,0l0,2.71c0,0.54 -0.71,0.54 -0.71,0l0,-2.78c0,-0.649 0.399,-1.18 1.04,-1.18l2.03,0c0.699,0 1.06,0.59 1.06,1.189l0,2.771Z" style="fill:#fff;fill-rule:nonzero;"/><path d="M15.53,57.37c-1.78,0 -3.22,1.44 -3.22,3.21c0,1.78 1.44,3.22 3.22,3.22c1.77,0 3.21,-1.439 3.21,-3.22c0,-1.77 -1.44,-3.21 -3.21,-3.21Zm-0.03,0.33c0.25,0 0.45,0.2 0.45,0.45c0,0.25 -0.2,0.45 -0.45,0.45c-0.25,0 -0.45,-0.2 -0.45,-0.45c0,-0.25 0.2,-0.45 0.45,-0.45Zm1.04,2.93c0,0.271 -0.35,0.271 -0.35,0l0,-1.33l-0.11,0l0,3.61c0,0.14 -0.11,0.25 -0.25,0.25c-0.13,0 -0.25,-0.11 -0.25,-0.25l0,-2.09l-0.11,0l0,2.09c0,0.14 -0.11,0.25 -0.25,0.25c-0.13,0 -0.25,-0.11 -0.25,-0.25l0,-3.61l-0.11,0l0,1.33c0,0.271 -0.35,0.271 -0.35,0l0,-1.36c0,-0.32 0.2,-0.58 0.51,-0.58l1,0c0.35,0 0.52,0.29 0.52,0.59l0,1.35Z" style="fill:#fff;fill-rule:nonzero;"/><path d="M10.55,80.13c-2.59,0 -4.7,2.11 -4.7,4.7c0,2.59 2.11,4.69 4.7,4.69c2.59,0 4.69,-2.101 4.69,-4.69c0,-2.589 -2.1,-4.7 -4.69,-4.7Zm-0.04,0.67c0.34,0 0.62,0.28 0.62,0.631c0,0.34 -0.28,0.619 -0.62,0.619c-0.35,0 -0.63,-0.279 -0.63,-0.619c0,-0.351 0.28,-0.631 0.63,-0.631Zm1.45,4.1c0,0.37 -0.48,0.37 -0.48,0l0,-1.86l-0.16,0l0,5.04c0,0.2 -0.15,0.351 -0.35,0.351c-0.19,0 -0.35,-0.15 -0.35,-0.351l0,-2.92l-0.15,0l0,2.92c0,0.2 -0.16,0.351 -0.35,0.351c-0.19,0 -0.35,-0.15 -0.35,-0.351l0,-5.04l-0.15,0l0,1.86c0,0.37 -0.5,0.37 -0.5,0l0,-1.92c0,-0.44 0.28,-0.8 0.72,-0.8l1.4,0c0.48,0 0.72,0.399 0.72,0.819l0,1.901Z" style="fill:#fff;fill-rule:nonzero;"/><path d="M72.04,50.06c-2.761,0 -4.99,2.25 -4.99,5c0,2.77 2.229,5.01 4.99,5.01c2.76,0 5,-2.24 5,-5.01c0,-2.75 -2.24,-5 -5,-5Zm-0.04,0.75c0.369,0 0.659,0.29 0.659,0.659c0,0.36 -0.29,0.65 -0.659,0.65c-0.36,0 -0.66,-0.29 -0.66,-0.65c0,-0.369 0.3,-0.659 0.66,-0.659Zm1.55,4.33c0,0.399 -0.521,0.399 -0.521,0l0,-1.97l-0.16,0l0,5.351c0,0.199 -0.17,0.37 -0.369,0.37c-0.21,0 -0.37,-0.171 -0.37,-0.37l0,-3.101l-0.17,0l0,3.101c0,0.199 -0.16,0.37 -0.37,0.37c-0.2,0 -0.37,-0.171 -0.37,-0.37l0.01,-5.351l-0.17,0l0,1.971c0,0.399 -0.52,0.399 -0.52,0l0,-2.021c0,-0.479 0.29,-0.86 0.76,-0.86l1.479,0c0.511,0 0.771,0.431 0.771,0.87l0,2.01Z" style="fill:#fff;fill-rule:nonzero;"/></svg>