<?xml version="1.0" encoding="UTF-8" standalone="no"?>
<!DOCTYPE svg PUBLIC "-//W3C//DTD SVG 1.1//EN" "http://www.w3.org/Graphics/SVG/1.1/DTD/svg11.dtd">
<svg width="100%" height="100%" viewBox="0 0 257 237" version="1.1" xmlns="http://www.w3.org/2000/svg" xmlns:xlink="http://www.w3.org/1999/xlink" xml:space="preserve" xmlns:serif="http://www.serif.com/" style="fill-rule:evenodd;clip-rule:evenodd;stroke-linejoin:round;stroke-miterlimit:2;">
    <g transform="matrix(1,0,0,1,-14.4678,-15.6003)">
        <g transform="matrix(2.29464,0,0,2.29464,14.4678,31.3003)">
            <rect x="78.33" y="51.72" width="6" height="22" style="fill:white;fill-rule:nonzero;"/>
        </g>
        <g transform="matrix(2.29464,0,0,2.29464,14.4678,31.3003)">
            <rect x="63.67" y="65.39" width="6" height="8.33" style="fill:white;fill-rule:nonzero;"/>
        </g>
        <g transform="matrix(2.29464,0,0,2.29464,14.4678,31.3003)">
            <rect x="93" y="59.79" width="6" height="13.93" style="fill:white;fill-rule:nonzero;"/>
        </g>
        <g transform="matrix(2.29464,0,0,2.29464,14.4678,31.3003)">
            <path d="M0,0L0,89.6L112,89.6L112,0L0,0ZM77.33,9.66L96,9.66C96.265,9.66 96.52,9.765 96.707,9.953C96.895,10.14 97,10.395 97,10.66C97,10.925 96.895,11.18 96.707,11.367C96.52,11.555 96.265,11.66 96,11.66L77.33,11.66C77.065,11.66 76.81,11.555 76.623,11.367C76.435,11.18 76.33,10.925 76.33,10.66C76.33,10.395 76.435,10.14 76.623,9.953C76.81,9.765 77.065,9.66 77.33,9.66ZM65.33,9.66L70.66,9.66C70.925,9.66 71.18,9.765 71.367,9.953C71.555,10.14 71.66,10.395 71.66,10.66C71.66,10.925 71.555,11.18 71.367,11.367C71.18,11.555 70.925,11.66 70.66,11.66L65.34,11.66C65.075,11.66 64.82,11.555 64.633,11.367C64.445,11.18 64.34,10.925 64.34,10.66C64.34,10.395 64.445,10.14 64.633,9.953C64.82,9.765 65.075,9.66 65.34,9.66L65.33,9.66ZM30.19,10.61C32.722,10.608 35.199,11.357 37.305,12.763C39.411,14.169 41.054,16.168 42.024,18.507C42.994,20.846 43.248,23.421 42.755,25.905C42.261,28.389 41.042,30.67 39.251,32.461C37.46,34.252 35.179,35.471 32.695,35.965C30.211,36.458 27.636,36.204 25.297,35.234C22.958,34.264 20.959,32.621 19.553,30.515C18.147,28.409 17.398,25.932 17.4,23.4C17.403,20.007 18.752,16.754 21.153,14.355C23.553,11.957 26.807,10.61 30.2,10.61L30.19,10.61ZM51.45,74.72L8.78,74.72L8.78,66.19C8.901,60.612 11.202,55.302 15.19,51.4C19.177,47.497 24.535,45.312 30.115,45.312C35.695,45.312 41.053,47.497 45.041,51.4C49.028,55.302 51.329,60.612 51.45,66.19L51.45,74.72ZM71.67,74.72C71.67,74.985 71.565,75.24 71.377,75.427C71.19,75.615 70.935,75.72 70.67,75.72L62.67,75.72C62.405,75.72 62.15,75.615 61.963,75.427C61.775,75.24 61.67,74.985 61.67,74.72L61.67,44.8C61.67,44.535 61.775,44.28 61.963,44.093C62.15,43.905 62.405,43.8 62.67,43.8L70.67,43.8C70.935,43.8 71.19,43.905 71.377,44.093C71.565,44.28 71.67,44.535 71.67,44.8L71.67,74.72ZM86.33,74.72C86.33,74.985 86.225,75.24 86.037,75.427C85.85,75.615 85.595,75.72 85.33,75.72L77.33,75.72C77.065,75.72 76.81,75.615 76.623,75.427C76.435,75.24 76.33,74.985 76.33,74.72L76.33,44.8C76.33,44.535 76.435,44.28 76.623,44.093C76.81,43.905 77.065,43.8 77.33,43.8L85.33,43.8C85.595,43.8 85.85,43.905 86.037,44.093C86.225,44.28 86.33,44.535 86.33,44.8L86.33,74.72ZM101,74.72C101,74.985 100.895,75.24 100.707,75.427C100.52,75.615 100.265,75.72 100,75.72L92,75.72C91.735,75.72 91.48,75.615 91.293,75.427C91.105,75.24 91,74.985 91,74.72L91,44.8C91,44.535 91.105,44.28 91.293,44.093C91.48,43.905 91.735,43.8 92,43.8L100,43.8C100.265,43.8 100.52,43.905 100.707,44.093C100.895,44.28 101,44.535 101,44.8L101,74.72ZM100,35.66L62.67,35.66C62.405,35.66 62.15,35.555 61.963,35.367C61.775,35.18 61.67,34.925 61.67,34.66C61.67,34.395 61.775,34.14 61.963,33.953C62.15,33.765 62.405,33.66 62.67,33.66L100,33.66C100.265,33.66 100.52,33.765 100.707,33.953C100.895,34.14 101,34.395 101,34.66C101,34.925 100.895,35.18 100.707,35.367C100.52,35.555 100.265,35.66 100,35.66ZM61.67,26.66C61.67,26.395 61.775,26.14 61.963,25.953C62.15,25.765 62.405,25.66 62.67,25.66L97.33,25.66C97.595,25.66 97.85,25.765 98.037,25.953C98.225,26.14 98.33,26.395 98.33,26.66C98.33,26.925 98.225,27.18 98.037,27.367C97.85,27.555 97.595,27.66 97.33,27.66L62.67,27.66C62.408,27.66 62.157,27.557 61.97,27.374C61.783,27.191 61.675,26.942 61.67,26.68L61.67,26.66ZM100,19.66L62.67,19.66C62.405,19.66 62.15,19.555 61.963,19.367C61.775,19.18 61.67,18.925 61.67,18.66C61.67,18.395 61.775,18.14 61.963,17.953C62.15,17.765 62.405,17.66 62.67,17.66L100,17.66C100.265,17.66 100.52,17.765 100.707,17.953C100.895,18.14 101,18.395 101,18.66C101,18.925 100.895,19.18 100.707,19.367C100.52,19.555 100.265,19.66 100,19.66Z" style="fill:white;fill-rule:nonzero;"/>
        </g>
    </g>
</svg>
