<svg width="112" height="90" viewBox="0 0 112 90" fill="none" xmlns="http://www.w3.org/2000/svg">
<path d="M84.33 51.72H78.33V73.72H84.33V51.72Z" fill="white"/>
<path d="M69.67 65.39H63.67V73.72H69.67V65.39Z" fill="white"/>
<path d="M99 59.79H93V73.72H99V59.79Z" fill="white"/>
<path d="M0 0V89.6H112V0H0ZM77.33 9.66H96C96.2652 9.66 96.5196 9.76536 96.7071 9.95289C96.8946 10.1404 97 10.3948 97 10.66C97 10.9252 96.8946 11.1796 96.7071 11.3671C96.5196 11.5546 96.2652 11.66 96 11.66H77.33C77.0648 11.66 76.8104 11.5546 76.6229 11.3671C76.4354 11.1796 76.33 10.9252 76.33 10.66C76.33 10.3948 76.4354 10.1404 76.6229 9.95289C76.8104 9.76536 77.0648 9.66 77.33 9.66ZM65.33 9.66H70.66C70.9252 9.66 71.1796 9.76536 71.3671 9.95289C71.5546 10.1404 71.66 10.3948 71.66 10.66C71.66 10.9252 71.5546 11.1796 71.3671 11.3671C71.1796 11.5546 70.9252 11.66 70.66 11.66H65.34C65.0748 11.66 64.8204 11.5546 64.6329 11.3671C64.4454 11.1796 64.34 10.9252 64.34 10.66C64.34 10.3948 64.4454 10.1404 64.6329 9.95289C64.8204 9.76536 65.0748 9.66 65.34 9.66H65.33ZM30.19 10.61C32.7225 10.608 35.1986 11.3573 37.3051 12.763C39.4115 14.1687 41.0537 16.1677 42.0237 18.507C42.9938 20.8463 43.2481 23.4208 42.7545 25.9047C42.261 28.3886 41.0417 30.6702 39.251 32.461C37.4602 34.2517 35.1786 35.471 32.6947 35.9645C30.2108 36.4581 27.6363 36.2038 25.297 35.2337C22.9577 34.2637 20.9587 32.6215 19.553 30.5151C18.1473 28.4086 17.398 25.9324 17.4 23.4C17.4027 20.007 18.7524 16.7538 21.1526 14.3555C23.5527 11.9572 26.807 10.61 30.2 10.61H30.19ZM51.45 74.72H8.78V66.19C8.90078 60.6116 11.2016 55.3023 15.1896 51.3998C19.1775 47.4973 24.5353 45.3119 30.115 45.3119C35.6947 45.3119 41.0525 47.4973 45.0405 51.3998C49.0284 55.3023 51.3292 60.6116 51.45 66.19V74.72ZM71.67 74.72C71.67 74.9852 71.5646 75.2396 71.3771 75.4271C71.1896 75.6146 70.9352 75.72 70.67 75.72H62.67C62.4048 75.72 62.1504 75.6146 61.9629 75.4271C61.7754 75.2396 61.67 74.9852 61.67 74.72V44.8C61.67 44.5348 61.7754 44.2804 61.9629 44.0929C62.1504 43.9054 62.4048 43.8 62.67 43.8H70.67C70.9352 43.8 71.1896 43.9054 71.3771 44.0929C71.5646 44.2804 71.67 44.5348 71.67 44.8V74.72ZM86.33 74.72C86.33 74.9852 86.2246 75.2396 86.0371 75.4271C85.8496 75.6146 85.5952 75.72 85.33 75.72H77.33C77.0648 75.72 76.8104 75.6146 76.6229 75.4271C76.4354 75.2396 76.33 74.9852 76.33 74.72V44.8C76.33 44.5348 76.4354 44.2804 76.6229 44.0929C76.8104 43.9054 77.0648 43.8 77.33 43.8H85.33C85.5952 43.8 85.8496 43.9054 86.0371 44.0929C86.2246 44.2804 86.33 44.5348 86.33 44.8V74.72ZM101 74.72C101 74.9852 100.895 75.2396 100.707 75.4271C100.52 75.6146 100.265 75.72 100 75.72H92C91.7348 75.72 91.4804 75.6146 91.2929 75.4271C91.1054 75.2396 91 74.9852 91 74.72V44.8C91 44.5348 91.1054 44.2804 91.2929 44.0929C91.4804 43.9054 91.7348 43.8 92 43.8H100C100.265 43.8 100.52 43.9054 100.707 44.0929C100.895 44.2804 101 44.5348 101 44.8V74.72ZM100 35.66H62.67C62.4048 35.66 62.1504 35.5546 61.9629 35.3671C61.7754 35.1796 61.67 34.9252 61.67 34.66C61.67 34.3948 61.7754 34.1404 61.9629 33.9529C62.1504 33.7654 62.4048 33.66 62.67 33.66H100C100.265 33.66 100.52 33.7654 100.707 33.9529C100.895 34.1404 101 34.3948 101 34.66C101 34.9252 100.895 35.1796 100.707 35.3671C100.52 35.5546 100.265 35.66 100 35.66ZM61.67 26.66C61.67 26.3948 61.7754 26.1404 61.9629 25.9529C62.1504 25.7654 62.4048 25.66 62.67 25.66H97.33C97.5952 25.66 97.8496 25.7654 98.0371 25.9529C98.2246 26.1404 98.33 26.3948 98.33 26.66C98.33 26.9252 98.2246 27.1796 98.0371 27.3671C97.8496 27.5546 97.5952 27.66 97.33 27.66H62.67C62.4082 27.6601 62.1568 27.5574 61.9699 27.3742C61.7829 27.191 61.6752 26.9417 61.67 26.68V26.66ZM100 19.66H62.67C62.4048 19.66 62.1504 19.5546 61.9629 19.3671C61.7754 19.1796 61.67 18.9252 61.67 18.66C61.67 18.3948 61.7754 18.1404 61.9629 17.9529C62.1504 17.7654 62.4048 17.66 62.67 17.66H100C100.265 17.66 100.52 17.7654 100.707 17.9529C100.895 18.1404 101 18.3948 101 18.66C101 18.9252 100.895 19.1796 100.707 19.3671C100.52 19.5546 100.265 19.66 100 19.66Z" fill="white"/>
</svg>
