<?xml version="1.0" encoding="UTF-8" standalone="no"?>
<!DOCTYPE svg PUBLIC "-//W3C//DTD SVG 1.1//EN" "http://www.w3.org/Graphics/SVG/1.1/DTD/svg11.dtd">
<svg width="100%" height="100%" viewBox="0 0 52 56" version="1.1" xmlns="http://www.w3.org/2000/svg" xmlns:xlink="http://www.w3.org/1999/xlink" xml:space="preserve" xmlns:serif="http://www.serif.com/" style="fill-rule:evenodd;clip-rule:evenodd;stroke-linejoin:round;stroke-miterlimit:2;">
    <g transform="matrix(1,0,0,1,-6.52975,-1.47063)">
        <circle cx="32" cy="45" r="4" style="fill:white;stroke:white;stroke-width:1px;"/>
        <path d="M24.871,38L8.03,38C7.76,37.999 7.501,38.107 7.312,38.3C7.126,38.49 7.024,38.747 7.03,39.013L7.22,51.013C7.228,51.556 7.677,51.998 8.22,51.998L13,51.998L13,55.998L15,55.998L15,52L24.871,52C21.068,48.143 21.068,41.857 24.871,38Z" style="fill:white;fill-rule:nonzero;stroke:white;stroke-width:1px;"/>
        <path d="M32,37C27.611,37 24,40.611 24,45C24,49.389 27.611,53 32,53C36.389,53 40,49.389 40,45C39.995,40.613 36.387,37.005 32,37ZM32,51C28.708,51 26,48.292 26,45C26,41.708 28.708,39 32,39C35.292,39 38,41.708 38,45C37.997,48.29 35.29,50.997 32,51Z" style="fill:white;fill-rule:nonzero;stroke:white;stroke-width:1px;"/>
        <path d="M57.03,38.985C57.018,38.444 56.572,38.004 56.03,38L39.13,38C42.933,41.857 42.933,48.143 39.13,52L49,52L49,56L51,56L51,52L56.22,52C56.486,51.999 56.741,51.891 56.927,51.7C57.118,51.508 57.224,51.246 57.22,50.975L57.03,38.985Z" style="fill:white;fill-rule:nonzero;stroke:white;stroke-width:1px;"/>
        <path d="M35.764,10L32,8.118L28.236,10L32,11.882L35.764,10Z" style="fill:white;fill-rule:nonzero;stroke:white;stroke-width:1px;"/>
        <path d="M31,13.618L27,11.618L27,16.382L31,18.382L31,13.618Z" style="fill:white;fill-rule:nonzero;stroke:white;stroke-width:1px;"/>
        <path d="M33,18.382L37,16.382L37,11.618L33,13.618L33,18.382Z" style="fill:white;fill-rule:nonzero;stroke:white;stroke-width:1px;"/>
        <path d="M27.066,33.359C27.214,33.745 27.587,34.001 28,34.001C28.549,34.001 29.001,33.549 29.001,33C29.001,32.877 28.978,32.756 28.934,32.641L25.675,24.179C27.283,25.185 29.109,25.792 31,25.949L31,32C31,32.549 31.451,33 32,33C32.549,33 33,32.549 33,32L33,25.949C34.891,25.792 36.717,25.185 38.325,24.179L35.066,32.641C35.022,32.756 34.999,32.877 34.999,33C34.999,33.549 35.451,34.001 36,34.001C36.413,34.001 36.786,33.745 36.934,33.359L41.657,21.094C43.179,19.031 44,16.534 44,13.971C44,7.388 38.583,1.971 32,1.971C25.417,1.971 20,7.388 20,13.971C20,16.534 20.821,19.031 22.343,21.094L27.066,33.359ZM25,10C25.001,9.911 25.013,9.822 25.037,9.736C25.047,9.706 25.059,9.677 25.072,9.649C25.09,9.596 25.113,9.544 25.14,9.495C25.159,9.463 25.183,9.436 25.205,9.406C25.236,9.365 25.269,9.326 25.305,9.29C25.334,9.263 25.364,9.238 25.396,9.215C25.424,9.194 25.447,9.168 25.478,9.149C25.491,9.141 25.506,9.138 25.52,9.13C25.534,9.122 25.543,9.112 25.556,9.105L31.556,6.105C31.837,5.964 32.169,5.964 32.45,6.105L38.45,9.105C38.464,9.112 38.473,9.123 38.486,9.13C38.499,9.137 38.515,9.141 38.528,9.149C38.557,9.17 38.584,9.192 38.61,9.216C38.642,9.239 38.672,9.263 38.701,9.289C38.737,9.326 38.771,9.365 38.801,9.407C38.824,9.435 38.846,9.464 38.866,9.495C38.893,9.545 38.916,9.596 38.934,9.65C38.947,9.678 38.959,9.706 38.969,9.735C38.991,9.822 39.001,9.911 39,10L39,17C39,17.378 38.786,17.726 38.447,17.895L32.447,20.895C32.433,20.902 32.416,20.895 32.401,20.905C32.149,21.031 31.853,21.031 31.601,20.905C31.586,20.899 31.569,20.905 31.555,20.895L25.555,17.895C25.216,17.726 25,17.379 25,17L25,10Z" style="fill:white;fill-rule:nonzero;stroke:white;stroke-width:1px;"/>
    </g>
</svg>
