<?xml version="1.0" encoding="UTF-8" standalone="no"?><!DOCTYPE svg PUBLIC "-//W3C//DTD SVG 1.1//EN" "http://www.w3.org/Graphics/SVG/1.1/DTD/svg11.dtd"><svg width="100%" height="100%" viewBox="0 0 86 90" version="1.1" xmlns="http://www.w3.org/2000/svg" xmlns:xlink="http://www.w3.org/1999/xlink" xml:space="preserve" xmlns:serif="http://www.serif.com/" style="fill-rule:evenodd;clip-rule:evenodd;stroke-miterlimit:10;"><g id="white_logo"><path d="M58.99,51.043l-2.038,0c-0.509,0.254 -1.019,0.254 -1.528,0.254l0,11.719l2.802,0c3.057,0 5.605,-0.51 7.133,-1.274c1.528,-0.764 2.293,-2.547 2.293,-4.84c0,-1.019 -0.255,-2.038 -0.51,-2.802c-0.509,-0.765 -1.019,-1.274 -1.783,-1.784c-0.764,-0.509 -1.783,-0.764 -2.802,-1.019c-1.019,-0.254 -2.293,-0.254 -3.567,-0.254Z" style="fill:#fff;fill-rule:nonzero;stroke:#fff;stroke-width:1px;"/><path d="M36.559,5.523c1.95,0.495 3.427,0.997 4.664,1.739c-0.849,2.378 -1.698,4.756 -2.547,7.133c-1.274,-0.764 -2.548,-1.274 -3.821,-1.528c-1.529,-0.51 -3.057,-0.765 -5.095,-0.765c-2.038,0 -3.822,0.255 -4.586,1.019c-1.019,0.51 -1.528,1.529 -1.528,2.803c0,0.764 0.254,1.273 0.509,1.783c0.51,0.509 1.019,1.019 1.529,1.274c0.764,0.509 1.528,0.764 2.292,1.273c0.765,0.255 1.784,0.51 2.803,1.019c2.038,0.765 3.821,1.529 5.604,2.293c1.529,0.764 2.802,1.529 3.821,2.547c1.019,1.02 1.783,2.293 2.293,3.567c0.509,1.274 0.764,3.057 0.764,4.84c0,3.821 -1.274,6.878 -4.076,8.916c-2.547,2.038 -6.623,3.057 -11.973,3.057c-1.783,0 -3.312,0 -4.84,-0.254c-1.274,-0.255 -2.547,-0.51 -3.821,-0.765c-1.019,-0.254 -2.038,-0.764 -2.802,-1.019c-0.765,-0.254 -1.529,-0.764 -2.038,-1.019l2.547,-7.133c1.274,0.765 2.802,1.274 4.585,1.784c1.784,0.509 3.822,0.764 6.369,0.764c1.274,0 2.548,0 3.312,-0.255c0.764,-0.255 1.528,-0.509 2.038,-1.019c0.509,-0.255 0.764,-0.764 1.019,-1.274c0.255,-0.509 0.255,-1.019 0.255,-1.528c0,-1.529 -0.51,-2.548 -1.784,-3.312c-1.273,-1.019 -3.566,-2.038 -6.623,-3.057c-1.274,-0.255 -2.548,-0.764 -3.821,-1.528c-1.274,-0.51 -2.548,-1.274 -3.567,-2.293c-1.019,-0.764 -1.783,-2.038 -2.547,-3.312c-0.618,-1.029 -0.902,-2.224 -0.989,-3.585c-7.482,8.435 -10.788,19.78 -9.008,30.914c1.78,11.135 8.459,20.885 18.199,26.568l0,-5.08l8.661,0l0,8.77c4.513,1.285 9.226,1.714 13.896,1.266l0,-35.707c2.038,-0.254 4.076,-0.509 6.369,-0.764c2.038,-0.255 4.076,-0.255 5.859,-0.255c5.859,0 10.444,1.019 13.756,3.312c3.312,2.038 4.84,5.35 4.84,10.19c0,0.357 -0.008,0.707 -0.025,1.05c2.14,-4.814 3.246,-10.023 3.246,-15.29c0,-11.049 -4.854,-21.539 -13.276,-28.69c-8.422,-7.151 -19.561,-10.24 -30.463,-8.449Z" style="fill:#fff;fill-rule:nonzero;stroke:#fff;stroke-width:1px;"/><path d="M23.696,86.489l0,3.299l8.661,0l0,-3.299l0,-7.629c-1.67,-0.476 -3.288,-1.059 -4.877,-1.76c-0.793,-0.349 -1.571,-0.725 -2.337,-1.128c-0.303,-0.159 -0.603,-0.322 -0.901,-0.489c-0.15,-0.084 -0.299,-0.169 -0.447,-0.255c-0.019,-0.011 -0.037,-0.022 -0.056,-0.033c-0.009,-0.005 -0.018,-0.01 -0.028,-0.016l-0.013,-0.008c-0.008,-0.004 -0.002,0.008 -0.002,0.013l0,11.305Z" style="fill:#fff;fill-rule:nonzero;"/><path d="M69.855,68.681c-3.029,1.358 -6.865,1.977 -11.629,1.977l-2.802,0l0,7.41c5.471,-1.972 10.41,-5.185 14.431,-9.387Z" style="fill:#fff;fill-rule:nonzero;stroke:#fff;stroke-width:1px;"/><path d="M33.121,61.174c0,1.528 -0.509,2.802 -1.528,3.821c-1.019,0.764 -2.293,1.274 -3.567,1.274c-1.528,0 -2.547,-0.51 -3.566,-1.274c-1.019,-1.019 -1.529,-2.293 -1.529,-3.821c0,-1.529 0.51,-2.802 1.529,-3.821c1.019,-0.765 2.038,-1.274 3.566,-1.274c1.274,0 2.548,0.509 3.567,1.274c1.019,1.019 1.528,2.292 1.528,3.821Z" style="fill:#fdd45a;fill-rule:nonzero;"/></g></svg>