<?xml version="1.0" encoding="UTF-8" standalone="no"?><!DOCTYPE svg PUBLIC "-//W3C//DTD SVG 1.1//EN" "http://www.w3.org/Graphics/SVG/1.1/DTD/svg11.dtd"><svg width="100%" height="100%" viewBox="0 0 97 108" version="1.1" xmlns="http://www.w3.org/2000/svg" xmlns:xlink="http://www.w3.org/1999/xlink" xml:space="preserve" xmlns:serif="http://www.serif.com/" style="fill-rule:evenodd;clip-rule:evenodd;stroke-linejoin:round;stroke-miterlimit:2;"><g><path d="M68.935,58.103l-2.601,0.016c-0.648,0.326 -1.298,0.33 -1.949,0.334l0.092,14.828l3.576,-0.022c3.902,-0.024 7.149,-0.688 9.093,-1.667c1.945,-0.979 2.906,-3.242 2.888,-6.143c-0.008,-1.289 -0.341,-2.577 -0.672,-3.542c-0.656,-0.963 -1.311,-1.603 -2.29,-2.242c-0.979,-0.639 -2.282,-0.953 -3.584,-1.268c-1.302,-0.314 -2.928,-0.304 -4.553,-0.294Z" style="fill:#fdd45a;fill-rule:nonzero;"/><path d="M39.951,0.679c2.493,0.611 4.382,1.235 5.966,2.164c-1.065,3.015 -2.13,6.03 -3.195,9.046c-1.631,-0.958 -3.26,-1.592 -4.888,-1.905c-1.955,-0.633 -3.907,-0.943 -6.508,-0.927c-2.601,0.016 -4.874,0.352 -5.844,1.325c-1.296,0.653 -1.938,1.946 -1.928,3.558c0.006,0.967 0.335,1.609 0.664,2.252c0.654,0.641 1.308,1.282 1.961,1.6c0.979,0.639 1.956,0.955 2.936,1.594c0.977,0.316 2.279,0.631 3.584,1.267c2.606,0.952 4.888,1.905 7.17,2.858c1.956,0.955 3.588,1.912 4.896,3.194c1.308,1.281 2.294,2.887 2.954,4.495c0.66,1.607 0.999,3.862 1.013,6.118c0.03,4.835 -1.571,8.714 -5.131,11.314c-3.235,2.599 -8.429,3.92 -15.256,3.962c-2.275,0.013 -4.226,0.025 -6.179,-0.285c-1.627,-0.313 -3.254,-0.625 -4.882,-0.937c-1.302,-0.315 -2.607,-0.952 -3.584,-1.268c-0.977,-0.316 -1.957,-0.955 -2.609,-1.273l3.195,-9.046c1.632,0.957 3.586,1.59 5.866,2.221c2.28,0.631 4.882,0.937 8.133,0.917c1.626,-0.01 3.251,-0.02 4.224,-0.348c0.974,-0.328 1.947,-0.657 2.593,-1.305c0.648,-0.327 0.97,-0.973 1.291,-1.62c0.321,-0.647 0.317,-1.291 0.313,-1.936c-0.012,-1.934 -0.671,-3.219 -2.302,-4.177c-1.633,-1.279 -4.567,-2.551 -8.476,-3.816c-1.628,-0.313 -3.257,-0.947 -4.889,-1.904c-1.629,-0.635 -3.261,-1.592 -4.569,-2.874c-1.307,-0.959 -2.292,-2.565 -3.277,-4.171c-0.796,-1.297 -1.169,-2.807 -1.29,-4.529c-9.482,10.732 -13.611,25.113 -11.253,39.188c2.359,14.076 10.958,26.362 23.433,33.476l-0.04,-6.428l11.053,-0.067l0.069,11.097c5.769,1.59 11.787,2.097 17.743,1.494l-0.28,-45.182c2.599,-0.338 5.197,-0.677 8.121,-1.017c2.599,-0.338 5.2,-0.354 7.475,-0.368c7.478,-0.045 13.337,1.208 17.582,4.084c4.242,2.553 6.218,6.731 6.257,12.856c0.002,0.451 -0.006,0.894 -0.024,1.328c2.693,-6.107 4.063,-12.707 4.022,-19.372c-0.087,-13.98 -6.365,-27.217 -17.168,-36.2c-10.804,-8.982 -25.043,-12.805 -38.942,-10.453Z" style="fill:#fdd45a;fill-rule:nonzero;"/><path d="M24.172,103.23l0.026,4.174l11.053,-0.068l-0.026,-4.173l-0.06,-9.654c-2.135,-0.589 -4.205,-1.315 -6.238,-2.189c-1.014,-0.436 -2.01,-0.905 -2.991,-1.409c-0.387,-0.199 -0.772,-0.403 -1.154,-0.613c-0.191,-0.105 -0.382,-0.211 -0.572,-0.318c-0.024,-0.014 -0.047,-0.027 -0.071,-0.041c-0.012,-0.007 -0.024,-0.013 -0.036,-0.02l-0.018,-0.01c-0.009,-0.006 -0.002,0.01 -0.002,0.016l0.089,14.305Z" style="fill:#fdd45a;fill-rule:nonzero;"/><path d="M82.938,80.337c-3.854,1.742 -8.745,2.555 -14.825,2.592l-3.576,0.022l0.059,9.377c6.966,-2.538 13.244,-6.642 18.342,-11.991Z" style="fill:#fdd45a;fill-rule:nonzero;"/><path d="M36.001,71.124c0.012,1.934 -0.628,3.55 -1.92,4.847c-1.294,0.975 -2.916,1.629 -4.541,1.639c-1.951,0.012 -3.255,-0.625 -4.562,-1.584c-1.308,-1.281 -1.968,-2.889 -1.98,-4.823c-0.012,-1.934 0.628,-3.55 1.92,-4.847c1.295,-0.975 2.591,-1.628 4.542,-1.64c1.625,-0.009 3.255,0.625 4.561,1.584c1.308,1.282 1.968,2.89 1.98,4.824Z" style="fill:#c8a7e3;fill-rule:nonzero;"/></g></svg>