<?xml version="1.0" encoding="UTF-8" standalone="no"?>
<!DOCTYPE svg PUBLIC "-//W3C//DTD SVG 1.1//EN" "http://www.w3.org/Graphics/SVG/1.1/DTD/svg11.dtd">
<svg width="100%" height="100%" viewBox="0 0 7571 4402" version="1.1" xmlns="http://www.w3.org/2000/svg" xmlns:xlink="http://www.w3.org/1999/xlink" xml:space="preserve" xmlns:serif="http://www.serif.com/" style="fill-rule:evenodd;clip-rule:evenodd;stroke-linejoin:round;stroke-miterlimit:2;">
    <g transform="matrix(1,0,0,1,-980.658,-1438.11)">
        <g transform="matrix(0.615304,0,0,0.615304,-872.879,754.039)">
            <g transform="matrix(25.4034,0,0,25.4034,2620.57,1662.93)">
                <path d="M26.568,87.396L69.429,87.396C71.454,65.562 73.48,43.728 75.507,21.894L20.487,21.894C22.516,43.729 24.543,65.563 26.568,87.396ZM60.404,35.253C60.404,35.116 60.457,35.013 60.529,34.934C60.535,34.923 60.543,34.913 60.55,34.902C60.564,34.893 60.575,34.885 60.587,34.877C60.665,34.806 60.767,34.755 60.903,34.755L61.653,34.755C61.924,34.755 62.153,34.983 62.153,35.255L62.153,72.036C62.153,72.307 61.924,72.536 61.653,72.536L60.903,72.536C60.63,72.536 60.403,72.309 60.403,72.035C60.404,59.773 60.404,47.514 60.404,35.253ZM47.124,35.252C47.124,35.116 47.176,35.013 47.247,34.935C47.255,34.923 47.262,34.913 47.271,34.901C47.283,34.892 47.294,34.884 47.306,34.876C47.384,34.806 47.486,34.754 47.623,34.754L48.373,34.754C48.645,34.754 48.872,34.982 48.872,35.254L48.872,72.036C48.872,72.307 48.645,72.536 48.373,72.536L47.623,72.536C47.351,72.536 47.123,72.309 47.123,72.035C47.124,59.773 47.124,47.513 47.124,35.252ZM33.842,35.25C33.842,35.114 33.894,35.011 33.965,34.933C33.973,34.921 33.98,34.911 33.99,34.899C34,34.89 34.012,34.882 34.024,34.874C34.102,34.804 34.205,34.752 34.341,34.752L35.091,34.752C35.362,34.752 35.591,34.98 35.591,35.252L35.591,72.036C35.591,72.307 35.362,72.536 35.091,72.536L34.341,72.536C34.068,72.536 33.841,72.309 33.841,72.035C33.842,59.771 33.842,47.512 33.842,35.25Z" style="fill:rgb(237,199,0);fill-rule:nonzero;"/>
            </g>
            <g transform="matrix(25.4034,0,0,25.4034,2620.57,1662.93)">
                <rect x="15.424" y="13.474" width="65.152" height="3.13" style="fill:rgb(237,199,0);fill-rule:nonzero;"/>
            </g>
            <g transform="matrix(25.4034,0,0,25.4034,2620.57,1662.93)">
                <rect x="41.811" y="8.604" width="12.378" height="2.87" style="fill:rgb(237,199,0);fill-rule:nonzero;"/>
            </g>
        </g>
        <g transform="matrix(1,0,0,1,-3091.34,-2562.22)">
            <text x="5179.5px" y="5046px" style="font-family:'Roboto-Bold', 'Roboto';font-weight:700;font-size:416.667px;fill:rgb(237,199,0);">$218 billion</text>
        </g>
        <g transform="matrix(1,0,0,1,-2431.33,-175.507)">
            <text x="4532.96px" y="2981.32px" style="font-family:'Roboto-Regular', 'Roboto';font-size:250px;">wor<tspan x="4954.1px " y="2981.32px ">t</tspan>h of food is thr<tspan x="6654.42px " y="2981.32px ">o</tspan>wn</text>
            <text x="4532.96px" y="3231.32px" style="font-family:'Roboto-Regular', 'Roboto';font-size:250px;">awa<tspan x="4990.97px " y="3231.32px ">y</tspan> each y<tspan x="5886.72px " y="3231.32px ">e</tspan>ar</text>
        </g>
        <g transform="matrix(1,0,0,1,-3952.91,-250.875)">
            <text x="5179.5px" y="5046px" style="font-family:'Roboto-Bold', 'Roboto';font-weight:700;font-size:416.667px;fill:rgb(237,199,0);">72 billion</text>
            <text x="5179.5px" y="5462.67px" style="font-family:'Roboto-Bold', 'Roboto';font-weight:700;font-size:416.667px;fill:rgb(237,199,0);">pounds</text>
        </g>
        <g transform="matrix(1,0,0,1,-3292.9,2555.83)">
            <text x="4532.96px" y="2981.32px" style="font-family:'Roboto-Regular', 'Roboto';font-size:250px;">of food is lost each y<tspan x="6841.8px " y="2981.32px ">e</tspan>ar<tspan x="7179.81px " y="2981.32px ">,</tspan> not</text>
            <text x="4532.96px" y="3231.32px" style="font-family:'Roboto-Regular', 'Roboto';font-size:250px;">including waste at home.</text>
        </g>
        <g transform="matrix(13.4916,0,0,13.4916,3095.32,4125.52)">
            <path d="M16,19L16,30L13,30L13,19C13,18.4 12.6,18 12,18C11.4,18 11,18.4 11,19L11,30L8,30L8,19C8,18.4 7.6,18 7,18C6.4,18 6,18.4 6,19L6,31C6,32.6 6.5,35.1 8.1,36.9C8.8,37.7 9.1,38.8 9.1,39.9L8.1,79.7C8.1,81.5 9.6,83 11.3,83L12.3,83C14.1,83 15.6,81.5 15.6,79.7L14.7,40C14.7,38.9 15,37.8 15.7,37C17.2,35.2 18,32.6 18,31L18,19C18,18.4 17.6,18 17,18C16.4,18 16,18.4 16,19Z" style="fill:rgb(237,199,0);fill-rule:nonzero;"/>
        </g>
        <g transform="matrix(13.4916,0,0,13.4916,3095.32,4125.52)">
            <path d="M92.2,19C91.8,18.9 91.3,19.1 91.1,19.5C87.6,25.4 85.7,32.2 85.7,39C85.7,41.4 85.9,43.7 86.3,45.9C86.6,47.5 87.3,49.9 87.7,51.1C86.5,51.8 85,53.5 85,55L85.1,78C85.1,80.2 86.8,82 89.1,82C91.3,82 93.1,80.2 93.1,78L93.1,20C93,19.6 92.7,19.2 92.2,19Z" style="fill:rgb(237,199,0);fill-rule:nonzero;"/>
        </g>
        <g transform="matrix(13.4916,0,0,13.4916,3095.32,4125.52)">
            <path d="M50.4,30.5C39.4,30.5 30.5,39.4 30.5,50.4C30.5,61.4 39.4,70.3 50.4,70.3C61.4,70.3 70.3,61.4 70.3,50.4C70.3,39.4 61.4,30.5 50.4,30.5ZM50.4,21C34.2,21 21.1,34.2 21.1,50.3C21.1,66.4 34.3,79.6 50.4,79.6C66.5,79.6 79.7,66.4 79.7,50.3C79.7,34.2 66.6,21 50.4,21ZM50.4,72.3C38.3,72.3 28.5,62.5 28.5,50.4C28.5,38.3 38.3,28.5 50.4,28.5C62.5,28.5 72.3,38.3 72.3,50.4C72.3,62.5 62.5,72.3 50.4,72.3Z" style="fill:rgb(237,199,0);fill-rule:nonzero;"/>
        </g>
        <g transform="matrix(21.3426,-1.31274e-31,-1.31274e-31,-21.3426,6994.4,2980.26)">
            <g>
                <path d="M3.41,2.743L2.043,5.475L3.419,8.09C3.058,9.466 3.424,10.999 4.396,12.662L2.807,12.64L3.576,13.749L3.369,14.762L4.019,15.189L4.855,16.656L5.81,15.026C5.914,15.111 6.018,15.193 6.12,15.272C5.548,16.095 5.165,17.039 5.482,17.882C6.267,19.969 8.609,21.383 11.47,20.862L12.973,21.055C12.172,21.687 11.599,22.611 11.429,23.696L11.316,24.423C10.96,26.706 12.524,28.849 14.808,29.205C16.861,29.684 19.408,30.193 22.182,30.694L21.95,32.186L12.547,30.72L10.789,41.995L10.82,41.999L10.497,44.067L18.186,45.234C19.09,45.375 19.936,44.757 20.077,43.853L20.135,43.451L24.702,44.164L24.723,44.142L33.655,40.275L44.591,40.479L45.085,37.303C45.212,36.49 44.655,35.726 43.841,35.6L34.253,34.105L34.481,32.647C38.115,33.151 41.517,33.555 44.159,33.78C46.443,34.137 48.585,32.572 48.941,30.289L49.054,29.562C49.091,29.326 49.107,29.092 49.105,28.86L54.942,32.881L56.002,31.175L53.833,25.759L67.638,21.106L66.606,17.456C68.779,16.622 70.307,14.651 70.307,12.354C70.307,11.688 70.178,11.05 69.943,10.458L71.568,10.143L72.956,2.743L3.41,2.743ZM15.423,22.092L18.35,27.494L27.957,23.992L31.779,24.587L34.613,27.755L37.807,28.247L39.405,27.213C40.276,27.663 41.281,27.92 42.352,27.92C43.316,27.92 44.227,27.711 45.036,27.34L46.686,27.521C47.061,27.996 47.245,28.62 47.145,29.264L47.031,29.991C46.84,31.22 45.686,32.063 44.456,31.872L44.391,31.861L44.325,31.856C36.713,31.204 22.671,29.054 15.245,27.323L15.175,27.306L15.105,27.295C13.877,27.104 13.033,25.95 13.226,24.721L13.338,23.994C13.504,22.931 14.391,22.156 15.423,22.092ZM61.772,25.173C59.628,25.397 57.575,26.257 55.496,26.993L55.804,28.145C57.166,27.941 58.526,27.705 59.916,28.107L63.071,39.012L62.127,39.662L57.782,56.498L47.497,47.437C46.205,46.449 45.075,44.926 44.069,42.997L44.03,43.005C43.135,45.443 41.749,49.019 40.356,51.754C40.445,51.819 40.534,51.884 40.625,51.949L56.132,62.888L55.47,65.455L60.077,71.935C60.57,72.349 61.15,72.497 62.068,71.547L66.318,63.914L67.402,39.994L67.281,39.734C76.244,35.911 71.799,24.126 61.772,25.173ZM7.19,31.468L6.881,33.453C6.88,33.454 6.88,33.455 6.88,33.457L5.582,41.781C5.455,42.595 6.013,43.359 6.826,43.485L9.149,43.847L9.459,41.858L11.218,30.585L8.894,30.223C8.08,30.096 7.317,30.654 7.19,31.468ZM31.026,42.628L24.52,45.446C24.365,48.342 24.345,50.372 24.19,53.27L28.503,54.832L37.475,56.231C37.852,55.678 38.209,55.129 38.548,54.581L29.43,53.079L31.026,42.628Z" style="fill:rgb(237,199,0);"/>
            </g>
        </g>
        <g transform="matrix(1,0,0,1,344.09,-2549.31)">
            <text x="5179.5px" y="5046px" style="font-family:'Roboto-Bold', 'Roboto';font-weight:700;font-size:416.667px;fill:rgb(237,199,0);">21% of</text>
            <text x="5179.5px" y="5462.67px" style="font-family:'Roboto-Bold', 'Roboto';font-weight:700;font-size:416.667px;fill:rgb(237,199,0);">landﬁll</text>
        </g>
        <g transform="matrix(1,0,0,1,1004.1,257.395)">
            <text x="4532.96px" y="2981.32px" style="font-family:'Roboto-Regular', 'Roboto';font-size:250px;">v<tspan x="4652.22px " y="2981.32px ">o</tspan>lume is food waste</text>
        </g>
        <g transform="matrix(4.16667,0,0,4.16667,7004.82,4001.98)">
            <path d="M153,12L184,12C191,3 205,3 213,12L244,12C260,12 260,37 244,37L214,37C213,38 212,39 211,40L211,77C221,77 229,82 229,93L229,126C323,124 307,221 307,252L249,252L249,210C249,194 242,187 229,188L56,188L56,206L26,206L26,108L56,108L56,126L167,126L167,93C167,82 176,77 186,77L186,40C185,39 184,38 183,37L153,37C137,37 137,12 153,12ZM279,148C304,179 298,223 298,245L288,245C292,204 288,169 279,148ZM210,89L212,89C216,89 220,93 220,97L220,123L210,123L210,89Z" style="fill:rgb(237,199,0);"/>
        </g>
        <g transform="matrix(7.69896,0,0,7.69896,6024.79,3069.93)">
            <path d="M277,265C282,265 294,302 294,311C294,320 287,328 277,328C268,328 261,320 261,311C261,302 273,265 277,265Z" style="fill:rgb(237,199,0);"/>
        </g>
        <g transform="matrix(1,0,0,1,344.09,-232.313)">
            <text x="5179.5px" y="5046px" style="font-family:'Roboto-Bold', 'Roboto';font-weight:700;font-size:416.667px;fill:rgb(237,199,0);">21% of</text>
            <text x="5179.5px" y="5462.67px" style="font-family:'Roboto-Bold', 'Roboto';font-weight:700;font-size:416.667px;fill:rgb(237,199,0);">fr<tspan x="5476.94px " y="5462.67px ">e</tspan>sh water</text>
        </g>
        <g transform="matrix(1,0,0,1,1004.1,2581.4)">
            <text x="4532.96px" y="2981.32px" style="font-family:'Roboto-Regular', 'Roboto';font-size:250px;">is used t<tspan x="5465.7px " y="2981.32px ">o</tspan> pr<tspan x="5892.58px " y="2981.32px ">o</tspan>duce</text>
            <text x="4532.96px" y="3231.32px" style="font-family:'Roboto-Regular', 'Roboto';font-size:250px;">food that is then discar<tspan x="7089.48px " y="3231.32px ">d</tspan>ed</text>
        </g>
    </g>
</svg>
