<?xml version="1.0" encoding="UTF-8"?>
<svg width="931px" height="400px" viewBox="0 0 931 400" version="1.1" xmlns="http://www.w3.org/2000/svg" xmlns:xlink="http://www.w3.org/1999/xlink">
    <!-- Generator: Sketch 56.2 (81672) - https://sketch.com -->
    <title>Artboard Copy</title>
    <desc>Created with Sketch.</desc>
    <g id="Artboard-Copy" stroke="none" stroke-width="1" fill="none" fill-rule="evenodd">
        <path d="M259.82662,-5.68434189e-14 L280.254447,34.139271 L290.471558,51.2058225 L399.95704,234.139271 L359.088598,234.139271 L338.667164,234.139271 L180.986075,234.139271 L201.413903,200 L318.232943,200 L338.667164,200 L270.04373,85.3450934 L259.82662,68.272374 L180.986075,200 L160.551854,234.139271 L140.13042,268.278542 L129.91331,285.345093 L61.2962696,400 L20.4278274,400 L40.8620485,365.866897 L109.491876,251.205822 L61.2962696,331.727626 L109.491876,251.205822 L119.702593,234.139271 L109.491876,217.072719 L0,34.139271 L40.8620485,34.139271 L61.2962696,34.139271 L218.964571,34.139271 L198.536744,68.272374 L81.7113096,68.272374 L61.2962696,68.272374 L129.91331,182.939616 L140.13042,200 L259.82662,-5.68434189e-14 Z M386.358501,115.574 L386.358501,84.674 L369.960262,34.574 L383.75878,34.574 L393.757706,66.674 L403.156696,34.574 L416.655246,34.574 L400.456986,84.674 L400.456986,115.574 L386.358501,115.574 Z M419.654924,115.574 L435.853184,34.574 L451.651487,34.574 L467.849748,115.574 L454.151219,115.574 L450.951563,96.874 L436.853077,96.874 L433.553431,115.574 L419.654924,115.574 Z M438.352916,87.474 L449.351735,87.474 L443.852325,53.474 L438.352916,87.474 Z M496.346687,116.674 C491.480518,116.674 487.414329,115.72401 484.147997,113.824 C480.881665,111.923991 478.415288,109.140685 476.748792,105.474 C475.082296,101.807315 474.149072,97.30736 473.949092,91.974 L486.647728,89.474 C486.781048,92.607349 487.164337,95.373988 487.797605,97.774 C488.430873,100.174012 489.397427,102.023994 490.697294,103.324 C491.99716,104.624007 493.713626,105.274 495.84674,105.274 C498.246495,105.274 499.9463,104.557341 500.946193,103.124 C501.946085,101.69066 502.446032,99.874011 502.446032,97.674 C502.446032,94.140649 501.646125,91.240678 500.046289,88.974 C498.446461,86.707322 496.31337,84.440678 493.646977,82.174 L483.448072,73.174 C480.581699,70.707321 478.298634,67.9573485 476.598808,64.924 C474.898982,61.8906515 474.049082,58.140689 474.049082,53.674 C474.049082,47.273968 475.915529,42.340684 479.64848,38.874 C483.381431,35.407316 488.480833,33.674 494.946837,33.674 C498.746448,33.674 501.912743,34.2573275 504.445817,35.424 C506.978891,36.5906725 508.995321,38.207323 510.495167,40.274 C511.995013,42.340677 513.111549,44.6906535 513.844807,47.324 C514.578065,49.9573465 515.044677,52.740652 515.244657,55.674 L502.64601,57.874 C502.51269,55.340654 502.22939,53.07401 501.796101,51.074 C501.362812,49.07399 500.596236,47.507339 499.496348,46.374 C498.396461,45.240661 496.779984,44.674 494.646869,44.674 C492.447095,44.674 490.763959,45.3906595 489.597412,46.824 C488.430864,48.2573405 487.8476,50.040656 487.8476,52.174 C487.8476,54.907347 488.4142,57.1573245 489.547417,58.924 C490.680634,60.6906755 492.313776,62.507324 494.446891,64.374 L504.545806,73.274 C507.878798,76.074014 510.728463,79.3573145 513.094888,83.124 C515.461312,86.8906855 516.644506,91.44064 516.644506,96.774 C516.644506,100.640686 515.794606,104.073985 514.09478,107.074 C512.394954,110.074015 510.028566,112.423991 506.995543,114.124 C503.96252,115.824009 500.412937,116.674 496.346687,116.674 Z M525.143594,115.574 L526.543443,34.574 L541.8418,34.574 L553.340565,90.674 L565.339276,34.574 L580.137687,34.574 L581.637526,115.574 L570.638707,115.574 L569.438836,59.274 L557.940071,115.574 L549.041027,115.574 L537.342283,59.074 L536.242401,115.574 L525.143594,115.574 Z M593.636237,115.574 L593.636237,34.574 L627.632585,34.574 L627.632585,44.974 L608.434647,44.974 L608.434647,68.274 L623.533025,68.274 L623.533025,78.574 L608.434647,78.574 L608.434647,105.374 L627.832564,105.374 L627.832564,115.574 L593.636237,115.574 Z M636.43164,115.574 L636.43164,34.574 L670.427988,34.574 L670.427988,44.974 L651.23005,44.974 L651.23005,68.274 L666.328429,68.274 L666.328429,78.574 L651.23005,78.574 L651.23005,105.374 L670.627967,105.374 L670.627967,115.574 L636.43164,115.574 Z M679.227043,115.574 L679.227043,34.574 L689.525937,34.574 L709.223821,80.774 L709.223821,34.574 L721.422511,34.574 L721.422511,115.574 L711.623564,115.574 L691.82569,67.174 L691.82569,115.574 L679.227043,115.574 Z M443.852325,233.574 L460.050585,152.574 L475.848888,152.574 L492.047149,233.574 L478.34862,233.574 L475.148964,214.874 L461.050478,214.874 L457.750832,233.574 L443.852325,233.574 Z M462.550317,205.474 L473.549135,205.474 L468.049726,171.474 L462.550317,205.474 Z M500.146279,233.574 L500.146279,152.574 L514.944689,152.574 L514.944689,223.374 L534.542584,223.374 L534.542584,233.574 L500.146279,233.574 Z M542.041779,233.574 L543.441628,152.574 L558.739985,152.574 L570.23875,208.674 L582.237461,152.574 L597.035872,152.574 L598.53571,233.574 L587.536892,233.574 L586.337021,177.274 L574.838256,233.574 L565.939212,233.574 L554.240468,177.074 L553.140586,233.574 L542.041779,233.574 Z M632.732037,234.674 C626.732652,234.674 622.066533,233.574011 618.733541,231.374 C615.400549,229.173989 613.100819,226.040687 611.834282,221.974 C610.567745,217.907313 609.934486,213.040695 609.934486,207.374 L609.934486,152.574 L624.33294,152.574 L624.33294,209.074 C624.33294,211.607346 624.499587,213.990656 624.832886,216.224 C625.166185,218.457345 625.949426,220.257327 627.182633,221.624 C628.41584,222.990674 630.265623,223.674 632.732037,223.674 C635.331771,223.674 637.214883,222.990674 638.381431,221.624 C639.547978,220.257327 640.314554,218.457345 640.681184,216.224 C641.047813,213.990656 641.231124,211.607346 641.231124,209.074 L641.231124,152.574 L655.529589,152.574 L655.529589,207.374 C655.529589,213.040695 654.89633,217.907313 653.629793,221.974 C652.363256,226.040687 650.08019,229.173989 646.780528,231.374 C643.480866,233.574011 638.798083,234.674 632.732037,234.674 Z M667.328321,233.574 L667.328321,152.574 L682.026743,152.574 L682.026743,186.474 L698.52497,186.474 L698.52497,152.574 L713.323381,152.574 L713.323381,233.574 L698.52497,233.574 L698.52497,196.974 L682.026743,196.974 L682.026743,233.574 L667.328321,233.574 Z M721.62249,233.574 L737.82075,152.574 L753.619053,152.574 L769.817313,233.574 L756.118784,233.574 L752.919128,214.874 L738.820642,214.874 L735.520997,233.574 L721.62249,233.574 Z M740.320481,205.474 L751.3193,205.474 L745.81989,171.474 L740.320481,205.474 Z M777.916443,233.574 L777.916443,152.574 L788.215337,152.574 L807.913221,198.774 L807.913221,152.574 L820.111911,152.574 L820.111911,233.574 L810.312963,233.574 L790.51509,185.174 L790.51509,233.574 L777.916443,233.574 Z M832.41059,233.574 L832.41059,152.574 L842.709483,152.574 L862.407368,198.774 L862.407368,152.574 L874.606057,152.574 L874.606057,233.574 L864.80711,233.574 L845.009236,185.174 L845.009236,233.574 L832.41059,233.574 Z M882.805177,233.574 L899.003437,152.574 L914.80174,152.574 L931,233.574 L917.301471,233.574 L914.101815,214.874 L900.003329,214.874 L896.703684,233.574 L882.805177,233.574 Z M901.503168,205.474 L912.501987,205.474 L907.002578,171.474 L901.503168,205.474 Z" id="Combined-Shape" fill="#FFFFFF"></path>
    </g>
</svg>