<?xml version="1.0" encoding="UTF-8" standalone="no"?><!DOCTYPE svg PUBLIC "-//W3C//DTD SVG 1.1//EN" "http://www.w3.org/Graphics/SVG/1.1/DTD/svg11.dtd"><svg width="100%" height="100%" viewBox="0 0 500 306" version="1.1" xmlns="http://www.w3.org/2000/svg" xmlns:xlink="http://www.w3.org/1999/xlink" xml:space="preserve" xmlns:serif="http://www.serif.com/" style="fill-rule:evenodd;clip-rule:evenodd;stroke-linejoin:round;stroke-miterlimit:2;"><rect id="Artboard1" x="0" y="0" width="500" height="306" style="fill:none;"/><clipPath id="_clip1"><rect x="0" y="0" width="500" height="306"/></clipPath><g clip-path="url(#_clip1)"><g id="Layer_2"><path d="M62.131,275.475c-12.971,1.36 -26.07,0.793 -38.885,-1.678c-21.085,-3.713 -9.506,-19.176 -6.31,-31.989c2.421,-9.719 3.285,-26.329 -5.097,-118.052c2.248,1.591 13.479,-14.492 16.592,-12.989c4.497,21.931 12.309,43.006 23.156,62.474c13.224,18.025 18.06,20.762 21.085,48.951c0.608,6.01 1.297,12.196 1.905,18.116c1.469,13.782 -14.258,26.685 -12.446,35.167Z" style="fill:#7f6e5d;fill-rule:nonzero;"/><path d="M237.638,257.802c-9.419,18.998 19.444,13.344 18.318,24.741c-1.035,11.397 -31.97,10.689 -53.055,6.98c-21.089,-3.712 -9.507,-19.177 -6.311,-31.985c2.422,-9.721 8.295,-51.339 11.147,-71.308c15.556,-4.243 32.23,-37.291 41.305,-41.001c2.791,7.836 6.478,15.307 10.975,22.268c3.806,4.238 8.729,36.843 13.566,43.647c-16.673,9.723 -26.612,27.747 -35.945,46.658Z" style="fill:#7f6e5d;fill-rule:nonzero;"/><path d="M501.458,138.25c-3.659,5.49 -7.857,10.58 -12.53,15.194c-2.352,2.52 -5.301,4.375 -8.554,5.392c-8.642,1.591 -6.138,-2.119 -37.765,-2.65c-10.706,-0.02 -21.134,-3.484 -29.81,-9.897c-7.469,0.172 -14.917,0.853 -22.297,2.034c-11.426,1.665 -22.764,3.933 -33.96,6.803c-6.825,1.767 -12.703,3.445 -17.284,4.77c0.261,18.824 0.434,38.882 1.817,50.633c2.937,24.567 27.218,59.642 27.218,59.642c35.948,-1.323 41.133,12.725 28.689,21.74c-12.442,9.1 -39.404,6.98 -55.131,5.037c-15.64,-1.946 -45.626,-44.976 -53.144,-60.97c-4.245,-8.758 -9.309,-17.075 -15.124,-24.833c-4.217,-5.959 -8.745,-11.679 -13.566,-17.142c-3.736,-5.521 -6.814,-11.488 -9.158,-17.759l-1.816,-4.508c-4.062,1.682 -9.679,3.978 -16.159,6.362l-0.084,0c-7.693,2.831 -16.592,5.834 -25.062,8.133c-6.631,2.009 -13.43,3.402 -20.309,4.152c-14.913,0.81 -29.863,0.665 -44.763,-0.441c-6.48,-0.442 -12.442,-0.883 -17.367,-1.24l-0.088,0c-4.616,19.019 -10.534,37.679 -17.711,55.849c-5.186,14.575 -4.321,22.086 -1.385,25.094c2.937,3.003 25.405,0.263 24.885,11.841c-0.604,11.663 -20.563,11.663 -32.663,11.663c-12.183,0 -28.43,-3.624 -32.751,-8.045c-1.79,-2.927 -2.968,-6.209 -3.456,-9.628c-1.813,-8.482 -3.369,-21.385 -4.837,-35.167c-0.604,-5.92 -1.297,-12.106 -1.9,-18.116c-3.024,-28.188 -7.866,-30.925 -21.085,-48.951c-8.037,-13.646 -12.998,-28.95 -14.52,-44.801c-2.772,-1.333 -5.43,-2.902 -7.949,-4.685c-23.506,-17.229 -7.689,-44.622 8.293,-73.871c18.408,-33.579 68.443,-42.768 140.079,-31.37c71.636,11.403 68.783,9.987 112.68,4.419c21.662,-1.751 43.37,2.749 62.65,12.989c0.088,0.176 0.176,0.176 0.261,0.09c10.89,1.327 23.504,3.003 36.118,5.127c20.37,2.753 40.334,8.031 59.453,15.726c22.484,9.852 41.015,27.245 52.539,49.306c1.989,5.478 15.296,28.278 17.284,31.637c0.098,0.14 0.182,0.288 0.262,0.441Z" style="fill:#f5efca;fill-rule:nonzero;"/><g><path d="M371.921,41.14c0.353,2.342 -0.24,4.735 -1.64,6.627c-1.617,2.24 -4.187,3.554 -6.913,3.53c-1.84,-0.015 -3.625,-0.637 -5.098,-1.768c-6.868,-4.981 -14.155,-9.328 -21.776,-12.989c-0.268,-0.113 -0.506,-0.297 -0.691,-0.528c10.89,1.328 23.504,3.004 36.118,5.128Z" style="fill:#cbb292;fill-rule:nonzero;"/><path d="M142.667,189.941c-6.48,-0.442 -12.442,-0.883 -17.367,-1.24c4.004,-15.261 4.447,-31.273 1.297,-46.74l-10.369,-36.498c-0.851,-3.045 -0.043,-6.322 2.109,-8.597c2.156,-2.276 5.335,-3.202 8.34,-2.429c3.006,0.77 5.381,3.12 6.229,6.165l10.283,36.498c3.899,17.407 3.721,35.516 -0.522,52.841Z" style="fill:#cbb292;fill-rule:nonzero;"/><path d="M356.542,155.126c-6.825,1.767 -12.703,3.445 -17.284,4.77c0.384,-13.052 -0.283,-26.115 -1.987,-39.053c-1.706,-4.516 0.396,-9.599 4.752,-11.488c4.345,-1.813 9.308,0.27 11.151,4.681c2.416,5.833 3.11,18.114 3.368,41.09Z" style="fill:#cbb292;fill-rule:nonzero;"/><path d="M249.043,171.736c-4.062,1.682 -9.679,3.978 -16.159,6.362l-0.084,0c-9.246,-23.063 -19.013,-51.426 -19.444,-52.751c-1.036,-2.968 -0.443,-6.271 1.552,-8.672c1.997,-2.401 5.093,-3.527 8.126,-2.959c3.028,0.566 5.533,2.744 6.565,5.713c0.176,0.35 10.286,29.511 19.444,52.307Z" style="fill:#cbb292;fill-rule:nonzero;"/><path d="M412.799,146.289c-7.469,0.172 -14.917,0.853 -22.297,2.034c-1.622,-2.206 -3.067,-4.541 -4.321,-6.984c-2.076,-4.391 -0.303,-9.679 3.977,-11.84c2.05,-1.028 4.417,-1.177 6.572,-0.415c2.157,0.768 3.929,2.379 4.919,4.482c2.8,4.946 6.565,9.247 11.062,12.632l0.088,0.091Z" style="fill:#cbb292;fill-rule:nonzero;"/><path d="M415.568,87.959c2.424,-0.583 4.487,-2.198 5.674,-4.438c1.186,-2.241 1.381,-4.896 0.531,-7.289c-1.812,-6.523 -7.281,-11.297 -13.865,-12.099c-6.531,-0.676 -12.889,2.429 -16.484,8.047c-2.543,4.165 -3.004,9.314 -1.246,13.881c1.498,4.167 5.813,6.525 10.033,5.481l15.357,-3.583Z" style="fill:#cbb292;fill-rule:nonzero;"/></g><path d="M501.458,138.25c-3.659,5.49 -7.857,10.58 -12.53,15.194l-6.222,-1.235c-4.673,-0.884 -7.766,-5.47 -6.913,-10.248c0.383,-2.331 1.675,-4.404 3.583,-5.736c1.907,-1.334 4.263,-1.814 6.527,-1.334l15.295,2.917c0.096,0.141 0.18,0.289 0.26,0.442Z" style="fill:#2c2f38;fill-rule:nonzero;"/><path d="M457.993,108.381c0,4.88 -3.87,8.837 -8.643,8.837c-4.771,0 -8.642,-3.957 -8.642,-8.837c0,-4.88 3.871,-8.835 8.642,-8.835c4.773,-0.001 8.643,3.954 8.643,8.835Z" style="fill:#2c2f38;fill-rule:nonzero;"/></g></g></svg>