<?xml version="1.0" encoding="UTF-8" standalone="no"?><!DOCTYPE svg PUBLIC "-//W3C//DTD SVG 1.1//EN" "http://www.w3.org/Graphics/SVG/1.1/DTD/svg11.dtd"><svg width="100%" height="100%" viewBox="0 0 833 348" version="1.1" xmlns="http://www.w3.org/2000/svg" xmlns:xlink="http://www.w3.org/1999/xlink" xml:space="preserve" xmlns:serif="http://www.serif.com/" style="fill-rule:evenodd;clip-rule:evenodd;stroke-linejoin:round;"><g id="Layer-1" serif:id="Layer 1"><g><path d="M93.811,278.523l-19.183,-75.31" style="fill:none;fill-rule:nonzero;stroke:#000;stroke-width:0.15px;stroke-dasharray:2,2;"/><path d="M93.81,278.523l-6.453,-77.445" style="fill:none;fill-rule:nonzero;stroke:#000;stroke-width:0.15px;stroke-dasharray:2,2;"/><path d="M341.564,87.727l52.874,56.951" style="fill:none;fill-rule:nonzero;stroke:#000;stroke-width:0.15px;stroke-dasharray:2,2;"/><path d="M93.811,278.523l6.455,-77.445" style="fill:none;fill-rule:nonzero;stroke:#000;stroke-width:0.15px;stroke-dasharray:2,2;"/><path d="M341.564,87.727l42.717,64.92" style="fill:none;fill-rule:nonzero;stroke:#000;stroke-width:0.15px;stroke-dasharray:2,2;"/><path d="M93.81,278.523l6.453,-77.445" style="fill:none;fill-rule:nonzero;stroke:#000;stroke-width:0.15px;stroke-dasharray:2,2;"/><path d="M554.324,316.898l-42.719,-64.918" style="fill:none;fill-rule:nonzero;stroke:#000;stroke-width:0.15px;stroke-dasharray:2,2;"/><path d="M93.811,278.523l19.183,-75.31" style="fill:none;fill-rule:nonzero;stroke:#000;stroke-width:0.15px;stroke-dasharray:2,2;"/><path d="M554.324,316.898l-52.875,-56.953" style="fill:none;fill-rule:nonzero;stroke:#000;stroke-width:0.15px;stroke-dasharray:2,2;"/><path d="M93.811,278.523l31.383,-71.093" style="fill:none;fill-rule:nonzero;stroke:#000;stroke-width:0.15px;stroke-dasharray:2,2;"/><path d="M554.324,316.898l-42.719,-64.918" style="fill:none;fill-rule:nonzero;stroke:#000;stroke-width:0.15px;stroke-dasharray:2,2;"/><path d="M93.811,278.523l19.183,-75.31" style="fill:none;fill-rule:nonzero;stroke:#000;stroke-width:0.15px;stroke-dasharray:2,2;"/><path d="M554.324,316.898l-31.386,-71.092" style="fill:none;fill-rule:nonzero;stroke:#000;stroke-width:0.15px;stroke-dasharray:2,2;"/><path d="M93.811,278.523l42.717,-64.92" style="fill:none;fill-rule:nonzero;stroke:#000;stroke-width:0.15px;stroke-dasharray:2,2;"/><path d="M554.324,316.898l-19.187,-75.309" style="fill:none;fill-rule:nonzero;stroke:#000;stroke-width:0.15px;stroke-dasharray:2,2;"/><path d="M554.324,316.898l-31.386,-71.092" style="fill:none;fill-rule:nonzero;stroke:#000;stroke-width:0.15px;stroke-dasharray:2,2;"/><path d="M554.324,316.898l-6.438,-77.446" style="fill:none;fill-rule:nonzero;stroke:#000;stroke-width:0.15px;stroke-dasharray:2,2;"/><path d="M93.811,278.523l52.873,-56.954" style="fill:none;fill-rule:nonzero;stroke:#000;stroke-width:0.15px;stroke-dasharray:2,2;"/><path d="M554.324,316.898l-19.165,-75.312" style="fill:none;fill-rule:nonzero;stroke:#000;stroke-width:0.15px;stroke-dasharray:2,2;"/><path d="M93.811,278.523l42.717,-64.92" style="fill:none;fill-rule:nonzero;stroke:#000;stroke-width:0.15px;stroke-dasharray:2,2;"/><path d="M554.324,316.898l-6.438,-77.446" style="fill:none;fill-rule:nonzero;stroke:#000;stroke-width:0.15px;stroke-dasharray:2,2;"/><path d="M93.811,278.523l52.873,-56.954" style="fill:none;fill-rule:nonzero;stroke:#000;stroke-width:0.15px;stroke-dasharray:2,2;"/><path d="M554.324,316.898l6.469,-77.446" style="fill:none;fill-rule:nonzero;stroke:#000;stroke-width:0.15px;stroke-dasharray:2,2;"/><path d="M93.811,278.523l61.569,-47.417" style="fill:none;fill-rule:nonzero;stroke:#000;stroke-width:0.15px;stroke-dasharray:2,2;"/><path d="M580.365,5.277l6.435,77.444" style="fill:none;fill-rule:nonzero;stroke:#000;stroke-width:0.15px;stroke-dasharray:2,2;"/><path d="M341.564,87.727l-61.571,47.416" style="fill:none;fill-rule:nonzero;stroke:#000;stroke-width:0.15px;stroke-dasharray:2,2;"/><path d="M580.365,5.277l-6.474,77.444" style="fill:none;fill-rule:nonzero;stroke:#000;stroke-width:0.15px;stroke-dasharray:2,2;"/><path d="M341.565,87.727l-52.874,56.951" style="fill:none;fill-rule:nonzero;stroke:#000;stroke-width:0.15px;stroke-dasharray:2,2;"/><path d="M580.365,5.277l6.435,77.444" style="fill:none;fill-rule:nonzero;stroke:#000;stroke-width:0.15px;stroke-dasharray:2,2;"/><path d="M341.564,87.727l-42.717,64.92" style="fill:none;fill-rule:nonzero;stroke:#000;stroke-width:0.15px;stroke-dasharray:2,2;"/><path d="M93.811,278.523l31.383,-71.093" style="fill:none;fill-rule:nonzero;stroke:#000;stroke-width:0.15px;stroke-dasharray:2,2;"/><path d="M341.565,87.727l-52.874,56.951" style="fill:none;fill-rule:nonzero;stroke:#000;stroke-width:0.15px;stroke-dasharray:2,2;"/><path d="M580.365,5.277l19.164,75.312" style="fill:none;fill-rule:nonzero;stroke:#000;stroke-width:0.15px;stroke-dasharray:2,2;"/><path d="M341.565,87.727l-31.383,71.093" style="fill:none;fill-rule:nonzero;stroke:#000;stroke-width:0.15px;stroke-dasharray:2,2;"/><path d="M580.365,5.277l19.165,75.312" style="fill:none;fill-rule:nonzero;stroke:#000;stroke-width:0.15px;stroke-dasharray:2,2;"/><path d="M341.564,87.727l-42.717,64.92" style="fill:none;fill-rule:nonzero;stroke:#000;stroke-width:0.15px;stroke-dasharray:2,2;"/><path d="M580.365,5.277l31.366,71.099" style="fill:none;fill-rule:nonzero;stroke:#000;stroke-width:0.15px;stroke-dasharray:2,2;"/><path d="M341.565,87.727l-31.383,71.093" style="fill:none;fill-rule:nonzero;stroke:#000;stroke-width:0.15px;stroke-dasharray:2,2;"/><path d="M580.365,5.277l31.366,71.099" style="fill:none;fill-rule:nonzero;stroke:#000;stroke-width:0.15px;stroke-dasharray:2,2;"/><path d="M341.564,87.727l-19.183,75.307" style="fill:none;fill-rule:nonzero;stroke:#000;stroke-width:0.15px;stroke-dasharray:2,2;"/><path d="M580.365,5.277l42.701,64.926" style="fill:none;fill-rule:nonzero;stroke:#000;stroke-width:0.15px;stroke-dasharray:2,2;"/><path d="M341.564,87.727l-19.183,75.307" style="fill:none;fill-rule:nonzero;stroke:#000;stroke-width:0.15px;stroke-dasharray:2,2;"/><path d="M580.365,5.277l42.701,64.926" style="fill:none;fill-rule:nonzero;stroke:#000;stroke-width:0.15px;stroke-dasharray:2,2;"/><path d="M341.564,87.727l-6.455,77.441" style="fill:none;fill-rule:nonzero;stroke:#000;stroke-width:0.15px;stroke-dasharray:2,2;"/><path d="M580.365,5.277l52.86,56.963" style="fill:none;fill-rule:nonzero;stroke:#000;stroke-width:0.15px;stroke-dasharray:2,2;"/><path d="M341.564,87.727l-6.455,77.441" style="fill:none;fill-rule:nonzero;stroke:#000;stroke-width:0.15px;stroke-dasharray:2,2;"/><path d="M580.365,5.277l61.559,47.428" style="fill:none;fill-rule:nonzero;stroke:#000;stroke-width:0.15px;stroke-dasharray:2,2;"/><path d="M341.565,87.727l6.454,77.441" style="fill:none;fill-rule:nonzero;stroke:#000;stroke-width:0.15px;stroke-dasharray:2,2;"/><path d="M580.365,5.277l52.86,56.963" style="fill:none;fill-rule:nonzero;stroke:#000;stroke-width:0.15px;stroke-dasharray:2,2;"/><path d="M341.565,87.727l6.454,77.441" style="fill:none;fill-rule:nonzero;stroke:#000;stroke-width:0.15px;stroke-dasharray:2,2;"/><path d="M580.365,5.277l61.559,47.428" style="fill:none;fill-rule:nonzero;stroke:#000;stroke-width:0.15px;stroke-dasharray:2,2;"/><path d="M341.564,87.727l19.183,75.307" style="fill:none;fill-rule:nonzero;stroke:#000;stroke-width:0.15px;stroke-dasharray:2,2;"/><path d="M580.365,5.277l68.559,36.585" style="fill:none;fill-rule:nonzero;stroke:#000;stroke-width:0.15px;stroke-dasharray:2,2;"/><path d="M341.564,87.727l19.183,75.307" style="fill:none;fill-rule:nonzero;stroke:#000;stroke-width:0.15px;stroke-dasharray:2,2;"/><path d="M580.365,5.277l68.559,36.585" style="fill:none;fill-rule:nonzero;stroke:#000;stroke-width:0.15px;stroke-dasharray:2,2;"/><path d="M341.564,87.727l31.382,71.093" style="fill:none;fill-rule:nonzero;stroke:#000;stroke-width:0.15px;stroke-dasharray:2,2;"/><path d="M580.365,5.277l73.669,24.733" style="fill:none;fill-rule:nonzero;stroke:#000;stroke-width:0.15px;stroke-dasharray:2,2;"/><path d="M341.564,87.727l31.382,71.093" style="fill:none;fill-rule:nonzero;stroke:#000;stroke-width:0.15px;stroke-dasharray:2,2;"/><path d="M93.81,278.523l-6.453,-77.445" style="fill:none;fill-rule:nonzero;stroke:#000;stroke-width:0.15px;stroke-dasharray:2,2;"/><path d="M341.564,87.727l42.717,64.92" style="fill:none;fill-rule:nonzero;stroke:#000;stroke-width:0.15px;stroke-dasharray:2,2;"/><path d="M599.53,80.589l12.201,-4.212l11.335,-6.174l10.159,-7.963l8.699,-9.534l7,-10.843l5.11,-11.852l149.106,50.056l-15.453,35.842l-21.171,32.789l-26.308,28.834l-30.714,24.081l-34.279,18.664l-36.894,12.736" style="fill:none;fill-rule:nonzero;stroke:#000;stroke-width:1px;stroke-linejoin:miter;stroke-miterlimit:10;"/><path d="M599.528,80.589l-12.729,2.133l-12.909,0l-39.027,-0.012l-38.496,6.453l-0.054,0.014l-36.89,12.74l-34.276,18.674l-30.709,24.086l-10.157,7.97l-11.335,6.172l-12.199,4.214l-12.728,2.135l-12.91,0l-12.727,-2.135l-12.201,-4.214l-11.334,-6.172l-10.156,-7.97l-8.698,-9.534l-26.299,-28.84l-30.712,-24.087l-34.273,-18.674c0,0 -36.894,-12.742 -36.891,-12.742c0,0 -38.493,-6.461 -38.49,-6.461l-39.031,0l-38.493,6.461l38.823,152.414l12.73,-2.136l12.906,0l12.73,2.136l12.2,4.216l11.335,6.173l10.155,7.966l8.697,9.538l26.3,28.837l30.712,24.089l34.273,18.675l36.894,12.741l38.491,6.458l39.032,0l38.49,-6.458l36.893,-12.741l34.273,-18.675l30.711,-24.089l10.156,-7.964l11.333,-6.174l12.199,-4.217l0.022,-0.003l12.727,-2.133l12.907,0l39.03,0.011l38.495,-6.451" style="fill:none;fill-rule:nonzero;stroke:#000;stroke-width:1px;stroke-linejoin:miter;stroke-miterlimit:10;"/><path d="M288.691,144.677l-107.01,115.267" style="fill:none;fill-rule:nonzero;stroke:#000;stroke-width:0.25px;stroke-linecap:round;"/><path d="M372.946,158.819l63.519,143.888" style="fill:none;fill-rule:nonzero;stroke:#000;stroke-width:0.25px;stroke-linecap:round;"/><path d="M372.946,158.819l63.519,143.888" style="fill:none;fill-rule:nonzero;stroke:#000;stroke-width:0.25px;stroke-linecap:round;"/><path d="M648.924,41.863l138.763,74.046" style="fill:none;fill-rule:nonzero;stroke:#000;stroke-width:0.25px;stroke-linecap:round;"/><path d="M360.747,163.033l38.826,152.416" style="fill:none;fill-rule:nonzero;stroke:#000;stroke-width:0.25px;stroke-linecap:round;"/><path d="M648.924,41.863l138.763,74.046" style="fill:none;fill-rule:nonzero;stroke:#000;stroke-width:0.25px;stroke-linecap:round;"/><path d="M360.747,163.033l38.826,152.416" style="fill:none;fill-rule:nonzero;stroke:#000;stroke-width:0.25px;stroke-linecap:round;"/><path d="M641.923,52.706l124.592,95.993" style="fill:none;fill-rule:nonzero;stroke:#000;stroke-width:0.25px;stroke-linecap:round;"/><path d="M348.02,165.168l13.063,156.739" style="fill:none;fill-rule:nonzero;stroke:#000;stroke-width:0.25px;stroke-linecap:round;"/><path d="M633.225,62.24l106.983,115.292" style="fill:none;fill-rule:nonzero;stroke:#000;stroke-width:0.25px;stroke-linecap:round;"/><path d="M348.02,165.168l13.063,156.739" style="fill:none;fill-rule:nonzero;stroke:#000;stroke-width:0.25px;stroke-linecap:round;"/><path d="M641.923,52.706l124.592,95.993" style="fill:none;fill-rule:nonzero;stroke:#000;stroke-width:0.25px;stroke-linecap:round;"/><path d="M335.109,165.168l-13.059,156.739" style="fill:none;fill-rule:nonzero;stroke:#000;stroke-width:0.25px;stroke-linecap:round;"/><path d="M633.225,62.24l106.983,115.292" style="fill:none;fill-rule:nonzero;stroke:#000;stroke-width:0.25px;stroke-linecap:round;"/><path d="M335.109,165.168l-13.059,156.739" style="fill:none;fill-rule:nonzero;stroke:#000;stroke-width:0.25px;stroke-linecap:round;"/><path d="M623.065,70.203l86.429,131.41" style="fill:none;fill-rule:nonzero;stroke:#000;stroke-width:0.25px;stroke-linecap:round;"/><path d="M322.382,163.033l-38.822,152.416" style="fill:none;fill-rule:nonzero;stroke:#000;stroke-width:0.25px;stroke-linecap:round;"/><path d="M623.065,70.203l86.429,131.41" style="fill:none;fill-rule:nonzero;stroke:#000;stroke-width:0.25px;stroke-linecap:round;"/><path d="M322.382,163.033l-38.822,152.416" style="fill:none;fill-rule:nonzero;stroke:#000;stroke-width:0.25px;stroke-linecap:round;"/><path d="M611.731,76.376l63.484,143.901" style="fill:none;fill-rule:nonzero;stroke:#000;stroke-width:0.25px;stroke-linecap:round;"/><path d="M310.182,158.819l-63.517,143.888" style="fill:none;fill-rule:nonzero;stroke:#000;stroke-width:0.25px;stroke-linecap:round;"/><path d="M611.731,76.376l63.484,143.901" style="fill:none;fill-rule:nonzero;stroke:#000;stroke-width:0.25px;stroke-linecap:round;"/><path d="M298.848,152.647l-86.456,131.386" style="fill:none;fill-rule:nonzero;stroke:#000;stroke-width:0.25px;stroke-linecap:round;"/><path d="M599.53,80.589l38.791,152.424" style="fill:none;fill-rule:nonzero;stroke:#000;stroke-width:0.25px;stroke-linecap:round;"/><path d="M310.182,158.819l-63.517,143.888" style="fill:none;fill-rule:nonzero;stroke:#000;stroke-width:0.25px;stroke-linecap:round;"/><path d="M599.528,80.589l38.79,152.424" style="fill:none;fill-rule:nonzero;stroke:#000;stroke-width:0.25px;stroke-linecap:round;"/><path d="M298.848,152.647l-86.456,131.386" style="fill:none;fill-rule:nonzero;stroke:#000;stroke-width:0.25px;stroke-linecap:round;"/><path d="M586.8,82.722l13.024,156.742" style="fill:none;fill-rule:nonzero;stroke:#000;stroke-width:0.25px;stroke-linecap:round;"/><path d="M288.691,144.677l-107.01,115.267" style="fill:none;fill-rule:nonzero;stroke:#000;stroke-width:0.25px;stroke-linecap:round;"/><path d="M573.891,82.722l-13.098,156.731" style="fill:none;fill-rule:nonzero;stroke:#000;stroke-width:0.25px;stroke-linecap:round;"/><path d="M279.993,135.143l-124.613,95.964" style="fill:none;fill-rule:nonzero;stroke:#000;stroke-width:0.25px;stroke-linecap:round;"/><path d="M586.8,82.722l13.024,156.742" style="fill:none;fill-rule:nonzero;stroke:#000;stroke-width:0.25px;stroke-linecap:round;"/><path d="M155.38,231.106l124.613,-95.964" style="fill:none;fill-rule:nonzero;stroke:#000;stroke-width:0.25px;stroke-linecap:round;"/><path d="M560.793,239.453l13.098,-156.731" style="fill:none;fill-rule:nonzero;stroke:#000;stroke-width:0.25px;stroke-linecap:round;"/><path d="M146.684,221.569l107.011,-115.267" style="fill:none;fill-rule:nonzero;stroke:#000;stroke-width:0.25px;stroke-linecap:round;"/><path d="M547.886,239.453l-13.023,-156.743" style="fill:none;fill-rule:nonzero;stroke:#000;stroke-width:0.25px;stroke-linecap:round;"/><path d="M136.528,213.603l86.455,-131.387" style="fill:none;fill-rule:nonzero;stroke:#000;stroke-width:0.25px;stroke-linecap:round;"/><path d="M535.159,241.586l-38.792,-152.423" style="fill:none;fill-rule:nonzero;stroke:#000;stroke-width:0.25px;stroke-linecap:round;"/><path d="M146.684,221.569l107.011,-115.267" style="fill:none;fill-rule:nonzero;stroke:#000;stroke-width:0.25px;stroke-linecap:round;"/><path d="M547.886,239.453l-13.023,-156.743" style="fill:none;fill-rule:nonzero;stroke:#000;stroke-width:0.25px;stroke-linecap:round;"/><path d="M394.439,144.677l107.011,115.267" style="fill:none;fill-rule:nonzero;stroke:#000;stroke-width:0.25px;stroke-linecap:round;"/><path d="M522.939,245.806l-63.516,-143.889" style="fill:none;fill-rule:nonzero;stroke:#000;stroke-width:0.25px;stroke-linecap:round;"/><path d="M125.193,207.43l63.516,-143.888" style="fill:none;fill-rule:nonzero;stroke:#000;stroke-width:0.25px;stroke-linecap:round;"/><path d="M535.137,241.589l-38.824,-152.412" style="fill:none;fill-rule:nonzero;stroke:#000;stroke-width:0.25px;stroke-linecap:round;"/><path d="M136.528,213.603l86.455,-131.387" style="fill:none;fill-rule:nonzero;stroke:#000;stroke-width:0.25px;stroke-linecap:round;"/><path d="M522.939,245.806l-63.516,-143.889" style="fill:none;fill-rule:nonzero;stroke:#000;stroke-width:0.25px;stroke-linecap:round;"/><path d="M112.994,203.214l38.822,-152.414" style="fill:none;fill-rule:nonzero;stroke:#000;stroke-width:0.25px;stroke-linecap:round;"/><path d="M511.606,251.979l-86.458,-131.389" style="fill:none;fill-rule:nonzero;stroke:#000;stroke-width:0.25px;stroke-linecap:round;"/><path d="M125.193,207.43l63.516,-143.888" style="fill:none;fill-rule:nonzero;stroke:#000;stroke-width:0.25px;stroke-linecap:round;"/><path d="M501.449,259.944l-107.011,-115.267" style="fill:none;fill-rule:nonzero;stroke:#000;stroke-width:0.25px;stroke-linecap:round;"/><path d="M112.994,203.214l38.825,-152.414" style="fill:none;fill-rule:nonzero;stroke:#000;stroke-width:0.25px;stroke-linecap:round;"/><path d="M511.606,251.979l-86.458,-131.389" style="fill:none;fill-rule:nonzero;stroke:#000;stroke-width:0.25px;stroke-linecap:round;"/><path d="M100.264,201.078l13.062,-156.74" style="fill:none;fill-rule:nonzero;stroke:#000;stroke-width:0.25px;stroke-linecap:round;"/><path d="M384.282,152.647l86.457,131.386" style="fill:none;fill-rule:nonzero;stroke:#000;stroke-width:0.25px;stroke-linecap:round;"/><path d="M100.266,201.078l13.063,-156.74" style="fill:none;fill-rule:nonzero;stroke:#000;stroke-width:0.25px;stroke-linecap:round;"/><path d="M87.357,201.078l-13.06,-156.74" style="fill:none;fill-rule:nonzero;stroke:#000;stroke-width:0.25px;stroke-linecap:round;"/><path d="M87.357,201.078l-13.06,-156.74" style="fill:none;fill-rule:nonzero;stroke:#000;stroke-width:0.25px;stroke-linecap:round;"/><path d="M384.282,152.647l86.457,131.386" style="fill:none;fill-rule:nonzero;stroke:#000;stroke-width:0.25px;stroke-linecap:round;"/><g><g transform="matrix(0.472904,-0.881114,0.881114,0.472904,303.055,770.347)"><text x="795.399px" y="131.874px" style="font-family:'ArialMT', 'Arial', sans-serif;font-size:13.061px;">-</text></g><g transform="matrix(0.472904,-0.881114,0.881114,0.472904,306.443,770.189)"><text x="796.961px" y="128.964px" style="font-family:'ArialMT', 'Arial', sans-serif;font-size:13.061px;">15</text></g></g><g><g transform="matrix(0.612265,-0.790652,0.790652,0.612265,168.119,674.191)"><text x="771.45px" y="165.685px" style="font-family:'ArialMT', 'Arial', sans-serif;font-size:13.061px;">-</text></g><g transform="matrix(0.612265,-0.790652,0.790652,0.612265,170.968,674.777)"><text x="773.473px" y="163.073px" style="font-family:'ArialMT', 'Arial', sans-serif;font-size:13.061px;">30</text></g></g><g><g transform="matrix(0.734694,-0.678399,0.678399,0.734694,64.5525,555.332)"><text x="742.28px" y="195.135px" style="font-family:'ArialMT', 'Arial', sans-serif;font-size:13.062px;">-</text></g><g transform="matrix(0.734694,-0.678399,0.678399,0.734694,66.7171,556.385)"><text x="744.708px" y="192.893px" style="font-family:'ArialMT', 'Arial', sans-serif;font-size:13.062px;">30</text></g></g><g><g transform="matrix(0.836804,-0.547503,0.547503,0.836804,-1.05434,426.619)"><text x="715.1px" y="215.078px" style="font-family:'ArialMT', 'Arial', sans-serif;font-size:13.061px;">-</text></g><g transform="matrix(0.836804,-0.547503,0.547503,0.836804,0.387659,427.838)"><text x="717.865px" y="213.269px" style="font-family:'ArialMT', 'Arial', sans-serif;font-size:13.061px;">15</text></g></g><g><g transform="matrix(0.915903,-0.4014,0.4014,0.915903,-38.904,289.491)"><text x="671.426px" y="237.591px" style="font-family:'ArialMT', 'Arial', sans-serif;font-size:13.062px;">-</text></g><g transform="matrix(0.915903,-0.4014,0.4014,0.915903,-38.1172,290.594)"><text x="674.452px" y="236.265px" style="font-family:'ArialMT', 'Arial', sans-serif;font-size:13.062px;">15</text></g></g><g><g transform="matrix(0.9697,-0.244297,0.244297,0.9697,-41.8014,161.884)"><text x="631.712px" y="249.459px" style="font-family:'ArialMT', 'Arial', sans-serif;font-size:13.062px;">-</text></g><g transform="matrix(0.9697,-0.244297,0.244297,0.9697,-41.5074,162.642)"><text x="634.916px" y="248.652px" style="font-family:'ArialMT', 'Arial', sans-serif;font-size:13.062px;">15</text></g></g><g><g transform="matrix(0.996762,-0.0804037,0.0804037,0.996762,-18.5551,48.3099)"><text x="590.592px" y="254.556px" style="font-family:'ArialMT', 'Arial', sans-serif;font-size:13.062px;">-</text></g><g transform="matrix(0.996762,-0.0804037,0.0804037,0.996762,-18.5232,48.5739)"><text x="593.885px" y="254.291px" style="font-family:'ArialMT', 'Arial', sans-serif;font-size:13.062px;">15</text></g></g><g transform="matrix(0.99655,-0.0829992,0.0829992,0.99655,-3.0957,6.00471)"><text x="70.674px" y="40.236px" style="font-family:'ArialMT', 'Arial', sans-serif;font-size:13.062px;">0</text></g><g transform="matrix(0.99655,0.0829992,-0.0829992,0.99655,3.6727,-9.03292)"><text x="110.48px" y="39.657px" style="font-family:'ArialMT', 'Arial', sans-serif;font-size:13.062px;">0</text></g><g transform="matrix(0.969069,0.246792,-0.246792,0.969069,15.9153,-35.5489)"><text x="149.774px" y="45.717px" style="font-family:'ArialMT', 'Arial', sans-serif;font-size:13.062px;">0</text></g><g transform="matrix(0.91484,0.403816,-0.403816,0.91484,39.4752,-70.7644)"><text x="187.515px" y="58.211px" style="font-family:'ArialMT', 'Arial', sans-serif;font-size:13.062px;">0</text></g><g transform="matrix(0.835374,-0.549681,0.549681,0.835374,3.91156,250.394)"><text x="419.986px" y="118.667px" style="font-family:'ArialMT', 'Arial', sans-serif;font-size:13.062px;">0</text></g><g transform="matrix(0.91484,-0.403816,0.403816,0.91484,-1.33421,192.057)"><text x="454.687px" y="99.192px" style="font-family:'ArialMT', 'Arial', sans-serif;font-size:13.062px;">0</text></g><g transform="matrix(0.986209,-0.165503,0.165503,0.986209,-21.1328,12.7948)"><text x="66.209px" y="133.205px" style="font-family:'ArialMT', 'Arial', sans-serif;font-size:13.061px;">0</text></g><text x="90.639px" y="130.644px" style="font-family:'ArialMT', 'Arial', sans-serif;font-size:13.062px;">0</text><g transform="matrix(0.986209,0.165503,-0.165503,0.986209,23.4605,-17.2368)"><text x="115.16px" y="132.157px" style="font-family:'ArialMT', 'Arial', sans-serif;font-size:13.061px;">0</text></g><g transform="matrix(0.945198,0.326499,-0.326499,0.945198,52.5846,-37.8673)"><text x="139.094px" y="137.709px" style="font-family:'ArialMT', 'Arial', sans-serif;font-size:13.062px;">0</text></g><g transform="matrix(0.878132,0.478418,-0.478418,0.878132,90.1138,-59.4513)"><text x="161.751px" y="147.155px" style="font-family:'ArialMT', 'Arial', sans-serif;font-size:13.062px;">0</text></g><g transform="matrix(0.786806,0.617201,-0.617201,0.786806,137.804,-78.5334)"><text x="182.58px" y="160.206px" style="font-family:'ArialMT', 'Arial', sans-serif;font-size:13.062px;">0</text></g><g><g transform="matrix(0.673807,0.738907,-0.738907,0.673807,195.984,-90.8919)"><text x="200.938px" y="176.53px" style="font-family:'ArialMT', 'Arial', sans-serif;font-size:13.061px;">0</text></g><g transform="matrix(0.673807,0.738907,-0.738907,0.673807,216.623,-97.4259)"><text x="218.659px" y="196.64px" style="font-family:'ArialMT', 'Arial', sans-serif;font-size:13.061px;">1</text></g></g><g transform="matrix(0.786806,0.617201,-0.617201,0.786806,183.82,-101.192)"><text x="238.386px" y="215.485px" style="font-family:'ArialMT', 'Arial', sans-serif;font-size:13.062px;">1</text></g><g transform="matrix(0.878132,0.478418,-0.478418,0.878132,142.224,-96.706)"><text x="260.932px" y="230.812px" style="font-family:'ArialMT', 'Arial', sans-serif;font-size:13.062px;">1</text></g><g transform="matrix(0.945198,0.326499,-0.326499,0.945198,94.7289,-80.0261)"><text x="285.752px" y="242.172px" style="font-family:'ArialMT', 'Arial', sans-serif;font-size:13.062px;">1</text></g><g transform="matrix(0.986209,0.165503,-0.165503,0.986209,45.5601,-48.2126)"><text x="312.081px" y="249.278px" style="font-family:'ArialMT', 'Arial', sans-serif;font-size:13.061px;">1</text></g><text x="339.229px" y="251.933px" style="font-family:'ArialMT', 'Arial', sans-serif;font-size:13.062px;">1</text><g transform="matrix(0.986209,-0.165503,0.165503,0.986209,-36.3309,64.0953)"><text x="366.44px" y="250.052px" style="font-family:'ArialMT', 'Arial', sans-serif;font-size:13.061px;">1</text></g><g transform="matrix(0.945198,-0.326499,0.326499,0.945198,-58.0316,141.659)"><text x="392.967px" y="243.698px" style="font-family:'ArialMT', 'Arial', sans-serif;font-size:13.062px;">1</text></g><g transform="matrix(0.878132,-0.478418,0.478418,0.878132,-60.527,228.415)"><text x="418.082px" y="233.013px" style="font-family:'ArialMT', 'Arial', sans-serif;font-size:13.062px;">1</text></g><g transform="matrix(0.786806,-0.617201,0.617201,0.786806,-40.7446,318.783)"><text x="441.068px" y="218.369px" style="font-family:'ArialMT', 'Arial', sans-serif;font-size:13.062px;">1</text></g><g transform="matrix(0.986209,-0.165503,0.165503,0.986209,-21.1333,89.5396)"><text x="526.718px" y="171.581px" style="font-family:'ArialMT', 'Arial', sans-serif;font-size:13.061px;">0</text></g><g transform="matrix(0.945126,-0.326707,0.326707,0.945126,-30.6065,174.115)"><text x="503.013px" y="178.169px" style="font-family:'ArialMT', 'Arial', sans-serif;font-size:13.061px;">0</text></g><g transform="matrix(0.878025,-0.478614,0.478614,0.878025,-31.6136,253.099)"><text x="480.759px" y="188.574px" style="font-family:'ArialMT', 'Arial', sans-serif;font-size:13.061px;">0</text></g><g transform="matrix(0.786667,-0.617378,0.617378,0.786667,-26.7776,327.547)"><text x="460.565px" y="202.52px" style="font-family:'ArialMT', 'Arial', sans-serif;font-size:13.062px;">0</text></g><g><text x="551.15px" y="169.016px" style="font-family:'ArialMT', 'Arial', sans-serif;font-size:13.062px;">0</text><text x="578.03px" y="169.486px" style="font-family:'ArialMT', 'Arial', sans-serif;font-size:13.062px;">1</text></g><g transform="matrix(0.986209,-0.165503,0.165503,0.986209,-19.3922,102.481)"><text x="605.241px" y="167.604px" style="font-family:'ArialMT', 'Arial', sans-serif;font-size:13.061px;">1</text></g><g transform="matrix(0.945198,-0.326499,0.326499,0.945198,-18.0252,215.107)"><text x="631.764px" y="161.248px" style="font-family:'ArialMT', 'Arial', sans-serif;font-size:13.062px;">1</text></g><g transform="matrix(0.878132,-0.478418,0.478418,0.878132,8.01978,332.614)"><text x="656.883px" y="150.565px" style="font-family:'ArialMT', 'Arial', sans-serif;font-size:13.062px;">1</text></g><g transform="matrix(0.786806,-0.617201,0.617201,0.786806,61.0529,448.595)"><text x="679.871px" y="135.923px" style="font-family:'ArialMT', 'Arial', sans-serif;font-size:13.062px;">1</text></g><g transform="matrix(0.673807,-0.738907,0.738907,0.673807,141.445,555.702)"><text x="700.124px" y="117.647px" style="font-family:'ArialMT', 'Arial', sans-serif;font-size:13.061px;">1</text></g><g transform="matrix(0.542221,-0.840236,0.840236,0.542221,247.37,646.54)"><text x="717.035px" y="96.251px" style="font-family:'ArialMT', 'Arial', sans-serif;font-size:13.061px;">1</text></g><g transform="matrix(0.395694,-0.918383,0.918383,0.395694,374.801,714.39)"><text x="730.241px" y="72.397px" style="font-family:'ArialMT', 'Arial', sans-serif;font-size:13.062px;">1</text></g><g><g transform="matrix(0.731037,0.682337,-0.682337,0.731037,222.947,-40.8291)"><text x="163.263px" y="262.385px" style="font-family:'ArialMT', 'Arial', sans-serif;font-size:13.062px;">+</text></g><g transform="matrix(0.731037,0.682337,-0.682337,0.731037,227.111,-42.8114)"><text x="167.86px" y="266.676px" style="font-family:'ArialMT', 'Arial', sans-serif;font-size:13.062px;">30</text></g></g><g><g transform="matrix(0.833908,0.551904,-0.551904,0.833908,192.082,-59.3372)"><text x="194.626px" y="289.463px" style="font-family:'ArialMT', 'Arial', sans-serif;font-size:13.062px;">+</text></g><g transform="matrix(0.833908,0.551904,-0.551904,0.833908,194.868,-61.655)"><text x="199.87px" y="292.933px" style="font-family:'ArialMT', 'Arial', sans-serif;font-size:13.062px;">15</text></g></g><g><g transform="matrix(0.913734,0.406314,-0.406314,0.913734,146.191,-66.6397)"><text x="230.032px" y="310.959px" style="font-family:'ArialMT', 'Arial', sans-serif;font-size:13.062px;">+</text></g><g transform="matrix(0.913734,0.406314,-0.406314,0.913734,147.725,-68.7541)"><text x="235.778px" y="313.514px" style="font-family:'ArialMT', 'Arial', sans-serif;font-size:13.062px;">15</text></g></g><g><g transform="matrix(0.9684,0.249404,-0.249404,0.9684,89.8863,-56.6599)"><text x="268.535px" y="326.38px" style="font-family:'ArialMT', 'Arial', sans-serif;font-size:13.062px;">+</text></g><g transform="matrix(0.9684,0.249404,-0.249404,0.9684,90.47,-58.129)"><text x="274.624px" y="327.949px" style="font-family:'ArialMT', 'Arial', sans-serif;font-size:13.062px;">15</text></g></g><g><g transform="matrix(0.996321,0.0857039,-0.0857039,0.996321,29.863,-25.253)"><text x="309.043px" y="335.176px" style="font-family:'ArialMT', 'Arial', sans-serif;font-size:13.061px;">+</text></g><g transform="matrix(0.996321,0.0857039,-0.0857039,0.996321,29.9322,-25.7879)"><text x="315.308px" y="335.715px" style="font-family:'ArialMT', 'Arial', sans-serif;font-size:13.061px;">15</text></g></g><g><g transform="matrix(0.996762,-0.0804037,0.0804037,0.996762,-25.9711,29.2691)"><text x="350.452px" y="337.12px" style="font-family:'ArialMT', 'Arial', sans-serif;font-size:13.062px;">+</text></g><g transform="matrix(0.996762,-0.0804037,0.0804037,0.996762,-25.9101,29.7714)"><text x="356.72px" y="336.614px" style="font-family:'ArialMT', 'Arial', sans-serif;font-size:13.062px;">15</text></g></g><g><g transform="matrix(0.9697,-0.244297,0.244297,0.9697,-69.2987,105.736)"><text x="391.611px" y="332.236px" style="font-family:'ArialMT', 'Arial', sans-serif;font-size:13.062px;">+</text></g><g transform="matrix(0.9697,-0.244297,0.244297,0.9697,-68.7387,107.179)"><text x="397.709px" y="330.7px" style="font-family:'ArialMT', 'Arial', sans-serif;font-size:13.062px;">15</text></g></g><g><g transform="matrix(0.915903,-0.4014,0.4014,0.915903,-92.4028,200.122)"><text x="431.394px" y="320.582px" style="font-family:'ArialMT', 'Arial', sans-serif;font-size:13.062px;">+</text></g><g transform="matrix(0.915903,-0.4014,0.4014,0.915903,-90.9049,202.221)"><text x="437.154px" y="318.058px" style="font-family:'ArialMT', 'Arial', sans-serif;font-size:13.062px;">15</text></g></g><g><g transform="matrix(0.836851,-0.54743,0.54743,0.836851,-89.137,305.92)"><text x="468.675px" y="302.506px" style="font-family:'ArialMT', 'Arial', sans-serif;font-size:13.062px;">+</text></g><g transform="matrix(0.836851,-0.54743,0.54743,0.836851,-86.3938,308.239)"><text x="473.937px" y="299.063px" style="font-family:'ArialMT', 'Arial', sans-serif;font-size:13.062px;">15</text></g></g><g><g transform="matrix(0.734694,-0.678399,0.678399,0.734694,-55.6182,414.774)"><text x="502.488px" y="278.496px" style="font-family:'ArialMT', 'Arial', sans-serif;font-size:13.062px;">+</text></g><g transform="matrix(0.734694,-0.678399,0.678399,0.734694,-51.4988,416.776)"><text x="507.107px" y="274.23px" style="font-family:'ArialMT', 'Arial', sans-serif;font-size:13.062px;">15</text></g></g><g><g transform="matrix(0.969116,-0.246605,0.246605,0.969116,-6.36398,122.907)"><text x="487.517px" y="86.861px" style="font-family:'ArialMT', 'Arial', sans-serif;font-size:13.061px;">-</text></g><g transform="matrix(0.969116,-0.246605,0.246605,0.969116,-6.06399,123.671)"><text x="490.719px" y="86.046px" style="font-family:'ArialMT', 'Arial', sans-serif;font-size:13.061px;">15</text></g></g><g><g transform="matrix(0.996566,-0.0827996,0.0827996,0.996566,-4.73204,43.8691)"><text x="526.547px" y="78.987px" style="font-family:'ArialMT', 'Arial', sans-serif;font-size:13.062px;">-</text></g><g transform="matrix(0.996566,-0.0827996,0.0827996,0.996566,-4.69805,44.1408)"><text x="529.84px" y="78.713px" style="font-family:'ArialMT', 'Arial', sans-serif;font-size:13.062px;">15</text></g></g><g><g transform="matrix(0.610113,0.792315,-0.792315,0.610113,207.374,-171.345)"><text x="277.787px" y="125.036px" style="font-family:'ArialMT', 'Arial', sans-serif;font-size:13.061px;">+</text></g><g transform="matrix(0.610113,0.792315,-0.792315,0.610113,212.817,-172.442)"><text x="281.623px" y="130.018px" style="font-family:'ArialMT', 'Arial', sans-serif;font-size:13.061px;">15</text></g></g><g><g transform="matrix(0.732868,0.680371,-0.680371,0.732868,132.538,-144.16)"><text x="249.853px" y="96.703px" style="font-family:'ArialMT', 'Arial', sans-serif;font-size:13.062px;">+</text></g><g transform="matrix(0.732868,0.680371,-0.680371,0.732868,136.679,-146.153)"><text x="254.461px" y="100.98px" style="font-family:'ArialMT', 'Arial', sans-serif;font-size:13.062px;">15</text></g></g><g><g transform="matrix(0.835374,0.549681,-0.549681,0.835374,76.1452,-107.517)"><text x="217.572px" y="73.365px" style="font-family:'ArialMT', 'Arial', sans-serif;font-size:13.062px;">+</text></g><g transform="matrix(0.835374,0.549681,-0.549681,0.835374,78.9094,-109.836)"><text x="222.825px" y="76.82px" style="font-family:'ArialMT', 'Arial', sans-serif;font-size:13.062px;">15</text></g></g><g><g transform="matrix(0.996525,0.0832996,-0.0832996,0.996525,8.43679,-46.9008)"><text x="566.277px" y="77.656px" style="font-family:'ArialMT', 'Arial', sans-serif;font-size:13.061px;">-</text></g><g transform="matrix(0.996525,0.0832996,-0.0832996,0.996525,8.47121,-47.174)"><text x="569.569px" y="77.932px" style="font-family:'ArialMT', 'Arial', sans-serif;font-size:13.061px;">15</text></g></g></g></g></svg>