<?xml version="1.0" encoding="UTF-8" standalone="no"?><!DOCTYPE svg PUBLIC "-//W3C//DTD SVG 1.1//EN" "http://www.w3.org/Graphics/SVG/1.1/DTD/svg11.dtd"><svg width="100%" height="100%" viewBox="0 0 1204 225" version="1.1" xmlns="http://www.w3.org/2000/svg" xmlns:xlink="http://www.w3.org/1999/xlink" xml:space="preserve" xmlns:serif="http://www.serif.com/" style="fill-rule:evenodd;clip-rule:evenodd;stroke-linejoin:round;stroke-miterlimit:2;"><rect id="Artboard1" x="0" y="0" width="1204" height="224.205" style="fill:none;"/><clipPath id="_clip1"><rect x="0" y="0" width="1204" height="224.205"/></clipPath><g clip-path="url(#_clip1)"><text x="31.339px" y="222.781px" style="font-family:'AcuminPro-Bold', 'Acumin Pro', sans-serif;font-weight:700;font-size:53.331px;fill:#d43015;">s<tspan x="59.071px " y="222.781px ">e</tspan>a</text><text x="117.949px" y="222.781px" style="font-family:'AcuminPro-Bold', 'Acumin Pro', sans-serif;font-weight:700;font-size:53.331px;fill:#d43015;">t<tspan x="136.775px 166.854px " y="222.781px 222.781px ">ed</tspan></text><path d="M204.568,86.126l0,77.955c0,5.046 -4.127,9.173 -9.17,9.173l-27.513,0l0,-87.128c0,-5.043 4.127,-9.17 9.17,-9.17l18.343,0c5.043,0 9.17,4.127 9.17,9.17Zm-151.325,-9.17l-18.343,0c-5.043,0 -9.17,4.127 -9.17,9.17l0,77.955c0,5.046 4.127,9.173 9.17,9.173l27.516,0l0,-87.128c0,-5.043 -4.127,-9.17 -9.173,-9.17Zm128.398,-9.17l0,-55.029c0,-7.796 -5.961,-13.757 -13.756,-13.757l-105.469,0c-7.795,0 -13.756,5.961 -13.756,13.757l0,55.029l4.583,0c10.089,0 18.343,8.251 18.343,18.34l0,9.173l87.126,0l0,-9.173c0,-10.089 8.254,-18.34 18.343,-18.34l4.586,0Zm-109.442,105.468l85.825,0l0,-68.785l-85.825,0l0,68.785Z" style="fill:#d43015;fill-rule:nonzero;"/><text x="349.001px" y="219.712px" style="font-family:'LamborginiBold', 'Lamborgini';font-weight:700;font-size:63.347px;fill:#d43015;">SE</text><text x="409.941px" y="219.712px" style="font-family:'LamborginiBold', 'Lamborgini';font-weight:700;font-size:63.347px;fill:#d43015;">A<tspan x="434.71px " y="219.712px ">T</tspan>ED</text><path d="M526.874,84.53l0,75.76c0,4.901 -4.011,8.912 -8.912,8.912l-26.738,0l0,-84.672c0,-4.904 4.011,-8.915 8.912,-8.915l17.826,0c4.901,0 8.912,4.011 8.912,8.915Zm-147.063,-8.915l-17.826,0c-4.901,0 -8.912,4.011 -8.912,8.915l0,75.76c0,4.901 4.011,8.912 8.912,8.912l26.738,0l0,-84.672c0,-4.904 -4.011,-8.915 -8.912,-8.915Zm124.782,-8.912l0,-53.479c0,-7.576 -5.793,-13.369 -13.369,-13.369l-102.501,0c-7.576,0 -13.369,5.793 -13.369,13.369l0,53.479l4.457,0c9.804,0 17.826,8.022 17.826,17.827l0,8.912l84.672,0l0,-8.912c0,-9.805 8.022,-17.827 17.827,-17.827l4.457,0Zm-106.362,102.499l83.41,0l0,-66.849l-83.41,0l0,66.849Z" style="fill:#d43015;fill-rule:nonzero;"/><text x="680.32px" y="218.168px" style="font-family:'LamborginiBold', 'Lamborgini';font-weight:700;font-size:70.946px;fill:#d43015;">s</text><text x="699.83px" y="218.168px" style="font-family:'LamborginiBold', 'Lamborgini';font-weight:700;font-size:70.946px;fill:#d43015;">e<tspan x="730.124px 762.121px 787.023px 817.316px " y="218.168px 218.168px 218.168px 218.168px ">ated</tspan></text><path d="M854.031,86.98l0,77.778c0,5.034 -4.118,9.152 -9.149,9.152l-27.45,0l0,-86.93c0,-5.031 4.117,-9.149 9.149,-9.149l18.301,0c5.031,0 9.149,4.118 9.149,9.149Zm-150.979,-9.149l-18.301,0c-5.031,0 -9.149,4.118 -9.149,9.149l0,77.778c0,5.034 4.118,9.152 9.149,9.152l27.453,0l0,-86.93c0,-5.031 -4.118,-9.149 -9.152,-9.149Zm128.105,-9.149l0,-54.903c0,-7.777 -5.948,-13.725 -13.725,-13.725l-105.228,0c-7.777,0 -13.725,5.948 -13.725,13.725l0,54.903l4.573,0c10.066,0 18.301,8.233 18.301,18.298l0,9.152l86.927,0l0,-9.152c0,-10.065 8.235,-18.298 18.301,-18.298l4.576,0Zm-109.192,105.228l85.629,0l0,-68.629l-85.629,0l0,68.629Z" style="fill:#d43015;fill-rule:nonzero;"/><text x="1001.96px" y="224.221px" style="font-family:'FORQUE';font-size:77.878px;fill:#d43015;">seated</text><path d="M1176.37,84.872l0,75.89c0,4.912 -4.018,8.93 -8.927,8.93l-26.787,0l0,-84.82c0,-4.909 4.017,-8.927 8.93,-8.927l17.857,0c4.909,0 8.927,4.018 8.927,8.927Zm-147.316,-8.927l-17.857,0c-4.91,0 -8.928,4.018 -8.928,8.927l0,75.89c0,4.912 4.018,8.93 8.928,8.93l26.784,0l0,-84.82c0,-4.909 -4.018,-8.927 -8.927,-8.927Zm124.997,-8.927l0,-53.572c0,-7.589 -5.804,-13.392 -13.395,-13.392l-102.675,0c-7.589,0 -13.392,5.803 -13.392,13.392l0,53.572l4.465,0c9.821,0 17.857,8.032 17.857,17.854l0,8.93l84.817,0l0,-8.93c0,-9.822 8.036,-17.854 17.858,-17.854l4.465,0Zm-106.546,102.674l83.554,0l0,-66.963l-83.554,0l0,66.963Z" style="fill:#d43015;fill-rule:nonzero;"/></g></svg>