<?xml version="1.0" encoding="UTF-8" standalone="no"?>
<!DOCTYPE svg PUBLIC "-//W3C//DTD SVG 1.1//EN" "http://www.w3.org/Graphics/SVG/1.1/DTD/svg11.dtd">
<svg width="100%" height="100%" viewBox="0 0 784 783" version="1.1" xmlns="http://www.w3.org/2000/svg" xmlns:xlink="http://www.w3.org/1999/xlink" xml:space="preserve" xmlns:serif="http://www.serif.com/" style="fill-rule:evenodd;clip-rule:evenodd;stroke-linejoin:round;stroke-miterlimit:2;">
    <g transform="matrix(1,0,0,1,0,-220.5)">
        <g>
            <path id="SVGID_1_" d="M392,1003.5C175.9,1003.5 0,827.9 0,612C0,396.1 175.9,220.5 392,220.5C608.1,220.5 784,396.1 784,612C784,827.9 608.2,1003.5 392,1003.5ZM722.6,665.6C711.1,662 619,634.5 514,651.3C557.8,771.5 575.6,869.4 579,889.7C654.2,839 707.7,758.6 722.6,665.6ZM522.8,920.3C517.8,891 498.4,788.7 451.4,666.7C450.7,666.9 449.9,667.2 449.2,667.4C260.3,733.2 192.5,864 186.5,876.3C243.3,920.5 314.6,946.9 392,946.9C438.4,946.9 482.6,937.4 522.8,920.3ZM143.2,836.1C150.8,823.1 242.7,671.2 415.4,615.4C419.8,614 424.2,612.7 428.6,611.4C420.2,592.4 411,573.4 401.5,554.7C234.3,604.7 72,602.6 57.4,602.3C57.3,605.7 57.2,609.1 57.2,612.5C57.2,698.4 89.8,776.8 143.2,836.1ZM64.2,544C79.2,544.2 217.1,544.8 373.7,503.3C318.3,404.8 258.5,322 249.7,309.9C156,354 86,440.3 64.2,544ZM313.5,287.4C322.8,299.8 383.6,382.5 438.4,483.2C557.5,438.6 607.9,371 614,362.4C554.9,310 477.1,278.1 392,278.1C365,278.1 338.7,281.4 313.5,287.4ZM651.2,401.1C644.1,410.6 588,482.5 464.2,532.9C472,548.8 479.5,565 486.4,581.3C488.9,587.1 491.3,592.8 493.6,598.6C605,584.6 715.7,607 726.7,609.4C726.1,530.4 697.8,458 651.2,401.1Z" style="fill:white;fill-rule:nonzero;"/>
        </g>
    </g>
</svg>
