<?xml version="1.0" encoding="UTF-8" standalone="no"?>
<!DOCTYPE svg PUBLIC "-//W3C//DTD SVG 1.1//EN" "http://www.w3.org/Graphics/SVG/1.1/DTD/svg11.dtd">
<svg width="100%" height="100%" viewBox="0 0 784 765" version="1.1" xmlns="http://www.w3.org/2000/svg" xmlns:xlink="http://www.w3.org/1999/xlink" xml:space="preserve" xmlns:serif="http://www.serif.com/" style="fill-rule:evenodd;clip-rule:evenodd;stroke-linejoin:round;stroke-miterlimit:2;">
    <g transform="matrix(1,0,0,1,0,-229.7)">
        <path d="M392,229.7C175.6,229.7 0,405.2 0,621.7C0,794.9 112.3,941.8 268.1,993.6C287.7,997.2 294.9,985.1 294.9,974.7C294.9,965.4 294.5,940.8 294.4,908C185.3,931.7 162.4,855.5 162.4,855.5C144.6,810.2 118.9,798.2 118.9,798.2C83.3,773.9 121.6,774.4 121.6,774.4C160.9,777.2 181.7,814.8 181.7,814.8C216.7,874.7 273.4,857.4 295.8,847.4C299.4,822 309.5,804.8 320.7,795C233.7,785 142.2,751.5 142.2,601.2C142.2,558.4 157.5,523.4 182.6,496C178.6,486 165.1,446.2 186.4,392.2C186.4,392.2 219.3,381.6 294.2,432.4C325.5,423.7 359,419.3 392.3,419.2C425.6,419.4 459.1,423.7 490.4,432.4C565.3,381.7 598.1,392.2 598.1,392.2C619.5,446.1 606,486 602,496C627.1,523.4 642.3,558.4 642.3,601.2C642.3,751.8 550.7,784.9 463.3,794.6C477.4,806.7 489.9,830.6 489.9,867.2C489.9,919.6 489.4,961.9 489.4,974.7C489.4,985.2 496.5,997.4 516.4,993.5C671.8,941.6 784,794.8 784,621.7C784,405.2 608.5,229.7 392,229.7Z" style="fill:white;fill-rule:nonzero;"/>
    </g>
</svg>
