<?xml version="1.0" encoding="UTF-8" standalone="no"?>
<!DOCTYPE svg PUBLIC "-//W3C//DTD SVG 1.1//EN" "http://www.w3.org/Graphics/SVG/1.1/DTD/svg11.dtd">
<svg width="100%" height="100%" viewBox="0 0 2036 1655" version="1.1" xmlns="http://www.w3.org/2000/svg" xmlns:xlink="http://www.w3.org/1999/xlink" xml:space="preserve" xmlns:serif="http://www.serif.com/" style="fill-rule:evenodd;clip-rule:evenodd;stroke-linejoin:round;stroke-miterlimit:2;">
    <g transform="matrix(1,0,0,1,-0.02054,-0.04223)">
        <g transform="matrix(1,0,0,1,-539.179,-568.858)">
            <path id="path3611" d="M1179.6,2223.4C1947.9,2223.4 2368,1586.9 2368,1035C2368,1016.9 2367.6,998.9 2366.8,981C2448.4,922 2519.2,848.5 2575.1,764.7C2500.3,798 2419.7,820.4 2335.2,830.5C2421.4,778.8 2487.6,697 2518.9,599.5C2438.2,647.3 2348.8,682.1 2253.7,700.9C2177.5,619.7 2069,568.9 1948.8,568.9C1718.1,568.9 1531.1,756 1531.1,986.5C1531.1,1019.3 1534.8,1051.2 1541.9,1081.7C1194.7,1064.2 886.9,898 680.9,645.3C645,707 624.3,778.7 624.3,855.2C624.3,1000.1 698,1128 810.2,1202.9C741.7,1200.8 677.3,1182 621,1150.7C620.9,1152.5 620.9,1154.2 620.9,1156C620.9,1358.3 764.9,1527.2 956,1565.5C920.9,1575.1 884,1580.2 845.9,1580.2C819,1580.2 792.8,1577.6 767.4,1572.7C820.6,1738.7 974.8,1859.4 1157.6,1862.8C1014.6,1974.9 834.6,2041.6 638.8,2041.6C605.1,2041.6 571.9,2039.7 539.2,2035.8C724.2,2154.3 943.7,2223.4 1179.6,2223.4" style="fill:white;fill-rule:nonzero;"/>
        </g>
    </g>
</svg>
