<?xml version="1.0" encoding="UTF-8" standalone="no"?><!DOCTYPE svg PUBLIC "-//W3C//DTD SVG 1.1//EN" "http://www.w3.org/Graphics/SVG/1.1/DTD/svg11.dtd"><svg width="100%" height="100%" viewBox="0 0 142 198" version="1.1" xmlns="http://www.w3.org/2000/svg" xmlns:xlink="http://www.w3.org/1999/xlink" xml:space="preserve" xmlns:serif="http://www.serif.com/" style="fill-rule:evenodd;clip-rule:evenodd;stroke-linejoin:round;stroke-miterlimit:2;"><clipPath id="_clip1"><rect id="Page-2" serif:id="Page 2" x="0" y="0" width="141.434" height="197.286"/></clipPath><g clip-path="url(#_clip1)"><rect x="-553.738" y="-41.152" width="792" height="612" style="fill:none;"/><g><clipPath id="_clip2"><rect x="-524.738" y="-12.152" width="735" height="554.963"/></clipPath><g clip-path="url(#_clip2)"><rect x="-524.738" y="-538.309" width="735" height="959.596" style="fill:#fff;"/><g><clipPath id="_clip3"><rect x="-524.738" y="-12.152" width="735" height="433.438"/></clipPath><g clip-path="url(#_clip3)"><rect x="-524.738" y="-538.309" width="735" height="959.596" style="fill:#fff;"/><rect x="-524.738" y="-538.309" width="735" height="937.991" style="fill:#fff;"/></g></g><g><clipPath id="_clip4"><path d="M210.262,-12.152l-735,0l0,433.438l735,0l0,-433.438Zm-209.743,6.746l0,222.356c0,0.597 0.299,0.895 0.895,0.895l141.34,0c0.596,0 0.895,-0.298 0.895,-0.895l0,-222.356c0,-0.597 -0.299,-0.895 -0.895,-0.895l-141.34,0c-0.596,0 -0.895,0.298 -0.895,0.895Z"/></clipPath><g clip-path="url(#_clip4)"></g></g><path d="M0.069,217.395l0,-223.246c0,-0.248 0.088,-0.461 0.264,-0.636c0.176,-0.176 0.388,-0.264 0.637,-0.264l142.229,0c0.248,0 0.46,0.088 0.636,0.264c0.176,0.175 0.264,0.388 0.264,0.636l0,223.246c0,0.248 -0.088,0.46 -0.264,0.636c-0.176,0.176 -0.388,0.264 -0.636,0.264l-142.229,0c-0.249,0 -0.461,-0.088 -0.637,-0.264c-0.176,-0.176 -0.264,-0.388 -0.264,-0.636Z" style="fill:#fff;fill-rule:nonzero;"/><path d="M72.084,26.927c0.866,0 1.732,0.024 2.597,0.07c0.866,0.047 1.729,0.118 2.59,0.211c0.861,0.094 1.72,0.211 2.575,0.351c0.855,0.14 1.705,0.303 2.551,0.489c0.847,0.186 1.687,0.395 2.522,0.626c0.835,0.232 1.663,0.486 2.484,0.763c0.821,0.276 1.634,0.574 2.439,0.895c0.805,0.32 1.601,0.662 2.387,1.026c0.787,0.363 1.563,0.748 2.328,1.153c0.766,0.406 1.52,0.832 2.263,1.278c0.742,0.447 1.472,0.913 2.19,1.399c0.717,0.485 1.421,0.99 2.111,1.514c0.69,0.524 1.365,1.067 2.026,1.627c0.66,0.561 1.305,1.139 1.935,1.734c0.629,0.595 1.242,1.207 1.838,1.836c0.596,0.629 1.175,1.273 1.737,1.933c0.561,0.66 1.104,1.335 1.629,2.024c0.525,0.689 1.031,1.392 1.517,2.109c0.487,0.717 0.954,1.446 1.401,2.188c0.448,0.742 0.875,1.496 1.281,2.261c0.407,0.765 0.792,1.541 1.157,2.327c0.364,0.786 0.707,1.581 1.029,2.385c0.321,0.805 0.62,1.618 0.898,2.438c0.277,0.821 0.532,1.649 0.765,2.484c0.233,0.834 0.443,1.674 0.63,2.52c0.187,0.846 0.351,1.697 0.492,2.551c0.141,0.855 0.259,1.713 0.354,2.575c0.095,0.861 0.166,1.724 0.214,2.589c0.048,0.865 0.072,1.731 0.074,2.597c0.001,0.867 -0.022,1.732 -0.067,2.598c-0.046,0.865 -0.115,1.728 -0.208,2.59c-0.092,0.861 -0.208,1.719 -0.347,2.575c-0.139,0.855 -0.301,1.706 -0.486,2.552c-0.185,0.846 -0.393,1.687 -0.624,2.522c-0.23,0.836 -0.483,1.664 -0.758,2.485c-0.276,0.822 -0.573,1.635 -0.893,2.441c-0.319,0.805 -0.66,1.601 -1.023,2.388c-0.362,0.787 -0.746,1.563 -1.15,2.33c-0.405,0.766 -0.83,1.52 -1.275,2.264c-0.446,0.743 -0.911,1.473 -1.396,2.191c-0.485,0.718 -0.989,1.423 -1.512,2.113c-0.523,0.691 -1.065,1.367 -1.624,2.028c-0.56,0.662 -1.137,1.307 -1.732,1.937c-0.594,0.631 -1.206,1.244 -1.834,1.841c-0.627,0.597 -1.271,1.177 -1.93,1.739c-0.659,0.562 -1.333,1.106 -2.022,1.632c-0.689,0.526 -1.391,1.032 -2.107,1.52c-0.716,0.488 -1.445,0.956 -2.187,1.404c-0.741,0.448 -1.494,0.876 -2.259,1.283c-0.764,0.408 -1.54,0.794 -2.325,1.16c-0.786,0.365 -1.58,0.709 -2.385,1.032c-0.804,0.322 -1.616,0.623 -2.436,0.901c-0.821,0.279 -1.648,0.535 -2.483,0.768c-0.834,0.234 -1.674,0.445 -2.52,0.633c-0.845,0.189 -1.695,0.354 -2.55,0.496c-0.855,0.142 -1.713,0.261 -2.574,0.357c-0.861,0.096 -1.724,0.168 -2.589,0.217c-0.865,0.049 -1.731,0.075 -2.597,0.077c-0.866,0.002 -1.732,-0.019 -2.598,-0.064c-0.865,-0.044 -1.728,-0.112 -2.59,-0.204c-0.861,-0.091 -1.72,-0.206 -2.575,-0.344c-0.856,-0.138 -1.707,-0.299 -2.553,-0.483c-0.847,-0.184 -1.688,-0.39 -2.523,-0.62c-0.836,-0.229 -1.664,-0.481 -2.486,-0.756c-0.822,-0.274 -1.636,-0.57 -2.442,-0.889c-0.805,-0.318 -1.602,-0.658 -2.389,-1.02c-0.788,-0.361 -1.565,-0.744 -2.331,-1.148c-0.767,-0.403 -1.522,-0.827 -2.266,-1.272c-0.744,-0.444 -1.475,-0.908 -2.193,-1.393c-0.719,-0.484 -1.424,-0.987 -2.115,-1.509c-0.692,-0.522 -1.368,-1.063 -2.03,-1.622c-0.662,-0.558 -1.309,-1.135 -1.94,-1.729c-0.631,-0.594 -1.245,-1.204 -1.843,-1.831c-0.598,-0.627 -1.178,-1.27 -1.741,-1.929c-0.563,-0.658 -1.108,-1.331 -1.634,-2.019c-0.527,-0.689 -1.035,-1.39 -1.523,-2.106c-0.489,-0.715 -0.958,-1.444 -1.407,-2.184c-0.449,-0.741 -0.878,-1.494 -1.286,-2.258c-0.409,-0.764 -0.796,-1.539 -1.162,-2.324c-0.367,-0.785 -0.712,-1.579 -1.035,-2.383c-0.324,-0.804 -0.625,-1.616 -0.905,-2.436c-0.279,-0.82 -0.537,-1.647 -0.771,-2.481c-0.235,-0.834 -0.447,-1.674 -0.636,-2.519c-0.19,-0.845 -0.356,-1.695 -0.499,-2.55c-0.144,-0.854 -0.264,-1.712 -0.361,-2.573c-0.096,-0.861 -0.17,-1.724 -0.22,-2.589c-0.05,-0.865 -0.077,-1.731 -0.08,-2.597c-0.003,-0.866 0.017,-1.732 0.06,-2.598c0.044,-0.865 0.111,-1.728 0.201,-2.59c0.091,-0.862 0.204,-1.72 0.341,-2.576c0.137,-0.855 0.297,-1.707 0.48,-2.554c0.183,-0.846 0.388,-1.688 0.617,-2.523c0.228,-0.836 0.479,-1.665 0.752,-2.487c0.274,-0.823 0.569,-1.637 0.886,-2.443c0.318,-0.806 0.657,-1.603 1.017,-2.391c0.361,-0.788 0.743,-1.565 1.145,-2.332l11.904,6.247c-0.58,1.106 -1.099,2.239 -1.556,3.401c-0.458,1.162 -0.851,2.345 -1.18,3.549c-0.329,1.205 -0.593,2.423 -0.79,3.656c-0.197,1.233 -0.327,2.473 -0.39,3.72c-0.063,1.247 -0.058,2.494 0.014,3.74c0.073,1.247 0.212,2.485 0.418,3.717c0.207,1.231 0.479,2.448 0.818,3.65c0.338,1.201 0.74,2.381 1.206,3.54c0.466,1.158 0.994,2.288 1.582,3.389c0.589,1.101 1.235,2.167 1.939,3.198c0.704,1.031 1.462,2.021 2.273,2.97c0.812,0.949 1.672,1.852 2.581,2.707c0.909,0.856 1.862,1.66 2.858,2.413c0.996,0.752 2.03,1.449 3.102,2.089c1.072,0.641 2.175,1.222 3.31,1.743c1.134,0.521 2.294,0.979 3.478,1.374c1.184,0.396 2.386,0.726 3.606,0.991c1.221,0.265 2.451,0.464 3.693,0.595c1.242,0.132 2.487,0.196 3.735,0.193c1.249,-0.003 2.493,-0.073 3.734,-0.211c1.241,-0.138 2.471,-0.343 3.69,-0.614c1.218,-0.272 2.419,-0.608 3.601,-1.009c1.182,-0.402 2.34,-0.866 3.472,-1.392c1.132,-0.527 2.232,-1.113 3.3,-1.759c1.069,-0.646 2.099,-1.348 3.092,-2.105c0.992,-0.758 1.941,-1.567 2.846,-2.427c0.904,-0.861 1.76,-1.767 2.567,-2.72c0.806,-0.953 1.559,-1.947 2.258,-2.982c0.699,-1.035 1.34,-2.104 1.923,-3.208c0.583,-1.104 1.104,-2.236 1.565,-3.397c0.46,-1.161 0.856,-2.343 1.188,-3.546c0.333,-1.204 0.599,-2.422 0.799,-3.654c0.2,-1.232 0.334,-2.472 0.4,-3.719c0.066,-1.246 0.064,-2.493 -0.005,-3.74c-0.069,-1.246 -0.206,-2.486 -0.409,-3.718c-0.203,-1.231 -0.473,-2.449 -0.808,-3.651c-0.335,-1.203 -0.734,-2.384 -1.198,-3.544c-0.463,-1.159 -0.987,-2.29 -1.573,-3.393c-0.586,-1.102 -1.23,-2.17 -1.931,-3.203c-0.702,-1.033 -1.457,-2.025 -2.266,-2.976c-0.809,-0.951 -1.667,-1.855 -2.574,-2.713c-0.907,-0.858 -1.857,-1.665 -2.852,-2.42c-0.994,-0.755 -2.026,-1.454 -3.096,-2.097c-1.07,-0.644 -2.172,-1.227 -3.305,-1.751c-1.134,-0.524 -2.292,-0.985 -3.475,-1.383c-1.184,-0.399 -2.385,-0.732 -3.604,-1c-1.22,-0.268 -2.45,-0.47 -3.691,-0.605c-1.241,-0.135 -2.486,-0.202 -3.735,-0.202l0,-13.444Z" style="fill:#4285f4;fill-rule:nonzero;"/><path d="M29.57,52.628c1.013,-1.93 2.151,-3.781 3.416,-5.556c1.265,-1.774 2.644,-3.455 4.137,-5.041c1.494,-1.587 3.088,-3.065 4.783,-4.434c1.694,-1.37 3.474,-2.618 5.339,-3.745c1.865,-1.128 3.797,-2.123 5.797,-2.987c2,-0.865 4.05,-1.589 6.149,-2.174c2.099,-0.585 4.228,-1.026 6.386,-1.321c2.159,-0.295 4.328,-0.443 6.507,-0.443l0,13.444c-1.569,0 -3.13,0.106 -4.685,0.319c-1.554,0.212 -3.087,0.529 -4.598,0.951c-1.511,0.421 -2.987,0.943 -4.427,1.565c-1.44,0.622 -2.832,1.339 -4.174,2.151c-1.343,0.811 -2.624,1.71 -3.844,2.696c-1.22,0.986 -2.368,2.05 -3.444,3.193c-1.075,1.142 -2.068,2.352 -2.978,3.629c-0.911,1.278 -1.731,2.611 -2.46,4l-11.904,-6.247Z" style="fill:#68bced;fill-rule:nonzero;"/><path d="M72.084,26.927c0.866,0 1.732,0.024 2.597,0.07c0.866,0.047 1.729,0.118 2.59,0.211c0.861,0.094 1.72,0.211 2.575,0.351c0.855,0.14 1.705,0.303 2.551,0.489c0.847,0.186 1.687,0.395 2.522,0.626c0.835,0.232 1.663,0.486 2.484,0.763c0.821,0.276 1.634,0.574 2.439,0.895c0.805,0.32 1.601,0.662 2.387,1.026c0.787,0.363 1.563,0.748 2.328,1.153c0.766,0.406 1.52,0.832 2.263,1.278c0.742,0.447 1.472,0.913 2.19,1.399c0.717,0.485 1.421,0.99 2.111,1.514c0.69,0.524 1.365,1.067 2.026,1.627c0.66,0.561 1.305,1.139 1.935,1.734c0.629,0.595 1.242,1.207 1.838,1.836c0.596,0.629 1.175,1.273 1.737,1.933c0.561,0.66 1.104,1.335 1.629,2.024c0.525,0.689 1.031,1.392 1.517,2.109c0.487,0.717 0.954,1.446 1.401,2.188c0.448,0.742 0.875,1.496 1.281,2.261c0.407,0.765 0.792,1.541 1.157,2.327c0.364,0.786 0.707,1.581 1.029,2.385c0.321,0.805 0.62,1.618 0.898,2.438c0.277,0.821 0.532,1.649 0.765,2.484c0.233,0.834 0.443,1.674 0.63,2.52c0.187,0.846 0.351,1.697 0.492,2.551c0.141,0.855 0.259,1.713 0.354,2.575c0.095,0.861 0.166,1.724 0.214,2.589c0.048,0.865 0.072,1.731 0.074,2.597c0.001,0.867 -0.022,1.732 -0.067,2.598c-0.046,0.865 -0.115,1.728 -0.208,2.59c-0.092,0.861 -0.208,1.719 -0.347,2.575c-0.139,0.855 -0.301,1.706 -0.486,2.552c-0.185,0.846 -0.393,1.687 -0.624,2.522c-0.23,0.836 -0.483,1.664 -0.758,2.485c-0.276,0.822 -0.573,1.635 -0.893,2.441c-0.319,0.805 -0.66,1.601 -1.023,2.388c-0.362,0.787 -0.746,1.563 -1.15,2.33c-0.405,0.766 -0.83,1.52 -1.275,2.264c-0.446,0.743 -0.911,1.473 -1.396,2.191c-0.485,0.718 -0.989,1.423 -1.512,2.113c-0.523,0.691 -1.065,1.367 -1.624,2.028c-0.56,0.662 -1.137,1.307 -1.732,1.937c-0.594,0.631 -1.206,1.244 -1.834,1.841c-0.627,0.597 -1.271,1.177 -1.93,1.739c-0.659,0.562 -1.333,1.106 -2.022,1.632c-0.689,0.526 -1.391,1.032 -2.107,1.52c-0.716,0.488 -1.445,0.956 -2.187,1.404c-0.741,0.448 -1.494,0.876 -2.259,1.283c-0.764,0.408 -1.54,0.794 -2.325,1.16c-0.786,0.365 -1.58,0.709 -2.385,1.032c-0.804,0.322 -1.616,0.623 -2.436,0.901c-0.821,0.279 -1.648,0.535 -2.483,0.768c-0.834,0.234 -1.674,0.445 -2.52,0.633c-0.845,0.189 -1.695,0.354 -2.55,0.496c-0.855,0.142 -1.713,0.261 -2.574,0.357c-0.861,0.096 -1.724,0.168 -2.589,0.217c-0.865,0.049 -1.731,0.075 -2.597,0.077c-0.866,0.002 -1.732,-0.019 -2.598,-0.064c-0.865,-0.044 -1.728,-0.112 -2.59,-0.204c-0.861,-0.091 -1.72,-0.206 -2.575,-0.344c-0.856,-0.138 -1.707,-0.299 -2.553,-0.483c-0.847,-0.184 -1.688,-0.39 -2.523,-0.62c-0.836,-0.229 -1.664,-0.481 -2.486,-0.756c-0.822,-0.274 -1.636,-0.57 -2.442,-0.889c-0.805,-0.318 -1.602,-0.658 -2.389,-1.02c-0.788,-0.361 -1.565,-0.744 -2.331,-1.148c-0.767,-0.403 -1.522,-0.827 -2.266,-1.272c-0.744,-0.444 -1.475,-0.908 -2.193,-1.393c-0.719,-0.484 -1.424,-0.987 -2.115,-1.509c-0.692,-0.522 -1.368,-1.063 -2.03,-1.622c-0.662,-0.558 -1.309,-1.135 -1.94,-1.729c-0.631,-0.594 -1.245,-1.204 -1.843,-1.831c-0.598,-0.627 -1.178,-1.27 -1.741,-1.929c-0.563,-0.658 -1.108,-1.331 -1.634,-2.019c-0.527,-0.689 -1.035,-1.39 -1.523,-2.106c-0.489,-0.715 -0.958,-1.444 -1.407,-2.184c-0.449,-0.741 -0.878,-1.494 -1.286,-2.258c-0.409,-0.764 -0.796,-1.539 -1.162,-2.324c-0.367,-0.785 -0.712,-1.579 -1.035,-2.383c-0.324,-0.804 -0.625,-1.616 -0.905,-2.436c-0.279,-0.82 -0.537,-1.647 -0.771,-2.481c-0.235,-0.834 -0.447,-1.674 -0.636,-2.519c-0.19,-0.845 -0.356,-1.695 -0.499,-2.55c-0.144,-0.854 -0.264,-1.712 -0.361,-2.573c-0.096,-0.861 -0.17,-1.724 -0.22,-2.589c-0.05,-0.865 -0.077,-1.731 -0.08,-2.597c-0.003,-0.866 0.017,-1.732 0.06,-2.598c0.044,-0.865 0.111,-1.728 0.201,-2.59c0.091,-0.862 0.204,-1.72 0.341,-2.576c0.137,-0.855 0.297,-1.707 0.48,-2.554c0.183,-0.846 0.388,-1.688 0.617,-2.523c0.228,-0.836 0.479,-1.665 0.752,-2.487c0.274,-0.823 0.569,-1.637 0.886,-2.443c0.318,-0.806 0.657,-1.603 1.017,-2.391c0.361,-0.788 0.743,-1.565 1.145,-2.332l11.904,6.247c-0.58,1.106 -1.099,2.239 -1.556,3.401c-0.458,1.162 -0.851,2.345 -1.18,3.549c-0.329,1.205 -0.593,2.423 -0.79,3.656c-0.197,1.233 -0.327,2.473 -0.39,3.72c-0.063,1.247 -0.058,2.494 0.014,3.74c0.073,1.247 0.212,2.485 0.418,3.717c0.207,1.231 0.479,2.448 0.818,3.65c0.338,1.201 0.74,2.381 1.206,3.54c0.466,1.158 0.994,2.288 1.582,3.389c0.589,1.101 1.235,2.167 1.939,3.198c0.704,1.031 1.462,2.021 2.273,2.97c0.812,0.949 1.672,1.852 2.581,2.707c0.909,0.856 1.862,1.66 2.858,2.413c0.996,0.752 2.03,1.449 3.102,2.089c1.072,0.641 2.175,1.222 3.31,1.743c1.134,0.521 2.294,0.979 3.478,1.374c1.184,0.396 2.386,0.726 3.606,0.991c1.221,0.265 2.451,0.464 3.693,0.595c1.242,0.132 2.487,0.196 3.735,0.193c1.249,-0.003 2.493,-0.073 3.734,-0.211c1.241,-0.138 2.471,-0.343 3.69,-0.614c1.218,-0.272 2.419,-0.608 3.601,-1.009c1.182,-0.402 2.34,-0.866 3.472,-1.392c1.132,-0.527 2.232,-1.113 3.3,-1.759c1.069,-0.646 2.099,-1.348 3.092,-2.105c0.992,-0.758 1.941,-1.567 2.846,-2.427c0.904,-0.861 1.76,-1.767 2.567,-2.72c0.806,-0.953 1.559,-1.947 2.258,-2.982c0.699,-1.035 1.34,-2.104 1.923,-3.208c0.583,-1.104 1.104,-2.236 1.565,-3.397c0.46,-1.161 0.856,-2.343 1.188,-3.546c0.333,-1.204 0.599,-2.422 0.799,-3.654c0.2,-1.232 0.334,-2.472 0.4,-3.719c0.066,-1.246 0.064,-2.493 -0.005,-3.74c-0.069,-1.246 -0.206,-2.486 -0.409,-3.718c-0.203,-1.231 -0.473,-2.449 -0.808,-3.651c-0.335,-1.203 -0.734,-2.384 -1.198,-3.544c-0.463,-1.159 -0.987,-2.29 -1.573,-3.393c-0.586,-1.102 -1.23,-2.17 -1.931,-3.203c-0.702,-1.033 -1.457,-2.025 -2.266,-2.976c-0.809,-0.951 -1.667,-1.855 -2.574,-2.713c-0.907,-0.858 -1.857,-1.665 -2.852,-2.42c-0.994,-0.755 -2.026,-1.454 -3.096,-2.097c-1.07,-0.644 -2.172,-1.227 -3.305,-1.751c-1.134,-0.524 -2.292,-0.985 -3.475,-1.383c-1.184,-0.399 -2.385,-0.732 -3.604,-1c-1.22,-0.268 -2.45,-0.47 -3.691,-0.605c-1.241,-0.135 -2.486,-0.202 -3.735,-0.202l0,-13.444Z" style="fill:#4285f4;fill-opacity:0.4;fill-rule:nonzero;"/><path d="M29.57,52.628c1.013,-1.93 2.151,-3.781 3.416,-5.556c1.265,-1.774 2.644,-3.455 4.137,-5.041c1.494,-1.587 3.088,-3.065 4.783,-4.434c1.694,-1.37 3.474,-2.618 5.339,-3.745c1.865,-1.128 3.797,-2.123 5.797,-2.987c2,-0.865 4.05,-1.589 6.149,-2.174c2.099,-0.585 4.228,-1.026 6.386,-1.321c2.159,-0.295 4.328,-0.443 6.507,-0.443l0,13.444c-1.569,0 -3.13,0.106 -4.685,0.319c-1.554,0.212 -3.087,0.529 -4.598,0.951c-1.511,0.421 -2.987,0.943 -4.427,1.565c-1.44,0.622 -2.832,1.339 -4.174,2.151c-1.343,0.811 -2.624,1.71 -3.844,2.696c-1.22,0.986 -2.368,2.05 -3.444,3.193c-1.075,1.142 -2.068,2.352 -2.978,3.629c-0.911,1.278 -1.731,2.611 -2.46,4l-11.904,-6.247Z" style="fill:#68bced;fill-opacity:0.4;fill-rule:nonzero;"/><path d="M32.701,186.788l1.418,-1.469l-1.064,0l0,-2.581l-0.708,0l0,2.581l-1.064,0l1.418,1.469Z" style="fill:#db4437;fill-rule:nonzero;"/><path d="M94.206,182.738l-1.418,1.469l1.064,0l0,2.581l0.709,0l0,-2.581l1.063,0l-1.418,-1.469Z" style="fill:#0f9d58;fill-rule:nonzero;"/><g><path d="M12.486,7.906c-0.506,-0.146 -0.875,-0.325 -1.106,-0.537c-0.23,-0.213 -0.346,-0.475 -0.346,-0.786c0,-0.353 0.141,-0.645 0.423,-0.876c0.282,-0.231 0.649,-0.346 1.1,-0.346c0.308,0 0.582,0.06 0.823,0.178c0.241,0.119 0.428,0.284 0.56,0.493c0.133,0.209 0.199,0.438 0.199,0.686l-0.594,0c0,-0.272 -0.086,-0.485 -0.259,-0.641c-0.172,-0.155 -0.415,-0.233 -0.729,-0.233c-0.291,0 -0.518,0.064 -0.681,0.193c-0.163,0.128 -0.245,0.306 -0.245,0.535c0,0.182 0.078,0.337 0.232,0.463c0.155,0.127 0.419,0.242 0.791,0.347c0.372,0.105 0.664,0.22 0.874,0.347c0.21,0.126 0.366,0.273 0.468,0.441c0.101,0.168 0.152,0.366 0.152,0.594c0,0.363 -0.142,0.654 -0.425,0.872c-0.283,0.219 -0.661,0.328 -1.135,0.328c-0.308,0 -0.595,-0.059 -0.862,-0.177c-0.266,-0.118 -0.472,-0.279 -0.616,-0.485c-0.145,-0.205 -0.217,-0.438 -0.217,-0.698l0.594,0c0,0.271 0.1,0.485 0.299,0.641c0.2,0.157 0.468,0.236 0.802,0.236c0.312,0 0.551,-0.064 0.717,-0.191c0.166,-0.127 0.249,-0.3 0.249,-0.52c0,-0.219 -0.077,-0.389 -0.231,-0.509c-0.153,-0.12 -0.432,-0.239 -0.837,-0.355Z" style="fill-opacity:0.54;fill-rule:nonzero;"/><path d="M16.192,9.964c-0.451,0 -0.818,-0.148 -1.101,-0.445c-0.284,-0.296 -0.425,-0.692 -0.425,-1.189l0,-0.104c0,-0.331 0.063,-0.626 0.189,-0.885c0.126,-0.26 0.303,-0.463 0.529,-0.609c0.227,-0.147 0.473,-0.22 0.737,-0.22c0.433,0 0.769,0.142 1.009,0.427c0.24,0.286 0.36,0.694 0.36,1.225l0,0.237l-2.255,0c0.008,0.328 0.104,0.593 0.288,0.795c0.183,0.202 0.417,0.303 0.7,0.303c0.201,0 0.371,-0.041 0.511,-0.123c0.139,-0.082 0.261,-0.191 0.366,-0.326l0.347,0.271c-0.279,0.429 -0.697,0.643 -1.255,0.643Zm-0.071,-2.985c-0.229,0 -0.422,0.084 -0.578,0.251c-0.156,0.167 -0.252,0.402 -0.289,0.703l1.667,0l0,-0.043c-0.016,-0.289 -0.094,-0.513 -0.234,-0.672c-0.139,-0.159 -0.328,-0.239 -0.566,-0.239Z" style="fill-opacity:0.54;fill-rule:nonzero;"/><path d="M20.082,9.019c0,-0.153 -0.058,-0.273 -0.174,-0.358c-0.116,-0.085 -0.318,-0.159 -0.606,-0.22c-0.288,-0.062 -0.517,-0.135 -0.686,-0.222c-0.169,-0.086 -0.294,-0.188 -0.375,-0.307c-0.081,-0.119 -0.122,-0.261 -0.122,-0.425c0,-0.273 0.116,-0.503 0.346,-0.692c0.231,-0.189 0.526,-0.283 0.885,-0.283c0.377,0 0.683,0.097 0.918,0.292c0.235,0.195 0.353,0.444 0.353,0.748l-0.573,0c0,-0.156 -0.066,-0.291 -0.198,-0.403c-0.132,-0.113 -0.299,-0.17 -0.5,-0.17c-0.207,0 -0.369,0.046 -0.486,0.136c-0.117,0.09 -0.176,0.208 -0.176,0.354c0,0.137 0.055,0.241 0.163,0.31c0.109,0.07 0.306,0.137 0.59,0.2c0.284,0.064 0.514,0.14 0.69,0.228c0.177,0.088 0.308,0.194 0.393,0.319c0.085,0.124 0.127,0.275 0.127,0.453c0,0.298 -0.119,0.536 -0.357,0.716c-0.237,0.179 -0.546,0.269 -0.926,0.269c-0.266,0 -0.502,-0.047 -0.707,-0.142c-0.205,-0.094 -0.366,-0.226 -0.482,-0.395c-0.116,-0.169 -0.174,-0.352 -0.174,-0.549l0.57,0c0.01,0.191 0.086,0.342 0.229,0.454c0.142,0.111 0.331,0.167 0.564,0.167c0.216,0 0.389,-0.043 0.519,-0.13c0.13,-0.088 0.195,-0.204 0.195,-0.35Z" style="fill-opacity:0.54;fill-rule:nonzero;"/><path d="M23.326,9.019c0,-0.153 -0.058,-0.273 -0.174,-0.358c-0.116,-0.085 -0.318,-0.159 -0.606,-0.22c-0.288,-0.062 -0.517,-0.135 -0.686,-0.222c-0.169,-0.086 -0.294,-0.188 -0.375,-0.307c-0.081,-0.119 -0.122,-0.261 -0.122,-0.425c0,-0.273 0.116,-0.503 0.346,-0.692c0.231,-0.189 0.526,-0.283 0.885,-0.283c0.377,0 0.683,0.097 0.918,0.292c0.235,0.195 0.353,0.444 0.353,0.748l-0.573,0c0,-0.156 -0.066,-0.291 -0.198,-0.403c-0.132,-0.113 -0.299,-0.17 -0.5,-0.17c-0.207,0 -0.369,0.046 -0.486,0.136c-0.117,0.09 -0.176,0.208 -0.176,0.354c0,0.137 0.055,0.241 0.163,0.31c0.109,0.07 0.306,0.137 0.59,0.2c0.284,0.064 0.514,0.14 0.69,0.228c0.177,0.088 0.308,0.194 0.393,0.319c0.085,0.124 0.127,0.275 0.127,0.453c0,0.298 -0.119,0.536 -0.357,0.716c-0.237,0.179 -0.546,0.269 -0.926,0.269c-0.266,0 -0.502,-0.047 -0.707,-0.142c-0.205,-0.094 -0.366,-0.226 -0.482,-0.395c-0.116,-0.169 -0.174,-0.352 -0.174,-0.549l0.57,0c0.01,0.191 0.086,0.342 0.229,0.454c0.142,0.111 0.331,0.167 0.564,0.167c0.216,0 0.389,-0.043 0.519,-0.13c0.13,-0.088 0.195,-0.204 0.195,-0.35Z" style="fill-opacity:0.54;fill-rule:nonzero;"/><path d="M25.25,9.902l-0.569,0l0,-3.329l0.569,0l0,3.329Zm-0.615,-4.212c0,-0.092 0.028,-0.17 0.085,-0.234c0.056,-0.063 0.139,-0.095 0.25,-0.095c0.111,0 0.195,0.032 0.253,0.095c0.057,0.064 0.086,0.142 0.086,0.234c0,0.093 -0.029,0.169 -0.086,0.231c-0.058,0.062 -0.142,0.092 -0.253,0.092c-0.111,0 -0.194,-0.03 -0.25,-0.092c-0.057,-0.062 -0.085,-0.138 -0.085,-0.231Z" style="fill-opacity:0.54;fill-rule:nonzero;"/><path d="M26.005,8.207c0,-0.326 0.064,-0.619 0.192,-0.88c0.129,-0.26 0.307,-0.461 0.536,-0.603c0.229,-0.141 0.49,-0.212 0.783,-0.212c0.453,0 0.82,0.157 1.1,0.471c0.28,0.313 0.42,0.731 0.42,1.252l0,0.04c0,0.324 -0.062,0.615 -0.186,0.872c-0.124,0.257 -0.302,0.458 -0.533,0.602c-0.23,0.143 -0.496,0.215 -0.795,0.215c-0.451,0 -0.817,-0.157 -1.097,-0.471c-0.28,-0.314 -0.42,-0.729 -0.42,-1.246l0,-0.04Zm0.572,0.068c0,0.369 0.086,0.665 0.257,0.889c0.172,0.224 0.401,0.335 0.688,0.335c0.289,0 0.519,-0.113 0.689,-0.34c0.17,-0.226 0.256,-0.544 0.256,-0.952c0,-0.365 -0.087,-0.661 -0.26,-0.888c-0.174,-0.226 -0.404,-0.34 -0.691,-0.34c-0.281,0 -0.508,0.112 -0.68,0.336c-0.172,0.223 -0.259,0.543 -0.259,0.96Z" style="fill-opacity:0.54;fill-rule:nonzero;"/><path d="M30.283,6.573l0.018,0.419c0.255,-0.32 0.587,-0.48 0.997,-0.48c0.704,0 1.059,0.397 1.065,1.19l0,2.2l-0.569,0l0,-2.203c-0.002,-0.24 -0.057,-0.417 -0.165,-0.532c-0.108,-0.115 -0.275,-0.172 -0.503,-0.172c-0.185,0 -0.347,0.049 -0.486,0.147c-0.14,0.099 -0.248,0.228 -0.326,0.388l0,2.372l-0.569,0l0,-3.329l0.538,0Z" style="fill-opacity:0.54;fill-rule:nonzero;"/><path d="M35.155,9.019c0,-0.153 -0.058,-0.273 -0.174,-0.358c-0.116,-0.085 -0.318,-0.159 -0.606,-0.22c-0.289,-0.062 -0.517,-0.135 -0.686,-0.222c-0.17,-0.086 -0.295,-0.188 -0.376,-0.307c-0.081,-0.119 -0.121,-0.261 -0.121,-0.425c0,-0.273 0.115,-0.503 0.346,-0.692c0.231,-0.189 0.525,-0.283 0.884,-0.283c0.378,0 0.684,0.097 0.919,0.292c0.235,0.195 0.352,0.444 0.352,0.748l-0.572,0c0,-0.156 -0.066,-0.291 -0.199,-0.403c-0.132,-0.113 -0.299,-0.17 -0.5,-0.17c-0.207,0 -0.369,0.046 -0.486,0.136c-0.117,0.09 -0.175,0.208 -0.175,0.354c0,0.137 0.054,0.241 0.163,0.31c0.109,0.07 0.305,0.137 0.589,0.2c0.284,0.064 0.514,0.14 0.691,0.228c0.176,0.088 0.307,0.194 0.392,0.319c0.085,0.124 0.128,0.275 0.128,0.453c0,0.298 -0.119,0.536 -0.357,0.716c-0.238,0.179 -0.547,0.269 -0.926,0.269c-0.267,0 -0.503,-0.047 -0.708,-0.142c-0.205,-0.094 -0.365,-0.226 -0.481,-0.395c-0.116,-0.169 -0.174,-0.352 -0.174,-0.549l0.569,0c0.01,0.191 0.087,0.342 0.229,0.454c0.143,0.111 0.331,0.167 0.565,0.167c0.215,0 0.388,-0.043 0.518,-0.13c0.13,-0.088 0.196,-0.204 0.196,-0.35Z" style="fill-opacity:0.54;fill-rule:nonzero;"/><path d="M40.834,8.275c0,0.508 -0.117,0.917 -0.351,1.226c-0.233,0.309 -0.547,0.463 -0.941,0.463c-0.421,0 -0.746,-0.149 -0.975,-0.446l-0.028,0.384l-0.523,0l0,-4.726l0.569,0l0,1.763c0.23,-0.285 0.547,-0.427 0.951,-0.427c0.404,0 0.721,0.153 0.952,0.458c0.231,0.306 0.346,0.724 0.346,1.256l0,0.049Zm-0.569,-0.065c0,-0.388 -0.075,-0.687 -0.225,-0.898c-0.149,-0.212 -0.365,-0.317 -0.646,-0.317c-0.375,0 -0.645,0.174 -0.809,0.523l0,1.44c0.174,0.349 0.446,0.523 0.815,0.523c0.273,0 0.485,-0.106 0.637,-0.317c0.152,-0.211 0.228,-0.529 0.228,-0.954Z" style="fill-opacity:0.54;fill-rule:nonzero;"/><path d="M42.635,9.069l0.775,-2.496l0.61,0l-1.339,3.843c-0.207,0.554 -0.536,0.831 -0.987,0.831l-0.108,-0.009l-0.212,-0.04l0,-0.462l0.153,0.013c0.193,0 0.344,-0.039 0.451,-0.117c0.108,-0.078 0.197,-0.221 0.266,-0.428l0.127,-0.339l-1.188,-3.292l0.621,0l0.831,2.496Z" style="fill-opacity:0.54;fill-rule:nonzero;"/><path d="M45.939,8.21c0,-0.511 0.121,-0.921 0.363,-1.232c0.242,-0.311 0.559,-0.466 0.951,-0.466c0.39,0 0.699,0.133 0.926,0.4l0,-1.736l0.569,0l0,4.726l-0.523,0l-0.027,-0.357c-0.228,0.279 -0.545,0.419 -0.951,0.419c-0.386,0 -0.7,-0.158 -0.943,-0.474c-0.243,-0.316 -0.365,-0.728 -0.365,-1.237l0,-0.043Zm0.57,0.065c0,0.377 0.077,0.673 0.233,0.886c0.156,0.213 0.372,0.32 0.646,0.32c0.361,0 0.625,-0.162 0.791,-0.486l0,-1.529c-0.17,-0.314 -0.432,-0.471 -0.784,-0.471c-0.279,0 -0.497,0.107 -0.653,0.323c-0.156,0.215 -0.233,0.534 -0.233,0.957Z" style="fill-opacity:0.54;fill-rule:nonzero;"/><path d="M51.008,9.964c-0.451,0 -0.819,-0.148 -1.102,-0.445c-0.283,-0.296 -0.424,-0.692 -0.424,-1.189l0,-0.104c0,-0.331 0.063,-0.626 0.189,-0.885c0.126,-0.26 0.303,-0.463 0.529,-0.609c0.227,-0.147 0.472,-0.22 0.737,-0.22c0.433,0 0.769,0.142 1.009,0.427c0.24,0.286 0.36,0.694 0.36,1.225l0,0.237l-2.255,0c0.008,0.328 0.104,0.593 0.288,0.795c0.183,0.202 0.417,0.303 0.7,0.303c0.201,0 0.371,-0.041 0.51,-0.123c0.14,-0.082 0.262,-0.191 0.367,-0.326l0.347,0.271c-0.279,0.429 -0.697,0.643 -1.255,0.643Zm-0.071,-2.985c-0.23,0 -0.422,0.084 -0.578,0.251c-0.156,0.167 -0.253,0.402 -0.29,0.703l1.668,0l0,-0.043c-0.016,-0.289 -0.094,-0.513 -0.234,-0.672c-0.139,-0.159 -0.328,-0.239 -0.566,-0.239Z" style="fill-opacity:0.54;fill-rule:nonzero;"/><path d="M54.058,9.13l0.825,-2.557l0.581,0l-1.194,3.329l-0.433,0l-1.207,-3.329l0.582,0l0.846,2.557Z" style="fill-opacity:0.54;fill-rule:nonzero;"/><path d="M56.625,9.902l-0.569,0l0,-3.329l0.569,0l0,3.329Zm-0.615,-4.212c0,-0.092 0.028,-0.17 0.084,-0.234c0.057,-0.063 0.14,-0.095 0.251,-0.095c0.111,0 0.195,0.032 0.252,0.095c0.058,0.064 0.087,0.142 0.087,0.234c0,0.093 -0.029,0.169 -0.087,0.231c-0.057,0.062 -0.141,0.092 -0.252,0.092c-0.111,0 -0.194,-0.03 -0.251,-0.092c-0.056,-0.062 -0.084,-0.138 -0.084,-0.231Z" style="fill-opacity:0.54;fill-rule:nonzero;"/><path d="M58.866,9.499c0.203,0 0.381,-0.061 0.532,-0.184c0.152,-0.123 0.236,-0.277 0.253,-0.462l0.538,0c-0.01,0.191 -0.076,0.372 -0.197,0.545c-0.121,0.172 -0.282,0.31 -0.484,0.412c-0.202,0.103 -0.416,0.154 -0.642,0.154c-0.453,0 -0.814,-0.151 -1.081,-0.454c-0.268,-0.302 -0.402,-0.716 -0.402,-1.241l0,-0.096c0,-0.324 0.06,-0.612 0.179,-0.864c0.119,-0.253 0.289,-0.449 0.512,-0.588c0.222,-0.14 0.486,-0.209 0.789,-0.209c0.373,0 0.684,0.112 0.931,0.335c0.247,0.224 0.379,0.514 0.395,0.871l-0.538,0c-0.017,-0.216 -0.098,-0.392 -0.245,-0.531c-0.147,-0.138 -0.328,-0.208 -0.543,-0.208c-0.289,0 -0.513,0.105 -0.672,0.313c-0.159,0.208 -0.239,0.509 -0.239,0.903l0,0.107c0,0.384 0.079,0.679 0.237,0.887c0.158,0.207 0.384,0.31 0.677,0.31Z" style="fill-opacity:0.54;fill-rule:nonzero;"/><path d="M62.206,9.964c-0.452,0 -0.819,-0.148 -1.102,-0.445c-0.283,-0.296 -0.425,-0.692 -0.425,-1.189l0,-0.104c0,-0.331 0.064,-0.626 0.19,-0.885c0.126,-0.26 0.302,-0.463 0.529,-0.609c0.227,-0.147 0.472,-0.22 0.737,-0.22c0.433,0 0.769,0.142 1.009,0.427c0.24,0.286 0.36,0.694 0.36,1.225l0,0.237l-2.255,0c0.008,0.328 0.104,0.593 0.287,0.795c0.184,0.202 0.417,0.303 0.7,0.303c0.201,0 0.372,-0.041 0.511,-0.123c0.14,-0.082 0.262,-0.191 0.366,-0.326l0.348,0.271c-0.279,0.429 -0.698,0.643 -1.255,0.643Zm-0.071,-2.985c-0.23,0 -0.423,0.084 -0.579,0.251c-0.156,0.167 -0.252,0.402 -0.289,0.703l1.668,0l0,-0.043c-0.017,-0.289 -0.095,-0.513 -0.234,-0.672c-0.14,-0.159 -0.328,-0.239 -0.566,-0.239Z" style="fill-opacity:0.54;fill-rule:nonzero;"/></g><g><path d="M36.031,153.339l0,6.894l-5.011,0l0,-6.894l5.011,0Zm-0.496,6.409l0,-5.918l-4.03,0l0,5.918l4.03,0Zm-0.765,-3.924c0,0.158 -0.028,0.312 -0.084,0.461c-0.056,0.15 -0.142,0.281 -0.258,0.396c-0.116,0.114 -0.265,0.205 -0.446,0.274c-0.181,0.068 -0.398,0.103 -0.652,0.103l-0.021,0.833l-0.527,0l-0.032,-1.329l0.602,0c0.506,0 0.759,-0.23 0.759,-0.691c0,-0.158 -0.037,-0.301 -0.111,-0.427c-0.074,-0.127 -0.177,-0.235 -0.311,-0.325c-0.133,-0.089 -0.294,-0.158 -0.482,-0.205c-0.189,-0.048 -0.395,-0.072 -0.62,-0.072l-0.185,0l0,-0.527l0.216,0c0.37,0 0.689,0.045 0.958,0.135c0.269,0.089 0.492,0.205 0.67,0.348c0.177,0.142 0.309,0.304 0.395,0.485c0.086,0.181 0.129,0.361 0.129,0.541Zm-1.73,2.542c0.13,0 0.239,0.045 0.325,0.134c0.086,0.09 0.129,0.2 0.129,0.33c0,0.063 -0.011,0.122 -0.034,0.177c-0.023,0.054 -0.055,0.102 -0.095,0.142c-0.041,0.041 -0.089,0.073 -0.145,0.098c-0.057,0.024 -0.116,0.037 -0.18,0.037c-0.063,0 -0.122,-0.013 -0.176,-0.037c-0.055,-0.025 -0.102,-0.057 -0.143,-0.098c-0.04,-0.04 -0.073,-0.088 -0.097,-0.142c-0.025,-0.055 -0.037,-0.114 -0.037,-0.177c0,-0.063 0.012,-0.123 0.037,-0.179c0.024,-0.057 0.057,-0.106 0.097,-0.148c0.041,-0.042 0.088,-0.076 0.143,-0.1c0.054,-0.025 0.113,-0.037 0.176,-0.037Z" style="fill:#3367d6;fill-rule:nonzero;"/><path d="M31.002,166.084l0,-3.84l1.084,0c0.334,0 0.629,0.074 0.886,0.222c0.256,0.148 0.455,0.358 0.594,0.63c0.14,0.273 0.211,0.586 0.213,0.939l0,0.245c0,0.362 -0.07,0.68 -0.21,0.952c-0.14,0.273 -0.339,0.482 -0.599,0.628c-0.259,0.146 -0.561,0.221 -0.905,0.224l-1.063,0Zm0.506,-3.426l0,3.012l0.533,0c0.39,0 0.694,-0.121 0.911,-0.364c0.217,-0.243 0.326,-0.589 0.326,-1.038l0,-0.224c0,-0.436 -0.103,-0.775 -0.308,-1.017c-0.204,-0.242 -0.495,-0.365 -0.871,-0.369l-0.591,0Z" style="fill-opacity:0.54;fill-rule:nonzero;"/><path d="M35.651,166.137c-0.387,0 -0.702,-0.127 -0.944,-0.381c-0.243,-0.254 -0.364,-0.594 -0.364,-1.019l0,-0.09c0,-0.283 0.054,-0.536 0.162,-0.758c0.108,-0.223 0.259,-0.397 0.454,-0.523c0.194,-0.125 0.405,-0.188 0.631,-0.188c0.371,0 0.66,0.122 0.865,0.366c0.206,0.245 0.309,0.595 0.309,1.05l0,0.203l-1.933,0c0.007,0.281 0.089,0.509 0.246,0.682c0.158,0.173 0.358,0.26 0.6,0.26c0.173,0 0.319,-0.036 0.438,-0.106c0.12,-0.07 0.224,-0.163 0.314,-0.279l0.298,0.232c-0.239,0.367 -0.598,0.551 -1.076,0.551Zm-0.061,-2.558c-0.197,0 -0.362,0.071 -0.495,0.215c-0.134,0.143 -0.217,0.344 -0.248,0.602l1.429,0l0,-0.037c-0.014,-0.248 -0.081,-0.44 -0.2,-0.576c-0.12,-0.136 -0.282,-0.204 -0.486,-0.204Z" style="fill-opacity:0.54;fill-rule:nonzero;"/><path d="M38.989,165.327c0,-0.132 -0.049,-0.234 -0.149,-0.307c-0.099,-0.073 -0.272,-0.136 -0.519,-0.189c-0.247,-0.052 -0.443,-0.116 -0.588,-0.189c-0.145,-0.074 -0.252,-0.162 -0.322,-0.264c-0.069,-0.102 -0.104,-0.223 -0.104,-0.364c0,-0.234 0.099,-0.432 0.297,-0.593c0.197,-0.162 0.45,-0.243 0.758,-0.243c0.323,0 0.586,0.083 0.787,0.25c0.201,0.167 0.302,0.381 0.302,0.641l-0.491,0c0,-0.133 -0.056,-0.249 -0.17,-0.345c-0.113,-0.097 -0.256,-0.145 -0.428,-0.145c-0.178,0 -0.317,0.038 -0.417,0.116c-0.1,0.077 -0.15,0.178 -0.15,0.303c0,0.118 0.046,0.207 0.14,0.266c0.093,0.06 0.261,0.117 0.505,0.172c0.243,0.054 0.44,0.119 0.592,0.195c0.151,0.076 0.263,0.167 0.336,0.273c0.073,0.106 0.109,0.236 0.109,0.389c0,0.255 -0.102,0.459 -0.306,0.613c-0.204,0.154 -0.468,0.231 -0.793,0.231c-0.229,0 -0.431,-0.041 -0.607,-0.121c-0.176,-0.081 -0.313,-0.194 -0.413,-0.339c-0.099,-0.145 -0.149,-0.302 -0.149,-0.471l0.488,0c0.009,0.163 0.074,0.293 0.197,0.389c0.122,0.096 0.283,0.144 0.484,0.144c0.184,0 0.332,-0.038 0.444,-0.112c0.112,-0.075 0.167,-0.175 0.167,-0.3Z" style="fill-opacity:0.54;fill-rule:nonzero;"/><path d="M40.909,164.763l-0.306,0.319l0,1.002l-0.488,0l0,-4.051l0.488,0l0,2.45l0.261,-0.314l0.889,-0.938l0.593,0l-1.11,1.192l1.24,1.661l-0.573,0l-0.994,-1.321Z" style="fill-opacity:0.54;fill-rule:nonzero;"/><path d="M43.512,162.54l0,0.691l0.533,0l0,0.377l-0.533,0l0,1.772c0,0.114 0.024,0.2 0.071,0.257c0.047,0.057 0.128,0.086 0.243,0.086c0.056,0 0.133,-0.011 0.232,-0.032l0,0.393c-0.129,0.035 -0.253,0.053 -0.375,0.053c-0.218,0 -0.382,-0.066 -0.493,-0.198c-0.111,-0.132 -0.166,-0.319 -0.166,-0.562l0,-1.769l-0.52,0l0,-0.377l0.52,0l0,-0.691l0.488,0Z" style="fill-opacity:0.54;fill-rule:nonzero;"/><path d="M44.432,164.631c0,-0.28 0.055,-0.531 0.165,-0.754c0.11,-0.224 0.263,-0.396 0.459,-0.517c0.196,-0.121 0.419,-0.182 0.671,-0.182c0.388,0 0.703,0.134 0.943,0.403c0.24,0.269 0.36,0.627 0.36,1.074l0,0.034c0,0.278 -0.054,0.527 -0.16,0.748c-0.106,0.22 -0.258,0.392 -0.456,0.515c-0.198,0.123 -0.425,0.185 -0.682,0.185c-0.387,0 -0.7,-0.135 -0.94,-0.404c-0.24,-0.269 -0.36,-0.625 -0.36,-1.068l0,-0.034Zm0.49,0.058c0,0.317 0.074,0.571 0.221,0.762c0.146,0.192 0.343,0.288 0.589,0.288c0.248,0 0.445,-0.097 0.591,-0.292c0.146,-0.194 0.219,-0.466 0.219,-0.816c0,-0.313 -0.075,-0.567 -0.223,-0.761c-0.149,-0.194 -0.346,-0.291 -0.592,-0.291c-0.241,0 -0.435,0.096 -0.583,0.287c-0.148,0.192 -0.222,0.466 -0.222,0.823Z" style="fill-opacity:0.54;fill-rule:nonzero;"/><path d="M50.052,164.689c0,0.434 -0.1,0.784 -0.298,1.05c-0.199,0.265 -0.468,0.398 -0.807,0.398c-0.347,0 -0.619,-0.11 -0.818,-0.33l0,1.374l-0.488,0l0,-3.95l0.446,0l0.024,0.316c0.198,-0.246 0.474,-0.369 0.828,-0.369c0.343,0 0.614,0.129 0.813,0.388c0.2,0.258 0.3,0.618 0.3,1.078l0,0.045Zm-0.488,-0.055c0,-0.322 -0.069,-0.576 -0.206,-0.763c-0.137,-0.186 -0.325,-0.279 -0.564,-0.279c-0.296,0 -0.517,0.131 -0.665,0.393l0,1.363c0.146,0.261 0.369,0.391 0.67,0.391c0.234,0 0.42,-0.093 0.558,-0.279c0.138,-0.185 0.207,-0.461 0.207,-0.826Z" style="fill-opacity:0.54;fill-rule:nonzero;"/><path d="M34.492,173.509c0,0.298 -0.087,0.566 -0.261,0.802c-0.174,0.236 -0.403,0.409 -0.688,0.52c0.332,0.113 0.598,0.296 0.799,0.55c0.2,0.253 0.3,0.546 0.3,0.878c0,0.493 -0.167,0.884 -0.502,1.173c-0.335,0.289 -0.778,0.433 -1.329,0.433c-0.557,0 -1.002,-0.144 -1.335,-0.431c-0.334,-0.288 -0.501,-0.679 -0.501,-1.175c0,-0.327 0.097,-0.619 0.289,-0.874c0.193,-0.256 0.456,-0.441 0.791,-0.554c-0.284,-0.111 -0.511,-0.284 -0.68,-0.52c-0.169,-0.236 -0.253,-0.504 -0.253,-0.802c0,-0.477 0.153,-0.857 0.461,-1.139c0.307,-0.282 0.714,-0.423 1.22,-0.423c0.506,0 0.914,0.142 1.224,0.427c0.31,0.285 0.465,0.663 0.465,1.135Zm-0.324,2.754c0,-0.359 -0.128,-0.654 -0.384,-0.884c-0.256,-0.231 -0.583,-0.347 -0.981,-0.347c-0.398,0 -0.724,0.114 -0.977,0.341c-0.253,0.227 -0.38,0.523 -0.38,0.89c0,0.366 0.123,0.658 0.368,0.876c0.245,0.218 0.578,0.326 0.997,0.326c0.409,0 0.737,-0.108 0.985,-0.324c0.248,-0.216 0.372,-0.509 0.372,-0.878Zm-0.151,-2.757c0,-0.33 -0.114,-0.605 -0.342,-0.825c-0.228,-0.22 -0.519,-0.331 -0.872,-0.331c-0.359,0 -0.649,0.107 -0.872,0.319c-0.223,0.212 -0.335,0.491 -0.335,0.837c0,0.337 0.112,0.609 0.335,0.814c0.223,0.206 0.515,0.309 0.876,0.309c0.356,0 0.647,-0.104 0.872,-0.311c0.226,-0.207 0.338,-0.478 0.338,-0.812Z" style="fill-opacity:0.87;fill-rule:nonzero;"/><path d="M39.193,177.786l-3.608,0l0,-0.364l1.974,-2.239c0.327,-0.377 0.554,-0.689 0.681,-0.934c0.126,-0.245 0.189,-0.484 0.189,-0.716c0,-0.364 -0.106,-0.652 -0.32,-0.864c-0.214,-0.212 -0.508,-0.319 -0.882,-0.319c-0.388,0 -0.701,0.124 -0.94,0.372c-0.238,0.248 -0.358,0.57 -0.358,0.965l-0.47,0c0,-0.324 0.073,-0.619 0.219,-0.886c0.147,-0.266 0.355,-0.475 0.625,-0.627c0.27,-0.151 0.578,-0.227 0.924,-0.227c0.527,0 0.939,0.138 1.236,0.415c0.297,0.277 0.445,0.654 0.445,1.132c0,0.269 -0.084,0.563 -0.251,0.882c-0.168,0.319 -0.462,0.717 -0.884,1.194l-1.606,1.816l3.026,0l0,0.4Z" style="fill-opacity:0.87;fill-rule:nonzero;"/><path d="M40.104,177.501c0,-0.092 0.03,-0.171 0.089,-0.235c0.059,-0.065 0.142,-0.097 0.247,-0.097c0.106,0 0.189,0.032 0.249,0.097c0.061,0.064 0.091,0.143 0.091,0.235c0,0.092 -0.03,0.168 -0.091,0.227c-0.06,0.06 -0.143,0.089 -0.249,0.089c-0.105,0 -0.188,-0.029 -0.247,-0.089c-0.059,-0.059 -0.089,-0.135 -0.089,-0.227Z" style="fill-opacity:0.87;fill-rule:nonzero;"/><path d="M45.552,172.299l-2.46,5.487l-0.495,0l2.445,-5.356l-3.275,0l0,-0.404l3.785,0l0,0.273Z" style="fill-opacity:0.87;fill-rule:nonzero;"/><path d="M46.38,173.134c0,-0.343 0.107,-0.627 0.319,-0.853c0.212,-0.225 0.482,-0.338 0.809,-0.338c0.327,0 0.597,0.113 0.809,0.338c0.212,0.226 0.318,0.518 0.318,0.876l0,0.281c0,0.338 -0.105,0.619 -0.314,0.845c-0.21,0.225 -0.478,0.338 -0.805,0.338c-0.325,0 -0.595,-0.111 -0.811,-0.332c-0.216,-0.222 -0.325,-0.514 -0.325,-0.878l0,-0.277Zm0.384,0.303c0,0.245 0.068,0.448 0.204,0.606c0.136,0.159 0.318,0.238 0.548,0.238c0.224,0 0.403,-0.08 0.536,-0.24c0.133,-0.16 0.2,-0.367 0.2,-0.62l0,-0.29c0,-0.245 -0.069,-0.448 -0.206,-0.608c-0.137,-0.16 -0.317,-0.24 -0.538,-0.24c-0.219,0 -0.398,0.079 -0.536,0.238c-0.139,0.159 -0.208,0.37 -0.208,0.634l0,0.282Zm2.516,2.937c0,-0.343 0.106,-0.627 0.319,-0.851c0.212,-0.224 0.48,-0.336 0.805,-0.336c0.324,0 0.594,0.111 0.809,0.334c0.214,0.223 0.322,0.516 0.322,0.88l0,0.281c0,0.343 -0.106,0.626 -0.319,0.851c-0.212,0.224 -0.48,0.336 -0.805,0.336c-0.324,0 -0.594,-0.112 -0.809,-0.334c-0.214,-0.223 -0.322,-0.514 -0.322,-0.873l0,-0.288Zm0.38,0.306c0,0.249 0.068,0.452 0.204,0.611c0.135,0.158 0.318,0.238 0.547,0.238c0.227,0 0.407,-0.08 0.54,-0.24c0.134,-0.16 0.2,-0.369 0.2,-0.628l0,-0.29c0,-0.253 -0.068,-0.458 -0.204,-0.612c-0.135,-0.155 -0.317,-0.232 -0.543,-0.232c-0.222,0 -0.401,0.078 -0.538,0.234c-0.138,0.156 -0.206,0.365 -0.206,0.626l0,0.293Zm-1.994,0.627l-0.297,-0.19l2.813,-4.502l0.297,0.19l-2.813,4.502Z" style="fill-opacity:0.87;fill-rule:nonzero;"/><path d="M37.291,182.944l0,0.414l-0.09,0c-0.38,0.007 -0.682,0.12 -0.907,0.338c-0.225,0.218 -0.355,0.525 -0.39,0.92c0.202,-0.232 0.478,-0.348 0.828,-0.348c0.334,0 0.601,0.118 0.8,0.354c0.2,0.235 0.299,0.539 0.299,0.912c0,0.396 -0.107,0.712 -0.323,0.95c-0.215,0.237 -0.504,0.356 -0.866,0.356c-0.367,0 -0.665,-0.141 -0.894,-0.424c-0.229,-0.282 -0.343,-0.645 -0.343,-1.09l0,-0.187c0,-0.707 0.151,-1.247 0.452,-1.621c0.302,-0.374 0.751,-0.565 1.347,-0.574l0.087,0Zm-0.641,1.73c-0.167,0 -0.321,0.051 -0.462,0.151c-0.14,0.1 -0.238,0.226 -0.292,0.377l0,0.179c0,0.317 0.071,0.572 0.213,0.765c0.143,0.193 0.32,0.29 0.533,0.29c0.22,0 0.392,-0.081 0.518,-0.242c0.126,-0.162 0.189,-0.374 0.189,-0.636c0,-0.264 -0.064,-0.477 -0.191,-0.64c-0.128,-0.162 -0.297,-0.244 -0.508,-0.244Z" style="fill:#db4437;fill-rule:nonzero;"/><path d="M38.474,186.531c0,-0.084 0.025,-0.155 0.075,-0.211c0.05,-0.056 0.126,-0.084 0.226,-0.084c0.1,0 0.176,0.028 0.228,0.084c0.052,0.056 0.078,0.127 0.078,0.211c0,0.081 -0.026,0.149 -0.078,0.203c-0.052,0.055 -0.128,0.082 -0.228,0.082c-0.1,0 -0.176,-0.027 -0.226,-0.082c-0.05,-0.054 -0.075,-0.122 -0.075,-0.203Z" style="fill:#db4437;fill-rule:nonzero;"/><path d="M40.064,184.862l0.195,-1.915l1.967,0l0,0.451l-1.553,0l-0.116,1.047c0.188,-0.111 0.402,-0.166 0.641,-0.166c0.349,0 0.627,0.115 0.833,0.347c0.206,0.231 0.309,0.543 0.309,0.937c0,0.396 -0.107,0.707 -0.321,0.935c-0.214,0.228 -0.512,0.342 -0.895,0.342c-0.34,0 -0.616,-0.094 -0.831,-0.283c-0.214,-0.188 -0.337,-0.448 -0.367,-0.78l0.462,0c0.03,0.22 0.108,0.385 0.235,0.497c0.126,0.112 0.293,0.167 0.501,0.167c0.227,0 0.405,-0.077 0.534,-0.232c0.129,-0.154 0.194,-0.368 0.194,-0.641c0,-0.256 -0.07,-0.462 -0.21,-0.618c-0.14,-0.156 -0.326,-0.233 -0.558,-0.233c-0.213,0 -0.38,0.046 -0.501,0.139l-0.129,0.106l-0.39,-0.1Z" style="fill:#db4437;fill-rule:nonzero;"/><path d="M42.835,183.685c0,-0.23 0.073,-0.42 0.22,-0.569c0.147,-0.15 0.335,-0.224 0.565,-0.224c0.234,0 0.424,0.075 0.569,0.225c0.145,0.15 0.217,0.345 0.217,0.584l0,0.188c0,0.232 -0.073,0.421 -0.22,0.568c-0.147,0.147 -0.333,0.22 -0.56,0.22c-0.229,0 -0.418,-0.073 -0.567,-0.22c-0.15,-0.147 -0.224,-0.343 -0.224,-0.587l0,-0.185Zm0.364,0.202c0,0.138 0.038,0.251 0.116,0.34c0.077,0.089 0.181,0.134 0.311,0.134c0.125,0 0.225,-0.044 0.302,-0.13c0.076,-0.086 0.114,-0.204 0.114,-0.354l0,-0.193c0,-0.138 -0.037,-0.251 -0.113,-0.341c-0.076,-0.09 -0.178,-0.135 -0.309,-0.135c-0.13,0 -0.232,0.045 -0.308,0.135c-0.076,0.09 -0.113,0.207 -0.113,0.352l0,0.192Zm1.505,1.958c0,-0.23 0.074,-0.419 0.221,-0.568c0.146,-0.149 0.335,-0.223 0.565,-0.223c0.231,0 0.42,0.074 0.567,0.222c0.148,0.147 0.222,0.343 0.222,0.588l0,0.187c0,0.23 -0.074,0.42 -0.22,0.568c-0.147,0.149 -0.335,0.223 -0.563,0.223c-0.229,0 -0.418,-0.073 -0.567,-0.22c-0.15,-0.147 -0.225,-0.342 -0.225,-0.587l0,-0.19Zm0.364,0.205c0,0.139 0.039,0.253 0.116,0.342c0.078,0.089 0.181,0.134 0.312,0.134c0.126,0 0.227,-0.044 0.303,-0.131c0.075,-0.087 0.113,-0.206 0.113,-0.356l0,-0.195c0,-0.139 -0.038,-0.253 -0.114,-0.341c-0.077,-0.088 -0.179,-0.132 -0.308,-0.132c-0.125,0 -0.226,0.043 -0.304,0.131c-0.079,0.087 -0.118,0.204 -0.118,0.352l0,0.196Zm-1.331,0.447l-0.277,-0.174l1.875,-3.001l0.277,0.174l-1.875,3.001Z" style="fill:#db4437;fill-rule:nonzero;"/></g><g><path d="M97.243,153.339l0,6.894l-5.01,0l0,-6.894l5.01,0Zm-0.495,6.409l0,-5.918l-4.03,0l0,5.918l4.03,0Zm-0.765,-3.924c0,0.158 -0.028,0.312 -0.085,0.461c-0.056,0.15 -0.142,0.281 -0.258,0.396c-0.116,0.114 -0.265,0.205 -0.446,0.274c-0.181,0.068 -0.398,0.103 -0.651,0.103l-0.021,0.833l-0.528,0l-0.031,-1.329l0.601,0c0.506,0 0.76,-0.23 0.76,-0.691c0,-0.158 -0.037,-0.301 -0.111,-0.427c-0.074,-0.127 -0.178,-0.235 -0.311,-0.325c-0.134,-0.089 -0.295,-0.158 -0.483,-0.205c-0.188,-0.048 -0.395,-0.072 -0.62,-0.072l-0.184,0l0,-0.527l0.216,0c0.369,0 0.688,0.045 0.957,0.135c0.269,0.089 0.492,0.205 0.67,0.348c0.178,0.142 0.31,0.304 0.396,0.485c0.086,0.181 0.129,0.361 0.129,0.541Zm-1.73,2.542c0.13,0 0.238,0.045 0.324,0.134c0.086,0.09 0.129,0.2 0.129,0.33c0,0.063 -0.011,0.122 -0.034,0.177c-0.023,0.054 -0.054,0.102 -0.095,0.142c-0.04,0.041 -0.089,0.073 -0.145,0.098c-0.056,0.024 -0.116,0.037 -0.179,0.037c-0.063,0 -0.122,-0.013 -0.177,-0.037c-0.054,-0.025 -0.102,-0.057 -0.142,-0.098c-0.041,-0.04 -0.073,-0.088 -0.098,-0.142c-0.024,-0.055 -0.037,-0.114 -0.037,-0.177c0,-0.063 0.013,-0.123 0.037,-0.179c0.025,-0.057 0.057,-0.106 0.098,-0.148c0.04,-0.042 0.088,-0.076 0.142,-0.1c0.055,-0.025 0.114,-0.037 0.177,-0.037Z" style="fill:#2b57a0;fill-rule:nonzero;"/><path d="M92.868,162.244l1.256,3.133l1.255,-3.133l0.657,0l0,3.84l-0.507,0l0,-1.495l0.048,-1.614l-1.261,3.109l-0.388,0l-1.258,-3.101l0.051,1.606l0,1.495l-0.507,0l0,-3.84l0.654,0Z" style="fill-opacity:0.54;fill-rule:nonzero;"/><path d="M96.722,164.631c0,-0.28 0.055,-0.531 0.165,-0.754c0.11,-0.224 0.263,-0.396 0.459,-0.517c0.196,-0.121 0.42,-0.182 0.671,-0.182c0.389,0 0.703,0.134 0.943,0.403c0.24,0.269 0.36,0.627 0.36,1.074l0,0.034c0,0.278 -0.053,0.527 -0.16,0.748c-0.106,0.22 -0.258,0.392 -0.456,0.515c-0.198,0.123 -0.425,0.185 -0.682,0.185c-0.387,0 -0.7,-0.135 -0.94,-0.404c-0.24,-0.269 -0.36,-0.625 -0.36,-1.068l0,-0.034Zm0.491,0.058c0,0.317 0.073,0.571 0.22,0.762c0.147,0.192 0.343,0.288 0.589,0.288c0.248,0 0.445,-0.097 0.591,-0.292c0.146,-0.194 0.219,-0.466 0.219,-0.816c0,-0.313 -0.074,-0.567 -0.223,-0.761c-0.149,-0.194 -0.346,-0.291 -0.592,-0.291c-0.241,0 -0.435,0.096 -0.583,0.287c-0.148,0.192 -0.221,0.466 -0.221,0.823Z" style="fill-opacity:0.54;fill-rule:nonzero;"/><path d="M102.345,164.689c0,0.436 -0.1,0.786 -0.3,1.051c-0.201,0.265 -0.47,0.397 -0.807,0.397c-0.361,0 -0.639,-0.128 -0.836,-0.383l-0.024,0.33l-0.448,0l0,-4.051l0.488,0l0,1.511c0.197,-0.244 0.468,-0.366 0.815,-0.366c0.346,0 0.618,0.131 0.816,0.393c0.198,0.262 0.296,0.62 0.296,1.076l0,0.042Zm-0.487,-0.055c0,-0.333 -0.065,-0.589 -0.193,-0.77c-0.128,-0.182 -0.313,-0.272 -0.554,-0.272c-0.322,0 -0.553,0.149 -0.693,0.448l0,1.235c0.149,0.298 0.382,0.448 0.698,0.448c0.234,0 0.416,-0.091 0.546,-0.272c0.131,-0.181 0.196,-0.453 0.196,-0.817Z" style="fill-opacity:0.54;fill-rule:nonzero;"/><path d="M103.488,166.084l-0.488,0l0,-2.853l0.488,0l0,2.853Zm-0.527,-3.61c0,-0.079 0.024,-0.146 0.072,-0.201c0.049,-0.054 0.12,-0.081 0.215,-0.081c0.095,0 0.167,0.027 0.216,0.081c0.05,0.055 0.074,0.122 0.074,0.201c0,0.079 -0.024,0.145 -0.074,0.198c-0.049,0.052 -0.121,0.079 -0.216,0.079c-0.095,0 -0.166,-0.027 -0.215,-0.079c-0.048,-0.053 -0.072,-0.119 -0.072,-0.198Z" style="fill-opacity:0.54;fill-rule:nonzero;"/><rect x="104.309" y="162.033" width="0.488" height="4.051" style="fill-opacity:0.54;fill-rule:nonzero;"/><path d="M106.76,166.137c-0.387,0 -0.702,-0.127 -0.944,-0.381c-0.243,-0.254 -0.364,-0.594 -0.364,-1.019l0,-0.09c0,-0.283 0.054,-0.536 0.162,-0.758c0.108,-0.223 0.259,-0.397 0.454,-0.523c0.194,-0.125 0.404,-0.188 0.631,-0.188c0.371,0 0.659,0.122 0.865,0.366c0.206,0.245 0.309,0.595 0.309,1.05l0,0.203l-1.933,0c0.007,0.281 0.089,0.509 0.246,0.682c0.158,0.173 0.358,0.26 0.6,0.26c0.173,0 0.318,-0.036 0.438,-0.106c0.12,-0.07 0.224,-0.163 0.314,-0.279l0.298,0.232c-0.239,0.367 -0.598,0.551 -1.076,0.551Zm-0.061,-2.558c-0.197,0 -0.362,0.071 -0.496,0.215c-0.133,0.143 -0.216,0.344 -0.248,0.602l1.43,0l0,-0.037c-0.014,-0.248 -0.081,-0.44 -0.201,-0.576c-0.119,-0.136 -0.281,-0.204 -0.485,-0.204Z" style="fill-opacity:0.54;fill-rule:nonzero;"/><path d="M94.514,177.786l-0.475,0l0,-5.19l-1.566,0.581l0,-0.443l1.962,-0.728l0.079,0l0,5.78Z" style="fill-opacity:0.87;fill-rule:nonzero;"/><path d="M100.346,172.299l-2.46,5.487l-0.495,0l2.445,-5.356l-3.276,0l0,-0.404l3.786,0l0,0.273Z" style="fill-opacity:0.87;fill-rule:nonzero;"/><path d="M101.316,177.501c0,-0.092 0.03,-0.171 0.089,-0.235c0.06,-0.065 0.142,-0.097 0.248,-0.097c0.105,0 0.188,0.032 0.249,0.097c0.061,0.064 0.091,0.143 0.091,0.235c0,0.092 -0.03,0.168 -0.091,0.227c-0.061,0.06 -0.144,0.089 -0.249,0.089c-0.106,0 -0.188,-0.029 -0.248,-0.089c-0.059,-0.059 -0.089,-0.135 -0.089,-0.227Z" style="fill-opacity:0.87;fill-rule:nonzero;"/><path d="M104.269,174.649l0.49,0c0.272,0 0.509,-0.048 0.712,-0.145c0.203,-0.096 0.358,-0.228 0.465,-0.395c0.107,-0.168 0.16,-0.361 0.16,-0.58c0,-0.369 -0.104,-0.658 -0.312,-0.866c-0.208,-0.208 -0.508,-0.313 -0.898,-0.313c-0.369,0 -0.672,0.109 -0.908,0.327c-0.236,0.217 -0.354,0.504 -0.354,0.86l-0.475,0c0,-0.298 0.075,-0.57 0.226,-0.817c0.15,-0.246 0.358,-0.437 0.625,-0.571c0.266,-0.135 0.561,-0.202 0.886,-0.202c0.522,0 0.933,0.142 1.234,0.427c0.301,0.285 0.451,0.675 0.451,1.171c0,0.277 -0.088,0.532 -0.263,0.766c-0.175,0.233 -0.416,0.408 -0.722,0.524c0.359,0.1 0.63,0.272 0.815,0.516c0.185,0.244 0.277,0.535 0.277,0.872c0,0.493 -0.161,0.89 -0.483,1.191c-0.321,0.301 -0.751,0.451 -1.289,0.451c-0.343,0 -0.658,-0.069 -0.944,-0.206c-0.286,-0.137 -0.507,-0.329 -0.664,-0.575c-0.157,-0.247 -0.236,-0.534 -0.236,-0.861l0.475,0c0,0.367 0.128,0.665 0.384,0.896c0.255,0.231 0.584,0.346 0.985,0.346c0.408,0 0.727,-0.104 0.955,-0.314c0.228,-0.21 0.342,-0.514 0.342,-0.912c0,-0.385 -0.123,-0.679 -0.37,-0.882c-0.246,-0.203 -0.61,-0.305 -1.09,-0.305l-0.474,0l0,-0.403Z" style="fill-opacity:0.87;fill-rule:nonzero;"/><path d="M107.593,173.134c0,-0.343 0.106,-0.627 0.318,-0.853c0.213,-0.225 0.482,-0.338 0.809,-0.338c0.327,0 0.597,0.113 0.809,0.338c0.213,0.226 0.319,0.518 0.319,0.876l0,0.281c0,0.338 -0.105,0.619 -0.315,0.845c-0.209,0.225 -0.478,0.338 -0.805,0.338c-0.324,0 -0.594,-0.111 -0.811,-0.332c-0.216,-0.222 -0.324,-0.514 -0.324,-0.878l0,-0.277Zm0.384,0.303c0,0.245 0.068,0.448 0.203,0.606c0.136,0.159 0.319,0.238 0.548,0.238c0.224,0 0.403,-0.08 0.536,-0.24c0.133,-0.16 0.2,-0.367 0.2,-0.62l0,-0.29c0,-0.245 -0.069,-0.448 -0.206,-0.608c-0.137,-0.16 -0.316,-0.24 -0.538,-0.24c-0.219,0 -0.397,0.079 -0.536,0.238c-0.138,0.159 -0.207,0.37 -0.207,0.634l0,0.282Zm2.516,2.937c0,-0.343 0.106,-0.627 0.318,-0.851c0.212,-0.224 0.481,-0.336 0.805,-0.336c0.324,0 0.594,0.111 0.809,0.334c0.215,0.223 0.322,0.516 0.322,0.88l0,0.281c0,0.343 -0.106,0.626 -0.318,0.851c-0.212,0.224 -0.481,0.336 -0.805,0.336c-0.324,0 -0.594,-0.112 -0.809,-0.334c-0.215,-0.223 -0.322,-0.514 -0.322,-0.873l0,-0.288Zm0.379,0.306c0,0.249 0.068,0.452 0.204,0.611c0.136,0.158 0.318,0.238 0.548,0.238c0.227,0 0.407,-0.08 0.54,-0.24c0.133,-0.16 0.2,-0.369 0.2,-0.628l0,-0.29c0,-0.253 -0.068,-0.458 -0.204,-0.612c-0.136,-0.155 -0.317,-0.232 -0.544,-0.232c-0.222,0 -0.401,0.078 -0.538,0.234c-0.137,0.156 -0.206,0.365 -0.206,0.626l0,0.293Zm-1.993,0.627l-0.297,-0.19l2.812,-4.502l0.297,0.19l-2.812,4.502Z" style="fill-opacity:0.87;fill-rule:nonzero;"/><path d="M98.917,183.949c0,0.192 -0.05,0.362 -0.151,0.512c-0.101,0.149 -0.238,0.266 -0.41,0.351c0.2,0.086 0.359,0.211 0.476,0.377c0.116,0.165 0.175,0.352 0.175,0.561c0,0.333 -0.112,0.597 -0.336,0.794c-0.224,0.197 -0.519,0.296 -0.885,0.296c-0.369,0 -0.665,-0.099 -0.888,-0.297c-0.222,-0.198 -0.333,-0.462 -0.333,-0.793c0,-0.207 0.057,-0.394 0.17,-0.561c0.113,-0.167 0.27,-0.294 0.471,-0.38c-0.171,-0.084 -0.305,-0.201 -0.404,-0.351c-0.098,-0.149 -0.147,-0.319 -0.147,-0.509c0,-0.323 0.103,-0.58 0.311,-0.77c0.207,-0.19 0.481,-0.285 0.82,-0.285c0.337,0 0.61,0.095 0.819,0.285c0.208,0.19 0.312,0.447 0.312,0.77Zm-0.398,1.791c0,-0.215 -0.068,-0.39 -0.204,-0.525c-0.137,-0.135 -0.315,-0.203 -0.534,-0.203c-0.22,0 -0.396,0.067 -0.529,0.2c-0.133,0.134 -0.199,0.31 -0.199,0.528c0,0.218 0.064,0.389 0.194,0.514c0.129,0.125 0.309,0.187 0.539,0.187c0.228,0 0.408,-0.062 0.538,-0.188c0.13,-0.126 0.195,-0.297 0.195,-0.513Zm-0.733,-2.445c-0.192,0 -0.347,0.06 -0.466,0.178c-0.118,0.119 -0.178,0.28 -0.178,0.484c0,0.195 0.059,0.353 0.176,0.474c0.117,0.12 0.273,0.18 0.468,0.18c0.195,0 0.351,-0.06 0.468,-0.18c0.117,-0.121 0.175,-0.279 0.175,-0.474c0,-0.195 -0.06,-0.354 -0.182,-0.477c-0.121,-0.123 -0.275,-0.185 -0.461,-0.185Z" style="fill:#0f9d58;fill-rule:nonzero;"/><path d="M102.034,185.149c0,0.572 -0.098,0.996 -0.293,1.274c-0.195,0.278 -0.5,0.417 -0.915,0.417c-0.41,0 -0.713,-0.136 -0.91,-0.408c-0.197,-0.271 -0.299,-0.677 -0.306,-1.217l0,-0.651c0,-0.565 0.098,-0.984 0.293,-1.258c0.195,-0.275 0.501,-0.412 0.918,-0.412c0.413,0 0.717,0.133 0.912,0.397c0.195,0.265 0.295,0.673 0.301,1.225l0,0.633Zm-0.488,-0.667c0,-0.413 -0.058,-0.714 -0.174,-0.903c-0.116,-0.189 -0.3,-0.284 -0.551,-0.284c-0.25,0 -0.432,0.094 -0.546,0.282c-0.115,0.188 -0.173,0.478 -0.177,0.868l0,0.781c0,0.415 0.06,0.721 0.181,0.919c0.12,0.198 0.302,0.296 0.547,0.296c0.241,0 0.42,-0.093 0.537,-0.279c0.116,-0.187 0.178,-0.48 0.183,-0.881l0,-0.799Z" style="fill:#0f9d58;fill-rule:nonzero;"/><path d="M102.724,186.531c0,-0.084 0.025,-0.155 0.075,-0.211c0.05,-0.056 0.125,-0.084 0.226,-0.084c0.1,0 0.176,0.028 0.228,0.084c0.052,0.056 0.077,0.127 0.077,0.211c0,0.081 -0.025,0.149 -0.077,0.203c-0.052,0.055 -0.128,0.082 -0.228,0.082c-0.101,0 -0.176,-0.027 -0.226,-0.082c-0.05,-0.054 -0.075,-0.122 -0.075,-0.203Z" style="fill:#0f9d58;fill-rule:nonzero;"/><path d="M106.497,185.149c0,0.572 -0.098,0.996 -0.293,1.274c-0.195,0.278 -0.5,0.417 -0.915,0.417c-0.409,0 -0.713,-0.136 -0.91,-0.408c-0.197,-0.271 -0.299,-0.677 -0.306,-1.217l0,-0.651c0,-0.565 0.098,-0.984 0.293,-1.258c0.195,-0.275 0.501,-0.412 0.918,-0.412c0.413,0 0.717,0.133 0.912,0.397c0.196,0.265 0.296,0.673 0.301,1.225l0,0.633Zm-0.488,-0.667c0,-0.413 -0.058,-0.714 -0.174,-0.903c-0.116,-0.189 -0.3,-0.284 -0.551,-0.284c-0.25,0 -0.432,0.094 -0.546,0.282c-0.114,0.188 -0.173,0.478 -0.177,0.868l0,0.781c0,0.415 0.061,0.721 0.181,0.919c0.12,0.198 0.303,0.296 0.547,0.296c0.241,0 0.42,-0.093 0.537,-0.279c0.117,-0.187 0.178,-0.48 0.183,-0.881l0,-0.799Z" style="fill:#0f9d58;fill-rule:nonzero;"/><path d="M107.084,183.685c0,-0.23 0.074,-0.42 0.221,-0.569c0.146,-0.15 0.335,-0.224 0.565,-0.224c0.234,0 0.424,0.075 0.569,0.225c0.145,0.15 0.217,0.345 0.217,0.584l0,0.188c0,0.232 -0.073,0.421 -0.22,0.568c-0.147,0.147 -0.334,0.22 -0.56,0.22c-0.229,0 -0.418,-0.073 -0.567,-0.22c-0.15,-0.147 -0.225,-0.343 -0.225,-0.587l0,-0.185Zm0.364,0.202c0,0.138 0.039,0.251 0.116,0.34c0.078,0.089 0.181,0.134 0.312,0.134c0.124,0 0.225,-0.044 0.302,-0.13c0.076,-0.086 0.114,-0.204 0.114,-0.354l0,-0.193c0,-0.138 -0.038,-0.251 -0.113,-0.341c-0.076,-0.09 -0.179,-0.135 -0.309,-0.135c-0.13,0 -0.233,0.045 -0.308,0.135c-0.076,0.09 -0.114,0.207 -0.114,0.352l0,0.192Zm1.506,1.958c0,-0.23 0.074,-0.419 0.22,-0.568c0.147,-0.149 0.336,-0.223 0.566,-0.223c0.23,0 0.419,0.074 0.567,0.222c0.148,0.147 0.222,0.343 0.222,0.588l0,0.187c0,0.23 -0.074,0.42 -0.221,0.568c-0.146,0.149 -0.334,0.223 -0.563,0.223c-0.228,0 -0.417,-0.073 -0.567,-0.22c-0.149,-0.147 -0.224,-0.342 -0.224,-0.587l0,-0.19Zm0.364,0.205c0,0.139 0.039,0.253 0.116,0.342c0.078,0.089 0.181,0.134 0.311,0.134c0.127,0 0.228,-0.044 0.304,-0.131c0.075,-0.087 0.113,-0.206 0.113,-0.356l0,-0.195c0,-0.139 -0.038,-0.253 -0.115,-0.341c-0.076,-0.088 -0.179,-0.132 -0.307,-0.132c-0.125,0 -0.226,0.043 -0.304,0.131c-0.079,0.087 -0.118,0.204 -0.118,0.352l0,0.196Zm-1.332,0.447l-0.277,-0.174l1.876,-3.001l0.276,0.174l-1.875,3.001Z" style="fill:#0f9d58;fill-rule:nonzero;"/></g></g></g></g></svg>