<?xml version="1.0" encoding="UTF-8" standalone="no"?><!DOCTYPE svg PUBLIC "-//W3C//DTD SVG 1.1//EN" "http://www.w3.org/Graphics/SVG/1.1/DTD/svg11.dtd"><svg width="100%" height="100%" viewBox="0 0 140 203" version="1.1" xmlns="http://www.w3.org/2000/svg" xmlns:xlink="http://www.w3.org/1999/xlink" xml:space="preserve" xmlns:serif="http://www.serif.com/" style="fill-rule:evenodd;clip-rule:evenodd;stroke-linejoin:round;stroke-miterlimit:2;"><clipPath id="_clip1"><rect id="Page-1" serif:id="Page 1" x="0" y="0" width="139.013" height="202.9"/></clipPath><g clip-path="url(#_clip1)"><rect x="-554.343" y="-341.32" width="792" height="612" style="fill:none;"/><g><clipPath id="_clip2"><rect x="-525.343" y="-312.32" width="735" height="554.963"/></clipPath><g clip-path="url(#_clip2)"><rect x="-525.343" y="-312.32" width="735" height="988.402" style="fill:#fff;"/><rect x="-525.343" y="-283.514" width="735" height="959.596" style="fill:#fff;"/><g><clipPath id="_clip3"><rect x="-525.343" y="-283.514" width="735" height="526.157"/></clipPath><g clip-path="url(#_clip3)"><rect x="-525.343" y="-283.514" width="735" height="959.596" style="fill:#fff;"/><rect x="-525.343" y="-283.514" width="735" height="937.991" style="fill:#fff;"/></g></g><g><clipPath id="_clip4"><path d="M209.657,-283.514l-735,0l0,526.157l735,0l0,-526.157Zm-209.743,281.751l0,222.357c0,0.596 0.298,0.895 0.895,0.895l141.34,0c0.596,0 0.894,-0.299 0.894,-0.895l0,-222.357c0,-0.596 -0.298,-0.894 -0.894,-0.894l-141.34,0c-0.597,0 -0.895,0.298 -0.895,0.894Z"/></clipPath><g clip-path="url(#_clip4)"></g></g><path d="M-0.536,221.038l0,-223.245c0,-0.249 0.088,-0.461 0.264,-0.637c0.175,-0.175 0.388,-0.263 0.636,-0.263l142.229,0c0.249,0 0.461,0.088 0.637,0.263c0.176,0.176 0.263,0.388 0.263,0.637l0,223.245c0,0.249 -0.087,0.461 -0.263,0.637c-0.176,0.176 -0.388,0.264 -0.637,0.264l-142.229,0c-0.248,0 -0.461,-0.088 -0.636,-0.264c-0.176,-0.176 -0.264,-0.388 -0.264,-0.637Z" style="fill:#fff;fill-rule:nonzero;"/><g><path d="M13.715,9.066l0,3.046c-0.002,0.423 -0.135,0.769 -0.399,1.037c-0.263,0.269 -0.621,0.42 -1.072,0.453l-0.157,0.006c-0.49,0 -0.881,-0.133 -1.172,-0.397c-0.291,-0.265 -0.439,-0.629 -0.443,-1.093l0,-3.052l0.585,0l0,3.034c0,0.324 0.089,0.576 0.267,0.755c0.179,0.18 0.433,0.27 0.763,0.27c0.335,0 0.591,-0.09 0.768,-0.268c0.177,-0.179 0.266,-0.43 0.266,-0.754l0,-3.037l0.594,0Z" style="fill-opacity:0.54;fill-rule:nonzero;"/><path d="M16.495,12.663c0,-0.154 -0.058,-0.273 -0.174,-0.358c-0.116,-0.085 -0.318,-0.159 -0.606,-0.22c-0.288,-0.062 -0.517,-0.136 -0.686,-0.222c-0.17,-0.086 -0.295,-0.189 -0.376,-0.308c-0.081,-0.119 -0.121,-0.26 -0.121,-0.424c0,-0.273 0.115,-0.504 0.346,-0.692c0.231,-0.189 0.525,-0.284 0.884,-0.284c0.378,0 0.684,0.098 0.919,0.293c0.235,0.195 0.352,0.444 0.352,0.747l-0.572,0c0,-0.155 -0.066,-0.29 -0.199,-0.403c-0.132,-0.112 -0.299,-0.169 -0.5,-0.169c-0.207,0 -0.369,0.045 -0.486,0.136c-0.117,0.09 -0.175,0.208 -0.175,0.353c0,0.138 0.054,0.241 0.163,0.311c0.109,0.07 0.305,0.137 0.589,0.2c0.284,0.064 0.515,0.14 0.691,0.228c0.176,0.088 0.307,0.194 0.392,0.318c0.085,0.124 0.128,0.276 0.128,0.454c0,0.298 -0.119,0.536 -0.357,0.715c-0.238,0.18 -0.547,0.27 -0.926,0.27c-0.267,0 -0.503,-0.048 -0.708,-0.142c-0.205,-0.094 -0.365,-0.226 -0.481,-0.395c-0.116,-0.169 -0.174,-0.353 -0.174,-0.549l0.569,0c0.01,0.19 0.087,0.342 0.229,0.453c0.143,0.112 0.331,0.168 0.565,0.168c0.215,0 0.388,-0.044 0.518,-0.131c0.131,-0.087 0.196,-0.203 0.196,-0.349Z" style="fill-opacity:0.54;fill-rule:nonzero;"/><path d="M19.185,13.608c-0.451,0 -0.818,-0.149 -1.101,-0.445c-0.283,-0.296 -0.425,-0.693 -0.425,-1.189l0,-0.105c0,-0.33 0.063,-0.625 0.189,-0.884c0.127,-0.26 0.303,-0.463 0.53,-0.61c0.226,-0.146 0.472,-0.22 0.737,-0.22c0.432,0 0.769,0.143 1.009,0.428c0.24,0.285 0.36,0.693 0.36,1.225l0,0.237l-2.256,0c0.009,0.328 0.105,0.593 0.288,0.795c0.184,0.202 0.417,0.303 0.7,0.303c0.201,0 0.371,-0.041 0.511,-0.123c0.139,-0.082 0.261,-0.191 0.366,-0.326l0.348,0.271c-0.279,0.428 -0.698,0.643 -1.256,0.643Zm-0.07,-2.985c-0.23,0 -0.423,0.084 -0.579,0.251c-0.156,0.167 -0.252,0.401 -0.289,0.703l1.668,0l0,-0.043c-0.017,-0.289 -0.095,-0.513 -0.234,-0.672c-0.14,-0.159 -0.329,-0.239 -0.566,-0.239Z" style="fill-opacity:0.54;fill-rule:nonzero;"/><path d="M22.75,10.728c-0.086,-0.015 -0.18,-0.022 -0.28,-0.022c-0.374,0 -0.627,0.159 -0.76,0.477l0,2.363l-0.569,0l0,-3.329l0.553,0l0.01,0.385c0.186,-0.298 0.451,-0.447 0.793,-0.447c0.111,0 0.195,0.015 0.253,0.044l0,0.529Z" style="fill-opacity:0.54;fill-rule:nonzero;"/><path d="M25.209,12.663c0,-0.154 -0.057,-0.273 -0.173,-0.358c-0.116,-0.085 -0.318,-0.159 -0.606,-0.22c-0.289,-0.062 -0.517,-0.136 -0.687,-0.222c-0.169,-0.086 -0.294,-0.189 -0.375,-0.308c-0.081,-0.119 -0.121,-0.26 -0.121,-0.424c0,-0.273 0.115,-0.504 0.346,-0.692c0.23,-0.189 0.525,-0.284 0.884,-0.284c0.378,0 0.684,0.098 0.919,0.293c0.235,0.195 0.352,0.444 0.352,0.747l-0.572,0c0,-0.155 -0.066,-0.29 -0.199,-0.403c-0.132,-0.112 -0.299,-0.169 -0.5,-0.169c-0.207,0 -0.369,0.045 -0.486,0.136c-0.117,0.09 -0.175,0.208 -0.175,0.353c0,0.138 0.054,0.241 0.163,0.311c0.108,0.07 0.305,0.137 0.589,0.2c0.284,0.064 0.514,0.14 0.691,0.228c0.176,0.088 0.307,0.194 0.392,0.318c0.085,0.124 0.128,0.276 0.128,0.454c0,0.298 -0.119,0.536 -0.357,0.715c-0.238,0.18 -0.547,0.27 -0.926,0.27c-0.267,0 -0.503,-0.048 -0.708,-0.142c-0.205,-0.094 -0.366,-0.226 -0.482,-0.395c-0.115,-0.169 -0.173,-0.353 -0.173,-0.549l0.569,0c0.01,0.19 0.087,0.342 0.229,0.453c0.143,0.112 0.331,0.168 0.565,0.168c0.215,0 0.388,-0.044 0.518,-0.131c0.13,-0.087 0.195,-0.203 0.195,-0.349Z" style="fill-opacity:0.54;fill-rule:nonzero;"/><path d="M30.895,11.918c0,0.509 -0.117,0.918 -0.351,1.227c-0.233,0.308 -0.547,0.463 -0.941,0.463c-0.421,0 -0.746,-0.149 -0.975,-0.446l-0.028,0.384l-0.523,0l0,-4.726l0.569,0l0,1.763c0.23,-0.285 0.547,-0.428 0.951,-0.428c0.404,0 0.721,0.153 0.952,0.459c0.231,0.306 0.346,0.724 0.346,1.255l0,0.049Zm-0.569,-0.064c0,-0.388 -0.075,-0.687 -0.225,-0.899c-0.149,-0.211 -0.365,-0.316 -0.646,-0.316c-0.375,0 -0.645,0.174 -0.809,0.523l0,1.44c0.174,0.348 0.446,0.523 0.815,0.523c0.273,0 0.486,-0.106 0.637,-0.317c0.152,-0.212 0.228,-0.53 0.228,-0.954Z" style="fill-opacity:0.54;fill-rule:nonzero;"/><path d="M32.666,12.712l0.775,-2.495l0.609,0l-1.338,3.843c-0.207,0.554 -0.536,0.831 -0.988,0.831l-0.107,-0.01l-0.213,-0.04l0,-0.461l0.154,0.012c0.193,0 0.343,-0.039 0.451,-0.117c0.108,-0.078 0.196,-0.22 0.266,-0.427l0.126,-0.339l-1.187,-3.292l0.621,0l0.831,2.495Z" style="fill-opacity:0.54;fill-rule:nonzero;"/><path d="M36.887,9.411l0,0.806l0.622,0l0,0.44l-0.622,0l0,2.067c0,0.134 0.028,0.234 0.083,0.3c0.055,0.067 0.15,0.101 0.283,0.101c0.066,0 0.156,-0.013 0.271,-0.037l0,0.459c-0.15,0.04 -0.295,0.061 -0.437,0.061c-0.254,0 -0.446,-0.077 -0.575,-0.231c-0.13,-0.154 -0.194,-0.372 -0.194,-0.655l0,-2.065l-0.606,0l0,-0.44l0.606,0l0,-0.806l0.569,0Z" style="fill-opacity:0.54;fill-rule:nonzero;"/><path d="M38.79,13.546l-0.569,0l0,-3.329l0.569,0l0,3.329Zm-0.615,-4.212c0,-0.092 0.028,-0.17 0.084,-0.234c0.057,-0.063 0.14,-0.095 0.251,-0.095c0.111,0 0.195,0.032 0.252,0.095c0.058,0.064 0.086,0.142 0.086,0.234c0,0.092 -0.028,0.169 -0.086,0.231c-0.057,0.061 -0.141,0.092 -0.252,0.092c-0.111,0 -0.194,-0.031 -0.251,-0.092c-0.056,-0.062 -0.084,-0.139 -0.084,-0.231Z" style="fill-opacity:0.54;fill-rule:nonzero;"/><path d="M40.234,10.217l0.016,0.369c0.244,-0.287 0.573,-0.431 0.987,-0.431c0.466,0 0.783,0.179 0.951,0.536c0.111,-0.16 0.255,-0.289 0.432,-0.388c0.178,-0.098 0.388,-0.148 0.63,-0.148c0.73,0 1.101,0.387 1.113,1.16l0,2.231l-0.569,0l0,-2.197c0,-0.238 -0.054,-0.416 -0.163,-0.534c-0.109,-0.117 -0.291,-0.176 -0.547,-0.176c-0.212,0 -0.387,0.063 -0.527,0.189c-0.139,0.126 -0.22,0.296 -0.243,0.509l0,2.209l-0.572,0l0,-2.181c0,-0.484 -0.237,-0.726 -0.711,-0.726c-0.373,0 -0.628,0.159 -0.766,0.476l0,2.431l-0.569,0l0,-3.329l0.538,0Z" style="fill-opacity:0.54;fill-rule:nonzero;"/><path d="M46.602,13.608c-0.451,0 -0.819,-0.149 -1.102,-0.445c-0.283,-0.296 -0.424,-0.693 -0.424,-1.189l0,-0.105c0,-0.33 0.063,-0.625 0.189,-0.884c0.126,-0.26 0.302,-0.463 0.529,-0.61c0.227,-0.146 0.472,-0.22 0.737,-0.22c0.433,0 0.769,0.143 1.009,0.428c0.24,0.285 0.36,0.693 0.36,1.225l0,0.237l-2.255,0c0.008,0.328 0.104,0.593 0.288,0.795c0.183,0.202 0.416,0.303 0.7,0.303c0.201,0 0.371,-0.041 0.51,-0.123c0.14,-0.082 0.262,-0.191 0.366,-0.326l0.348,0.271c-0.279,0.428 -0.697,0.643 -1.255,0.643Zm-0.071,-2.985c-0.23,0 -0.423,0.084 -0.578,0.251c-0.156,0.167 -0.253,0.401 -0.29,0.703l1.668,0l0,-0.043c-0.016,-0.289 -0.094,-0.513 -0.234,-0.672c-0.139,-0.159 -0.328,-0.239 -0.566,-0.239Z" style="fill-opacity:0.54;fill-rule:nonzero;"/><path d="M49.965,11.851c0,-0.326 0.064,-0.62 0.192,-0.88c0.128,-0.261 0.306,-0.462 0.535,-0.603c0.229,-0.142 0.49,-0.213 0.783,-0.213c0.454,0 0.82,0.157 1.1,0.471c0.28,0.314 0.42,0.731 0.42,1.253l0,0.039c0,0.325 -0.062,0.615 -0.186,0.873c-0.124,0.257 -0.301,0.458 -0.532,0.601c-0.231,0.144 -0.496,0.216 -0.796,0.216c-0.451,0 -0.816,-0.157 -1.096,-0.471c-0.28,-0.314 -0.42,-0.729 -0.42,-1.246l0,-0.04Zm0.572,0.067c0,0.37 0.085,0.666 0.257,0.89c0.171,0.223 0.4,0.335 0.687,0.335c0.29,0 0.519,-0.113 0.69,-0.34c0.17,-0.227 0.255,-0.544 0.255,-0.952c0,-0.365 -0.087,-0.661 -0.26,-0.888c-0.173,-0.227 -0.404,-0.34 -0.691,-0.34c-0.281,0 -0.507,0.112 -0.68,0.336c-0.172,0.223 -0.258,0.543 -0.258,0.959Z" style="fill-opacity:0.54;fill-rule:nonzero;"/><path d="M53.987,13.546l0,-2.889l-0.526,0l0,-0.44l0.526,0l0,-0.341c0,-0.357 0.096,-0.633 0.286,-0.828c0.191,-0.195 0.461,-0.292 0.81,-0.292c0.131,0 0.261,0.017 0.39,0.052l-0.03,0.458c-0.097,-0.018 -0.199,-0.027 -0.308,-0.027c-0.185,0 -0.327,0.054 -0.428,0.162c-0.1,0.108 -0.15,0.263 -0.15,0.464l0,0.352l0.71,0l0,0.44l-0.71,0l0,2.889l-0.57,0Z" style="fill-opacity:0.54;fill-rule:nonzero;"/><path d="M57.313,11.854c0,-0.511 0.121,-0.922 0.363,-1.232c0.242,-0.311 0.559,-0.467 0.951,-0.467c0.39,0 0.698,0.134 0.926,0.4l0,-1.735l0.569,0l0,4.726l-0.523,0l-0.027,-0.357c-0.228,0.279 -0.545,0.419 -0.951,0.419c-0.386,0 -0.7,-0.158 -0.943,-0.474c-0.243,-0.316 -0.365,-0.728 -0.365,-1.237l0,-0.043Zm0.569,0.064c0,0.378 0.078,0.673 0.234,0.887c0.156,0.213 0.372,0.32 0.646,0.32c0.361,0 0.625,-0.162 0.791,-0.487l0,-1.529c-0.17,-0.314 -0.432,-0.47 -0.784,-0.47c-0.279,0 -0.497,0.107 -0.653,0.323c-0.156,0.215 -0.234,0.534 -0.234,0.956Z" style="fill-opacity:0.54;fill-rule:nonzero;"/><path d="M63.059,13.546c-0.033,-0.066 -0.059,-0.182 -0.08,-0.351c-0.265,0.275 -0.58,0.413 -0.948,0.413c-0.328,0 -0.597,-0.093 -0.807,-0.279c-0.211,-0.185 -0.316,-0.421 -0.316,-0.706c0,-0.347 0.132,-0.616 0.396,-0.808c0.263,-0.191 0.634,-0.287 1.112,-0.287l0.554,0l0,-0.262c0,-0.199 -0.06,-0.357 -0.179,-0.475c-0.119,-0.118 -0.294,-0.177 -0.526,-0.177c-0.203,0 -0.373,0.051 -0.511,0.154c-0.137,0.102 -0.206,0.226 -0.206,0.372l-0.572,0c0,-0.166 0.059,-0.327 0.177,-0.481c0.118,-0.155 0.278,-0.278 0.48,-0.368c0.202,-0.09 0.424,-0.136 0.666,-0.136c0.384,0 0.684,0.096 0.902,0.288c0.217,0.192 0.33,0.456 0.338,0.792l0,1.533c0,0.305 0.039,0.548 0.117,0.729l0,0.049l-0.597,0Zm-0.945,-0.434c0.179,0 0.348,-0.046 0.508,-0.138c0.16,-0.092 0.276,-0.212 0.348,-0.36l0,-0.683l-0.446,0c-0.698,0 -1.046,0.204 -1.046,0.612c0,0.179 0.059,0.318 0.178,0.419c0.119,0.1 0.272,0.15 0.458,0.15Z" style="fill-opacity:0.54;fill-rule:nonzero;"/><path d="M65.511,12.712l0.776,-2.495l0.609,0l-1.339,3.843c-0.207,0.554 -0.536,0.831 -0.987,0.831l-0.108,-0.01l-0.212,-0.04l0,-0.461l0.154,0.012c0.192,0 0.343,-0.039 0.45,-0.117c0.108,-0.078 0.197,-0.22 0.266,-0.427l0.127,-0.339l-1.188,-3.292l0.621,0l0.831,2.495Z" style="fill-opacity:0.54;fill-rule:nonzero;"/></g><g><path d="M13.194,173.201c-0.435,-0.124 -0.751,-0.278 -0.948,-0.46c-0.198,-0.182 -0.297,-0.406 -0.297,-0.674c0,-0.302 0.121,-0.552 0.363,-0.75c0.241,-0.198 0.556,-0.297 0.942,-0.297c0.264,0 0.499,0.051 0.706,0.153c0.206,0.102 0.366,0.243 0.48,0.422c0.113,0.18 0.17,0.376 0.17,0.588l-0.509,0c0,-0.232 -0.074,-0.415 -0.222,-0.549c-0.147,-0.133 -0.356,-0.2 -0.625,-0.2c-0.249,0 -0.444,0.056 -0.584,0.166c-0.14,0.11 -0.209,0.263 -0.209,0.458c0,0.157 0.066,0.289 0.199,0.398c0.132,0.108 0.358,0.207 0.677,0.297c0.32,0.09 0.569,0.189 0.749,0.297c0.181,0.108 0.314,0.234 0.401,0.378c0.087,0.144 0.131,0.314 0.131,0.509c0,0.311 -0.122,0.561 -0.364,0.748c-0.243,0.187 -0.567,0.281 -0.973,0.281c-0.264,0 -0.51,-0.051 -0.739,-0.152c-0.228,-0.101 -0.405,-0.239 -0.528,-0.415c-0.124,-0.176 -0.186,-0.376 -0.186,-0.599l0.509,0c0,0.232 0.085,0.415 0.257,0.55c0.171,0.134 0.4,0.202 0.687,0.202c0.267,0 0.472,-0.055 0.614,-0.164c0.143,-0.109 0.214,-0.257 0.214,-0.445c0,-0.189 -0.066,-0.334 -0.198,-0.437c-0.132,-0.103 -0.371,-0.204 -0.717,-0.305Z" style="fill-opacity:0.54;fill-rule:nonzero;"/><path d="M16.949,174.631c-0.19,0.223 -0.468,0.335 -0.836,0.335c-0.304,0 -0.536,-0.089 -0.695,-0.265c-0.159,-0.177 -0.239,-0.438 -0.241,-0.785l0,-1.856l0.488,0l0,1.843c0,0.432 0.176,0.649 0.527,0.649c0.373,0 0.621,-0.139 0.744,-0.417l0,-2.075l0.488,0l0,2.853l-0.464,0l-0.011,-0.282Z" style="fill-opacity:0.54;fill-rule:nonzero;"/><path d="M18.624,172.06l0.016,0.358c0.218,-0.274 0.503,-0.411 0.854,-0.411c0.603,0 0.908,0.34 0.913,1.02l0,1.886l-0.488,0l0,-1.888c-0.002,-0.206 -0.049,-0.358 -0.141,-0.456c-0.092,-0.099 -0.236,-0.148 -0.431,-0.148c-0.159,0 -0.297,0.042 -0.417,0.126c-0.12,0.085 -0.213,0.196 -0.28,0.333l0,2.033l-0.487,0l0,-2.853l0.461,0Z" style="fill-opacity:0.54;fill-rule:nonzero;"/><path d="M27.609,171.073l1.255,3.133l1.255,-3.133l0.657,0l0,3.84l-0.506,0l0,-1.495l0.047,-1.614l-1.261,3.109l-0.387,0l-1.258,-3.101l0.05,1.606l0,1.495l-0.506,0l0,-3.84l0.654,0Z" style="fill-opacity:0.54;fill-rule:nonzero;"/><path d="M31.462,173.46c0,-0.28 0.055,-0.531 0.165,-0.754c0.11,-0.224 0.262,-0.396 0.458,-0.517c0.197,-0.122 0.42,-0.182 0.672,-0.182c0.388,0 0.703,0.134 0.943,0.403c0.239,0.269 0.359,0.627 0.359,1.074l0,0.034c0,0.278 -0.053,0.527 -0.159,0.748c-0.106,0.22 -0.259,0.392 -0.456,0.515c-0.198,0.123 -0.425,0.185 -0.682,0.185c-0.387,0 -0.7,-0.135 -0.94,-0.404c-0.24,-0.269 -0.36,-0.625 -0.36,-1.068l0,-0.034Zm0.49,0.058c0,0.316 0.074,0.57 0.221,0.762c0.146,0.192 0.343,0.288 0.589,0.288c0.248,0 0.445,-0.098 0.591,-0.292c0.146,-0.194 0.219,-0.466 0.219,-0.816c0,-0.313 -0.075,-0.567 -0.223,-0.761c-0.149,-0.194 -0.346,-0.291 -0.592,-0.291c-0.241,0 -0.435,0.095 -0.583,0.287c-0.148,0.192 -0.222,0.466 -0.222,0.823Z" style="fill-opacity:0.54;fill-rule:nonzero;"/><path d="M35.13,172.06l0.016,0.358c0.218,-0.274 0.503,-0.411 0.855,-0.411c0.603,0 0.907,0.34 0.912,1.02l0,1.886l-0.488,0l0,-1.888c-0.002,-0.206 -0.049,-0.358 -0.141,-0.456c-0.092,-0.099 -0.236,-0.148 -0.431,-0.148c-0.158,0 -0.297,0.042 -0.417,0.126c-0.119,0.085 -0.212,0.196 -0.279,0.333l0,2.033l-0.488,0l0,-2.853l0.461,0Z" style="fill-opacity:0.54;fill-rule:nonzero;"/><path d="M44.898,171.487l-1.234,0l0,3.426l-0.504,0l0,-3.426l-1.231,0l0,-0.414l2.969,0l0,0.414Z" style="fill-opacity:0.54;fill-rule:nonzero;"/><path d="M46.9,174.631c-0.19,0.223 -0.469,0.335 -0.836,0.335c-0.304,0 -0.536,-0.089 -0.695,-0.265c-0.159,-0.177 -0.24,-0.438 -0.241,-0.785l0,-1.856l0.488,0l0,1.843c0,0.432 0.175,0.649 0.527,0.649c0.373,0 0.621,-0.139 0.744,-0.417l0,-2.075l0.488,0l0,2.853l-0.465,0l-0.01,-0.282Z" style="fill-opacity:0.54;fill-rule:nonzero;"/><path d="M49.297,174.966c-0.386,0 -0.701,-0.127 -0.944,-0.381c-0.242,-0.254 -0.364,-0.594 -0.364,-1.02l0,-0.089c0,-0.283 0.054,-0.536 0.162,-0.758c0.109,-0.223 0.26,-0.397 0.454,-0.523c0.194,-0.125 0.405,-0.188 0.632,-0.188c0.371,0 0.659,0.122 0.865,0.366c0.205,0.245 0.308,0.595 0.308,1.05l0,0.203l-1.933,0c0.007,0.281 0.089,0.509 0.247,0.682c0.157,0.173 0.357,0.26 0.6,0.26c0.172,0 0.318,-0.036 0.437,-0.106c0.12,-0.07 0.225,-0.163 0.314,-0.279l0.298,0.232c-0.239,0.367 -0.597,0.551 -1.076,0.551Zm-0.06,-2.558c-0.197,0 -0.363,0.071 -0.496,0.215c-0.134,0.143 -0.216,0.344 -0.248,0.602l1.429,0l0,-0.037c-0.014,-0.248 -0.081,-0.44 -0.2,-0.576c-0.12,-0.136 -0.281,-0.204 -0.485,-0.204Z" style="fill-opacity:0.54;fill-rule:nonzero;"/><path d="M57.615,173.703l0.073,0.506l0.109,-0.456l0.759,-2.68l0.427,0l0.741,2.68l0.106,0.464l0.082,-0.517l0.596,-2.627l0.509,0l-0.931,3.84l-0.462,0l-0.791,-2.798l-0.061,-0.293l-0.06,0.293l-0.82,2.798l-0.462,0l-0.928,-3.84l0.506,0l0.607,2.63Z" style="fill-opacity:0.54;fill-rule:nonzero;"/><path d="M62.602,174.966c-0.387,0 -0.702,-0.127 -0.944,-0.381c-0.243,-0.254 -0.364,-0.594 -0.364,-1.02l0,-0.089c0,-0.283 0.054,-0.536 0.162,-0.758c0.108,-0.223 0.259,-0.397 0.454,-0.523c0.194,-0.125 0.404,-0.188 0.631,-0.188c0.371,0 0.659,0.122 0.865,0.366c0.206,0.245 0.309,0.595 0.309,1.05l0,0.203l-1.933,0c0.007,0.281 0.089,0.509 0.246,0.682c0.158,0.173 0.358,0.26 0.6,0.26c0.172,0 0.318,-0.036 0.438,-0.106c0.12,-0.07 0.224,-0.163 0.314,-0.279l0.298,0.232c-0.239,0.367 -0.598,0.551 -1.076,0.551Zm-0.061,-2.558c-0.197,0 -0.362,0.071 -0.496,0.215c-0.133,0.143 -0.216,0.344 -0.248,0.602l1.43,0l0,-0.037c-0.014,-0.248 -0.081,-0.44 -0.201,-0.576c-0.119,-0.136 -0.281,-0.204 -0.485,-0.204Z" style="fill-opacity:0.54;fill-rule:nonzero;"/><path d="M64.158,173.463c0,-0.438 0.104,-0.79 0.311,-1.057c0.208,-0.266 0.479,-0.399 0.815,-0.399c0.334,0 0.599,0.114 0.794,0.343l0,-1.488l0.488,0l0,4.051l-0.449,0l-0.023,-0.306c-0.195,0.239 -0.467,0.359 -0.815,0.359c-0.331,0 -0.6,-0.136 -0.809,-0.406c-0.208,-0.271 -0.312,-0.625 -0.312,-1.061l0,-0.036Zm0.488,0.055c0,0.323 0.067,0.577 0.2,0.759c0.134,0.183 0.318,0.275 0.554,0.275c0.31,0 0.535,-0.139 0.678,-0.417l0,-1.311c-0.146,-0.269 -0.37,-0.403 -0.673,-0.403c-0.239,0 -0.425,0.092 -0.559,0.277c-0.133,0.184 -0.2,0.458 -0.2,0.82Z" style="fill-opacity:0.54;fill-rule:nonzero;"/><path d="M75.081,171.487l-1.234,0l0,3.426l-0.504,0l0,-3.426l-1.232,0l0,-0.414l2.97,0l0,0.414Z" style="fill-opacity:0.54;fill-rule:nonzero;"/><path d="M76.059,172.405c0.217,-0.265 0.498,-0.398 0.844,-0.398c0.603,0 0.907,0.34 0.913,1.02l0,1.886l-0.488,0l0,-1.888c-0.002,-0.206 -0.049,-0.358 -0.141,-0.456c-0.093,-0.099 -0.236,-0.148 -0.431,-0.148c-0.159,0 -0.298,0.042 -0.417,0.126c-0.12,0.085 -0.213,0.196 -0.28,0.333l0,2.033l-0.488,0l0,-4.051l0.488,0l0,1.543Z" style="fill-opacity:0.54;fill-rule:nonzero;"/><path d="M80.305,174.631c-0.189,0.223 -0.468,0.335 -0.836,0.335c-0.304,0 -0.535,-0.089 -0.694,-0.265c-0.16,-0.177 -0.24,-0.438 -0.242,-0.785l0,-1.856l0.488,0l0,1.843c0,0.432 0.176,0.649 0.528,0.649c0.372,0 0.62,-0.139 0.743,-0.417l0,-2.075l0.488,0l0,2.853l-0.464,0l-0.011,-0.282Z" style="fill-opacity:0.54;fill-rule:nonzero;"/><path d="M89.451,173.217l-1.611,0l0,1.696l-0.507,0l0,-3.84l2.379,0l0,0.414l-1.872,0l0,1.316l1.611,0l0,0.414Z" style="fill-opacity:0.54;fill-rule:nonzero;"/><path d="M91.55,172.497c-0.074,-0.012 -0.154,-0.018 -0.24,-0.018c-0.32,0 -0.537,0.136 -0.651,0.409l0,2.025l-0.488,0l0,-2.853l0.475,0l0.008,0.329c0.16,-0.255 0.386,-0.382 0.68,-0.382c0.095,0 0.167,0.012 0.216,0.037l0,0.453Z" style="fill-opacity:0.54;fill-rule:nonzero;"/><path d="M92.526,174.913l-0.488,0l0,-2.853l0.488,0l0,2.853Zm-0.527,-3.61c0,-0.079 0.024,-0.146 0.072,-0.201c0.049,-0.054 0.12,-0.082 0.215,-0.082c0.095,0 0.167,0.028 0.216,0.082c0.05,0.055 0.074,0.122 0.074,0.201c0,0.079 -0.024,0.145 -0.074,0.197c-0.049,0.053 -0.121,0.08 -0.216,0.08c-0.095,0 -0.166,-0.027 -0.215,-0.08c-0.048,-0.052 -0.072,-0.118 -0.072,-0.197Z" style="fill-opacity:0.54;fill-rule:nonzero;"/><path d="M102.699,173.201c-0.435,-0.124 -0.751,-0.278 -0.948,-0.46c-0.198,-0.182 -0.297,-0.406 -0.297,-0.674c0,-0.302 0.121,-0.552 0.363,-0.75c0.241,-0.198 0.556,-0.297 0.942,-0.297c0.264,0 0.499,0.051 0.706,0.153c0.206,0.102 0.366,0.243 0.48,0.422c0.113,0.18 0.17,0.376 0.17,0.588l-0.509,0c0,-0.232 -0.074,-0.415 -0.222,-0.549c-0.147,-0.133 -0.356,-0.2 -0.625,-0.2c-0.249,0 -0.444,0.056 -0.584,0.166c-0.14,0.11 -0.209,0.263 -0.209,0.458c0,0.157 0.066,0.289 0.199,0.398c0.132,0.108 0.358,0.207 0.677,0.297c0.32,0.09 0.569,0.189 0.749,0.297c0.181,0.108 0.314,0.234 0.401,0.378c0.087,0.144 0.131,0.314 0.131,0.509c0,0.311 -0.122,0.561 -0.364,0.748c-0.243,0.187 -0.567,0.281 -0.973,0.281c-0.264,0 -0.51,-0.051 -0.739,-0.152c-0.228,-0.101 -0.405,-0.239 -0.528,-0.415c-0.124,-0.176 -0.186,-0.376 -0.186,-0.599l0.509,0c0,0.232 0.085,0.415 0.257,0.55c0.171,0.134 0.4,0.202 0.687,0.202c0.267,0 0.472,-0.055 0.614,-0.164c0.143,-0.109 0.214,-0.257 0.214,-0.445c0,-0.189 -0.066,-0.334 -0.198,-0.437c-0.132,-0.103 -0.371,-0.204 -0.717,-0.305Z" style="fill-opacity:0.54;fill-rule:nonzero;"/><path d="M106.454,174.913c-0.028,-0.056 -0.051,-0.156 -0.068,-0.301c-0.227,0.236 -0.498,0.354 -0.813,0.354c-0.281,0 -0.512,-0.08 -0.692,-0.239c-0.18,-0.159 -0.27,-0.361 -0.27,-0.605c0,-0.297 0.113,-0.528 0.339,-0.692c0.226,-0.165 0.543,-0.247 0.953,-0.247l0.475,0l0,-0.224c0,-0.171 -0.051,-0.307 -0.153,-0.408c-0.102,-0.101 -0.252,-0.151 -0.451,-0.151c-0.174,0 -0.32,0.044 -0.438,0.132c-0.118,0.087 -0.177,0.194 -0.177,0.319l-0.49,0c0,-0.143 0.05,-0.28 0.151,-0.413c0.102,-0.133 0.239,-0.238 0.412,-0.315c0.173,-0.078 0.363,-0.116 0.571,-0.116c0.329,0 0.586,0.082 0.773,0.246c0.186,0.165 0.283,0.391 0.29,0.679l0,1.314c0,0.262 0.033,0.47 0.1,0.625l0,0.042l-0.512,0Zm-0.809,-0.372c0.153,0 0.298,-0.039 0.435,-0.118c0.137,-0.08 0.236,-0.182 0.298,-0.309l0,-0.586l-0.383,0c-0.597,0 -0.896,0.175 -0.896,0.525c0,0.153 0.051,0.273 0.153,0.359c0.102,0.086 0.233,0.129 0.393,0.129Z" style="fill-opacity:0.54;fill-rule:nonzero;"/><path d="M108.29,171.369l0,0.691l0.533,0l0,0.377l-0.533,0l0,1.771c0,0.115 0.024,0.201 0.071,0.258c0.048,0.057 0.129,0.086 0.243,0.086c0.056,0 0.133,-0.011 0.232,-0.032l0,0.393c-0.128,0.035 -0.253,0.053 -0.375,0.053c-0.218,0 -0.382,-0.066 -0.493,-0.198c-0.111,-0.132 -0.166,-0.319 -0.166,-0.562l0,-1.769l-0.519,0l0,-0.377l0.519,0l0,-0.691l0.488,0Z" style="fill-opacity:0.54;fill-rule:nonzero;"/></g><g><path d="M120.426,26.864l-0.49,0l0,-3.251l-0.984,0.361l0,-0.443l1.398,-0.525l0.076,0l0,3.858Z" style="fill-opacity:0.54;fill-rule:nonzero;"/><path d="M124.368,26.864l-2.516,0l0,-0.35l1.329,-1.477c0.197,-0.224 0.333,-0.405 0.408,-0.545c0.074,-0.14 0.112,-0.284 0.112,-0.434c0,-0.2 -0.061,-0.365 -0.182,-0.493c-0.122,-0.128 -0.283,-0.192 -0.485,-0.192c-0.243,0 -0.432,0.069 -0.566,0.207c-0.135,0.138 -0.202,0.33 -0.202,0.576l-0.488,0c0,-0.354 0.114,-0.639 0.342,-0.857c0.227,-0.218 0.532,-0.327 0.914,-0.327c0.356,0 0.639,0.093 0.846,0.281c0.208,0.187 0.311,0.436 0.311,0.747c0,0.378 -0.241,0.828 -0.722,1.351l-1.029,1.115l1.928,0l0,0.398Z" style="fill-opacity:0.54;fill-rule:nonzero;"/><path d="M126.693,26.864c-0.028,-0.056 -0.051,-0.156 -0.068,-0.3c-0.227,0.235 -0.498,0.353 -0.813,0.353c-0.281,0 -0.512,-0.079 -0.692,-0.239c-0.18,-0.159 -0.27,-0.36 -0.27,-0.605c0,-0.297 0.113,-0.528 0.339,-0.692c0.225,-0.165 0.543,-0.247 0.953,-0.247l0.475,0l0,-0.224c0,-0.17 -0.051,-0.306 -0.153,-0.407c-0.102,-0.101 -0.253,-0.152 -0.451,-0.152c-0.174,0 -0.32,0.044 -0.438,0.132c-0.118,0.088 -0.177,0.194 -0.177,0.319l-0.49,0c0,-0.142 0.05,-0.28 0.151,-0.413c0.101,-0.132 0.239,-0.238 0.412,-0.315c0.173,-0.077 0.363,-0.116 0.571,-0.116c0.328,0 0.586,0.082 0.772,0.247c0.187,0.164 0.283,0.39 0.291,0.679l0,1.313c0,0.262 0.033,0.47 0.1,0.625l0,0.042l-0.512,0Zm-0.81,-0.372c0.153,0 0.298,-0.039 0.436,-0.118c0.137,-0.079 0.236,-0.182 0.298,-0.309l0,-0.585l-0.383,0c-0.598,0 -0.896,0.175 -0.896,0.525c0,0.153 0.051,0.272 0.153,0.358c0.101,0.086 0.232,0.129 0.392,0.129Z" style="fill-opacity:0.54;fill-rule:nonzero;"/><path d="M128.325,24.011l0.013,0.316c0.209,-0.246 0.491,-0.369 0.846,-0.369c0.399,0 0.671,0.153 0.815,0.459c0.095,-0.137 0.219,-0.248 0.371,-0.332c0.152,-0.085 0.332,-0.127 0.539,-0.127c0.626,0 0.944,0.332 0.955,0.994l0,1.912l-0.488,0l0,-1.883c0,-0.204 -0.047,-0.356 -0.14,-0.457c-0.093,-0.101 -0.25,-0.152 -0.469,-0.152c-0.181,0 -0.332,0.054 -0.451,0.162c-0.12,0.108 -0.189,0.254 -0.209,0.437l0,1.893l-0.49,0l0,-1.869c0,-0.415 -0.203,-0.623 -0.609,-0.623c-0.32,0 -0.539,0.136 -0.657,0.409l0,2.083l-0.488,0l0,-2.853l0.462,0Z" style="fill-opacity:0.54;fill-rule:nonzero;"/><path d="M124.372,39.015l-2.516,0l0,-0.35l1.329,-1.477c0.197,-0.223 0.333,-0.405 0.407,-0.545c0.075,-0.14 0.112,-0.284 0.112,-0.434c0,-0.2 -0.06,-0.364 -0.182,-0.493c-0.121,-0.128 -0.283,-0.192 -0.485,-0.192c-0.243,0 -0.431,0.069 -0.566,0.207c-0.134,0.138 -0.201,0.33 -0.201,0.576l-0.488,0c0,-0.353 0.114,-0.639 0.341,-0.857c0.228,-0.218 0.533,-0.327 0.914,-0.327c0.357,0 0.639,0.093 0.847,0.281c0.207,0.187 0.311,0.436 0.311,0.747c0,0.378 -0.241,0.828 -0.723,1.351l-1.028,1.115l1.928,0l0,0.398Z" style="fill-opacity:0.54;fill-rule:nonzero;"/><path d="M126.696,39.015c-0.028,-0.056 -0.051,-0.156 -0.068,-0.3c-0.227,0.235 -0.498,0.353 -0.813,0.353c-0.281,0 -0.512,-0.079 -0.692,-0.238c-0.18,-0.16 -0.27,-0.361 -0.27,-0.606c0,-0.297 0.113,-0.528 0.339,-0.692c0.226,-0.164 0.543,-0.247 0.953,-0.247l0.475,0l0,-0.224c0,-0.17 -0.051,-0.306 -0.153,-0.407c-0.102,-0.101 -0.252,-0.152 -0.451,-0.152c-0.174,0 -0.32,0.044 -0.438,0.132c-0.118,0.088 -0.177,0.194 -0.177,0.319l-0.49,0c0,-0.142 0.05,-0.28 0.152,-0.413c0.101,-0.132 0.238,-0.237 0.411,-0.315c0.173,-0.077 0.363,-0.116 0.571,-0.116c0.329,0 0.586,0.082 0.773,0.247c0.186,0.164 0.283,0.391 0.29,0.679l0,1.313c0,0.262 0.033,0.471 0.1,0.625l0,0.042l-0.512,0Zm-0.809,-0.371c0.153,0 0.298,-0.04 0.435,-0.119c0.137,-0.079 0.236,-0.182 0.298,-0.309l0,-0.585l-0.383,0c-0.597,0 -0.896,0.175 -0.896,0.525c0,0.153 0.051,0.272 0.153,0.358c0.102,0.087 0.233,0.13 0.393,0.13Z" style="fill-opacity:0.54;fill-rule:nonzero;"/><path d="M128.327,36.162l0.014,0.316c0.209,-0.246 0.491,-0.369 0.846,-0.369c0.399,0 0.671,0.153 0.815,0.459c0.095,-0.137 0.219,-0.248 0.371,-0.332c0.152,-0.085 0.331,-0.127 0.539,-0.127c0.626,0 0.944,0.332 0.955,0.994l0,1.912l-0.488,0l0,-1.883c0,-0.204 -0.047,-0.356 -0.14,-0.457c-0.093,-0.101 -0.25,-0.152 -0.469,-0.152c-0.182,0 -0.332,0.054 -0.451,0.162c-0.12,0.109 -0.189,0.254 -0.209,0.437l0,1.893l-0.49,0l0,-1.869c0,-0.415 -0.203,-0.623 -0.61,-0.623c-0.319,0 -0.538,0.136 -0.656,0.409l0,2.083l-0.488,0l0,-2.853l0.461,0Z" style="fill-opacity:0.54;fill-rule:nonzero;"/><path d="M123.915,49.877l0.533,0l0,0.398l-0.533,0l0,0.892l-0.49,0l0,-0.892l-1.749,0l0,-0.287l1.72,-2.661l0.519,0l0,2.55Zm-1.685,0l1.195,0l0,-1.883l-0.058,0.105l-1.137,1.778Z" style="fill-opacity:0.54;fill-rule:nonzero;"/><path d="M126.696,51.167c-0.028,-0.057 -0.051,-0.157 -0.068,-0.301c-0.227,0.235 -0.498,0.353 -0.813,0.353c-0.281,0 -0.512,-0.079 -0.692,-0.238c-0.18,-0.159 -0.27,-0.361 -0.27,-0.606c0,-0.297 0.113,-0.528 0.339,-0.692c0.226,-0.164 0.543,-0.246 0.953,-0.246l0.475,0l0,-0.225c0,-0.17 -0.051,-0.306 -0.153,-0.407c-0.102,-0.101 -0.252,-0.152 -0.451,-0.152c-0.174,0 -0.32,0.044 -0.438,0.132c-0.118,0.088 -0.177,0.194 -0.177,0.319l-0.49,0c0,-0.142 0.05,-0.28 0.152,-0.413c0.101,-0.132 0.238,-0.237 0.411,-0.315c0.173,-0.077 0.363,-0.116 0.571,-0.116c0.329,0 0.586,0.082 0.773,0.247c0.186,0.164 0.283,0.391 0.29,0.679l0,1.313c0,0.262 0.033,0.471 0.1,0.625l0,0.043l-0.512,0Zm-0.809,-0.372c0.153,0 0.298,-0.04 0.435,-0.119c0.137,-0.079 0.236,-0.182 0.298,-0.309l0,-0.585l-0.383,0c-0.597,0 -0.896,0.175 -0.896,0.525c0,0.153 0.051,0.272 0.153,0.358c0.102,0.087 0.233,0.13 0.393,0.13Z" style="fill-opacity:0.54;fill-rule:nonzero;"/><path d="M128.327,48.313l0.014,0.317c0.209,-0.247 0.491,-0.37 0.846,-0.37c0.399,0 0.671,0.153 0.815,0.459c0.095,-0.137 0.219,-0.248 0.371,-0.332c0.152,-0.085 0.331,-0.127 0.539,-0.127c0.626,0 0.944,0.332 0.955,0.995l0,1.912l-0.488,0l0,-1.883c0,-0.204 -0.047,-0.357 -0.14,-0.458c-0.093,-0.101 -0.25,-0.152 -0.469,-0.152c-0.182,0 -0.332,0.054 -0.451,0.163c-0.12,0.108 -0.189,0.253 -0.209,0.436l0,1.894l-0.49,0l0,-1.87c0,-0.415 -0.203,-0.623 -0.61,-0.623c-0.319,0 -0.538,0.137 -0.656,0.409l0,2.084l-0.488,0l0,-2.854l0.461,0Z" style="fill-opacity:0.54;fill-rule:nonzero;"/><path d="M123.77,59.475l0,0.414l-0.089,0c-0.38,0.007 -0.683,0.12 -0.908,0.338c-0.225,0.218 -0.355,0.525 -0.39,0.92c0.202,-0.232 0.478,-0.348 0.828,-0.348c0.334,0 0.601,0.118 0.801,0.353c0.199,0.236 0.299,0.54 0.299,0.913c0,0.396 -0.108,0.712 -0.323,0.949c-0.216,0.238 -0.504,0.356 -0.866,0.356c-0.368,0 -0.666,-0.141 -0.895,-0.423c-0.228,-0.282 -0.342,-0.646 -0.342,-1.09l0,-0.188c0,-0.706 0.15,-1.247 0.452,-1.62c0.301,-0.374 0.75,-0.565 1.346,-0.574l0.087,0Zm-0.641,1.73c-0.167,0 -0.32,0.05 -0.461,0.151c-0.141,0.1 -0.238,0.225 -0.293,0.377l0,0.179c0,0.316 0.071,0.571 0.214,0.765c0.142,0.193 0.32,0.29 0.533,0.29c0.219,0 0.392,-0.081 0.518,-0.243c0.125,-0.161 0.188,-0.373 0.188,-0.635c0,-0.264 -0.063,-0.477 -0.191,-0.64c-0.127,-0.162 -0.297,-0.244 -0.508,-0.244Z" style="fill-opacity:0.54;fill-rule:nonzero;"/><path d="M126.696,63.318c-0.028,-0.057 -0.051,-0.157 -0.068,-0.301c-0.227,0.236 -0.498,0.353 -0.813,0.353c-0.281,0 -0.512,-0.079 -0.692,-0.238c-0.18,-0.159 -0.27,-0.361 -0.27,-0.606c0,-0.297 0.113,-0.527 0.339,-0.692c0.226,-0.164 0.543,-0.246 0.953,-0.246l0.475,0l0,-0.225c0,-0.17 -0.051,-0.306 -0.153,-0.407c-0.102,-0.101 -0.252,-0.152 -0.451,-0.152c-0.174,0 -0.32,0.044 -0.438,0.132c-0.118,0.088 -0.177,0.194 -0.177,0.319l-0.49,0c0,-0.142 0.05,-0.28 0.152,-0.412c0.101,-0.133 0.238,-0.238 0.411,-0.316c0.173,-0.077 0.363,-0.116 0.571,-0.116c0.329,0 0.586,0.083 0.773,0.247c0.186,0.164 0.283,0.391 0.29,0.679l0,1.313c0,0.262 0.033,0.471 0.1,0.625l0,0.043l-0.512,0Zm-0.809,-0.372c0.153,0 0.298,-0.04 0.435,-0.119c0.137,-0.079 0.236,-0.182 0.298,-0.308l0,-0.586l-0.383,0c-0.597,0 -0.896,0.175 -0.896,0.525c0,0.153 0.051,0.272 0.153,0.359c0.102,0.086 0.233,0.129 0.393,0.129Z" style="fill-opacity:0.54;fill-rule:nonzero;"/><path d="M128.327,60.464l0.014,0.317c0.209,-0.247 0.491,-0.37 0.846,-0.37c0.399,0 0.671,0.153 0.815,0.459c0.095,-0.137 0.219,-0.248 0.371,-0.332c0.152,-0.084 0.331,-0.127 0.539,-0.127c0.626,0 0.944,0.332 0.955,0.995l0,1.912l-0.488,0l0,-1.883c0,-0.204 -0.047,-0.357 -0.14,-0.458c-0.093,-0.101 -0.25,-0.152 -0.469,-0.152c-0.182,0 -0.332,0.055 -0.451,0.163c-0.12,0.108 -0.189,0.253 -0.209,0.436l0,1.894l-0.49,0l0,-1.87c0,-0.415 -0.203,-0.623 -0.61,-0.623c-0.319,0 -0.538,0.137 -0.656,0.409l0,2.084l-0.488,0l0,-2.854l0.461,0Z" style="fill-opacity:0.54;fill-rule:nonzero;"/><path d="M124.184,72.631c0,0.192 -0.05,0.362 -0.151,0.512c-0.101,0.149 -0.238,0.266 -0.41,0.35c0.2,0.087 0.359,0.212 0.476,0.378c0.117,0.165 0.175,0.352 0.175,0.561c0,0.333 -0.112,0.597 -0.336,0.794c-0.224,0.197 -0.519,0.295 -0.885,0.295c-0.369,0 -0.665,-0.098 -0.887,-0.296c-0.223,-0.198 -0.334,-0.462 -0.334,-0.793c0,-0.207 0.057,-0.394 0.17,-0.561c0.113,-0.167 0.27,-0.294 0.471,-0.38c-0.171,-0.085 -0.305,-0.202 -0.404,-0.351c-0.098,-0.149 -0.147,-0.319 -0.147,-0.509c0,-0.323 0.103,-0.58 0.311,-0.77c0.207,-0.19 0.481,-0.285 0.82,-0.285c0.338,0 0.61,0.095 0.819,0.285c0.208,0.19 0.312,0.447 0.312,0.77Zm-0.398,1.791c0,-0.215 -0.068,-0.39 -0.204,-0.525c-0.137,-0.135 -0.315,-0.203 -0.534,-0.203c-0.22,0 -0.396,0.067 -0.529,0.2c-0.133,0.134 -0.199,0.31 -0.199,0.528c0,0.218 0.064,0.389 0.194,0.514c0.129,0.125 0.309,0.187 0.539,0.187c0.229,0 0.408,-0.063 0.538,-0.188c0.13,-0.126 0.195,-0.297 0.195,-0.513Zm-0.733,-2.445c-0.192,0 -0.347,0.059 -0.466,0.178c-0.118,0.119 -0.178,0.28 -0.178,0.484c0,0.195 0.059,0.353 0.176,0.473c0.117,0.121 0.273,0.181 0.468,0.181c0.195,0 0.351,-0.06 0.468,-0.181c0.117,-0.12 0.175,-0.278 0.175,-0.473c0,-0.195 -0.06,-0.354 -0.182,-0.477c-0.121,-0.123 -0.275,-0.185 -0.461,-0.185Z" style="fill-opacity:0.54;fill-rule:nonzero;"/><path d="M126.696,75.469c-0.028,-0.057 -0.051,-0.157 -0.068,-0.301c-0.227,0.236 -0.498,0.353 -0.813,0.353c-0.281,0 -0.512,-0.079 -0.692,-0.238c-0.18,-0.159 -0.27,-0.361 -0.27,-0.605c0,-0.298 0.113,-0.528 0.339,-0.693c0.226,-0.164 0.543,-0.246 0.953,-0.246l0.475,0l0,-0.224c0,-0.171 -0.051,-0.307 -0.153,-0.408c-0.102,-0.101 -0.252,-0.152 -0.451,-0.152c-0.174,0 -0.32,0.044 -0.438,0.132c-0.118,0.088 -0.177,0.195 -0.177,0.319l-0.49,0c0,-0.142 0.05,-0.28 0.152,-0.412c0.101,-0.133 0.238,-0.238 0.411,-0.315c0.173,-0.078 0.363,-0.117 0.571,-0.117c0.329,0 0.586,0.083 0.773,0.247c0.186,0.164 0.283,0.391 0.29,0.679l0,1.314c0,0.261 0.033,0.47 0.1,0.625l0,0.042l-0.512,0Zm-0.809,-0.372c0.153,0 0.298,-0.04 0.435,-0.119c0.137,-0.079 0.236,-0.182 0.298,-0.308l0,-0.586l-0.383,0c-0.597,0 -0.896,0.175 -0.896,0.525c0,0.153 0.051,0.273 0.153,0.359c0.102,0.086 0.233,0.129 0.393,0.129Z" style="fill-opacity:0.54;fill-rule:nonzero;"/><path d="M128.327,72.615l0.014,0.317c0.209,-0.246 0.491,-0.37 0.846,-0.37c0.399,0 0.671,0.153 0.815,0.459c0.095,-0.137 0.219,-0.248 0.371,-0.332c0.152,-0.084 0.331,-0.127 0.539,-0.127c0.626,0 0.944,0.332 0.955,0.995l0,1.912l-0.488,0l0,-1.883c0,-0.204 -0.047,-0.357 -0.14,-0.458c-0.093,-0.101 -0.25,-0.151 -0.469,-0.151c-0.182,0 -0.332,0.054 -0.451,0.162c-0.12,0.108 -0.189,0.253 -0.209,0.436l0,1.894l-0.49,0l0,-1.87c0,-0.415 -0.203,-0.622 -0.61,-0.622c-0.319,0 -0.538,0.136 -0.656,0.408l0,2.084l-0.488,0l0,-2.854l0.461,0Z" style="fill-opacity:0.54;fill-rule:nonzero;"/><path d="M120.426,87.62l-0.49,0l0,-3.252l-0.984,0.361l0,-0.443l1.398,-0.524l0.076,0l0,3.858Z" style="fill-opacity:0.54;fill-rule:nonzero;"/><path d="M124.26,85.982c0,0.572 -0.098,0.996 -0.293,1.274c-0.195,0.278 -0.5,0.417 -0.915,0.417c-0.41,0 -0.713,-0.136 -0.91,-0.408c-0.197,-0.271 -0.299,-0.677 -0.306,-1.217l0,-0.651c0,-0.565 0.098,-0.984 0.293,-1.258c0.195,-0.275 0.501,-0.412 0.918,-0.412c0.413,0 0.717,0.133 0.912,0.397c0.195,0.265 0.296,0.673 0.301,1.225l0,0.633Zm-0.488,-0.667c0,-0.413 -0.058,-0.714 -0.174,-0.903c-0.116,-0.189 -0.3,-0.284 -0.551,-0.284c-0.25,0 -0.432,0.094 -0.546,0.282c-0.114,0.188 -0.173,0.478 -0.177,0.868l0,0.781c0,0.415 0.06,0.721 0.181,0.919c0.12,0.197 0.303,0.296 0.547,0.296c0.241,0 0.42,-0.093 0.537,-0.279c0.117,-0.187 0.178,-0.48 0.183,-0.881l0,-0.799Z" style="fill-opacity:0.54;fill-rule:nonzero;"/><path d="M126.693,87.62c-0.028,-0.056 -0.051,-0.157 -0.068,-0.301c-0.227,0.236 -0.498,0.354 -0.813,0.354c-0.281,0 -0.512,-0.08 -0.692,-0.239c-0.18,-0.159 -0.27,-0.361 -0.27,-0.605c0,-0.297 0.113,-0.528 0.339,-0.693c0.225,-0.164 0.543,-0.246 0.953,-0.246l0.475,0l0,-0.224c0,-0.171 -0.051,-0.307 -0.153,-0.408c-0.102,-0.101 -0.253,-0.151 -0.451,-0.151c-0.174,0 -0.32,0.043 -0.438,0.131c-0.118,0.088 -0.177,0.195 -0.177,0.32l-0.49,0c0,-0.143 0.05,-0.28 0.151,-0.413c0.101,-0.133 0.239,-0.238 0.412,-0.315c0.173,-0.078 0.363,-0.116 0.571,-0.116c0.328,0 0.586,0.082 0.772,0.246c0.187,0.165 0.283,0.391 0.291,0.679l0,1.314c0,0.262 0.033,0.47 0.1,0.625l0,0.042l-0.512,0Zm-0.81,-0.372c0.153,0 0.298,-0.04 0.436,-0.119c0.137,-0.079 0.236,-0.182 0.298,-0.308l0,-0.586l-0.383,0c-0.598,0 -0.896,0.175 -0.896,0.525c0,0.153 0.051,0.273 0.153,0.359c0.101,0.086 0.232,0.129 0.392,0.129Z" style="fill-opacity:0.54;fill-rule:nonzero;"/><path d="M128.325,84.766l0.013,0.317c0.209,-0.246 0.491,-0.369 0.846,-0.369c0.399,0 0.671,0.153 0.815,0.458c0.095,-0.137 0.219,-0.247 0.371,-0.332c0.152,-0.084 0.332,-0.126 0.539,-0.126c0.626,0 0.944,0.331 0.955,0.994l0,1.912l-0.488,0l0,-1.883c0,-0.204 -0.047,-0.357 -0.14,-0.458c-0.093,-0.101 -0.25,-0.151 -0.469,-0.151c-0.181,0 -0.332,0.054 -0.451,0.162c-0.12,0.108 -0.189,0.253 -0.209,0.436l0,1.894l-0.49,0l0,-1.87c0,-0.415 -0.203,-0.622 -0.609,-0.622c-0.32,0 -0.539,0.136 -0.657,0.408l0,2.084l-0.488,0l0,-2.854l0.462,0Z" style="fill-opacity:0.54;fill-rule:nonzero;"/><path d="M120.334,99.771l-0.491,0l0,-3.252l-0.983,0.362l0,-0.444l1.397,-0.524l0.077,0l0,3.858Z" style="fill-opacity:0.54;fill-rule:nonzero;"/><path d="M124.277,99.771l-2.516,0l0,-0.351l1.33,-1.477c0.196,-0.223 0.332,-0.404 0.407,-0.544c0.075,-0.14 0.112,-0.285 0.112,-0.434c0,-0.201 -0.061,-0.365 -0.182,-0.493c-0.121,-0.129 -0.283,-0.193 -0.485,-0.193c-0.243,0 -0.431,0.069 -0.566,0.207c-0.134,0.138 -0.202,0.33 -0.202,0.576l-0.487,0c0,-0.353 0.113,-0.639 0.341,-0.857c0.228,-0.218 0.532,-0.327 0.914,-0.327c0.357,0 0.639,0.094 0.846,0.281c0.208,0.187 0.312,0.437 0.312,0.748c0,0.378 -0.241,0.828 -0.723,1.35l-1.029,1.116l1.928,0l0,0.398Z" style="fill-opacity:0.54;fill-rule:nonzero;"/><path d="M127.253,98.376c0,0.434 -0.099,0.784 -0.298,1.049c-0.199,0.266 -0.468,0.399 -0.807,0.399c-0.347,0 -0.619,-0.11 -0.818,-0.33l0,1.374l-0.488,0l0,-3.951l0.446,0l0.024,0.317c0.198,-0.246 0.475,-0.369 0.828,-0.369c0.343,0 0.614,0.129 0.814,0.387c0.199,0.259 0.299,0.618 0.299,1.079l0,0.045Zm-0.488,-0.056c0,-0.321 -0.069,-0.575 -0.206,-0.762c-0.137,-0.186 -0.325,-0.279 -0.564,-0.279c-0.296,0 -0.517,0.131 -0.665,0.393l0,1.363c0.146,0.26 0.369,0.39 0.67,0.39c0.234,0 0.42,-0.092 0.558,-0.278c0.138,-0.185 0.207,-0.461 0.207,-0.827Z" style="fill-opacity:0.54;fill-rule:nonzero;"/><path d="M128.33,96.917l0.013,0.317c0.209,-0.246 0.491,-0.369 0.846,-0.369c0.399,0 0.671,0.153 0.815,0.459c0.095,-0.138 0.219,-0.248 0.371,-0.333c0.152,-0.084 0.332,-0.126 0.539,-0.126c0.626,0 0.944,0.331 0.955,0.994l0,1.912l-0.488,0l0,-1.883c0,-0.204 -0.047,-0.357 -0.14,-0.458c-0.093,-0.101 -0.25,-0.151 -0.469,-0.151c-0.181,0 -0.332,0.054 -0.451,0.162c-0.12,0.108 -0.189,0.254 -0.209,0.436l0,1.894l-0.49,0l0,-1.87c0,-0.415 -0.203,-0.622 -0.609,-0.622c-0.32,0 -0.539,0.136 -0.657,0.409l0,2.083l-0.488,0l0,-2.854l0.462,0Z" style="fill-opacity:0.54;fill-rule:nonzero;"/><path d="M124.279,111.922l-2.516,0l0,-0.351l1.33,-1.477c0.196,-0.223 0.332,-0.404 0.407,-0.544c0.075,-0.14 0.112,-0.285 0.112,-0.434c0,-0.2 -0.061,-0.365 -0.182,-0.493c-0.121,-0.129 -0.283,-0.193 -0.485,-0.193c-0.243,0 -0.431,0.069 -0.566,0.207c-0.134,0.138 -0.202,0.33 -0.202,0.577l-0.488,0c0,-0.354 0.114,-0.64 0.342,-0.858c0.228,-0.218 0.532,-0.327 0.914,-0.327c0.357,0 0.639,0.094 0.846,0.281c0.208,0.188 0.312,0.437 0.312,0.748c0,0.378 -0.241,0.828 -0.723,1.35l-1.029,1.116l1.928,0l0,0.398Z" style="fill-opacity:0.54;fill-rule:nonzero;"/><path d="M127.255,110.527c0,0.434 -0.099,0.784 -0.298,1.05c-0.198,0.265 -0.467,0.398 -0.807,0.398c-0.346,0 -0.619,-0.11 -0.817,-0.33l0,1.374l-0.488,0l0,-3.95l0.445,0l0.024,0.316c0.199,-0.246 0.475,-0.369 0.828,-0.369c0.343,0 0.614,0.129 0.814,0.387c0.199,0.259 0.299,0.618 0.299,1.079l0,0.045Zm-0.488,-0.055c0,-0.322 -0.068,-0.576 -0.205,-0.763c-0.138,-0.186 -0.326,-0.279 -0.565,-0.279c-0.295,0 -0.517,0.131 -0.664,0.393l0,1.363c0.146,0.26 0.369,0.391 0.67,0.391c0.233,0 0.419,-0.093 0.557,-0.279c0.138,-0.185 0.207,-0.461 0.207,-0.826Z" style="fill-opacity:0.54;fill-rule:nonzero;"/><path d="M128.332,109.069l0.014,0.316c0.209,-0.246 0.491,-0.369 0.846,-0.369c0.399,0 0.671,0.153 0.815,0.459c0.095,-0.137 0.218,-0.248 0.371,-0.333c0.152,-0.084 0.331,-0.126 0.539,-0.126c0.626,0 0.944,0.331 0.955,0.994l0,1.912l-0.488,0l0,-1.883c0,-0.204 -0.047,-0.356 -0.14,-0.458c-0.093,-0.101 -0.25,-0.151 -0.47,-0.151c-0.181,0 -0.331,0.054 -0.451,0.162c-0.119,0.108 -0.189,0.254 -0.208,0.437l0,1.893l-0.49,0l0,-1.87c0,-0.415 -0.203,-0.622 -0.61,-0.622c-0.32,0 -0.538,0.136 -0.656,0.409l0,2.083l-0.488,0l0,-2.853l0.461,0Z" style="fill-opacity:0.54;fill-rule:nonzero;"/><path d="M123.823,122.784l0.533,0l0,0.398l-0.533,0l0,0.891l-0.491,0l0,-0.891l-1.748,0l0,-0.288l1.719,-2.661l0.52,0l0,2.551Zm-1.685,0l1.194,0l0,-1.883l-0.058,0.105l-1.136,1.778Z" style="fill-opacity:0.54;fill-rule:nonzero;"/><path d="M127.255,122.678c0,0.434 -0.099,0.784 -0.298,1.05c-0.198,0.265 -0.467,0.398 -0.807,0.398c-0.346,0 -0.619,-0.11 -0.817,-0.33l0,1.374l-0.488,0l0,-3.95l0.445,0l0.024,0.316c0.199,-0.246 0.475,-0.369 0.828,-0.369c0.343,0 0.614,0.129 0.814,0.388c0.199,0.258 0.299,0.618 0.299,1.078l0,0.045Zm-0.488,-0.055c0,-0.322 -0.068,-0.576 -0.205,-0.763c-0.138,-0.186 -0.326,-0.279 -0.565,-0.279c-0.295,0 -0.517,0.131 -0.664,0.393l0,1.363c0.146,0.261 0.369,0.391 0.67,0.391c0.233,0 0.419,-0.093 0.557,-0.279c0.138,-0.185 0.207,-0.461 0.207,-0.826Z" style="fill-opacity:0.54;fill-rule:nonzero;"/><path d="M128.332,121.22l0.014,0.316c0.209,-0.246 0.491,-0.369 0.846,-0.369c0.399,0 0.671,0.153 0.815,0.459c0.095,-0.137 0.218,-0.248 0.371,-0.333c0.152,-0.084 0.331,-0.126 0.539,-0.126c0.626,0 0.944,0.331 0.955,0.994l0,1.912l-0.488,0l0,-1.883c0,-0.204 -0.047,-0.356 -0.14,-0.457c-0.093,-0.102 -0.25,-0.152 -0.47,-0.152c-0.181,0 -0.331,0.054 -0.451,0.162c-0.119,0.108 -0.189,0.254 -0.208,0.437l0,1.893l-0.49,0l0,-1.87c0,-0.415 -0.203,-0.622 -0.61,-0.622c-0.32,0 -0.538,0.136 -0.656,0.409l0,2.083l-0.488,0l0,-2.853l0.461,0Z" style="fill-opacity:0.54;fill-rule:nonzero;"/><path d="M123.678,132.382l0,0.414l-0.09,0c-0.379,0.007 -0.682,0.119 -0.907,0.337c-0.225,0.218 -0.355,0.525 -0.39,0.921c0.202,-0.232 0.478,-0.348 0.828,-0.348c0.334,0 0.601,0.117 0.8,0.353c0.2,0.236 0.3,0.54 0.3,0.913c0,0.395 -0.108,0.712 -0.323,0.949c-0.216,0.237 -0.505,0.356 -0.867,0.356c-0.367,0 -0.665,-0.141 -0.894,-0.423c-0.228,-0.282 -0.343,-0.646 -0.343,-1.091l0,-0.187c0,-0.707 0.151,-1.247 0.453,-1.621c0.301,-0.373 0.75,-0.564 1.346,-0.573l0.087,0Zm-0.641,1.73c-0.167,0 -0.321,0.05 -0.461,0.15c-0.141,0.1 -0.239,0.226 -0.293,0.377l0,0.18c0,0.316 0.071,0.571 0.213,0.764c0.143,0.194 0.32,0.291 0.533,0.291c0.22,0 0.393,-0.081 0.518,-0.243c0.126,-0.162 0.189,-0.374 0.189,-0.636c0,-0.263 -0.064,-0.477 -0.191,-0.639c-0.128,-0.163 -0.297,-0.244 -0.508,-0.244Z" style="fill-opacity:0.54;fill-rule:nonzero;"/><path d="M127.255,134.829c0,0.434 -0.099,0.784 -0.298,1.05c-0.198,0.265 -0.467,0.398 -0.807,0.398c-0.346,0 -0.619,-0.11 -0.817,-0.33l0,1.374l-0.488,0l0,-3.95l0.445,0l0.024,0.316c0.199,-0.246 0.475,-0.369 0.828,-0.369c0.343,0 0.614,0.129 0.814,0.388c0.199,0.258 0.299,0.618 0.299,1.078l0,0.045Zm-0.488,-0.055c0,-0.322 -0.068,-0.576 -0.205,-0.762c-0.138,-0.187 -0.326,-0.28 -0.565,-0.28c-0.295,0 -0.517,0.131 -0.664,0.393l0,1.363c0.146,0.261 0.369,0.391 0.67,0.391c0.233,0 0.419,-0.093 0.557,-0.278c0.138,-0.186 0.207,-0.462 0.207,-0.827Z" style="fill-opacity:0.54;fill-rule:nonzero;"/><path d="M128.332,133.371l0.014,0.316c0.209,-0.246 0.491,-0.369 0.846,-0.369c0.399,0 0.671,0.153 0.815,0.459c0.095,-0.137 0.218,-0.248 0.371,-0.332c0.152,-0.085 0.331,-0.127 0.539,-0.127c0.626,0 0.944,0.331 0.955,0.994l0,1.912l-0.488,0l0,-1.883c0,-0.204 -0.047,-0.356 -0.14,-0.457c-0.093,-0.101 -0.25,-0.152 -0.47,-0.152c-0.181,0 -0.331,0.054 -0.451,0.162c-0.119,0.108 -0.189,0.254 -0.208,0.437l0,1.893l-0.49,0l0,-1.87c0,-0.414 -0.203,-0.622 -0.61,-0.622c-0.32,0 -0.538,0.136 -0.656,0.409l0,2.083l-0.488,0l0,-2.853l0.461,0Z" style="fill-opacity:0.54;fill-rule:nonzero;"/><path d="M124.092,145.538c0,0.191 -0.051,0.362 -0.152,0.511c-0.101,0.15 -0.237,0.267 -0.41,0.351c0.201,0.086 0.359,0.212 0.476,0.377c0.117,0.165 0.176,0.353 0.176,0.562c0,0.332 -0.112,0.597 -0.337,0.794c-0.224,0.197 -0.519,0.295 -0.884,0.295c-0.37,0 -0.665,-0.099 -0.888,-0.297c-0.222,-0.197 -0.333,-0.462 -0.333,-0.792c0,-0.208 0.056,-0.395 0.17,-0.562c0.113,-0.167 0.27,-0.293 0.47,-0.38c-0.17,-0.084 -0.305,-0.201 -0.403,-0.35c-0.099,-0.15 -0.148,-0.319 -0.148,-0.509c0,-0.324 0.104,-0.581 0.311,-0.77c0.208,-0.19 0.481,-0.285 0.821,-0.285c0.337,0 0.61,0.095 0.819,0.285c0.208,0.189 0.312,0.446 0.312,0.77Zm-0.398,1.79c0,-0.214 -0.068,-0.389 -0.205,-0.524c-0.136,-0.136 -0.314,-0.204 -0.534,-0.204c-0.219,0 -0.396,0.067 -0.528,0.201c-0.133,0.134 -0.2,0.309 -0.2,0.527c0,0.218 0.065,0.39 0.194,0.515c0.13,0.124 0.309,0.187 0.54,0.187c0.228,0 0.408,-0.063 0.538,-0.189c0.13,-0.125 0.195,-0.296 0.195,-0.513Zm-0.733,-2.444c-0.192,0 -0.347,0.059 -0.466,0.178c-0.119,0.118 -0.178,0.28 -0.178,0.484c0,0.195 0.059,0.353 0.176,0.473c0.116,0.12 0.272,0.181 0.468,0.181c0.195,0 0.351,-0.061 0.468,-0.181c0.117,-0.12 0.175,-0.278 0.175,-0.473c0,-0.196 -0.061,-0.355 -0.182,-0.478c-0.121,-0.123 -0.275,-0.184 -0.461,-0.184Z" style="fill-opacity:0.54;fill-rule:nonzero;"/><path d="M127.255,146.98c0,0.435 -0.099,0.784 -0.298,1.05c-0.198,0.265 -0.467,0.398 -0.807,0.398c-0.346,0 -0.619,-0.11 -0.817,-0.33l0,1.374l-0.488,0l0,-3.95l0.445,0l0.024,0.316c0.199,-0.246 0.475,-0.369 0.828,-0.369c0.343,0 0.614,0.129 0.814,0.388c0.199,0.258 0.299,0.618 0.299,1.078l0,0.045Zm-0.488,-0.055c0,-0.322 -0.068,-0.576 -0.205,-0.762c-0.138,-0.187 -0.326,-0.28 -0.565,-0.28c-0.295,0 -0.517,0.131 -0.664,0.393l0,1.364c0.146,0.26 0.369,0.39 0.67,0.39c0.233,0 0.419,-0.093 0.557,-0.278c0.138,-0.186 0.207,-0.461 0.207,-0.827Z" style="fill-opacity:0.54;fill-rule:nonzero;"/><path d="M128.332,145.522l0.014,0.316c0.209,-0.246 0.491,-0.369 0.846,-0.369c0.399,0 0.671,0.153 0.815,0.459c0.095,-0.137 0.218,-0.248 0.371,-0.332c0.152,-0.085 0.331,-0.127 0.539,-0.127c0.626,0 0.944,0.332 0.955,0.994l0,1.912l-0.488,0l0,-1.883c0,-0.204 -0.047,-0.356 -0.14,-0.457c-0.093,-0.101 -0.25,-0.152 -0.47,-0.152c-0.181,0 -0.331,0.054 -0.451,0.162c-0.119,0.108 -0.189,0.254 -0.208,0.437l0,1.893l-0.49,0l0,-1.869c0,-0.415 -0.203,-0.623 -0.61,-0.623c-0.32,0 -0.538,0.136 -0.656,0.409l0,2.083l-0.488,0l0,-2.853l0.461,0Z" style="fill-opacity:0.54;fill-rule:nonzero;"/><path d="M120.334,160.526l-0.491,0l0,-3.251l-0.983,0.361l0,-0.443l1.397,-0.525l0.077,0l0,3.858Z" style="fill-opacity:0.54;fill-rule:nonzero;"/><path d="M124.169,158.889c0,0.571 -0.097,0.996 -0.293,1.274c-0.195,0.277 -0.5,0.416 -0.915,0.416c-0.409,0 -0.713,-0.136 -0.91,-0.407c-0.196,-0.272 -0.298,-0.678 -0.305,-1.217l0,-0.652c0,-0.564 0.097,-0.983 0.292,-1.258c0.195,-0.274 0.501,-0.411 0.918,-0.411c0.413,0 0.717,0.132 0.913,0.397c0.195,0.264 0.295,0.673 0.3,1.225l0,0.633Zm-0.488,-0.668c0,-0.413 -0.058,-0.714 -0.174,-0.903c-0.116,-0.189 -0.3,-0.283 -0.551,-0.283c-0.25,0 -0.432,0.094 -0.546,0.282c-0.114,0.188 -0.173,0.477 -0.177,0.868l0,0.78c0,0.415 0.061,0.721 0.181,0.919c0.121,0.198 0.303,0.297 0.547,0.297c0.241,0 0.42,-0.093 0.537,-0.28c0.117,-0.186 0.178,-0.48 0.183,-0.88l0,-0.8Z" style="fill-opacity:0.54;fill-rule:nonzero;"/><path d="M127.253,159.131c0,0.435 -0.099,0.784 -0.298,1.05c-0.199,0.265 -0.468,0.398 -0.807,0.398c-0.347,0 -0.619,-0.11 -0.818,-0.329l0,1.374l-0.488,0l0,-3.951l0.446,0l0.024,0.316c0.198,-0.246 0.475,-0.369 0.828,-0.369c0.343,0 0.614,0.129 0.814,0.388c0.199,0.258 0.299,0.618 0.299,1.079l0,0.044Zm-0.488,-0.055c0,-0.322 -0.069,-0.576 -0.206,-0.762c-0.137,-0.187 -0.325,-0.28 -0.564,-0.28c-0.296,0 -0.517,0.131 -0.665,0.393l0,1.364c0.146,0.26 0.369,0.39 0.67,0.39c0.234,0 0.42,-0.093 0.558,-0.278c0.138,-0.186 0.207,-0.461 0.207,-0.827Z" style="fill-opacity:0.54;fill-rule:nonzero;"/><path d="M128.33,157.673l0.013,0.316c0.209,-0.246 0.491,-0.369 0.846,-0.369c0.399,0 0.671,0.153 0.815,0.459c0.095,-0.137 0.219,-0.248 0.371,-0.332c0.152,-0.085 0.332,-0.127 0.539,-0.127c0.626,0 0.944,0.332 0.955,0.994l0,1.912l-0.488,0l0,-1.883c0,-0.203 -0.047,-0.356 -0.14,-0.457c-0.093,-0.101 -0.25,-0.152 -0.469,-0.152c-0.181,0 -0.332,0.054 -0.451,0.162c-0.12,0.109 -0.189,0.254 -0.209,0.437l0,1.893l-0.49,0l0,-1.869c0,-0.415 -0.203,-0.623 -0.609,-0.623c-0.32,0 -0.539,0.137 -0.657,0.409l0,2.083l-0.488,0l0,-2.853l0.462,0Z" style="fill-opacity:0.54;fill-rule:nonzero;"/></g><path d="M12.189,194.933l-0.491,0l0,-3.252l-0.983,0.362l0,-0.443l1.397,-0.525l0.077,0l0,3.858Z" style="fill-opacity:0.54;fill-rule:nonzero;"/><path d="M37.234,193.644l0.533,0l0,0.398l-0.533,0l0,0.891l-0.491,0l0,-0.891l-1.748,0l0,-0.288l1.719,-2.661l0.52,0l0,2.551Zm-1.685,0l1.194,0l0,-1.883l-0.058,0.105l-1.136,1.778Z" style="fill-opacity:0.54;fill-rule:nonzero;"/><path d="M63.194,191.091l0,0.414l-0.089,0c-0.38,0.007 -0.683,0.119 -0.908,0.337c-0.225,0.218 -0.355,0.525 -0.39,0.921c0.202,-0.232 0.478,-0.348 0.828,-0.348c0.334,0 0.601,0.117 0.801,0.353c0.199,0.236 0.299,0.54 0.299,0.912c0,0.396 -0.108,0.712 -0.323,0.95c-0.216,0.237 -0.504,0.356 -0.866,0.356c-0.368,0 -0.666,-0.141 -0.895,-0.423c-0.228,-0.283 -0.342,-0.646 -0.342,-1.091l0,-0.187c0,-0.707 0.15,-1.247 0.452,-1.621c0.301,-0.373 0.75,-0.565 1.346,-0.573l0.087,0Zm-0.641,1.73c-0.167,0 -0.32,0.05 -0.461,0.15c-0.141,0.1 -0.238,0.226 -0.293,0.377l0,0.179c0,0.317 0.071,0.572 0.214,0.765c0.142,0.194 0.32,0.29 0.533,0.29c0.219,0 0.392,-0.081 0.518,-0.242c0.125,-0.162 0.188,-0.374 0.188,-0.636c0,-0.264 -0.063,-0.477 -0.191,-0.639c-0.127,-0.163 -0.297,-0.244 -0.508,-0.244Z" style="fill-opacity:0.54;fill-rule:nonzero;"/><path d="M89.255,193.245c-0.102,0.122 -0.224,0.219 -0.365,0.293c-0.142,0.074 -0.297,0.111 -0.466,0.111c-0.221,0 -0.414,-0.055 -0.579,-0.164c-0.164,-0.109 -0.291,-0.262 -0.381,-0.46c-0.09,-0.198 -0.134,-0.416 -0.134,-0.655c0,-0.257 0.048,-0.488 0.146,-0.694c0.098,-0.206 0.236,-0.363 0.415,-0.472c0.18,-0.109 0.389,-0.163 0.628,-0.163c0.38,0 0.679,0.142 0.898,0.425c0.219,0.284 0.328,0.672 0.328,1.162l0,0.143c0,0.747 -0.147,1.292 -0.443,1.636c-0.295,0.344 -0.741,0.52 -1.337,0.529l-0.095,0l0,-0.414l0.103,0c0.403,-0.007 0.712,-0.112 0.928,-0.315c0.217,-0.202 0.334,-0.523 0.354,-0.962Zm-0.752,0c0.164,0 0.314,-0.05 0.452,-0.15c0.138,-0.1 0.239,-0.224 0.302,-0.372l0,-0.195c0,-0.32 -0.069,-0.58 -0.208,-0.781c-0.139,-0.2 -0.315,-0.3 -0.527,-0.3c-0.215,0 -0.387,0.082 -0.517,0.246c-0.13,0.165 -0.195,0.381 -0.195,0.65c0,0.262 0.062,0.478 0.188,0.648c0.126,0.169 0.294,0.254 0.505,0.254Z" style="fill-opacity:0.54;fill-rule:nonzero;"/><g><path d="M110.544,194.933l-0.49,0l0,-3.252l-0.984,0.362l0,-0.443l1.398,-0.525l0.076,0l0,3.858Z" style="fill-opacity:0.54;fill-rule:nonzero;"/><path d="M113.574,194.933l-0.49,0l0,-3.252l-0.984,0.362l0,-0.443l1.398,-0.525l0.076,0l0,3.858Z" style="fill-opacity:0.54;fill-rule:nonzero;"/></g><rect x="-0.536" y="203.935" width="144.029" height="0.45" style="fill-opacity:0.12;"/><rect x="10.941" y="22.773" width="13.567" height="4.726" style="fill-opacity:0.12;"/><rect x="25.859" y="22.773" width="13.567" height="4.726" style="fill-opacity:0.12;"/><rect x="40.776" y="22.773" width="13.567" height="4.726" style="fill-opacity:0.12;"/><rect x="55.693" y="22.773" width="13.567" height="4.726" style="fill-opacity:0.12;"/><rect x="70.611" y="22.773" width="13.567" height="4.726" style="fill-opacity:0.12;"/><rect x="85.528" y="22.773" width="13.567" height="4.726" style="fill-opacity:0.12;"/><rect x="100.445" y="22.773" width="13.567" height="4.726" style="fill-opacity:0.12;"/><rect x="10.941" y="28.849" width="13.567" height="4.726" style="fill-opacity:0.12;"/><rect x="25.859" y="28.849" width="13.567" height="4.726" style="fill-opacity:0.12;"/><rect x="40.776" y="28.849" width="13.567" height="4.726" style="fill-opacity:0.12;"/><rect x="55.693" y="28.849" width="13.567" height="4.726" style="fill-opacity:0.12;"/><rect x="70.611" y="28.849" width="13.567" height="4.726" style="fill-opacity:0.12;"/><rect x="85.528" y="28.849" width="13.567" height="4.726" style="fill-opacity:0.12;"/><rect x="100.445" y="28.849" width="13.567" height="4.726" style="fill-opacity:0.12;"/><rect x="10.941" y="34.925" width="13.567" height="4.726" style="fill-opacity:0.12;"/><rect x="25.859" y="34.925" width="13.567" height="4.726" style="fill-opacity:0.12;"/><rect x="40.776" y="34.925" width="13.567" height="4.726" style="fill-opacity:0.12;"/><rect x="55.693" y="34.925" width="13.567" height="4.726" style="fill-opacity:0.12;"/><rect x="70.611" y="34.925" width="13.567" height="4.726" style="fill-opacity:0.12;"/><rect x="85.528" y="34.925" width="13.567" height="4.726" style="fill-opacity:0.12;"/><rect x="100.445" y="34.925" width="13.567" height="4.726" style="fill-opacity:0.12;"/><rect x="10.941" y="41.002" width="13.567" height="4.726" style="fill-opacity:0.12;"/><rect x="25.859" y="41.002" width="13.567" height="4.726" style="fill-opacity:0.12;"/><rect x="40.776" y="41.002" width="13.567" height="4.726" style="fill-opacity:0.12;"/><rect x="55.693" y="41.002" width="13.567" height="4.726" style="fill-opacity:0.12;"/><rect x="70.611" y="41.002" width="13.567" height="4.726" style="fill-opacity:0.12;"/><rect x="85.528" y="41.002" width="13.567" height="4.726" style="fill-opacity:0.12;"/><rect x="100.445" y="41.002" width="13.567" height="4.726" style="fill-opacity:0.12;"/><rect x="10.941" y="47.078" width="13.567" height="4.726" style="fill-opacity:0.12;"/><rect x="25.859" y="47.078" width="13.567" height="4.726" style="fill-opacity:0.12;"/><rect x="40.776" y="47.078" width="13.567" height="4.726" style="fill-opacity:0.12;"/><rect x="55.693" y="47.078" width="13.567" height="4.726" style="fill-opacity:0.12;"/><rect x="70.611" y="47.078" width="13.567" height="4.726" style="fill-opacity:0.12;"/><rect x="85.528" y="47.078" width="13.567" height="4.726" style="fill-opacity:0.12;"/><rect x="100.445" y="47.078" width="13.567" height="4.726" style="fill-opacity:0.12;"/><rect x="10.941" y="53.154" width="13.567" height="4.726" style="fill-opacity:0.12;"/><rect x="25.859" y="53.154" width="13.567" height="4.726" style="fill:#93d5ed;"/><rect x="40.776" y="53.154" width="13.567" height="4.726" style="fill-opacity:0.12;"/><rect x="55.693" y="53.154" width="13.567" height="4.726" style="fill:#93d5ed;"/><rect x="70.611" y="53.154" width="13.567" height="4.726" style="fill-opacity:0.12;"/><rect x="85.528" y="53.154" width="13.567" height="4.726" style="fill-opacity:0.12;"/><rect x="100.445" y="53.154" width="13.567" height="4.726" style="fill-opacity:0.12;"/><rect x="10.941" y="59.23" width="13.567" height="4.726" style="fill-opacity:0.12;"/><rect x="25.859" y="59.23" width="13.567" height="4.726" style="fill-opacity:0.12;"/><rect x="40.776" y="59.23" width="13.567" height="4.726" style="fill-opacity:0.12;"/><rect x="55.693" y="59.23" width="13.567" height="4.726" style="fill:#93d5ed;"/><rect x="70.611" y="59.23" width="13.567" height="4.726" style="fill:#93d5ed;"/><rect x="85.528" y="59.23" width="13.567" height="4.726" style="fill-opacity:0.12;"/><rect x="100.445" y="59.23" width="13.567" height="4.726" style="fill-opacity:0.12;"/><rect x="10.941" y="65.307" width="13.567" height="4.726" style="fill:#93d5ed;"/><rect x="25.859" y="65.307" width="13.567" height="4.726" style="fill:#93d5ed;"/><rect x="40.776" y="65.307" width="13.567" height="4.726" style="fill-opacity:0.12;"/><rect x="55.693" y="65.307" width="13.567" height="4.726" style="fill:#93d5ed;"/><rect x="70.611" y="65.307" width="13.567" height="4.726" style="fill-opacity:0.12;"/><rect x="85.528" y="65.307" width="13.567" height="4.726" style="fill-opacity:0.12;"/><rect x="100.445" y="65.307" width="13.567" height="4.726" style="fill-opacity:0.12;"/><rect x="10.941" y="71.383" width="13.567" height="4.726" style="fill-opacity:0.12;"/><rect x="25.859" y="71.383" width="13.567" height="4.726" style="fill:#2f5ec4;"/><rect x="40.776" y="71.383" width="13.567" height="4.726" style="fill:#93d5ed;"/><rect x="55.693" y="71.383" width="13.567" height="4.726" style="fill:#93d5ed;"/><rect x="70.611" y="71.383" width="13.567" height="4.726" style="fill:#93d5ed;"/><rect x="85.528" y="71.383" width="13.567" height="4.726" style="fill:#93d5ed;"/><rect x="100.445" y="71.383" width="13.567" height="4.726" style="fill:#93d5ed;"/><rect x="10.941" y="77.459" width="13.567" height="4.726" style="fill-opacity:0.12;"/><rect x="25.859" y="77.459" width="13.567" height="4.726" style="fill:#93d5ed;"/><rect x="40.776" y="77.459" width="13.567" height="4.726" style="fill:#93d5ed;"/><rect x="55.693" y="77.459" width="13.567" height="4.726" style="fill:#93d5ed;"/><rect x="70.611" y="77.459" width="13.567" height="4.726" style="fill-opacity:0.12;"/><rect x="85.528" y="77.459" width="13.567" height="4.726" style="fill:#93d5ed;"/><rect x="100.445" y="77.459" width="13.567" height="4.726" style="fill-opacity:0.12;"/><rect x="10.941" y="83.535" width="13.567" height="4.726" style="fill:#45a5f5;"/><rect x="25.859" y="83.535" width="13.567" height="4.726" style="fill:#93d5ed;"/><rect x="40.776" y="83.535" width="13.567" height="4.726" style="fill:#93d5ed;"/><rect x="55.693" y="83.535" width="13.567" height="4.726" style="fill-opacity:0.12;"/><rect x="70.611" y="83.535" width="13.567" height="4.726" style="fill-opacity:0.12;"/><rect x="85.528" y="83.535" width="13.567" height="4.726" style="fill:#93d5ed;"/><rect x="100.445" y="83.535" width="13.567" height="4.726" style="fill:#93d5ed;"/><rect x="10.941" y="89.612" width="13.567" height="4.726" style="fill:#93d5ed;"/><rect x="25.859" y="89.612" width="13.567" height="4.726" style="fill:#93d5ed;"/><rect x="40.776" y="89.612" width="13.567" height="4.726" style="fill:#45a5f5;"/><rect x="55.693" y="89.612" width="13.567" height="4.726" style="fill:#93d5ed;"/><rect x="70.611" y="89.612" width="13.567" height="4.726" style="fill:#93d5ed;"/><rect x="85.528" y="89.612" width="13.567" height="4.726" style="fill:#93d5ed;"/><rect x="100.445" y="89.612" width="13.567" height="4.726" style="fill:#93d5ed;"/><rect x="10.941" y="95.688" width="13.567" height="4.726" style="fill:#93d5ed;"/><rect x="25.859" y="95.688" width="13.567" height="4.726" style="fill:#93d5ed;"/><rect x="40.776" y="95.688" width="13.567" height="4.726" style="fill:#93d5ed;"/><rect x="55.693" y="95.688" width="13.567" height="4.726" style="fill:#93d5ed;"/><rect x="70.611" y="95.688" width="13.567" height="4.726" style="fill:#93d5ed;"/><rect x="85.528" y="95.688" width="13.567" height="4.726" style="fill:#93d5ed;"/><rect x="100.445" y="95.688" width="13.567" height="4.726" style="fill:#93d5ed;"/><rect x="10.941" y="101.764" width="13.567" height="4.726" style="fill:#93d5ed;"/><rect x="25.859" y="101.764" width="13.567" height="4.726" style="fill:#93d5ed;"/><rect x="40.776" y="101.764" width="13.567" height="4.726" style="fill:#93d5ed;"/><rect x="55.693" y="101.764" width="13.567" height="4.726" style="fill:#45a5f5;"/><rect x="70.611" y="101.764" width="13.567" height="4.726" style="fill:#93d5ed;"/><rect x="85.528" y="101.764" width="13.567" height="4.726" style="fill:#93d5ed;"/><rect x="100.445" y="101.764" width="13.567" height="4.726" style="fill:#93d5ed;"/><rect x="10.941" y="107.84" width="13.567" height="4.726" style="fill-opacity:0.12;"/><rect x="25.859" y="107.84" width="13.567" height="4.726" style="fill:#93d5ed;"/><rect x="40.776" y="107.84" width="13.567" height="4.726" style="fill:#4285f4;"/><rect x="55.693" y="107.84" width="13.567" height="4.726" style="fill-opacity:0.12;"/><rect x="70.611" y="107.84" width="13.567" height="4.726" style="fill:#93d5ed;"/><rect x="85.528" y="107.84" width="13.567" height="4.726" style="fill-opacity:0.12;"/><rect x="100.445" y="107.84" width="13.567" height="4.726" style="fill:#93d5ed;"/><rect x="10.941" y="113.917" width="13.567" height="4.726" style="fill:#45a5f5;"/><rect x="25.859" y="113.917" width="13.567" height="4.726" style="fill-opacity:0.12;"/><rect x="40.776" y="113.917" width="13.567" height="4.726" style="fill:#93d5ed;"/><rect x="55.693" y="113.917" width="13.567" height="4.726" style="fill:#93d5ed;"/><rect x="70.611" y="113.917" width="13.567" height="4.726" style="fill:#93d5ed;"/><rect x="85.528" y="113.917" width="13.567" height="4.726" style="fill:#93d5ed;"/><rect x="100.445" y="113.917" width="13.567" height="4.726" style="fill:#93d5ed;"/><rect x="10.941" y="119.993" width="13.567" height="4.726" style="fill-opacity:0.12;"/><rect x="25.859" y="119.993" width="13.567" height="4.726" style="fill-opacity:0.12;"/><rect x="40.776" y="119.993" width="13.567" height="4.726" style="fill:#93d5ed;"/><rect x="55.693" y="119.993" width="13.567" height="4.726" style="fill:#93d5ed;"/><rect x="70.611" y="119.993" width="13.567" height="4.726" style="fill:#93d5ed;"/><rect x="85.528" y="119.993" width="13.567" height="4.726" style="fill-opacity:0.12;"/><rect x="100.445" y="119.993" width="13.567" height="4.726" style="fill-opacity:0.12;"/><rect x="10.941" y="126.069" width="13.567" height="4.726" style="fill:#93d5ed;"/><rect x="25.859" y="126.069" width="13.567" height="4.726" style="fill:#93d5ed;"/><rect x="40.776" y="126.069" width="13.567" height="4.726" style="fill-opacity:0.12;"/><rect x="55.693" y="126.069" width="13.567" height="4.726" style="fill:#93d5ed;"/><rect x="70.611" y="126.069" width="13.567" height="4.726" style="fill:#93d5ed;"/><rect x="85.528" y="126.069" width="13.567" height="4.726" style="fill:#93d5ed;"/><rect x="100.445" y="126.069" width="13.567" height="4.726" style="fill:#93d5ed;"/><rect x="10.941" y="132.145" width="13.567" height="4.726" style="fill-opacity:0.12;"/><rect x="25.859" y="132.145" width="13.567" height="4.726" style="fill:#93d5ed;"/><rect x="40.776" y="132.145" width="13.567" height="4.726" style="fill:#93d5ed;"/><rect x="55.693" y="132.145" width="13.567" height="4.726" style="fill-opacity:0.12;"/><rect x="70.611" y="132.145" width="13.567" height="4.726" style="fill:#93d5ed;"/><rect x="85.528" y="132.145" width="13.567" height="4.726" style="fill:#93d5ed;"/><rect x="100.445" y="132.145" width="13.567" height="4.726" style="fill:#93d5ed;"/><rect x="10.941" y="138.222" width="13.567" height="4.726" style="fill-opacity:0.12;"/><rect x="25.859" y="138.222" width="13.567" height="4.726" style="fill:#93d5ed;"/><rect x="40.776" y="138.222" width="13.567" height="4.726" style="fill:#93d5ed;"/><rect x="55.693" y="138.222" width="13.567" height="4.726" style="fill-opacity:0.12;"/><rect x="70.611" y="138.222" width="13.567" height="4.726" style="fill:#93d5ed;"/><rect x="85.528" y="138.222" width="13.567" height="4.726" style="fill:#93d5ed;"/><rect x="100.445" y="138.222" width="13.567" height="4.726" style="fill-opacity:0.12;"/><rect x="10.941" y="144.298" width="13.567" height="4.726" style="fill:#93d5ed;"/><rect x="25.859" y="144.298" width="13.567" height="4.726" style="fill:#93d5ed;"/><rect x="40.776" y="144.298" width="13.567" height="4.726" style="fill:#93d5ed;"/><rect x="55.693" y="144.298" width="13.567" height="4.726" style="fill-opacity:0.12;"/><rect x="70.611" y="144.298" width="13.567" height="4.726" style="fill-opacity:0.12;"/><rect x="85.528" y="144.298" width="13.567" height="4.726" style="fill:#93d5ed;"/><rect x="100.445" y="144.298" width="13.567" height="4.726" style="fill:#93d5ed;"/><rect x="10.941" y="150.374" width="13.567" height="4.726" style="fill-opacity:0.12;"/><rect x="25.859" y="150.374" width="13.567" height="4.726" style="fill-opacity:0.12;"/><rect x="40.776" y="150.374" width="13.567" height="4.726" style="fill:#93d5ed;"/><rect x="55.693" y="150.374" width="13.567" height="4.726" style="fill:#93d5ed;"/><rect x="70.611" y="150.374" width="13.567" height="4.726" style="fill-opacity:0.12;"/><rect x="85.528" y="150.374" width="13.567" height="4.726" style="fill-opacity:0.12;"/><rect x="100.445" y="150.374" width="13.567" height="4.726" style="fill-opacity:0.12;"/><rect x="10.941" y="156.45" width="13.567" height="4.726" style="fill-opacity:0.12;"/><rect x="25.859" y="156.45" width="13.567" height="4.726" style="fill-opacity:0.12;"/><rect x="40.776" y="156.45" width="13.567" height="4.726" style="fill:#93d5ed;"/><rect x="55.693" y="156.45" width="13.567" height="4.726" style="fill:#93d5ed;"/><rect x="70.611" y="156.45" width="13.567" height="4.726" style="fill-opacity:0.12;"/><rect x="85.528" y="156.45" width="13.567" height="4.726" style="fill-opacity:0.12;"/><rect x="100.445" y="156.45" width="13.567" height="4.726" style="fill-opacity:0.12;"/><rect x="10.941" y="162.527" width="13.567" height="4.726" style="fill-opacity:0.12;"/><rect x="25.859" y="162.527" width="13.567" height="4.726" style="fill-opacity:0.12;"/><rect x="40.776" y="162.527" width="13.567" height="4.726" style="fill-opacity:0.12;"/><rect x="55.693" y="162.527" width="13.567" height="4.726" style="fill-opacity:0.12;"/><rect x="70.611" y="162.527" width="13.567" height="4.726" style="fill-opacity:0.12;"/><rect x="85.528" y="162.527" width="13.567" height="4.726" style="fill-opacity:0.12;"/><rect x="100.445" y="162.527" width="13.567" height="4.726" style="fill-opacity:0.12;"/><rect x="10.266" y="183.681" width="24.755" height="4.501" style="fill:#93d5ed;"/><rect x="36.372" y="183.681" width="24.755" height="4.501" style="fill:#45a5f5;"/><rect x="62.477" y="183.681" width="24.755" height="4.501" style="fill:#4285f4;"/><rect x="88.582" y="183.681" width="24.755" height="4.501" style="fill:#2f5ec4;"/></g></g></g></svg>