<?xml version="1.0" encoding="UTF-8" standalone="no"?><!DOCTYPE svg PUBLIC "-//W3C//DTD SVG 1.1//EN" "http://www.w3.org/Graphics/SVG/1.1/DTD/svg11.dtd"><svg width="100%" height="100%" viewBox="0 0 1376 788" version="1.1" xmlns="http://www.w3.org/2000/svg" xmlns:xlink="http://www.w3.org/1999/xlink" xml:space="preserve" xmlns:serif="http://www.serif.com/" style="fill-rule:evenodd;clip-rule:evenodd;stroke-linejoin:round;"><g id="Group_362"><g id="Large_Body"><g id="Quote"><text x="6.3px" y="460px" style="font-family:'Roboto-Italic', 'Roboto';font-style:italic;font-size:20px;fill:#707070;">Quote</text></g><g id="Italic_20pt"><text x="6.3px" y="480px" style="font-family:'Vollkorn-Regular', 'Vollkorn';font-size:10px;fill:#707070;">Italic  20pt</text></g></g><g id="Quote-2"><g id="Large_Body-2"><text x="6.3px" y="393px" style="font-family:'Roboto-Light', 'Roboto';font-weight:300;font-size:30px;">Lar<tspan x="47.989px " y="393px ">g</tspan>e Body</text></g><g id="Regular_30pt"><text x="6.3px" y="414px" style="font-family:'Vollkorn-Regular', 'Vollkorn';font-size:10px;fill:#707070;">R<tspan x="12.94px " y="414px ">e</tspan>gular 3<tspan x="47.52px " y="414px ">0</tspan>pt</text></g></g><g id="Subheader"><g id="Subheader-2"><text x="6.749px" y="325px" style="font-family:'Oswald-Bold', 'Oswald';font-weight:700;font-size:42px;">Subheader</text></g><g id="Regular_42pt"><text x="6.3px" y="344px" style="font-family:'Vollkorn-Regular', 'Vollkorn';font-size:10px;fill:#707070;">R<tspan x="12.94px " y="344px ">e</tspan>gular 42pt</text></g></g><g id="Group_242"><g id="Title"><text x="6.3px" y="233px" style="font-family:'Oswald-Regular', 'Oswald';font-size:65px;">Title</text></g><g id="Regular_65pt"><text x="6.3px" y="248px" style="font-family:'Vollkorn-Regular', 'Vollkorn';font-size:10px;fill:#707070;">R<tspan x="12.94px " y="248px ">e</tspan>gular 65pt</text></g></g><g id="Group_243"><g id="Headline"><text x="0.3px" y="119px" style="font-family:'Oswald-Bold', 'Oswald';font-weight:700;font-size:100px;">Headline</text></g><g id="Bold_100pt"><text x="5.3px" y="135px" style="font-family:'Vollkorn-Regular', 'Vollkorn';font-size:10px;fill:#707070;">Bold 10<tspan x="37.47px " y="135px ">0</tspan>pt</text></g></g><g id="Rectangle_469"><path d="M395.3,704.568c0,-2.76 -2.24,-5 -5,-5l-385.3,0c-2.76,0 -5,2.24 -5,5l0,78.348c0,2.76 2.24,5 5,5l385.3,0c2.76,0 5,-2.24 5,-5l0,-78.348Z" style="fill:#fff;"/><path d="M393.8,704.568c0,-1.932 -1.568,-3.5 -3.5,-3.5l-385.3,0c-1.932,0 -3.5,1.568 -3.5,3.5l0,78.348c0,1.932 1.568,3.5 3.5,3.5l385.3,0c1.932,0 3.5,-1.568 3.5,-3.5l0,-78.348Z" style="fill:none;stroke:#3a3a3a;stroke-width:3px;"/></g><g id="secondary_Button"><text x="21.038px" y="754.958px" style="font-family:'Roboto-Regular', 'Roboto';font-size:35px;fill:#262626;">secondar<tspan x="166.148px " y="754.958px ">y</tspan> Butt<tspan x="254.981px " y="754.958px ">o</tspan>n</text></g><g id="Rectangle_491"><path d="M395.3,578c0,-2.76 -2.24,-5 -5,-5l-385.3,0c-2.76,0 -5,2.24 -5,5l0,78.348c0,2.76 2.24,5 5,5l385.3,0c2.76,0 5,-2.24 5,-5l0,-78.348Z" style="fill:#3a3a3a;"/><path d="M393.8,578c0,-1.932 -1.568,-3.5 -3.5,-3.5l-385.3,0c-1.932,0 -3.5,1.568 -3.5,3.5l0,78.348c0,1.932 1.568,3.5 3.5,3.5l385.3,0c1.932,0 3.5,-1.568 3.5,-3.5l0,-78.348Z" style="fill:none;stroke:#3a3a3a;stroke-width:3px;"/></g><g id="Primary_Button"><text x="47.064px" y="628.39px" style="font-family:'Roboto-Regular', 'Roboto';font-size:35px;fill:#fff;">Primar<tspan x="151.346px " y="628.39px ">y</tspan> Butt<tspan x="240.179px " y="628.39px ">o</tspan>n</text></g><g id="Rectangle_451"><rect x="499.3" y="232.631" width="355.578" height="161.715" style="fill:#e9e9e9;"/><rect x="499.8" y="233.131" width="354.578" height="160.715" style="fill:none;stroke:#707070;stroke-width:1px;stroke-linejoin:miter;"/></g><rect id="Rectangle_452" x="499.3" y="626.202" width="355.578" height="161.715" style="fill:#262626;"/><g id="Rectangle_453"><rect x="499.3" y="33.897" width="355.578" height="163.663" style="fill:#fff;"/><rect x="499.8" y="34.397" width="354.578" height="162.663" style="fill:none;stroke:#707070;stroke-width:1px;stroke-linejoin:miter;"/></g><g id="_262626"><text x="499.3px" y="769.059px" style="font-family:'RobotoCondensed-Bold', 'Roboto Condensed';font-weight:700;font-size:65px;fill:#fff;">#262626</text></g><g id="Rectangle_454"><rect x="499.3" y="429.417" width="355.578" height="161.715" style="fill:#9f9f9f;"/><rect x="499.8" y="429.917" width="354.578" height="160.715" style="fill:none;stroke:#707070;stroke-width:1px;stroke-linejoin:miter;"/></g><g id="_FFFFFF"><text x="499.3px" y="178.703px" style="font-family:'RobotoCondensed-Bold', 'Roboto Condensed';font-weight:700;font-size:65px;">#FFFFFF</text></g><g id="_9f9f9f"><text x="499.3px" y="572.274px" style="font-family:'RobotoCondensed-Bold', 'Roboto Condensed';font-weight:700;font-size:65px;fill:#fff;">#9f9f9f</text></g><g id="_E9E9E9_" serif:id="_E9E9E9"><text x="499.3px" y="375.489px" style="font-family:'RobotoCondensed-Bold', 'Roboto Condensed';font-weight:700;font-size:65px;">#E9E9E9</text></g><rect id="Path_16-2" x="966.3" y="116" width="400.971" height="590.655" style="fill:#b04916;fill-rule:nonzero;"/><rect id="Path_16-21" serif:id="Path_16-2" x="952.577" y="129.723" width="400.971" height="590.655" style="fill:#f87a3b;fill-rule:nonzero;"/><g id="Fuel_Nutrition"><text x="999.697px" y="197.721px" style="font-family:'Oswald-Regular', 'Oswald';font-size:36px;fill:#fff;">Fuel Nutrition</text></g><g id="Branding_Strategy"><text x="999.697px" y="660.86px" style="font-family:'RobotoCondensed-Regular', 'Roboto Condensed';font-size:30px;fill:#fff;">Br<tspan x="1024.6px " y="660.86px ">a</tspan>nding Str<tspan x="1144.35px " y="660.86px ">a</tspan>tegy</text></g><rect id="plus_white" x="1013.22" y="242.254" width="304.429" height="304.429" style="fill:none;"/><path id="surface1" d="M1120.07,370.341c-0.74,2.597 -3.09,4.388 -5.808,4.388l-32.324,0c-12.424,0 -24.783,-0.062 -37.207,0.062c-6.181,0.064 -12.36,-0.124 -18.541,0.865c-7.725,1.174 -10.692,4.142 -12.794,11.558c-4.821,17.12 -9.703,34.179 -14.525,51.299c-0.74,2.656 0.434,5.5 2.844,6.921c4.018,2.286 11.062,2.535 15.327,2.535l73.238,0c1.485,0 2.844,-0.185 4.265,0.617c1.361,0.804 2.473,1.423 2.72,3.214c0.308,2.04 -1.174,6.738 -1.67,8.529c-3.46,12.177 -6.921,24.413 -10.381,36.65c-1.423,5.007 -2.474,9.952 -2.536,15.267c-0.061,5.439 1.238,10.074 3.586,14.893c2.719,5.565 4.573,8.098 9.331,12.177c3.214,2.78 8.778,7.045 12.794,8.653c5.688,1.916 17.616,2.844 23.486,2.718c3.956,-0.123 7.851,-0.247 11.743,-1.421c4.511,-1.359 6.428,-3.894 7.664,-8.282c7.601,-26.823 15.203,-53.708 22.807,-80.532c0.37,-1.297 0.124,-2.163 -0.865,-3.152c-8.345,-8.033 -16.689,-16.069 -25.033,-24.103c-2.037,-1.978 -0.678,-5.438 2.163,-5.438l120.829,0c7.602,0 13.351,-2.844 19.469,-6.798c2.905,-1.916 5.872,-3.71 8.529,-6.058c2.782,-2.41 4.449,-5.192 5.623,-8.652c1.979,-5.935 2.783,-14.464 2.659,-20.704c-0.123,-4.203 -0.308,-6.492 -4.449,-8.655c-3.338,-1.729 -6.613,-1.914 -10.199,-1.914l-88.257,0c-4.018,0 -6.921,-3.833 -5.809,-7.727c4.139,-14.585 8.281,-29.234 12.422,-43.818c5.562,-19.532 -3.584,-35.972 -20.704,-45.305c-8.406,-4.573 -16.812,-5.87 -26.145,-6.117c-11.99,-0.372 -16.501,0.866 -20.023,13.226c-8.221,28.367 -16.254,56.737 -24.229,85.104Z" style="fill:#fefefe;fill-rule:nonzero;"/></g></svg>