<?xml version="1.0" encoding="UTF-8" standalone="no"?><!DOCTYPE svg PUBLIC "-//W3C//DTD SVG 1.1//EN" "http://www.w3.org/Graphics/SVG/1.1/DTD/svg11.dtd"><svg width="100%" height="100%" viewBox="0 0 1368 756" version="1.1" xmlns="http://www.w3.org/2000/svg" xmlns:xlink="http://www.w3.org/1999/xlink" xml:space="preserve" xmlns:serif="http://www.serif.com/" style="fill-rule:evenodd;clip-rule:evenodd;stroke-linejoin:round;"><g id="Large_Body"><g id="Quote"><path d="M15.157,426.923l2.12,2.041l-1.358,1.103l-2.48,-2.373c-0.482,0.104 -0.964,0.157 -1.446,0.157c-0.892,-0.007 -1.676,-0.223 -2.353,-0.65c-0.677,-0.426 -1.203,-1.042 -1.577,-1.846c-0.375,-0.804 -0.581,-1.713 -0.62,-2.729c-0.039,-0.82 0.047,-1.799 0.258,-2.935c0.212,-1.136 0.575,-2.161 1.089,-3.076c0.515,-0.915 1.136,-1.652 1.865,-2.212c1.042,-0.794 2.234,-1.178 3.575,-1.152c0.918,0.019 1.715,0.241 2.392,0.664c0.677,0.423 1.201,1.037 1.573,1.841c0.371,0.804 0.576,1.714 0.615,2.729c0.019,0.547 -0.003,1.091 -0.069,1.631l-0.117,0.83c-0.403,2.806 -1.559,4.798 -3.467,5.977Zm1.836,-7.988c0.046,-1.303 -0.179,-2.302 -0.673,-2.999c-0.495,-0.696 -1.218,-1.057 -2.168,-1.083c-0.873,-0.027 -1.652,0.208 -2.339,0.703c-0.687,0.494 -1.25,1.235 -1.69,2.221c-0.439,0.987 -0.718,2.235 -0.835,3.745l-0.029,0.635c-0.026,0.749 0.062,1.449 0.264,2.1c0.201,0.651 0.522,1.146 0.962,1.484c0.439,0.339 0.978,0.518 1.616,0.537c1.198,0.046 2.205,-0.387 3.022,-1.299c0.817,-0.911 1.363,-2.197 1.636,-3.857c0.137,-0.827 0.215,-1.556 0.234,-2.187Z" style="fill:#707070;fill-rule:nonzero;"/><path d="M26.749,426.62c-0.827,0.853 -1.878,1.266 -3.154,1.24c-1.009,-0.026 -1.756,-0.387 -2.241,-1.084c-0.485,-0.696 -0.666,-1.647 -0.542,-2.851l1.133,-6.826l1.767,0l-1.142,6.855c-0.033,0.287 -0.04,0.566 -0.02,0.84c0.033,0.469 0.173,0.836 0.42,1.103c0.247,0.267 0.592,0.411 1.035,0.43c1.263,0.039 2.24,-0.472 2.93,-1.533l1.328,-7.695l1.767,0l-1.835,10.566l-1.67,0l0.224,-1.045Z" style="fill:#707070;fill-rule:nonzero;"/><path d="M36.7,416.903c0.886,0.013 1.644,0.254 2.276,0.723c0.631,0.469 1.098,1.115 1.401,1.938c0.303,0.824 0.405,1.724 0.308,2.701l-0.02,0.214c-0.123,1.029 -0.429,1.958 -0.918,2.789c-0.488,0.83 -1.12,1.476 -1.894,1.938c-0.775,0.462 -1.625,0.68 -2.549,0.654c-0.879,-0.013 -1.636,-0.254 -2.271,-0.722c-0.634,-0.469 -1.098,-1.107 -1.391,-1.914c-0.293,-0.808 -0.397,-1.696 -0.313,-2.666c0.098,-1.094 0.394,-2.077 0.889,-2.95c0.495,-0.872 1.131,-1.547 1.909,-2.026c0.778,-0.479 1.636,-0.705 2.573,-0.679Zm-3.593,5.664c-0.046,0.41 -0.046,0.837 0,1.28c0.065,0.768 0.294,1.38 0.688,1.836c0.394,0.455 0.92,0.693 1.577,0.712c0.586,0.02 1.127,-0.125 1.621,-0.434c0.495,-0.309 0.912,-0.776 1.25,-1.401c0.339,-0.625 0.557,-1.319 0.655,-2.081c0.052,-0.599 0.062,-1.103 0.029,-1.513c-0.078,-0.788 -0.316,-1.41 -0.713,-1.865c-0.397,-0.456 -0.924,-0.697 -1.582,-0.723c-0.911,-0.02 -1.686,0.338 -2.324,1.074c-0.638,0.736 -1.032,1.699 -1.182,2.891l-0.019,0.224Z" style="fill:#707070;fill-rule:nonzero;"/><path d="M46.661,414.54l-0.449,2.559l1.924,0l-0.244,1.396l-1.914,0l-1.104,6.589c-0.019,0.17 -0.023,0.326 -0.01,0.47c0.046,0.509 0.323,0.763 0.831,0.763c0.214,0 0.501,-0.032 0.859,-0.097l-0.137,1.457c-0.423,0.116 -0.853,0.174 -1.289,0.174c-0.703,-0.013 -1.23,-0.272 -1.582,-0.777c-0.351,-0.504 -0.488,-1.183 -0.41,-2.036l1.074,-6.543l-1.865,0l0.244,-1.396l1.865,0l0.45,-2.559l1.757,0Z" style="fill:#707070;fill-rule:nonzero;"/><path d="M52.999,427.86c-1.315,-0.026 -2.344,-0.511 -3.086,-1.455c-0.742,-0.944 -1.054,-2.151 -0.937,-3.623l0.049,-0.42c0.11,-1.048 0.421,-2.005 0.932,-2.871c0.511,-0.866 1.135,-1.518 1.87,-1.958c0.736,-0.439 1.53,-0.649 2.383,-0.63c1.087,0.026 1.94,0.388 2.559,1.084c0.618,0.697 0.957,1.641 1.015,2.832c0.02,0.423 0.007,0.847 -0.039,1.27l-0.107,0.81l-6.904,0c-0.118,0.957 0.04,1.771 0.473,2.442c0.433,0.67 1.079,1.019 1.939,1.045c1.041,0.026 2.005,-0.443 2.89,-1.407l1.016,0.86c-0.443,0.638 -1.014,1.138 -1.714,1.499c-0.7,0.361 -1.479,0.535 -2.339,0.522Zm1.123,-9.482c-0.729,-0.02 -1.365,0.228 -1.909,0.742c-0.544,0.514 -0.975,1.279 -1.294,2.295l5.137,0.01l0.039,-0.156c0.104,-0.821 -0.028,-1.503 -0.396,-2.046c-0.367,-0.544 -0.893,-0.826 -1.577,-0.845Z" style="fill:#707070;fill-rule:nonzero;"/></g><g id="Italic_20pt"><path d="M7.6,442.175c0,-0.333 -0.048,-0.558 -0.145,-0.675c-0.097,-0.117 -0.278,-0.182 -0.545,-0.195c-0.033,-0.093 -0.05,-0.237 -0.05,-0.43c0.367,0.02 0.77,0.03 1.21,0.03c0.407,0 0.81,-0.01 1.21,-0.03c0,0.193 -0.017,0.337 -0.05,0.43c-0.267,0.013 -0.448,0.078 -0.545,0.195c-0.097,0.117 -0.145,0.342 -0.145,0.675l0,4.22c0,0.333 0.048,0.558 0.145,0.675c0.097,0.117 0.278,0.182 0.545,0.195c0.033,0.093 0.05,0.237 0.05,0.43c-0.4,-0.02 -0.803,-0.03 -1.21,-0.03c-0.467,0 -0.87,0.01 -1.21,0.03c0,-0.193 0.017,-0.337 0.05,-0.43c0.267,-0.013 0.448,-0.078 0.545,-0.195c0.097,-0.117 0.145,-0.342 0.145,-0.675l0,-4.22Z" style="fill:#707070;fill-rule:nonzero;"/><path d="M11.92,447.755c-0.4,0 -0.693,-0.102 -0.88,-0.305c-0.187,-0.203 -0.28,-0.532 -0.28,-0.985l0,-2.71c-0.2,-0.067 -0.44,-0.11 -0.72,-0.13c0,-0.153 0.03,-0.3 0.09,-0.44l0.63,0l0,-1.32c0.26,-0.073 0.507,-0.207 0.74,-0.4c0.067,0.033 0.11,0.078 0.13,0.135c0.02,0.057 0.03,0.185 0.03,0.385l0,1.2l1.3,0c0,0.14 -0.03,0.287 -0.09,0.44c-0.493,0.02 -0.897,0.063 -1.21,0.13l0,2.5c0,0.64 0.193,0.96 0.58,0.96c0.133,0 0.252,-0.02 0.355,-0.06c0.103,-0.04 0.205,-0.1 0.305,-0.18c0.087,0.1 0.137,0.21 0.15,0.33c-0.113,0.127 -0.278,0.233 -0.495,0.32c-0.217,0.087 -0.428,0.13 -0.635,0.13Z" style="fill:#707070;fill-rule:nonzero;"/><path d="M17.31,446.205c0,0.207 0.015,0.362 0.045,0.465c0.03,0.103 0.088,0.178 0.175,0.225c0.087,0.047 0.22,0.077 0.4,0.09c0,0.193 -0.02,0.347 -0.06,0.46c-0.167,0.013 -0.352,0.048 -0.555,0.105c-0.203,0.057 -0.382,0.125 -0.535,0.205c-0.08,-0.033 -0.14,-0.095 -0.18,-0.185c-0.04,-0.09 -0.06,-0.225 -0.06,-0.405c0,-0.113 0.003,-0.2 0.01,-0.26c-0.08,0.193 -0.197,0.357 -0.35,0.49c-0.26,0.227 -0.613,0.34 -1.06,0.34c-0.413,0 -0.732,-0.093 -0.955,-0.28c-0.223,-0.187 -0.335,-0.447 -0.335,-0.78c0,-0.393 0.143,-0.708 0.43,-0.945c0.287,-0.237 0.607,-0.405 0.96,-0.505c0.353,-0.1 0.743,-0.18 1.17,-0.24c0,-0.407 -0.013,-0.688 -0.04,-0.845c-0.027,-0.157 -0.083,-0.288 -0.17,-0.395c-0.16,-0.2 -0.367,-0.3 -0.62,-0.3c-0.3,0 -0.518,0.123 -0.655,0.37c-0.137,0.247 -0.212,0.51 -0.225,0.79c-0.087,0 -0.183,-0.007 -0.29,-0.02c-0.107,-0.013 -0.183,-0.03 -0.23,-0.05c0.007,-0.067 0.01,-0.18 0.01,-0.34c0,-0.293 -0.02,-0.543 -0.06,-0.75c0.267,-0.14 0.553,-0.25 0.86,-0.33c0.307,-0.08 0.587,-0.12 0.84,-0.12c0.453,0 0.807,0.127 1.06,0.38c0.16,0.16 0.27,0.372 0.33,0.635c0.06,0.263 0.09,0.628 0.09,1.095l0,1.1Zm-0.9,-0.81c-0.32,0.04 -0.587,0.088 -0.8,0.145c-0.213,0.057 -0.398,0.16 -0.555,0.31c-0.157,0.15 -0.235,0.358 -0.235,0.625c0,0.233 0.057,0.41 0.17,0.53c0.113,0.12 0.257,0.18 0.43,0.18c0.16,0 0.315,-0.05 0.465,-0.15c0.15,-0.1 0.275,-0.257 0.375,-0.47c0.1,-0.213 0.15,-0.477 0.15,-0.79l0,-0.38Z" style="fill:#707070;fill-rule:nonzero;"/><path d="M18.69,447.695c0,-0.18 0.017,-0.323 0.05,-0.43c0.267,0 0.448,-0.062 0.545,-0.185c0.097,-0.123 0.145,-0.352 0.145,-0.685l0,-4.48c0,-0.173 -0.017,-0.31 -0.05,-0.41c-0.033,-0.1 -0.103,-0.175 -0.21,-0.225c-0.107,-0.05 -0.27,-0.075 -0.49,-0.075c0,-0.153 0.03,-0.277 0.09,-0.37c0.167,0 0.403,-0.037 0.71,-0.11c0.307,-0.073 0.517,-0.15 0.63,-0.23c0.147,0.047 0.22,0.18 0.22,0.4l0,5.5c0,0.333 0.043,0.562 0.13,0.685c0.087,0.123 0.24,0.185 0.46,0.185c0.033,0.113 0.05,0.257 0.05,0.43c-0.347,-0.02 -0.723,-0.03 -1.13,-0.03c-0.433,0 -0.817,0.01 -1.15,0.03Z" style="fill:#707070;fill-rule:nonzero;"/><path d="M22.8,441.865c-0.167,0 -0.307,-0.057 -0.42,-0.17c-0.113,-0.113 -0.17,-0.25 -0.17,-0.41c0,-0.173 0.058,-0.318 0.175,-0.435c0.117,-0.117 0.255,-0.175 0.415,-0.175c0.18,0 0.325,0.057 0.435,0.17c0.11,0.113 0.165,0.26 0.165,0.44c0,0.153 -0.058,0.288 -0.175,0.405c-0.117,0.117 -0.258,0.175 -0.425,0.175Zm-1.11,5.83c0,-0.18 0.017,-0.323 0.05,-0.43c0.267,0 0.448,-0.062 0.545,-0.185c0.097,-0.123 0.145,-0.352 0.145,-0.685l0,-1.98c0,-0.173 -0.017,-0.31 -0.05,-0.41c-0.033,-0.1 -0.103,-0.175 -0.21,-0.225c-0.107,-0.05 -0.27,-0.075 -0.49,-0.075c0,-0.153 0.03,-0.277 0.09,-0.37c0.167,0 0.403,-0.037 0.71,-0.11c0.307,-0.073 0.517,-0.15 0.63,-0.23c0.147,0.047 0.22,0.18 0.22,0.4l0,3c0,0.333 0.043,0.562 0.13,0.685c0.087,0.123 0.24,0.185 0.46,0.185c0.033,0.113 0.05,0.257 0.05,0.43c-0.347,-0.02 -0.723,-0.03 -1.13,-0.03c-0.433,0 -0.817,0.01 -1.15,0.03Z" style="fill:#707070;fill-rule:nonzero;"/><path d="M26.81,447.755c-0.353,0 -0.688,-0.09 -1.005,-0.27c-0.317,-0.18 -0.575,-0.448 -0.775,-0.805c-0.2,-0.357 -0.3,-0.785 -0.3,-1.285c0,-0.413 0.082,-0.803 0.245,-1.17c0.163,-0.367 0.402,-0.663 0.715,-0.89c0.313,-0.227 0.687,-0.34 1.12,-0.34c0.627,0 1.13,0.15 1.51,0.45c-0.047,0.3 -0.07,0.68 -0.07,1.14c-0.1,0.053 -0.253,0.08 -0.46,0.08c-0.04,-0.38 -0.153,-0.675 -0.34,-0.885c-0.187,-0.21 -0.427,-0.315 -0.72,-0.315c-0.333,0 -0.595,0.155 -0.785,0.465c-0.19,0.31 -0.285,0.748 -0.285,1.315c0,0.34 0.057,0.658 0.17,0.955c0.113,0.297 0.277,0.535 0.49,0.715c0.213,0.18 0.47,0.27 0.77,0.27c0.213,0 0.415,-0.05 0.605,-0.15c0.19,-0.1 0.358,-0.243 0.505,-0.43c0.053,0.027 0.103,0.065 0.15,0.115c0.047,0.05 0.08,0.105 0.1,0.165c-0.367,0.58 -0.913,0.87 -1.64,0.87Z" style="fill:#707070;fill-rule:nonzero;"/><path d="M37.41,446.225c0,0.48 0.037,0.89 0.11,1.23c-0.073,0.153 -0.18,0.23 -0.32,0.23c-0.853,-0.013 -1.497,-0.02 -1.93,-0.02c-0.62,0 -1.183,0.007 -1.69,0.02c-0.053,-0.06 -0.088,-0.118 -0.105,-0.175c-0.017,-0.057 -0.025,-0.135 -0.025,-0.235c0.52,-0.487 1.09,-1.003 1.71,-1.55c0.373,-0.333 0.628,-0.622 0.765,-0.865c0.137,-0.243 0.205,-0.502 0.205,-0.775c0,-0.333 -0.073,-0.587 -0.22,-0.76c-0.147,-0.173 -0.363,-0.26 -0.65,-0.26c-0.273,0 -0.482,0.098 -0.625,0.295c-0.143,0.197 -0.252,0.562 -0.325,1.095c-0.24,0 -0.42,-0.023 -0.54,-0.07c0.02,-0.173 0.03,-0.377 0.03,-0.61c0,-0.3 -0.017,-0.53 -0.05,-0.69c0.207,-0.147 0.452,-0.263 0.735,-0.35c0.283,-0.087 0.598,-0.13 0.945,-0.13c0.507,0 0.912,0.103 1.215,0.31c0.303,0.207 0.455,0.543 0.455,1.01c0,0.3 -0.077,0.558 -0.23,0.775c-0.153,0.217 -0.443,0.525 -0.87,0.925l-1.22,1.14l1.46,0c0.2,0 0.345,-0.013 0.435,-0.04c0.09,-0.027 0.153,-0.08 0.19,-0.16c0.037,-0.08 0.062,-0.217 0.075,-0.41c0.193,0 0.35,0.023 0.47,0.07Z" style="fill:#707070;fill-rule:nonzero;"/><path d="M43.68,445.115c0,0.52 -0.117,0.98 -0.35,1.38c-0.233,0.4 -0.547,0.71 -0.94,0.93c-0.393,0.22 -0.82,0.33 -1.28,0.33c-0.467,0 -0.902,-0.11 -1.305,-0.33c-0.403,-0.22 -0.727,-0.53 -0.97,-0.93c-0.243,-0.4 -0.365,-0.86 -0.365,-1.38c0,-0.513 0.127,-0.96 0.38,-1.34c0.253,-0.38 0.582,-0.67 0.985,-0.87c0.403,-0.2 0.828,-0.3 1.275,-0.3c0.447,0 0.867,0.1 1.26,0.3c0.393,0.2 0.71,0.49 0.95,0.87c0.24,0.38 0.36,0.827 0.36,1.34Zm-4.3,-0.14c0,0.34 0.082,0.682 0.245,1.025c0.163,0.343 0.397,0.627 0.7,0.85c0.303,0.223 0.652,0.335 1.045,0.335c0.46,0 0.803,-0.175 1.03,-0.525c0.227,-0.35 0.34,-0.792 0.34,-1.325c0,-0.32 -0.078,-0.653 -0.235,-1c-0.157,-0.347 -0.38,-0.637 -0.67,-0.87c-0.29,-0.233 -0.628,-0.35 -1.015,-0.35c-0.453,0 -0.807,0.175 -1.06,0.525c-0.253,0.35 -0.38,0.795 -0.38,1.335Z" style="fill:#707070;fill-rule:nonzero;"/><path d="M46.92,447.755c-0.273,0 -0.55,-0.047 -0.83,-0.14l0,1c0,0.287 0.03,0.505 0.09,0.655c0.06,0.15 0.152,0.253 0.275,0.31c0.123,0.057 0.298,0.092 0.525,0.105c0.033,0.093 0.05,0.237 0.05,0.43c-0.307,-0.02 -0.727,-0.03 -1.26,-0.03c-0.62,0 -1.06,0.01 -1.32,0.03c0,-0.193 0.017,-0.337 0.05,-0.43c0.267,-0.013 0.448,-0.078 0.545,-0.195c0.097,-0.117 0.145,-0.342 0.145,-0.675l0,-4.4c0,-0.173 -0.018,-0.308 -0.055,-0.405c-0.037,-0.097 -0.108,-0.17 -0.215,-0.22c-0.107,-0.05 -0.267,-0.078 -0.48,-0.085c0,-0.153 0.03,-0.277 0.09,-0.37c0.207,-0.013 0.443,-0.053 0.71,-0.12c0.267,-0.067 0.477,-0.14 0.63,-0.22c0.147,0.047 0.22,0.193 0.22,0.44c0,0.107 -0.012,0.208 -0.035,0.305c-0.023,0.097 -0.062,0.235 -0.115,0.415c0.06,-0.127 0.137,-0.267 0.23,-0.42c0.107,-0.18 0.285,-0.348 0.535,-0.505c0.25,-0.157 0.528,-0.235 0.835,-0.235c0.6,0 1.062,0.177 1.385,0.53c0.323,0.353 0.485,0.887 0.485,1.6c0,0.493 -0.103,0.94 -0.31,1.34c-0.207,0.4 -0.5,0.715 -0.88,0.945c-0.38,0.23 -0.813,0.345 -1.3,0.345Zm0.38,-4.13c-0.333,0 -0.618,0.157 -0.855,0.47c-0.237,0.313 -0.355,0.793 -0.355,1.44l0,1.41c0.127,0.113 0.258,0.2 0.395,0.26c0.137,0.06 0.298,0.09 0.485,0.09c0.22,0 0.44,-0.057 0.66,-0.17c0.22,-0.113 0.407,-0.315 0.56,-0.605c0.153,-0.29 0.23,-0.682 0.23,-1.175c0,-0.52 -0.105,-0.937 -0.315,-1.25c-0.21,-0.313 -0.478,-0.47 -0.805,-0.47Z" style="fill:#707070;fill-rule:nonzero;"/><path d="M51.89,447.755c-0.4,0 -0.693,-0.102 -0.88,-0.305c-0.187,-0.203 -0.28,-0.532 -0.28,-0.985l0,-2.71c-0.2,-0.067 -0.44,-0.11 -0.72,-0.13c0,-0.153 0.03,-0.3 0.09,-0.44l0.63,0l0,-1.32c0.26,-0.073 0.507,-0.207 0.74,-0.4c0.067,0.033 0.11,0.078 0.13,0.135c0.02,0.057 0.03,0.185 0.03,0.385l0,1.2l1.3,0c0,0.14 -0.03,0.287 -0.09,0.44c-0.493,0.02 -0.897,0.063 -1.21,0.13l0,2.5c0,0.64 0.193,0.96 0.58,0.96c0.133,0 0.252,-0.02 0.355,-0.06c0.103,-0.04 0.205,-0.1 0.305,-0.18c0.087,0.1 0.137,0.21 0.15,0.33c-0.113,0.127 -0.278,0.233 -0.495,0.32c-0.217,0.087 -0.428,0.13 -0.635,0.13Z" style="fill:#707070;fill-rule:nonzero;"/></g></g><g id="Quote-2"><g id="Large_Body-2"><text x="6.3px" y="360.665px" style="font-family:'Roboto-Light', 'Roboto';font-weight:300;font-size:30px;">Lar</text><text x="47.989px" y="360.665px" style="font-family:'Roboto-Light', 'Roboto';font-weight:300;font-size:30px;">ge Body</text></g><g id="Regular_30pt"><text x="6.3px" y="381.665px" style="font-family:'Vollkorn-Regular', 'Vollkorn';font-size:10px;fill:#707070;">R</text><text x="12.94px" y="381.665px" style="font-family:'Vollkorn-Regular', 'Vollkorn';font-size:10px;fill:#707070;">egular 3</text><text x="47.52px" y="381.665px" style="font-family:'Vollkorn-Regular', 'Vollkorn';font-size:10px;fill:#707070;">0pt</text></g></g><g id="Subheader"><g id="Subheader-2"><path d="M18.3,293.166c5.417,0 8.9,-3.734 8.9,-8.563c0,-4.705 -2.35,-7.688 -5.288,-10.208l-2.814,-2.479c-1.976,-1.722 -3.28,-3.066 -3.28,-5.587c0,-1.176 0.631,-2.647 2.019,-2.647c1.934,0 2.145,1.933 2.229,4.958l6.462,-0.799c-0.126,-3.99 -1.175,-9.655 -8.439,-9.655c-5.88,0 -9.531,3.147 -9.531,8.899c0,4.117 1.972,6.68 4.574,8.864l2.939,2.563c2.313,1.974 3.743,3.654 3.743,6.469c0,1.176 -0.337,2.479 -1.893,2.479c-1.891,0 -2.901,-1.639 -2.985,-6.05l-6.42,0.967c0.251,7.558 3.357,10.789 9.784,10.789Z" style="fill-rule:nonzero;"/><path d="M34.762,293.082c2.057,0 3.991,-1.007 5.758,-2.645l0,2.225l6.798,0l0,-24.27l-6.798,0l0,19.32c-0.758,0.42 -1.431,0.756 -2.019,0.756c-1.052,0 -1.431,-0.672 -1.431,-1.848l0,-18.228l-6.84,0l0,19.026c0,3.229 1.552,5.664 4.532,5.664Z" style="fill-rule:nonzero;"/><path d="M63.702,293.082c3.442,0 5.288,-2.981 5.288,-7.516l0,-10.456c0,-3.947 -1.51,-7.138 -5.204,-7.138c-1.721,0 -3.613,0.714 -5.296,2.183l0,-11.507l-6.84,0l0,34.014l6.84,0l0,-1.847c1.599,1.386 3.407,2.267 5.212,2.267Zm-3.319,-4.404c-0.631,0 -1.304,-0.252 -1.893,-0.673l0,-15.124c0.589,-0.463 1.22,-0.799 1.977,-0.799c1.22,0 1.683,1.135 1.683,2.521l0,11.344c0,1.512 -0.463,2.731 -1.767,2.731Z" style="fill-rule:nonzero;"/><path d="M72.944,292.662l6.798,0l0,-18.98c0.842,-0.545 1.641,-0.881 2.23,-0.881c1.051,0 1.388,0.629 1.388,1.805l0,18.056l6.798,0l0,-19.022c0,-3.233 -1.552,-5.668 -4.448,-5.668c-2.224,0 -4.159,0.755 -5.968,2.561l0,-11.885l-6.798,0l0,34.014Z" style="fill-rule:nonzero;"/><path d="M102.215,293.082c5.04,0 8.061,-2.517 8.061,-7.43l0,-2.35l-6.294,0l0,2.56c0,1.765 -0.758,2.354 -1.767,2.354c-1.01,0 -1.683,-0.715 -1.683,-2.606l0,-4.666l9.744,0l0,-4.868c0,-5.293 -2.685,-8.104 -8.061,-8.104c-5.25,0 -8.439,2.895 -8.439,8.104l0,8.903c0,5.167 3.147,8.103 8.439,8.103Zm-1.683,-15.324l0,-2.061c0,-2.228 0.631,-2.859 1.641,-2.859c1.051,0 1.809,0.547 1.809,2.481l0,2.439l-3.45,0Z" style="fill-rule:nonzero;"/><path d="M119.013,293.082c2.564,0 4.078,-1.848 4.666,-3.864c0.084,0.298 0.378,2.144 0.546,3.444l6.127,0c-0.21,-1.174 -0.42,-3.02 -0.42,-6.043l0,-11.344c0,-4.282 -2.434,-7.303 -7.346,-7.303c-5.671,0 -8.441,2.685 -8.692,8.522l6.378,0.252l0.169,-1.765c0.042,-1.092 0.336,-1.933 1.514,-1.933c1.136,0 1.431,0.883 1.431,2.143l0,2.437c-4.583,1.594 -9.996,3.484 -9.996,9.532c0,2.856 1.93,5.922 5.623,5.922Zm2.438,-4.614c-1.178,0 -1.893,-1.009 -1.893,-2.647c0,-2.437 1.557,-3.908 3.828,-5.21l0,6.638c-0.463,0.63 -1.094,1.219 -1.935,1.219Z" style="fill-rule:nonzero;"/><path d="M139.257,293.082c1.638,0 3.278,-0.839 4.793,-2.309l0,1.889l6.84,0l0,-34.014l-6.84,0l0,11.256c-1.346,-1.176 -2.987,-1.932 -4.793,-1.932c-3.735,0 -5.623,3.108 -5.623,7.602l0,10.038c0,4.951 2.014,7.47 5.623,7.47Zm2.984,-4.362c-1.262,0 -1.725,-1.177 -1.725,-2.689l0,-11.176c0,-1.47 0.505,-2.647 1.767,-2.647c0.547,0 1.22,0.252 1.767,0.547l0,15.334c-0.673,0.421 -1.346,0.631 -1.809,0.631Z" style="fill-rule:nonzero;"/><path d="M163.073,293.082c5.04,0 8.061,-2.517 8.061,-7.43l0,-2.35l-6.294,0l0,2.56c0,1.765 -0.758,2.354 -1.767,2.354c-1.01,0 -1.683,-0.715 -1.683,-2.606l0,-4.666l9.744,0l0,-4.868c0,-5.293 -2.685,-8.104 -8.061,-8.104c-5.25,0 -8.439,2.895 -8.439,8.104l0,8.903c0,5.167 3.147,8.103 8.439,8.103Zm-1.683,-15.324l0,-2.061c0,-2.228 0.631,-2.859 1.641,-2.859c1.051,0 1.809,0.547 1.809,2.481l0,2.439l-3.45,0Z" style="fill-rule:nonzero;"/><path d="M174.962,292.662l6.84,0l0,-15.792c1.092,-1.428 2.436,-2.352 4.032,-2.352c0.84,0 1.596,0.252 2.226,0.504l0,-6.798c-0.294,-0.084 -0.63,-0.126 -1.05,-0.126c-2.268,0 -3.654,1.553 -5.208,4.325l0,-4.031l-6.84,0l0,24.27Z" style="fill-rule:nonzero;"/></g><g id="Regular_42pt"><text x="6.3px" y="311.665px" style="font-family:'Vollkorn-Regular', 'Vollkorn';font-size:10px;fill:#707070;">R</text><text x="12.94px" y="311.665px" style="font-family:'Vollkorn-Regular', 'Vollkorn';font-size:10px;fill:#707070;">egular 42pt</text></g></g><g id="Group_242"><g id="Title"><path d="M16.184,200.661l7.337,0l0,-47.19l8.645,0l0,-5.452l-24.887,0l0,5.452l8.905,0l0,47.19Z" style="fill-rule:nonzero;"/><path d="M37.114,157.501l6.947,0l0,-7.272l-6.947,0l0,7.272Zm0,43.16l6.947,0l0,-37.562l-6.947,0l0,37.562Z" style="fill-rule:nonzero;"/><path d="M61.546,201.181c1.755,0 3.055,-0.13 4.81,-0.389l0,-5.128c-0.845,0.13 -1.885,0.195 -2.535,0.195c-2.73,0 -3.445,-1.17 -3.445,-4.096l0,-24.057l6.045,0l0,-4.607l-6.045,0l0,-10.985l-6.947,0l0,10.985l-3.965,0l0,4.607l3.965,0l0,24.512c0,5.458 2.207,8.963 8.117,8.963Z" style="fill-rule:nonzero;"/><rect x="72.214" y="148.019" width="6.947" height="52.642" style="fill-rule:nonzero;"/><path d="M96.845,201.181c7.669,0 10.591,-4.608 10.591,-12.151l0,-1.431l-6.752,0l0,2.276c0,3.773 -0.651,6.179 -3.774,6.179c-2.993,0 -4.229,-1.951 -4.229,-6.504l0,-7.544l14.82,0l0,-3.048c0,-10.276 -1.234,-16.379 -10.656,-16.379c-8.644,0 -11.111,5.062 -11.111,15.015l0,8.574c0,9.821 2.272,15.013 11.111,15.013Zm-4.164,-22.937l0,-2.017c0,-6.505 0.716,-8.521 4.099,-8.521c3.449,0 3.904,2.537 3.904,7.155l0,3.383l-8.003,0Z" style="fill-rule:nonzero;"/></g><g id="Regular_65pt"><text x="6.3px" y="215.665px" style="font-family:'Vollkorn-Regular', 'Vollkorn';font-size:10px;fill:#707070;">R</text><text x="12.94px" y="215.665px" style="font-family:'Vollkorn-Regular', 'Vollkorn';font-size:10px;fill:#707070;">egular 65pt</text></g></g><g id="Group_243"><g id="Headline"><path d="M6.606,86.659l17.888,0l0,-35.4l12.512,0l0,35.4l17.988,0l0,-80.988l-17.988,0l0,32.8l-12.512,0l0,-32.8l-17.888,0l0,80.988Z" style="fill-rule:nonzero;"/><path d="M85.3,87.659c12,0 19.194,-5.994 19.194,-17.692l0,-5.596l-14.988,0l0,6.096c0,4.203 -1.802,5.604 -4.206,5.604c-2.404,0 -4.006,-1.701 -4.006,-6.204l0,-11.108l23.2,0l0,-11.592c0,-12.603 -6.395,-19.296 -19.194,-19.296c-12.5,0 -20.094,6.893 -20.094,19.296l0,21.199c0,12.3 7.494,19.293 20.094,19.293Zm-4.006,-36.488l0,-4.905c0,-5.306 1.502,-6.807 3.906,-6.807c2.504,0 4.306,1.301 4.306,5.906l0,5.806l-8.212,0Z" style="fill-rule:nonzero;"/><path d="M125.295,87.659c6.105,0 9.71,-4.4 11.111,-9.2c0.2,0.709 0.899,5.104 1.299,8.2l14.589,0c-0.5,-2.797 -1,-7.191 -1,-14.389l0,-27.009c0,-10.197 -5.796,-17.39 -17.491,-17.39c-13.503,0 -20.097,6.394 -20.697,20.291l15.188,0.6l0.4,-4.202c0.1,-2.6 0.801,-4.601 3.606,-4.601c2.705,0 3.406,2.101 3.406,5.102l0,5.802c-10.911,3.796 -23.8,8.296 -23.8,22.696c0,6.8 4.596,14.1 13.389,14.1Zm5.805,-10.988c-2.804,0 -4.506,-2.401 -4.506,-6.302c0,-5.802 3.705,-9.303 9.112,-12.404l0,15.805c-1.101,1.501 -2.603,2.901 -4.606,2.901Z" style="fill-rule:nonzero;"/><path d="M173.496,87.659c3.899,0 7.805,-2 11.41,-5.499l0,4.499l16.288,0l0,-80.988l-16.288,0l0,26.8c-3.204,-2.8 -7.11,-4.6 -11.41,-4.6c-8.893,0 -13.39,7.4 -13.39,18.1l0,23.9c0,11.789 4.797,17.788 13.39,17.788Zm7.104,-10.388c-3.005,0 -4.106,-2.801 -4.106,-6.402l0,-26.608c0,-3.501 1.202,-6.302 4.206,-6.302c1.302,0 2.904,0.6 4.206,1.3l0,36.512c-1.602,1 -3.204,1.5 -4.306,1.5Z" style="fill-rule:nonzero;"/><rect x="212.006" y="5.671" width="16.188" height="80.988" style="fill-rule:nonzero;"/><path d="M238.706,19.059l16.388,0l0,-11.288l-16.388,0l0,11.288Zm0.1,67.6l16.288,0l0,-57.788l-16.288,0l0,57.788Z" style="fill-rule:nonzero;"/><path d="M265.206,86.659l16.288,0l0,-45.2c1.903,-1.3 3.805,-2.1 5.107,-2.1c2.504,0 3.305,1.5 3.305,4.3l0,43l16.188,0l0,-45.3c0,-7.689 -3.598,-13.488 -10.692,-13.488c-5.096,0 -9.702,2.6 -13.908,6.799l0,-5.799l-16.288,0l0,57.788Z" style="fill-rule:nonzero;"/><path d="M334.8,87.659c12,0 19.194,-5.994 19.194,-17.692l0,-5.596l-14.988,0l0,6.096c0,4.203 -1.802,5.604 -4.206,5.604c-2.404,0 -4.006,-1.701 -4.006,-6.204l0,-11.108l23.2,0l0,-11.592c0,-12.603 -6.395,-19.296 -19.194,-19.296c-12.5,0 -20.094,6.893 -20.094,19.296l0,21.199c0,12.3 7.494,19.293 20.094,19.293Zm-4.006,-36.488l0,-4.905c0,-5.306 1.502,-6.807 3.906,-6.807c2.504,0 4.306,1.301 4.306,5.906l0,5.806l-8.212,0Z" style="fill-rule:nonzero;"/></g><g id="Bold_100pt"><text x="5.3px" y="102.665px" style="font-family:'Vollkorn-Regular', 'Vollkorn';font-size:10px;fill:#707070;">Bo<tspan x="16.75px " y="102.665px ">l</tspan>d 10</text><text x="37.47px" y="102.665px" style="font-family:'Vollkorn-Regular', 'Vollkorn';font-size:10px;fill:#707070;">0pt</text></g></g><g id="Rectangle_469"><path d="M395.3,672.233c0,-2.76 -2.24,-5 -5,-5l-385.3,0c-2.76,0 -5,2.24 -5,5l0,78.348c0,2.759 2.24,5 5,5l385.3,0c2.76,0 5,-2.241 5,-5l0,-78.348Z" style="fill:#fff;"/><path d="M393.8,672.233c0,-1.932 -1.568,-3.5 -3.5,-3.5l-385.3,0c-1.932,0 -3.5,1.568 -3.5,3.5l0,78.348c0,1.931 1.568,3.5 3.5,3.5l385.3,0c1.932,0 3.5,-1.569 3.5,-3.5l0,-78.348Z" style="fill:none;stroke:#3a3a3a;stroke-width:3px;"/></g><g id="secondary_Button"><g><path d="M70.408,709.706c-2.814,-0.809 -4.862,-1.803 -6.144,-2.982c-1.282,-1.18 -1.923,-2.635 -1.923,-4.367c0,-1.96 0.784,-3.58 2.35,-4.862c1.567,-1.282 3.603,-1.923 6.11,-1.923c1.709,0 3.233,0.331 4.571,0.992c1.339,0.66 2.376,1.572 3.111,2.734c0.735,1.162 1.102,2.432 1.102,3.811l-3.298,0c0,-1.509 -0.479,-2.695 -1.436,-3.559c-0.957,-0.863 -2.307,-1.295 -4.05,-1.295c-1.618,0 -2.88,0.357 -3.786,1.071c-0.905,0.713 -1.358,1.703 -1.358,2.97c0,1.016 0.43,1.875 1.29,2.577c0.86,0.702 2.324,1.344 4.392,1.926c2.068,0.582 3.686,1.223 4.854,1.924c1.167,0.701 2.033,1.518 2.597,2.452c0.564,0.935 0.846,2.034 0.846,3.299c0,2.016 -0.786,3.631 -2.358,4.845c-1.572,1.213 -3.674,1.82 -6.306,1.82c-1.709,0 -3.304,-0.328 -4.785,-0.983c-1.482,-0.655 -2.624,-1.552 -3.427,-2.692c-0.803,-1.139 -1.205,-2.432 -1.205,-3.879l3.299,0c0,1.504 0.555,2.692 1.666,3.563c1.111,0.872 2.595,1.308 4.452,1.308c1.731,0 3.059,-0.353 3.982,-1.06c0.922,-0.706 1.384,-1.669 1.384,-2.888c0,-1.219 -0.427,-2.162 -1.282,-2.828c-0.854,-0.667 -2.404,-1.325 -4.648,-1.974Z" style="fill:#262626;fill-rule:nonzero;"/><path d="M91.018,721.139c-2.506,0 -4.546,-0.823 -6.118,-2.47c-1.572,-1.646 -2.358,-3.848 -2.358,-6.605l0,-0.581c0,-1.834 0.35,-3.472 1.051,-4.913c0.7,-1.442 1.68,-2.569 2.939,-3.384c1.259,-0.815 2.623,-1.222 4.093,-1.222c2.404,0 4.272,0.792 5.605,2.375c1.333,1.584 2,3.851 2,6.802l0,1.316l-12.527,0c0.046,1.823 0.578,3.296 1.598,4.418c1.02,1.122 2.316,1.683 3.888,1.683c1.117,0 2.062,-0.228 2.837,-0.683c0.775,-0.456 1.453,-1.06 2.034,-1.812l1.931,1.504c-1.55,2.381 -3.874,3.572 -6.973,3.572Zm-0.393,-16.577c-1.276,0 -2.347,0.464 -3.213,1.392c-0.866,0.929 -1.401,2.231 -1.606,3.905l9.262,0l0,-0.239c-0.091,-1.606 -0.524,-2.851 -1.298,-3.734c-0.775,-0.883 -1.823,-1.324 -3.145,-1.324Z" style="fill:#262626;fill-rule:nonzero;"/><path d="M109.304,718.558c1.128,0 2.114,-0.342 2.957,-1.025c0.843,-0.684 1.31,-1.538 1.401,-2.564l2.991,0c-0.057,1.06 -0.422,2.068 -1.094,3.025c-0.672,0.957 -1.569,1.721 -2.692,2.29c-1.122,0.57 -2.31,0.855 -3.563,0.855c-2.518,0 -4.52,-0.84 -6.007,-2.521c-1.487,-1.68 -2.23,-3.979 -2.23,-6.896l0,-0.529c0,-1.801 0.33,-3.401 0.991,-4.803c0.661,-1.401 1.609,-2.489 2.846,-3.264c1.236,-0.775 2.697,-1.162 4.383,-1.162c2.074,0 3.797,0.621 5.17,1.863c1.373,1.242 2.105,2.854 2.196,4.836l-2.991,0c-0.091,-1.196 -0.544,-2.179 -1.359,-2.948c-0.814,-0.769 -1.82,-1.153 -3.016,-1.153c-1.606,0 -2.851,0.578 -3.734,1.734c-0.883,1.157 -1.324,2.829 -1.324,5.016l0,0.598c0,2.131 0.438,3.771 1.315,4.922c0.878,1.151 2.131,1.726 3.76,1.726Z" style="fill:#262626;fill-rule:nonzero;"/><path d="M119.37,711.38c0,-1.811 0.356,-3.44 1.068,-4.887c0.712,-1.447 1.704,-2.564 2.974,-3.35c1.27,-0.786 2.72,-1.179 4.349,-1.179c2.518,0 4.555,0.872 6.11,2.615c1.555,1.743 2.333,4.061 2.333,6.955l0,0.222c0,1.801 -0.345,3.416 -1.034,4.845c-0.69,1.43 -1.675,2.544 -2.957,3.342c-1.282,0.797 -2.754,1.196 -4.418,1.196c-2.506,0 -4.537,-0.872 -6.092,-2.615c-1.555,-1.743 -2.333,-4.05 -2.333,-6.921l0,-0.223Zm3.179,0.376c0,2.051 0.476,3.698 1.427,4.939c0.951,1.242 2.224,1.863 3.819,1.863c1.607,0 2.883,-0.629 3.829,-1.888c0.945,-1.259 1.418,-3.022 1.418,-5.29c0,-2.027 -0.481,-3.671 -1.444,-4.93c-0.963,-1.259 -2.242,-1.888 -3.837,-1.888c-1.561,0 -2.82,0.621 -3.777,1.862c-0.957,1.242 -1.435,3.02 -1.435,5.332Z" style="fill:#262626;fill-rule:nonzero;"/><path d="M143.159,702.306l0.103,2.324c1.412,-1.777 3.258,-2.666 5.537,-2.666c3.908,0 5.879,2.205 5.913,6.614l0,12.219l-3.162,0l0,-12.236c-0.011,-1.333 -0.316,-2.319 -0.914,-2.957c-0.598,-0.638 -1.53,-0.957 -2.794,-0.957c-1.026,0 -1.926,0.274 -2.7,0.82c-0.775,0.547 -1.379,1.265 -1.812,2.154l0,13.176l-3.162,0l0,-18.491l2.991,0Z" style="fill:#262626;fill-rule:nonzero;"/><path d="M158.711,711.398c0,-2.837 0.672,-5.119 2.017,-6.845c1.344,-1.726 3.104,-2.589 5.28,-2.589c2.165,0 3.88,0.741 5.144,2.222l0,-9.639l3.162,0l0,26.25l-2.905,0l-0.154,-1.982c-1.265,1.549 -3.025,2.324 -5.281,2.324c-2.142,0 -3.888,-0.877 -5.238,-2.632c-1.35,-1.755 -2.025,-4.045 -2.025,-6.87l0,-0.239Zm3.162,0.358c0,2.097 0.433,3.737 1.298,4.922c0.866,1.185 2.063,1.778 3.589,1.778c2.005,0 3.47,-0.9 4.392,-2.701l0,-8.493c-0.945,-1.743 -2.398,-2.615 -4.358,-2.615c-1.549,0 -2.757,0.598 -3.623,1.795c-0.865,1.196 -1.298,2.967 -1.298,5.314Z" style="fill:#262626;fill-rule:nonzero;"/><path d="M190.635,720.797c-0.183,-0.365 -0.331,-1.014 -0.445,-1.948c-1.469,1.526 -3.224,2.29 -5.263,2.29c-1.823,0 -3.319,-0.516 -4.486,-1.547c-1.168,-1.031 -1.752,-2.338 -1.752,-3.922c0,-1.925 0.732,-3.421 2.196,-4.486c1.464,-1.065 3.523,-1.598 6.178,-1.598l3.076,0l0,-1.453c0,-1.105 -0.33,-1.985 -0.991,-2.64c-0.661,-0.655 -1.635,-0.983 -2.922,-0.983c-1.128,0 -2.074,0.285 -2.837,0.855c-0.764,0.57 -1.145,1.259 -1.145,2.068l-3.179,0c0,-0.923 0.328,-1.815 0.983,-2.675c0.655,-0.86 1.543,-1.541 2.666,-2.042c1.122,-0.501 2.355,-0.752 3.7,-0.752c2.13,0 3.799,0.533 5.007,1.598c1.208,1.065 1.834,2.532 1.88,4.401l0,8.51c0,1.698 0.216,3.048 0.649,4.051l0,0.273l-3.315,0Zm-5.247,-2.41c0.991,0 1.931,-0.256 2.82,-0.769c0.889,-0.512 1.532,-1.179 1.931,-1.999l0,-3.794l-2.478,0c-3.874,0 -5.81,1.133 -5.81,3.401c0,0.991 0.33,1.766 0.991,2.324c0.661,0.558 1.509,0.837 2.546,0.837Z" style="fill:#262626;fill-rule:nonzero;"/><path d="M207.195,705.143c-0.479,-0.08 -0.997,-0.12 -1.555,-0.12c-2.074,0 -3.481,0.883 -4.222,2.649l0,13.125l-3.161,0l0,-18.491l3.076,0l0.051,2.136c1.037,-1.652 2.507,-2.478 4.409,-2.478c0.616,0 1.083,0.08 1.402,0.239l0,2.94Z" style="fill:#262626;fill-rule:nonzero;"/></g><g><path d="M216.457,716.166l4.307,-13.86l3.384,0l-7.434,21.345c-1.151,3.076 -2.98,4.614 -5.486,4.614l-0.598,-0.051l-1.179,-0.222l0,-2.564l0.854,0.069c1.071,0 1.906,-0.217 2.504,-0.65c0.598,-0.433 1.091,-1.224 1.478,-2.375l0.701,-1.88l-6.597,-18.286l3.452,0l4.614,13.86Z" style="fill:#262626;fill-rule:nonzero;"/><path d="M236.128,720.797l0,-24.883l8.135,0c2.7,0 4.731,0.558 6.092,1.675c1.362,1.117 2.042,2.769 2.042,4.956c0,1.162 -0.33,2.19 -0.991,3.085c-0.661,0.894 -1.561,1.586 -2.7,2.076c1.344,0.376 2.407,1.091 3.187,2.145c0.781,1.054 1.171,2.31 1.171,3.768c0,2.233 -0.724,3.988 -2.171,5.264c-1.447,1.276 -3.492,1.914 -6.135,1.914l-8.63,0Zm3.281,-11.638l0,8.955l5.418,0c1.526,0 2.731,-0.396 3.614,-1.188c0.883,-0.792 1.324,-1.883 1.324,-3.273c0,-2.996 -1.629,-4.494 -4.887,-4.494l-5.469,0Zm0,-2.632l4.956,0c1.436,0 2.584,-0.36 3.444,-1.079c0.86,-0.719 1.29,-1.695 1.29,-2.929c0,-1.37 -0.399,-2.366 -1.196,-2.988c-0.798,-0.623 -2.011,-0.934 -3.64,-0.934l-4.854,0l0,7.93Z" style="fill:#262626;fill-rule:nonzero;"/><path d="M268.838,718.968c-1.231,1.447 -3.037,2.171 -5.418,2.171c-1.971,0 -3.472,-0.573 -4.503,-1.718c-1.031,-1.145 -1.552,-2.839 -1.564,-5.084l0,-12.031l3.162,0l0,11.946c0,2.802 1.139,4.204 3.418,4.204c2.415,0 4.022,-0.9 4.819,-2.701l0,-13.449l3.162,0l0,18.491l-3.008,0l-0.068,-1.829Z" style="fill:#262626;fill-rule:nonzero;"/><path d="M281.006,697.828l0,4.478l3.452,0l0,2.444l-3.452,0l0,11.481c0,0.742 0.154,1.298 0.461,1.669c0.308,0.37 0.832,0.556 1.572,0.556c0.365,0 0.866,-0.069 1.504,-0.205l0,2.548c-0.831,0.227 -1.64,0.34 -2.426,0.34c-1.413,0 -2.478,-0.427 -3.196,-1.282c-0.718,-0.854 -1.077,-2.068 -1.077,-3.64l0,-11.467l-3.367,0l0,-2.444l3.367,0l0,-4.478l3.162,0Z" style="fill:#262626;fill-rule:nonzero;"/><path d="M292.439,697.828l0,4.478l3.452,0l0,2.444l-3.452,0l0,11.481c0,0.742 0.154,1.298 0.461,1.669c0.308,0.37 0.832,0.556 1.573,0.556c0.364,0 0.865,-0.069 1.503,-0.205l0,2.548c-0.831,0.227 -1.64,0.34 -2.426,0.34c-1.413,0 -2.478,-0.427 -3.196,-1.282c-0.718,-0.854 -1.077,-2.068 -1.077,-3.64l0,-11.467l-3.366,0l0,-2.444l3.366,0l0,-4.478l3.162,0Z" style="fill:#262626;fill-rule:nonzero;"/></g><g><path d="M298.403,711.38c0,-1.811 0.356,-3.44 1.068,-4.887c0.712,-1.447 1.704,-2.564 2.974,-3.35c1.27,-0.786 2.72,-1.179 4.349,-1.179c2.518,0 4.555,0.872 6.11,2.615c1.555,1.743 2.333,4.061 2.333,6.955l0,0.222c0,1.801 -0.345,3.416 -1.034,4.845c-0.69,1.43 -1.675,2.544 -2.957,3.342c-1.282,0.797 -2.754,1.196 -4.418,1.196c-2.506,0 -4.537,-0.872 -6.092,-2.615c-1.555,-1.743 -2.333,-4.05 -2.333,-6.921l0,-0.223Zm3.179,0.376c0,2.051 0.476,3.698 1.427,4.939c0.951,1.242 2.224,1.863 3.819,1.863c1.607,0 2.883,-0.629 3.829,-1.888c0.945,-1.259 1.418,-3.022 1.418,-5.29c0,-2.027 -0.481,-3.671 -1.444,-4.93c-0.963,-1.259 -2.242,-1.888 -3.837,-1.888c-1.561,0 -2.82,0.621 -3.777,1.862c-0.957,1.242 -1.435,3.02 -1.435,5.332Z" style="fill:#262626;fill-rule:nonzero;"/><path d="M322.192,702.306l0.103,2.324c1.413,-1.777 3.258,-2.666 5.537,-2.666c3.908,0 5.879,2.205 5.913,6.614l0,12.219l-3.162,0l0,-12.236c-0.011,-1.333 -0.316,-2.319 -0.914,-2.957c-0.598,-0.638 -1.529,-0.957 -2.794,-0.957c-1.026,0 -1.926,0.274 -2.7,0.82c-0.775,0.547 -1.379,1.265 -1.812,2.154l0,13.176l-3.161,0l0,-18.491l2.99,0Z" style="fill:#262626;fill-rule:nonzero;"/></g></g><g id="Rectangle_491"><path d="M395.3,545.665c0,-2.76 -2.24,-5 -5,-5l-385.3,0c-2.76,0 -5,2.24 -5,5l0,78.348c0,2.759 2.24,5 5,5l385.3,0c2.76,0 5,-2.241 5,-5l0,-78.348Z" style="fill:#3a3a3a;"/><path d="M393.8,545.665c0,-1.932 -1.568,-3.5 -3.5,-3.5l-385.3,0c-1.932,0 -3.5,1.568 -3.5,3.5l0,78.348c0,1.931 1.568,3.5 3.5,3.5l385.3,0c1.932,0 3.5,-1.569 3.5,-3.5l0,-78.348Z" style="fill:none;stroke:#3a3a3a;stroke-width:3px;"/></g><g id="Primary_Button"><g><path d="M87.369,583.976l0,9.741l-3.281,0l0,-24.883l9.177,0c2.723,0 4.857,0.695 6.401,2.085c1.543,1.39 2.315,3.23 2.315,5.52c0,2.416 -0.755,4.275 -2.264,5.58c-1.51,1.305 -3.672,1.957 -6.486,1.957l-5.862,0Zm0,-2.683l5.896,0c1.755,0 3.099,-0.414 4.034,-1.241c0.934,-0.828 1.401,-2.023 1.401,-3.587c0,-1.484 -0.467,-2.671 -1.401,-3.561c-0.935,-0.89 -2.216,-1.353 -3.846,-1.387l-6.084,0l0,9.776Z" style="fill:#fff;fill-rule:nonzero;"/><path d="M114.611,578.063c-0.479,-0.08 -0.997,-0.12 -1.556,-0.12c-2.073,0 -3.48,0.883 -4.221,2.649l0,13.125l-3.161,0l0,-18.491l3.076,0l0.051,2.136c1.037,-1.652 2.507,-2.478 4.409,-2.478c0.616,0 1.083,0.08 1.402,0.239l0,2.94Z" style="fill:#fff;fill-rule:nonzero;"/><path d="M120.951,593.717l-3.162,0l0,-18.491l3.162,0l0,18.491Zm-3.418,-23.396c0,-0.513 0.157,-0.946 0.47,-1.299c0.313,-0.353 0.778,-0.53 1.393,-0.53c0.615,0 1.082,0.177 1.401,0.53c0.319,0.353 0.479,0.786 0.479,1.299c0,0.513 -0.16,0.94 -0.479,1.282c-0.319,0.342 -0.786,0.512 -1.401,0.512c-0.615,0 -1.08,-0.17 -1.393,-0.512c-0.313,-0.342 -0.47,-0.769 -0.47,-1.282Z" style="fill:#fff;fill-rule:nonzero;"/><path d="M128.983,575.226l0.086,2.051c1.355,-1.595 3.184,-2.393 5.485,-2.393c2.587,0 4.347,0.991 5.281,2.974c0.615,-0.889 1.416,-1.607 2.401,-2.154c0.986,-0.547 2.151,-0.82 3.495,-0.82c4.056,0 6.118,2.148 6.187,6.443l0,12.39l-3.162,0l0,-12.202c0,-1.322 -0.302,-2.31 -0.906,-2.965c-0.603,-0.655 -1.617,-0.983 -3.042,-0.983c-1.173,0 -2.147,0.35 -2.922,1.051c-0.775,0.701 -1.225,1.644 -1.35,2.828l0,12.271l-3.179,0l0,-12.117c0,-2.689 -1.316,-4.033 -3.948,-4.033c-2.073,0 -3.492,0.883 -4.255,2.649l0,13.501l-3.162,0l0,-18.491l2.991,0Z" style="fill:#fff;fill-rule:nonzero;"/><path d="M168.102,593.717c-0.182,-0.365 -0.331,-1.014 -0.444,-1.948c-1.47,1.526 -3.225,2.29 -5.264,2.29c-1.823,0 -3.318,-0.516 -4.486,-1.547c-1.168,-1.031 -1.752,-2.338 -1.752,-3.922c0,-1.925 0.732,-3.421 2.196,-4.486c1.464,-1.065 3.523,-1.598 6.178,-1.598l3.076,0l0,-1.453c0,-1.105 -0.33,-1.985 -0.991,-2.64c-0.661,-0.655 -1.635,-0.983 -2.922,-0.983c-1.128,0 -2.074,0.285 -2.837,0.855c-0.764,0.57 -1.145,1.259 -1.145,2.068l-3.179,0c0,-0.923 0.328,-1.815 0.983,-2.675c0.655,-0.86 1.543,-1.541 2.666,-2.042c1.122,-0.501 2.355,-0.752 3.7,-0.752c2.13,0 3.799,0.533 5.007,1.598c1.208,1.065 1.834,2.532 1.88,4.401l0,8.51c0,1.698 0.216,3.048 0.649,4.051l0,0.273l-3.315,0Zm-5.247,-2.41c0.991,0 1.931,-0.256 2.82,-0.769c0.889,-0.512 1.532,-1.179 1.931,-1.999l0,-3.794l-2.478,0c-3.873,0 -5.81,1.133 -5.81,3.401c0,0.991 0.33,1.766 0.991,2.324c0.661,0.558 1.509,0.837 2.546,0.837Z" style="fill:#fff;fill-rule:nonzero;"/><path d="M184.662,578.063c-0.479,-0.08 -0.997,-0.12 -1.555,-0.12c-2.074,0 -3.481,0.883 -4.221,2.649l0,13.125l-3.162,0l0,-18.491l3.076,0l0.051,2.136c1.037,-1.652 2.507,-2.478 4.41,-2.478c0.615,0 1.082,0.08 1.401,0.239l0,2.94Z" style="fill:#fff;fill-rule:nonzero;"/></g><g><path d="M193.924,589.086l4.307,-13.86l3.384,0l-7.434,21.345c-1.151,3.076 -2.98,4.614 -5.486,4.614l-0.598,-0.051l-1.179,-0.222l0,-2.564l0.854,0.069c1.071,0 1.906,-0.217 2.504,-0.65c0.598,-0.433 1.091,-1.224 1.478,-2.375l0.701,-1.88l-6.597,-18.286l3.452,0l4.614,13.86Z" style="fill:#fff;fill-rule:nonzero;"/><path d="M213.595,593.717l0,-24.883l8.135,0c2.7,0 4.731,0.558 6.092,1.675c1.362,1.117 2.042,2.769 2.042,4.956c0,1.162 -0.33,2.19 -0.991,3.085c-0.661,0.894 -1.561,1.586 -2.7,2.076c1.344,0.376 2.407,1.091 3.187,2.145c0.781,1.054 1.171,2.31 1.171,3.768c0,2.233 -0.724,3.988 -2.171,5.264c-1.447,1.276 -3.492,1.914 -6.135,1.914l-8.63,0Zm3.281,-11.638l0,8.955l5.418,0c1.526,0 2.731,-0.396 3.614,-1.188c0.883,-0.792 1.324,-1.883 1.324,-3.273c0,-2.996 -1.629,-4.494 -4.887,-4.494l-5.469,0Zm0,-2.632l4.956,0c1.436,0 2.584,-0.36 3.444,-1.079c0.86,-0.719 1.29,-1.695 1.29,-2.929c0,-1.37 -0.399,-2.366 -1.196,-2.988c-0.798,-0.623 -2.011,-0.934 -3.64,-0.934l-4.854,0l0,7.93Z" style="fill:#fff;fill-rule:nonzero;"/><path d="M246.305,591.888c-1.231,1.447 -3.037,2.171 -5.418,2.171c-1.971,0 -3.472,-0.573 -4.503,-1.718c-1.031,-1.145 -1.552,-2.839 -1.564,-5.084l0,-12.031l3.162,0l0,11.946c0,2.802 1.139,4.204 3.418,4.204c2.415,0 4.022,-0.9 4.819,-2.701l0,-13.449l3.162,0l0,18.491l-3.008,0l-0.068,-1.829Z" style="fill:#fff;fill-rule:nonzero;"/><path d="M258.473,570.748l0,4.478l3.452,0l0,2.444l-3.452,0l0,11.481c0,0.742 0.154,1.298 0.461,1.669c0.308,0.37 0.832,0.556 1.572,0.556c0.365,0 0.866,-0.069 1.504,-0.205l0,2.548c-0.831,0.227 -1.64,0.34 -2.426,0.34c-1.413,0 -2.478,-0.427 -3.196,-1.282c-0.718,-0.854 -1.077,-2.068 -1.077,-3.64l0,-11.467l-3.367,0l0,-2.444l3.367,0l0,-4.478l3.162,0Z" style="fill:#fff;fill-rule:nonzero;"/><path d="M269.906,570.748l0,4.478l3.452,0l0,2.444l-3.452,0l0,11.481c0,0.742 0.154,1.298 0.461,1.669c0.308,0.37 0.832,0.556 1.573,0.556c0.364,0 0.865,-0.069 1.503,-0.205l0,2.548c-0.831,0.227 -1.64,0.34 -2.426,0.34c-1.413,0 -2.478,-0.427 -3.196,-1.282c-0.718,-0.854 -1.077,-2.068 -1.077,-3.64l0,-11.467l-3.366,0l0,-2.444l3.366,0l0,-4.478l3.162,0Z" style="fill:#fff;fill-rule:nonzero;"/></g><g><path d="M275.87,584.3c0,-1.811 0.356,-3.44 1.068,-4.887c0.712,-1.447 1.704,-2.564 2.974,-3.35c1.27,-0.786 2.72,-1.179 4.349,-1.179c2.518,0 4.555,0.872 6.11,2.615c1.555,1.743 2.333,4.061 2.333,6.955l0,0.222c0,1.801 -0.345,3.416 -1.034,4.845c-0.69,1.43 -1.675,2.544 -2.957,3.342c-1.282,0.797 -2.754,1.196 -4.418,1.196c-2.506,0 -4.537,-0.872 -6.092,-2.615c-1.555,-1.743 -2.333,-4.05 -2.333,-6.921l0,-0.223Zm3.179,0.376c0,2.051 0.476,3.698 1.427,4.939c0.951,1.242 2.224,1.863 3.819,1.863c1.607,0 2.883,-0.629 3.829,-1.888c0.945,-1.259 1.418,-3.022 1.418,-5.29c0,-2.027 -0.481,-3.671 -1.444,-4.93c-0.963,-1.259 -2.242,-1.888 -3.837,-1.888c-1.561,0 -2.82,0.621 -3.777,1.862c-0.957,1.242 -1.435,3.02 -1.435,5.332Z" style="fill:#fff;fill-rule:nonzero;"/><path d="M299.659,575.226l0.103,2.324c1.413,-1.777 3.258,-2.666 5.537,-2.666c3.908,0 5.879,2.205 5.913,6.614l0,12.219l-3.162,0l0,-12.236c-0.011,-1.333 -0.316,-2.319 -0.914,-2.957c-0.598,-0.638 -1.529,-0.957 -2.794,-0.957c-1.026,0 -1.926,0.274 -2.7,0.82c-0.775,0.547 -1.379,1.265 -1.812,2.154l0,13.176l-3.161,0l0,-18.491l2.99,0Z" style="fill:#fff;fill-rule:nonzero;"/></g></g><g id="Rectangle_451"><rect x="499.3" y="200.296" width="355.578" height="161.715" style="fill:#e9e9e9;"/><rect x="499.8" y="200.796" width="354.578" height="160.715" style="fill:none;stroke:#707070;stroke-width:1px;stroke-linejoin:miter;"/></g><rect id="Rectangle_452" x="499.3" y="593.867" width="355.578" height="161.715" style="fill:#262626;"/><g id="Rectangle_453"><rect x="499.3" y="1.562" width="355.578" height="163.663" style="fill:#fff;"/><rect x="499.8" y="2.062" width="354.578" height="162.663" style="fill:none;stroke:#707070;stroke-width:1px;stroke-linejoin:miter;"/></g><g id="_262626"><path d="M517.232,723.68l-4.253,0l-1.872,13.044l-5.555,0l1.905,-13.044l-5.808,0l0,-5.459l6.601,0l1.333,-9.046l-5.935,0l0,-5.459l6.729,0l1.936,-13.203l5.522,0l-1.936,13.203l4.285,0l1.936,-13.203l5.522,0l-1.936,13.203l5.681,0l0,5.459l-6.474,0l-1.333,9.046l5.776,0l0,5.459l-6.57,0l-1.904,13.044l-5.554,0l1.904,-13.044Zm-3.459,-5.459l4.284,0l1.302,-9.046l-4.253,0l-1.333,9.046Z" style="fill:#fff;fill-rule:nonzero;"/><path d="M563.824,736.724l-27.232,0l0,-6.294l12.505,-15.955c1.587,-2.208 2.756,-4.146 3.507,-5.813c0.752,-1.667 1.127,-3.266 1.127,-4.795c0,-2.06 -0.354,-3.674 -1.063,-4.842c-0.709,-1.168 -1.73,-1.752 -3.063,-1.752c-1.46,0 -2.618,0.683 -3.475,2.048c-0.857,1.365 -1.286,3.285 -1.286,5.76l-9.013,0c0,-2.835 0.587,-5.427 1.761,-7.776c1.175,-2.349 2.825,-4.174 4.951,-5.475c2.127,-1.301 4.534,-1.952 7.221,-1.952c4.126,0 7.326,1.138 9.601,3.412c2.274,2.275 3.412,5.507 3.412,9.696c0,2.603 -0.63,5.242 -1.889,7.919c-1.259,2.677 -3.539,5.981 -6.839,9.912l-5.936,8.512l15.711,0l0,7.395Z" style="fill:#fff;fill-rule:nonzero;"/><path d="M590.897,690.037l0,7.617l-0.508,0c-3.364,0.021 -6.036,1.032 -8.014,3.031c-1.978,2 -3.179,4.798 -3.602,8.395c1.925,-2.201 4.337,-3.301 7.236,-3.301c3.343,0 6.014,1.428 8.014,4.285c1.999,2.856 2.999,6.665 2.999,11.426c0,3.025 -0.571,5.755 -1.714,8.188c-1.142,2.433 -2.745,4.322 -4.808,5.665c-2.063,1.344 -4.396,2.016 -6.998,2.016c-4.19,0 -7.549,-1.682 -10.077,-5.047c-2.529,-3.364 -3.793,-7.892 -3.793,-13.584l0,-3.332c0,-5.099 0.799,-9.564 2.396,-13.394c1.598,-3.829 3.904,-6.776 6.919,-8.839c3.015,-2.063 6.533,-3.105 10.553,-3.126l1.397,0Zm-7.713,23.137c-1.142,0 -2.1,0.362 -2.872,1.085c-0.772,0.724 -1.349,1.618 -1.73,2.682l0,3.255c0,3.278 0.434,5.725 1.301,7.342c0.868,1.617 2.011,2.426 3.428,2.426c1.439,0 2.592,-0.782 3.46,-2.346c0.867,-1.565 1.301,-3.57 1.301,-6.017c0,-2.49 -0.45,-4.517 -1.349,-6.081c-0.899,-1.564 -2.079,-2.346 -3.539,-2.346Z" style="fill:#fff;fill-rule:nonzero;"/><path d="M629.586,736.724l-27.232,0l0,-6.294l12.505,-15.955c1.587,-2.208 2.756,-4.146 3.507,-5.813c0.751,-1.667 1.127,-3.266 1.127,-4.795c0,-2.06 -0.355,-3.674 -1.063,-4.842c-0.709,-1.168 -1.73,-1.752 -3.063,-1.752c-1.46,0 -2.619,0.683 -3.475,2.048c-0.857,1.365 -1.286,3.285 -1.286,5.76l-9.014,0c0,-2.835 0.588,-5.427 1.762,-7.776c1.174,-2.349 2.825,-4.174 4.951,-5.475c2.127,-1.301 4.533,-1.952 7.221,-1.952c4.126,0 7.326,1.138 9.6,3.412c2.275,2.275 3.412,5.507 3.412,9.696c0,2.603 -0.629,5.242 -1.888,7.919c-1.259,2.677 -3.539,5.981 -6.84,9.912l-5.935,8.512l15.711,0l0,7.395Z" style="fill:#fff;fill-rule:nonzero;"/><path d="M656.658,690.037l0,7.617l-0.507,0c-3.365,0.021 -6.036,1.032 -8.014,3.031c-1.979,2 -3.179,4.798 -3.603,8.395c1.926,-2.201 4.338,-3.301 7.237,-3.301c3.343,0 6.014,1.428 8.014,4.285c1.999,2.856 2.999,6.665 2.999,11.426c0,3.025 -0.571,5.755 -1.714,8.188c-1.143,2.433 -2.745,4.322 -4.808,5.665c-2.063,1.344 -4.396,2.016 -6.999,2.016c-4.189,0 -7.548,-1.682 -10.077,-5.047c-2.528,-3.364 -3.792,-7.892 -3.792,-13.584l0,-3.332c0,-5.099 0.798,-9.564 2.396,-13.394c1.597,-3.829 3.904,-6.776 6.919,-8.839c3.015,-2.063 6.533,-3.105 10.553,-3.126l1.396,0Zm-7.712,23.137c-1.143,0 -2.1,0.362 -2.872,1.085c-0.773,0.724 -1.349,1.618 -1.73,2.682l0,3.255c0,3.278 0.434,5.725 1.301,7.342c0.868,1.617 2.01,2.426 3.428,2.426c1.439,0 2.592,-0.782 3.459,-2.346c0.868,-1.565 1.302,-3.57 1.302,-6.017c0,-2.49 -0.45,-4.517 -1.349,-6.081c-0.899,-1.564 -2.079,-2.346 -3.539,-2.346Z" style="fill:#fff;fill-rule:nonzero;"/><path d="M695.347,736.724l-27.231,0l0,-6.294l12.505,-15.955c1.587,-2.208 2.756,-4.146 3.507,-5.813c0.751,-1.667 1.127,-3.266 1.127,-4.795c0,-2.06 -0.355,-3.674 -1.064,-4.842c-0.708,-1.168 -1.729,-1.752 -3.062,-1.752c-1.46,0 -2.619,0.683 -3.476,2.048c-0.857,1.365 -1.285,3.285 -1.285,5.76l-9.014,0c0,-2.835 0.587,-5.427 1.762,-7.776c1.174,-2.349 2.824,-4.174 4.951,-5.475c2.126,-1.301 4.533,-1.952 7.22,-1.952c4.126,0 7.327,1.138 9.601,3.412c2.275,2.275 3.412,5.507 3.412,9.696c0,2.603 -0.629,5.242 -1.888,7.919c-1.259,2.677 -3.539,5.981 -6.84,9.912l-5.935,8.512l15.71,0l0,7.395Z" style="fill:#fff;fill-rule:nonzero;"/><path d="M722.42,690.037l0,7.617l-0.508,0c-3.364,0.021 -6.035,1.032 -8.014,3.031c-1.978,2 -3.179,4.798 -3.602,8.395c1.926,-2.201 4.338,-3.301 7.236,-3.301c3.344,0 6.015,1.428 8.014,4.285c2,2.856 3,6.665 3,11.426c0,3.025 -0.572,5.755 -1.714,8.188c-1.143,2.433 -2.746,4.322 -4.809,5.665c-2.063,1.344 -4.395,2.016 -6.998,2.016c-4.189,0 -7.548,-1.682 -10.077,-5.047c-2.528,-3.364 -3.793,-7.892 -3.793,-13.584l0,-3.332c0,-5.099 0.799,-9.564 2.397,-13.394c1.597,-3.829 3.904,-6.776 6.919,-8.839c3.015,-2.063 6.532,-3.105 10.553,-3.126l1.396,0Zm-7.712,23.137c-1.143,0 -2.1,0.362 -2.873,1.085c-0.772,0.724 -1.348,1.618 -1.729,2.682l0,3.255c0,3.278 0.433,5.725 1.301,7.342c0.867,1.617 2.01,2.426 3.428,2.426c1.438,0 2.592,-0.782 3.459,-2.346c0.868,-1.565 1.301,-3.57 1.301,-6.017c0,-2.49 -0.449,-4.517 -1.348,-6.081c-0.9,-1.564 -2.079,-2.346 -3.539,-2.346Z" style="fill:#fff;fill-rule:nonzero;"/></g><g id="Rectangle_454"><rect x="499.3" y="397.082" width="355.578" height="161.715" style="fill:#9f9f9f;"/><rect x="499.8" y="397.582" width="354.578" height="160.715" style="fill:none;stroke:#707070;stroke-width:1px;stroke-linejoin:miter;"/></g><g id="_FFFFFF"><path d="M517.232,133.324l-4.253,0l-1.872,13.044l-5.555,0l1.905,-13.044l-5.808,0l0,-5.459l6.601,0l1.333,-9.046l-5.935,0l0,-5.459l6.729,0l1.936,-13.203l5.522,0l-1.936,13.203l4.285,0l1.936,-13.203l5.522,0l-1.936,13.203l5.681,0l0,5.459l-6.474,0l-1.333,9.046l5.776,0l0,5.459l-6.57,0l-1.904,13.044l-5.554,0l1.904,-13.044Zm-3.459,-5.459l4.284,0l1.302,-9.046l-4.253,0l-1.333,9.046Z" style="fill-rule:nonzero;"/><path d="M561.126,127.515l-14.504,0l0,18.853l-9.331,0l0,-46.211l25.581,0l0,7.776l-16.25,0l0,11.838l14.504,0l0,7.744Z" style="fill-rule:nonzero;"/><path d="M592.039,127.515l-14.504,0l0,18.853l-9.331,0l0,-46.211l25.581,0l0,7.776l-16.25,0l0,11.838l14.504,0l0,7.744Z" style="fill-rule:nonzero;"/><path d="M622.952,127.515l-14.504,0l0,18.853l-9.331,0l0,-46.211l25.581,0l0,7.776l-16.25,0l0,11.838l14.504,0l0,7.744Z" style="fill-rule:nonzero;"/><path d="M653.865,127.515l-14.504,0l0,18.853l-9.331,0l0,-46.211l25.581,0l0,7.776l-16.25,0l0,11.838l14.504,0l0,7.744Z" style="fill-rule:nonzero;"/><path d="M684.779,127.515l-14.505,0l0,18.853l-9.331,0l0,-46.211l25.581,0l0,7.776l-16.25,0l0,11.838l14.505,0l0,7.744Z" style="fill-rule:nonzero;"/><path d="M715.692,127.515l-14.505,0l0,18.853l-9.331,0l0,-46.211l25.581,0l0,7.776l-16.25,0l0,11.838l14.505,0l0,7.744Z" style="fill-rule:nonzero;"/></g><g id="_9f9f9f"><path d="M517.232,526.895l-4.253,0l-1.872,13.044l-5.555,0l1.905,-13.044l-5.808,0l0,-5.459l6.601,0l1.333,-9.046l-5.935,0l0,-5.459l6.729,0l1.936,-13.203l5.522,0l-1.936,13.203l4.285,0l1.936,-13.203l5.522,0l-1.936,13.203l5.681,0l0,5.459l-6.474,0l-1.333,9.046l5.776,0l0,5.459l-6.57,0l-1.904,13.044l-5.554,0l1.904,-13.044Zm-3.459,-5.459l4.284,0l1.302,-9.046l-4.253,0l-1.333,9.046Z" style="fill:#fff;fill-rule:nonzero;"/><path d="M554.017,522.07c-1.905,1.947 -3.989,2.92 -6.253,2.92c-3.512,0 -6.279,-1.412 -8.299,-4.237c-2.021,-2.824 -3.031,-6.596 -3.031,-11.314c0,-3.047 0.571,-5.835 1.714,-8.364c1.142,-2.528 2.734,-4.49 4.776,-5.887c2.042,-1.396 4.322,-2.095 6.84,-2.095c2.602,0 4.919,0.773 6.951,2.317c2.031,1.545 3.607,3.761 4.729,6.649c1.121,2.889 1.682,6.173 1.682,9.855l0,3.269c0,7.871 -1.73,14.023 -5.19,18.456c-3.459,4.433 -8.363,6.691 -14.71,6.776l-0.921,0l0,-7.744l0.603,0c3.513,-0.021 6.152,-0.931 7.919,-2.73c1.767,-1.798 2.83,-4.422 3.19,-7.871Zm-3.967,-4.126c1.735,0 3.099,-1.189 4.094,-3.567l0,-4.142c0,-3.036 -0.413,-5.42 -1.238,-7.151c-0.825,-1.73 -1.894,-2.596 -3.206,-2.596c-1.29,0 -2.332,0.855 -3.126,2.565c-0.793,1.709 -1.19,3.796 -1.19,6.259c0,2.676 0.413,4.783 1.238,6.323c0.825,1.54 1.968,2.309 3.428,2.309Z" style="fill:#fff;fill-rule:nonzero;"/><path d="M594.007,521.086l-14.504,0l0,18.853l-9.331,0l0,-46.211l25.581,0l0,7.776l-16.25,0l0,11.838l14.504,0l0,7.744Z" style="fill:#fff;fill-rule:nonzero;"/><path d="M617.811,522.07c-1.905,1.947 -3.989,2.92 -6.253,2.92c-3.512,0 -6.279,-1.412 -8.299,-4.237c-2.021,-2.824 -3.031,-6.596 -3.031,-11.314c0,-3.047 0.571,-5.835 1.714,-8.364c1.142,-2.528 2.734,-4.49 4.776,-5.887c2.042,-1.396 4.322,-2.095 6.84,-2.095c2.602,0 4.919,0.773 6.95,2.317c2.032,1.545 3.608,3.761 4.729,6.649c1.122,2.889 1.683,6.173 1.683,9.855l0,3.269c0,7.871 -1.73,14.023 -5.19,18.456c-3.459,4.433 -8.363,6.691 -14.71,6.776l-0.921,0l0,-7.744l0.603,0c3.513,-0.021 6.152,-0.931 7.919,-2.73c1.767,-1.798 2.83,-4.422 3.19,-7.871Zm-3.968,-4.126c1.735,0 3.1,-1.189 4.095,-3.567l0,-4.142c0,-3.036 -0.413,-5.42 -1.238,-7.151c-0.825,-1.73 -1.894,-2.596 -3.206,-2.596c-1.29,0 -2.332,0.855 -3.126,2.565c-0.793,1.709 -1.19,3.796 -1.19,6.259c0,2.676 0.413,4.783 1.238,6.323c0.825,1.54 1.967,2.309 3.427,2.309Z" style="fill:#fff;fill-rule:nonzero;"/><path d="M657.801,521.086l-14.504,0l0,18.853l-9.331,0l0,-46.211l25.581,0l0,7.776l-16.25,0l0,11.838l14.504,0l0,7.744Z" style="fill:#fff;fill-rule:nonzero;"/><path d="M681.605,522.07c-1.905,1.947 -3.989,2.92 -6.253,2.92c-3.512,0 -6.279,-1.412 -8.299,-4.237c-2.021,-2.824 -3.031,-6.596 -3.031,-11.314c0,-3.047 0.571,-5.835 1.714,-8.364c1.142,-2.528 2.734,-4.49 4.776,-5.887c2.042,-1.396 4.322,-2.095 6.84,-2.095c2.602,0 4.919,0.773 6.95,2.317c2.032,1.545 3.608,3.761 4.729,6.649c1.122,2.889 1.683,6.173 1.683,9.855l0,3.269c0,7.871 -1.73,14.023 -5.19,18.456c-3.459,4.433 -8.363,6.691 -14.71,6.776l-0.921,0l0,-7.744l0.603,0c3.513,-0.021 6.152,-0.931 7.919,-2.73c1.767,-1.798 2.83,-4.422 3.19,-7.871Zm-3.968,-4.126c1.735,0 3.1,-1.189 4.095,-3.567l0,-4.142c0,-3.036 -0.413,-5.42 -1.238,-7.151c-0.825,-1.73 -1.894,-2.596 -3.206,-2.596c-1.29,0 -2.332,0.855 -3.126,2.565c-0.793,1.709 -1.19,3.796 -1.19,6.259c0,2.676 0.412,4.783 1.238,6.323c0.825,1.54 1.967,2.309 3.427,2.309Z" style="fill:#fff;fill-rule:nonzero;"/><path d="M721.595,521.086l-14.504,0l0,18.853l-9.332,0l0,-46.211l25.582,0l0,7.776l-16.25,0l0,11.838l14.504,0l0,7.744Z" style="fill:#fff;fill-rule:nonzero;"/></g><g id="_E9E9E9_" serif:id="_E9E9E9"><path d="M517.232,330.11l-4.253,0l-1.872,13.044l-5.555,0l1.905,-13.044l-5.808,0l0,-5.459l6.601,0l1.333,-9.046l-5.935,0l0,-5.459l6.729,0l1.936,-13.203l5.522,0l-1.936,13.203l4.285,0l1.936,-13.203l5.522,0l-1.936,13.203l5.681,0l0,5.459l-6.474,0l-1.333,9.046l5.776,0l0,5.459l-6.57,0l-1.904,13.044l-5.554,0l1.904,-13.044Zm-3.459,-5.459l4.284,0l1.302,-9.046l-4.253,0l-1.333,9.046Z" style="fill-rule:nonzero;"/><path d="M561.158,323.159l-14.536,0l0,12.251l17.202,0l0,7.744l-26.533,0l0,-46.211l26.469,0l0,7.776l-17.138,0l0,10.918l14.536,0l0,7.522Z" style="fill-rule:nonzero;"/><path d="M585.914,325.285c-1.905,1.947 -3.989,2.92 -6.253,2.92c-3.512,0 -6.279,-1.412 -8.299,-4.237c-2.021,-2.824 -3.031,-6.596 -3.031,-11.314c0,-3.047 0.571,-5.835 1.714,-8.364c1.142,-2.528 2.734,-4.49 4.776,-5.887c2.042,-1.396 4.322,-2.095 6.84,-2.095c2.602,0 4.919,0.773 6.951,2.317c2.031,1.545 3.607,3.761 4.729,6.649c1.121,2.889 1.682,6.173 1.682,9.855l0,3.269c0,7.871 -1.73,14.023 -5.19,18.456c-3.459,4.433 -8.363,6.691 -14.71,6.776l-0.921,0l0,-7.744l0.603,0c3.513,-0.021 6.152,-0.931 7.919,-2.73c1.767,-1.798 2.83,-4.422 3.19,-7.871Zm-3.968,-4.126c1.736,0 3.1,-1.189 4.095,-3.567l0,-4.142c0,-3.036 -0.413,-5.42 -1.238,-7.151c-0.825,-1.73 -1.894,-2.596 -3.206,-2.596c-1.29,0 -2.332,0.855 -3.126,2.565c-0.793,1.709 -1.19,3.796 -1.19,6.259c0,2.676 0.413,4.783 1.238,6.323c0.825,1.54 1.968,2.309 3.427,2.309Z" style="fill-rule:nonzero;"/><path d="M625.936,323.159l-14.536,0l0,12.251l17.202,0l0,7.744l-26.533,0l0,-46.211l26.469,0l0,7.776l-17.138,0l0,10.918l14.536,0l0,7.522Z" style="fill-rule:nonzero;"/><path d="M650.692,325.285c-1.905,1.947 -3.989,2.92 -6.253,2.92c-3.512,0 -6.279,-1.412 -8.299,-4.237c-2.021,-2.824 -3.031,-6.596 -3.031,-11.314c0,-3.047 0.571,-5.835 1.713,-8.364c1.143,-2.528 2.735,-4.49 4.777,-5.887c2.042,-1.396 4.322,-2.095 6.84,-2.095c2.602,0 4.919,0.773 6.95,2.317c2.032,1.545 3.608,3.761 4.729,6.649c1.122,2.889 1.682,6.173 1.682,9.855l0,3.269c0,7.871 -1.729,14.023 -5.189,18.456c-3.459,4.433 -8.363,6.691 -14.71,6.776l-0.921,0l0,-7.744l0.603,0c3.513,-0.021 6.152,-0.931 7.919,-2.73c1.767,-1.798 2.83,-4.422 3.19,-7.871Zm-3.968,-4.126c1.735,0 3.1,-1.189 4.095,-3.567l0,-4.142c0,-3.036 -0.413,-5.42 -1.238,-7.151c-0.825,-1.73 -1.894,-2.596 -3.206,-2.596c-1.29,0 -2.333,0.855 -3.126,2.565c-0.793,1.709 -1.19,3.796 -1.19,6.259c0,2.676 0.412,4.783 1.238,6.323c0.825,1.54 1.967,2.309 3.427,2.309Z" style="fill-rule:nonzero;"/><path d="M690.714,323.159l-14.537,0l0,12.251l17.203,0l0,7.744l-26.534,0l0,-46.211l26.47,0l0,7.776l-17.139,0l0,10.918l14.537,0l0,7.522Z" style="fill-rule:nonzero;"/><path d="M715.469,325.285c-1.904,1.947 -3.988,2.92 -6.252,2.92c-3.512,0 -6.279,-1.412 -8.3,-4.237c-2.02,-2.824 -3.031,-6.596 -3.031,-11.314c0,-3.047 0.572,-5.835 1.714,-8.364c1.143,-2.528 2.735,-4.49 4.777,-5.887c2.042,-1.396 4.322,-2.095 6.84,-2.095c2.602,0 4.919,0.773 6.95,2.317c2.031,1.545 3.608,3.761 4.729,6.649c1.122,2.889 1.682,6.173 1.682,9.855l0,3.269c0,7.871 -1.729,14.023 -5.189,18.456c-3.459,4.433 -8.363,6.691 -14.711,6.776l-0.92,0l0,-7.744l0.603,0c3.512,-0.021 6.152,-0.931 7.919,-2.73c1.767,-1.798 2.83,-4.422 3.189,-7.871Zm-3.967,-4.126c1.735,0 3.1,-1.189 4.094,-3.567l0,-4.142c0,-3.036 -0.412,-5.42 -1.237,-7.151c-0.826,-1.73 -1.894,-2.596 -3.206,-2.596c-1.291,0 -2.333,0.855 -3.126,2.565c-0.794,1.709 -1.19,3.796 -1.19,6.259c0,2.676 0.412,4.783 1.237,6.323c0.826,1.54 1.968,2.309 3.428,2.309Z" style="fill-rule:nonzero;"/></g><rect id="Path_16-2" x="966.3" y="83.665" width="400.971" height="590.655" style="fill:#b04916;"/><rect id="Path_16-21" serif:id="Path_16-2" x="952.577" y="97.388" width="400.971" height="590.655" style="fill:#f87a3b;"/><g id="Fuel_Nutrition"><path d="M1001.97,165.384l4.064,0l0,-13.644l5.58,0l0,-2.876l-5.58,0l0,-9.724l7.2,0l0,-2.912l-11.264,0l0,29.156Z" style="fill:#fff;fill-rule:nonzero;"/><path d="M1018.7,165.672c2.016,0 3.71,-1.043 5.079,-2.337l0,2.049l3.848,0l0,-20.804l-3.848,0l0,16.776c-0.865,0.72 -1.838,1.296 -2.703,1.296c-1.333,0 -1.657,-0.9 -1.657,-2.376l0,-15.696l-3.848,0l0,16.848c0,2.015 0.647,4.244 3.129,4.244Z" style="fill:#fff;fill-rule:nonzero;"/><path d="M1037.32,165.672c4.248,0 5.866,-2.552 5.866,-6.73l0,-0.792l-3.74,0l0,1.26c0,2.089 -0.36,3.422 -2.09,3.422c-1.658,0 -2.342,-1.08 -2.342,-3.602l0,-4.178l8.208,0l0,-1.689c0,-5.691 -0.683,-9.071 -5.902,-9.071c-4.787,0 -6.154,2.804 -6.154,8.316l0,4.749c0,5.439 1.259,8.315 6.154,8.315Zm-2.306,-12.704l0,-1.117c0,-3.602 0.396,-4.719 2.27,-4.719c1.91,0 2.162,1.405 2.162,3.963l0,1.873l-4.432,0Z" style="fill:#fff;fill-rule:nonzero;"/><rect x="1047.08" y="136.228" width="3.847" height="29.156" style="fill:#fff;fill-rule:nonzero;"/><path d="M1063.53,165.384l3.452,0l0,-19.905l8.391,19.905l2.589,0l0,-29.156l-3.38,0l0,19.365l-8.283,-19.365l-2.769,0l0,29.156Z" style="fill:#fff;fill-rule:nonzero;"/><path d="M1085.2,165.672c2.016,0 3.71,-1.043 5.079,-2.337l0,2.049l3.848,0l0,-20.804l-3.848,0l0,16.776c-0.865,0.72 -1.838,1.296 -2.703,1.296c-1.333,0 -1.657,-0.9 -1.657,-2.376l0,-15.696l-3.848,0l0,16.848c0,2.015 0.647,4.244 3.129,4.244Z" style="fill:#fff;fill-rule:nonzero;"/><path d="M1103.59,165.672c0.972,0 1.692,-0.072 2.664,-0.216l0,-2.84c-0.468,0.072 -1.044,0.108 -1.404,0.108c-1.512,0 -1.908,-0.648 -1.908,-2.268l0,-13.324l3.348,0l0,-2.552l-3.348,0l0,-6.084l-3.848,0l0,6.084l-2.196,0l0,2.552l2.196,0l0,13.576c0,3.023 1.223,4.964 4.496,4.964Z" style="fill:#fff;fill-rule:nonzero;"/><path d="M1109.25,165.384l3.848,0l0,-15.192c0.972,-1.584 1.908,-2.016 3.096,-2.016c0.756,0 1.548,0.216 2.124,0.432l0,-4.244c-0.288,-0.036 -0.432,-0.036 -0.612,-0.036c-1.548,0 -3.096,0.684 -4.608,3.204l0,-2.952l-3.848,0l0,20.804Z" style="fill:#fff;fill-rule:nonzero;"/><path d="M1120.95,141.48l3.848,0l0,-4.028l-3.848,0l0,4.028Zm0,23.904l3.848,0l0,-20.804l-3.848,0l0,20.804Z" style="fill:#fff;fill-rule:nonzero;"/><path d="M1134.48,165.672c0.972,0 1.692,-0.072 2.664,-0.216l0,-2.84c-0.468,0.072 -1.044,0.108 -1.404,0.108c-1.512,0 -1.908,-0.648 -1.908,-2.268l0,-13.324l3.348,0l0,-2.552l-3.348,0l0,-6.084l-3.848,0l0,6.084l-2.196,0l0,2.552l2.196,0l0,13.576c0,3.023 1.223,4.964 4.496,4.964Z" style="fill:#fff;fill-rule:nonzero;"/><path d="M1140.28,141.48l3.848,0l0,-4.028l-3.848,0l0,4.028Zm0,23.904l3.848,0l0,-20.804l-3.848,0l0,20.804Z" style="fill:#fff;fill-rule:nonzero;"/><path d="M1153.99,165.672c4.607,0 6.046,-2.984 6.046,-7.665l0,-6.05c0,-4.681 -1.439,-7.665 -6.046,-7.665c-4.643,0 -6.082,2.984 -6.082,7.665l0,6.05c0,4.681 1.439,7.665 6.082,7.665Zm0,-2.84c-2.234,0 -2.234,-2.232 -2.234,-4.573l0,-6.518c0,-2.341 0,-4.609 2.234,-4.609c2.198,0 2.198,2.268 2.198,4.609l0,6.518c0,2.341 0,4.573 -2.198,4.573Z" style="fill:#fff;fill-rule:nonzero;"/><path d="M1163.57,165.384l3.848,0l0,-16.776c0.865,-0.72 1.838,-1.296 2.703,-1.296c1.333,0 1.657,0.864 1.657,2.34l0,15.732l3.848,0l0,-16.848c0,-2.015 -0.648,-4.244 -3.129,-4.244c-2.016,0 -3.71,1.043 -5.079,2.337l0,-2.049l-3.848,0l0,20.804Z" style="fill:#fff;fill-rule:nonzero;"/></g><g id="Branding_Strategy"><g><path d="M1002,628.525l0,-21.328l6.079,0c1.943,0 3.406,0.474 4.387,1.421c0.982,0.947 1.472,2.368 1.472,4.262c0,0.997 -0.249,1.875 -0.747,2.637c-0.498,0.762 -1.172,1.353 -2.021,1.773c0.976,0.293 1.75,0.893 2.322,1.801c0.571,0.909 0.856,2.002 0.856,3.282c0,1.914 -0.524,3.418 -1.574,4.511c-1.05,1.094 -2.547,1.641 -4.49,1.641l-6.284,0Zm2.68,-9.976l0,7.676l3.663,0c1.015,0 1.821,-0.334 2.417,-1.003c0.595,-0.669 0.893,-1.609 0.893,-2.82c0,-2.568 -1.084,-3.853 -3.252,-3.853l-3.721,0Zm0,-2.255l3.443,0c0.928,0 1.677,-0.314 2.248,-0.94c0.572,-0.626 0.857,-1.458 0.857,-2.496c0,-1.174 -0.258,-2.028 -0.776,-2.561c-0.518,-0.534 -1.309,-0.8 -2.373,-0.8l-3.399,0l0,6.797Z" style="fill:#fff;fill-rule:nonzero;"/><path d="M1024.54,615.107c-0.362,-0.068 -0.752,-0.103 -1.172,-0.103c-1.328,0 -2.256,0.728 -2.783,2.183l0,11.338l-2.593,0l0,-15.85l2.519,0l0.044,1.612c0.694,-1.27 1.675,-1.905 2.945,-1.905c0.41,0 0.752,0.069 1.025,0.206l0.015,2.519Z" style="fill:#fff;fill-rule:nonzero;"/></g><g><path d="M1034.69,628.525c-0.156,-0.342 -0.269,-0.918 -0.337,-1.729c-0.918,1.348 -2.09,2.022 -3.516,2.022c-1.435,0 -2.556,-0.403 -3.362,-1.209c-0.805,-0.805 -1.208,-1.94 -1.208,-3.405c0,-1.612 0.547,-2.891 1.641,-3.838c1.093,-0.947 2.592,-1.431 4.497,-1.45l1.904,0l0,-1.685c0,-0.947 -0.21,-1.621 -0.63,-2.021c-0.42,-0.401 -1.06,-0.601 -1.919,-0.601c-0.781,0 -1.416,0.232 -1.904,0.696c-0.488,0.464 -0.733,1.052 -0.733,1.765l-2.592,0c0,-0.811 0.239,-1.585 0.717,-2.322c0.479,-0.737 1.123,-1.316 1.934,-1.736c0.811,-0.42 1.714,-0.63 2.71,-0.63c1.621,0 2.854,0.403 3.699,1.209c0.844,0.806 1.277,1.98 1.296,3.523l0,7.998c0.01,1.221 0.176,2.28 0.498,3.179l0,0.234l-2.695,0Zm-3.457,-2.065c0.635,0 1.24,-0.176 1.816,-0.528c0.576,-0.351 0.996,-0.791 1.26,-1.318l0,-3.779l-1.465,0c-1.23,0.019 -2.202,0.295 -2.915,0.827c-0.713,0.532 -1.069,1.277 -1.069,2.234c0,0.899 0.18,1.55 0.542,1.956c0.361,0.405 0.971,0.608 1.831,0.608Z" style="fill:#fff;fill-rule:nonzero;"/><path d="M1043.35,612.675l0.073,1.714c1.006,-1.338 2.29,-2.007 3.853,-2.007c2.803,0 4.223,1.871 4.262,5.611l0,10.532l-2.578,0l0,-10.415c0,-1.24 -0.207,-2.122 -0.622,-2.644c-0.415,-0.523 -1.038,-0.784 -1.868,-0.784c-0.644,0 -1.223,0.215 -1.736,0.645c-0.512,0.429 -0.925,0.991 -1.238,1.684l0,11.514l-2.592,0l0,-15.85l2.446,0Z" style="fill:#fff;fill-rule:nonzero;"/><path d="M1054.88,619.882c0,-2.441 0.457,-4.301 1.37,-5.581c0.913,-1.279 2.224,-1.919 3.933,-1.919c1.514,0 2.695,0.616 3.545,1.846l0,-8.203l2.593,0l0,22.5l-2.373,0l-0.132,-1.699c-0.85,1.328 -2.066,1.992 -3.648,1.992c-1.64,0 -2.927,-0.637 -3.859,-1.912c-0.933,-1.274 -1.409,-3.073 -1.429,-5.398l0,-1.626Zm2.593,1.472c0,1.775 0.264,3.079 0.791,3.913c0.527,0.834 1.387,1.251 2.578,1.251c1.289,0 2.251,-0.648 2.886,-1.946l0,-7.988c-0.664,-1.268 -1.621,-1.902 -2.871,-1.902c-1.192,0 -2.051,0.417 -2.578,1.251c-0.528,0.834 -0.796,2.114 -0.806,3.84l0,1.581Z" style="fill:#fff;fill-rule:nonzero;"/><path d="M1073.1,628.525l-2.593,0l0,-15.85l2.593,0l0,15.85Zm0.205,-20.054c0,0.44 -0.122,0.806 -0.366,1.099c-0.244,0.293 -0.615,0.439 -1.113,0.439c-0.489,0 -0.855,-0.146 -1.099,-0.439c-0.244,-0.293 -0.366,-0.659 -0.366,-1.099c0,-0.439 0.122,-0.81 0.366,-1.113c0.244,-0.303 0.61,-0.454 1.099,-0.454c0.488,0 0.856,0.154 1.106,0.461c0.249,0.308 0.373,0.677 0.373,1.106Z" style="fill:#fff;fill-rule:nonzero;"/><path d="M1079.62,612.675l0.073,1.714c1.006,-1.338 2.29,-2.007 3.852,-2.007c2.803,0 4.224,1.871 4.263,5.611l0,10.532l-2.578,0l0,-10.415c0,-1.24 -0.208,-2.122 -0.623,-2.644c-0.415,-0.523 -1.037,-0.784 -1.867,-0.784c-0.645,0 -1.223,0.215 -1.736,0.645c-0.513,0.429 -0.925,0.991 -1.238,1.684l0,11.514l-2.593,0l0,-15.85l2.447,0Z" style="fill:#fff;fill-rule:nonzero;"/><path d="M1091.18,619.882c0,-2.47 0.449,-4.338 1.348,-5.603c0.898,-1.264 2.212,-1.897 3.94,-1.897c1.612,0 2.837,0.689 3.677,2.066l0.132,-1.773l2.344,0l0,15.996c0,1.963 -0.503,3.47 -1.509,4.52c-1.006,1.049 -2.407,1.574 -4.204,1.574c-0.782,0 -1.658,-0.193 -2.63,-0.578c-0.971,-0.386 -1.701,-0.862 -2.19,-1.429l1.055,-1.787c1.074,1.055 2.261,1.582 3.56,1.582c2.158,0 3.266,-1.176 3.325,-3.53l0,-2.065c-0.84,1.24 -2.031,1.86 -3.574,1.86c-1.641,0 -2.92,-0.618 -3.838,-1.853c-0.918,-1.235 -1.397,-3.01 -1.436,-5.325l0,-1.758Zm2.593,1.472c0,1.775 0.261,3.079 0.784,3.913c0.522,0.834 1.379,1.251 2.57,1.251c1.289,0 2.256,-0.658 2.901,-1.975l0,-7.915c-0.674,-1.297 -1.631,-1.946 -2.871,-1.946c-1.192,0 -2.051,0.417 -2.578,1.251c-0.528,0.834 -0.796,2.114 -0.806,3.84l0,1.581Z" style="fill:#fff;fill-rule:nonzero;"/><path d="M1123.02,623.134c0,-1.064 -0.288,-1.88 -0.864,-2.446c-0.577,-0.566 -1.617,-1.118 -3.121,-1.655c-1.503,-0.537 -2.653,-1.101 -3.449,-1.692c-0.796,-0.591 -1.392,-1.265 -1.787,-2.022c-0.396,-0.756 -0.594,-1.623 -0.594,-2.6c0,-1.689 0.564,-3.081 1.692,-4.174c1.128,-1.094 2.605,-1.641 4.431,-1.641c1.25,0 2.364,0.279 3.34,0.837c0.977,0.558 1.729,1.334 2.256,2.329c0.527,0.995 0.791,2.088 0.791,3.279l-2.695,0c0,-1.318 -0.318,-2.339 -0.952,-3.061c-0.635,-0.723 -1.548,-1.084 -2.74,-1.084c-1.084,0 -1.923,0.303 -2.519,0.91c-0.596,0.606 -0.894,1.457 -0.894,2.553c0,0.9 0.323,1.653 0.967,2.26c0.645,0.606 1.641,1.149 2.988,1.628c2.1,0.695 3.602,1.55 4.505,2.566c0.903,1.015 1.355,2.343 1.355,3.984c0,1.729 -0.562,3.113 -1.685,4.153c-1.123,1.04 -2.651,1.56 -4.585,1.56c-1.24,0 -2.385,-0.271 -3.435,-0.813c-1.05,-0.542 -1.875,-1.304 -2.475,-2.285c-0.601,-0.982 -0.901,-2.107 -0.901,-3.377l2.695,0c0,1.319 0.369,2.344 1.106,3.077c0.737,0.732 1.741,1.098 3.01,1.098c1.182,0 2.071,-0.303 2.666,-0.908c0.596,-0.606 0.894,-1.431 0.894,-2.476Z" style="fill:#fff;fill-rule:nonzero;"/><path d="M1132.28,608.838l0,3.837l2.387,0l0,2.095l-2.387,0l0,9.842c0,0.625 0.102,1.1 0.307,1.422c0.205,0.323 0.557,0.484 1.055,0.484c0.342,0 0.688,-0.058 1.04,-0.176l-0.029,2.185c-0.586,0.194 -1.187,0.291 -1.802,0.291c-1.025,0 -1.807,-0.366 -2.344,-1.099c-0.537,-0.732 -0.805,-1.767 -0.805,-3.105l0,-9.844l-2.417,0l0,-2.095l2.417,0l0,-3.837l2.578,0Z" style="fill:#fff;fill-rule:nonzero;"/><path d="M1144.29,615.107c-0.361,-0.068 -0.752,-0.103 -1.171,-0.103c-1.329,0 -2.256,0.728 -2.784,2.183l0,11.338l-2.592,0l0,-15.85l2.519,0l0.044,1.612c0.693,-1.27 1.675,-1.905 2.944,-1.905c0.411,0 0.752,0.069 1.026,0.206l0.014,2.519Z" style="fill:#fff;fill-rule:nonzero;"/></g><g><path d="M1154.44,628.525c-0.156,-0.342 -0.269,-0.918 -0.337,-1.729c-0.918,1.348 -2.09,2.022 -3.516,2.022c-1.435,0 -2.556,-0.403 -3.362,-1.209c-0.805,-0.805 -1.208,-1.94 -1.208,-3.405c0,-1.612 0.547,-2.891 1.641,-3.838c1.093,-0.947 2.592,-1.431 4.497,-1.45l1.904,0l0,-1.685c0,-0.947 -0.21,-1.621 -0.63,-2.021c-0.42,-0.401 -1.06,-0.601 -1.919,-0.601c-0.781,0 -1.416,0.232 -1.904,0.696c-0.488,0.464 -0.733,1.052 -0.733,1.765l-2.592,0c0,-0.811 0.239,-1.585 0.717,-2.322c0.479,-0.737 1.123,-1.316 1.934,-1.736c0.811,-0.42 1.714,-0.63 2.71,-0.63c1.621,0 2.854,0.403 3.699,1.209c0.844,0.806 1.277,1.98 1.296,3.523l0,7.998c0.01,1.221 0.176,2.28 0.498,3.179l0,0.234l-2.695,0Zm-3.457,-2.065c0.635,0 1.24,-0.176 1.816,-0.528c0.576,-0.351 0.996,-0.791 1.26,-1.318l0,-3.779l-1.465,0c-1.23,0.019 -2.202,0.295 -2.915,0.827c-0.713,0.532 -1.069,1.277 -1.069,2.234c0,0.899 0.18,1.55 0.542,1.956c0.361,0.405 0.971,0.608 1.831,0.608Z" style="fill:#fff;fill-rule:nonzero;"/><path d="M1164.05,608.838l0,3.837l2.388,0l0,2.095l-2.388,0l0,9.842c0,0.625 0.103,1.1 0.308,1.422c0.205,0.323 0.556,0.484 1.054,0.484c0.342,0 0.689,-0.058 1.04,-0.176l-0.029,2.185c-0.586,0.194 -1.186,0.291 -1.802,0.291c-1.025,0 -1.806,-0.366 -2.343,-1.099c-0.537,-0.732 -0.806,-1.767 -0.806,-3.105l0,-9.844l-2.417,0l0,-2.095l2.417,0l0,-3.837l2.578,0Z" style="fill:#fff;fill-rule:nonzero;"/><path d="M1175.18,628.818c-1.973,0 -3.486,-0.588 -4.541,-1.765c-1.055,-1.177 -1.592,-2.903 -1.611,-5.178l0,-1.919c0,-2.364 0.515,-4.217 1.545,-5.559c1.03,-1.343 2.468,-2.015 4.314,-2.015c1.855,0 3.242,0.591 4.16,1.773c0.918,1.182 1.387,3.022 1.406,5.522l0,1.7l-8.847,0l0,0.366c0,1.699 0.32,2.934 0.959,3.706c0.64,0.771 1.56,1.157 2.761,1.157c0.762,0 1.434,-0.144 2.015,-0.432c0.581,-0.288 1.125,-0.745 1.633,-1.37l1.348,1.641c-1.123,1.582 -2.837,2.373 -5.142,2.373Zm-0.293,-14.209c-1.074,0 -1.87,0.369 -2.388,1.106c-0.517,0.737 -0.81,1.882 -0.879,3.435l6.241,0l0,-0.352c-0.069,-1.503 -0.34,-2.578 -0.813,-3.222c-0.474,-0.645 -1.194,-0.967 -2.161,-0.967Z" style="fill:#fff;fill-rule:nonzero;"/><path d="M1183.05,619.882c0,-2.47 0.449,-4.338 1.348,-5.603c0.898,-1.264 2.212,-1.897 3.94,-1.897c1.612,0 2.837,0.689 3.677,2.066l0.132,-1.773l2.344,0l0,15.996c0,1.963 -0.503,3.47 -1.509,4.52c-1.006,1.049 -2.407,1.574 -4.204,1.574c-0.782,0 -1.658,-0.193 -2.63,-0.578c-0.971,-0.386 -1.701,-0.862 -2.19,-1.429l1.055,-1.787c1.074,1.055 2.261,1.582 3.56,1.582c2.158,0 3.266,-1.176 3.325,-3.53l0,-2.065c-0.84,1.24 -2.031,1.86 -3.574,1.86c-1.641,0 -2.92,-0.618 -3.838,-1.853c-0.918,-1.235 -1.397,-3.01 -1.436,-5.325l0,-1.758Zm2.593,1.472c0,1.775 0.261,3.079 0.784,3.913c0.522,0.834 1.379,1.251 2.57,1.251c1.289,0 2.256,-0.658 2.901,-1.975l0,-7.915c-0.674,-1.297 -1.631,-1.946 -2.871,-1.946c-1.192,0 -2.051,0.417 -2.578,1.251c-0.528,0.834 -0.796,2.114 -0.806,3.84l0,1.581Z" style="fill:#fff;fill-rule:nonzero;"/><path d="M1202.68,624.218l2.886,-11.543l2.754,0l-5.186,18.091c-0.39,1.358 -0.942,2.39 -1.655,3.098c-0.713,0.708 -1.524,1.062 -2.432,1.062c-0.351,0 -0.801,-0.078 -1.347,-0.234l0,-2.197l0.571,0.058c0.752,0 1.34,-0.178 1.765,-0.534c0.425,-0.357 0.769,-0.974 1.033,-1.853l0.512,-1.773l-4.658,-15.718l2.827,0l2.93,11.543Z" style="fill:#fff;fill-rule:nonzero;"/></g></g><rect id="plus_white" x="1013.22" y="209.919" width="304.429" height="304.429" style="fill:none;"/><path id="surface1" d="M1120.07,338.006c-0.74,2.597 -3.09,4.388 -5.808,4.388l-32.324,0c-12.424,0 -24.783,-0.062 -37.207,0.061c-6.181,0.064 -12.36,-0.123 -18.541,0.866c-7.725,1.174 -10.692,4.141 -12.794,11.558c-4.821,17.12 -9.703,34.178 -14.525,51.298c-0.74,2.657 0.434,5.501 2.844,6.921c4.018,2.287 11.062,2.536 15.327,2.536l73.238,0c1.485,0 2.844,-0.185 4.265,0.617c1.361,0.804 2.473,1.423 2.72,3.213c0.308,2.04 -1.174,6.739 -1.67,8.53c-3.46,12.177 -6.921,24.413 -10.381,36.649c-1.423,5.007 -2.474,9.953 -2.536,15.268c-0.061,5.439 1.238,10.073 3.586,14.893c2.719,5.564 4.573,8.097 9.331,12.177c3.214,2.78 8.778,7.044 12.794,8.652c5.688,1.917 17.616,2.844 23.486,2.719c3.956,-0.124 7.851,-0.247 11.743,-1.421c4.511,-1.359 6.428,-3.895 7.664,-8.283c7.601,-26.823 15.203,-53.708 22.807,-80.531c0.37,-1.297 0.124,-2.163 -0.865,-3.152c-8.345,-8.034 -16.689,-16.07 -25.033,-24.103c-2.037,-1.978 -0.678,-5.439 2.163,-5.439l120.829,0c7.602,0 13.351,-2.844 19.469,-6.798c2.905,-1.916 5.872,-3.709 8.529,-6.057c2.782,-2.41 4.449,-5.192 5.623,-8.653c1.979,-5.934 2.783,-14.463 2.659,-20.704c-0.123,-4.203 -0.308,-6.491 -4.449,-8.654c-3.338,-1.73 -6.613,-1.915 -10.199,-1.915l-88.257,0c-4.018,0 -6.921,-3.832 -5.809,-7.727c4.139,-14.585 8.281,-29.233 12.422,-43.818c5.562,-19.532 -3.584,-35.971 -20.704,-45.304c-8.406,-4.573 -16.812,-5.871 -26.145,-6.117c-11.99,-0.373 -16.501,0.865 -20.023,13.225c-8.221,28.368 -16.254,56.737 -24.229,85.105Z" style="fill:#fefefe;fill-rule:nonzero;"/></svg>