<svg id="Layer_1" data-name="Layer 1" xmlns="http://www.w3.org/2000/svg" viewBox="0 0 511.57 279.29"><defs><style>.cls-1{fill:none;stroke:#000;stroke-miterlimit:10;}</style></defs><title>Artboard 3</title><rect class="cls-1" x="0.5" y="0.5" width="510.57" height="278.29"/><line class="cls-1" x1="394.36" y1="116.59" x2="394.66" y2="114.74"/><polyline class="cls-1" points="108.93 73.52 108.81 74.55 109.54 76.54 112.45 76.28"/><line class="cls-1" x1="399.18" y1="118.37" x2="398.52" y2="116.3"/><line class="cls-1" x1="398.52" y1="117.51" x2="399.18" y2="118.37"/><line class="cls-1" x1="397.7" y1="118.25" x2="398.52" y2="117.51"/><line class="cls-1" x1="398.25" y1="120.78" x2="397.7" y2="118.25"/><line class="cls-1" x1="396.92" y1="120.76" x2="398.25" y2="120.78"/><line class="cls-1" x1="394.99" y1="118.14" x2="396.92" y2="120.76"/><line class="cls-1" x1="394.53" y1="116.79" x2="394.99" y2="118.14"/><line class="cls-1" x1="415.42" y1="96.81" x2="413.05" y2="97.57"/><line class="cls-1" x1="408.7" y1="98.38" x2="405.52" y2="99.14"/><path class="cls-1" d="M396.19,107.7c-4.69.75-4.16,7.66.59,7.69"/><line class="cls-1" x1="396.78" y1="115.39" x2="398.52" y2="116.3"/><line class="cls-1" x1="396.19" y1="107.7" x2="398.71" y2="106.62"/><polyline class="cls-1" points="294.73 232.06 297.82 233.47 302 233.62 307.53 230.94 310.53 226.49 313.03 223.01 309.85 215.43 307.07 210.59 300.87 205.23 296 201.95 295.8 202.5 291.19 199.02 288.12 198.44 288.38 199.06 292.31 201.63 291.07 202.15 290.03 201.29 289.73 201.72 291.55 203.62 294.48 204.28 293.4 205.29 299.73 210.54 302.18 209.74 302.31 210.46 299.69 210.77 302.01 215.55 297.68 214.91 290.79 220.41"/><polyline class="cls-1" points="291.78 230.13 292.91 231.22 293.45 231.47"/><line class="cls-1" x1="288.73" y1="227.19" x2="290.5" y2="228.9"/><polyline class="cls-1" points="290.79 220.41 287.71 217.62 285.09 218.75 287.36 216.87 286.56 208.94 286.04 208.51 286.21 207.37 286.7 206.4 285.98 202.67 287.33 199.84 286.94 199.32 285.43 200.84 286.13 199.31 284.27 198.45 281.94 200.79 283.22 204.71 283.14 206.8 282.56 206.83 282.55 207.65 281.74 207.64 281.09 217.46 285.77 224.33 286.63 225.16"/><polyline class="cls-1" points="299 227.11 300.31 226.14 300.57 221.28 302.44 220.51 305.54 220.85 308.16 224.39 309.01 228.02 306.88 229.8 301.72 231.6 298.92 230.02 296.41 224.16 296.52 221.85 297.12 221 300.22 220.53"/><polyline class="cls-1" points="302.3 215.94 307.83 218.75 310.95 221.31"/><polyline class="cls-1" points="290.76 220.64 294.55 224.12 296.42 228.01 297.28 230.82"/><line class="cls-1" x1="400.61" y1="116.58" x2="402.63" y2="116.6"/><line class="cls-1" x1="398.52" y1="116.3" x2="400.61" y2="116.58"/><line class="cls-1" x1="418.56" y1="106.25" x2="420.43" y2="108.64"/><line class="cls-1" x1="417.19" y1="113.43" x2="416.14" y2="112.41"/><line class="cls-1" x1="409.66" y1="116.22" x2="410.29" y2="118.88"/><line class="cls-1" x1="418.79" y1="114.1" x2="417.19" y2="113.43"/><line class="cls-1" x1="420.35" y1="114.33" x2="418.79" y2="114.1"/><line class="cls-1" x1="421.02" y1="113.93" x2="420.35" y2="114.33"/><line class="cls-1" x1="421.39" y1="112.7" x2="421.02" y2="113.93"/><line class="cls-1" x1="420.43" y1="108.64" x2="421.39" y2="112.7"/><line class="cls-1" x1="410.29" y1="118.88" x2="409.91" y2="120.1"/><line class="cls-1" x1="409.91" y1="120.1" x2="409.24" y2="120.51"/><line class="cls-1" x1="409.24" y1="120.51" x2="407.69" y2="120.28"/><line class="cls-1" x1="407.69" y1="120.28" x2="406.09" y2="119.61"/><line class="cls-1" x1="406.09" y1="119.61" x2="403.11" y2="116.72"/><line class="cls-1" x1="421.35" y1="101.81" x2="421.8" y2="101.06"/><line class="cls-1" x1="420.41" y1="102.96" x2="421.8" y2="101.06"/><path class="cls-1" d="M421.8,101.06c3.39-4.36-3.66-9.06-6.38-4.25"/><line class="cls-1" x1="420.51" y1="102.07" x2="420.41" y2="102.96"/><line class="cls-1" x1="403.01" y1="100.82" x2="401.86" y2="101.48"/><line class="cls-1" x1="403.74" y1="100.07" x2="403.01" y2="100.82"/><line class="cls-1" x1="405.52" y1="99.14" x2="403.74" y2="100.07"/><line class="cls-1" x1="407.45" y1="104.86" x2="408.44" y2="104.63"/><line class="cls-1" x1="405.82" y1="105.02" x2="407.45" y2="104.86"/><line class="cls-1" x1="401.61" y1="102.92" x2="402.5" y2="103.61"/><line class="cls-1" x1="404.61" y1="107.58" x2="402.1" y2="106.33"/><line class="cls-1" x1="408.7" y1="107.55" x2="410.37" y2="106.64"/><line class="cls-1" x1="411.47" y1="110.56" x2="412.66" y2="109.73"/><line class="cls-1" x1="410.09" y1="110.76" x2="411.47" y2="110.56"/><line class="cls-1" x1="408.51" y1="110.67" x2="410.09" y2="110.76"/><line class="cls-1" x1="406.67" y1="109.89" x2="408.51" y2="110.67"/><line class="cls-1" x1="411.12" y1="105.06" x2="408.03" y2="101.6"/><line class="cls-1" x1="412.62" y1="105.17" x2="413.4" y2="104.64"/><line class="cls-1" x1="411.12" y1="105.13" x2="412.62" y2="105.17"/><line class="cls-1" x1="409.92" y1="107.72" x2="411.12" y2="105.13"/><line class="cls-1" x1="408.54" y1="109.14" x2="409.92" y2="107.72"/><line class="cls-1" x1="407.1" y1="109.78" x2="408.54" y2="109.14"/><line class="cls-1" x1="406.13" y1="109.85" x2="407.1" y2="109.78"/><line class="cls-1" x1="403.38" y1="108.23" x2="406.13" y2="109.85"/><line class="cls-1" x1="401.84" y1="106.12" x2="403.38" y2="108.23"/><line class="cls-1" x1="400.85" y1="104.57" x2="401.84" y2="106.12"/><line class="cls-1" x1="401.42" y1="103.14" x2="400.85" y2="104.57"/><line class="cls-1" x1="401.86" y1="101.48" x2="401.42" y2="103.14"/><line class="cls-1" x1="411.63" y1="99.81" x2="408.7" y2="98.38"/><line class="cls-1" x1="413.65" y1="102.93" x2="411.63" y2="99.81"/><line class="cls-1" x1="413.6" y1="105.31" x2="413.65" y2="102.93"/><line class="cls-1" x1="412.66" y1="109.73" x2="413.6" y2="105.31"/><line class="cls-1" x1="413.05" y1="97.57" x2="411.07" y2="99.53"/><line class="cls-1" x1="420.16" y1="103.88" x2="420.63" y2="101.59"/><line class="cls-1" x1="419.31" y1="105.39" x2="420.16" y2="103.88"/><line class="cls-1" x1="418.1" y1="106.77" x2="419.31" y2="105.39"/><line class="cls-1" x1="418.49" y1="108.96" x2="418.43" y2="106.79"/><line class="cls-1" x1="417.09" y1="111.59" x2="418.49" y2="108.96"/><line class="cls-1" x1="413.83" y1="114.41" x2="417.09" y2="111.59"/><line class="cls-1" x1="411.34" y1="115.86" x2="413.83" y2="114.41"/><line class="cls-1" x1="408.11" y1="116.54" x2="411.34" y2="115.86"/><line class="cls-1" x1="403.37" y1="116.49" x2="408.11" y2="116.54"/><line class="cls-1" x1="402.63" y1="116.6" x2="404.06" y2="116.29"/><line class="cls-1" x1="398.71" y1="106.62" x2="401.31" y2="105.91"/><line class="cls-1" x1="423.01" y1="99.21" x2="423.91" y2="100.32"/><line class="cls-1" x1="423.91" y1="100.32" x2="425.11" y2="103.34"/><line class="cls-1" x1="425.11" y1="103.34" x2="424.42" y2="104.48"/><line class="cls-1" x1="424.42" y1="104.48" x2="422.57" y2="102.67"/><line class="cls-1" x1="422.57" y1="102.67" x2="421.5" y2="102.97"/><line class="cls-1" x1="421.5" y1="102.97" x2="421.88" y2="104"/><line class="cls-1" x1="421.88" y1="104" x2="420.48" y2="102.33"/><polyline class="cls-1" points="66.38 107.72 66.73 106.05 65.42 105.02"/><polyline class="cls-1" points="67.1 109.63 63.06 106.59 60.87 106.4"/><polyline class="cls-1" points="67.16 116.43 67.57 114.03 67.59 113.6 67.69 113 67.79 112.41 65.19 111.77 62.3 110.65 59.43 111.52 57.5 115.93 58.95 119.33 63.45 121.53 66.32 120.23 67.66 117.13 65.25 117.15 65.35 115.13 63.81 113.32 62.44 113.02 61.96 111.89 62.51 110.88"/><line class="cls-1" x1="74.26" y1="125.37" x2="69.41" y2="124.84"/><line class="cls-1" x1="80.7" y1="125.56" x2="81.45" y2="128.03"/><line class="cls-1" x1="78.32" y1="126.13" x2="79.42" y2="129.78"/><polygon class="cls-1" points="74.26 125.37 71.66 115.36 67.1 109.63 72.33 110.04 74.65 113.03 76.36 113.52 76.54 113.18 74.44 111.39 76.12 111.31 77.37 112.64 76.65 109.31 74.53 108.39 72.78 107.78 71.74 106.67 71.47 105.76 66.31 104.19 62.31 104.12 59.92 105.12 57.66 108.93 57.02 114.8 57.33 121.95 59 125.14 65.2 129.24 70.02 132.04 79.64 130.99 79.38 129.65 81.38 128.76 81.7 127.95 85.44 126.69 86.55 122.37 86 121.97 83.62 122.55 85.56 120.97 84.75 120.64 81.76 122.97 80.49 125.34 78.54 125.92 74.26 125.37"/><path class="cls-1" d="M107.73,103.09a3.64,3.64,0,0,0-.76,4.09"/><line class="cls-1" x1="100.33" y1="92.33" x2="102.63" y2="92.25"/><path class="cls-1" d="M102.59,92.88a8,8,0,0,0-4.44,4.58"/><line class="cls-1" x1="103.27" y1="94.02" x2="103.34" y2="93.98"/><line class="cls-1" x1="125.99" y1="98.38" x2="125" y2="99.35"/><line class="cls-1" x1="126.43" y1="81.79" x2="125.97" y2="82.68"/><line class="cls-1" x1="114.86" y1="94.99" x2="114.99" y2="93.8"/><line class="cls-1" x1="117.68" y1="96.87" x2="116.21" y2="96.1"/><line class="cls-1" x1="122.84" y1="85.15" x2="123.53" y2="82.76"/><line class="cls-1" x1="126.07" y1="90.45" x2="128.61" y2="87.19"/><line class="cls-1" x1="123.51" y1="88.73" x2="124.58" y2="90.04"/><line class="cls-1" x1="106.16" y1="99.64" x2="105.93" y2="99.54"/><line class="cls-1" x1="115.02" y1="95.36" x2="110.73" y2="97.1"/><polyline class="cls-1" points="108.41 101.62 111.25 99.19 115.28 96.18 116.02 95.14"/><polyline class="cls-1" points="102.99 94.9 103.3 93.94 108.73 88.77 111.04 87.2"/><polyline class="cls-1" points="110.24 87.8 110.53 88.74 111 89.06"/><polyline class="cls-1" points="110.78 97.07 108.19 98.79 106.97 99.3"/><polyline class="cls-1" points="102.43 92.61 105.46 97.59 107.84 100.3 109.41 103.98"/><polyline class="cls-1" points="120.64 88.74 121.42 89.9 122.88 90.89 125.33 91.52"/><polyline class="cls-1" points="121.15 87.32 120.75 89.06 120.92 90.45 121.32 91.62 122.23 92.53 126.25 92.66 128.33 92.33 130.75 90.06 131.53 87.27 130.36 84.61 129.26 83.2 128.5 82.69 127.73 81.78 126.21 81.66 124.87 81.39 123.67 82.5 122.07 84.19 121.1 86.85 121.31 87.68"/><polyline class="cls-1" points="125.27 85.81 125.67 87.2 126.02 88.04"/><polyline class="cls-1" points="114.77 79.55 114.25 81.21 114.33 83.08 114.63 84.86 115.14 86.05"/><polyline class="cls-1" points="111.17 86.89 112.29 85.44 114.09 83.17"/><polyline class="cls-1" points="114.85 85.48 115.56 89.64 116.66 92.35 118.32 94.3 121.31 96.7 123.83 97.51 125.72 97.11"/><polyline class="cls-1" points="126.01 90.45 126.21 91.78 126.81 92.37"/><polyline class="cls-1" points="126.9 99.46 124.82 101.7 125.06 102.42 125.94 103.21 127.3 103.46 130.01 102.77 133.25 100.62 133.69 97.95 132.2 93.57"/><polyline class="cls-1" points="125.93 95.93 125.49 97.5 126.14 98.64 126.62 99.26"/><polyline class="cls-1" points="124.9 102 122.84 101.99 119.92 103.47 120.16 104.07 120.96 103.95 121.42 104.26 120.39 105.2 120.81 105.83 123.95 106.09 125.44 105.48 127.3 103.46"/><polyline class="cls-1" points="124.82 99.39 123.52 100.09 122.06 102.39"/><polyline class="cls-1" points="112.42 76.4 113.45 79.57 114.35 80.66"/><polyline class="cls-1" points="131.91 93.39 132.09 90.35 130.9 89.52"/><polyline class="cls-1" points="88.36 104.77 93.31 99.72 95.77 98.23 96.44 97.87"/><polyline class="cls-1" points="98.25 97.86 96.81 97.97 93.25 96.92 92.47 96.09 92.46 95.39 93.32 94.3 94.55 93.36 98.09 92.34 101.53 92.56"/><polyline class="cls-1" points="101.31 103.26 96.94 106.06 95.37 106.59 91.28 107.78 89.03 107.13 89.98 104.09 90.94 101.76"/><polyline class="cls-1" points="91.33 107.92 90.75 109.03 89.35 110.11 86.02 111.42 84.36 111.53 83.59 110.97 83.32 109.37 84.08 107.42 86.11 105.27 88.49 103.65 90.38 102.53"/><path class="cls-1" d="M120.11,104l-5.52,2.43-.89.68-3.8,1.35a5.56,5.56,0,0,1-6.47-2.13l-5.34-8.7"/><polyline class="cls-1" points="109.38 76.24 107.48 77.84 105.49 78.54 104.51 79.21 103.84 78.8 103.96 78.38 105.22 77.13 104.81 76.6"/><polyline class="cls-1" points="104.38 77.69 104.64 75.94 106.44 74 108.91 73.42 109.51 72.7 114.08 70.11 115.35 70.03 116.61 70.7 118.65 76.14 118.59 76.89 120.89 78.03 122.74 79.84 123.77 82"/><path class="cls-1" d="M125.69,105.21a1.88,1.88,0,0,0,1.1-1.19"/><line class="cls-1" x1="114.77" y1="160.58" x2="117.83" y2="159.58"/><line class="cls-1" x1="114.4" y1="162" x2="118.02" y2="161.16"/><line class="cls-1" x1="100.79" y1="170.23" x2="101.25" y2="174.49"/><line class="cls-1" x1="114.36" y1="168.05" x2="114.75" y2="169.66"/><polyline class="cls-1" points="115.82 172.14 112.68 171.37 110.43 171.39 109.83 170.73 109 170.24 106.89 172.33 106.91 174.58 107.83 178.31 109.91 179.74 112.42 180.04 114.67 179.24 116.56 176.53 116.44 171.82 114.53 170.62 113.69 169.54 112.43 169.38 111.74 170.28 110.06 170.37"/><polygon class="cls-1" points="114.46 167.97 108.33 167.72 102.5 168.97 100.69 170.22 99.82 166.1 102.87 161.09 102.25 160.53 104.4 158.15 105.6 154.68 104.94 154.5 104.59 155.73 104 154.97 104.94 152.84 103.84 152.22 100.89 154.01 100.15 156.85 100.28 159.8 98.79 159.23 95.32 162.82 93.79 167.43 93.27 174.99 97.43 180.19 104.14 182.17 110.77 182.38 116.42 180.13 120.33 174.44 121.05 171.79 119.72 165.77 118.12 161.18 117.72 159.66 115.97 157.1 116.27 155.47 114.48 153.21 111.99 153.59 111.61 154.33 113.01 155.67 112.89 156.73 111.75 155.62 111.22 155.94 112.36 157.84 114.38 158.96 114.77 160.57 114.17 160.7 114.49 162.1 114.19 162.17 114.46 167.97"/><polyline class="cls-1" points="49.08 185.67 53.54 182.24 55.93 184.55 58.29 181.43"/><polyline class="cls-1" points="66.64 179.66 67.94 179 70.43 183.41"/><line class="cls-1" x1="61.72" y1="179.83" x2="62.99" y2="181.67"/><polyline class="cls-1" points="62.87 175.71 62.79 177.38 64.51 178.41"/><polyline class="cls-1" points="65.99 198.66 66.99 191.39 64.25 189.68 66.74 190.02 63.08 181.78 66.54 179.66 65.16 178.13 61.4 180.02 58.29 176.8 58.93 174.98"/><polyline class="cls-1" points="61.9 200.85 64.64 200.47 61.15 195.07 60.42 190.85 59 185.97"/><polyline class="cls-1" points="59.89 199.18 58.85 194.95 58.95 186.9"/><polyline class="cls-1" points="54.95 195.59 57.07 193.08 58.43 186.77"/><polyline class="cls-1" points="54.91 180.01 53.45 181.92 56.16 184.25 52.64 187.63 49.96 190.83 50.04 193.35 52.21 195.97 51.66 196.57 51.77 198.45"/><polyline class="cls-1" points="58.12 174.63 52.96 175.17 52.66 179.05 62.82 182.81"/><line class="cls-1" x1="50.98" y1="175.1" x2="52.93" y2="175.83"/><line class="cls-1" x1="48.01" y1="177.88" x2="48.28" y2="172.66"/><line class="cls-1" x1="53.16" y1="167.27" x2="57.39" y2="166.33"/><polygon class="cls-1" points="51.89 202.22 54.51 200.06 55.52 200.74 55.18 201.35 55.78 201.8 56.74 201.53 57.23 199.99 58.2 199.52 59.82 200.65 60.66 202.57 60.9 203.94 61.21 202.07 60.09 199.4 56.17 196.28 54.32 195.66 52.14 197.32 51.49 199.8 51.89 202.22"/><polygon class="cls-1" points="58.12 174.63 58.39 167.12 57.28 166.33 57.38 164.45 58.85 160.34 58.58 159.49 56.61 158.97 55.4 160.17 54.08 161.88 53.16 165.18 53.16 167.16 51.76 167.93 50.88 174.99 48.27 172.77 46.32 170.05 45.66 168.66 44.01 168.05 42.83 170.71 45.14 174.59 44.7 174.99 45.61 177.65 47.48 177.95 50.42 177.69 49.08 185.56 45.82 187.79 44.52 188.88 43.7 190.41 44.2 196.77 47.77 200.97 51.67 202.42 51.74 205.15 53.82 207.45 56.9 208.54 59.51 206.69 60.77 204.46 61.22 203.96 67.26 204.37 70 202.11 72.18 194.27 71.47 185.56 70.53 183.42 70.12 179.22 62.97 175.82 62.49 174.96 59.38 174.48 59.04 174.99 58.12 174.63"/><polyline class="cls-1" points="282.07 201.18 282.06 201.19 280.78 200.98 282.49 196.91 285.28 194.77 288.28 196.06 288.92 197.56 289.77 198.2 289.97 198.79"/><polyline class="cls-1" points="283.2 199.53 283.14 199.05 282.28 199.7 282.15 200.58"/><polyline class="cls-1" points="288.65 199.24 288.28 199.05 285.96 199.69"/><polyline class="cls-1" points="275.43 169.3 277.14 169.3 279.07 170.16 279.71 172.73"/><line class="cls-1" x1="288.49" y1="168.02" x2="291.7" y2="166.31"/><line class="cls-1" x1="289.13" y1="195.42" x2="286.35" y2="189.21"/><polyline class="cls-1" points="274.36 185.14 281.85 184.5 281.64 187.5 276.93 189.64 275.64 197.13"/><polyline class="cls-1" points="277.35 189.64 280.99 190.49 285.49 188.57 282.71 195.63"/><polyline class="cls-1" points="292.99 193.49 294.27 191.56 292.56 188.57 284.85 188.78 286.35 184.71 293.85 184.29 296.84 184.71"/><line class="cls-1" x1="282.06" y1="187.28" x2="285.06" y2="187.07"/><polyline class="cls-1" points="282.91 203.75 281.85 202.69 280.14 201.84 274.36 200.55 272.64 198.84 271.57 192.21 272.21 187.71 273.28 186 273.71 179.79 273.28 174.87 273.93 169.52 275.21 169.3 275.64 167.16 275.64 163.95 276.07 162.24 277.57 161.81 279.5 165.88 280.56 170.8 279.5 171.66 279.71 175.94 279.28 177.44 283.56 184.5 286.13 184.5 288.49 176.79 288.06 175.51 288.49 168.45 288.06 167.81 288.06 165.24 288.7 160.96 289.99 158.18 291.7 158.18 293.2 162.46 292.99 165.88 292.56 166.52 293.42 167.16 294.7 173.59 295.99 176.58 296.84 183.86 298.77 186.43 300.48 192.21 297.27 200.12 294.4 201.45"/><polyline class="cls-1" points="291.21 203.26 290.42 204.19 288.7 205.26 286.56 205.47 286.52 205.46"/><line class="cls-1" x1="291.62" y1="201.92" x2="291.4" y2="201.03"/><path class="cls-1" d="M295.79,176.11a4.14,4.14,0,0,1,1.81,2.55,25.7,25.7,0,0,1,.9,7.45"/><path class="cls-1" d="M286.08,208.2h0c.88,0,1.75,0,2.62,0,.67,0,1.33,0,2-.06l1.63-.11c.72-.05,1.43-.12,2.14-.24.46-.07.91-.17,1.37-.28l.13,0"/><path class="cls-1" d="M292.93,211.59l1.22-.15c.42-.05.85-.12,1.27-.2a10.35,10.35,0,0,0,1.35-.37,3.67,3.67,0,0,0,1.4-.83,2.89,2.89,0,0,0,.38-.47"/><path class="cls-1" d="M281.67,208.67h-.26l-1.39,0c-.46,0-.93,0-1.39.06s-.94.08-1.41.14c-.24,0-.49,0-.72.1l-.53.14a.67.67,0,0,0-.23.1.29.29,0,0,0-.08.14c0,.09.11.16.21.23a4.61,4.61,0,0,0,.91.4,16.47,16.47,0,0,0,1.68.45c.41.09.82.15,1.23.2s.83.09,1.26.11l.58,0"/><path class="cls-1" d="M286.74,210.8l.57,0c.42,0,.84-.06,1.26-.11s.81-.11,1.22-.2a15.8,15.8,0,0,0,1.68-.45,3.89,3.89,0,0,0,.91-.4c.11-.06.22-.14.21-.23a.22.22,0,0,0-.08-.13.49.49,0,0,0-.23-.11,4.94,4.94,0,0,0-.52-.13c-.24,0-.48-.08-.72-.11l-1.41-.14c-.47,0-.93,0-1.4-.06l-1.38,0h-.63"/><path class="cls-1" d="M281.46,202.5l-.45-.11c-.38-.08-.77-.17-1.16-.22a8.9,8.9,0,0,0-1.55-.08,13.6,13.6,0,0,0-2.37.3c-.47.09-.93.2-1.39.33a9.5,9.5,0,0,0-1.13.4,14.46,14.46,0,0,0-1.36.69,6.91,6.91,0,0,0-.78.5,3.51,3.51,0,0,0-.62.6,1.38,1.38,0,0,0-.34.61,1.17,1.17,0,0,0,.12.73,2,2,0,0,0,.8.83,3.89,3.89,0,0,0,1.16.4c.45.11.91.21,1.36.28.71.12,1.43.19,2.14.24.55,0,1.09.08,1.64.1s1.32.06,2,.07l2.18,0"/><path class="cls-1" d="M287,213.1c.59,0,1.18-.09,1.75-.17s.84-.11,1.27-.2.8-.19,1.16-.27a4.32,4.32,0,0,0,1.07-.32c.32-.16.73-.4.73-.4l-.36-2.37"/><path class="cls-1" d="M275.66,209.37c-.12.79-.24,1.58-.35,2.37,0,0,.4.24.73.4a4.26,4.26,0,0,0,1.06.32c.36.08.77.19,1.17.27s.84.15,1.26.2c.61.08,1.23.14,1.84.18"/><path class="cls-1" d="M299.49,196.08l-.52-.14"/><path class="cls-1" d="M299.36,195l0,.32c0,.24,0,.48.08.72s.09.35.14.52a2,2,0,0,0,.1.26,2.12,2.12,0,0,0,.11.21l.07.06a.4.4,0,0,0,.13,0,1.09,1.09,0,0,0,.49-.13,3.17,3.17,0,0,0,.45-.23,1.91,1.91,0,0,0,.46-.48,3.38,3.38,0,0,0,.34-.62A5.9,5.9,0,0,0,302,195c.13-.37.22-.75.33-1.13s.21-.75.31-1.13.2-.77.29-1.16.17-.78.26-1.17.15-.79.23-1.19.15-.79.23-1.19.14-.8.2-1.2.12-.8.17-1.2.08-.8.13-1.19a9.73,9.73,0,0,0,.11-1.2,4.52,4.52,0,0,0,0-.82,2.47,2.47,0,0,0-.16-.65,1.86,1.86,0,0,0-.4-.6,2.83,2.83,0,0,0-.68-.44,2.17,2.17,0,0,0-.35-.15,1.24,1.24,0,0,0-.27,0l-.24,0a1.51,1.51,0,0,0-.45.31,3.08,3.08,0,0,0-.39.42,3.44,3.44,0,0,0-.4.76c-.07.18-.15.36-.21.55a8.67,8.67,0,0,0-.26,1.17l-.24,1.18c-.07.4-.13.8-.19,1.2s-.1.8-.14,1.2-.09.81-.13,1.21c0,.25,0,.5-.08.75"/><path class="cls-1" d="M299.41,195.52l-.26,0"/><path class="cls-1" d="M301.94,195.18a1.17,1.17,0,0,1,.24.09c.11,0,.22.1.33.15l.59.22a2.6,2.6,0,0,1,.4.23,1.72,1.72,0,0,1,.34.32,1.49,1.49,0,0,1,.18.3l.06.22"/><path class="cls-1" d="M301.15,196.59l.29.09.26.07.52.11.44.11a1.52,1.52,0,0,0,.92,0,1.27,1.27,0,0,0,.32-.13l.19-.14-2.45-.8"/><path class="cls-1" d="M279.67,175.15a6,6,0,0,0,3.25-.43,3.11,3.11,0,0,1,1.21-.24,3.18,3.18,0,0,1,1.21.24,6,6,0,0,0,2.74.48"/><path class="cls-1" d="M294.93,174.12a2.75,2.75,0,0,1,.22-.26,2,2,0,0,1,.33-.32,1.81,1.81,0,0,1,.41-.22,1.4,1.4,0,0,1,.34-.08h.23"/><path class="cls-1" d="M295.62,175.74a1.64,1.64,0,0,0,.14-.22c.1-.15.18-.31.27-.46l.25-.38a2.23,2.23,0,0,0,.22-.47,1.62,1.62,0,0,0,0-.75c0-.07,0-.14-.07-.22l-1.2,1.65"/><path class="cls-1" d="M272.85,176.05l-.21-.3a1.82,1.82,0,0,1-.15-.23c-.1-.15-.18-.31-.27-.46l-.25-.38a2.23,2.23,0,0,1-.22-.47,2.76,2.76,0,0,1-.06-.4,2,2,0,0,1,0-.35c0-.07,0-.14.07-.22l1.53,2.1"/><path class="cls-1" d="M273.37,174.17l-.26-.31a2.54,2.54,0,0,0-.34-.32,1.62,1.62,0,0,0-.41-.22,1.4,1.4,0,0,0-.34-.08h-.23"/><path class="cls-1" d="M291.85,158.6l.32-.12a2.67,2.67,0,0,0,.43-.25,1.16,1.16,0,0,0,.45-.6,1.46,1.46,0,0,0,0-.36,1.36,1.36,0,0,0-.06-.36,1.21,1.21,0,0,0-.42-.48,2.67,2.67,0,0,0-.43-.25,4.59,4.59,0,0,0-.48-.17,9.9,9.9,0,0,0-1.51-.32,4.1,4.1,0,0,0-.49-.06,59.69,59.69,0,0,0-11.13,0,3.93,3.93,0,0,0-.48.06,9.65,9.65,0,0,0-1.51.32,4,4,0,0,0-.49.17,2.58,2.58,0,0,0-.42.25,1.08,1.08,0,0,0-.42.48,1.91,1.91,0,0,0-.07.36,2.19,2.19,0,0,0,0,.36,1.18,1.18,0,0,0,.46.6,2.22,2.22,0,0,0,.42.25,4.09,4.09,0,0,0,.49.18,8.65,8.65,0,0,0,1.51.33l.48.06c1.85.21,3.71.24,5.57.27s3.64-.06,5.45-.26"/><path class="cls-1" d="M267.49,182.39l.11.06a3.74,3.74,0,0,1,.59.46l.49.41c.38.32.74.66,1.1,1"/><path class="cls-1" d="M268.43,197l-.07.06a.24.24,0,0,1-.12,0,1,1,0,0,1-.5-.12,3.17,3.17,0,0,1-.45-.23,1.91,1.91,0,0,1-.46-.48,4.1,4.1,0,0,1-.34-.62,5.9,5.9,0,0,1-.25-.63c-.12-.37-.22-.75-.32-1.13s-.22-.75-.32-1.13-.2-.77-.29-1.16-.17-.78-.25-1.17l-.24-1.19c-.07-.4-.15-.79-.22-1.19s-.14-.8-.21-1.2-.12-.8-.17-1.2-.08-.8-.13-1.2a9.4,9.4,0,0,1-.11-1.19,5.64,5.64,0,0,1,0-.82,2.47,2.47,0,0,1,.16-.65,1.74,1.74,0,0,1,.41-.6,2.77,2.77,0,0,1,.67-.44,2.17,2.17,0,0,1,.35-.15,1.24,1.24,0,0,1,.27,0,1,1,0,0,1,.24,0,1.25,1.25,0,0,1,.45.31,3.16,3.16,0,0,1,.4.42,3.62,3.62,0,0,1,.39.76q.12.27.21.54a9.19,9.19,0,0,1,.27,1.18c.07.39.16.78.23,1.18s.13.8.19,1.19.1.81.14,1.21.09.81.13,1.21.08.81.13,1.21.09.79.12,1.19.06.79.08,1.19a20.72,20.72,0,0,1,.06,2.36l-.06.74c0,.24,0,.49-.09.73a4.77,4.77,0,0,1-.13.51c0,.09-.06.18-.1.27Z"/><path class="cls-1" d="M300.76,182.39l-.11.06a3.74,3.74,0,0,0-.59.46l-.49.41c-.37.32-.73.66-1.09,1"/><line class="cls-1" x1="290.29" y1="158.02" x2="277.96" y2="158.02"/><line class="cls-1" x1="290.18" y1="156.18" x2="278.08" y2="156.18"/><line class="cls-1" x1="292.19" y1="157.11" x2="276.06" y2="157.11"/><line class="cls-1" x1="282.31" y1="159.29" x2="282.31" y2="174.88"/><line class="cls-1" x1="283.22" y1="159.31" x2="283.22" y2="174.56"/><line class="cls-1" x1="285.03" y1="159.31" x2="285.03" y2="174.56"/><line class="cls-1" x1="285.94" y1="159.29" x2="285.94" y2="174.88"/><path class="cls-1" d="M302,180.65a.9.9,0,0,0-.2-.19l-.21-.07a1.52,1.52,0,0,0-.42-.06,2.23,2.23,0,0,0-.69.19l-1,.41c-.43.17-.88.31-1.33.45"/><path class="cls-1" d="M285,172.63c0-.31.18-.37.45-.37s.46.06.46.37"/><path class="cls-1" d="M283.22,172.63c0-.31-.18-.37-.45-.37s-.46.06-.46.37"/><path class="cls-1" d="M266.24,180.65a1,1,0,0,1,.21-.19l.2-.07a1.52,1.52,0,0,1,.42-.06,2.09,2.09,0,0,1,.69.19l1,.41c.44.17.88.31,1.33.45"/><path class="cls-1" d="M268.84,195.52a1.35,1.35,0,0,0,.41-.06,1.84,1.84,0,0,0,.25-.17c.16-.12.34-.22.5-.34s.22-.19.33-.28l.34-.27c.11-.09.23-.17.34-.27l.29-.28"/><path class="cls-1" d="M268.94,193.48l.2-.21a5.65,5.65,0,0,0,.79-1.14l.48-.86"/><path class="cls-1" d="M268.76,196.08l1.47-.39,1.75-.46"/><path class="cls-1" d="M266.31,195.18a1.17,1.17,0,0,0-.24.09c-.11,0-.22.1-.33.15l-.59.22a2.6,2.6,0,0,0-.4.23,1.72,1.72,0,0,0-.34.32,1.11,1.11,0,0,0-.17.3,1.87,1.87,0,0,0-.07.22"/><path class="cls-1" d="M275.32,211.59l-1.22-.15c-.42-.05-.85-.12-1.27-.2a11.3,11.3,0,0,1-1.35-.37,3.75,3.75,0,0,1-1.4-.83,2.84,2.84,0,0,1-.6-.9,3.22,3.22,0,0,1-.2-.69,3,3,0,0,1-.06-.67,3.59,3.59,0,0,1,.11-.8c.06-.23.14-.46.22-.69a3.8,3.8,0,0,1,.61-1.14,3.25,3.25,0,0,1,.64-.59,12.07,12.07,0,0,1,1.25-.74"/><path class="cls-1" d="M42.07,195.52a1.4,1.4,0,0,0,.41-.06,2.79,2.79,0,0,0,.25-.17c.16-.12.34-.22.5-.34l.33-.28.34-.27.11-.09"/><path class="cls-1" d="M42,196.08l1.47-.39.64-.17"/><path class="cls-1" d="M50.89,202.13a16.78,16.78,0,0,0-1.73.26c-.47.09-.93.2-1.39.33a8.91,8.91,0,0,0-1.13.4,12.49,12.49,0,0,0-1.36.7,8,8,0,0,0-.79.49,4.32,4.32,0,0,0-.61.6,1.51,1.51,0,0,0-.35.61,1.25,1.25,0,0,0,.13.73,1.89,1.89,0,0,0,.8.83,3.83,3.83,0,0,0,1.15.4c.46.11.91.21,1.37.28.71.12,1.42.19,2.14.24l1.63.11c.67,0,1.33,0,2,.06.87,0,1.74,0,2.62,0l2,0,2,0c.87,0,1.75,0,2.62,0,.67,0,1.33,0,2-.06l1.64-.11c.71-.05,1.43-.12,2.14-.24.45-.07.91-.17,1.36-.28a3.89,3.89,0,0,0,1.16-.4,2,2,0,0,0,.8-.83,1.17,1.17,0,0,0,.12-.73,1.49,1.49,0,0,0-.34-.61,4.4,4.4,0,0,0-.62-.6,5.69,5.69,0,0,0-.78-.49c-.3-.17-.6-.34-.91-.49"/><path class="cls-1" d="M72.72,196.08l-1-.26"/><path class="cls-1" d="M72.64,195.52a1.4,1.4,0,0,1-.41-.06,1.84,1.84,0,0,1-.25-.17l-.07,0"/><path class="cls-1" d="M72,194.75a4,4,0,0,0,.6,0"/><path class="cls-1" d="M72.27,193.2l-.2-.25"/><path class="cls-1" d="M72.55,193.21a3.53,3.53,0,0,0-.46,0"/><line class="cls-1" x1="55.54" y1="159.29" x2="55.54" y2="160.03"/><line class="cls-1" x1="58.26" y1="159.31" x2="58.26" y2="159.41"/><path class="cls-1" d="M43.83,191.94a17.61,17.61,0,0,1-.42-1.74,25.29,25.29,0,0,1,.47-11.54,4.19,4.19,0,0,1,1.34-2.17"/><path class="cls-1" d="M62.55,175.06a19,19,0,0,1,4.82.37,4.46,4.46,0,0,1,3.46,3.23,25.47,25.47,0,0,1,.81,9"/><line class="cls-1" x1="58.26" y1="161.98" x2="58.26" y2="167.02"/><line class="cls-1" x1="58.26" y1="170.7" x2="58.26" y2="174.56"/><path class="cls-1" d="M267.1,196.59l-.29.09-.26.07-.52.11-.44.11a1.86,1.86,0,0,1-.52.07,1.68,1.68,0,0,1-.39-.07,1,1,0,0,1-.32-.13,1.33,1.33,0,0,1-.19-.14l2.45-.8"/><rect class="cls-1" x="80.71" y="135.48" width="60.5" height="3.02"/><rect class="cls-1" x="85.26" y="142.74" width="1.21" height="4.23"/><rect class="cls-1" x="34.44" y="142.74" width="1.21" height="4.23"/><rect class="cls-1" x="30.2" y="146.98" width="60.5" height="3.02"/><rect class="cls-1" x="34.44" y="138.51" width="1.21" height="4.24"/><polyline class="cls-1" points="100.32 156.2 90.7 156.2 90.7 142.74 133.13 142.74 133.13 156.2 116.13 156.2"/><line class="cls-1" x1="112.95" y1="156.2" x2="112.35" y2="156.2"/><line class="cls-1" x1="111.38" y1="156.2" x2="105.07" y2="156.2"/><path class="cls-1" d="M123.56,81.56l.62-.59c-.29-.27-.58-.54-.85-.83a9.29,9.29,0,0,1-1-1.22,14.15,14.15,0,0,1-1.11-2.11,12.86,12.86,0,0,1-.53-1.34,8.74,8.74,0,0,1-.32-1.14c-.1-.5-.16-1-.21-1.52,0-.31,0-.62,0-.93a3.68,3.68,0,0,1,.14-.85,1.42,1.42,0,0,1,.3-.63,1.23,1.23,0,0,1,.67-.31,1.94,1.94,0,0,1,1.14.17,4.64,4.64,0,0,1,1,.72c.35.32.69.63,1,1,.5.52,1,1.07,1.42,1.62s.69.85,1,1.28.81,1.06,1.2,1.59c.52.71,1,1.42,1.53,2.13l1.15,1.62,1.12,1.64c.5.72,1,1.44,1.48,2.17.37.55.73,1.11,1.09,1.67s.57.93.84,1.4c.37.62.73,1.24,1,1.89.2.42.38.84.55,1.28a4.07,4.07,0,0,1,.33,1.18,2,2,0,0,1-.22,1.13,1.26,1.26,0,0,1-.53.52,1.46,1.46,0,0,1-.69.07,3.88,3.88,0,0,1-.85-.17,5.81,5.81,0,0,1-.86-.36,13.33,13.33,0,0,1-1.35-.71c-.23-.14-.45-.3-.67-.46"/><path class="cls-1" d="M110.94,108.07a4.1,4.1,0,0,0,3.29.09,25.46,25.46,0,0,0,7.15-3.93"/><path class="cls-1" d="M108.09,77.33l.77-.47.65-.4"/><path class="cls-1" d="M109,73.31l-.44.16-.29.1"/><path class="cls-1" d="M106.07,74.39l-.84.36-1.11.49-1.11.49-1.1.52-1.08.55-1.06.58a10.68,10.68,0,0,0-1,.59,4.55,4.55,0,0,0-.64.52,2.63,2.63,0,0,0-.44.5,1.62,1.62,0,0,0-.26.67,2.75,2.75,0,0,0,0,.81,2.45,2.45,0,0,0,.08.37,1,1,0,0,0,.13.23,1,1,0,0,0,.17.18,1.17,1.17,0,0,0,.51.19,2.82,2.82,0,0,0,.57.09,3.12,3.12,0,0,0,.85-.12l.57-.13a9.63,9.63,0,0,0,1.11-.46l1.1-.48,1.09-.53c.36-.19.72-.38,1.07-.58l1.07-.58.94-.53"/><path class="cls-1" d="M109.9,76.51a6.32,6.32,0,0,1-.48,1.25l-.42.89"/><path class="cls-1" d="M111.76,76.34c0,.1,0,.2,0,.3l0,.43a3.1,3.1,0,0,1,0,.43c0,.13,0,.27-.07.4"/><line class="cls-1" x1="111.58" y1="74.93" x2="111.58" y2="74.93"/><path class="cls-1" d="M109.74,72.58a.69.69,0,0,1,0-.13c0-.21-.11-.41-.15-.61a2.4,2.4,0,0,1,0-.46,1.43,1.43,0,0,1,.07-.46,1.33,1.33,0,0,1,.15-.32l.14-.18"/><line class="cls-1" x1="109.85" y1="73.06" x2="109.84" y2="73.04"/><path class="cls-1" d="M111.05,71.83c0-.13-.09-.27-.14-.4a2.05,2.05,0,0,0-.25-.46,1.53,1.53,0,0,0-.28-.29,1.27,1.27,0,0,0-.29-.18l-.22-.08.54,1.78"/><path class="cls-1" d="M112.85,77.7A16.17,16.17,0,0,0,108,79.08a25.21,25.21,0,0,0-9.18,7,4.42,4.42,0,0,0-.67,4.68c.24.56.51,1.11.8,1.64"/><path class="cls-1" d="M129.84,102.82l-.42.51-.75.9c-.25.31-.52.61-.78.9s-.54.59-.82.88-.56.59-.84.87-.56.59-.84.87l-.87.86c-.29.28-.58.56-.88.82l-.91.8a10.91,10.91,0,0,1-.91.77,6.38,6.38,0,0,1-.71.43,2.75,2.75,0,0,1-.62.24,1.64,1.64,0,0,1-.73,0,3,3,0,0,1-.75-.29,1.69,1.69,0,0,1-.31-.21,1.12,1.12,0,0,1-.18-.2.65.65,0,0,1-.11-.22,1.45,1.45,0,0,1,0-.55,3.48,3.48,0,0,1,.12-.56,3.68,3.68,0,0,1,.4-.76,5.72,5.72,0,0,1,.32-.48,8.55,8.55,0,0,1,.81-.89c.29-.29.56-.59.84-.87s.51-.51.78-.76"/><path class="cls-1" d="M130.52,102.44l.26.15c.18.11.34.24.52.35a2,2,0,0,0,.42.2,1.71,1.71,0,0,0,.45.09,1.35,1.35,0,0,0,.35,0l.22-.07"/><path class="cls-1" d="M131.83,101.56l.31.26a1.85,1.85,0,0,1,.35.39,1.49,1.49,0,0,1,.17.36,1.4,1.4,0,0,1,.08.34,1.77,1.77,0,0,1,0,.23L131.19,102"/><rect class="cls-1" x="85.26" y="138.51" width="1.21" height="4.24"/><path class="cls-1" d="M110.73,108.15l0,0-.09.25c-.07.17-.16.32-.23.48s-.11.29-.17.43a2.51,2.51,0,0,1-.26.45,1.93,1.93,0,0,1-.3.27,1.14,1.14,0,0,1-.3.18l-.22.07c.21-.62.43-1.23.64-1.85"/><path class="cls-1" d="M108.94,108.69l-.06.21a2.42,2.42,0,0,0-.06.46,1.41,1.41,0,0,0,.05.46,1.15,1.15,0,0,0,.14.32,1.27,1.27,0,0,0,.13.19"/><path class="cls-1" d="M109.45,107l0,.05"/><line class="cls-1" x1="91.67" y1="109.7" x2="96.82" y2="106.1"/><line class="cls-1" x1="91.17" y1="108.94" x2="93.94" y2="107.01"/><path class="cls-1" d="M91,108.63c.94,1.4,1.86,2.8,2.67,4.28.07.14.15.28.22.43a9.41,9.41,0,0,1,.6,1.43,4.54,4.54,0,0,1,.12.5,2.63,2.63,0,0,1,.05.49,1.2,1.2,0,0,1-.24.72,1.56,1.56,0,0,1-.28.23,1.4,1.4,0,0,1-.33.15,1.15,1.15,0,0,1-.63-.07,1.85,1.85,0,0,1-.45-.21c-.14-.08-.28-.19-.42-.29a10.28,10.28,0,0,1-1.13-1.06c-.11-.11-.22-.24-.33-.36-1.14-1.29-2.15-2.69-3.16-4.09"/><line class="cls-1" x1="93.12" y1="113.99" x2="90.04" y2="109.58"/><line class="cls-1" x1="93.47" y1="116.07" x2="89.32" y2="110.12"/><line class="cls-1" x1="91.55" y1="114.95" x2="88.42" y2="110.48"/><line class="cls-1" x1="86.73" y1="104.85" x2="86.06" y2="103.89"/><line class="cls-1" x1="86.01" y1="105.39" x2="84.23" y2="102.84"/><path class="cls-1" d="M84.9,106.56c-.16-.27-.31-.54-.46-.81l-.23-.43a10.54,10.54,0,0,1-.6-1.43,4.43,4.43,0,0,1-.13-.49,2,2,0,0,1,0-.49,1.08,1.08,0,0,1,.15-.62,1.28,1.28,0,0,1,.26-.26,1.39,1.39,0,0,1,.31-.18,1.17,1.17,0,0,1,.76,0,2.23,2.23,0,0,1,.44.21,4.43,4.43,0,0,1,.42.29,8.76,8.76,0,0,1,1.14,1l.33.36.39.45"/><line class="cls-1" x1="90.7" y1="150" x2="133.14" y2="150"/><line class="cls-1" x1="90.7" y1="146.98" x2="133.14" y2="146.98"/><line class="cls-1" x1="38.28" y1="135.48" x2="80.71" y2="135.48"/><line class="cls-1" x1="38.28" y1="138.51" x2="80.71" y2="138.51"/><path class="cls-1" d="M57.35,159.32c1.87,0,3.73-.06,5.57-.27l.48-.06a8.76,8.76,0,0,0,1.52-.33,4.68,4.68,0,0,0,.48-.18,2.22,2.22,0,0,0,.42-.25,1.13,1.13,0,0,0,.46-.6,1.46,1.46,0,0,0,0-.36,1,1,0,0,0-.07-.36,1.12,1.12,0,0,0-.41-.48,2.67,2.67,0,0,0-.43-.25,4,4,0,0,0-.49-.17,9.65,9.65,0,0,0-1.51-.32,3.93,3.93,0,0,0-.48-.06,59.69,59.69,0,0,0-11.13,0,3.93,3.93,0,0,0-.48.06,10,10,0,0,0-1.52.32,4.59,4.59,0,0,0-.48.17,2.67,2.67,0,0,0-.43.25,1.12,1.12,0,0,0-.41.48,1,1,0,0,0-.07.36,1.46,1.46,0,0,0,0,.36,1.13,1.13,0,0,0,.46.6,2.22,2.22,0,0,0,.42.25,4.68,4.68,0,0,0,.48.18,8.86,8.86,0,0,0,1.51.33l.49.06C53.63,159.26,55.49,159.29,57.35,159.32Z"/><path class="cls-1" d="M68.63,176.05l.21-.3a1.82,1.82,0,0,0,.15-.23c.1-.15.17-.31.27-.46l.25-.38a2.23,2.23,0,0,0,.22-.47,2.76,2.76,0,0,0,.06-.4,2,2,0,0,0,0-.35c0-.07,0-.14-.07-.22-.6.81-1.19,1.63-1.78,2.44"/><path class="cls-1" d="M74.38,196.59l.29.09.26.07.52.11.44.11a1.86,1.86,0,0,0,.52.07,1.68,1.68,0,0,0,.39-.07,1.2,1.2,0,0,0,.33-.13l.18-.14-2.45-.8"/><path class="cls-1" d="M57.35,210.85h1.27c.64,0,1.28,0,1.91-.07.43,0,.85-.06,1.27-.11s.81-.11,1.22-.2A16.47,16.47,0,0,0,64.7,210a3.89,3.89,0,0,0,.91-.4c.1-.06.22-.14.21-.23a.22.22,0,0,0-.08-.13.54.54,0,0,0-.23-.11A4.56,4.56,0,0,0,65,209c-.23,0-.47-.08-.71-.11l-1.42-.14c-.46,0-.93,0-1.39-.06l-1.39,0H54.64l-1.39,0c-.47,0-.93,0-1.39.06l-1.42.14c-.24,0-.48.06-.71.11a4.56,4.56,0,0,0-.53.13.54.54,0,0,0-.23.11.22.22,0,0,0-.08.13c0,.09.1.17.21.23a4.08,4.08,0,0,0,.91.4,16.47,16.47,0,0,0,1.68.45c.41.09.82.15,1.22.2s.84.09,1.27.11c.63,0,1.27.06,1.91.07Z"/><path class="cls-1" d="M48.89,209.37l-.36,2.37s.41.24.73.4a4.32,4.32,0,0,0,1.07.32c.36.08.77.19,1.16.27s.85.15,1.27.2c.64.09,1.3.15,2,.18.88,0,1.77.06,2.65.07s1.76,0,2.64-.07c.65,0,1.31-.09,2-.18.42-.05.83-.11,1.26-.2s.8-.19,1.16-.27a4.32,4.32,0,0,0,1.07-.32c.32-.16.73-.4.73-.4l-.36-2.37"/><path class="cls-1" d="M40.33,196.59l-.29.09-.26.07-.52.11-.44.11a1.52,1.52,0,0,1-.92,0,1.27,1.27,0,0,1-.32-.13l-.19-.14,2.45-.8"/><path class="cls-1" d="M48.55,211.59l-1.22-.15c-.42-.05-.85-.12-1.27-.2a10.35,10.35,0,0,1-1.35-.37,3.67,3.67,0,0,1-1.4-.83,2.84,2.84,0,0,1-.6-.9,3.94,3.94,0,0,1-.21-.69,3.79,3.79,0,0,1-.06-.67,3.6,3.6,0,0,1,.12-.8,6.12,6.12,0,0,1,.22-.69,4,4,0,0,1,.6-1.14,3.31,3.31,0,0,1,.65-.59,11.11,11.11,0,0,1,1.25-.74"/><path class="cls-1" d="M39.54,195.18a1.17,1.17,0,0,0-.24.09l-.33.15-.58.22a2.3,2.3,0,0,0-.41.23,1.72,1.72,0,0,0-.34.32,1.11,1.11,0,0,0-.17.3,1.87,1.87,0,0,0-.07.22"/><path class="cls-1" d="M42.16,193.48l.21-.21a6.09,6.09,0,0,0,.79-1.14l.48-.86"/><path class="cls-1" d="M66.16,211.59l1.22-.15c.42-.05.85-.12,1.27-.2a10.35,10.35,0,0,0,1.35-.37,3.75,3.75,0,0,0,1.4-.83,2.84,2.84,0,0,0,.6-.9,3.22,3.22,0,0,0,.2-.69,2.54,2.54,0,0,0,.06-.67,3.59,3.59,0,0,0-.11-.8c-.06-.23-.14-.46-.22-.69a3.8,3.8,0,0,0-.61-1.14,3.25,3.25,0,0,0-.64-.59,12.07,12.07,0,0,0-1.25-.74"/><path class="cls-1" d="M75.17,195.18a1.17,1.17,0,0,1,.24.09l.33.15.59.22a2.6,2.6,0,0,1,.4.23,1.72,1.72,0,0,1,.34.32,1.11,1.11,0,0,1,.17.3,1.87,1.87,0,0,1,.07.22"/><path class="cls-1" d="M39.47,180.65a.9.9,0,0,1,.2-.19l.21-.07a1.52,1.52,0,0,1,.42-.06,2.15,2.15,0,0,1,.69.19l1,.41c.44.17.88.31,1.33.45"/><path class="cls-1" d="M58.26,172.63c0-.31.18-.37.45-.37s.46.06.46.37"/><path class="cls-1" d="M75.24,180.65a1,1,0,0,0-.21-.19l-.2-.07a1.52,1.52,0,0,0-.42-.06,2.09,2.09,0,0,0-.69.19l-1,.41c-.43.17-.88.31-1.33.45"/><path class="cls-1" d="M67.1,175.43l.37-.48c.08-.12.17-.23.26-.34l.25-.27c.13-.16.26-.33.39-.48a2.54,2.54,0,0,1,.34-.32,1.81,1.81,0,0,1,.41-.22,1.4,1.4,0,0,1,.34-.08h.23"/><line class="cls-1" x1="59.17" y1="159.29" x2="59.17" y2="174.88"/><line class="cls-1" x1="65.42" y1="157.11" x2="49.29" y2="157.11"/><line class="cls-1" x1="63.4" y1="156.18" x2="51.31" y2="156.18"/><line class="cls-1" x1="63.52" y1="158.02" x2="51.19" y2="158.02"/><path class="cls-1" d="M73.05,197l.07.06a.25.25,0,0,0,.13,0,1,1,0,0,0,.49-.12,3.17,3.17,0,0,0,.45-.23,1.91,1.91,0,0,0,.46-.48,4.1,4.1,0,0,0,.34-.62,5.9,5.9,0,0,0,.25-.63c.13-.37.22-.75.32-1.13s.22-.75.32-1.13.2-.77.29-1.16.17-.78.26-1.17.15-.79.23-1.19.15-.79.23-1.19.14-.8.2-1.2.12-.8.17-1.2.08-.8.13-1.2a11.69,11.69,0,0,0,.12-1.19,5.66,5.66,0,0,0-.06-.82,2.47,2.47,0,0,0-.16-.65,1.86,1.86,0,0,0-.4-.6,2.83,2.83,0,0,0-.68-.44,1.84,1.84,0,0,0-.35-.15,1.09,1.09,0,0,0-.26,0,1,1,0,0,0-.25,0,1.35,1.35,0,0,0-.45.31,3.08,3.08,0,0,0-.39.42,3.65,3.65,0,0,0-.4.76c-.07.18-.15.36-.21.54a9.17,9.17,0,0,0-.26,1.18L73.4,185c-.07.4-.13.8-.18,1.19s-.1.81-.15,1.21-.08.81-.13,1.21l-.12,1.21c0,.4-.09.79-.13,1.19s0,.79-.08,1.19a18.64,18.64,0,0,0,0,2.36c0,.25,0,.49.06.74s0,.49.08.73a3.23,3.23,0,0,0,.14.51c0,.09.06.18.1.27Z"/><path class="cls-1" d="M74,182.39l-.11.06a3.74,3.74,0,0,0-.59.46l-.49.41c-.38.32-.74.66-1.09,1"/><line class="cls-1" x1="85.35" y1="106.08" x2="84.62" y2="105.03"/><path class="cls-1" d="M41.66,197l-.07.06a.28.28,0,0,1-.13,0A1,1,0,0,1,41,197a3.17,3.17,0,0,1-.45-.23,1.91,1.91,0,0,1-.46-.48,3.38,3.38,0,0,1-.34-.62,5.9,5.9,0,0,1-.25-.63c-.13-.37-.22-.75-.32-1.13s-.22-.75-.32-1.13-.2-.77-.29-1.16-.17-.78-.26-1.17-.15-.79-.23-1.19-.15-.79-.23-1.19-.14-.8-.2-1.2-.12-.8-.17-1.2-.08-.8-.13-1.2a11.69,11.69,0,0,1-.12-1.19,5.66,5.66,0,0,1,.06-.82,2.47,2.47,0,0,1,.16-.65,1.86,1.86,0,0,1,.4-.6,3,3,0,0,1,.67-.44,2.28,2.28,0,0,1,.36-.15,1.09,1.09,0,0,1,.26,0,1,1,0,0,1,.25,0,1.35,1.35,0,0,1,.45.31,3.08,3.08,0,0,1,.39.42,3.21,3.21,0,0,1,.39.76c.08.18.15.36.22.54a11.23,11.23,0,0,1,.26,1.18c.07.39.16.78.23,1.18s.14.8.19,1.19.1.81.15,1.21l.12,1.21c.05.4.09.81.13,1.21s.09.79.12,1.19.06.79.09,1.19a20.71,20.71,0,0,1,0,2.36l-.06.74A6.06,6.06,0,0,1,42,196a4.77,4.77,0,0,1-.13.51c0,.09-.06.18-.1.27Z"/><path class="cls-1" d="M40.72,182.39l.11.06a3.74,3.74,0,0,1,.59.46l.49.41c.37.32.73.66,1.09,1"/><path class="cls-1" d="M154.1,182.39l.12.06a3.66,3.66,0,0,1,.58.46l.5.41c.37.32.73.66,1.09,1"/><path class="cls-1" d="M170.74,198.68a4.67,4.67,0,0,0-2.23.75,3.91,3.91,0,0,1-4.44,1.06,9.57,9.57,0,0,1-4.09-3.16,15.78,15.78,0,0,1-3.18-7.13,25.29,25.29,0,0,1,.47-11.54,4.46,4.46,0,0,1,3.45-3.23,19.16,19.16,0,0,1,5.18-.34,6,6,0,0,0,3.63-.37,3.15,3.15,0,0,1,1.21-.24,3.11,3.11,0,0,1,1.21.24,6,6,0,0,0,3.63.37,19.14,19.14,0,0,1,5.18.34,4.44,4.44,0,0,1,3.45,3.23,25.16,25.16,0,0,1,.48,11.54,15.8,15.8,0,0,1-3.19,7.13,9.51,9.51,0,0,1-4.09,3.16,3.88,3.88,0,0,1-4.44-1.06A4.67,4.67,0,0,0,170.74,198.68Z"/><path class="cls-1" d="M155.05,197l-.07.06a.28.28,0,0,1-.13,0,.94.94,0,0,1-.49-.12,2.71,2.71,0,0,1-.45-.23,1.75,1.75,0,0,1-.46-.48,2.87,2.87,0,0,1-.34-.62,4.35,4.35,0,0,1-.25-.63c-.13-.37-.22-.75-.33-1.13s-.21-.75-.32-1.13-.19-.77-.28-1.16-.18-.78-.26-1.17-.16-.79-.23-1.19-.16-.79-.23-1.19-.14-.8-.2-1.2-.13-.8-.18-1.2-.08-.8-.13-1.2a9.4,9.4,0,0,1-.11-1.19,5.66,5.66,0,0,1,.06-.82,2.92,2.92,0,0,1,.15-.65,1.74,1.74,0,0,1,.41-.6,2.77,2.77,0,0,1,.67-.44,2.17,2.17,0,0,1,.35-.15,1.24,1.24,0,0,1,.27,0,1,1,0,0,1,.24,0,1.38,1.38,0,0,1,.46.31,3.08,3.08,0,0,1,.39.42,3.21,3.21,0,0,1,.39.76q.12.27.21.54a9.19,9.19,0,0,1,.27,1.18c.07.39.16.78.23,1.18s.14.8.19,1.19.1.81.14,1.21.09.81.13,1.21.09.81.13,1.21.09.79.12,1.19.06.79.08,1.19a20.72,20.72,0,0,1,.06,2.36c0,.25,0,.49-.07.74a6,6,0,0,1-.08.73,4.77,4.77,0,0,1-.13.51c0,.09-.06.18-.1.27Z"/><path class="cls-1" d="M187.38,182.39l-.11.06a3.74,3.74,0,0,0-.59.46l-.49.41c-.38.32-.74.66-1.1,1"/><path class="cls-1" d="M186.43,197l.07.06a.31.31,0,0,0,.13,0,1,1,0,0,0,.5-.12,3.81,3.81,0,0,0,.45-.23,1.91,1.91,0,0,0,.46-.48,4.1,4.1,0,0,0,.34-.62c.09-.2.17-.41.25-.63.12-.37.22-.75.32-1.13s.22-.75.32-1.13.19-.77.28-1.16.18-.78.26-1.17l.24-1.19c.07-.4.15-.79.22-1.19l.21-1.2c.06-.4.12-.8.17-1.2s.08-.8.13-1.2a9.4,9.4,0,0,0,.11-1.19,5.64,5.64,0,0,0,0-.82,3.63,3.63,0,0,0-.16-.65,1.74,1.74,0,0,0-.41-.6,2.77,2.77,0,0,0-.67-.44,2.17,2.17,0,0,0-.35-.15,1.24,1.24,0,0,0-.27,0,1,1,0,0,0-.24,0,1.25,1.25,0,0,0-.45.31,3.16,3.16,0,0,0-.4.42,3.62,3.62,0,0,0-.39.76q-.12.27-.21.54a7.75,7.75,0,0,0-.26,1.18c-.08.39-.17.78-.24,1.18s-.13.8-.19,1.19-.1.81-.14,1.21-.09.81-.13,1.21-.08.81-.13,1.21l-.12,1.19c0,.4-.06.79-.08,1.19a18.64,18.64,0,0,0-.05,2.36c0,.25,0,.49.06.74a6,6,0,0,0,.08.73,3.23,3.23,0,0,0,.14.51,1.43,1.43,0,0,0,.09.27A1.28,1.28,0,0,1,186.43,197Z"/><line class="cls-1" x1="176.9" y1="158.02" x2="164.58" y2="158.02"/><line class="cls-1" x1="176.79" y1="156.18" x2="164.69" y2="156.18"/><line class="cls-1" x1="178.81" y1="157.11" x2="162.67" y2="157.11"/><line class="cls-1" x1="168.93" y1="159.29" x2="168.93" y2="174.88"/><line class="cls-1" x1="169.83" y1="159.31" x2="169.83" y2="174.56"/><line class="cls-1" x1="171.65" y1="159.31" x2="171.65" y2="174.56"/><path class="cls-1" d="M100,81.34l.11.06a3.53,3.53,0,0,0,.72.22l.61.17c.48.12,1,.22,1.45.32"/><path class="cls-1" d="M119.1,108.62s0-.09,0-.13a3.64,3.64,0,0,1,0-.74c0-.22,0-.43,0-.64,0-.49.12-1,.2-1.47"/><path class="cls-1" d="M118.39,110.64a.76.76,0,0,1-.27-.06.59.59,0,0,1-.18-.13,1.42,1.42,0,0,1-.29-.31,2.55,2.55,0,0,1-.24-.67c-.08-.36-.14-.7-.22-1s-.26-.9-.4-1.35"/><path class="cls-1" d="M97.9,81.32a.84.84,0,0,0,0,.27.83.83,0,0,0,.06.21,1.38,1.38,0,0,0,.2.38,2,2,0,0,0,.55.45l.89.57c.39.26.76.55,1.13.84"/><path class="cls-1" d="M98.28,91l-.6,0-.43,0-.37-.05-.62,0a2.26,2.26,0,0,1-.45-.1,1.65,1.65,0,0,1-.42-.21,1.42,1.42,0,0,1-.25-.24A1.27,1.27,0,0,1,95,90.1"/><path class="cls-1" d="M138.55,85.47l.58,1.08c.19.39.38.77.56,1.16a9.84,9.84,0,0,1,.47,1.32,3.75,3.75,0,0,1,.12,1.63,2.63,2.63,0,0,1-.4,1,3,3,0,0,1-.44.56,3.11,3.11,0,0,1-.52.44,3.73,3.73,0,0,1-.72.36,7,7,0,0,1-.69.21,3.72,3.72,0,0,1-1.28.16,3.08,3.08,0,0,1-.85-.19,10.6,10.6,0,0,1-1.33-.6"/><path class="cls-1" d="M128.46,71l-.81-.92c-.3-.31-.59-.63-.9-.92a9.37,9.37,0,0,0-1.08-.9,3.81,3.81,0,0,0-1.48-.67,2.8,2.8,0,0,0-1.08,0,3,3,0,0,0-.68.23,3.08,3.08,0,0,0-.59.33,3.41,3.41,0,0,0-.58.56,6.17,6.17,0,0,0-.44.57,4.08,4.08,0,0,0-.6,1.15,4.14,4.14,0,0,0-.11.87,11.79,11.79,0,0,0,.11,1.45"/><path class="cls-1" d="M126.83,72.59l1.74-1.65s.43.19.75.37a4,4,0,0,1,.88.69l.88.8c.32.3.61.6.89.92.44.48.86,1,1.27,1.5.54.69,1.06,1.41,1.57,2.12s1,1.46,1.46,2.21c.34.56.67,1.13,1,1.71.2.37.38.75.55,1.15s.31.76.45,1.1a4,4,0,0,1,.35,1.07c.06.35.09.82.09.82l-2.15,1.07"/><path class="cls-1" d="M132.9,78.68l.71,1c.36.52.71,1.06,1,1.6.22.36.43.73.63,1.1s.37.73.54,1.11a14,14,0,0,1,.58,1.64,3.77,3.77,0,0,1,.2,1c0,.12,0,.25-.07.3a.25.25,0,0,1-.15,0,.52.52,0,0,1-.22-.12l-.41-.36a6.26,6.26,0,0,1-.5-.53c-.32-.35-.63-.71-.92-1.08s-.58-.73-.85-1.1-.55-.75-.82-1.12l-.8-1.12c-.26-.37-.52-.73-.77-1.1l-.77-1.1-.77-1.14-.78-1.15c-.25-.39-.5-.78-.74-1.18s-.47-.82-.7-1.23c-.11-.22-.23-.43-.32-.65s-.13-.34-.19-.51a.53.53,0,0,1,0-.25.23.23,0,0,1,.07-.14c.07-.06.19,0,.3,0a3.84,3.84,0,0,1,.86.52c.43.33.9.71,1.33,1.11s.58.58.86.89.55.64.81,1c.4.5.78,1,1.15,1.53Z"/><path class="cls-1" d="M97.92,89.37h-.65l-.53,0-.45,0a1.71,1.71,0,0,0-.51.09,1.43,1.43,0,0,0-.63.4l-.14.18,2.81.06"/><line class="cls-1" x1="172.55" y1="159.29" x2="172.55" y2="174.88"/><path class="cls-1" d="M180.49,175.43l.36-.48c.09-.12.17-.23.27-.34l.24-.27c.14-.16.26-.33.4-.48a1.72,1.72,0,0,1,.34-.32,1.47,1.47,0,0,1,.41-.22,1.3,1.3,0,0,1,.34-.08h.23"/><path class="cls-1" d="M188.63,180.65a1.24,1.24,0,0,0-.21-.19l-.2-.07a1.54,1.54,0,0,0-.43-.06,2.1,2.1,0,0,0-.68.19l-1,.41c-.44.17-.89.31-1.34.45"/><path class="cls-1" d="M171.65,172.63c0-.31.18-.37.45-.37s.45.06.45.37"/><path class="cls-1" d="M169.83,172.63c0-.31-.18-.37-.45-.37s-.45.06-.45.37"/><path class="cls-1" d="M152.85,180.65a1.24,1.24,0,0,1,.21-.19l.2-.07a1.59,1.59,0,0,1,.43-.06,2.1,2.1,0,0,1,.68.19l1,.41c.43.17.88.31,1.33.45"/><path class="cls-1" d="M161,175.43l-.36-.48c-.09-.12-.17-.23-.27-.34l-.24-.27c-.14-.16-.26-.33-.4-.48a1.72,1.72,0,0,0-.34-.32,1.47,1.47,0,0,0-.41-.22,1.3,1.3,0,0,0-.34-.08h-.23"/><polyline class="cls-1" points="65.28 129.28 38.28 129.28 38.28 142.74 80.71 142.74 80.71 129.28 80.2 129.28"/><path class="cls-1" d="M188.55,195.18a1.06,1.06,0,0,1,.25.09l.33.15.58.22a3.3,3.3,0,0,1,.41.23,1.67,1.67,0,0,1,.33.32,1.14,1.14,0,0,1,.18.3,1.87,1.87,0,0,1,.07.22"/><line class="cls-1" x1="184.14" y1="194.17" x2="183.43" y2="194.17"/><line class="cls-1" x1="184.14" y1="193.74" x2="183.62" y2="193.74"/><path class="cls-1" d="M186.1,196.08l-1.46-.39-1.76-.46"/><path class="cls-1" d="M185.66,193.2a5.57,5.57,0,0,1-.72-1.07l-.49-.86"/><path class="cls-1" d="M184.17,194.37l-.26-.2"/><path class="cls-1" d="M186,195.52a1.31,1.31,0,0,1-.41-.06,1.38,1.38,0,0,1-.25-.17c-.17-.12-.35-.22-.51-.34l-.32-.28-.07-.06"/><path class="cls-1" d="M179.13,199.56l.09.08a1,1,0,0,1,.28.43,1.31,1.31,0,0,1,0,.68,1.4,1.4,0,0,1-.27.53,1.45,1.45,0,0,1-.4.34,1.41,1.41,0,0,1-.85.21,1.46,1.46,0,0,1-.41-.11,1.07,1.07,0,0,1-.28-.19l-.14-.15a1.2,1.2,0,0,1-.2-.48,2.26,2.26,0,0,1,0-.26"/><path class="cls-1" d="M179,199.64l.06,0a1.26,1.26,0,0,1,.24.22,1.08,1.08,0,0,1,.13.29,1.1,1.1,0,0,1,0,.44,1.41,1.41,0,0,1-.14.44,1.29,1.29,0,0,1-.49.51l-.33.15-.23,0a1.18,1.18,0,0,1-.46,0,1.59,1.59,0,0,1-.29-.15,1.07,1.07,0,0,1-.16-.14.8.8,0,0,1-.18-.27,1.16,1.16,0,0,1-.08-.32,1.77,1.77,0,0,1,0-.23v0"/><path class="cls-1" d="M179.39,199.38a1.94,1.94,0,0,1,.21.29,2.31,2.31,0,0,1,.25.61,1.6,1.6,0,0,1,0,.49,2,2,0,0,1-.13.48,1.64,1.64,0,0,1-.44.6,1.61,1.61,0,0,1-.65.33,1.56,1.56,0,0,1-.61,0,1.72,1.72,0,0,1-.58-.19,1.58,1.58,0,0,1-.43-.34,2.55,2.55,0,0,1-.31-.47c-.07-.15-.13-.32-.19-.48"/><path class="cls-1" d="M179.55,211.59c.4-.05.81-.09,1.21-.15s.86-.12,1.28-.2a10.66,10.66,0,0,0,1.34-.37,3.79,3.79,0,0,0,1.41-.83,3,3,0,0,0,.6-.9,3.92,3.92,0,0,0,.2-.69,3.79,3.79,0,0,0,.06-.67,3.6,3.6,0,0,0-.12-.8,6.12,6.12,0,0,0-.22-.69,4,4,0,0,0-.6-1.14,3,3,0,0,0-.65-.59,11.11,11.11,0,0,0-1.25-.74"/><path class="cls-1" d="M179.54,199.27a4.27,4.27,0,0,1,.3.44,2.2,2.2,0,0,1,.22.7,1.86,1.86,0,0,1-.29,1.19,1.94,1.94,0,0,1-.62.59,2.05,2.05,0,0,1-.41.16"/><line class="cls-1" x1="173.5" y1="199.94" x2="173.85" y2="202.4"/><path class="cls-1" d="M177.28,202.14l-.12-.09a2,2,0,0,1-.49-.55,3.73,3.73,0,0,1-.31-.74"/><line class="cls-1" x1="167.98" y1="199.94" x2="167.63" y2="202.4"/><path class="cls-1" d="M155.45,195.52a1.31,1.31,0,0,0,.41-.06,1.38,1.38,0,0,0,.25-.17c.17-.12.35-.22.51-.34l.32-.28.34-.27c.12-.09.23-.17.34-.27a3.83,3.83,0,0,0,.29-.28"/><path class="cls-1" d="M155.55,193.48l.21-.21a6,6,0,0,0,.78-1.14l.49-.86"/><path class="cls-1" d="M155.38,196.08l1.46-.39,1.76-.46"/><path class="cls-1" d="M152.93,195.18a1.17,1.17,0,0,0-.24.09,3.49,3.49,0,0,0-.34.15l-.58.22a3.3,3.3,0,0,0-.41.23,1.67,1.67,0,0,0-.33.32,1.49,1.49,0,0,0-.18.3c0,.07,0,.15-.07.22"/><path class="cls-1" d="M161.93,211.59c-.4-.05-.81-.09-1.21-.15s-.85-.12-1.27-.2a10.35,10.35,0,0,1-1.35-.37,3.79,3.79,0,0,1-1.41-.83,3,3,0,0,1-.59-.9,3.24,3.24,0,0,1-.21-.69,3.79,3.79,0,0,1-.06-.67,3.6,3.6,0,0,1,.12-.8,6.12,6.12,0,0,1,.22-.69,4,4,0,0,1,.6-1.14,3,3,0,0,1,.65-.59,11.11,11.11,0,0,1,1.25-.74"/><path class="cls-1" d="M153.71,196.59l-.28.09-.26.07-.52.11-.45.11a1.79,1.79,0,0,1-.51.07,1.76,1.76,0,0,1-.4-.07,1.27,1.27,0,0,1-.32-.13,1.33,1.33,0,0,1-.19-.14l2.45-.8"/><path class="cls-1" d="M162.27,209.37c-.11.79-.23,1.58-.35,2.37,0,0,.4.24.73.4a4.32,4.32,0,0,0,1.07.32c.36.08.76.19,1.16.27s.84.15,1.26.2c.65.09,1.3.15,2,.18.88,0,1.76.06,2.64.07s1.76,0,2.65-.07c.65,0,1.31-.09,2-.18.42-.05.84-.11,1.26-.2s.81-.19,1.17-.27a4.45,4.45,0,0,0,1.07-.32c.32-.16.72-.4.73-.4l-.36-2.37"/><path class="cls-1" d="M170.74,208.23l2,0,2.62,0c.66,0,1.33,0,2-.06L179,208c.72-.05,1.44-.12,2.14-.24.46-.07.91-.17,1.37-.28a4,4,0,0,0,1.16-.4,1.92,1.92,0,0,0,.79-.83,1.18,1.18,0,0,0,.13-.73,1.49,1.49,0,0,0-.34-.61,5,5,0,0,0-.62-.6,8,8,0,0,0-.79-.49,11.64,11.64,0,0,0-1.36-.7,8.77,8.77,0,0,0-1.12-.4c-.46-.13-.93-.24-1.4-.33a15.67,15.67,0,0,0-2.37-.3,9.94,9.94,0,0,0-1.54.08c-.39.06-.78.14-1.17.23s-1,.24-1.58.31a9.07,9.07,0,0,1-3.06,0c-.53-.07-1.06-.19-1.58-.31s-.78-.17-1.17-.23a9.94,9.94,0,0,0-1.54-.08,15.67,15.67,0,0,0-2.37.3c-.47.09-.94.2-1.4.33a8.77,8.77,0,0,0-1.12.4,11.64,11.64,0,0,0-1.36.7,8,8,0,0,0-.79.49,4.4,4.4,0,0,0-.62.6,1.49,1.49,0,0,0-.34.61,1.18,1.18,0,0,0,.13.73,1.92,1.92,0,0,0,.79.83,4,4,0,0,0,1.16.4c.46.11.91.21,1.37.28.7.12,1.42.19,2.14.24l1.63.11c.66,0,1.33,0,2,.06l2.62,0Z"/><path class="cls-1" d="M170.74,210.85H172c.64,0,1.27,0,1.91-.07.42,0,.84-.06,1.26-.11s.82-.11,1.23-.2a16.28,16.28,0,0,0,1.67-.45,4,4,0,0,0,.92-.4c.1-.06.21-.14.2-.23a.18.18,0,0,0-.08-.13.46.46,0,0,0-.22-.11,5.11,5.11,0,0,0-.53-.13c-.24,0-.48-.08-.72-.11l-1.41-.14c-.46,0-.93,0-1.39-.06l-1.39,0H168l-1.38,0c-.47,0-.93,0-1.4.06l-1.41.14c-.24,0-.48.06-.72.11a5.11,5.11,0,0,0-.53.13.46.46,0,0,0-.22.11.18.18,0,0,0-.08.13c0,.09.1.17.2.23a4,4,0,0,0,.92.4,15.8,15.8,0,0,0,1.68.45c.41.09.81.15,1.22.2s.84.09,1.26.11c.64,0,1.27.06,1.91.07Z"/><path class="cls-1" d="M187.77,196.59l.28.09.26.07.52.11.45.11a1.81,1.81,0,0,0,.52.07,1.78,1.78,0,0,0,.39-.07,1.27,1.27,0,0,0,.32-.13,1.33,1.33,0,0,0,.19-.14l-2.45-.8"/><path class="cls-1" d="M159.47,176.05l-.22-.3-.15-.23-.26-.46-.25-.38a2.23,2.23,0,0,1-.22-.47,1.39,1.39,0,0,1-.06-.4,1,1,0,0,1,0-.35,1.11,1.11,0,0,1,.07-.22c.55.76,1.1,1.52,1.66,2.27"/><path class="cls-1" d="M182,176.05l.21-.3.15-.23.26-.46.25-.38a2.23,2.23,0,0,0,.22-.47,1.39,1.39,0,0,0,.06-.4,1,1,0,0,0,0-.35c0-.07,0-.14-.06-.22l-1.79,2.44"/><path class="cls-1" d="M170.74,159.32c1.86,0,3.72-.06,5.57-.27l.48-.06a8.65,8.65,0,0,0,1.51-.33,4.09,4.09,0,0,0,.49-.18,2.58,2.58,0,0,0,.42-.25,1.11,1.11,0,0,0,.45-.6,1.46,1.46,0,0,0,0-.36,1.36,1.36,0,0,0-.06-.36,1.08,1.08,0,0,0-.42-.48,2.67,2.67,0,0,0-.43-.25,3.9,3.9,0,0,0-.48-.17,9.65,9.65,0,0,0-1.51-.32,3.93,3.93,0,0,0-.48-.06,59.69,59.69,0,0,0-11.13,0,3.86,3.86,0,0,0-.49.06,9.9,9.9,0,0,0-1.51.32,3.9,3.9,0,0,0-.48.17,2.67,2.67,0,0,0-.43.25,1.21,1.21,0,0,0-.42.48,1.36,1.36,0,0,0-.06.36,1.46,1.46,0,0,0,0,.36,1.16,1.16,0,0,0,.45.6,2.67,2.67,0,0,0,.43.25,3.94,3.94,0,0,0,.48.18,8.65,8.65,0,0,0,1.51.33l.49.06C167,159.26,168.88,159.29,170.74,159.32Z"/><path class="cls-1" d="M185.94,193.21a4.61,4.61,0,0,0-1.73.18,2.1,2.1,0,0,0,0,1.14,4.56,4.56,0,0,0,1.76.21"/><line class="cls-1" x1="230.92" y1="128.65" x2="218.82" y2="128.65"/><path class="cls-1" d="M240.07,91.62a4.59,4.59,0,0,1-1.73-.18,2,2,0,0,1,0-1.14,4.56,4.56,0,0,1,1.76-.21"/><path class="cls-1" d="M224.87,125.51c1.86,0,3.72.06,5.56.27l.49.06a9.68,9.68,0,0,1,1.51.33c.17.06.33.11.48.18a2.67,2.67,0,0,1,.43.25,1.11,1.11,0,0,1,.45.6,1.46,1.46,0,0,1,0,.36,1.36,1.36,0,0,1-.06.36,1.08,1.08,0,0,1-.42.48,2.67,2.67,0,0,1-.43.25,3.9,3.9,0,0,1-.48.17,11.31,11.31,0,0,1-1.51.33l-.48.06a62.17,62.17,0,0,1-11.14,0l-.48-.06a11,11,0,0,1-1.51-.33,3.39,3.39,0,0,1-.48-.17,2.67,2.67,0,0,1-.43-.25,1,1,0,0,1-.42-.48,1.36,1.36,0,0,1-.06-.36,1.46,1.46,0,0,1,0-.36,1.11,1.11,0,0,1,.45-.6,2.58,2.58,0,0,1,.42-.25c.16-.07.32-.12.49-.18a9.68,9.68,0,0,1,1.51-.33l.48-.06C221.15,125.57,223,125.54,224.87,125.51Z"/><path class="cls-1" d="M236.15,108.78l.21.3.15.23.26.46.25.38a2.09,2.09,0,0,1,.22.48,1.27,1.27,0,0,1,.06.39,1.34,1.34,0,0,1,0,.35,1.42,1.42,0,0,1-.07.22c-.59-.81-1.18-1.63-1.78-2.44"/><path class="cls-1" d="M213.59,108.78l-.21.3-.15.23-.26.46-.25.38a2.09,2.09,0,0,0-.22.48,1.27,1.27,0,0,0-.06.39,1,1,0,0,0,0,.35,1.41,1.41,0,0,0,.06.22c.56-.76,1.11-1.52,1.67-2.27"/><path class="cls-1" d="M241.9,88.24l.28-.08.26-.08c.18,0,.35-.06.52-.11l.45-.11a2.24,2.24,0,0,1,.51-.07,1.76,1.76,0,0,1,.4.07,1,1,0,0,1,.32.14,1.07,1.07,0,0,1,.19.13l-2.45.8"/><path class="cls-1" d="M224.87,74l1.27,0c.64,0,1.27,0,1.91.06.42,0,.84.06,1.26.11s.81.11,1.23.2a16.28,16.28,0,0,1,1.67.45,4.43,4.43,0,0,1,.92.4c.1.06.21.14.2.23a.18.18,0,0,1-.08.13.46.46,0,0,1-.22.11l-.53.14c-.24,0-.48.07-.72.1-.47.06-.94.1-1.41.14s-.93.05-1.4.06l-1.38,0h-5.44l-1.39,0c-.46,0-.93,0-1.39-.06s-.94-.08-1.41-.14l-.72-.1-.53-.14a.54.54,0,0,1-.23-.11.17.17,0,0,1-.07-.13c0-.09.1-.16.2-.23a4.43,4.43,0,0,1,.92-.4,16.28,16.28,0,0,1,1.67-.45c.41-.09.82-.15,1.23-.2s.84-.08,1.26-.11c.64,0,1.27-.06,1.91-.06Z"/><path class="cls-1" d="M224.87,76.6l2,0c.88,0,1.75,0,2.63,0,.66,0,1.33,0,2,.06l1.63.11c.72,0,1.43.12,2.14.24.46.07.91.17,1.37.28a3.83,3.83,0,0,1,1.15.4,1.89,1.89,0,0,1,.8.83,1.18,1.18,0,0,1,.13.73,1.49,1.49,0,0,1-.34.61,5,5,0,0,1-.62.6,8,8,0,0,1-.79.49,11.64,11.64,0,0,1-1.36.7,8.77,8.77,0,0,1-1.12.4c-.46.13-.93.24-1.4.33a14.49,14.49,0,0,1-2.37.3,9.87,9.87,0,0,1-1.54-.08c-.4-.06-.78-.14-1.17-.23s-1-.24-1.58-.31a13,13,0,0,0-1.53-.13,12.79,12.79,0,0,0-1.53.13c-.53.07-1.06.19-1.58.31s-.78.17-1.17.23a9.94,9.94,0,0,1-1.54.08,14.75,14.75,0,0,1-2.38-.3c-.47-.09-.93-.2-1.39-.33a8.77,8.77,0,0,1-1.12-.4,11.64,11.64,0,0,1-1.36-.7,7,7,0,0,1-.79-.49,4.4,4.4,0,0,1-.62-.6,1.49,1.49,0,0,1-.34-.61,1.17,1.17,0,0,1,.12-.73,2,2,0,0,1,.8-.83,4,4,0,0,1,1.16-.4c.46-.11.91-.21,1.37-.28.7-.12,1.42-.19,2.14-.24l1.63-.11c.66,0,1.33,0,2-.06.87,0,1.75,0,2.62,0Z"/><path class="cls-1" d="M216.4,75.46c-.12-.79-.23-1.58-.35-2.37,0,0,.4-.24.73-.39a3.94,3.94,0,0,1,1.06-.33L219,72.1c.42-.09.84-.15,1.26-.2.64-.09,1.3-.15,1.95-.18.89,0,1.77-.06,2.65-.07s1.76,0,2.64.07c.66,0,1.31.09,2,.18.42,0,.83.11,1.26.2l1.16.27a4,4,0,0,1,1.07.33c.33.15.73.39.73.39-.12.79-.24,1.58-.35,2.37"/><path class="cls-1" d="M207.84,88.24l-.28-.08-.27-.08c-.17,0-.34-.06-.52-.11l-.44-.11a2.25,2.25,0,0,0-.52-.07,1.78,1.78,0,0,0-.39.07,1,1,0,0,0-.32.14.8.8,0,0,0-.19.13l2.45.8"/><path class="cls-1" d="M216.06,73.24c-.4.05-.81.09-1.21.15s-.86.12-1.28.21a9.63,9.63,0,0,0-1.35.36,3.89,3.89,0,0,0-1.4.83,3,3,0,0,0-.6.9,4.48,4.48,0,0,0-.2.69,3,3,0,0,0-.06.67,3.6,3.6,0,0,0,.12.8,6,6,0,0,0,.21.69,4.31,4.31,0,0,0,.61,1.14,3.25,3.25,0,0,0,.64.59,13.33,13.33,0,0,0,1.25.75"/><path class="cls-1" d="M207.06,89.66l-.25-.1-.33-.14c-.19-.09-.39-.15-.58-.23a2.06,2.06,0,0,1-.41-.23,1.67,1.67,0,0,1-.33-.32.92.92,0,0,1-.18-.3,1.87,1.87,0,0,1-.07-.22"/><path class="cls-1" d="M209.51,88.75l1.46.39,1.76.46"/><path class="cls-1" d="M209.68,91.35l.2.21a5.65,5.65,0,0,1,.79,1.14l.49.86"/><path class="cls-1" d="M209.58,89.31a1.31,1.31,0,0,1,.41.06,1.38,1.38,0,0,1,.25.17c.16.12.35.22.51.34l.32.28c.11.1.22.18.34.27s.23.17.34.27L212,91"/><line class="cls-1" x1="222.11" y1="84.9" x2="221.76" y2="82.44"/><path class="cls-1" d="M231.41,82.69l-.12.09a2,2,0,0,0-.49.56,3.43,3.43,0,0,0-.32.73"/><line class="cls-1" x1="227.63" y1="84.9" x2="227.98" y2="82.44"/><path class="cls-1" d="M233.67,85.56a2.57,2.57,0,0,0,.29-.44,2,2,0,0,0,.23-.7,1.86,1.86,0,0,0-.29-1.19,1.81,1.81,0,0,0-.62-.58,1.72,1.72,0,0,0-.4-.17"/><path class="cls-1" d="M233.68,73.24c.4.05.81.09,1.21.15s.85.12,1.27.21a9,9,0,0,1,1.35.36,3.93,3.93,0,0,1,1.41.83,3,3,0,0,1,.59.9,3.63,3.63,0,0,1,.21.69,3.79,3.79,0,0,1,.06.67,3.6,3.6,0,0,1-.12.8,6.12,6.12,0,0,1-.22.69,4,4,0,0,1-.6,1.14,3.31,3.31,0,0,1-.65.59,11.17,11.17,0,0,1-1.25.75"/><path class="cls-1" d="M233.52,85.45a3.06,3.06,0,0,0,.21-.29,2.31,2.31,0,0,0,.25-.61,1.73,1.73,0,0,0-.1-1,1.53,1.53,0,0,0-.44-.59,1.63,1.63,0,0,0-.65-.34,1.58,1.58,0,0,0-.61,0,1.72,1.72,0,0,0-.58.19,1.44,1.44,0,0,0-.43.34,2,2,0,0,0-.31.48,3.85,3.85,0,0,0-.19.47"/><path class="cls-1" d="M233.14,85.19l.06,0a.8.8,0,0,0,.23-.22.86.86,0,0,0,.14-.29,1.32,1.32,0,0,0,0-.44,1.41,1.41,0,0,0-.14-.44,1.54,1.54,0,0,0-.21-.29,1.06,1.06,0,0,0-.29-.22,1.87,1.87,0,0,0-.32-.15l-.24,0a1.15,1.15,0,0,0-.45,0,1.59,1.59,0,0,0-.29.15.8.8,0,0,0-.17.15.78.78,0,0,0-.17.26,1,1,0,0,0-.07.55v0"/><path class="cls-1" d="M233.25,85.27l.1-.07a1.07,1.07,0,0,0,.28-.44,1.31,1.31,0,0,0,0-.68,1.36,1.36,0,0,0-.28-.53,1.28,1.28,0,0,0-.39-.34,1.17,1.17,0,0,0-.36-.16,1.2,1.2,0,0,0-.5,0,1.4,1.4,0,0,0-.4.11,1.38,1.38,0,0,0-.28.19l-.14.15a1.18,1.18,0,0,0-.2.49,2,2,0,0,0,0,.25"/><path class="cls-1" d="M240.16,89.31a1.31,1.31,0,0,0-.41.06,1.38,1.38,0,0,0-.25.17c-.17.12-.35.22-.51.34l-.32.28-.07.06"/><path class="cls-1" d="M238.29,90.46l-.26.2"/><path class="cls-1" d="M239.78,91.63a6.41,6.41,0,0,0-.71,1.07c-.17.28-.33.57-.49.86"/><path class="cls-1" d="M240.23,88.75l-1.46.39L237,89.6"/><line class="cls-1" x1="238.27" y1="91.09" x2="237.75" y2="91.09"/><line class="cls-1" x1="238.27" y1="90.66" x2="237.56" y2="90.66"/><path class="cls-1" d="M242.68,89.66l.24-.1.34-.14c.19-.09.39-.15.58-.23a2.38,2.38,0,0,0,.41-.23,2,2,0,0,0,.33-.32,1.14,1.14,0,0,0,.18-.3,1.87,1.87,0,0,0,.07-.22"/><path class="cls-1" d="M215.12,109.4l-.36.48c-.09.12-.17.23-.27.34l-.24.27c-.14.16-.26.33-.4.48a2.05,2.05,0,0,1-.34.32,1.62,1.62,0,0,1-.41.22,1.3,1.3,0,0,1-.34.08h-.23"/><path class="cls-1" d="M207,104.18a1.24,1.24,0,0,0,.21.19.68.68,0,0,0,.2.07,1.52,1.52,0,0,0,.42.06,2.09,2.09,0,0,0,.69-.19l1-.41c.44-.17.89-.31,1.34-.45"/><path class="cls-1" d="M224,112.2c0,.31-.18.37-.45.37s-.45-.06-.45-.37"/><path class="cls-1" d="M225.78,112.2c0,.31.17.37.45.37s.45-.06.45-.37"/><path class="cls-1" d="M242.76,104.18a1.24,1.24,0,0,1-.21.19.68.68,0,0,1-.2.07,1.59,1.59,0,0,1-.43.06,2.23,2.23,0,0,1-.69-.19l-1-.41c-.43-.17-.88-.31-1.33-.45"/><path class="cls-1" d="M234.62,109.4l.36.48c.09.12.17.23.27.34l.24.27c.14.16.26.33.4.48a1.72,1.72,0,0,0,.34.32,1.56,1.56,0,0,0,.4.22,1.47,1.47,0,0,0,.35.08h.23"/><line class="cls-1" x1="226.68" y1="125.55" x2="226.68" y2="109.95"/><line class="cls-1" x1="225.78" y1="125.52" x2="225.78" y2="110.27"/><line class="cls-1" x1="223.96" y1="125.52" x2="223.96" y2="110.27"/><line class="cls-1" x1="223.06" y1="125.55" x2="223.06" y2="109.95"/><line class="cls-1" x1="232.94" y1="127.72" x2="216.8" y2="127.72"/><line class="cls-1" x1="231.03" y1="126.81" x2="218.71" y2="126.81"/><path class="cls-1" d="M240.56,87.83l.07-.06a.28.28,0,0,1,.13,0,1,1,0,0,1,.49.12,2.71,2.71,0,0,1,.45.23,2.1,2.1,0,0,1,.46.48,3.13,3.13,0,0,1,.34.62,4.35,4.35,0,0,1,.25.63c.13.37.22.75.33,1.13s.21.75.31,1.13.2.77.29,1.16.18.78.26,1.17.15.79.23,1.19.15.79.23,1.19.14.8.2,1.2.13.8.17,1.2.09.8.13,1.2a11.69,11.69,0,0,1,.12,1.19,5.66,5.66,0,0,1-.06.82,2.92,2.92,0,0,1-.15.65,1.94,1.94,0,0,1-.41.6,3,3,0,0,1-.67.44,1.61,1.61,0,0,1-.36.15,1.09,1.09,0,0,1-.26,0,1,1,0,0,1-.25,0,1.35,1.35,0,0,1-.45-.31,3.08,3.08,0,0,1-.39-.42,3.65,3.65,0,0,1-.4-.76c-.07-.18-.15-.36-.21-.54a9.4,9.4,0,0,1-.26-1.17l-.24-1.19c-.07-.4-.13-.79-.18-1.19s-.1-.81-.15-1.21-.08-.81-.13-1.21L240.33,95c-.05-.4-.09-.79-.12-1.19s-.06-.79-.09-1.19a18.64,18.64,0,0,1-.05-2.36c0-.25,0-.49.06-.74s0-.49.08-.73a4.84,4.84,0,0,1,.14-.51,2,2,0,0,1,.1-.26A2.12,2.12,0,0,1,240.56,87.83Z"/><path class="cls-1" d="M241.51,102.44l-.12-.06a3.55,3.55,0,0,1-.58-.46l-.5-.41c-.37-.32-.73-.66-1.09-1"/><path class="cls-1" d="M209.17,87.83l-.06-.06a.31.31,0,0,0-.13,0,1,1,0,0,0-.5.12,3,3,0,0,0-.44.23,2,2,0,0,0-.47.48,3.69,3.69,0,0,0-.33.62,4.35,4.35,0,0,0-.25.63c-.13.37-.23.75-.33,1.13s-.21.75-.32,1.13-.19.77-.28,1.16-.18.78-.26,1.17-.16.79-.23,1.19-.16.79-.23,1.19-.14.8-.2,1.2-.13.8-.18,1.2-.08.8-.13,1.2-.1.79-.11,1.19a5.66,5.66,0,0,0,.06.82,2.92,2.92,0,0,0,.15.65,1.65,1.65,0,0,0,.41.6,2.77,2.77,0,0,0,.67.44,1.54,1.54,0,0,0,.35.15,1.24,1.24,0,0,0,.27,0,.93.93,0,0,0,.24,0,1.38,1.38,0,0,0,.46-.31,3.08,3.08,0,0,0,.39-.42,3.21,3.21,0,0,0,.39-.76q.12-.27.21-.54a9.44,9.44,0,0,0,.27-1.17c.07-.4.16-.79.23-1.19s.14-.79.19-1.19.1-.81.14-1.21.09-.81.13-1.21.09-.81.13-1.21.09-.79.12-1.19.06-.79.09-1.19a18.64,18.64,0,0,0,0-2.36l-.06-.74c0-.24,0-.49-.08-.73s-.09-.34-.14-.51a2,2,0,0,0-.1-.26A2.25,2.25,0,0,0,209.17,87.83Z"/><path class="cls-1" d="M224.87,86.15a4.67,4.67,0,0,1-2.23-.75,3.91,3.91,0,0,0-4.44-1.06,9.53,9.53,0,0,0-4.09,3.17,15.7,15.7,0,0,0-3.19,7.13,25.12,25.12,0,0,0,.48,11.53,4.46,4.46,0,0,0,3.45,3.23,18.77,18.77,0,0,0,5.18.34,6,6,0,0,1,3.63.37,3.11,3.11,0,0,0,1.21.24,3.15,3.15,0,0,0,1.21-.24,6,6,0,0,1,3.63-.37,18.77,18.77,0,0,0,5.18-.34,4.46,4.46,0,0,0,3.45-3.23,25,25,0,0,0,.47-11.53,15.58,15.58,0,0,0-3.18-7.13,9.53,9.53,0,0,0-4.09-3.17,3.89,3.89,0,0,0-4.44,1.06A4.71,4.71,0,0,1,224.87,86.15Z"/><path class="cls-1" d="M208.23,102.44l.11-.06a3.23,3.23,0,0,0,.59-.46l.49-.41c.38-.32.74-.66,1.1-1"/><line class="cls-1" x1="151.66" y1="138.51" x2="194.09" y2="138.51"/><line class="cls-1" x1="151.66" y1="135.48" x2="194.09" y2="135.48"/><rect class="cls-1" x="151.66" y="129.28" width="42.43" height="13.46"/><line class="cls-1" x1="204.09" y1="146.98" x2="246.52" y2="146.98"/><line class="cls-1" x1="204.09" y1="150" x2="246.52" y2="150"/><rect class="cls-1" x="204.09" y="142.74" width="42.43" height="13.46"/><rect class="cls-1" x="198.64" y="138.51" width="1.21" height="4.24"/><rect class="cls-1" x="147.83" y="138.51" width="1.21" height="4.24"/><rect class="cls-1" x="143.59" y="146.98" width="60.5" height="3.02"/><rect class="cls-1" x="147.83" y="142.74" width="1.21" height="4.23"/><rect class="cls-1" x="198.64" y="142.74" width="1.21" height="4.23"/><rect class="cls-1" x="194.09" y="135.48" width="60.5" height="3.02"/><rect class="cls-1" x="307.48" y="135.48" width="60.5" height="3.02"/><rect class="cls-1" x="312.03" y="142.74" width="1.21" height="4.23"/><rect class="cls-1" x="261.21" y="142.74" width="1.21" height="4.23"/><rect class="cls-1" x="256.98" y="146.98" width="60.5" height="3.02"/><rect class="cls-1" x="261.21" y="138.51" width="1.21" height="4.24"/><rect class="cls-1" x="312.03" y="138.51" width="1.21" height="4.24"/><rect class="cls-1" x="317.47" y="142.74" width="42.43" height="13.46"/><line class="cls-1" x1="317.47" y1="150" x2="359.91" y2="150"/><line class="cls-1" x1="317.47" y1="146.98" x2="359.91" y2="146.98"/><rect class="cls-1" x="265.05" y="129.28" width="42.43" height="13.46"/><line class="cls-1" x1="265.05" y1="135.48" x2="307.48" y2="135.48"/><line class="cls-1" x1="265.05" y1="138.51" x2="307.48" y2="138.51"/><path class="cls-1" d="M321.62,102.44l.11-.06a3.23,3.23,0,0,0,.59-.46l.49-.41c.38-.32.73-.66,1.09-1"/><path class="cls-1" d="M338.25,86.15A4.71,4.71,0,0,1,336,85.4a3.9,3.9,0,0,0-4.44-1.06,9.65,9.65,0,0,0-4.09,3.17,15.79,15.79,0,0,0-3.18,7.13,25.26,25.26,0,0,0,.47,11.53,4.46,4.46,0,0,0,3.46,3.23,18.74,18.74,0,0,0,5.18.34,6,6,0,0,1,3.63.37,3.11,3.11,0,0,0,1.21.24,3.18,3.18,0,0,0,1.21-.24,5.94,5.94,0,0,1,3.63-.37,18.7,18.7,0,0,0,5.17-.34,4.46,4.46,0,0,0,3.46-3.23,25.26,25.26,0,0,0,.47-11.53A15.69,15.69,0,0,0,349,87.51a9.65,9.65,0,0,0-4.09-3.17,3.88,3.88,0,0,0-4.44,1.06A4.71,4.71,0,0,1,338.25,86.15Z"/><path class="cls-1" d="M322.56,87.83l-.07-.06a.25.25,0,0,0-.13,0,1,1,0,0,0-.49.12,3.17,3.17,0,0,0-.45.23,2.1,2.1,0,0,0-.46.48,4.65,4.65,0,0,0-.34.62,5.9,5.9,0,0,0-.25.63c-.13.37-.22.75-.32,1.13s-.22.75-.32,1.13-.2.77-.29,1.16-.17.78-.25,1.17-.16.79-.24,1.19-.15.79-.23,1.19-.14.8-.2,1.2-.12.8-.17,1.2-.08.8-.13,1.2a9.4,9.4,0,0,0-.11,1.19,4.52,4.52,0,0,0,.05.82,2.47,2.47,0,0,0,.16.65,1.75,1.75,0,0,0,.4.6,3,3,0,0,0,.68.44,1.54,1.54,0,0,0,.35.15,1.24,1.24,0,0,0,.27,0,1,1,0,0,0,.24,0,1.35,1.35,0,0,0,.45-.31,3.08,3.08,0,0,0,.39-.42,3.23,3.23,0,0,0,.4-.76c.07-.18.15-.36.21-.54A9.4,9.4,0,0,0,322,101l.24-1.19c.07-.4.13-.79.19-1.19s.1-.81.14-1.21.09-.81.13-1.21.08-.81.13-1.21l.12-1.19c0-.4.06-.79.08-1.19a18.64,18.64,0,0,0,.05-2.36c0-.25,0-.49-.06-.74a6,6,0,0,0-.08-.73,3.23,3.23,0,0,0-.14-.51.82.82,0,0,0-.1-.26A2.12,2.12,0,0,0,322.56,87.83Z"/><path class="cls-1" d="M354.89,102.44l-.11-.06a3.23,3.23,0,0,1-.59-.46l-.49-.41c-.38-.32-.73-.66-1.1-1"/><path class="cls-1" d="M354,87.83l.07-.06a.24.24,0,0,1,.12,0,1,1,0,0,1,.5.12,3.17,3.17,0,0,1,.45.23,2.1,2.1,0,0,1,.46.48,4.65,4.65,0,0,1,.34.62,5.9,5.9,0,0,1,.25.63c.12.37.22.75.32,1.13s.22.75.32,1.13.2.77.29,1.16.17.78.25,1.17l.24,1.19c.07.4.15.79.22,1.19s.14.8.21,1.2.12.8.17,1.2.08.8.13,1.2a9.4,9.4,0,0,1,.11,1.19,5.64,5.64,0,0,1,0,.82,2.47,2.47,0,0,1-.16.65,1.65,1.65,0,0,1-.41.6,2.77,2.77,0,0,1-.67.44,1.54,1.54,0,0,1-.35.15,1.24,1.24,0,0,1-.27,0,1,1,0,0,1-.24,0,1.25,1.25,0,0,1-.45-.31,3.16,3.16,0,0,1-.4-.42,3.62,3.62,0,0,1-.39-.76c-.07-.18-.15-.36-.21-.54a9.44,9.44,0,0,1-.27-1.17c-.07-.4-.16-.79-.23-1.19s-.13-.79-.19-1.19-.1-.81-.14-1.21-.09-.81-.13-1.21-.08-.81-.13-1.21-.09-.79-.12-1.19-.06-.79-.08-1.19a20.72,20.72,0,0,1-.06-2.36c0-.25,0-.49.07-.74a6,6,0,0,1,.08-.73,3.23,3.23,0,0,1,.14-.51,1.14,1.14,0,0,1,.09-.26Z"/><line class="cls-1" x1="344.42" y1="126.81" x2="332.09" y2="126.81"/><line class="cls-1" x1="346.32" y1="127.72" x2="330.19" y2="127.72"/><line class="cls-1" x1="336.44" y1="125.55" x2="336.44" y2="109.95"/><line class="cls-1" x1="337.35" y1="125.52" x2="337.35" y2="110.27"/><line class="cls-1" x1="339.16" y1="125.52" x2="339.16" y2="110.27"/><line class="cls-1" x1="340.07" y1="125.55" x2="340.07" y2="109.95"/><path class="cls-1" d="M348,109.4l.36.48c.08.12.17.23.26.34l.25.27.39.48a2.54,2.54,0,0,0,.34.32,1.81,1.81,0,0,0,.41.22,1.4,1.4,0,0,0,.34.08h.23"/><path class="cls-1" d="M356.14,104.18a1.19,1.19,0,0,1-.2.19.86.86,0,0,1-.21.07,1.52,1.52,0,0,1-.42.06,2.09,2.09,0,0,1-.69-.19l-1-.41c-.44-.17-.89-.31-1.33-.45"/><path class="cls-1" d="M339.16,112.2c0,.31.18.37.45.37s.46-.06.46-.37"/><path class="cls-1" d="M337.35,112.2c0,.31-.18.37-.45.37s-.46-.06-.46-.37"/><path class="cls-1" d="M320.37,104.18a1.19,1.19,0,0,0,.2.19.86.86,0,0,0,.21.07,1.52,1.52,0,0,0,.42.06,2.15,2.15,0,0,0,.69-.19l1-.41c.43-.17.88-.31,1.33-.45"/><path class="cls-1" d="M328.5,109.4l-.36.48c-.08.12-.17.23-.26.34l-.25.27c-.14.16-.26.33-.39.48a2.54,2.54,0,0,1-.34.32,1.81,1.81,0,0,1-.41.22,1.4,1.4,0,0,1-.34.08h-.23"/><path class="cls-1" d="M356.07,89.66l.24-.1.33-.14c.19-.09.39-.15.58-.23a2.06,2.06,0,0,0,.41-.23,1.72,1.72,0,0,0,.34-.32,1.11,1.11,0,0,0,.17-.3,1.87,1.87,0,0,0,.07-.22"/><line class="cls-1" x1="351.65" y1="90.66" x2="350.94" y2="90.66"/><line class="cls-1" x1="351.66" y1="91.09" x2="351.13" y2="91.09"/><path class="cls-1" d="M353.62,88.75l-1.47.39-1.75.46"/><path class="cls-1" d="M353.17,91.63a7.15,7.15,0,0,0-.72,1.07l-.48.86"/><path class="cls-1" d="M351.68,90.46l-.26.2"/><path class="cls-1" d="M353.54,89.31a1.4,1.4,0,0,0-.41.06,1.31,1.31,0,0,0-.24.17c-.17.12-.35.22-.51.34l-.33.28-.07.06"/><path class="cls-1" d="M346.64,85.27l.09-.07a1.07,1.07,0,0,0,.28-.44,1.13,1.13,0,0,0,0-.68,1.34,1.34,0,0,0-.27-.53,1.56,1.56,0,0,0-.39-.34,1.42,1.42,0,0,0-.36-.16,1.2,1.2,0,0,0-.5,0,1.32,1.32,0,0,0-.4.11,1.45,1.45,0,0,0-.29.19l-.13.15a1,1,0,0,0-.2.49.69.69,0,0,0,0,.25"/><path class="cls-1" d="M346.52,85.19l.06,0a.84.84,0,0,0,.24-.22,1.08,1.08,0,0,0,.13-.29,1,1,0,0,0,0-.44,1.19,1.19,0,0,0-.14-.44,1,1,0,0,0-.21-.29,1.18,1.18,0,0,0-.28-.22,2,2,0,0,0-.33-.15l-.23,0a1.13,1.13,0,0,0-.45,0,1.4,1.4,0,0,0-.3.15.75.75,0,0,0-.16.15.81.81,0,0,0-.18.26,1.14,1.14,0,0,0-.07.32.89.89,0,0,0,0,.23v0"/><path class="cls-1" d="M346.91,85.45a3,3,0,0,0,.2-.29,2,2,0,0,0,.26-.61,1.6,1.6,0,0,0,0-.49,1.63,1.63,0,0,0-.13-.48,1.53,1.53,0,0,0-.44-.59,1.56,1.56,0,0,0-.65-.34,1.51,1.51,0,0,0-.6,0,1.7,1.7,0,0,0-.59.19,1.74,1.74,0,0,0-.43.34,2,2,0,0,0-.3.48,2.72,2.72,0,0,0-.19.47"/><path class="cls-1" d="M347.06,73.24l1.22.15c.42,0,.85.12,1.27.21a9,9,0,0,1,1.35.36,3.89,3.89,0,0,1,1.4.83,2.84,2.84,0,0,1,.6.9,3.59,3.59,0,0,1,.2.69,2.54,2.54,0,0,1,.06.67,3.59,3.59,0,0,1-.11.8c-.06.23-.14.46-.22.69a3.8,3.8,0,0,1-.61,1.14,3.25,3.25,0,0,1-.64.59,12.16,12.16,0,0,1-1.25.75"/><path class="cls-1" d="M347.06,85.56a3.35,3.35,0,0,0,.29-.44,2,2,0,0,0,.22-.7,1.77,1.77,0,0,0-.91-1.77,1.55,1.55,0,0,0-.4-.17"/><line class="cls-1" x1="341.01" y1="84.9" x2="341.37" y2="82.44"/><path class="cls-1" d="M344.8,82.69l-.13.09a2.16,2.16,0,0,0-.48.56,3,3,0,0,0-.32.73"/><line class="cls-1" x1="335.5" y1="84.9" x2="335.14" y2="82.44"/><path class="cls-1" d="M323,89.31a1.4,1.4,0,0,1,.41.06,2.79,2.79,0,0,1,.25.17c.16.12.34.22.5.34l.33.28c.11.1.22.18.34.27s.23.17.33.27a3.9,3.9,0,0,1,.29.28"/><path class="cls-1" d="M323.06,91.35l.21.21a6.09,6.09,0,0,1,.79,1.14l.48.86"/><path class="cls-1" d="M322.89,88.75l1.47.39,1.75.46"/><path class="cls-1" d="M320.44,89.66l-.24-.1-.33-.14c-.2-.09-.39-.15-.59-.23a2,2,0,0,1-.4-.23,1.72,1.72,0,0,1-.34-.32,1.49,1.49,0,0,1-.18-.3l-.06-.22"/><path class="cls-1" d="M329.45,73.24l-1.22.15c-.42,0-.85.12-1.27.21a9,9,0,0,0-1.35.36,3.8,3.8,0,0,0-1.4.83,2.84,2.84,0,0,0-.6.9,3.59,3.59,0,0,0-.2.69,2.54,2.54,0,0,0-.06.67,3.59,3.59,0,0,0,.11.8c.06.23.14.46.22.69a3.8,3.8,0,0,0,.61,1.14,3,3,0,0,0,.64.59,12.16,12.16,0,0,0,1.25.75"/><path class="cls-1" d="M321.23,88.24l-.29-.08-.26-.08c-.17,0-.35-.06-.52-.11l-.44-.11a2.32,2.32,0,0,0-.52-.07,1.87,1.87,0,0,0-.4.07,1,1,0,0,0-.32.14,1.07,1.07,0,0,0-.19.13l2.45.8"/><path class="cls-1" d="M329.79,75.46l-.36-2.37s.41-.24.73-.39a4,4,0,0,1,1.07-.33l1.16-.27c.43-.09.84-.15,1.26-.2.65-.09,1.31-.15,2-.18.88,0,1.76-.06,2.64-.07s1.77,0,2.65.07c.65,0,1.31.09,2,.18.42,0,.84.11,1.27.2l1.16.27a4,4,0,0,1,1.07.33c.32.15.72.39.73.39l-.36,2.37"/><path class="cls-1" d="M338.25,76.6l2,0c.87,0,1.75,0,2.62,0,.67,0,1.33,0,2,.06l1.64.11c.71,0,1.43.12,2.14.24.46.07.91.17,1.36.28a3.89,3.89,0,0,1,1.16.4,2,2,0,0,1,.8.83,1.25,1.25,0,0,1,.13.73,1.51,1.51,0,0,1-.35.61,4.4,4.4,0,0,1-.62.6,6.85,6.85,0,0,1-.78.49,12.49,12.49,0,0,1-1.36.7,8.91,8.91,0,0,1-1.13.4c-.46.13-.92.24-1.39.33a14.49,14.49,0,0,1-2.37.3,10,10,0,0,1-1.55-.08c-.39-.06-.78-.14-1.16-.23-.53-.12-1.05-.24-1.58-.31a9.13,9.13,0,0,0-3.07,0c-.53.07-1.05.19-1.58.31-.38.09-.77.17-1.16.23a10,10,0,0,1-1.55.08,14.63,14.63,0,0,1-2.37-.3c-.47-.09-.93-.2-1.39-.33a8.91,8.91,0,0,1-1.13-.4,12.49,12.49,0,0,1-1.36-.7,6.85,6.85,0,0,1-.78-.49,4.4,4.4,0,0,1-.62-.6,1.51,1.51,0,0,1-.35-.61,1.25,1.25,0,0,1,.13-.73,2,2,0,0,1,.8-.83,3.93,3.93,0,0,1,1.15-.4c.46-.11.91-.21,1.37-.28.71-.12,1.43-.19,2.14-.24l1.64-.11c.66,0,1.32,0,2-.06.87,0,1.75,0,2.62,0Z"/><path class="cls-1" d="M338.25,74l1.27,0c.64,0,1.28,0,1.92.06.42,0,.84.06,1.26.11s.81.11,1.22.2a16.47,16.47,0,0,1,1.68.45,4.36,4.36,0,0,1,.91.4c.11.06.22.14.21.23a.22.22,0,0,1-.08.13.54.54,0,0,1-.23.11l-.53.14c-.23,0-.47.07-.71.1-.47.06-.94.1-1.42.14s-.92.05-1.39.06l-1.39,0h-5.43l-1.39,0c-.47,0-.93,0-1.39-.06s-.95-.08-1.42-.14l-.71-.1-.53-.14a.54.54,0,0,1-.23-.11.22.22,0,0,1-.08-.13c0-.09.11-.16.21-.23a4.36,4.36,0,0,1,.91-.4,16.47,16.47,0,0,1,1.68-.45c.41-.09.81-.15,1.22-.2s.84-.08,1.27-.11c.63,0,1.27-.06,1.91-.06Z"/><path class="cls-1" d="M355.28,88.24l.29-.08.26-.08c.17,0,.35-.06.52-.11l.44-.11a2.32,2.32,0,0,1,.52-.07,1.87,1.87,0,0,1,.4.07A1,1,0,0,1,358,88a1.62,1.62,0,0,1,.19.13l-2.45.8"/><path class="cls-1" d="M327,108.78l-.21.3a1.5,1.5,0,0,0-.15.23c-.1.15-.18.31-.27.46l-.25.38a2.09,2.09,0,0,0-.22.48,2.44,2.44,0,0,0-.06.39,2,2,0,0,0,0,.35,1.42,1.42,0,0,0,.07.22l1.66-2.27"/><path class="cls-1" d="M349.53,108.78l.21.3c.05.08.11.15.15.23s.18.31.27.46l.25.38a2.09,2.09,0,0,1,.22.48,2.44,2.44,0,0,1,.06.39,2,2,0,0,1,0,.35c0,.08-.05.15-.07.22l-1.78-2.44"/><path class="cls-1" d="M338.25,125.51c1.86,0,3.73.06,5.57.27l.48.06a10.06,10.06,0,0,1,1.52.33l.48.18a2.22,2.22,0,0,1,.42.25,1.13,1.13,0,0,1,.46.6,1.46,1.46,0,0,1,0,.36,1,1,0,0,1-.07.36,1,1,0,0,1-.42.48,2.22,2.22,0,0,1-.42.25,4,4,0,0,1-.49.17,11,11,0,0,1-1.51.33l-.48.06a62.06,62.06,0,0,1-11.13,0l-.48-.06a11,11,0,0,1-1.51-.33,4,4,0,0,1-.49-.17,2.67,2.67,0,0,1-.43-.25,1.06,1.06,0,0,1-.41-.48,1,1,0,0,1-.07-.36,1.46,1.46,0,0,1,0-.36,1.13,1.13,0,0,1,.46-.6,2.22,2.22,0,0,1,.42-.25l.48-.18a9.8,9.8,0,0,1,1.52-.33l.48-.06C334.53,125.57,336.39,125.54,338.25,125.51Z"/><path class="cls-1" d="M353.45,91.62a4.55,4.55,0,0,1-1.72-.18,1.93,1.93,0,0,1,0-1.14,4.51,4.51,0,0,1,1.75-.21"/><line class="cls-1" x1="344.3" y1="128.65" x2="332.2" y2="128.65"/><path class="cls-1" d="M380.87,182.39l.12.06a4.26,4.26,0,0,1,.59.46l.49.41c.37.32.73.66,1.09,1"/><path class="cls-1" d="M397.51,198.68a4.71,4.71,0,0,0-2.23.75,3.9,3.9,0,0,1-4.44,1.06,9.63,9.63,0,0,1-4.09-3.16,15.78,15.78,0,0,1-3.18-7.13,25.29,25.29,0,0,1,.47-11.54,4.46,4.46,0,0,1,3.45-3.23,19.16,19.16,0,0,1,5.18-.34,6,6,0,0,0,3.63-.37,3.15,3.15,0,0,1,1.21-.24,3.11,3.11,0,0,1,1.21.24,6,6,0,0,0,3.63.37,19.14,19.14,0,0,1,5.18.34,4.44,4.44,0,0,1,3.45,3.23,25.16,25.16,0,0,1,.48,11.54,15.8,15.8,0,0,1-3.19,7.13,9.51,9.51,0,0,1-4.09,3.16,3.88,3.88,0,0,1-4.44-1.06A4.67,4.67,0,0,0,397.51,198.68Z"/><path class="cls-1" d="M381.82,197l-.07.06a.28.28,0,0,1-.13,0,1,1,0,0,1-.49-.12,2.71,2.71,0,0,1-.45-.23,1.91,1.91,0,0,1-.46-.48,2.87,2.87,0,0,1-.34-.62,4.35,4.35,0,0,1-.25-.63c-.13-.37-.22-.75-.33-1.13s-.21-.75-.31-1.13-.2-.77-.29-1.16-.18-.78-.26-1.17-.15-.79-.23-1.19-.15-.79-.23-1.19-.14-.8-.2-1.2-.12-.8-.17-1.2-.09-.8-.13-1.2a11.69,11.69,0,0,1-.12-1.19,5.66,5.66,0,0,1,.06-.82,2.92,2.92,0,0,1,.15-.65,2.06,2.06,0,0,1,.41-.6,3,3,0,0,1,.67-.44,2.28,2.28,0,0,1,.36-.15,1.09,1.09,0,0,1,.26,0,1,1,0,0,1,.25,0,1.35,1.35,0,0,1,.45.31,3.08,3.08,0,0,1,.39.42,3.65,3.65,0,0,1,.4.76c.07.18.15.36.21.54a9.17,9.17,0,0,1,.26,1.18l.24,1.18c.07.4.13.8.18,1.19s.1.81.15,1.21.08.81.13,1.21l.12,1.21c.05.4.09.79.12,1.19s.06.79.09,1.19a18.64,18.64,0,0,1,.05,2.36c0,.25,0,.49-.06.74s0,.49-.08.73a4.84,4.84,0,0,1-.14.51c0,.09-.06.18-.1.27Z"/><path class="cls-1" d="M414.15,182.39l-.11.06a3.74,3.74,0,0,0-.59.46l-.49.41c-.38.32-.74.66-1.1,1"/><path class="cls-1" d="M413.21,197l.06.06a.31.31,0,0,0,.13,0,1,1,0,0,0,.5-.12,3.81,3.81,0,0,0,.45-.23,1.91,1.91,0,0,0,.46-.48,4.1,4.1,0,0,0,.34-.62c.09-.2.17-.41.25-.63.12-.37.22-.75.32-1.13s.22-.75.32-1.13.19-.77.28-1.16.18-.78.26-1.17l.24-1.19c.07-.4.15-.79.22-1.19l.21-1.2c.06-.4.12-.8.17-1.2s.08-.8.13-1.2a9.4,9.4,0,0,0,.11-1.19,4.53,4.53,0,0,0-.06-.82,2.92,2.92,0,0,0-.15-.65,1.74,1.74,0,0,0-.41-.6,2.77,2.77,0,0,0-.67-.44,2.17,2.17,0,0,0-.35-.15,1.24,1.24,0,0,0-.27,0,.93.93,0,0,0-.24,0,1.38,1.38,0,0,0-.46.31,3.08,3.08,0,0,0-.39.42,3.21,3.21,0,0,0-.39.76q-.12.27-.21.54a9.19,9.19,0,0,0-.27,1.18c-.07.39-.16.78-.23,1.18s-.14.8-.19,1.19-.1.81-.14,1.21-.09.81-.13,1.21-.09.81-.13,1.21-.09.79-.12,1.19-.06.79-.08,1.19a18.65,18.65,0,0,0-.06,2.36l.06.74a6.06,6.06,0,0,0,.09.73,4.77,4.77,0,0,0,.13.51c0,.09.06.18.1.27Z"/><line class="cls-1" x1="403.67" y1="158.02" x2="391.35" y2="158.02"/><line class="cls-1" x1="403.56" y1="156.18" x2="391.46" y2="156.18"/><line class="cls-1" x1="405.58" y1="157.11" x2="389.44" y2="157.11"/><line class="cls-1" x1="395.7" y1="159.29" x2="395.7" y2="174.88"/><line class="cls-1" x1="396.6" y1="159.31" x2="396.6" y2="174.56"/><line class="cls-1" x1="398.42" y1="159.31" x2="398.42" y2="174.56"/><line class="cls-1" x1="399.32" y1="159.29" x2="399.32" y2="174.88"/><path class="cls-1" d="M407.26,175.43l.37-.48c.08-.12.17-.23.26-.34l.24-.27c.14-.16.26-.33.4-.48a2.05,2.05,0,0,1,.34-.32,1.62,1.62,0,0,1,.41-.22,1.3,1.3,0,0,1,.34-.08h.23"/><path class="cls-1" d="M415.4,180.65a1,1,0,0,0-.21-.19l-.2-.07a1.52,1.52,0,0,0-.42-.06,2.09,2.09,0,0,0-.69.19l-1,.41c-.44.17-.89.31-1.34.45"/><path class="cls-1" d="M398.42,172.63c0-.31.18-.37.45-.37s.45.06.45.37"/><path class="cls-1" d="M396.6,172.63c0-.31-.18-.37-.45-.37s-.45.06-.45.37"/><path class="cls-1" d="M379.63,180.65a.9.9,0,0,1,.2-.19l.2-.07a1.65,1.65,0,0,1,.43-.06,2.23,2.23,0,0,1,.69.19l1,.41c.43.17.88.31,1.33.45"/><path class="cls-1" d="M387.76,175.43l-.36-.48c-.09-.12-.17-.23-.27-.34s-.16-.18-.24-.27-.26-.33-.4-.48a1.72,1.72,0,0,0-.34-.32,1.56,1.56,0,0,0-.4-.22,1.37,1.37,0,0,0-.35-.08h-.23"/><path class="cls-1" d="M415.32,195.18a1.25,1.25,0,0,1,.25.09c.11,0,.22.1.33.15l.58.22a2.71,2.71,0,0,1,.41.23,1.67,1.67,0,0,1,.33.32.92.92,0,0,1,.18.3,1.87,1.87,0,0,1,.07.22"/><line class="cls-1" x1="410.91" y1="194.17" x2="410.2" y2="194.17"/><line class="cls-1" x1="410.91" y1="193.74" x2="410.39" y2="193.74"/><path class="cls-1" d="M412.87,196.08l-1.46-.39-1.75-.46"/><path class="cls-1" d="M412.43,193.2a6.07,6.07,0,0,1-.72-1.07l-.49-.86"/><path class="cls-1" d="M410.94,194.37l-.26-.2"/><path class="cls-1" d="M412.8,195.52a1.35,1.35,0,0,1-.41-.06,1.38,1.38,0,0,1-.25-.17c-.16-.12-.34-.22-.5-.34s-.22-.19-.33-.28l-.07-.06"/><path class="cls-1" d="M405.9,199.56l.09.08a1,1,0,0,1,.28.43,1.31,1.31,0,0,1,0,.68,1.4,1.4,0,0,1-.27.53,1.45,1.45,0,0,1-.4.34,1.35,1.35,0,0,1-.85.21,1.46,1.46,0,0,1-.41-.11,1.07,1.07,0,0,1-.28-.19l-.13-.15a1,1,0,0,1-.2-.48.76.76,0,0,1,0-.26"/><path class="cls-1" d="M405.78,199.64l.06,0a1.26,1.26,0,0,1,.24.22,1.08,1.08,0,0,1,.13.29,1.1,1.1,0,0,1,0,.44,1.41,1.41,0,0,1-.14.44,1,1,0,0,1-.21.29,1.18,1.18,0,0,1-.28.22,2,2,0,0,1-.33.15l-.23,0a1.2,1.2,0,0,1-.46,0,1.59,1.59,0,0,1-.29-.15,1.07,1.07,0,0,1-.16-.14.8.8,0,0,1-.18-.27,1.16,1.16,0,0,1-.08-.32,1.77,1.77,0,0,1,0-.23v0"/><path class="cls-1" d="M406.16,199.38a1.94,1.94,0,0,1,.21.29,1.79,1.79,0,0,1,.25.61,1.6,1.6,0,0,1,0,.49,1.7,1.7,0,0,1-.57,1.08,1.61,1.61,0,0,1-.65.33,1.56,1.56,0,0,1-.61,0,1.72,1.72,0,0,1-.58-.19,1.58,1.58,0,0,1-.43-.34,2.55,2.55,0,0,1-.31-.47c-.07-.15-.13-.32-.19-.48"/><path class="cls-1" d="M406.32,211.59c.4-.05.81-.09,1.21-.15s.86-.12,1.28-.2a11.3,11.3,0,0,0,1.35-.37,3.75,3.75,0,0,0,1.4-.83,3,3,0,0,0,.6-.9,3.22,3.22,0,0,0,.2-.69,3,3,0,0,0,.06-.67,3.1,3.1,0,0,0-.12-.8,6,6,0,0,0-.21-.69,4,4,0,0,0-.61-1.14,3.25,3.25,0,0,0-.64-.59,13.23,13.23,0,0,0-1.25-.74"/><path class="cls-1" d="M406.31,199.27a4.27,4.27,0,0,1,.3.44,2.2,2.2,0,0,1,.22.7,1.8,1.8,0,0,1-.29,1.19,1.85,1.85,0,0,1-.62.59,2,2,0,0,1-.4.16"/><line class="cls-1" x1="400.27" y1="199.94" x2="400.62" y2="202.4"/><path class="cls-1" d="M404.05,202.14l-.12-.09a1.8,1.8,0,0,1-.48-.55,3.25,3.25,0,0,1-.32-.74"/><line class="cls-1" x1="394.76" y1="199.94" x2="394.4" y2="202.4"/><path class="cls-1" d="M382.22,195.52a1.31,1.31,0,0,0,.41-.06,1.38,1.38,0,0,0,.25-.17c.17-.12.35-.22.51-.34l.32-.28.34-.27c.12-.09.23-.17.34-.27a3.83,3.83,0,0,0,.29-.28"/><path class="cls-1" d="M382.32,193.48l.21-.21a6,6,0,0,0,.78-1.14l.49-.86"/><path class="cls-1" d="M382.15,196.08l1.47-.39,1.75-.46"/><path class="cls-1" d="M379.7,195.18a1.17,1.17,0,0,0-.24.09l-.34.15-.58.22a3.3,3.3,0,0,0-.41.23,2,2,0,0,0-.33.32,1.14,1.14,0,0,0-.18.3.9.9,0,0,0-.06.22"/><path class="cls-1" d="M388.71,211.59l-1.22-.15c-.43-.05-.85-.12-1.27-.2a10.35,10.35,0,0,1-1.35-.37,3.79,3.79,0,0,1-1.41-.83,3,3,0,0,1-.59-.9,3.24,3.24,0,0,1-.21-.69,3.79,3.79,0,0,1-.06-.67,3.6,3.6,0,0,1,.12-.8,6.12,6.12,0,0,1,.22-.69,4,4,0,0,1,.6-1.14,3.31,3.31,0,0,1,.65-.59,11.11,11.11,0,0,1,1.25-.74"/><path class="cls-1" d="M380.48,196.59l-.28.09-.26.07-.52.11L379,197a1.75,1.75,0,0,1-.51.07,1.76,1.76,0,0,1-.4-.07,1.27,1.27,0,0,1-.32-.13l-.19-.14,2.45-.8"/><path class="cls-1" d="M389.05,209.37l-.36,2.37s.4.24.73.4a4.32,4.32,0,0,0,1.07.32c.36.08.76.19,1.16.27s.84.15,1.26.2c.65.09,1.3.15,2,.18.88,0,1.76.06,2.64.07s1.76,0,2.65-.07c.65,0,1.31-.09,1.95-.18.42-.05.84-.11,1.26-.2s.81-.19,1.17-.27a4.45,4.45,0,0,0,1.07-.32c.32-.16.72-.4.72-.4-.11-.79-.23-1.58-.35-2.37"/><path class="cls-1" d="M397.51,208.23l2,0,2.62,0c.66,0,1.33,0,2-.06l1.63-.11c.72-.05,1.44-.12,2.14-.24.46-.07.92-.17,1.37-.28a4,4,0,0,0,1.16-.4,1.92,1.92,0,0,0,.79-.83,1.11,1.11,0,0,0,.13-.73,1.49,1.49,0,0,0-.34-.61,4.4,4.4,0,0,0-.62-.6,6.85,6.85,0,0,0-.78-.49,13.47,13.47,0,0,0-1.36-.7,9.5,9.5,0,0,0-1.13-.4c-.46-.13-.93-.24-1.39-.33a16,16,0,0,0-2.38-.3,9.94,9.94,0,0,0-1.54.08c-.39.06-.78.14-1.17.23s-1.05.24-1.58.31a9.07,9.07,0,0,1-3.06,0c-.53-.07-1.06-.19-1.58-.31s-.77-.17-1.17-.23a9.94,9.94,0,0,0-1.54-.08,15.67,15.67,0,0,0-2.37.3c-.47.09-.94.2-1.4.33a8.77,8.77,0,0,0-1.12.4,11.64,11.64,0,0,0-1.36.7,8,8,0,0,0-.79.49,4.4,4.4,0,0,0-.62.6,1.49,1.49,0,0,0-.34.61,1.18,1.18,0,0,0,.13.73,1.89,1.89,0,0,0,.8.83,3.83,3.83,0,0,0,1.15.4c.46.11.91.21,1.37.28.7.12,1.42.19,2.14.24l1.63.11c.66,0,1.33,0,2,.06.88,0,1.75,0,2.63,0Z"/><path class="cls-1" d="M397.51,210.85h1.27c.64,0,1.28,0,1.91-.07.42,0,.85-.06,1.26-.11s.82-.11,1.23-.2a16.28,16.28,0,0,0,1.67-.45,4,4,0,0,0,.92-.4c.1-.06.21-.14.2-.23a.17.17,0,0,0-.07-.13.54.54,0,0,0-.23-.11,5.11,5.11,0,0,0-.53-.13c-.23,0-.48-.08-.72-.11l-1.41-.14c-.46,0-.93,0-1.39-.06l-1.39,0h-5.44l-1.38,0c-.47,0-.93,0-1.4.06l-1.41.14c-.24,0-.48.06-.72.11a5.11,5.11,0,0,0-.53.13.46.46,0,0,0-.22.11.18.18,0,0,0-.08.13c0,.09.1.17.21.23a3.72,3.72,0,0,0,.91.4,15.8,15.8,0,0,0,1.68.45c.41.09.81.15,1.22.2s.84.09,1.26.11c.64,0,1.28.06,1.91.07Z"/><path class="cls-1" d="M414.54,196.59l.29.09.26.07.52.11.44.11a1.81,1.81,0,0,0,.52.07A1.78,1.78,0,0,0,417,197a1,1,0,0,0,.32-.13,1.33,1.33,0,0,0,.19-.14l-2.45-.8"/><path class="cls-1" d="M386.24,176.05l-.22-.3-.15-.23-.26-.46-.25-.38a2.23,2.23,0,0,1-.22-.47,1.39,1.39,0,0,1-.06-.4,1.34,1.34,0,0,1,0-.35c0-.07,0-.14.07-.22.55.76,1.1,1.52,1.66,2.27"/><path class="cls-1" d="M408.79,176.05l.21-.3.15-.23c.09-.15.17-.31.27-.46s.17-.25.24-.38a1.54,1.54,0,0,0,.22-.47,1.87,1.87,0,0,0,.07-.4,2,2,0,0,0,0-.35c0-.07-.05-.14-.07-.22-.6.81-1.19,1.63-1.78,2.44"/><path class="cls-1" d="M397.51,159.32c1.86,0,3.72-.06,5.57-.27l.48-.06a8.65,8.65,0,0,0,1.51-.33,4.09,4.09,0,0,0,.49-.18,2.58,2.58,0,0,0,.42-.25,1.11,1.11,0,0,0,.45-.6,1.46,1.46,0,0,0,0-.36,1.36,1.36,0,0,0-.06-.36,1.08,1.08,0,0,0-.42-.48,2.3,2.3,0,0,0-.43-.25,3.39,3.39,0,0,0-.48-.17,9.65,9.65,0,0,0-1.51-.32,3.93,3.93,0,0,0-.48-.06,59.69,59.69,0,0,0-11.13,0,3.86,3.86,0,0,0-.49.06A9.9,9.9,0,0,0,390,156a3.9,3.9,0,0,0-.48.17,2.67,2.67,0,0,0-.43.25,1.21,1.21,0,0,0-.42.48,1.36,1.36,0,0,0-.06.36,1.46,1.46,0,0,0,0,.36,1.16,1.16,0,0,0,.45.6,2.67,2.67,0,0,0,.43.25,3.94,3.94,0,0,0,.48.18,8.65,8.65,0,0,0,1.51.33l.49.06C393.79,159.26,395.65,159.29,397.51,159.32Z"/><path class="cls-1" d="M412.71,193.21a4.63,4.63,0,0,0-1.73.18,2.1,2.1,0,0,0,0,1.14,4.58,4.58,0,0,0,1.76.21"/><line class="cls-1" x1="457.69" y1="128.65" x2="445.59" y2="128.65"/><path class="cls-1" d="M466.84,91.62a4.61,4.61,0,0,1-1.73-.18,2.1,2.1,0,0,1,0-1.14,4.56,4.56,0,0,1,1.76-.21"/><path class="cls-1" d="M451.64,125.51c1.86,0,3.72.06,5.56.27l.49.06a9.68,9.68,0,0,1,1.51.33c.17.06.33.11.49.18a2.58,2.58,0,0,1,.42.25,1.11,1.11,0,0,1,.45.6,1.46,1.46,0,0,1,0,.36,1.36,1.36,0,0,1-.06.36,1,1,0,0,1-.42.48,2.67,2.67,0,0,1-.43.25,3.9,3.9,0,0,1-.48.17,11.31,11.31,0,0,1-1.51.33l-.48.06a62.17,62.17,0,0,1-11.14,0l-.48-.06a11.31,11.31,0,0,1-1.51-.33,3.9,3.9,0,0,1-.48-.17,2.67,2.67,0,0,1-.43-.25,1.08,1.08,0,0,1-.42-.48,1.36,1.36,0,0,1-.06-.36,1.46,1.46,0,0,1,0-.36,1.11,1.11,0,0,1,.45-.6,2.67,2.67,0,0,1,.43-.25c.15-.07.31-.12.48-.18a9.68,9.68,0,0,1,1.51-.33l.49-.06C447.92,125.57,449.78,125.54,451.64,125.51Z"/><path class="cls-1" d="M462.92,108.78l.21.3.15.23.26.46.25.38a2.09,2.09,0,0,1,.22.48,1.27,1.27,0,0,1,.06.39,1,1,0,0,1,0,.35,1.42,1.42,0,0,1-.07.22c-.59-.81-1.18-1.63-1.78-2.44"/><path class="cls-1" d="M440.36,108.78l-.21.3-.15.23-.26.46-.25.38a2.09,2.09,0,0,0-.22.48,1.27,1.27,0,0,0-.06.39,1,1,0,0,0,0,.35.81.81,0,0,0,.07.22c.55-.76,1.1-1.52,1.66-2.27"/><path class="cls-1" d="M468.67,88.24l.28-.08.27-.08c.17,0,.34-.06.52-.11l.44-.11a2.25,2.25,0,0,1,.52-.07,1.78,1.78,0,0,1,.39.07,1,1,0,0,1,.32.14.8.8,0,0,1,.19.13l-2.45.8"/><path class="cls-1" d="M451.64,74l1.27,0c.64,0,1.27,0,1.91.06.42,0,.84.06,1.26.11s.82.11,1.23.2a16.28,16.28,0,0,1,1.67.45,4.43,4.43,0,0,1,.92.4c.1.06.21.14.2.23a.21.21,0,0,1-.07.13.54.54,0,0,1-.23.11l-.53.14c-.24,0-.48.07-.72.1-.47.06-.94.1-1.41.14s-.93.05-1.4.06l-1.38,0h-5.44l-1.39,0c-.46,0-.93,0-1.39-.06s-.94-.08-1.41-.14l-.72-.1-.53-.14a.54.54,0,0,1-.23-.11.17.17,0,0,1-.07-.13c0-.09.1-.16.2-.23a4.43,4.43,0,0,1,.92-.4,16.28,16.28,0,0,1,1.67-.45c.41-.09.82-.15,1.23-.2s.84-.08,1.26-.11c.64,0,1.27-.06,1.91-.06Z"/><path class="cls-1" d="M451.64,76.6l2,0,2.62,0c.66,0,1.33,0,2,.06l1.63.11c.72,0,1.44.12,2.14.24.46.07.91.17,1.37.28a4,4,0,0,1,1.16.4,1.92,1.92,0,0,1,.79.83,1.11,1.11,0,0,1,.13.73,1.49,1.49,0,0,1-.34.61,4.4,4.4,0,0,1-.62.6,8,8,0,0,1-.79.49,11.64,11.64,0,0,1-1.36.7,8.77,8.77,0,0,1-1.12.4c-.46.13-.93.24-1.4.33a14.49,14.49,0,0,1-2.37.3,9.94,9.94,0,0,1-1.54-.08c-.39-.06-.78-.14-1.17-.23s-1.05-.24-1.58-.31a9.07,9.07,0,0,0-3.06,0c-.53.07-1.06.19-1.58.31s-.78.17-1.17.23a9.94,9.94,0,0,1-1.54.08,14.49,14.49,0,0,1-2.37-.3c-.47-.09-.94-.2-1.4-.33a8.77,8.77,0,0,1-1.12-.4,11.64,11.64,0,0,1-1.36-.7,7,7,0,0,1-.79-.49,4.4,4.4,0,0,1-.62-.6,1.49,1.49,0,0,1-.34-.61,1.18,1.18,0,0,1,.13-.73,1.92,1.92,0,0,1,.79-.83,4,4,0,0,1,1.16-.4c.46-.11.91-.21,1.37-.28.7-.12,1.42-.19,2.14-.24l1.63-.11c.66,0,1.33,0,2-.06l2.62,0Z"/><path class="cls-1" d="M443.17,75.46c-.11-.79-.23-1.58-.35-2.37,0,0,.4-.24.73-.39a4,4,0,0,1,1.07-.33l1.16-.27c.43-.09.84-.15,1.26-.2.65-.09,1.3-.15,2-.18.88,0,1.76-.06,2.64-.07s1.76,0,2.65.07c.65,0,1.31.09,1.95.18.42,0,.84.11,1.26.2l1.17.27a3.94,3.94,0,0,1,1.06.33c.33.15.73.39.73.39-.11.79-.23,1.58-.35,2.37"/><path class="cls-1" d="M434.61,88.24l-.28-.08-.27-.08c-.17,0-.34-.06-.52-.11l-.44-.11a2.24,2.24,0,0,0-.51-.07,1.76,1.76,0,0,0-.4.07,1,1,0,0,0-.32.14.8.8,0,0,0-.19.13l2.45.8"/><path class="cls-1" d="M442.83,73.24c-.4.05-.81.09-1.21.15s-.85.12-1.27.21A9,9,0,0,0,439,74a3.93,3.93,0,0,0-1.41.83,3,3,0,0,0-.59.9,3.63,3.63,0,0,0-.21.69,3.79,3.79,0,0,0-.06.67,3.6,3.6,0,0,0,.12.8,6.12,6.12,0,0,0,.22.69,4,4,0,0,0,.6,1.14,3.31,3.31,0,0,0,.65.59,11.17,11.17,0,0,0,1.25.75"/><path class="cls-1" d="M433.83,89.66l-.24-.1-.34-.14c-.19-.09-.39-.15-.58-.23a2.38,2.38,0,0,1-.41-.23,1.67,1.67,0,0,1-.33-.32,1.14,1.14,0,0,1-.18-.3,1.87,1.87,0,0,1-.07-.22"/><path class="cls-1" d="M436.28,88.75l1.46.39,1.76.46"/><path class="cls-1" d="M436.45,91.35l.21.21a6,6,0,0,1,.78,1.14l.49.86"/><path class="cls-1" d="M436.35,89.31a1.31,1.31,0,0,1,.41.06,1.38,1.38,0,0,1,.25.17c.17.12.35.22.51.34l.32.28c.11.1.23.18.34.27s.23.17.34.27l.29.28"/><line class="cls-1" x1="448.88" y1="84.9" x2="448.53" y2="82.44"/><path class="cls-1" d="M458.18,82.69l-.12.09a2,2,0,0,0-.49.56,3.41,3.41,0,0,0-.31.73"/><line class="cls-1" x1="454.4" y1="84.9" x2="454.75" y2="82.44"/><path class="cls-1" d="M460.44,85.56a3.41,3.41,0,0,0,.3-.44,2.2,2.2,0,0,0,.22-.7,1.86,1.86,0,0,0-.29-1.19,1.81,1.81,0,0,0-.62-.58,1.55,1.55,0,0,0-.4-.17"/><path class="cls-1" d="M460.45,73.24c.4.05.81.09,1.21.15s.85.12,1.27.21a9,9,0,0,1,1.35.36,3.93,3.93,0,0,1,1.41.83,3,3,0,0,1,.59.9,3.63,3.63,0,0,1,.21.69,3.79,3.79,0,0,1,.06.67,3.6,3.6,0,0,1-.12.8,6.12,6.12,0,0,1-.22.69,4,4,0,0,1-.6,1.14,3,3,0,0,1-.65.59,11.17,11.17,0,0,1-1.25.75"/><path class="cls-1" d="M460.29,85.45a1.94,1.94,0,0,0,.21-.29,2.31,2.31,0,0,0,.25-.61,1.6,1.6,0,0,0,0-.49,2,2,0,0,0-.13-.48,1.53,1.53,0,0,0-.44-.59,1.63,1.63,0,0,0-.65-.34,1.56,1.56,0,0,0-.61,0,1.72,1.72,0,0,0-.58.19,1.58,1.58,0,0,0-.43.34,2.33,2.33,0,0,0-.31.48c-.07.15-.13.31-.19.47"/><path class="cls-1" d="M459.91,85.19l.06,0a.8.8,0,0,0,.23-.22.86.86,0,0,0,.14-.29,1.1,1.1,0,0,0,0-.44,1.41,1.41,0,0,0-.14-.44,1.54,1.54,0,0,0-.21-.29,1.06,1.06,0,0,0-.29-.22,1.87,1.87,0,0,0-.32-.15l-.23,0a1.18,1.18,0,0,0-.46,0,1.59,1.59,0,0,0-.29.15.75.75,0,0,0-.16.15.68.68,0,0,0-.18.26A.89.89,0,0,0,458,84a1.77,1.77,0,0,0,0,.23v0"/><path class="cls-1" d="M460,85.27l.09-.07a1.07,1.07,0,0,0,.28-.44,1.31,1.31,0,0,0,0-.68,1.48,1.48,0,0,0-.27-.53,1.45,1.45,0,0,0-.4-.34,1.23,1.23,0,0,0-.35-.16,1.24,1.24,0,0,0-.5,0,1.46,1.46,0,0,0-.41.11,1.38,1.38,0,0,0-.28.19l-.14.15a1.18,1.18,0,0,0-.2.49,2,2,0,0,0,0,.25"/><path class="cls-1" d="M466.93,89.31a1.31,1.31,0,0,0-.41.06,1.38,1.38,0,0,0-.25.17c-.17.12-.35.22-.51.34l-.32.28-.07.06"/><path class="cls-1" d="M465.06,90.46l-.25.2"/><path class="cls-1" d="M466.55,91.63a6.41,6.41,0,0,0-.71,1.07c-.17.28-.33.57-.49.86"/><path class="cls-1" d="M467,88.75l-1.46.39-1.75.46"/><line class="cls-1" x1="465.04" y1="91.09" x2="464.52" y2="91.09"/><line class="cls-1" x1="465.04" y1="90.66" x2="464.33" y2="90.66"/><path class="cls-1" d="M469.45,89.66a1.73,1.73,0,0,0,.24-.1l.34-.14c.19-.09.39-.15.58-.23A2.38,2.38,0,0,0,471,89a1.67,1.67,0,0,0,.33-.32,1.14,1.14,0,0,0,.18-.3,1.87,1.87,0,0,0,.07-.22"/><path class="cls-1" d="M441.89,109.4l-.36.48c-.09.12-.17.23-.27.34l-.24.27c-.14.16-.26.33-.4.48a1.72,1.72,0,0,1-.34.32,1.47,1.47,0,0,1-.41.22,1.3,1.3,0,0,1-.34.08h-.23"/><path class="cls-1" d="M433.75,104.18a1.24,1.24,0,0,0,.21.19.68.68,0,0,0,.2.07,1.59,1.59,0,0,0,.43.06,2.23,2.23,0,0,0,.69-.19l1-.41c.43-.17.88-.31,1.33-.45"/><path class="cls-1" d="M450.73,112.2c0,.31-.18.37-.45.37s-.45-.06-.45-.37"/><path class="cls-1" d="M452.55,112.2c0,.31.18.37.45.37s.45-.06.45-.37"/><path class="cls-1" d="M469.53,104.18a1.24,1.24,0,0,1-.21.19.68.68,0,0,1-.2.07,1.54,1.54,0,0,1-.43.06,2.1,2.1,0,0,1-.68-.19l-1-.41c-.44-.17-.89-.31-1.34-.45"/><path class="cls-1" d="M461.39,109.4l.36.48c.09.12.17.23.27.34l.24.27c.14.16.26.33.4.48a1.72,1.72,0,0,0,.34.32,1.47,1.47,0,0,0,.41.22,1.3,1.3,0,0,0,.34.08H464"/><line class="cls-1" x1="453.45" y1="125.55" x2="453.45" y2="109.95"/><line class="cls-1" x1="452.55" y1="125.52" x2="452.55" y2="110.27"/><line class="cls-1" x1="450.73" y1="125.52" x2="450.73" y2="110.27"/><line class="cls-1" x1="449.83" y1="125.55" x2="449.83" y2="109.95"/><line class="cls-1" x1="459.71" y1="127.72" x2="443.57" y2="127.72"/><line class="cls-1" x1="457.8" y1="126.81" x2="445.48" y2="126.81"/><path class="cls-1" d="M467.34,87.83l.06-.06a.31.31,0,0,1,.13,0,1,1,0,0,1,.5.12,3,3,0,0,1,.44.23,2,2,0,0,1,.47.48,4.65,4.65,0,0,1,.34.62c.09.2.17.41.25.63.12.37.22.75.32,1.13s.22.75.32,1.13.19.77.28,1.16.18.78.26,1.17.16.79.23,1.19.16.79.23,1.19.14.8.2,1.2.13.8.18,1.2.08.8.13,1.2.1.79.11,1.19a5.66,5.66,0,0,1-.06.82,2.92,2.92,0,0,1-.15.65,1.65,1.65,0,0,1-.41.6,2.77,2.77,0,0,1-.67.44,1.76,1.76,0,0,1-.35.15,1.24,1.24,0,0,1-.27,0,.93.93,0,0,1-.24,0,1.29,1.29,0,0,1-.46-.31,3.08,3.08,0,0,1-.39-.42,3.21,3.21,0,0,1-.39-.76q-.12-.27-.21-.54a9.44,9.44,0,0,1-.27-1.17c-.07-.4-.16-.79-.23-1.19s-.14-.79-.19-1.19-.1-.81-.14-1.21-.09-.81-.13-1.21-.09-.81-.13-1.21-.09-.79-.12-1.19-.06-.79-.08-1.19a18.65,18.65,0,0,1-.06-2.36l.06-.74a6.06,6.06,0,0,1,.09-.73,4.77,4.77,0,0,1,.13-.51,2,2,0,0,1,.1-.26A2.25,2.25,0,0,1,467.34,87.83Z"/><path class="cls-1" d="M468.28,102.44l-.11-.06a3.23,3.23,0,0,1-.59-.46l-.49-.41c-.38-.32-.74-.66-1.1-1"/><path class="cls-1" d="M436,87.83l-.07-.06a.31.31,0,0,0-.13,0,.94.94,0,0,0-.49.12,2.71,2.71,0,0,0-.45.23,1.75,1.75,0,0,0-.46.48,3.13,3.13,0,0,0-.34.62,4.35,4.35,0,0,0-.25.63c-.13.37-.22.75-.33,1.13s-.21.75-.32,1.13-.19.77-.28,1.16-.18.78-.26,1.17-.16.79-.23,1.19-.16.79-.23,1.19-.14.8-.2,1.2-.13.8-.17,1.2-.09.8-.14,1.2-.1.79-.11,1.19a5.66,5.66,0,0,0,.06.82,2.92,2.92,0,0,0,.15.65,1.78,1.78,0,0,0,.41.6,2.77,2.77,0,0,0,.67.44,1.76,1.76,0,0,0,.35.15,1.24,1.24,0,0,0,.27,0,.93.93,0,0,0,.24,0,1.29,1.29,0,0,0,.46-.31,3.08,3.08,0,0,0,.39-.42,3.21,3.21,0,0,0,.39-.76c.08-.18.15-.36.22-.54a11.63,11.63,0,0,0,.26-1.17c.08-.4.16-.79.23-1.19s.14-.79.19-1.19.1-.81.15-1.21l.12-1.21c.05-.4.09-.81.13-1.21s.09-.79.12-1.19.06-.79.09-1.19a18.64,18.64,0,0,0,.05-2.36l-.06-.74c0-.24,0-.49-.08-.73s-.09-.34-.14-.51a2,2,0,0,0-.1-.26A2.12,2.12,0,0,0,436,87.83Z"/><path class="cls-1" d="M451.64,86.15a4.67,4.67,0,0,1-2.23-.75A3.91,3.91,0,0,0,445,84.34a9.59,9.59,0,0,0-4.09,3.17,15.58,15.58,0,0,0-3.18,7.13,25,25,0,0,0,.47,11.53,4.46,4.46,0,0,0,3.45,3.23,18.77,18.77,0,0,0,5.18.34,6,6,0,0,1,3.63.37,3.15,3.15,0,0,0,1.21.24,3.11,3.11,0,0,0,1.21-.24,6,6,0,0,1,3.63-.37,18.77,18.77,0,0,0,5.18-.34,4.45,4.45,0,0,0,3.45-3.23,25.12,25.12,0,0,0,.48-11.53,15.7,15.7,0,0,0-3.19-7.13,9.53,9.53,0,0,0-4.09-3.17,3.89,3.89,0,0,0-4.44,1.06A4.67,4.67,0,0,1,451.64,86.15Z"/><path class="cls-1" d="M435,102.44l.12-.06a3.55,3.55,0,0,0,.58-.46l.49-.41c.38-.32.74-.66,1.1-1"/><line class="cls-1" x1="378.43" y1="138.51" x2="420.87" y2="138.51"/><line class="cls-1" x1="378.43" y1="135.48" x2="420.87" y2="135.48"/><rect class="cls-1" x="378.43" y="129.28" width="42.43" height="13.46"/><line class="cls-1" x1="430.86" y1="146.98" x2="473.29" y2="146.98"/><line class="cls-1" x1="430.86" y1="150" x2="473.29" y2="150"/><rect class="cls-1" x="430.86" y="142.74" width="42.43" height="13.46"/><rect class="cls-1" x="425.41" y="138.51" width="1.21" height="4.24"/><rect class="cls-1" x="374.6" y="138.51" width="1.21" height="4.24"/><rect class="cls-1" x="370.36" y="146.98" width="60.5" height="3.02"/><rect class="cls-1" x="374.6" y="142.74" width="1.21" height="4.23"/><rect class="cls-1" x="425.41" y="142.74" width="1.21" height="4.23"/><rect class="cls-1" x="420.87" y="135.48" width="60.5" height="3.02"/><path class="cls-1" d="M272.09,195.42a16,16,0,0,1-1.91-5.22,25.16,25.16,0,0,1,.48-11.54,4,4,0,0,1,2.69-3"/></svg>