<svg id="Layer_1" data-name="Layer 1" xmlns="http://www.w3.org/2000/svg" viewBox="0 0 511.57 279.29"><defs><style>.cls-1{fill:none;stroke:#000;stroke-miterlimit:10;}</style></defs><title>Artboard 1</title><rect class="cls-1" x="0.5" y="0.5" width="510.57" height="278.29"/><polyline class="cls-1" points="100.35 213.73 100.61 211.98 102.4 210.04 104.87 209.47 105.48 208.75 110.04 206.15 111.32 206.08 112.58 206.74 114.61 212.19 114.55 212.93 116.86 214.07 118.7 215.88 119.74 218.04"/><polyline class="cls-1" points="105.34 212.28 103.44 213.89 101.45 214.58 100.48 215.26 99.81 214.85 99.92 214.42 101.19 213.17 100.78 212.64"/><path class="cls-1" d="M116.07,240l-5.52,2.42-.89.68-3.8,1.35a5.54,5.54,0,0,1-6.46-2.13l-5.35-8.7"/><polyline class="cls-1" points="87.29 243.97 86.71 245.07 85.31 246.15 81.98 247.46 80.32 247.58 79.55 247.02 79.29 245.42 80.05 243.46 82.08 241.32 84.46 239.69 86.34 238.57"/><polyline class="cls-1" points="97.28 239.3 92.91 242.1 91.33 242.63 87.24 243.82 85 243.17 85.94 240.13 86.91 237.8"/><polyline class="cls-1" points="94.21 233.9 92.77 234.02 89.21 232.96 88.44 232.13 88.42 231.44 89.28 230.34 90.51 229.4 94.05 228.38 97.49 228.6"/><polyline class="cls-1" points="84.33 240.81 89.27 235.77 91.73 234.27 92.4 233.91"/><polyline class="cls-1" points="127.88 229.43 128.05 226.4 126.86 225.56"/><polyline class="cls-1" points="108.39 212.44 109.42 215.61 110.31 216.7"/><polyline class="cls-1" points="120.79 235.43 119.48 236.14 118.03 238.43"/><polyline class="cls-1" points="120.87 238.05 118.81 238.03 115.89 239.51 116.13 240.12 116.92 239.99 117.39 240.3 116.36 241.25 116.77 241.87 119.91 242.13 121.41 241.52 123.27 239.5"/><polyline class="cls-1" points="121.89 231.97 121.45 233.54 122.11 234.68 122.59 235.3"/><polyline class="cls-1" points="122.86 235.5 120.78 237.74 121.03 238.47 121.91 239.25 123.27 239.5 125.97 238.82 129.22 236.66 129.66 233.99 128.17 229.61"/><polyline class="cls-1" points="121.97 226.5 122.18 227.82 122.77 228.41"/><polyline class="cls-1" points="110.82 221.53 111.52 225.68 112.63 228.39 114.29 230.34 117.28 232.75 119.79 233.55 121.69 233.15"/><polyline class="cls-1" points="107.14 222.93 108.25 221.48 110.06 219.21"/><polyline class="cls-1" points="110.73 215.59 110.21 217.25 110.3 219.12 110.6 220.9 111.1 222.09"/><polyline class="cls-1" points="121.23 221.85 121.63 223.25 121.99 224.08"/><polyline class="cls-1" points="117.11 223.36 116.72 225.1 116.89 226.49 117.28 227.66 118.19 228.57 122.21 228.7 124.3 228.37 126.71 226.1 127.49 223.31 126.32 220.66 125.23 219.24 124.46 218.73 123.7 217.82 122.17 217.7 120.84 217.43 119.64 218.54 118.03 220.23 117.06 222.89 117.28 223.72"/><polyline class="cls-1" points="116.6 224.78 117.39 225.94 118.84 226.93 121.3 227.56"/><polyline class="cls-1" points="98.39 228.65 101.42 233.63 103.81 236.34 105.38 240.02"/><polyline class="cls-1" points="106.75 233.11 104.16 234.83 102.93 235.34"/><polyline class="cls-1" points="106.21 223.84 106.5 224.78 106.97 225.1"/><polyline class="cls-1" points="98.96 230.94 99.27 229.98 104.69 224.82 107 223.24"/><polyline class="cls-1" points="104.37 237.67 107.22 235.23 111.25 232.22 111.98 231.18"/><line class="cls-1" x1="110.99" y1="231.4" x2="106.69" y2="233.14"/><line class="cls-1" x1="102.13" y1="235.68" x2="101.9" y2="235.58"/><line class="cls-1" x1="119.48" y1="224.77" x2="120.54" y2="226.08"/><line class="cls-1" x1="122.03" y1="226.49" x2="124.57" y2="223.23"/><line class="cls-1" x1="118.8" y1="221.2" x2="119.49" y2="218.81"/><line class="cls-1" x1="113.65" y1="232.92" x2="112.17" y2="232.14"/><line class="cls-1" x1="110.82" y1="231.04" x2="110.96" y2="229.84"/><line class="cls-1" x1="122.4" y1="217.83" x2="121.94" y2="218.72"/><line class="cls-1" x1="121.96" y1="234.42" x2="120.96" y2="235.4"/><line class="cls-1" x1="99.24" y1="230.07" x2="99.31" y2="230.03"/><path class="cls-1" d="M98.56,228.92a7.94,7.94,0,0,0-4.44,4.58"/><line class="cls-1" x1="96.3" y1="228.37" x2="98.59" y2="228.29"/><path class="cls-1" d="M103.7,239.13a3.64,3.64,0,0,0-.76,4.09"/><polyline class="cls-1" points="62.34 243.76 62.69 242.09 61.39 241.07"/><polyline class="cls-1" points="63.06 245.67 59.02 242.63 56.84 242.44"/><polyline class="cls-1" points="63.13 252.47 63.54 250.08 63.55 249.65 63.65 249.05 63.76 248.45 61.15 247.81 58.26 246.7 55.4 247.56 53.47 251.98 54.92 255.37 59.41 257.57 62.28 256.28 63.62 253.18 61.21 253.19 61.31 251.17 59.77 249.36 58.41 249.07 57.92 247.93 58.47 246.92"/><line class="cls-1" x1="70.22" y1="261.41" x2="65.38" y2="260.88"/><line class="cls-1" x1="76.66" y1="261.6" x2="77.41" y2="264.07"/><line class="cls-1" x1="74.28" y1="262.18" x2="75.38" y2="265.82"/><polygon class="cls-1" points="70.22 261.41 67.63 251.4 63.06 245.67 68.3 246.09 70.62 249.08 72.32 249.56 72.5 249.22 70.41 247.44 72.08 247.36 73.34 248.68 72.61 245.35 70.49 244.43 68.75 243.82 67.7 242.71 67.43 241.8 62.27 240.23 58.28 240.16 55.88 241.16 53.63 244.97 52.98 250.84 53.29 257.99 54.96 261.18 61.17 265.28 65.99 268.09 75.61 267.03 75.34 265.69 77.34 264.8 77.67 264 81.4 262.73 82.52 258.42 81.97 258.01 79.59 258.59 81.52 257.01 80.72 256.69 77.73 259.01 76.45 261.38 74.5 261.97 70.22 261.41"/><line class="cls-1" x1="417.85" y1="240.04" x2="416.44" y2="238.37"/><line class="cls-1" x1="417.47" y1="239.02" x2="417.85" y2="240.04"/><line class="cls-1" x1="418.53" y1="238.71" x2="417.47" y2="239.02"/><line class="cls-1" x1="420.38" y1="240.52" x2="418.53" y2="238.71"/><line class="cls-1" x1="421.07" y1="239.38" x2="420.38" y2="240.52"/><line class="cls-1" x1="419.87" y1="236.36" x2="421.07" y2="239.38"/><line class="cls-1" x1="418.97" y1="235.25" x2="419.87" y2="236.36"/><line class="cls-1" x1="394.67" y1="242.66" x2="397.27" y2="241.95"/><line class="cls-1" x1="398.6" y1="252.64" x2="400.02" y2="252.33"/><line class="cls-1" x1="399.34" y1="252.53" x2="404.08" y2="252.58"/><line class="cls-1" x1="404.08" y1="252.58" x2="407.3" y2="251.91"/><line class="cls-1" x1="407.3" y1="251.91" x2="409.79" y2="250.45"/><line class="cls-1" x1="409.79" y1="250.45" x2="413.06" y2="247.63"/><line class="cls-1" x1="413.06" y1="247.63" x2="414.46" y2="245.01"/><line class="cls-1" x1="414.46" y1="245.01" x2="414.39" y2="242.83"/><line class="cls-1" x1="414.07" y1="242.82" x2="415.27" y2="241.43"/><line class="cls-1" x1="415.27" y1="241.43" x2="416.12" y2="239.93"/><line class="cls-1" x1="416.12" y1="239.93" x2="416.6" y2="237.64"/><line class="cls-1" x1="409.02" y1="233.61" x2="407.03" y2="235.57"/><line class="cls-1" x1="408.62" y1="245.78" x2="409.57" y2="241.35"/><line class="cls-1" x1="409.57" y1="241.35" x2="409.62" y2="238.98"/><line class="cls-1" x1="409.62" y1="238.98" x2="407.59" y2="235.85"/><line class="cls-1" x1="407.59" y1="235.85" x2="404.66" y2="234.42"/><line class="cls-1" x1="397.82" y1="237.52" x2="397.38" y2="239.19"/><line class="cls-1" x1="397.38" y1="239.19" x2="396.81" y2="240.61"/><line class="cls-1" x1="396.81" y1="240.61" x2="397.8" y2="242.16"/><line class="cls-1" x1="397.8" y1="242.16" x2="399.35" y2="244.28"/><line class="cls-1" x1="399.35" y1="244.28" x2="402.1" y2="245.89"/><line class="cls-1" x1="402.1" y1="245.89" x2="403.06" y2="245.82"/><line class="cls-1" x1="403.06" y1="245.82" x2="404.5" y2="245.18"/><line class="cls-1" x1="404.5" y1="245.18" x2="405.89" y2="243.77"/><line class="cls-1" x1="405.89" y1="243.77" x2="407.08" y2="241.18"/><line class="cls-1" x1="407.08" y1="241.18" x2="408.59" y2="241.21"/><line class="cls-1" x1="408.59" y1="241.21" x2="409.36" y2="240.68"/><line class="cls-1" x1="407.08" y1="241.11" x2="403.99" y2="237.64"/><line class="cls-1" x1="402.64" y1="245.93" x2="404.48" y2="246.72"/><line class="cls-1" x1="404.48" y1="246.72" x2="406.05" y2="246.8"/><line class="cls-1" x1="406.05" y1="246.8" x2="407.43" y2="246.6"/><line class="cls-1" x1="407.43" y1="246.6" x2="408.62" y2="245.78"/><line class="cls-1" x1="404.67" y1="243.59" x2="406.34" y2="242.68"/><line class="cls-1" x1="400.57" y1="243.62" x2="398.07" y2="242.38"/><line class="cls-1" x1="397.57" y1="238.97" x2="398.46" y2="239.65"/><line class="cls-1" x1="401.79" y1="241.06" x2="403.41" y2="240.9"/><line class="cls-1" x1="403.41" y1="240.9" x2="404.41" y2="240.67"/><line class="cls-1" x1="401.49" y1="235.19" x2="399.7" y2="236.11"/><line class="cls-1" x1="399.7" y1="236.11" x2="398.98" y2="236.86"/><line class="cls-1" x1="398.98" y1="236.86" x2="397.82" y2="237.52"/><line class="cls-1" x1="416.47" y1="238.11" x2="416.37" y2="239"/><path class="cls-1" d="M417.76,237.1c3.39-4.35-3.66-9-6.37-4.25"/><line class="cls-1" x1="416.37" y1="239" x2="417.76" y2="237.1"/><line class="cls-1" x1="417.31" y1="237.85" x2="417.76" y2="237.1"/><line class="cls-1" x1="402.05" y1="255.65" x2="399.08" y2="252.76"/><line class="cls-1" x1="403.65" y1="256.32" x2="402.05" y2="255.65"/><line class="cls-1" x1="405.21" y1="256.55" x2="403.65" y2="256.32"/><line class="cls-1" x1="405.88" y1="256.15" x2="405.21" y2="256.55"/><line class="cls-1" x1="406.25" y1="254.92" x2="405.88" y2="256.15"/><line class="cls-1" x1="416.39" y1="244.68" x2="417.36" y2="248.74"/><line class="cls-1" x1="417.36" y1="248.74" x2="416.98" y2="249.97"/><line class="cls-1" x1="416.98" y1="249.97" x2="416.31" y2="250.37"/><line class="cls-1" x1="416.31" y1="250.37" x2="414.75" y2="250.14"/><line class="cls-1" x1="414.75" y1="250.14" x2="413.15" y2="249.47"/><line class="cls-1" x1="405.63" y1="252.26" x2="406.25" y2="254.92"/><line class="cls-1" x1="413.15" y1="249.47" x2="412.11" y2="248.45"/><line class="cls-1" x1="414.52" y1="242.29" x2="416.39" y2="244.68"/><line class="cls-1" x1="394.48" y1="252.34" x2="396.57" y2="252.62"/><line class="cls-1" x1="396.57" y1="252.62" x2="398.6" y2="252.64"/><line class="cls-1" x1="392.16" y1="243.75" x2="394.67" y2="242.66"/><line class="cls-1" x1="392.75" y1="251.43" x2="394.48" y2="252.34"/><path class="cls-1" d="M392.16,243.75c-4.69.74-4.16,7.66.59,7.68"/><line class="cls-1" x1="404.66" y1="234.42" x2="401.49" y2="235.19"/><line class="cls-1" x1="411.39" y1="232.85" x2="409.02" y2="233.61"/><line class="cls-1" x1="390.32" y1="252.63" x2="390.63" y2="250.79"/><line class="cls-1" x1="390.49" y1="252.83" x2="390.96" y2="254.18"/><line class="cls-1" x1="390.96" y1="254.18" x2="392.88" y2="256.81"/><line class="cls-1" x1="392.88" y1="256.81" x2="394.21" y2="256.82"/><line class="cls-1" x1="394.21" y1="256.82" x2="393.66" y2="254.29"/><line class="cls-1" x1="393.66" y1="254.29" x2="394.48" y2="253.55"/><line class="cls-1" x1="394.48" y1="253.55" x2="395.15" y2="254.41"/><line class="cls-1" x1="395.15" y1="254.41" x2="394.48" y2="252.34"/><polyline class="cls-1" points="104.89 209.56 104.77 210.59 105.5 212.59 108.42 212.32"/><line class="cls-1" x1="295.65" y1="59.68" x2="295.43" y2="58.79"/><polyline class="cls-1" points="295.25 61.02 294.45 61.95 292.74 63.02 290.6 63.23 290.55 63.22"/><polyline class="cls-1" points="286.94 61.5 285.88 60.45 284.17 59.59 278.39 58.31 276.68 56.6 275.61 49.96 276.25 45.47 277.32 43.76 277.75 37.55 277.32 32.63 277.96 27.27 279.25 27.06 279.67 24.92 279.67 21.71 280.1 20 281.6 19.57 283.53 23.64 284.6 28.56 283.53 29.41 283.74 33.7 283.32 35.19 287.6 42.26 290.17 42.26 292.52 34.55 292.1 33.27 292.52 26.2 292.1 25.56 292.1 22.99 292.74 18.71 294.02 15.93 295.74 15.93 297.24 20.21 297.02 23.64 296.59 24.28 297.45 24.92 298.74 31.34 300.02 34.34 300.88 41.62 302.81 44.18 304.52 49.96 301.31 57.88 298.44 59.2"/><line class="cls-1" x1="286.1" y1="45.04" x2="289.1" y2="44.83"/><polyline class="cls-1" points="297.02 51.24 298.31 49.32 296.59 46.32 288.88 46.54 290.38 42.47 297.88 42.04 300.88 42.47"/><polyline class="cls-1" points="281.39 47.39 285.03 48.25 289.53 46.32 286.74 53.39"/><polyline class="cls-1" points="278.39 42.9 285.88 42.26 285.67 45.25 280.96 47.39 279.67 54.88"/><line class="cls-1" x1="293.17" y1="53.17" x2="290.38" y2="46.97"/><line class="cls-1" x1="292.52" y1="25.78" x2="295.74" y2="24.07"/><polyline class="cls-1" points="279.46 27.06 281.17 27.06 283.1 27.92 283.74 30.49"/><polyline class="cls-1" points="292.68 57 292.31 56.81 289.99 57.44"/><polyline class="cls-1" points="287.24 57.28 287.17 56.81 286.31 57.45 286.19 58.34"/><polyline class="cls-1" points="286.1 58.93 286.1 58.95 284.81 58.74 286.53 54.67 289.31 52.53 292.31 53.81 292.95 55.31 293.81 55.95 294.01 56.55"/><polyline class="cls-1" points="53.11 43.42 57.58 39.99 59.97 42.31 62.32 39.19"/><polyline class="cls-1" points="70.68 37.42 71.97 36.76 74.46 41.17"/><line class="cls-1" x1="65.75" y1="37.59" x2="67.02" y2="39.43"/><polyline class="cls-1" points="66.91 33.47 66.82 35.13 68.55 36.16"/><polyline class="cls-1" points="70.02 56.42 71.02 49.15 68.28 47.44 70.78 47.78 67.12 39.54 70.58 37.42 69.19 35.88 65.43 37.78 62.33 34.56 62.97 32.74"/><polyline class="cls-1" points="65.93 58.61 68.67 58.23 65.18 52.82 64.46 48.6 63.03 43.72"/><polyline class="cls-1" points="63.93 56.94 62.89 52.7 62.99 44.66"/><polyline class="cls-1" points="58.98 53.34 61.1 50.84 62.47 44.53"/><polyline class="cls-1" points="58.95 37.76 57.49 39.67 60.19 42.01 56.67 45.38 54 48.59 54.08 51.1 56.24 53.73 55.69 54.33 55.8 56.21"/><polyline class="cls-1" points="62.15 32.39 56.99 32.93 56.69 36.81 66.86 40.57"/><line class="cls-1" x1="55.01" y1="32.86" x2="56.96" y2="33.58"/><line class="cls-1" x1="52.04" y1="35.63" x2="52.31" y2="30.42"/><line class="cls-1" x1="57.19" y1="25.02" x2="61.42" y2="24.09"/><polygon class="cls-1" points="55.92 59.98 58.55 57.82 59.56 58.49 59.21 59.1 59.82 59.55 60.77 59.29 61.27 57.74 62.24 57.27 63.85 58.4 64.69 60.33 64.94 61.7 65.24 59.83 64.13 57.16 60.2 54.03 58.35 53.41 56.17 55.08 55.52 57.56 55.92 59.98"/><polygon class="cls-1" points="62.15 32.39 62.43 24.87 61.32 24.08 61.41 22.21 62.88 18.1 62.61 17.25 60.65 16.73 59.44 17.92 58.11 19.64 57.19 22.93 57.2 24.92 55.8 25.68 54.91 32.75 52.3 30.52 50.35 27.81 49.69 26.42 48.05 25.81 46.87 28.47 49.18 32.35 48.74 32.74 49.65 35.41 51.52 35.71 54.46 35.44 53.12 43.32 49.86 45.55 48.55 46.64 47.74 48.17 48.24 54.53 51.8 58.73 55.7 60.18 55.77 62.9 57.85 65.2 60.94 66.3 63.54 64.45 64.81 62.21 65.25 61.71 71.3 62.13 74.03 59.86 76.21 52.03 75.5 43.31 74.57 41.18 74.16 36.97 67 33.58 66.53 32.71 63.41 32.24 63.07 32.75 62.15 32.39"/><line class="cls-1" x1="118.8" y1="18.33" x2="121.86" y2="17.33"/><line class="cls-1" x1="118.44" y1="19.75" x2="122.06" y2="18.92"/><line class="cls-1" x1="104.82" y1="27.98" x2="105.29" y2="32.24"/><line class="cls-1" x1="118.39" y1="25.81" x2="118.78" y2="27.42"/><polyline class="cls-1" points="119.85 29.9 116.72 29.13 114.46 29.15 113.86 28.49 113.04 28 110.93 30.09 110.95 32.34 111.87 36.07 113.95 37.49 116.45 37.8 118.7 36.99 120.59 34.29 120.48 29.58 118.57 28.37 117.72 27.29 116.47 27.14 115.77 28.04 114.1 28.13"/><polygon class="cls-1" points="118.5 25.73 112.36 25.47 106.54 26.73 104.73 27.97 103.85 23.86 106.9 18.85 106.29 18.29 108.43 15.91 109.63 12.43 108.97 12.26 108.63 13.48 108.03 12.73 108.98 10.6 107.88 9.97 104.92 11.77 104.19 14.61 104.32 17.56 102.82 16.99 99.36 20.58 97.82 25.18 97.3 32.75 101.47 37.94 108.17 39.93 114.8 40.14 120.45 37.89 124.37 32.2 125.08 29.55 123.75 23.52 122.16 18.93 121.75 17.42 120 14.86 120.3 13.23 118.52 10.96 116.03 11.35 115.64 12.08 117.05 13.43 116.92 14.49 115.78 13.37 115.25 13.7 116.39 15.6 118.41 16.72 118.8 18.33 118.2 18.45 118.52 19.86 118.22 19.92 118.5 25.73"/><polyline class="cls-1" points="294.79 78.4 298.59 81.88 300.46 85.77 301.32 88.58"/><polyline class="cls-1" points="306.34 73.7 311.87 76.5 314.98 79.06"/><polyline class="cls-1" points="303.04 84.87 304.35 83.9 304.61 79.04 306.47 78.27 309.57 78.61 312.19 82.15 313.05 85.77 310.92 87.56 305.75 89.35 302.96 87.77 300.45 81.92 300.56 79.6 301.15 78.76 304.25 78.29"/><polyline class="cls-1" points="294.83 78.17 291.74 75.38 289.13 76.51 291.39 74.63 290.59 66.7 290.07 66.27 290.24 65.13 290.74 64.15 290.01 60.43 291.37 57.6 290.98 57.08 289.47 58.6 290.16 57.07 288.31 56.21 285.98 58.55 287.26 62.47 287.18 64.56 286.59 64.59 286.59 65.4 285.77 65.4 285.12 75.21 289.81 82.09 290.66 82.91"/><line class="cls-1" x1="292.76" y1="84.94" x2="294.54" y2="86.66"/><polyline class="cls-1" points="295.81 87.89 296.94 88.98 297.49 89.23"/><polyline class="cls-1" points="298.77 89.81 301.86 91.22 306.03 91.38 311.56 88.7 314.56 84.25 317.06 80.77 313.88 73.19 311.1 68.34 304.9 62.99 300.03 59.7 299.83 60.26 295.22 56.77 292.16 56.2 292.42 56.82 296.35 59.39 295.1 59.9 294.06 59.05 293.77 59.47 295.58 61.37 298.52 62.04 297.43 63.05 303.76 68.3 306.21 67.5 306.34 68.22 303.73 68.53 306.05 73.31 301.71 72.66 294.83 78.17"/><path class="cls-1" d="M121.66,241.25a1.87,1.87,0,0,0,1.09-1.19"/><rect class="cls-1" x="416.83" y="271.53" width="60.5" height="3.02"/><line class="cls-1" x1="115.41" y1="13.96" x2="109.1" y2="13.96"/><line class="cls-1" x1="116.98" y1="13.96" x2="116.38" y2="13.96"/><polyline class="cls-1" points="104.35 13.96 94.74 13.96 94.74 0.5 137.17 0.5 137.17 13.96 120.17 13.96"/><line class="cls-1" x1="62.3" y1="28.45" x2="62.3" y2="32.32"/><line class="cls-1" x1="62.3" y1="19.74" x2="62.3" y2="24.78"/><path class="cls-1" d="M66.59,32.82a19.06,19.06,0,0,1,4.82.37,4.45,4.45,0,0,1,3.45,3.23,25.47,25.47,0,0,1,.81,9"/><path class="cls-1" d="M47.86,49.69A17,17,0,0,1,47.44,48a25.12,25.12,0,0,1,.48-11.53,4.24,4.24,0,0,1,1.33-2.18"/><line class="cls-1" x1="62.3" y1="17.06" x2="62.3" y2="17.17"/><line class="cls-1" x1="59.58" y1="17.04" x2="59.58" y2="17.79"/><path class="cls-1" d="M76.59,51l-.47,0"/><path class="cls-1" d="M76.3,51l-.2-.25"/><path class="cls-1" d="M76,52.5h.61"/><path class="cls-1" d="M76.68,53.28a1.07,1.07,0,0,1-.41-.07,1.32,1.32,0,0,1-.25-.16L75.94,53"/><path class="cls-1" d="M76.75,53.84l-1-.26"/><path class="cls-1" d="M54.92,59.89a14.44,14.44,0,0,0-1.73.26c-.47.09-.93.2-1.39.33a11.6,11.6,0,0,0-1.13.39c-.46.21-.91.45-1.35.7a6.24,6.24,0,0,0-.79.5,3.51,3.51,0,0,0-.62.6,1.49,1.49,0,0,0-.34.61,1.17,1.17,0,0,0,.12.73,2,2,0,0,0,.8.83,4.31,4.31,0,0,0,1.16.4c.45.11.91.21,1.36.28.71.12,1.43.18,2.15.24.54,0,1.08.08,1.63.1s1.33.06,2,.07c.87,0,1.75,0,2.62,0l2,0,2,0c.88,0,1.75,0,2.62,0,.67,0,1.34,0,2-.07s1.09-.06,1.63-.1c.72-.06,1.43-.12,2.14-.24.46-.07.91-.17,1.37-.28a4.13,4.13,0,0,0,1.15-.4,1.89,1.89,0,0,0,.8-.83,1.18,1.18,0,0,0,.13-.73,1.48,1.48,0,0,0-.34-.61,3.89,3.89,0,0,0-.62-.6,8.09,8.09,0,0,0-.79-.5q-.45-.26-.9-.48"/><path class="cls-1" d="M46,53.84c.49-.13,1-.27,1.46-.39l.65-.17"/><path class="cls-1" d="M46.1,53.28a1.07,1.07,0,0,0,.41-.07,1.32,1.32,0,0,0,.25-.16c.17-.13.34-.22.51-.34l.32-.28a4,4,0,0,1,.34-.27l.11-.09"/><path class="cls-1" d="M305.19,54.35l.28.08.27.07c.17,0,.34.07.52.11s.29.09.44.12a1.81,1.81,0,0,0,.52.06,1.32,1.32,0,0,0,.39-.06,1,1,0,0,0,.32-.14l.19-.13-2.45-.8"/><path class="cls-1" d="M306,52.93l.24.09.34.15.58.23a2.38,2.38,0,0,1,.41.23,1.43,1.43,0,0,1,.33.32,1.14,1.14,0,0,1,.18.3,1.42,1.42,0,0,1,.07.22"/><path class="cls-1" d="M303.45,53.28l-.27,0"/><path class="cls-1" d="M303.4,52.73c0,.1,0,.21,0,.32s0,.48.09.72a4.23,4.23,0,0,0,.13.51c0,.09.06.18.1.27l.11.2.07.06a.22.22,0,0,0,.13,0,1,1,0,0,0,.5-.12,3,3,0,0,0,.44-.23,2,2,0,0,0,.47-.48,5.36,5.36,0,0,0,.34-.62c.09-.2.17-.42.25-.63.12-.37.22-.76.32-1.14s.21-.74.32-1.12.19-.77.28-1.16.18-.78.26-1.17.16-.79.23-1.19.16-.8.23-1.19l.21-1.2c.06-.4.12-.8.17-1.2s.08-.8.13-1.2.1-.79.11-1.19a5.66,5.66,0,0,0-.06-.82,2.8,2.8,0,0,0-.15-.65,1.65,1.65,0,0,0-.41-.6,2.81,2.81,0,0,0-.67-.45,2.13,2.13,0,0,0-.35-.14,1.24,1.24,0,0,0-.27,0,.64.64,0,0,0-.24,0,1.38,1.38,0,0,0-.46.31,3,3,0,0,0-.39.41,3.48,3.48,0,0,0-.39.77q-.12.27-.21.54a9.44,9.44,0,0,0-.27,1.17c-.07.4-.16.79-.23,1.19s-.14.79-.19,1.19-.1.81-.14,1.21-.09.81-.13,1.21-.06.5-.08.75"/><path class="cls-1" d="M303.52,53.84,303,53.7"/><path class="cls-1" d="M279.69,67.12c-.11.79-.23,1.59-.35,2.38,0,0,.4.24.73.39a4,4,0,0,0,1.07.33l1.16.26c.43.09.84.16,1.26.21.61.08,1.23.14,1.85.17"/><path class="cls-1" d="M291,70.86c.59,0,1.17-.1,1.75-.17.42,0,.83-.12,1.26-.2l1.16-.27a3.89,3.89,0,0,0,1.07-.33c.33-.15.73-.39.73-.39-.12-.79-.23-1.59-.35-2.38"/><path class="cls-1" d="M285.49,60.25l-.44-.1c-.39-.08-.77-.17-1.17-.22a8.84,8.84,0,0,0-1.54-.08,14.48,14.48,0,0,0-2.37.29c-.47.1-.94.2-1.4.34a10.58,10.58,0,0,0-1.12.39,13.41,13.41,0,0,0-1.36.7,6.56,6.56,0,0,0-.79.5,3.89,3.89,0,0,0-.62.6,1.48,1.48,0,0,0-.34.61,1.19,1.19,0,0,0,.13.73,1.94,1.94,0,0,0,.8.83,4.13,4.13,0,0,0,1.15.4c.46.11.91.2,1.37.28.7.12,1.42.18,2.14.24l1.63.1c.67,0,1.33.06,2,.07l2.17,0"/><path class="cls-1" d="M290.78,68.56l.56,0c.42,0,.84-.06,1.26-.11s.82-.11,1.23-.2a16.28,16.28,0,0,0,1.67-.45,4.43,4.43,0,0,0,.92-.4c.1-.07.21-.14.2-.23a.21.21,0,0,0-.07-.14.52.52,0,0,0-.23-.1l-.53-.14a5.93,5.93,0,0,0-.72-.1c-.47-.06-.94-.11-1.41-.14s-.93,0-1.39-.06-.93,0-1.39,0h-.62"/><path class="cls-1" d="M285.7,66.43h-.26c-.46,0-.92,0-1.38,0s-.93,0-1.4.06-.94.08-1.41.14a5.93,5.93,0,0,0-.72.1l-.53.14a.44.44,0,0,0-.22.1.23.23,0,0,0-.08.14c0,.09.1.16.2.23a4.43,4.43,0,0,0,.92.4c.52.16,1.1.33,1.68.45.4.08.81.15,1.22.2s.84.08,1.26.11l.58,0"/><path class="cls-1" d="M297,69.35c.4,0,.81-.09,1.21-.15s.85-.12,1.27-.21a9,9,0,0,0,1.35-.36,3.93,3.93,0,0,0,1.41-.83,2.8,2.8,0,0,0,.37-.48"/><path class="cls-1" d="M290.12,66h0l2.62,0c.66,0,1.33,0,2-.07s1.09-.06,1.63-.1c.72-.06,1.44-.12,2.14-.24.46-.07.91-.17,1.37-.28l.14,0"/><path class="cls-1" d="M276.12,53.18a16,16,0,0,1-1.9-5.23,25.11,25.11,0,0,1,.47-11.53,4,4,0,0,1,2.7-3"/><path class="cls-1" d="M299.82,33.87a4.11,4.11,0,0,1,1.81,2.55,25.62,25.62,0,0,1,.9,7.45"/><path class="cls-1" d="M283.7,32.91a6,6,0,0,0,3.25-.43,3.15,3.15,0,0,1,1.21-.24,3.11,3.11,0,0,1,1.21.24,5.89,5.89,0,0,0,2.75.47"/><path class="cls-1" d="M299,31.87l.22-.26a3.47,3.47,0,0,1,.34-.32,2,2,0,0,1,.41-.22,1.28,1.28,0,0,1,.34-.07,1.77,1.77,0,0,1,.23,0"/><path class="cls-1" d="M299.66,33.49l.14-.21c.09-.15.17-.31.27-.46l.24-.38a1.49,1.49,0,0,0,.22-.48,1.32,1.32,0,0,0,.06-.39,1.35,1.35,0,0,0,0-.35c0-.08-.05-.15-.07-.22l-1.2,1.64"/><path class="cls-1" d="M276.88,33.81l-.21-.3-.15-.23-.26-.46c-.08-.13-.17-.25-.25-.39a1.84,1.84,0,0,1-.22-.47,1.34,1.34,0,0,1-.06-.4,1,1,0,0,1,0-.34,1.42,1.42,0,0,1,.07-.22l1.53,2.09"/><path class="cls-1" d="M277.4,31.93c-.08-.11-.17-.21-.26-.32a2.61,2.61,0,0,0-.34-.32,1.44,1.44,0,0,0-.41-.21,1.3,1.3,0,0,0-.34-.08h-.23"/><path class="cls-1" d="M295.89,16.36l.32-.13a2,2,0,0,0,.42-.24,1.11,1.11,0,0,0,.45-.6,1.46,1.46,0,0,0,0-.36,1.36,1.36,0,0,0-.06-.36,1,1,0,0,0-.42-.48,2.67,2.67,0,0,0-.43-.25,3.9,3.9,0,0,0-.48-.17,9.68,9.68,0,0,0-1.51-.33l-.48-.06c-1.85-.21-3.71-.23-5.57-.26s-3.72.05-5.56.26l-.49.06a9.93,9.93,0,0,0-1.51.33,3.9,3.9,0,0,0-.48.17,2.67,2.67,0,0,0-.43.25,1.15,1.15,0,0,0-.42.48,1.36,1.36,0,0,0-.06.36,1.46,1.46,0,0,0,0,.36,1.16,1.16,0,0,0,.45.6,2,2,0,0,0,.43.24c.15.07.32.13.48.19a9.68,9.68,0,0,0,1.51.33l.49.06c1.84.21,3.7.24,5.56.27s3.65-.06,5.45-.26"/><path class="cls-1" d="M271.52,40.15l.11.06a3.68,3.68,0,0,1,.59.45l.5.42c.37.31.73.65,1.09,1"/><path class="cls-1" d="M272.47,54.75l-.07.06a.2.2,0,0,1-.13,0,1,1,0,0,1-.5-.12,3,3,0,0,1-.44-.23,1.75,1.75,0,0,1-.46-.48,3.43,3.43,0,0,1-.34-.62,5.5,5.5,0,0,1-.25-.63c-.13-.37-.23-.76-.33-1.14s-.21-.74-.32-1.12-.19-.77-.28-1.16-.18-.78-.26-1.17-.16-.79-.23-1.19-.16-.8-.23-1.19-.14-.8-.2-1.2-.13-.8-.17-1.2-.09-.8-.14-1.2S268,41.41,268,41a5.55,5.55,0,0,1,.06-.82,2.68,2.68,0,0,1,.15-.65,1.65,1.65,0,0,1,.41-.6,2.81,2.81,0,0,1,.67-.45,2.55,2.55,0,0,1,.35-.14,1.24,1.24,0,0,1,.27,0,.64.64,0,0,1,.24,0,1.29,1.29,0,0,1,.46.31,3,3,0,0,1,.39.41,3.48,3.48,0,0,1,.39.77q.12.27.21.54a9.44,9.44,0,0,1,.27,1.17c.08.4.16.79.23,1.19s.14.79.19,1.19.1.81.15,1.21l.12,1.21c.05.4.09.8.13,1.21s.09.79.12,1.19.06.79.09,1.18a18.75,18.75,0,0,1,0,2.37l-.06.74c0,.24,0,.48-.08.72s-.09.35-.14.52a2,2,0,0,1-.1.26A1.28,1.28,0,0,1,272.47,54.75Z"/><path class="cls-1" d="M304.8,40.15l-.11.06a3.68,3.68,0,0,0-.59.45l-.49.42c-.38.31-.74.65-1.1,1"/><line class="cls-1" x1="294.32" y1="15.78" x2="282" y2="15.78"/><line class="cls-1" x1="294.21" y1="13.93" x2="282.11" y2="13.93"/><line class="cls-1" x1="296.23" y1="14.87" x2="280.09" y2="14.87"/><line class="cls-1" x1="286.35" y1="17.04" x2="286.35" y2="32.64"/><line class="cls-1" x1="287.25" y1="17.06" x2="287.25" y2="32.32"/><line class="cls-1" x1="289.07" y1="17.06" x2="289.07" y2="32.32"/><line class="cls-1" x1="289.97" y1="17.04" x2="289.97" y2="32.64"/><path class="cls-1" d="M306.05,38.4a1.18,1.18,0,0,0-.21-.18.48.48,0,0,0-.2-.07,1.59,1.59,0,0,0-.43-.06,2.1,2.1,0,0,0-.68.19l-1,.41c-.44.17-.89.31-1.34.44"/><path class="cls-1" d="M289.07,30.39c0-.32.18-.37.45-.37s.45.06.45.37"/><path class="cls-1" d="M287.25,30.39c0-.32-.18-.37-.45-.37s-.45.06-.45.37"/><path class="cls-1" d="M270.27,38.4a1.18,1.18,0,0,1,.21-.18.48.48,0,0,1,.2-.07,1.59,1.59,0,0,1,.43-.06,2.1,2.1,0,0,1,.68.19l1,.41c.43.17.88.31,1.33.44"/><path class="cls-1" d="M272.88,53.28a1.05,1.05,0,0,0,.4-.07,1.32,1.32,0,0,0,.25-.16c.17-.13.35-.22.51-.34l.32-.28a4,4,0,0,1,.34-.27l.34-.27.29-.28"/><path class="cls-1" d="M273,51.24l.21-.21a6.38,6.38,0,0,0,.78-1.14l.49-.86"/><path class="cls-1" d="M272.8,53.84l1.46-.39L276,53"/><path class="cls-1" d="M270.35,52.93l-.24.09-.34.15-.58.23a2.38,2.38,0,0,0-.41.23,1.43,1.43,0,0,0-.33.32,1.14,1.14,0,0,0-.18.3,1.42,1.42,0,0,0-.07.22"/><path class="cls-1" d="M279.35,69.35c-.4,0-.81-.09-1.21-.15s-.85-.12-1.27-.21a9,9,0,0,1-1.35-.36,3.93,3.93,0,0,1-1.41-.83,2.91,2.91,0,0,1-.59-.91,3.34,3.34,0,0,1-.21-.68,3.79,3.79,0,0,1-.06-.67,3.6,3.6,0,0,1,.12-.8,6.12,6.12,0,0,1,.22-.69,3.88,3.88,0,0,1,.6-1.14,3,3,0,0,1,.65-.59,11.17,11.17,0,0,1,1.25-.75"/><path class="cls-1" d="M271.13,54.35l-.28.08-.26.07c-.18,0-.35.07-.52.11l-.45.12a1.81,1.81,0,0,1-.52.06,1.32,1.32,0,0,1-.39-.06,1.3,1.3,0,0,1-.32-.14l-.19-.13,2.45-.8"/><rect class="cls-1" x="34.24" y="4.74" width="60.5" height="3.03"/><line class="cls-1" x1="94.74" y1="7.76" x2="137.17" y2="7.76"/><line class="cls-1" x1="94.74" y1="4.74" x2="137.17" y2="4.74"/><path class="cls-1" d="M61.39,17.08c1.86,0,3.72-.06,5.56-.27l.49-.06A8.68,8.68,0,0,0,69,16.41a3.41,3.41,0,0,0,.48-.18,2,2,0,0,0,.43-.24,1.16,1.16,0,0,0,.45-.6,1.5,1.5,0,0,0,0-.73,1.12,1.12,0,0,0-.42-.47,2.67,2.67,0,0,0-.43-.25,3.9,3.9,0,0,0-.48-.17,9.93,9.93,0,0,0-1.51-.33L67,13.38c-1.84-.21-3.7-.23-5.56-.26s-3.72.05-5.57.26l-.48.06a9.68,9.68,0,0,0-1.51.33,3.9,3.9,0,0,0-.48.17,2.67,2.67,0,0,0-.43.25,1.05,1.05,0,0,0-.42.47,1.5,1.5,0,0,0,0,.73,1.11,1.11,0,0,0,.45.6,2,2,0,0,0,.42.24,4.09,4.09,0,0,0,.49.18,8.68,8.68,0,0,0,1.51.34l.48.06C57.67,17,59.53,17.05,61.39,17.08Z"/><path class="cls-1" d="M72.67,33.81l.21-.3.15-.23.26-.46c.08-.13.17-.25.25-.39a1.84,1.84,0,0,0,.22-.47,1.34,1.34,0,0,0,.06-.4,1,1,0,0,0,0-.34,1.42,1.42,0,0,0-.07-.22l-1.78,2.43"/><path class="cls-1" d="M78.42,54.35l.28.08.26.07c.18,0,.35.07.52.11s.3.09.45.12a1.81,1.81,0,0,0,.52.06,1.32,1.32,0,0,0,.39-.06,1.3,1.3,0,0,0,.32-.14l.19-.13-2.45-.8"/><path class="cls-1" d="M61.39,68.61l1.27,0c.64,0,1.27,0,1.91-.06.42,0,.84-.06,1.26-.11s.81-.11,1.22-.2a15.8,15.8,0,0,0,1.68-.45,4.43,4.43,0,0,0,.92-.4c.1-.07.21-.14.2-.23a.23.23,0,0,0-.08-.14.44.44,0,0,0-.22-.1L69,66.76a5.93,5.93,0,0,0-.72-.1c-.47-.06-.94-.11-1.41-.14s-.93,0-1.4-.06-.92,0-1.38,0H58.67l-1.39,0c-.46,0-.93,0-1.39.06s-.94.08-1.41.14a5.93,5.93,0,0,0-.72.1l-.53.14A.52.52,0,0,0,53,67a.27.27,0,0,0-.07.14c0,.09.1.16.2.23a4.43,4.43,0,0,0,.92.4,16.28,16.28,0,0,0,1.67.45c.41.09.82.15,1.23.2s.84.08,1.26.11c.64,0,1.27,0,1.91.06Z"/><path class="cls-1" d="M52.92,67.12c-.12.79-.23,1.59-.35,2.38,0,0,.4.24.73.39a3.94,3.94,0,0,0,1.06.33l1.17.26c.43.09.84.16,1.26.21.65.08,1.3.14,2,.18.88,0,1.76.06,2.64.07s1.76,0,2.64-.07c.66,0,1.31-.1,2-.18q.63-.07,1.26-.21l1.16-.26a3.89,3.89,0,0,0,1.07-.33c.33-.15.73-.39.73-.39-.12-.79-.23-1.59-.35-2.38"/><path class="cls-1" d="M44.36,54.35l-.28.08-.27.07c-.17,0-.34.07-.52.11s-.29.09-.44.12a1.81,1.81,0,0,1-.52.06,1.32,1.32,0,0,1-.39-.06,1.3,1.3,0,0,1-.32-.14l-.19-.13,2.45-.8"/><path class="cls-1" d="M52.58,69.35c-.4,0-.81-.09-1.21-.15s-.85-.12-1.27-.21a9,9,0,0,1-1.35-.36,3.93,3.93,0,0,1-1.41-.83,2.91,2.91,0,0,1-.59-.91,3.34,3.34,0,0,1-.21-.68,3.79,3.79,0,0,1-.06-.67,3.6,3.6,0,0,1,.12-.8,6.12,6.12,0,0,1,.22-.69,3.88,3.88,0,0,1,.6-1.14,3.31,3.31,0,0,1,.65-.59,11.17,11.17,0,0,1,1.25-.75"/><path class="cls-1" d="M43.58,52.93l-.24.09-.34.15-.58.23a2.38,2.38,0,0,0-.41.23,1.43,1.43,0,0,0-.33.32,1.14,1.14,0,0,0-.18.3,1.42,1.42,0,0,0-.07.22"/><path class="cls-1" d="M46.2,51.24l.2-.21a6,6,0,0,0,.79-1.14l.49-.86"/><path class="cls-1" d="M70.2,69.35c.4,0,.81-.09,1.21-.15s.85-.12,1.27-.21A9,9,0,0,0,74,68.63a3.93,3.93,0,0,0,1.41-.83,3.13,3.13,0,0,0,.6-.91,4.07,4.07,0,0,0,.2-.68,3.79,3.79,0,0,0,.06-.67,3.6,3.6,0,0,0-.12-.8,6.12,6.12,0,0,0-.22-.69,3.88,3.88,0,0,0-.6-1.14,3.31,3.31,0,0,0-.65-.59,11.17,11.17,0,0,0-1.25-.75"/><path class="cls-1" d="M79.2,52.93l.24.09.34.15.58.23a2.38,2.38,0,0,1,.41.23,1.66,1.66,0,0,1,.33.32,1.14,1.14,0,0,1,.18.3,1.42,1.42,0,0,1,.07.22"/><path class="cls-1" d="M43.5,38.4a1.18,1.18,0,0,1,.21-.18.48.48,0,0,1,.2-.07,1.54,1.54,0,0,1,.43-.06,2.1,2.1,0,0,1,.68.19l1,.41c.44.17.89.31,1.34.44"/><path class="cls-1" d="M62.3,30.39c0-.32.18-.37.45-.37s.45.06.45.37"/><path class="cls-1" d="M79.28,38.4a1.18,1.18,0,0,0-.21-.18.48.48,0,0,0-.2-.07,1.59,1.59,0,0,0-.43-.06,2.1,2.1,0,0,0-.68.19l-1,.41c-.43.17-.88.31-1.33.44"/><path class="cls-1" d="M71.14,33.19l.36-.48c.09-.12.17-.23.27-.34L72,32.1c.14-.16.26-.33.4-.49a2,2,0,0,1,.34-.31,1.31,1.31,0,0,1,.4-.22A1.47,1.47,0,0,1,73.5,31h.23"/><line class="cls-1" x1="63.2" y1="17.04" x2="63.2" y2="32.64"/><line class="cls-1" x1="69.46" y1="14.87" x2="53.32" y2="14.87"/><line class="cls-1" x1="67.44" y1="13.93" x2="55.34" y2="13.93"/><line class="cls-1" x1="67.55" y1="15.78" x2="55.23" y2="15.78"/><path class="cls-1" d="M77.08,54.75l.07.06a.2.2,0,0,0,.13,0,.94.94,0,0,0,.49-.12,2.71,2.71,0,0,0,.45-.23,1.91,1.91,0,0,0,.46-.48A3.43,3.43,0,0,0,79,53.4a5.5,5.5,0,0,0,.25-.63c.13-.37.22-.76.33-1.14s.21-.74.31-1.12.2-.77.29-1.16.18-.78.26-1.17.16-.79.23-1.19.16-.8.23-1.19.14-.8.2-1.2.13-.8.17-1.2.09-.8.14-1.2.1-.79.11-1.19a5.55,5.55,0,0,0-.06-.82,2.68,2.68,0,0,0-.15-.65,1.78,1.78,0,0,0-.41-.6,2.81,2.81,0,0,0-.67-.45,2.55,2.55,0,0,0-.35-.14,1.24,1.24,0,0,0-.27,0,.61.61,0,0,0-.24,0,1.29,1.29,0,0,0-.46.31,3,3,0,0,0-.39.41,3.48,3.48,0,0,0-.39.77q-.12.27-.21.54a9.44,9.44,0,0,0-.27,1.17c-.08.4-.16.79-.23,1.19s-.14.79-.19,1.19-.1.81-.15,1.21L77,46.36c0,.4-.09.8-.13,1.21s-.09.79-.12,1.19-.06.79-.09,1.18a18.75,18.75,0,0,0,0,2.37l.06.74c0,.24,0,.48.08.72s.09.35.14.52a2,2,0,0,0,.1.26A1.28,1.28,0,0,0,77.08,54.75Z"/><path class="cls-1" d="M78,40.15l-.12.06a3.6,3.6,0,0,0-.58.45l-.5.42c-.37.31-.73.65-1.09,1"/><path class="cls-1" d="M45.69,54.75l-.06.06a.22.22,0,0,1-.13,0,1,1,0,0,1-.5-.12,3.81,3.81,0,0,1-.45-.23,2.1,2.1,0,0,1-.46-.48,5.36,5.36,0,0,1-.34-.62q-.14-.32-.24-.63c-.13-.37-.23-.76-.33-1.14s-.22-.74-.32-1.12-.19-.77-.28-1.16-.18-.78-.26-1.17-.16-.79-.23-1.19-.16-.8-.23-1.19l-.21-1.2c-.06-.4-.12-.8-.17-1.2s-.08-.8-.13-1.2A9.57,9.57,0,0,1,41.24,41a5.55,5.55,0,0,1,.06-.82,2.68,2.68,0,0,1,.15-.65,1.65,1.65,0,0,1,.41-.6,2.81,2.81,0,0,1,.67-.45,2.13,2.13,0,0,1,.35-.14,1.24,1.24,0,0,1,.27,0,.64.64,0,0,1,.24,0,1.29,1.29,0,0,1,.46.31,3,3,0,0,1,.39.41,3.48,3.48,0,0,1,.39.77q.12.27.21.54a9.44,9.44,0,0,1,.27,1.17c.07.4.16.79.23,1.19s.14.79.19,1.19.1.81.14,1.21.09.8.13,1.21.09.8.13,1.21.09.79.12,1.19.06.79.08,1.18a17.06,17.06,0,0,1,.06,2.37l-.06.74a5.9,5.9,0,0,1-.09.72,4.39,4.39,0,0,1-.13.52,2,2,0,0,1-.1.26Z"/><path class="cls-1" d="M44.75,40.15l.11.06a3.68,3.68,0,0,1,.59.45l.49.42c.38.31.74.65,1.1,1"/><path class="cls-1" d="M158.14,40.15l.11.06a3.68,3.68,0,0,1,.59.45c.16.15.33.28.49.42.37.31.74.65,1.09,1"/><path class="cls-1" d="M174.77,56.44a4.8,4.8,0,0,0-2.23.74,3.89,3.89,0,0,1-4.44,1.07A9.73,9.73,0,0,1,164,55.08,15.69,15.69,0,0,1,160.83,48a25.25,25.25,0,0,1,.47-11.53,4.46,4.46,0,0,1,3.46-3.23,19.14,19.14,0,0,1,5.18-.35,5.88,5.88,0,0,0,3.63-.36,3.11,3.11,0,0,1,1.21-.24,3.18,3.18,0,0,1,1.21.24,5.87,5.87,0,0,0,3.63.36,19.19,19.19,0,0,1,5.18.35,4.45,4.45,0,0,1,3.45,3.23A25.25,25.25,0,0,1,188.72,48a15.69,15.69,0,0,1-3.18,7.13,9.73,9.73,0,0,1-4.09,3.17A3.89,3.89,0,0,1,177,57.18,4.73,4.73,0,0,0,174.77,56.44Z"/><path class="cls-1" d="M159.08,54.75s0,0-.07.06a.18.18,0,0,1-.13,0,1,1,0,0,1-.49-.12,3.17,3.17,0,0,1-.45-.23,2.1,2.1,0,0,1-.46-.48,5.36,5.36,0,0,1-.34-.62c-.09-.21-.18-.42-.25-.63-.13-.37-.22-.76-.32-1.14s-.22-.74-.32-1.12-.2-.77-.29-1.16-.17-.78-.25-1.17-.16-.79-.24-1.19-.15-.8-.23-1.19-.14-.8-.2-1.2-.12-.8-.17-1.2-.08-.8-.13-1.2a9.57,9.57,0,0,1-.11-1.19,5.56,5.56,0,0,1,.05-.82,2.29,2.29,0,0,1,.16-.65,1.75,1.75,0,0,1,.4-.6,3.09,3.09,0,0,1,.68-.45,2.13,2.13,0,0,1,.35-.14,1.24,1.24,0,0,1,.27,0,.67.67,0,0,1,.24,0,1.35,1.35,0,0,1,.45.31,2.5,2.5,0,0,1,.39.41,3.51,3.51,0,0,1,.4.77c.07.18.15.36.21.54a9.4,9.4,0,0,1,.26,1.17l.24,1.19c.07.39.13.79.19,1.19s.1.81.14,1.21.09.8.13,1.21.09.8.13,1.21l.12,1.19c0,.39.06.79.08,1.18a18.75,18.75,0,0,1,0,2.37c0,.25,0,.49-.06.74a5.87,5.87,0,0,1-.08.72,3.07,3.07,0,0,1-.14.52,1.14,1.14,0,0,1-.09.26Z"/><path class="cls-1" d="M191.41,40.15l-.11.06a4.19,4.19,0,0,0-.59.45c-.16.15-.33.28-.49.42-.37.31-.73.65-1.09,1"/><path class="cls-1" d="M190.47,54.75s0,0,.07.06a.17.17,0,0,0,.12,0,1,1,0,0,0,.5-.12,3.17,3.17,0,0,0,.45-.23,2.1,2.1,0,0,0,.46-.48,5.36,5.36,0,0,0,.34-.62c.09-.21.18-.42.25-.63.12-.37.22-.76.32-1.14s.22-.74.32-1.12.2-.77.29-1.16.17-.78.25-1.17.16-.79.24-1.19.15-.8.22-1.19.15-.8.21-1.2.12-.8.17-1.2.08-.8.13-1.2a9.57,9.57,0,0,0,.11-1.19,5.56,5.56,0,0,0,0-.82,2.29,2.29,0,0,0-.16-.65,1.65,1.65,0,0,0-.41-.6,2.81,2.81,0,0,0-.67-.45,2.13,2.13,0,0,0-.35-.14,1.24,1.24,0,0,0-.27,0,.67.67,0,0,0-.24,0,1.35,1.35,0,0,0-.45.31,3.09,3.09,0,0,0-.4.41,4,4,0,0,0-.39.77c-.07.18-.15.36-.21.54a9.44,9.44,0,0,0-.27,1.17c-.07.4-.16.79-.23,1.19s-.13.79-.19,1.19-.1.81-.14,1.21-.09.8-.13,1.21-.08.8-.13,1.21l-.12,1.19c0,.39-.06.79-.08,1.18a18.75,18.75,0,0,0-.05,2.37c0,.25,0,.49.06.74a5.87,5.87,0,0,0,.08.72,3.07,3.07,0,0,0,.14.52,1.14,1.14,0,0,0,.09.26Z"/><line class="cls-1" x1="180.94" y1="15.78" x2="168.61" y2="15.78"/><line class="cls-1" x1="180.82" y1="13.93" x2="168.73" y2="13.93"/><line class="cls-1" x1="182.84" y1="14.87" x2="166.71" y2="14.87"/><line class="cls-1" x1="172.96" y1="17.04" x2="172.96" y2="32.64"/><line class="cls-1" x1="173.87" y1="17.06" x2="173.87" y2="32.32"/><line class="cls-1" x1="175.68" y1="17.06" x2="175.68" y2="32.32"/><line class="cls-1" x1="176.59" y1="17.04" x2="176.59" y2="32.64"/><path class="cls-1" d="M184.53,33.19l.36-.48c.08-.12.17-.23.26-.34s.17-.18.25-.27.26-.33.39-.49a3.28,3.28,0,0,1,.34-.31,1.49,1.49,0,0,1,.41-.22,1.4,1.4,0,0,1,.34-.08h.23"/><path class="cls-1" d="M192.66,38.4a1.12,1.12,0,0,0-.2-.18.58.58,0,0,0-.21-.07,1.52,1.52,0,0,0-.42-.06,2.15,2.15,0,0,0-.69.19l-1,.41c-.43.17-.88.31-1.33.44"/><path class="cls-1" d="M175.68,30.39c0-.32.18-.37.45-.37s.46.06.46.37"/><path class="cls-1" d="M173.87,30.39c0-.32-.18-.37-.45-.37s-.46.06-.46.37"/><path class="cls-1" d="M156.89,38.4a1.12,1.12,0,0,1,.2-.18.58.58,0,0,1,.21-.07,1.52,1.52,0,0,1,.42-.06,2.23,2.23,0,0,1,.69.19l1,.41c.43.17.88.31,1.33.44"/><path class="cls-1" d="M165,33.19l-.36-.48c-.08-.12-.17-.23-.26-.34s-.17-.18-.25-.27l-.39-.49a3.28,3.28,0,0,0-.34-.31,1.49,1.49,0,0,0-.41-.22,1.4,1.4,0,0,0-.34-.08h-.23"/><path class="cls-1" d="M192.59,52.93l.24.09.33.15.58.23a1.81,1.81,0,0,1,.41.23,1.47,1.47,0,0,1,.34.32,1.11,1.11,0,0,1,.17.3,1.42,1.42,0,0,1,.07.22"/><line class="cls-1" x1="188.17" y1="51.93" x2="187.46" y2="51.92"/><line class="cls-1" x1="188.18" y1="51.5" x2="187.65" y2="51.49"/><path class="cls-1" d="M190.14,53.84c-.49-.13-1-.27-1.47-.39L186.92,53"/><path class="cls-1" d="M189.69,51a7.06,7.06,0,0,1-.72-1.06l-.48-.86"/><path class="cls-1" d="M188.2,52.13l-.26-.2"/><path class="cls-1" d="M190.06,53.28a1.14,1.14,0,0,1-.41-.07,1.75,1.75,0,0,1-.25-.16c-.16-.13-.34-.22-.5-.34l-.33-.28-.07-.06"/><path class="cls-1" d="M183.16,57.32l.09.07a1,1,0,0,1,.28.44,1.13,1.13,0,0,1,0,.68,1.27,1.27,0,0,1-.27.53,1.59,1.59,0,0,1-.39.34,1.46,1.46,0,0,1-.36.16,1.4,1.4,0,0,1-.5.05,1.42,1.42,0,0,1-.4-.12.9.9,0,0,1-.28-.18,1.07,1.07,0,0,1-.14-.16,1,1,0,0,1-.2-.48,2.09,2.09,0,0,1,0-.25"/><path class="cls-1" d="M183,57.4l.06,0a.84.84,0,0,1,.24.22,1.11,1.11,0,0,1,.14.29,1.08,1.08,0,0,1,0,.44,1.17,1.17,0,0,1-.13.44,1.94,1.94,0,0,1-.21.29,1.48,1.48,0,0,1-.29.22,1.22,1.22,0,0,1-.33.14.86.86,0,0,1-.23.05,1.14,1.14,0,0,1-.45-.05.85.85,0,0,1-.3-.15.7.7,0,0,1-.16-.14,1.27,1.27,0,0,1-.18-.27,1.16,1.16,0,0,1-.07-.31.89.89,0,0,1,0-.23,0,0,0,0,1,0,0"/><path class="cls-1" d="M183.43,57.13l.2.3a1.71,1.71,0,0,1,.25.61,1.34,1.34,0,0,1,0,.49,1.63,1.63,0,0,1-.13.48,1.61,1.61,0,0,1-.44.59,1.56,1.56,0,0,1-.65.34,1.72,1.72,0,0,1-.6,0,1.77,1.77,0,0,1-.59-.19,1.57,1.57,0,0,1-.42-.35,1.82,1.82,0,0,1-.31-.47,2.53,2.53,0,0,1-.19-.48"/><path class="cls-1" d="M183.58,69.35l1.22-.15c.42-.06.85-.12,1.27-.21a9,9,0,0,0,1.35-.36,3.8,3.8,0,0,0,1.4-.83,2.77,2.77,0,0,0,.6-.91,3.31,3.31,0,0,0,.2-.68,2.54,2.54,0,0,0,.06-.67,3.59,3.59,0,0,0-.11-.8c-.06-.23-.14-.46-.22-.69a3.69,3.69,0,0,0-.61-1.14,3,3,0,0,0-.64-.59,12.16,12.16,0,0,0-1.25-.75"/><path class="cls-1" d="M183.58,57a2.57,2.57,0,0,1,.29.44,1.91,1.91,0,0,1,.22.7,1.77,1.77,0,0,1-.91,1.77,2,2,0,0,1-.4.17"/><line class="cls-1" x1="177.53" y1="57.69" x2="177.89" y2="60.15"/><path class="cls-1" d="M181.32,59.89a.57.57,0,0,1-.13-.08,2,2,0,0,1-.48-.56,3.37,3.37,0,0,1-.32-.73"/><line class="cls-1" x1="172.02" y1="57.69" x2="171.66" y2="60.15"/><path class="cls-1" d="M159.49,53.28a1.14,1.14,0,0,0,.41-.07,2.56,2.56,0,0,0,.25-.16c.16-.13.34-.22.5-.34l.33-.28a2.88,2.88,0,0,1,.34-.27l.33-.27a3.9,3.9,0,0,0,.29-.28"/><path class="cls-1" d="M159.58,51.24l.21-.21a6,6,0,0,0,.79-1.14l.48-.86"/><path class="cls-1" d="M159.41,53.84c.49-.13,1-.27,1.47-.39l1.75-.46"/><path class="cls-1" d="M157,52.93l-.24.09c-.11,0-.22.11-.33.15l-.59.23a2,2,0,0,0-.4.23,1.47,1.47,0,0,0-.34.32,1.49,1.49,0,0,0-.18.3l-.06.22"/><path class="cls-1" d="M166,69.35l-1.22-.15c-.42-.06-.85-.12-1.27-.21a9,9,0,0,1-1.35-.36,3.8,3.8,0,0,1-1.4-.83,2.77,2.77,0,0,1-.6-.91,3.31,3.31,0,0,1-.2-.68,2.54,2.54,0,0,1-.06-.67,3.59,3.59,0,0,1,.11-.8c.06-.23.14-.46.22-.69a3.88,3.88,0,0,1,.6-1.14,3.31,3.31,0,0,1,.65-.59,12.16,12.16,0,0,1,1.25-.75"/><path class="cls-1" d="M157.75,54.35l-.29.08-.26.07c-.17,0-.35.07-.52.11s-.29.09-.44.12a1.85,1.85,0,0,1-.52.06,1.39,1.39,0,0,1-.4-.06,1.3,1.3,0,0,1-.32-.14l-.19-.13,2.45-.8"/><path class="cls-1" d="M166.31,67.12,166,69.5s.41.24.73.39a4,4,0,0,0,1.07.33l1.16.26c.43.09.85.16,1.27.21.64.08,1.3.14,1.95.18.88,0,1.77.06,2.65.07s1.76,0,2.64-.07c.65,0,1.31-.1,2-.18q.62-.07,1.26-.21l1.16-.26a4,4,0,0,0,1.07-.33c.32-.15.73-.39.73-.39l-.36-2.38"/><path class="cls-1" d="M174.77,66l2,0c.88,0,1.75,0,2.62,0,.67,0,1.33,0,2-.07s1.08-.06,1.63-.1c.71-.06,1.43-.12,2.14-.24.46-.07.91-.17,1.37-.28a3.83,3.83,0,0,0,1.15-.4,1.89,1.89,0,0,0,.8-.83,1.25,1.25,0,0,0,.13-.73,1.51,1.51,0,0,0-.35-.61,3.51,3.51,0,0,0-.62-.6,6.91,6.91,0,0,0-.78-.5,14.46,14.46,0,0,0-1.36-.69,8.91,8.91,0,0,0-1.13-.4c-.46-.13-.92-.24-1.39-.33a13.48,13.48,0,0,0-2.37-.3,8.9,8.9,0,0,0-1.55.08c-.39.06-.77.14-1.16.22s-1,.25-1.58.32-1,.1-1.53.13-1-.06-1.54-.13-1.05-.2-1.58-.32c-.38-.08-.77-.16-1.16-.22a8.9,8.9,0,0,0-1.55-.08,13.48,13.48,0,0,0-2.37.3c-.47.09-.93.2-1.39.33a8.91,8.91,0,0,0-1.13.4,14.46,14.46,0,0,0-1.36.69,6.91,6.91,0,0,0-.78.5,3.9,3.9,0,0,0-.62.6,1.51,1.51,0,0,0-.35.61,1.25,1.25,0,0,0,.13.73,2,2,0,0,0,.8.83,3.83,3.83,0,0,0,1.15.4c.46.11.91.21,1.37.28.71.12,1.43.18,2.14.24.55,0,1.09.08,1.63.1s1.33.06,2,.07c.87,0,1.75,0,2.62,0Z"/><path class="cls-1" d="M174.77,68.61l1.27,0c.64,0,1.28,0,1.91-.06.43,0,.85-.06,1.27-.11s.81-.11,1.22-.2a16.47,16.47,0,0,0,1.68-.45,4.36,4.36,0,0,0,.91-.4c.11-.07.22-.14.21-.23a.29.29,0,0,0-.08-.14.52.52,0,0,0-.23-.1l-.53-.14a5.52,5.52,0,0,0-.71-.1c-.47-.06-.94-.11-1.42-.14s-.92,0-1.39-.06-.92,0-1.39,0h-5.43c-.47,0-.93,0-1.39,0s-.93,0-1.39.06-.95.08-1.42.14a5.52,5.52,0,0,0-.71.1l-.53.14a.52.52,0,0,0-.23.1.29.29,0,0,0-.08.14c0,.09.1.16.21.23a4.36,4.36,0,0,0,.91.4,16.47,16.47,0,0,0,1.68.45c.41.09.81.15,1.22.2s.84.08,1.26.11c.64,0,1.28,0,1.92.06Z"/><path class="cls-1" d="M191.8,54.35l.29.08.26.07c.17,0,.35.07.52.11s.29.09.44.12a1.85,1.85,0,0,0,.52.06,1.39,1.39,0,0,0,.4-.06,1.3,1.3,0,0,0,.32-.14l.18-.13-2.44-.8"/><path class="cls-1" d="M163.5,33.81l-.21-.3c0-.08-.11-.15-.15-.23s-.17-.31-.27-.46-.17-.25-.25-.39a1.84,1.84,0,0,1-.22-.47,2.57,2.57,0,0,1-.06-.4,2,2,0,0,1,0-.34c0-.08,0-.15.07-.22l1.66,2.27"/><path class="cls-1" d="M186.05,33.81l.21-.3c.05-.08.11-.15.15-.23s.17-.31.27-.46.17-.25.25-.39a1.84,1.84,0,0,0,.22-.47,2.57,2.57,0,0,0,.06-.4,2,2,0,0,0,0-.34c0-.08-.05-.15-.07-.22l-1.78,2.43"/><path class="cls-1" d="M174.77,17.08c1.86,0,3.73-.06,5.57-.27l.48-.06a8.79,8.79,0,0,0,1.52-.34,4.68,4.68,0,0,0,.48-.18,1.76,1.76,0,0,0,.42-.24,1.13,1.13,0,0,0,.46-.6,1.5,1.5,0,0,0,0-.37,1.15,1.15,0,0,0-.07-.36,1.05,1.05,0,0,0-.42-.47,2.22,2.22,0,0,0-.42-.25,4,4,0,0,0-.49-.17,9.68,9.68,0,0,0-1.51-.33l-.48-.06c-1.85-.21-3.71-.23-5.57-.26s-3.72.05-5.56.26l-.48.06a10.06,10.06,0,0,0-1.52.33,4.59,4.59,0,0,0-.48.17,2.58,2.58,0,0,0-.42.25,1.05,1.05,0,0,0-.42.47,1.15,1.15,0,0,0-.07.36,1.5,1.5,0,0,0,0,.37,1.18,1.18,0,0,0,.46.6,1.76,1.76,0,0,0,.42.24,4.68,4.68,0,0,0,.48.18,9,9,0,0,0,1.52.34l.48.06C171.05,17,172.91,17.05,174.77,17.08Z"/><path class="cls-1" d="M190,51a4.55,4.55,0,0,0-1.72.18,1.93,1.93,0,0,0,0,1.14,4.71,4.71,0,0,0,1.75.21"/><line class="cls-1" x1="208.12" y1="4.74" x2="250.55" y2="4.74"/><line class="cls-1" x1="208.12" y1="7.76" x2="250.55" y2="7.76"/><rect class="cls-1" x="208.12" y="0.5" width="42.43" height="13.46"/><rect class="cls-1" x="147.63" y="4.74" width="60.5" height="3.03"/><rect class="cls-1" x="261.01" y="4.74" width="60.5" height="3.03"/><rect class="cls-1" x="321.51" y="0.5" width="42.43" height="13.46"/><line class="cls-1" x1="321.51" y1="7.76" x2="363.94" y2="7.76"/><line class="cls-1" x1="321.51" y1="4.74" x2="363.94" y2="4.74"/><path class="cls-1" d="M384.91,40.15l.11.06a3.68,3.68,0,0,1,.59.45c.16.15.33.28.49.42.38.31.74.65,1.1,1"/><path class="cls-1" d="M401.55,56.44a4.77,4.77,0,0,0-2.23.74,3.9,3.9,0,0,1-4.44,1.07,9.61,9.61,0,0,1-4.09-3.17A15.7,15.7,0,0,1,387.6,48a25.12,25.12,0,0,1,.48-11.53,4.44,4.44,0,0,1,3.45-3.23,19.14,19.14,0,0,1,5.18-.35,5.88,5.88,0,0,0,3.63-.36,3.11,3.11,0,0,1,1.21-.24,3.15,3.15,0,0,1,1.21.24,5.87,5.87,0,0,0,3.63.36,19.17,19.17,0,0,1,5.18.35A4.45,4.45,0,0,1,415,36.42,25.25,25.25,0,0,1,415.49,48a15.69,15.69,0,0,1-3.18,7.13,9.73,9.73,0,0,1-4.09,3.17,3.89,3.89,0,0,1-4.44-1.07A4.69,4.69,0,0,0,401.55,56.44Z"/><path class="cls-1" d="M385.85,54.75s0,0-.07.06a.17.17,0,0,1-.12,0,1,1,0,0,1-.5-.12,3.17,3.17,0,0,1-.45-.23,2.1,2.1,0,0,1-.46-.48,5.36,5.36,0,0,1-.34-.62c-.09-.21-.18-.42-.25-.63-.12-.37-.22-.76-.32-1.14s-.22-.74-.32-1.12-.2-.77-.29-1.16-.17-.78-.25-1.17L382.24,47c-.07-.4-.15-.8-.22-1.19s-.14-.8-.21-1.2-.12-.8-.17-1.2-.08-.8-.13-1.2A9.57,9.57,0,0,1,381.4,41a5.56,5.56,0,0,1,.05-.82,2.29,2.29,0,0,1,.16-.65,1.65,1.65,0,0,1,.41-.6,2.81,2.81,0,0,1,.67-.45,2.13,2.13,0,0,1,.35-.14,1.24,1.24,0,0,1,.27,0,.67.67,0,0,1,.24,0,1.25,1.25,0,0,1,.45.31,3.09,3.09,0,0,1,.4.41,3.48,3.48,0,0,1,.39.77c.07.18.15.36.21.54a9.44,9.44,0,0,1,.27,1.17c.07.4.16.79.23,1.19s.13.79.19,1.19.1.81.14,1.21.09.8.13,1.21.08.8.13,1.21.09.79.12,1.19.06.79.08,1.18a20.84,20.84,0,0,1,.06,2.37c0,.25,0,.49-.07.74a5.87,5.87,0,0,1-.08.72,4.39,4.39,0,0,1-.13.52,2,2,0,0,1-.1.26Z"/><path class="cls-1" d="M418.18,40.15l-.11.06a4.19,4.19,0,0,0-.59.45c-.16.15-.33.28-.49.42-.37.31-.73.65-1.09,1"/><path class="cls-1" d="M417.24,54.75s0,0,.07.06a.2.2,0,0,0,.13,0,1,1,0,0,0,.49-.12,2.71,2.71,0,0,0,.45-.23,2.1,2.1,0,0,0,.46-.48,3.43,3.43,0,0,0,.34-.62,5.5,5.5,0,0,0,.25-.63c.13-.37.22-.76.33-1.14s.21-.74.31-1.12.2-.77.29-1.16.18-.78.26-1.17.15-.79.23-1.19.15-.8.23-1.19.14-.8.2-1.2.12-.8.17-1.2.09-.8.13-1.2.11-.79.12-1.19a5.55,5.55,0,0,0-.06-.82,2.29,2.29,0,0,0-.16-.65,1.75,1.75,0,0,0-.4-.6,2.87,2.87,0,0,0-.68-.45,1.83,1.83,0,0,0-.35-.14,1.12,1.12,0,0,0-.27,0,.67.67,0,0,0-.24,0,1.35,1.35,0,0,0-.45.31,3,3,0,0,0-.39.41,4,4,0,0,0-.4.77c-.07.18-.15.36-.21.54a9.4,9.4,0,0,0-.26,1.17l-.24,1.19c-.07.39-.13.79-.18,1.19s-.1.81-.15,1.21-.09.8-.13,1.21-.08.8-.13,1.21l-.12,1.19c0,.39-.05.79-.08,1.18a18.75,18.75,0,0,0-.05,2.37c0,.25,0,.49.06.74s0,.48.08.72a3.07,3.07,0,0,0,.14.52,2,2,0,0,0,.1.26A1.28,1.28,0,0,0,417.24,54.75Z"/><line class="cls-1" x1="407.71" y1="15.78" x2="395.38" y2="15.78"/><line class="cls-1" x1="407.6" y1="13.93" x2="395.5" y2="13.93"/><line class="cls-1" x1="409.61" y1="14.87" x2="393.48" y2="14.87"/><line class="cls-1" x1="399.73" y1="17.04" x2="399.73" y2="32.64"/><line class="cls-1" x1="400.64" y1="17.06" x2="400.64" y2="32.32"/><line class="cls-1" x1="402.45" y1="17.06" x2="402.45" y2="32.32"/><line class="cls-1" x1="403.36" y1="17.04" x2="403.36" y2="32.64"/><path class="cls-1" d="M411.3,33.19l.36-.48.26-.34c.08-.1.17-.18.25-.27s.26-.33.4-.49a2.42,2.42,0,0,1,.33-.31,1.49,1.49,0,0,1,.41-.22,1.4,1.4,0,0,1,.34-.08h.23"/><path class="cls-1" d="M419.43,38.4a.86.86,0,0,0-.2-.18.58.58,0,0,0-.21-.07,1.52,1.52,0,0,0-.42-.06,2.23,2.23,0,0,0-.69.19l-1,.41c-.43.17-.88.31-1.33.44"/><path class="cls-1" d="M402.45,30.39c0-.32.18-.37.46-.37s.45.06.45.37"/><path class="cls-1" d="M400.64,30.39c0-.32-.18-.37-.45-.37s-.46.06-.46.37"/><path class="cls-1" d="M383.66,38.4a.91.91,0,0,1,.21-.18.48.48,0,0,1,.2-.07,1.52,1.52,0,0,1,.42-.06,2.09,2.09,0,0,1,.69.19l1,.41c.44.17.89.31,1.33.44"/><path class="cls-1" d="M391.8,33.19l-.37-.48c-.08-.12-.17-.23-.26-.34s-.17-.18-.25-.27l-.39-.49a3.28,3.28,0,0,0-.34-.31,1.49,1.49,0,0,0-.41-.22,1.4,1.4,0,0,0-.34-.08h-.23"/><path class="cls-1" d="M419.36,52.93l.24.09c.11,0,.22.11.33.15l.59.23a2,2,0,0,1,.4.23,1.47,1.47,0,0,1,.34.32,1.49,1.49,0,0,1,.18.3l.06.22"/><line class="cls-1" x1="414.95" y1="51.93" x2="414.23" y2="51.92"/><line class="cls-1" x1="414.95" y1="51.5" x2="414.43" y2="51.49"/><path class="cls-1" d="M416.91,53.84c-.49-.13-1-.27-1.47-.39L413.69,53"/><path class="cls-1" d="M416.46,51a7.06,7.06,0,0,1-.72-1.06l-.48-.86"/><path class="cls-1" d="M415,52.13l-.26-.2"/><path class="cls-1" d="M416.83,53.28a1.05,1.05,0,0,1-.4-.07,1.32,1.32,0,0,1-.25-.16c-.17-.13-.35-.22-.51-.34l-.32-.28-.08-.06"/><path class="cls-1" d="M409.93,57.32l.09.07a1,1,0,0,1,.28.44,1.13,1.13,0,0,1,0,.68,1.27,1.27,0,0,1-.27.53,1.59,1.59,0,0,1-.39.34,1.46,1.46,0,0,1-.36.16,1.4,1.4,0,0,1-.5.05,1.42,1.42,0,0,1-.4-.12.9.9,0,0,1-.28-.18,1.07,1.07,0,0,1-.14-.16,1,1,0,0,1-.2-.48,2.09,2.09,0,0,1,0-.25"/><path class="cls-1" d="M409.81,57.4l.06,0a.84.84,0,0,1,.24.22.86.86,0,0,1,.14.29,1.29,1.29,0,0,1,0,.44,1.41,1.41,0,0,1-.14.44,1.94,1.94,0,0,1-.21.29,1.23,1.23,0,0,1-.29.22,1.3,1.3,0,0,1-.32.14,1,1,0,0,1-.24.05,1.16,1.16,0,0,1-.45-.05.8.8,0,0,1-.29-.15.75.75,0,0,1-.17-.14,1,1,0,0,1-.17-.27,1.09,1.09,0,0,1-.08-.54s0,0,0,0"/><path class="cls-1" d="M410.2,57.13l.2.3a1.94,1.94,0,0,1,.26.61,1.6,1.6,0,0,1,0,.49,1.63,1.63,0,0,1-.13.48,1.58,1.58,0,0,1-.43.59,1.63,1.63,0,0,1-.65.34,1.8,1.8,0,0,1-.61,0,1.72,1.72,0,0,1-.58-.19,1.47,1.47,0,0,1-.43-.35,2.13,2.13,0,0,1-.31-.47,3.43,3.43,0,0,1-.19-.48"/><path class="cls-1" d="M410.35,69.35l1.22-.15c.43-.06.85-.12,1.27-.21a9,9,0,0,0,1.35-.36,3.93,3.93,0,0,0,1.41-.83,2.91,2.91,0,0,0,.59-.91,4.11,4.11,0,0,0,.21-.68,3.79,3.79,0,0,0,.06-.67,4.29,4.29,0,0,0-.12-.8,6.12,6.12,0,0,0-.22-.69,3.88,3.88,0,0,0-.6-1.14,3.31,3.31,0,0,0-.65-.59,12.16,12.16,0,0,0-1.25-.75"/><path class="cls-1" d="M410.35,57a2.57,2.57,0,0,1,.29.44,1.79,1.79,0,0,1-.06,1.89,1.84,1.84,0,0,1-.63.58,1.78,1.78,0,0,1-.4.17"/><line class="cls-1" x1="404.3" y1="57.69" x2="404.66" y2="60.15"/><path class="cls-1" d="M408.09,59.89l-.13-.08a2.16,2.16,0,0,1-.48-.56,3.94,3.94,0,0,1-.32-.73"/><line class="cls-1" x1="398.79" y1="57.69" x2="398.43" y2="60.15"/><path class="cls-1" d="M386.26,53.28a1.14,1.14,0,0,0,.41-.07,1.75,1.75,0,0,0,.25-.16c.16-.13.34-.22.5-.34s.22-.19.33-.28a2.88,2.88,0,0,1,.34-.27l.34-.27.29-.28"/><path class="cls-1" d="M386.36,51.24l.2-.21a6,6,0,0,0,.79-1.14l.48-.86"/><path class="cls-1" d="M386.19,53.84c.48-.13,1-.27,1.46-.39L389.4,53"/><path class="cls-1" d="M383.73,52.93l-.24.09-.33.15-.58.23a2.06,2.06,0,0,0-.41.23,1.26,1.26,0,0,0-.33.32.92.92,0,0,0-.18.3,1.42,1.42,0,0,0-.07.22"/><path class="cls-1" d="M392.74,69.35l-1.22-.15c-.42-.06-.85-.12-1.27-.21a9.63,9.63,0,0,1-1.35-.36,3.89,3.89,0,0,1-1.4-.83,2.77,2.77,0,0,1-.6-.91,3.31,3.31,0,0,1-.2-.68,3,3,0,0,1-.06-.67,3.59,3.59,0,0,1,.11-.8c.06-.23.14-.46.22-.69a3.69,3.69,0,0,1,.61-1.14,3.25,3.25,0,0,1,.64-.59,13.33,13.33,0,0,1,1.25-.75"/><path class="cls-1" d="M384.52,54.35l-.29.08-.26.07c-.17,0-.35.07-.52.11s-.29.09-.44.12a1.85,1.85,0,0,1-.52.06,1.27,1.27,0,0,1-.39-.06,1.22,1.22,0,0,1-.33-.14l-.18-.13,2.44-.8"/><path class="cls-1" d="M393.08,67.12c-.12.79-.24,1.59-.35,2.38,0,0,.4.24.73.39a3.94,3.94,0,0,0,1.06.33l1.17.26q.63.13,1.26.21c.64.08,1.3.14,1.95.18.89,0,1.77.06,2.65.07s1.76,0,2.64-.07c.66,0,1.31-.1,2-.18.42,0,.83-.12,1.26-.21l1.16-.26a4,4,0,0,0,1.07-.33c.32-.15.73-.39.73-.39L410,67.12"/><path class="cls-1" d="M401.55,66l2,0c.88,0,1.75,0,2.62,0,.67,0,1.33,0,2-.07s1.08-.06,1.63-.1c.71-.06,1.43-.12,2.14-.24.46-.07.91-.17,1.37-.28a3.83,3.83,0,0,0,1.15-.4,1.89,1.89,0,0,0,.8-.83,1.25,1.25,0,0,0,.13-.73,1.51,1.51,0,0,0-.35-.61,3.46,3.46,0,0,0-.61-.6,8.09,8.09,0,0,0-.79-.5,14.46,14.46,0,0,0-1.36-.69,8.39,8.39,0,0,0-1.13-.4c-.46-.13-.92-.24-1.39-.33a13.48,13.48,0,0,0-2.37-.3,9,9,0,0,0-1.55.08c-.39.06-.77.14-1.16.22s-1.05.25-1.58.32-1,.1-1.53.13-1-.06-1.54-.13-1.05-.2-1.58-.32-.77-.16-1.16-.22a8.9,8.9,0,0,0-1.55-.08,13.6,13.6,0,0,0-2.37.3c-.47.09-.93.2-1.39.33a9.5,9.5,0,0,0-1.13.4,14.46,14.46,0,0,0-1.36.69,6.91,6.91,0,0,0-.78.5,3.9,3.9,0,0,0-.62.6,1.51,1.51,0,0,0-.35.61,1.25,1.25,0,0,0,.13.73,2,2,0,0,0,.8.83,3.89,3.89,0,0,0,1.16.4c.45.11.9.21,1.36.28.71.12,1.43.18,2.14.24.55,0,1.09.08,1.64.1s1.32.06,2,.07c.87,0,1.75,0,2.62,0Z"/><path class="cls-1" d="M401.55,68.61l1.27,0c.63,0,1.27,0,1.91-.06.42,0,.84-.06,1.26-.11s.81-.11,1.22-.2a15.8,15.8,0,0,0,1.68-.45,4.36,4.36,0,0,0,.91-.4c.11-.07.22-.14.21-.23a.29.29,0,0,0-.08-.14.48.48,0,0,0-.23-.1l-.52-.14a5.93,5.93,0,0,0-.72-.1c-.47-.06-.94-.11-1.41-.14s-.93,0-1.4-.06-.92,0-1.39,0h-5.43c-.47,0-.93,0-1.39,0s-.93,0-1.39.06-.94.08-1.41.14a5.67,5.67,0,0,0-.72.1l-.53.14a.52.52,0,0,0-.23.1.29.29,0,0,0-.08.14c0,.09.11.16.21.23a4.61,4.61,0,0,0,.91.4,16.47,16.47,0,0,0,1.68.45c.41.09.82.15,1.22.2s.84.08,1.27.11c.63,0,1.27,0,1.91.06Z"/><path class="cls-1" d="M418.57,54.35l.29.08.26.07c.17,0,.35.07.52.11l.44.12a1.85,1.85,0,0,0,.52.06,1.34,1.34,0,0,0,.4-.06,1.3,1.3,0,0,0,.32-.14l.19-.13-2.45-.8"/><path class="cls-1" d="M390.27,33.81l-.21-.3-.15-.23c-.09-.15-.17-.31-.27-.46l-.25-.39a1.54,1.54,0,0,1-.21-.47,1.76,1.76,0,0,1-.07-.4,1.32,1.32,0,0,1,0-.34,1.41,1.41,0,0,1,.06-.22l1.66,2.27"/><path class="cls-1" d="M412.82,33.81l.21-.3a1.5,1.5,0,0,0,.15-.23c.1-.15.18-.31.27-.46s.17-.25.25-.39a1.84,1.84,0,0,0,.22-.47,1.34,1.34,0,0,0,.06-.4,1.31,1.31,0,0,0,0-.34,1.42,1.42,0,0,0-.07-.22l-1.78,2.43"/><path class="cls-1" d="M401.55,17.08c1.86,0,3.72-.06,5.56-.27l.49-.06a8.68,8.68,0,0,0,1.51-.34,4.68,4.68,0,0,0,.48-.18A1.76,1.76,0,0,0,410,16a1.13,1.13,0,0,0,.46-.6,1.5,1.5,0,0,0,0-.37,1.15,1.15,0,0,0-.07-.36,1.09,1.09,0,0,0-.41-.47,2.67,2.67,0,0,0-.43-.25,4.59,4.59,0,0,0-.48-.17,9.93,9.93,0,0,0-1.51-.33l-.49-.06c-1.84-.21-3.7-.23-5.56-.26s-3.73.05-5.57.26l-.48.06a9.68,9.68,0,0,0-1.51.33,4,4,0,0,0-.49.17,2.58,2.58,0,0,0-.42.25,1.05,1.05,0,0,0-.42.47,1.15,1.15,0,0,0-.07.36,1.5,1.5,0,0,0,0,.37,1.18,1.18,0,0,0,.46.6,1.76,1.76,0,0,0,.42.24,4.68,4.68,0,0,0,.48.18,9,9,0,0,0,1.52.34l.48.06C397.83,17,399.69,17.05,401.55,17.08Z"/><path class="cls-1" d="M416.75,51a4.59,4.59,0,0,0-1.73.18,2,2,0,0,0,0,1.14,4.71,4.71,0,0,0,1.75.21"/><line class="cls-1" x1="434.89" y1="4.74" x2="477.33" y2="4.74"/><line class="cls-1" x1="434.89" y1="7.76" x2="477.33" y2="7.76"/><rect class="cls-1" x="434.89" y="0.5" width="42.43" height="13.46"/><rect class="cls-1" x="374.4" y="4.74" width="60.5" height="3.03"/><polyline class="cls-1" points="61.25 265.33 34.24 265.33 34.24 278.79 76.67 278.79 76.67 265.33 76.17 265.33"/><path class="cls-1" d="M93.88,225.41h-.64l-.53.05-.46,0a1.76,1.76,0,0,0-.51.09,1.22,1.22,0,0,0-.36.18,1.13,1.13,0,0,0-.27.22l-.14.18,2.82.06"/><path class="cls-1" d="M128.86,214.72l.72,1.05c.35.53.71,1.06,1,1.6.22.36.43.73.63,1.1s.37.73.54,1.12a16.06,16.06,0,0,1,.59,1.63,3.87,3.87,0,0,1,.19,1c0,.12,0,.25-.07.3a.25.25,0,0,1-.15,0,.59.59,0,0,1-.22-.12c-.14-.12-.28-.23-.41-.36a5,5,0,0,1-.5-.53c-.31-.35-.62-.71-.92-1.07l-.85-1.11c-.27-.37-.55-.75-.81-1.12l-.8-1.12-.78-1.1-.76-1.1-.78-1.14c-.26-.38-.52-.76-.77-1.15s-.51-.78-.75-1.18-.47-.82-.69-1.23c-.12-.22-.23-.43-.33-.65s-.13-.34-.19-.51a.53.53,0,0,1,0-.25.3.3,0,0,1,.06-.14c.07-.06.2,0,.31,0a4,4,0,0,1,.85.52,15,15,0,0,1,1.33,1.11c.31.29.59.59.86.89s.56.64.82,1c.4.5.77,1,1.15,1.53Z"/><path class="cls-1" d="M122.8,208.63l1.74-1.65s.43.19.74.37a4,4,0,0,1,.88.69c.27.25.59.52.88.8s.61.61.9.92c.43.48.86,1,1.26,1.5.55.69,1.06,1.41,1.57,2.13s1,1.45,1.46,2.2c.35.56.67,1.13,1,1.71.19.37.38.75.55,1.15s.31.77.45,1.1a4.35,4.35,0,0,1,.34,1.07c.06.35.1.82.1.82l-2.15,1.07"/><path class="cls-1" d="M124.42,207.08l-.81-.92c-.29-.31-.59-.62-.9-.92a10.19,10.19,0,0,0-1.07-.9,3.79,3.79,0,0,0-1.49-.67,2.81,2.81,0,0,0-1.08,0,3.37,3.37,0,0,0-.68.22,2.84,2.84,0,0,0-.58.34,3.41,3.41,0,0,0-.59.55,6.17,6.17,0,0,0-.44.57,4,4,0,0,0-.59,1.15,3.64,3.64,0,0,0-.11.87,11.64,11.64,0,0,0,.1,1.45"/><path class="cls-1" d="M134.51,221.52c.2.35.39.71.58,1.08s.39.77.56,1.16a9.71,9.71,0,0,1,.47,1.31,3.75,3.75,0,0,1,.12,1.63,2.91,2.91,0,0,1-.39,1,3.26,3.26,0,0,1-1.68,1.35,6.12,6.12,0,0,1-.69.22,4,4,0,0,1-1.29.16,3.19,3.19,0,0,1-.85-.2,13.12,13.12,0,0,1-1.33-.59"/><path class="cls-1" d="M94.25,227l-.61,0a3.1,3.1,0,0,1-.43,0l-.36,0c-.21,0-.42,0-.63-.05a2.42,2.42,0,0,1-.45-.1,1.44,1.44,0,0,1-.41-.21,1.2,1.2,0,0,1-.26-.24.91.91,0,0,1-.13-.19"/><path class="cls-1" d="M93.86,217.36a.83.83,0,0,0,0,.27.8.8,0,0,0,0,.21,1.52,1.52,0,0,0,.2.38,2,2,0,0,0,.55.45l.9.58c.38.26.75.54,1.12.83"/><path class="cls-1" d="M114.35,246.68a.82.82,0,0,1-.27-.06l-.18-.12a1.4,1.4,0,0,1-.28-.32,2,2,0,0,1-.24-.67c-.08-.35-.15-.7-.23-1s-.26-.9-.4-1.35"/><path class="cls-1" d="M115.06,244.66s0-.08,0-.13a4.63,4.63,0,0,1,0-.74l.06-.64c0-.49.12-1,.19-1.47"/><path class="cls-1" d="M96,217.38l.12.06a3.44,3.44,0,0,0,.71.22l.62.17c.47.13,1,.23,1.44.33"/><line class="cls-1" x1="81.31" y1="242.12" x2="80.58" y2="241.08"/><path class="cls-1" d="M80.86,242.6c-.16-.27-.31-.54-.46-.81l-.22-.43a9,9,0,0,1-.6-1.43,2.75,2.75,0,0,1-.14-.49,2.63,2.63,0,0,1,0-.49,1.08,1.08,0,0,1,.15-.62,1.28,1.28,0,0,1,.26-.26,1.39,1.39,0,0,1,.31-.18,1.17,1.17,0,0,1,.76,0,3,3,0,0,1,.44.21,4.15,4.15,0,0,1,.43.3,10.19,10.19,0,0,1,1.14,1c.11.12.22.24.32.37l.39.44"/><line class="cls-1" x1="81.97" y1="241.43" x2="80.19" y2="238.89"/><line class="cls-1" x1="82.7" y1="240.89" x2="82.03" y2="239.93"/><line class="cls-1" x1="87.51" y1="250.99" x2="84.38" y2="246.52"/><line class="cls-1" x1="89.43" y1="252.11" x2="85.28" y2="246.17"/><line class="cls-1" x1="89.08" y1="250.03" x2="86" y2="245.62"/><path class="cls-1" d="M86.92,244.67c.94,1.4,1.87,2.81,2.67,4.28l.23.43a9.36,9.36,0,0,1,.59,1.43,4.77,4.77,0,0,1,.13.51,1.87,1.87,0,0,1,0,.48,1.13,1.13,0,0,1-.23.72,1.56,1.56,0,0,1-.28.23,1.61,1.61,0,0,1-.33.15,1.18,1.18,0,0,1-.64-.06,3.55,3.55,0,0,1-.44-.21,3.19,3.19,0,0,1-.42-.3,10.25,10.25,0,0,1-1.13-1.05l-.33-.36c-1.14-1.3-2.16-2.7-3.17-4.1"/><line class="cls-1" x1="87.13" y1="244.99" x2="89.9" y2="243.05"/><line class="cls-1" x1="87.63" y1="245.74" x2="92.78" y2="242.14"/><path class="cls-1" d="M105.42,243a.14.14,0,0,0,0,.06"/><path class="cls-1" d="M104.91,244.73l-.06.21a2.44,2.44,0,0,0-.07.46,1.76,1.76,0,0,0,.06.46,1.2,1.2,0,0,0,.13.33l.14.18"/><path class="cls-1" d="M106.69,244.19l0,.05a1.86,1.86,0,0,1-.1.25c-.07.17-.16.32-.23.48s-.11.29-.17.43a2,2,0,0,1-.26.45,1.92,1.92,0,0,1-.29.28,1.52,1.52,0,0,1-.3.17l-.22.07.63-1.84"/><path class="cls-1" d="M127.8,237.6l.31.26a2.57,2.57,0,0,1,.35.39,1.69,1.69,0,0,1,.17.36,2.05,2.05,0,0,1,.07.34,1.76,1.76,0,0,1,0,.23L127.16,238"/><path class="cls-1" d="M126.48,238.48l.26.15c.18.11.35.24.52.35a3.29,3.29,0,0,0,.42.21,1.79,1.79,0,0,0,.46.09,1.31,1.31,0,0,0,.34,0l.22-.07"/><path class="cls-1" d="M125.8,238.86l-.42.51c-.25.3-.49.61-.74.9s-.52.61-.79.9l-.81.89-.84.87-.85.87-.87.85c-.29.28-.58.56-.88.83l-.91.79a10.91,10.91,0,0,1-.91.77,5.58,5.58,0,0,1-.71.43,2.78,2.78,0,0,1-.62.25,1.75,1.75,0,0,1-.72,0,2.54,2.54,0,0,1-.75-.29,1.77,1.77,0,0,1-.32-.21,1.12,1.12,0,0,1-.18-.2.91.91,0,0,1-.11-.22,1.27,1.27,0,0,1,0-.55,2.64,2.64,0,0,1,.11-.56,3.68,3.68,0,0,1,.4-.76,5.78,5.78,0,0,1,.33-.48,7.49,7.49,0,0,1,.81-.89c.28-.29.55-.59.83-.87l.78-.76"/><path class="cls-1" d="M108.81,213.74a16.1,16.1,0,0,0-4.86,1.38,25.16,25.16,0,0,0-9.19,7,4.46,4.46,0,0,0-.67,4.68,18,18,0,0,0,.81,1.65"/><path class="cls-1" d="M107,207.87l-.15-.4a2,2,0,0,0-.24-.46,1.85,1.85,0,0,0-.28-.28,1.17,1.17,0,0,0-.3-.19l-.22-.08.54,1.78"/><line class="cls-1" x1="105.81" y1="209.1" x2="105.81" y2="209.08"/><path class="cls-1" d="M105.7,208.62a.51.51,0,0,0,0-.13c0-.21-.11-.41-.15-.61a2.4,2.4,0,0,1,0-.46,2.32,2.32,0,0,1,.07-.46,1.87,1.87,0,0,1,.15-.32l.14-.18"/><line class="cls-1" x1="107.54" y1="210.97" x2="107.54" y2="210.97"/><path class="cls-1" d="M107.73,212.38l0,.3a3.11,3.11,0,0,0,0,.43c0,.15,0,.29,0,.43s0,.27-.06.4"/><path class="cls-1" d="M105.86,212.55a6.06,6.06,0,0,1-.47,1.25c-.15.3-.29.6-.43.89"/><path class="cls-1" d="M102,210.44l-.85.35-1.11.49-1.1.5-1.1.52q-.55.25-1.08.54l-1.06.58c-.35.19-.71.37-1,.59a6.44,6.44,0,0,0-.65.52,2.63,2.63,0,0,0-.44.5,1.81,1.81,0,0,0-.26.68,2.7,2.7,0,0,0,0,.8,1.17,1.17,0,0,0,.08.37.7.7,0,0,0,.13.24,1,1,0,0,0,.17.18,1.42,1.42,0,0,0,.51.19,2.8,2.8,0,0,0,.57.08,3.61,3.61,0,0,0,.85-.11,5.09,5.09,0,0,0,.56-.14,8.31,8.31,0,0,0,1.11-.45l1.11-.49,1.09-.53,1.07-.57,1.06-.59,1-.52"/><path class="cls-1" d="M105,209.35l-.45.17-.28.1"/><path class="cls-1" d="M104.05,213.37l.77-.46.65-.4"/><path class="cls-1" d="M106.91,244.11a4.07,4.07,0,0,0,3.28.09,25.46,25.46,0,0,0,7.15-3.93"/><path class="cls-1" d="M119.52,217.6l.63-.59c-.29-.27-.58-.54-.85-.83a7.53,7.53,0,0,1-1-1.22,13.73,13.73,0,0,1-1.12-2.11c-.19-.44-.37-.88-.52-1.33a9.35,9.35,0,0,1-.32-1.15,12.92,12.92,0,0,1-.21-1.52,5.79,5.79,0,0,1,0-.93,3.68,3.68,0,0,1,.14-.85,1.42,1.42,0,0,1,.3-.63,1.23,1.23,0,0,1,.67-.31,2,2,0,0,1,1.14.18,4.28,4.28,0,0,1,1,.71c.35.32.69.63,1,1,.5.52,1,1.07,1.42,1.62s.69.85,1,1.28.81,1.06,1.2,1.6c.52.7,1,1.41,1.53,2.13l1.15,1.61,1.12,1.64c.5.72,1,1.44,1.48,2.17.37.55.73,1.11,1.09,1.67s.57.93.84,1.4c.37.62.73,1.25,1,1.89.2.42.38.85.55,1.28a4.07,4.07,0,0,1,.33,1.18,2,2,0,0,1-.22,1.13,1.21,1.21,0,0,1-.53.52,1.45,1.45,0,0,1-.69.07,4.57,4.57,0,0,1-.85-.16,9.19,9.19,0,0,1-.86-.36,13.41,13.41,0,0,1-1.35-.72c-.23-.14-.45-.3-.67-.46"/><rect class="cls-1" x="76.67" y="271.53" width="60.5" height="3.02"/><line class="cls-1" x1="34.24" y1="271.53" x2="76.67" y2="271.53"/><line class="cls-1" x1="34.24" y1="274.55" x2="76.67" y2="274.55"/><line class="cls-1" x1="226.88" y1="264.7" x2="214.78" y2="264.7"/><path class="cls-1" d="M236,227.66a4.55,4.55,0,0,1-1.72-.18,2,2,0,0,1,0-1.14,4.78,4.78,0,0,1,1.76-.21"/><path class="cls-1" d="M220.83,261.55c1.86,0,3.72.06,5.57.27l.48.06a9,9,0,0,1,1.52.34,4.68,4.68,0,0,1,.48.18,1.76,1.76,0,0,1,.42.24,1.18,1.18,0,0,1,.46.6,2.22,2.22,0,0,1,0,.37,2.29,2.29,0,0,1-.07.36,1.13,1.13,0,0,1-.42.48,2.86,2.86,0,0,1-.42.24,4.09,4.09,0,0,1-.49.18,11,11,0,0,1-1.51.32l-.48.06c-1.85.21-3.71.23-5.57.26s-3.72-.05-5.56-.26l-.49-.06a11.27,11.27,0,0,1-1.51-.32l-.48-.18a3.62,3.62,0,0,1-.43-.24,1.28,1.28,0,0,1-.42-.48,1.5,1.5,0,0,1,0-.73,1.16,1.16,0,0,1,.45-.6,2,2,0,0,1,.43-.24,3.94,3.94,0,0,1,.48-.18,8.68,8.68,0,0,1,1.51-.34l.49-.06C217.11,261.61,219,261.58,220.83,261.55Z"/><path class="cls-1" d="M232.11,244.82l.21.3.15.23c.09.15.17.31.27.46l.24.39a1.35,1.35,0,0,1,.22.47,1.78,1.78,0,0,1,.07.39,2,2,0,0,1,0,.35c0,.08-.05.15-.07.22-.6-.81-1.19-1.62-1.78-2.44"/><path class="cls-1" d="M209.56,244.82l-.22.3-.15.23-.26.46-.25.39a1.84,1.84,0,0,0-.22.47,1.32,1.32,0,0,0-.06.39,1.34,1.34,0,0,0,0,.35,1.42,1.42,0,0,0,.07.22l1.66-2.27"/><path class="cls-1" d="M237.86,224.29l.29-.09.26-.08.52-.1c.15,0,.29-.09.44-.12a2.32,2.32,0,0,1,.52-.07,1.87,1.87,0,0,1,.4.07,1.3,1.3,0,0,1,.32.14l.18.13-2.45.8"/><path class="cls-1" d="M220.83,210h1.27c.64,0,1.28,0,1.91.06.43,0,.85.06,1.27.11s.81.11,1.22.2c.57.12,1.16.29,1.68.45a4.61,4.61,0,0,1,.91.4c.1.07.22.14.21.23a.29.29,0,0,1-.08.14.52.52,0,0,1-.23.1l-.53.14a5.43,5.43,0,0,1-.72.1c-.47.06-.94.11-1.41.14s-.93,0-1.39.06-.92,0-1.39,0h-5.44l-1.38,0c-.47,0-.93,0-1.4-.06s-.94-.08-1.41-.14a5.93,5.93,0,0,1-.72-.1l-.52-.14a.48.48,0,0,1-.23-.1.29.29,0,0,1-.08-.14c0-.09.1-.16.21-.23a4.36,4.36,0,0,1,.91-.4c.52-.16,1.11-.33,1.68-.45.41-.08.81-.15,1.22-.2s.84-.08,1.26-.11c.64,0,1.28-.06,1.91-.06Z"/><path class="cls-1" d="M220.83,212.65l2,0c.87,0,1.75,0,2.62,0,.66,0,1.33,0,2,.07s1.09.06,1.64.1c.71.06,1.43.12,2.14.24.45.07.91.17,1.36.28a3.89,3.89,0,0,1,1.16.4,2,2,0,0,1,.8.83,1.17,1.17,0,0,1,.12.73,1.38,1.38,0,0,1-.34.61,3.9,3.9,0,0,1-.62.6,6.91,6.91,0,0,1-.78.5c-.45.25-.9.49-1.36.69a9.5,9.5,0,0,1-1.13.4c-.46.13-.92.24-1.39.33a14.63,14.63,0,0,1-2.37.3,10,10,0,0,1-1.55-.08c-.39-.06-.78-.14-1.17-.23s-1-.24-1.57-.31-1-.1-1.54-.13-1,.06-1.53.13-1.05.2-1.58.31-.77.17-1.17.23a8.79,8.79,0,0,1-1.54.08,13.48,13.48,0,0,1-2.37-.3c-.47-.09-.94-.2-1.39-.33a8.39,8.39,0,0,1-1.13-.4,14.46,14.46,0,0,1-1.36-.69,8.09,8.09,0,0,1-.79-.5,3.84,3.84,0,0,1-.61-.6,1.51,1.51,0,0,1-.35-.61,1.18,1.18,0,0,1,.13-.73,1.89,1.89,0,0,1,.8-.83,3.83,3.83,0,0,1,1.15-.4c.46-.11.91-.21,1.37-.28.71-.12,1.42-.18,2.14-.24.55,0,1.09-.08,1.63-.1s1.33-.06,2-.07c.87,0,1.74,0,2.62,0Z"/><path class="cls-1" d="M212.37,211.51l-.36-2.38s.41-.24.73-.39a4,4,0,0,1,1.07-.33l1.16-.27c.43-.08.84-.15,1.26-.2.65-.08,1.31-.14,2-.18.88,0,1.76-.06,2.64-.07s1.77,0,2.65.07c.65,0,1.31.1,2,.18.42.05.84.12,1.26.2l1.17.27a4.1,4.1,0,0,1,1.07.33c.32.15.72.39.72.39-.11.79-.23,1.58-.35,2.38"/><path class="cls-1" d="M203.81,224.29l-.29-.09-.26-.08-.52-.1-.45-.12a2.24,2.24,0,0,0-.51-.07,1.76,1.76,0,0,0-.4.07,1.3,1.3,0,0,0-.32.14l-.19.13,2.45.8"/><path class="cls-1" d="M212,209.29c-.41,0-.81.08-1.22.14s-.85.12-1.27.21a9,9,0,0,0-1.35.36,3.93,3.93,0,0,0-1.41.83,2.91,2.91,0,0,0-.59.91,3.34,3.34,0,0,0-.21.68,3.79,3.79,0,0,0-.06.67,4.29,4.29,0,0,0,.12.8,6.12,6.12,0,0,0,.22.69,3.88,3.88,0,0,0,.6,1.14,3.31,3.31,0,0,0,.65.59,10.6,10.6,0,0,0,1.25.75"/><path class="cls-1" d="M203,225.7l-.24-.09c-.11-.05-.22-.11-.33-.15l-.59-.23a2,2,0,0,1-.4-.23,1.47,1.47,0,0,1-.34-.32,1.49,1.49,0,0,1-.18-.3l-.06-.22"/><path class="cls-1" d="M205.47,224.79l1.47.39,1.75.46"/><path class="cls-1" d="M205.64,227.39l.21.21a6.38,6.38,0,0,1,.78,1.14l.49.86"/><path class="cls-1" d="M205.55,225.35a1.05,1.05,0,0,1,.4.07,1.32,1.32,0,0,1,.25.16c.17.12.35.22.51.34l.32.28a4,4,0,0,0,.34.27l.34.27.29.28"/><line class="cls-1" x1="218.08" y1="220.94" x2="217.72" y2="218.48"/><path class="cls-1" d="M227.38,218.74a.57.57,0,0,0-.13.08,1.84,1.84,0,0,0-.48.56,3.37,3.37,0,0,0-.32.73"/><line class="cls-1" x1="223.59" y1="220.94" x2="223.94" y2="218.48"/><path class="cls-1" d="M229.63,221.6a3.41,3.41,0,0,0,.3-.44,2.12,2.12,0,0,0,.22-.7,1.8,1.8,0,0,0-.29-1.19,1.73,1.73,0,0,0-.62-.58,2,2,0,0,0-.4-.17"/><path class="cls-1" d="M229.64,209.29c.4,0,.81.08,1.21.14s.86.12,1.28.21a9.63,9.63,0,0,1,1.35.36,3.89,3.89,0,0,1,1.4.83,2.77,2.77,0,0,1,.6.91,3.31,3.31,0,0,1,.2.68,3,3,0,0,1,.06.67,3.1,3.1,0,0,1-.12.8,6,6,0,0,1-.21.69,3.69,3.69,0,0,1-.61,1.14,3.25,3.25,0,0,1-.64.59,11.48,11.48,0,0,1-1.25.75"/><path class="cls-1" d="M229.49,221.5c.07-.1.14-.2.2-.3a1.71,1.71,0,0,0,.25-.61,1.34,1.34,0,0,0,0-.49,1.63,1.63,0,0,0-.13-.48,1.61,1.61,0,0,0-.44-.59,1.63,1.63,0,0,0-.65-.34,1.74,1.74,0,0,0-.6,0,1.7,1.7,0,0,0-.59.19,1.79,1.79,0,0,0-.43.35,2.09,2.09,0,0,0-.3.47,3.45,3.45,0,0,0-.2.48"/><path class="cls-1" d="M229.1,221.23l.06,0a1,1,0,0,0,.24-.22,1.15,1.15,0,0,0,.17-.73,1.28,1.28,0,0,0-.14-.43,1.25,1.25,0,0,0-.21-.3,1.18,1.18,0,0,0-.28-.22,1.36,1.36,0,0,0-.33-.14l-.23-.05a1.14,1.14,0,0,0-.45.05,1,1,0,0,0-.3.14l-.16.15a1,1,0,0,0-.18.27,1.16,1.16,0,0,0-.07.31.88.88,0,0,0,0,.23v0"/><path class="cls-1" d="M229.22,221.31l.09-.07a1.07,1.07,0,0,0,.28-.44,1.31,1.31,0,0,0,0-.68,1.57,1.57,0,0,0-.27-.53,1.8,1.8,0,0,0-.39-.34,1.89,1.89,0,0,0-.36-.16,1.4,1.4,0,0,0-.5-.05,1.33,1.33,0,0,0-.4.12,1.41,1.41,0,0,0-.29.18,1,1,0,0,0-.13.16,1,1,0,0,0-.2.48.7.7,0,0,0,0,.25"/><path class="cls-1" d="M236.12,225.35a1.14,1.14,0,0,0-.41.07,1.32,1.32,0,0,0-.25.16c-.16.12-.34.22-.5.34s-.22.19-.33.28l-.07.06"/><path class="cls-1" d="M234.26,226.5l-.26.2"/><path class="cls-1" d="M235.75,227.68a7.06,7.06,0,0,0-.72,1.06l-.48.86"/><path class="cls-1" d="M236.19,224.79l-1.46.39-1.75.46"/><line class="cls-1" x1="234.24" y1="227.13" x2="233.71" y2="227.14"/><line class="cls-1" x1="234.23" y1="226.7" x2="233.52" y2="226.71"/><path class="cls-1" d="M238.64,225.7l.25-.09.33-.15.58-.23a2.06,2.06,0,0,0,.41-.23,1.43,1.43,0,0,0,.33-.32.92.92,0,0,0,.18-.3,1.42,1.42,0,0,0,.07-.22"/><path class="cls-1" d="M211.08,245.44l-.36.48-.26.34c-.08.1-.17.18-.25.28s-.26.32-.4.48a2,2,0,0,1-.34.31,1.31,1.31,0,0,1-.4.22,1.37,1.37,0,0,1-.35.08h-.22"/><path class="cls-1" d="M203,240.23a1.16,1.16,0,0,0,.2.18.66.66,0,0,0,.21.08,2,2,0,0,0,.42,0,2.23,2.23,0,0,0,.69-.19l1-.41c.43-.16.88-.3,1.33-.44"/><path class="cls-1" d="M219.93,248.24c0,.32-.18.37-.46.37s-.45-.06-.45-.37"/><path class="cls-1" d="M221.74,248.24c0,.32.18.37.45.37s.46-.06.46-.37"/><path class="cls-1" d="M238.72,240.23a1.24,1.24,0,0,1-.21.18.7.7,0,0,1-.2.08,2,2,0,0,1-.42,0,2.09,2.09,0,0,1-.69-.19l-1-.41c-.44-.16-.89-.3-1.33-.44"/><path class="cls-1" d="M230.58,245.44l.37.48c.08.12.17.23.26.34s.17.18.25.28.25.32.39.48a3.28,3.28,0,0,0,.34.31,1.36,1.36,0,0,0,.41.22,1.4,1.4,0,0,0,.34.08h.23"/><line class="cls-1" x1="222.65" y1="261.59" x2="222.65" y2="245.99"/><line class="cls-1" x1="221.74" y1="261.57" x2="221.74" y2="246.31"/><line class="cls-1" x1="219.93" y1="261.57" x2="219.93" y2="246.31"/><line class="cls-1" x1="219.02" y1="261.59" x2="219.02" y2="245.99"/><line class="cls-1" x1="228.9" y1="263.76" x2="212.76" y2="263.76"/><line class="cls-1" x1="227" y1="262.85" x2="214.67" y2="262.85"/><path class="cls-1" d="M236.53,223.88l.06-.06a.22.22,0,0,1,.13,0,1,1,0,0,1,.5.12,3.17,3.17,0,0,1,.45.23,2.1,2.1,0,0,1,.46.48,4.65,4.65,0,0,1,.34.62c.09.2.18.42.25.63.12.37.22.76.32,1.13s.22.75.32,1.13.2.77.29,1.16.17.78.25,1.17l.24,1.19c.07.4.15.79.22,1.19s.14.8.21,1.2.12.8.17,1.2.08.8.13,1.2a9.4,9.4,0,0,1,.11,1.19,5.64,5.64,0,0,1,0,.82,2.47,2.47,0,0,1-.16.65,1.65,1.65,0,0,1-.41.6,2.51,2.51,0,0,1-.67.44,1.54,1.54,0,0,1-.35.15,1.24,1.24,0,0,1-.27,0,.67.67,0,0,1-.24,0,1.25,1.25,0,0,1-.45-.31,3.09,3.09,0,0,1-.4-.41,4,4,0,0,1-.39-.77c-.07-.18-.15-.36-.21-.54a9.44,9.44,0,0,1-.27-1.17c-.07-.4-.16-.79-.23-1.19s-.14-.79-.19-1.19-.1-.81-.14-1.21-.09-.81-.13-1.21-.08-.8-.13-1.21-.09-.79-.12-1.19-.06-.79-.08-1.19a20.61,20.61,0,0,1-.06-2.36c0-.25,0-.49.07-.74a6,6,0,0,1,.08-.73,4.77,4.77,0,0,1,.13-.51,2,2,0,0,1,.1-.26Z"/><path class="cls-1" d="M237.47,238.48l-.11-.06a3.68,3.68,0,0,1-.59-.45l-.49-.41c-.38-.32-.74-.66-1.1-1"/><path class="cls-1" d="M205.14,223.88a.13.13,0,0,0-.07-.06.2.2,0,0,0-.13,0,1,1,0,0,0-.49.12,3.17,3.17,0,0,0-.45.23,2.1,2.1,0,0,0-.46.48,3.74,3.74,0,0,0-.34.62,4.86,4.86,0,0,0-.25.63c-.13.37-.22.76-.33,1.13s-.21.75-.31,1.13-.2.77-.29,1.16-.18.78-.26,1.17-.15.79-.23,1.19-.15.79-.23,1.19-.14.8-.2,1.2-.13.8-.17,1.2-.09.8-.13,1.2a11.69,11.69,0,0,0-.12,1.19,5.66,5.66,0,0,0,.06.82,2.47,2.47,0,0,0,.16.65,1.75,1.75,0,0,0,.4.6,2.56,2.56,0,0,0,.68.44,1.37,1.37,0,0,0,.35.15,1.18,1.18,0,0,0,.27,0,.67.67,0,0,0,.24,0,1.35,1.35,0,0,0,.45-.31,3,3,0,0,0,.39-.41,4,4,0,0,0,.4-.77c.07-.18.15-.36.21-.54a9.4,9.4,0,0,0,.26-1.17l.24-1.19c.07-.39.13-.79.18-1.19s.1-.81.15-1.21.08-.81.13-1.21.08-.8.13-1.21l.12-1.19c0-.4.05-.79.08-1.19a18.56,18.56,0,0,0,0-2.36c0-.25,0-.49-.06-.74a6,6,0,0,0-.08-.73,3.23,3.23,0,0,0-.14-.51,2,2,0,0,0-.1-.26A1.28,1.28,0,0,0,205.14,223.88Z"/><path class="cls-1" d="M220.83,222.19a4.69,4.69,0,0,1-2.23-.74,3.89,3.89,0,0,0-4.44-1.07,9.73,9.73,0,0,0-4.09,3.17,15.69,15.69,0,0,0-3.18,7.13,25.25,25.25,0,0,0,.47,11.53,4.46,4.46,0,0,0,3.46,3.23,19.09,19.09,0,0,0,5.17.35,5.87,5.87,0,0,1,3.63.36,3.2,3.2,0,0,0,2.43,0,5.84,5.84,0,0,1,3.62-.36,19.14,19.14,0,0,0,5.18-.35,4.45,4.45,0,0,0,3.46-3.23,25.25,25.25,0,0,0,.47-11.53,15.69,15.69,0,0,0-3.18-7.13,9.73,9.73,0,0,0-4.09-3.17,3.89,3.89,0,0,0-4.44,1.07A4.84,4.84,0,0,1,220.83,222.19Z"/><path class="cls-1" d="M204.19,238.48l.12-.06a4.19,4.19,0,0,0,.59-.45l.49-.41c.37-.32.73-.66,1.09-1"/><line class="cls-1" x1="147.63" y1="274.55" x2="190.06" y2="274.55"/><line class="cls-1" x1="147.63" y1="271.53" x2="190.06" y2="271.53"/><rect class="cls-1" x="147.63" y="265.33" width="42.43" height="13.46"/><rect class="cls-1" x="190.06" y="271.53" width="60.5" height="3.02"/><rect class="cls-1" x="303.44" y="271.53" width="60.5" height="3.02"/><rect class="cls-1" x="261.01" y="265.33" width="42.43" height="13.46"/><line class="cls-1" x1="261.01" y1="271.53" x2="303.44" y2="271.53"/><line class="cls-1" x1="261.01" y1="274.55" x2="303.44" y2="274.55"/><path class="cls-1" d="M317.58,238.48l.11-.06a3.68,3.68,0,0,0,.59-.45l.49-.41c.38-.32.74-.66,1.1-1"/><path class="cls-1" d="M334.22,222.19a4.66,4.66,0,0,1-2.23-.74,3.9,3.9,0,0,0-4.44-1.07,9.61,9.61,0,0,0-4.09,3.17,15.58,15.58,0,0,0-3.18,7.13,25,25,0,0,0,.47,11.53,4.46,4.46,0,0,0,3.45,3.23,19.17,19.17,0,0,0,5.18.35,5.88,5.88,0,0,1,3.63.36,3.15,3.15,0,0,0,1.21.24,3.11,3.11,0,0,0,1.21-.24,5.88,5.88,0,0,1,3.63-.36,19.17,19.17,0,0,0,5.18-.35,4.44,4.44,0,0,0,3.45-3.23,25.12,25.12,0,0,0,.48-11.53,15.7,15.7,0,0,0-3.19-7.13,9.61,9.61,0,0,0-4.09-3.17,3.9,3.9,0,0,0-4.44,1.07A4.8,4.8,0,0,1,334.22,222.19Z"/><path class="cls-1" d="M318.52,223.88a.17.17,0,0,0-.06-.06.22.22,0,0,0-.13,0,1,1,0,0,0-.5.12,3.81,3.81,0,0,0-.45.23,2.1,2.1,0,0,0-.46.48,4.65,4.65,0,0,0-.34.62c-.09.2-.17.42-.25.63-.12.37-.22.76-.32,1.13s-.22.75-.32,1.13-.19.77-.28,1.16-.18.78-.26,1.17-.16.79-.23,1.19-.16.79-.23,1.19l-.21,1.2c-.06.4-.12.8-.17,1.2s-.08.8-.13,1.2a9.4,9.4,0,0,0-.11,1.19,5.66,5.66,0,0,0,.06.82,2.92,2.92,0,0,0,.15.65,1.65,1.65,0,0,0,.41.6,2.51,2.51,0,0,0,.67.44,1.54,1.54,0,0,0,.35.15,1.24,1.24,0,0,0,.27,0,.64.64,0,0,0,.24,0,1.29,1.29,0,0,0,.46-.31,3,3,0,0,0,.39-.41,3.48,3.48,0,0,0,.39-.77q.12-.27.21-.54a9.44,9.44,0,0,0,.27-1.17c.07-.4.16-.79.23-1.19s.14-.79.19-1.19.1-.81.14-1.21.09-.81.13-1.21.09-.8.13-1.21.09-.79.12-1.19.06-.79.09-1.19a18.56,18.56,0,0,0,0-2.36l-.06-.74a6.06,6.06,0,0,0-.09-.73,4.77,4.77,0,0,0-.13-.51,2,2,0,0,0-.1-.26Z"/><path class="cls-1" d="M350.86,238.48l-.12-.06a4.1,4.1,0,0,1-.58-.45l-.5-.41c-.37-.32-.73-.66-1.09-1"/><path class="cls-1" d="M349.91,223.88a.19.19,0,0,1,.07-.06.2.2,0,0,1,.13,0,1,1,0,0,1,.5.12,3,3,0,0,1,.44.23,1.75,1.75,0,0,1,.46.48,3.13,3.13,0,0,1,.34.62,4.86,4.86,0,0,1,.25.63c.13.37.23.76.33,1.13s.21.75.32,1.13.19.77.28,1.16.18.78.26,1.17.16.79.23,1.19.16.79.23,1.19.14.8.2,1.2.13.8.17,1.2.09.8.14,1.2.1.79.11,1.19a5.66,5.66,0,0,1-.06.82,2.92,2.92,0,0,1-.15.65,1.65,1.65,0,0,1-.41.6,2.51,2.51,0,0,1-.67.44,1.76,1.76,0,0,1-.35.15,1.24,1.24,0,0,1-.27,0,.64.64,0,0,1-.24,0,1.29,1.29,0,0,1-.46-.31,3,3,0,0,1-.39-.41,3.48,3.48,0,0,1-.39-.77q-.12-.27-.21-.54a9.44,9.44,0,0,1-.27-1.17c-.08-.4-.16-.79-.23-1.19s-.14-.79-.19-1.19-.1-.81-.15-1.21l-.12-1.21c-.05-.4-.09-.8-.13-1.21s-.09-.79-.12-1.19-.06-.79-.09-1.19a18.56,18.56,0,0,1-.05-2.36l.06-.74c0-.24,0-.49.08-.73s.09-.34.14-.51a2,2,0,0,1,.1-.26A1.28,1.28,0,0,1,349.91,223.88Z"/><line class="cls-1" x1="340.38" y1="262.85" x2="328.06" y2="262.85"/><line class="cls-1" x1="342.29" y1="263.76" x2="326.15" y2="263.76"/><line class="cls-1" x1="332.41" y1="261.59" x2="332.41" y2="245.99"/><line class="cls-1" x1="333.31" y1="261.57" x2="333.31" y2="246.31"/><line class="cls-1" x1="335.13" y1="261.57" x2="335.13" y2="246.31"/><line class="cls-1" x1="336.03" y1="261.59" x2="336.03" y2="245.99"/><path class="cls-1" d="M344,245.44l.36.48c.09.12.17.23.27.34l.24.28c.14.15.26.32.4.48a2,2,0,0,0,.34.31,1.25,1.25,0,0,0,.41.22,1.3,1.3,0,0,0,.34.08h.23"/><path class="cls-1" d="M352.1,240.23a1.16,1.16,0,0,1-.2.18.7.7,0,0,1-.2.08,1.48,1.48,0,0,1-1.11-.14l-1-.41c-.43-.16-.88-.3-1.33-.44"/><path class="cls-1" d="M335.13,248.24c0,.32.18.37.45.37s.45-.06.45-.37"/><path class="cls-1" d="M333.31,248.24c0,.32-.18.37-.45.37s-.45-.06-.45-.37"/><path class="cls-1" d="M316.33,240.23a1.81,1.81,0,0,0,.21.18.7.7,0,0,0,.2.08,2,2,0,0,0,.42,0,2.09,2.09,0,0,0,.69-.19l1-.41c.44-.16.89-.3,1.34-.44"/><path class="cls-1" d="M324.47,245.44l-.36.48-.27.34-.24.28c-.14.15-.26.32-.4.48a2.5,2.5,0,0,1-.34.31,1.36,1.36,0,0,1-.41.22,1.3,1.3,0,0,1-.34.08h-.23"/><path class="cls-1" d="M352,225.7l.24-.09.34-.15.58-.23a2.38,2.38,0,0,0,.41-.23,1.66,1.66,0,0,0,.33-.32,1.14,1.14,0,0,0,.18-.3.79.79,0,0,0,.06-.22"/><line class="cls-1" x1="347.62" y1="226.7" x2="346.91" y2="226.71"/><line class="cls-1" x1="347.62" y1="227.13" x2="347.1" y2="227.14"/><path class="cls-1" d="M349.58,224.79l-1.46.39-1.76.46"/><path class="cls-1" d="M349.13,227.68a6.33,6.33,0,0,0-.71,1.06l-.49.86"/><path class="cls-1" d="M347.64,226.5l-.26.2"/><path class="cls-1" d="M349.5,225.35a1.05,1.05,0,0,0-.4.07,1.32,1.32,0,0,0-.25.16c-.17.12-.35.22-.51.34l-.32.28-.07.06"/><path class="cls-1" d="M342.6,221.31l.1-.07a1.07,1.07,0,0,0,.28-.44,1.31,1.31,0,0,0,0-.68,1.43,1.43,0,0,0-.28-.53,1.59,1.59,0,0,0-.39-.34,1.46,1.46,0,0,0-.36-.16,1.4,1.4,0,0,0-.5-.05,1.42,1.42,0,0,0-.4.12,1.34,1.34,0,0,0-.28.18,1.14,1.14,0,0,0-.34.64,2.09,2.09,0,0,0,0,.25"/><path class="cls-1" d="M342.49,221.23l.06,0a.8.8,0,0,0,.23-.22.86.86,0,0,0,.14-.29,1.29,1.29,0,0,0,0-.44,1.28,1.28,0,0,0-.14-.43,1.61,1.61,0,0,0-.21-.3,1.06,1.06,0,0,0-.29-.22,1.3,1.3,0,0,0-.32-.14l-.24-.05a1.16,1.16,0,0,0-.45.05,1.11,1.11,0,0,0-.29.14l-.17.15a1,1,0,0,0-.17.27.89.89,0,0,0-.08.31,1.69,1.69,0,0,0,0,.23v0"/><path class="cls-1" d="M342.87,221.5c.08-.1.14-.2.21-.3a2.18,2.18,0,0,0,.25-.61,1.61,1.61,0,0,0-.54-1.56,1.63,1.63,0,0,0-.65-.34,1.78,1.78,0,0,0-.61,0,1.72,1.72,0,0,0-.58.19,1.61,1.61,0,0,0-.43.35,2.55,2.55,0,0,0-.31.47c-.07.15-.13.31-.19.48"/><path class="cls-1" d="M343,209.29c.41,0,.82.08,1.22.14s.85.12,1.27.21a9,9,0,0,1,1.35.36,3.93,3.93,0,0,1,1.41.83,2.91,2.91,0,0,1,.59.91,3.34,3.34,0,0,1,.21.68,3.79,3.79,0,0,1,.06.67,3.6,3.6,0,0,1-.12.8,6.12,6.12,0,0,1-.22.69,3.88,3.88,0,0,1-.6,1.14,3.31,3.31,0,0,1-.65.59,9.85,9.85,0,0,1-1.25.75"/><path class="cls-1" d="M343,221.6a2.57,2.57,0,0,0,.29-.44,1.93,1.93,0,0,0,.23-.7,1.86,1.86,0,0,0-.29-1.19,1.76,1.76,0,0,0-.63-.58,1.78,1.78,0,0,0-.4-.17"/><line class="cls-1" x1="336.98" y1="220.94" x2="337.33" y2="218.48"/><path class="cls-1" d="M340.76,218.74l-.12.08a2,2,0,0,0-.49.56,4.75,4.75,0,0,0-.32.73"/><line class="cls-1" x1="331.46" y1="220.94" x2="331.11" y2="218.48"/><path class="cls-1" d="M318.93,225.35a1.07,1.07,0,0,1,.41.07,1.32,1.32,0,0,1,.25.16c.17.12.34.22.5.34s.22.19.33.28a2.88,2.88,0,0,0,.34.27l.34.27.29.28"/><path class="cls-1" d="M319,227.39l.2.21a6,6,0,0,1,.79,1.14l.49.86"/><path class="cls-1" d="M318.86,224.79l1.46.39,1.75.46"/><path class="cls-1" d="M316.41,225.7l-.25-.09c-.11-.05-.22-.11-.33-.15l-.58-.23a2.38,2.38,0,0,1-.41-.23,1.43,1.43,0,0,1-.33-.32,1.14,1.14,0,0,1-.18-.3,1.42,1.42,0,0,1-.07-.22"/><path class="cls-1" d="M325.41,209.29c-.4,0-.81.08-1.21.14s-.86.12-1.28.21a9.15,9.15,0,0,0-1.34.36,3.84,3.84,0,0,0-1.41.83,2.94,2.94,0,0,0-.6.91,4.07,4.07,0,0,0-.2.68,3.79,3.79,0,0,0-.06.67,3.6,3.6,0,0,0,.12.8,6.12,6.12,0,0,0,.22.69,3.88,3.88,0,0,0,.6,1.14,3,3,0,0,0,.65.59,9.85,9.85,0,0,0,1.25.75"/><path class="cls-1" d="M317.19,224.29l-.28-.09-.27-.08-.52-.1c-.14,0-.29-.09-.44-.12a2.25,2.25,0,0,0-.52-.07,1.78,1.78,0,0,0-.39.07,1,1,0,0,0-.32.14l-.19.13,2.45.8"/><path class="cls-1" d="M325.75,211.51c-.11-.79-.23-1.59-.35-2.38,0,0,.4-.24.73-.39a3.89,3.89,0,0,1,1.07-.33l1.16-.27c.43-.08.84-.15,1.26-.2.65-.08,1.3-.14,2-.18.88,0,1.76-.06,2.64-.07s1.76,0,2.64.07c.66,0,1.31.1,2,.18.42.05.83.12,1.26.2l1.16.27a3.89,3.89,0,0,1,1.07.33c.33.15.73.39.73.39-.12.79-.23,1.58-.35,2.38"/><path class="cls-1" d="M334.22,212.65l2,0,2.62,0c.66,0,1.33,0,2,.07s1.09.06,1.63.1c.72.06,1.44.12,2.14.24.46.07.91.17,1.37.28a3.83,3.83,0,0,1,1.15.4,1.89,1.89,0,0,1,.8.83,1.18,1.18,0,0,1,.13.73,1.49,1.49,0,0,1-.34.61,4.38,4.38,0,0,1-.62.6,8.09,8.09,0,0,1-.79.5,13.34,13.34,0,0,1-1.36.69,8.77,8.77,0,0,1-1.12.4c-.46.13-.93.24-1.4.33a14.49,14.49,0,0,1-2.37.3,9.94,9.94,0,0,1-1.54-.08c-.39-.06-.78-.14-1.17-.23s-1.05-.24-1.58-.31-1-.1-1.53-.13-1,.06-1.53.13-1.06.2-1.58.31-.78.17-1.17.23a8.84,8.84,0,0,1-1.54.08,13.48,13.48,0,0,1-2.37-.3c-.47-.09-.94-.2-1.4-.33a8.77,8.77,0,0,1-1.12-.4,13.34,13.34,0,0,1-1.36-.69,7,7,0,0,1-.79-.5,3.9,3.9,0,0,1-.62-.6,1.49,1.49,0,0,1-.34-.61,1.11,1.11,0,0,1,.13-.73,1.92,1.92,0,0,1,.79-.83,4,4,0,0,1,1.16-.4c.45-.11.91-.21,1.37-.28.7-.12,1.42-.18,2.14-.24.54,0,1.08-.08,1.63-.1s1.33-.06,2-.07l2.62,0Z"/><path class="cls-1" d="M334.22,210h1.27c.63,0,1.27,0,1.91.06.42,0,.84.06,1.26.11s.81.11,1.22.2c.58.12,1.16.29,1.68.45a4.15,4.15,0,0,1,.91.4c.11.07.22.14.21.23a.23.23,0,0,1-.08.14.44.44,0,0,1-.22.1l-.53.14a5.93,5.93,0,0,1-.72.1c-.47.06-.94.11-1.41.14s-.93,0-1.4.06-.92,0-1.38,0H331.5l-1.39,0c-.46,0-.93,0-1.39-.06s-.94-.08-1.41-.14a5.93,5.93,0,0,1-.72-.1l-.53-.14a.52.52,0,0,1-.23-.1.21.21,0,0,1-.07-.14c0-.09.1-.16.2-.23a4.43,4.43,0,0,1,.92-.4c.52-.16,1.1-.33,1.67-.45.41-.08.82-.15,1.23-.2s.84-.08,1.26-.11c.64,0,1.27-.06,1.91-.06Z"/><path class="cls-1" d="M351.25,224.29l.28-.09.26-.08.52-.1.45-.12a2.24,2.24,0,0,1,.51-.07,1.76,1.76,0,0,1,.4.07,1.3,1.3,0,0,1,.32.14l.19.13-2.45.8"/><path class="cls-1" d="M322.94,244.82l-.21.3-.15.23-.26.46-.25.39a1.84,1.84,0,0,0-.22.47,1.32,1.32,0,0,0-.06.39,1,1,0,0,0,0,.35,1.41,1.41,0,0,0,.06.22l1.67-2.27"/><path class="cls-1" d="M345.5,244.82l.21.3.15.23.26.46.25.39a1.84,1.84,0,0,1,.22.47,1.32,1.32,0,0,1,.06.39,1.34,1.34,0,0,1,0,.35,1.42,1.42,0,0,1-.07.22l-1.78-2.44"/><path class="cls-1" d="M334.22,261.55c1.86,0,3.72.06,5.56.27l.49.06a8.68,8.68,0,0,1,1.51.34,3.41,3.41,0,0,1,.48.18,2,2,0,0,1,.43.24,1.11,1.11,0,0,1,.45.6,1.5,1.5,0,0,1,0,.73,1.2,1.2,0,0,1-.42.48,3.62,3.62,0,0,1-.43.24,3.94,3.94,0,0,1-.48.18,11.27,11.27,0,0,1-1.51.32l-.48.06c-1.85.21-3.71.23-5.57.26s-3.72-.05-5.57-.26l-.48-.06a11,11,0,0,1-1.51-.32,3.41,3.41,0,0,1-.48-.18,3.62,3.62,0,0,1-.43-.24,1.13,1.13,0,0,1-.42-.48,1.5,1.5,0,0,1,0-.73,1.11,1.11,0,0,1,.45-.6,2,2,0,0,1,.42-.24,4.09,4.09,0,0,1,.49-.18,8.68,8.68,0,0,1,1.51-.34l.48-.06C330.5,261.61,332.36,261.58,334.22,261.55Z"/><path class="cls-1" d="M349.42,227.66a4.61,4.61,0,0,1-1.73-.18,2,2,0,0,1,0-1.14,4.76,4.76,0,0,1,1.76-.21"/><line class="cls-1" x1="340.27" y1="264.7" x2="328.17" y2="264.7"/><line class="cls-1" x1="453.65" y1="264.7" x2="441.55" y2="264.7"/><path class="cls-1" d="M462.8,227.66a4.55,4.55,0,0,1-1.72-.18,1.93,1.93,0,0,1,0-1.14,4.71,4.71,0,0,1,1.75-.21"/><path class="cls-1" d="M447.6,261.55c1.86,0,3.73.06,5.57.27l.48.06a9,9,0,0,1,1.52.34,4.68,4.68,0,0,1,.48.18,1.76,1.76,0,0,1,.42.24,1.13,1.13,0,0,1,.46.6,1.5,1.5,0,0,1,0,.37,1.15,1.15,0,0,1-.07.36,1.13,1.13,0,0,1-.42.48,2.86,2.86,0,0,1-.42.24,4.09,4.09,0,0,1-.49.18,11,11,0,0,1-1.51.32l-.48.06c-1.85.21-3.71.23-5.57.26s-3.72-.05-5.56-.26l-.48-.06a11.41,11.41,0,0,1-1.52-.32l-.48-.18a3.62,3.62,0,0,1-.43-.24,1.18,1.18,0,0,1-.41-.48,1.15,1.15,0,0,1-.07-.36,1.5,1.5,0,0,1,0-.37,1.13,1.13,0,0,1,.46-.6,1.76,1.76,0,0,1,.42-.24,4.68,4.68,0,0,1,.48-.18,8.79,8.79,0,0,1,1.52-.34l.48-.06C443.88,261.61,445.74,261.58,447.6,261.55Z"/><path class="cls-1" d="M458.88,244.82l.21.3c.05.08.11.15.15.23s.17.31.27.46l.25.39a1.84,1.84,0,0,1,.22.47,2.63,2.63,0,0,1,.06.39,2,2,0,0,1,0,.35c0,.08-.05.15-.07.22-.59-.81-1.19-1.62-1.78-2.44"/><path class="cls-1" d="M436.33,244.82l-.21.3c-.05.08-.11.15-.15.23s-.18.31-.27.46l-.25.39a1.84,1.84,0,0,0-.22.47,2.63,2.63,0,0,0-.06.39,2,2,0,0,0,0,.35,1.42,1.42,0,0,0,.07.22l1.66-2.27"/><path class="cls-1" d="M464.63,224.29l.29-.09.26-.08.52-.1c.15,0,.29-.09.44-.12a2.32,2.32,0,0,1,.52-.07,1.87,1.87,0,0,1,.4.07,1.3,1.3,0,0,1,.32.14l.18.13-2.44.8"/><path class="cls-1" d="M447.6,210h1.27c.64,0,1.28,0,1.91.06.43,0,.85.06,1.27.11s.81.11,1.22.2c.57.12,1.16.29,1.68.45a4.36,4.36,0,0,1,.91.4c.1.07.22.14.21.23a.29.29,0,0,1-.08.14.52.52,0,0,1-.23.1l-.53.14a5.52,5.52,0,0,1-.71.1c-.48.06-.94.11-1.42.14s-.92,0-1.39.06-.92,0-1.39,0h-5.43l-1.39,0c-.47,0-.93,0-1.39-.06s-.95-.08-1.42-.14a5.52,5.52,0,0,1-.71-.1l-.53-.14a.52.52,0,0,1-.23-.1.29.29,0,0,1-.08-.14c0-.09.11-.16.21-.23a4.36,4.36,0,0,1,.91-.4c.52-.16,1.11-.33,1.68-.45.41-.08.81-.15,1.22-.2s.84-.08,1.26-.11q1-.06,1.92-.06Z"/><path class="cls-1" d="M447.6,212.65l2,0c.87,0,1.75,0,2.62,0,.67,0,1.33,0,2,.07s1.08.06,1.63.1c.71.06,1.43.12,2.14.24.46.07.91.17,1.36.28a3.89,3.89,0,0,1,1.16.4,2,2,0,0,1,.8.83,1.25,1.25,0,0,1,.13.73,1.51,1.51,0,0,1-.35.61,3.9,3.9,0,0,1-.62.6,6.91,6.91,0,0,1-.78.5,14.46,14.46,0,0,1-1.36.69,8.91,8.91,0,0,1-1.13.4c-.46.13-.92.24-1.39.33a14.63,14.63,0,0,1-2.37.3,10,10,0,0,1-1.55-.08c-.39-.06-.78-.14-1.16-.23-.53-.11-1.05-.24-1.58-.31s-1-.1-1.54-.13-1,.06-1.53.13-1.05.2-1.58.31-.77.17-1.16.23a8.9,8.9,0,0,1-1.55.08,13.48,13.48,0,0,1-2.37-.3c-.47-.09-.93-.2-1.39-.33a8.91,8.91,0,0,1-1.13-.4,14.46,14.46,0,0,1-1.36-.69,6.91,6.91,0,0,1-.78-.5,3.9,3.9,0,0,1-.62-.6,1.51,1.51,0,0,1-.35-.61,1.25,1.25,0,0,1,.13-.73,1.89,1.89,0,0,1,.8-.83,3.83,3.83,0,0,1,1.15-.4c.46-.11.91-.21,1.37-.28.71-.12,1.43-.18,2.14-.24.55,0,1.09-.08,1.63-.1s1.33-.06,2-.07c.87,0,1.74,0,2.62,0Z"/><path class="cls-1" d="M439.14,211.51l-.36-2.38s.41-.24.73-.39a4,4,0,0,1,1.07-.33l1.16-.27c.43-.08.85-.15,1.27-.2.64-.08,1.3-.14,1.95-.18.88,0,1.76-.06,2.65-.07s1.76,0,2.64.07c.66,0,1.31.1,2,.18.42.05.83.12,1.26.2l1.16.27a4,4,0,0,1,1.07.33c.32.15.73.39.73.39l-.36,2.38"/><path class="cls-1" d="M430.58,224.29l-.29-.09-.26-.08-.52-.1c-.15,0-.29-.09-.44-.12a2.32,2.32,0,0,0-.52-.07,1.87,1.87,0,0,0-.4.07,1.3,1.3,0,0,0-.32.14l-.19.13,2.45.8"/><path class="cls-1" d="M438.8,209.29c-.41,0-.81.08-1.22.14s-.85.12-1.27.21A9,9,0,0,0,435,210a3.89,3.89,0,0,0-1.4.83,2.77,2.77,0,0,0-.6.91,3.31,3.31,0,0,0-.2.68,3.05,3.05,0,0,0-.07.67,4.29,4.29,0,0,0,.12.8c.06.23.14.46.22.69a3.88,3.88,0,0,0,.6,1.14,3.31,3.31,0,0,0,.65.59,10.6,10.6,0,0,0,1.25.75"/><path class="cls-1" d="M429.79,225.7l-.24-.09-.33-.15-.58-.23a2.06,2.06,0,0,1-.41-.23,1.47,1.47,0,0,1-.34-.32,1.11,1.11,0,0,1-.17-.3,1.42,1.42,0,0,1-.07-.22"/><path class="cls-1" d="M432.24,224.79l1.47.39,1.75.46"/><path class="cls-1" d="M432.41,227.39l.21.21a6,6,0,0,1,.79,1.14l.48.86"/><path class="cls-1" d="M432.32,225.35a1.14,1.14,0,0,1,.41.07,1.67,1.67,0,0,1,.24.16c.17.12.35.22.51.34l.33.28a2.24,2.24,0,0,0,.34.27l.33.27a3.9,3.9,0,0,1,.29.28"/><line class="cls-1" x1="444.85" y1="220.94" x2="444.49" y2="218.48"/><path class="cls-1" d="M454.15,218.74a.57.57,0,0,0-.13.08,2,2,0,0,0-.48.56,3.37,3.37,0,0,0-.32.73"/><line class="cls-1" x1="450.36" y1="220.94" x2="450.72" y2="218.48"/><path class="cls-1" d="M456.41,221.6a3.35,3.35,0,0,0,.29-.44,1.91,1.91,0,0,0,.22-.7,1.77,1.77,0,0,0-.91-1.77,2,2,0,0,0-.4-.17"/><path class="cls-1" d="M456.41,209.29c.41,0,.81.08,1.22.14s.85.12,1.27.21a9,9,0,0,1,1.35.36,3.89,3.89,0,0,1,1.4.83,2.77,2.77,0,0,1,.6.91,3.31,3.31,0,0,1,.2.68,2.54,2.54,0,0,1,.06.67,3.59,3.59,0,0,1-.11.8c-.06.23-.14.46-.22.69a3.69,3.69,0,0,1-.61,1.14,3.25,3.25,0,0,1-.64.59,10.6,10.6,0,0,1-1.25.75"/><path class="cls-1" d="M456.26,221.5c.07-.1.14-.2.2-.3a1.94,1.94,0,0,0,.26-.61,1.6,1.6,0,0,0,0-.49,1.63,1.63,0,0,0-.13-.48,1.61,1.61,0,0,0-.44-.59,1.56,1.56,0,0,0-.65-.34,1.72,1.72,0,0,0-.6,0,1.7,1.7,0,0,0-.59.19,1.79,1.79,0,0,0-.43.35,2.09,2.09,0,0,0-.3.47,2.53,2.53,0,0,0-.19.48"/><path class="cls-1" d="M455.87,221.23l.06,0a.84.84,0,0,0,.24-.22,1.11,1.11,0,0,0,.14-.29,1.08,1.08,0,0,0,0-.44,1,1,0,0,0-.14-.43,1.21,1.21,0,0,0-.2-.3,1.48,1.48,0,0,0-.29-.22,1.3,1.3,0,0,0-.32-.14l-.24-.05a1.14,1.14,0,0,0-.45.05,1,1,0,0,0-.3.14l-.16.15a1.27,1.27,0,0,0-.18.27,1.16,1.16,0,0,0-.07.31.88.88,0,0,0,0,.23v0"/><path class="cls-1" d="M456,221.31l.09-.07a1,1,0,0,0,.28-.44,1.13,1.13,0,0,0,0-.68,1.27,1.27,0,0,0-.27-.53,1.59,1.59,0,0,0-.39-.34,1.46,1.46,0,0,0-.36-.16,1.4,1.4,0,0,0-.5-.05,1.33,1.33,0,0,0-.4.12,1.41,1.41,0,0,0-.29.18,1,1,0,0,0-.13.16,1,1,0,0,0-.2.48,2.09,2.09,0,0,0,0,.25"/><path class="cls-1" d="M462.89,225.35a1.14,1.14,0,0,0-.41.07,1.75,1.75,0,0,0-.25.16c-.16.12-.34.22-.5.34l-.33.28-.07.06"/><path class="cls-1" d="M461,226.5l-.26.2"/><path class="cls-1" d="M462.52,227.68a7.06,7.06,0,0,0-.72,1.06l-.48.86"/><path class="cls-1" d="M463,224.79l-1.47.39-1.75.46"/><line class="cls-1" x1="461.01" y1="227.13" x2="460.48" y2="227.14"/><line class="cls-1" x1="461" y1="226.7" x2="460.29" y2="226.71"/><path class="cls-1" d="M465.42,225.7l.24-.09c.11-.05.22-.11.33-.15l.59-.23a2,2,0,0,0,.4-.23,1.47,1.47,0,0,0,.34-.32,1.11,1.11,0,0,0,.17-.3,1.42,1.42,0,0,0,.07-.22"/><path class="cls-1" d="M437.85,245.44l-.36.48c-.08.12-.17.23-.26.34s-.17.18-.25.28-.26.32-.39.48a3.28,3.28,0,0,1-.34.31,1.49,1.49,0,0,1-.41.22,1.4,1.4,0,0,1-.34.08h-.23"/><path class="cls-1" d="M429.72,240.23a1.16,1.16,0,0,0,.2.18.9.9,0,0,0,.21.08,2,2,0,0,0,.42,0,2.23,2.23,0,0,0,.69-.19l1-.41c.43-.16.88-.3,1.33-.44"/><path class="cls-1" d="M446.7,248.24c0,.32-.18.37-.45.37s-.46-.06-.46-.37"/><path class="cls-1" d="M448.51,248.24c0,.32.18.37.45.37s.46-.06.46-.37"/><path class="cls-1" d="M465.49,240.23a1.71,1.71,0,0,1-.2.18.9.9,0,0,1-.21.08,2,2,0,0,1-.42,0,2.15,2.15,0,0,1-.69-.19l-1-.41c-.44-.16-.88-.3-1.33-.44"/><path class="cls-1" d="M457.35,245.44l.37.48c.08.12.17.23.26.34s.17.18.25.28l.39.48a3.28,3.28,0,0,0,.34.31,1.49,1.49,0,0,0,.41.22,1.4,1.4,0,0,0,.34.08h.23"/><line class="cls-1" x1="449.42" y1="261.59" x2="449.42" y2="245.99"/><line class="cls-1" x1="448.51" y1="261.57" x2="448.51" y2="246.31"/><line class="cls-1" x1="446.7" y1="261.57" x2="446.7" y2="246.31"/><line class="cls-1" x1="445.79" y1="261.59" x2="445.79" y2="245.99"/><line class="cls-1" x1="455.67" y1="263.76" x2="439.54" y2="263.76"/><line class="cls-1" x1="453.77" y1="262.85" x2="441.44" y2="262.85"/><path class="cls-1" d="M463.3,223.88a.13.13,0,0,1,.07-.06.18.18,0,0,1,.13,0,1,1,0,0,1,.49.12,3.17,3.17,0,0,1,.45.23,2.1,2.1,0,0,1,.46.48,4.65,4.65,0,0,1,.34.62c.09.2.18.42.25.63.12.37.22.76.32,1.13s.22.75.32,1.13.2.77.29,1.16.17.78.25,1.17.16.79.24,1.19.15.79.22,1.19.14.8.21,1.2.12.8.17,1.2.08.8.13,1.2a9.4,9.4,0,0,1,.11,1.19,5.64,5.64,0,0,1-.05.82,2.47,2.47,0,0,1-.16.65,1.65,1.65,0,0,1-.41.6,2.51,2.51,0,0,1-.67.44,1.54,1.54,0,0,1-.35.15,1.24,1.24,0,0,1-.27,0,.67.67,0,0,1-.24,0,1.35,1.35,0,0,1-.45-.31,2.5,2.5,0,0,1-.39-.41,3.51,3.51,0,0,1-.4-.77c-.07-.18-.15-.36-.21-.54a9.4,9.4,0,0,1-.26-1.17l-.24-1.19c-.07-.39-.13-.79-.19-1.19s-.1-.81-.14-1.21-.09-.81-.13-1.21-.08-.8-.13-1.21l-.12-1.19c0-.4-.06-.79-.08-1.19a18.56,18.56,0,0,1-.05-2.36c0-.25,0-.49.06-.74a6,6,0,0,1,.08-.73,3.23,3.23,0,0,1,.14-.51,1.14,1.14,0,0,1,.09-.26Z"/><path class="cls-1" d="M464.24,238.48l-.11-.06a3.68,3.68,0,0,1-.59-.45l-.49-.41c-.38-.32-.73-.66-1.09-1"/><path class="cls-1" d="M431.91,223.88a.13.13,0,0,0-.07-.06.18.18,0,0,0-.13,0,1,1,0,0,0-.49.12,3.17,3.17,0,0,0-.45.23,2.1,2.1,0,0,0-.46.48,4.65,4.65,0,0,0-.34.62c-.09.2-.18.42-.25.63-.12.37-.22.76-.32,1.13s-.22.75-.32,1.13-.2.77-.29,1.16-.17.78-.25,1.17-.16.79-.24,1.19-.15.79-.22,1.19-.15.8-.21,1.2-.12.8-.17,1.2-.08.8-.13,1.2a9.4,9.4,0,0,0-.11,1.19,5.64,5.64,0,0,0,.05.82,2.47,2.47,0,0,0,.16.65,1.65,1.65,0,0,0,.41.6,2.51,2.51,0,0,0,.67.44,1.54,1.54,0,0,0,.35.15,1.24,1.24,0,0,0,.27,0,.67.67,0,0,0,.24,0,1.35,1.35,0,0,0,.45-.31,3,3,0,0,0,.39-.41,3.51,3.51,0,0,0,.4-.77c.07-.18.15-.36.21-.54a9.4,9.4,0,0,0,.26-1.17l.24-1.19c.07-.39.13-.79.19-1.19s.1-.81.14-1.21.09-.81.13-1.21.08-.8.13-1.21.09-.79.12-1.19.06-.79.08-1.19a18.56,18.56,0,0,0,0-2.36c0-.25,0-.49-.06-.74a6,6,0,0,0-.08-.73,3.23,3.23,0,0,0-.14-.51,1.14,1.14,0,0,0-.09-.26Z"/><path class="cls-1" d="M447.6,222.19a4.69,4.69,0,0,1-2.23-.74,3.89,3.89,0,0,0-4.44-1.07,9.73,9.73,0,0,0-4.09,3.17,15.69,15.69,0,0,0-3.18,7.13,25.25,25.25,0,0,0,.47,11.53,4.46,4.46,0,0,0,3.46,3.23,19.14,19.14,0,0,0,5.18.35,5.88,5.88,0,0,1,3.63.36,3.11,3.11,0,0,0,1.21.24,3.18,3.18,0,0,0,1.21-.24,5.87,5.87,0,0,1,3.63-.36,19.09,19.09,0,0,0,5.17-.35,4.45,4.45,0,0,0,3.46-3.23,25.25,25.25,0,0,0,.47-11.53,15.69,15.69,0,0,0-3.18-7.13,9.73,9.73,0,0,0-4.09-3.17,3.89,3.89,0,0,0-4.44,1.07A4.84,4.84,0,0,1,447.6,222.19Z"/><path class="cls-1" d="M431,238.48l.11-.06a4.19,4.19,0,0,0,.59-.45l.49-.41c.37-.32.73-.66,1.09-1"/><line class="cls-1" x1="374.4" y1="274.55" x2="416.83" y2="274.55"/><line class="cls-1" x1="374.4" y1="271.53" x2="416.83" y2="271.53"/><rect class="cls-1" x="374.4" y="265.33" width="42.43" height="13.46"/></svg>