<?xml version="1.0" encoding="UTF-8" standalone="no"?><!DOCTYPE svg PUBLIC "-//W3C//DTD SVG 1.1//EN" "http://www.w3.org/Graphics/SVG/1.1/DTD/svg11.dtd"><svg width="100%" height="100%" viewBox="0 0 1204 284" version="1.1" xmlns="http://www.w3.org/2000/svg" xmlns:xlink="http://www.w3.org/1999/xlink" xml:space="preserve" xmlns:serif="http://www.serif.com/" style="fill-rule:evenodd;clip-rule:evenodd;"><path d="M229.611,21.687c0,-11.59 -9.41,-21 -21,-21l-186.924,0c-11.59,0 -21,9.41 -21,21l0,181.951c0,11.59 9.41,21 21,21l186.924,0c11.59,0 21,-9.41 21,-21l0,-181.951Z" style="fill:#d43015;"/><path d="M229.391,21.658c0,-11.453 -9.298,-20.75 -20.75,-20.75l-186.983,0c-11.453,0 -20.75,9.297 -20.75,20.75l0,182.01c0,11.452 9.297,20.75 20.75,20.75l186.983,0c11.452,0 20.75,-9.298 20.75,-20.75l0,-182.01Z" style="fill:none;stroke:#000;stroke-width:0.44px;"/><path d="M554.334,21.687c0,-11.59 -9.409,-21 -21,-21l-186.923,0c-11.59,0 -21,9.41 -21,21l0,181.951c0,11.59 9.41,21 21,21l186.923,0c11.591,0 21,-9.41 21,-21l0,-181.951Z" style="fill:#ebebeb;"/><path d="M879.058,21.687c0,-11.59 -9.41,-21 -21,-21l-186.924,0c-11.59,0 -21,9.41 -21,21l0,181.951c0,11.59 9.41,21 21,21l186.924,0c11.59,0 21,-9.41 21,-21l0,-181.951Z" style="fill:#b8b8b8;"/><path d="M1203.78,21.687c0,-11.59 -9.41,-21 -21,-21l-186.923,0c-11.59,0 -21,9.41 -21,21l0,181.951c0,11.59 9.41,21 21,21l186.923,0c11.59,0 21,-9.41 21,-21l0,-181.951Z"/><path d="M554.114,21.658c0,-11.453 -9.298,-20.75 -20.75,-20.75l-186.983,0c-11.452,0 -20.75,9.297 -20.75,20.75l0,182.01c0,11.452 9.298,20.75 20.75,20.75l186.983,0c11.452,0 20.75,-9.298 20.75,-20.75l0,-182.01Z" style="fill:none;stroke:#000;stroke-width:0.44px;"/><path d="M879.058,21.658c0,-11.453 -9.298,-20.75 -20.75,-20.75l-186.983,0c-11.453,0 -20.75,9.297 -20.75,20.75l0,182.01c0,11.452 9.297,20.75 20.75,20.75l186.983,0c11.452,0 20.75,-9.298 20.75,-20.75l0,-182.01Z" style="fill:none;stroke:#000;stroke-width:0.44px;"/><text x="59.384px" y="283.416px" style="font-family:'RobotoCondensed-Light', 'Roboto Condensed';font-weight:300;font-size:30px;">#D43015</text><text x="385.673px" y="283.416px" style="font-family:'RobotoCondensed-Light', 'Roboto Condensed';font-weight:300;font-size:30px;">#EBEBEB</text><text x="711.201px" y="283.123px" style="font-family:'RobotoCondensed-Light', 'Roboto Condensed';font-weight:300;font-size:30px;">#B8B8B8</text><text x="1041.16px" y="283.416px" style="font-family:'RobotoCondensed-Light', 'Roboto Condensed';font-weight:300;font-size:30px;">#000000</text></svg>