<svg xmlns="http://www.w3.org/2000/svg" width="146.653" height="201.357" viewBox="0 0 146.653 201.357">
  <g id="LogoWithNameWhite" transform="translate(0.78)">
    <text id="seated" transform="translate(-0.78 175.357)" fill="#fff" font-size="61" font-family="LamborginiBold, Lamborgini"><tspan x="0" y="0">seated</tspan></text>
    <g id="Group_354" data-name="Group 354" transform="translate(1.091 0)">
      <path id="Path_44602" data-name="Path 44602" d="M144.782,70.535v63.111a7.447,7.447,0,0,1-7.424,7.426H115.085V70.535a7.446,7.446,0,0,1,7.424-7.424h14.85a7.446,7.446,0,0,1,7.424,7.424ZM22.274,63.111H7.424A7.446,7.446,0,0,0,0,70.535v63.111a7.447,7.447,0,0,0,7.424,7.426H29.7V70.535a7.447,7.447,0,0,0-7.426-7.424Zm103.948-7.424V11.137A10.938,10.938,0,0,0,115.085,0H29.7A10.938,10.938,0,0,0,18.563,11.137v44.55h3.711a14.892,14.892,0,0,1,14.85,14.848v7.426h70.535V70.535a14.892,14.892,0,0,1,14.85-14.848Zm-88.6,85.385H107.1V85.385H37.62Z" transform="translate(0 0)" fill="#fff"/>
    </g>
  </g>
</svg>
