<?xml version="1.0" encoding="UTF-8"?>
<svg xmlns="http://www.w3.org/2000/svg" xmlns:xlink="http://www.w3.org/1999/xlink" width="548pt" height="548pt" viewBox="0 0 548 548" version="1.1">
<g id="surface1">
<path style=" stroke:none;fill-rule:nonzero;fill:rgb(100%,100%,100%);fill-opacity:1;" d="M 215.472656 206.15625 C 214.160156 210.761719 209.992188 213.9375 205.171875 213.9375 C 186.101562 213.9375 166.921875 213.9375 147.851562 213.9375 C 125.820312 213.9375 103.902344 213.828125 81.871094 214.046875 C 70.910156 214.160156 59.953125 213.828125 48.992188 215.582031 C 35.292969 217.664062 30.03125 222.925781 26.304688 236.078125 C 17.753906 266.4375 9.097656 296.6875 0.546875 327.046875 C -0.765625 331.757812 1.316406 336.800781 5.589844 339.320312 C 12.714844 343.375 25.207031 343.816406 32.769531 343.816406 C 76.0625 343.816406 119.355469 343.816406 162.644531 343.816406 C 165.277344 343.816406 167.6875 343.488281 170.207031 344.910156 C 172.621094 346.335938 174.59375 347.433594 175.03125 350.609375 C 175.578125 354.226562 172.949219 362.558594 172.070312 365.734375 C 165.933594 387.328125 159.796875 409.027344 153.660156 430.726562 C 151.136719 439.605469 149.273438 448.375 149.164062 457.800781 C 149.054688 467.445312 151.359375 475.664062 155.523438 484.210938 C 160.34375 494.078125 163.632812 498.570312 172.070312 505.804688 C 177.769531 510.734375 187.636719 518.296875 194.757812 521.148438 C 204.84375 524.546875 225.996094 526.191406 236.40625 525.96875 C 243.421875 525.75 250.328125 525.53125 257.230469 523.449219 C 265.230469 521.039062 268.628906 516.542969 270.820312 508.761719 C 284.300781 461.195312 297.78125 413.519531 311.265625 365.953125 C 311.921875 363.652344 311.484375 362.117188 309.730469 360.363281 C 294.933594 346.117188 280.136719 331.867188 265.339844 317.621094 C 261.726562 314.113281 264.136719 307.976562 269.175781 307.976562 C 340.636719 307.976562 411.988281 307.976562 483.445312 307.976562 C 496.925781 307.976562 507.121094 302.933594 517.96875 295.921875 C 523.121094 292.523438 528.382812 289.34375 533.09375 285.179688 C 538.027344 280.90625 540.984375 275.972656 543.066406 269.835938 C 546.574219 259.3125 548 244.1875 547.78125 233.121094 C 547.5625 225.667969 547.234375 221.609375 539.890625 217.773438 C 533.972656 214.707031 528.164062 214.378906 521.804688 214.378906 C 469.636719 214.378906 417.464844 214.378906 365.296875 214.378906 C 358.171875 214.378906 353.023438 207.582031 354.996094 200.675781 C 362.335938 174.8125 369.679688 148.835938 377.023438 122.972656 C 386.886719 88.335938 370.667969 59.183594 340.308594 42.632812 C 325.402344 34.523438 310.496094 32.222656 293.945312 31.785156 C 272.683594 31.125 264.683594 33.320312 258.4375 55.238281 C 243.859375 105.542969 229.613281 155.851562 215.472656 206.15625 Z M 215.472656 206.15625 "/>
</g>
</svg>
