<?xml version="1.0" encoding="utf-8"?>
<!-- Generator: Adobe Illustrator 16.0.0, SVG Export Plug-In . SVG Version: 6.00 Build 0)  -->
<!DOCTYPE svg PUBLIC "-//W3C//DTD SVG 1.1//EN" "http://www.w3.org/Graphics/SVG/1.1/DTD/svg11.dtd">
<svg version="1.1" xmlns="http://www.w3.org/2000/svg" xmlns:xlink="http://www.w3.org/1999/xlink" x="0px" y="0px" width="500px"
	 height="500px" viewBox="1338.67 170.945 500 500" enable-background="new 1338.67 170.945 500 500" xml:space="preserve">
<g id="Layer_6">
</g>
<g id="Layer_2">
</g>
<g id="Layer_4">
	<path fill="#FFFFFF" stroke="#000000" stroke-miterlimit="10" d="M1538.523,344.377c-1.162,4.11-4.913,6.949-9.187,6.949
		c-16.995,0-33.987,0-50.982,0c-19.55,0-39.099-0.066-58.648,0.13c-9.778,0.097-19.508-0.159-29.271,1.363
		c-12.154,1.892-16.86,6.511-20.166,18.192c-7.628,26.947-15.252,53.895-22.879,80.842c-1.194,4.219,0.639,8.709,4.444,10.889
		c6.319,3.613,17.475,4.029,24.148,4.029c38.491,0,76.984,0,115.477,0c2.307,0,4.479-0.277,6.695,1.004
		c2.131,1.23,3.859,2.27,4.271,5.061c0.472,3.195-1.83,10.611-2.628,13.432c-5.445,19.24-10.892,38.482-16.338,57.725
		c-2.235,7.906-3.864,15.723-3.98,24.021c-0.118,8.541,1.913,15.918,5.623,23.5c4.307,8.799,7.225,12.803,14.665,19.238
		c5.022,4.336,13.79,11.105,20.139,13.648c8.999,3.039,27.771,4.467,37.037,4.242c6.269-0.154,12.381-0.387,18.505-2.242
		c7.108-2.148,10.133-6.141,12.077-13.014c11.978-42.316,23.954-84.635,35.93-126.953c0.588-2.07,0.217-3.438-1.335-4.932
		c-13.151-12.662-26.302-25.322-39.451-37.982c-3.224-3.102-1.027-8.551,3.446-8.551c63.489,0,126.979,0,190.469,0
		c12.01,0,21.088-4.455,30.679-10.719c4.604-3.004,9.271-5.854,13.447-9.509c4.392-3.846,7.001-8.217,8.821-13.684
		c3.125-9.4,4.402-22.838,4.184-32.602c-0.15-6.66-0.481-10.189-7.036-13.66c-5.242-2.776-10.437-3-16.068-3
		c-46.39,0-92.778,0-139.169,0c-6.331,0-10.909-6.055-9.187-12.149c6.521-23.035,13.039-46.071,19.56-69.106
		c8.723-30.818-5.683-56.692-32.602-71.396c-13.251-7.238-26.525-9.246-41.184-9.679c-18.873-0.559-26.037,1.326-31.551,20.806
		C1563.826,254.974,1551.175,299.676,1538.523,344.377z"/>
</g>
<g id="Capa_1">
</g>
<g id="Layer_3">
</g>
<g id="Layer_5">
</g>
</svg>
