<?xml version="1.0" encoding="UTF-8"?>
<svg width="500px" height="500px" viewBox="0 0 500 500" version="1.1" xmlns="http://www.w3.org/2000/svg" xmlns:xlink="http://www.w3.org/1999/xlink">
    <!-- Generator: Sketch 56.2 (81672) - https://sketch.com -->
    <title>Artboard</title>
    <desc>Created with Sketch.</desc>
    <g id="Artboard" stroke="none" stroke-width="1" fill="none" fill-rule="evenodd">
        <polygon id="Fill-1-Copy" fill="#FFFFFF" points="324.81816 0 175.18184 250 162.40908 228.67452 76.6285669 85.3404675 102.150108 85.3404675 248.197586 85.3404675 273.735113 42.6740887 76.6285669 42.6740887 51.0830469 42.6740887 0 42.6740887 136.879546 271.340899 149.644313 292.674089 136.879546 314.007278 76.6285669 414.659532 136.879546 314.007278 51.0830469 457.333621 25.537527 500 76.6285669 500 162.40908 356.681367 175.18184 335.348177 200.711374 292.674089 226.256894 250 324.81816 85.3404675 337.59092 106.681367 423.379426 250 397.833906 250 251.794421 250 226.256894 292.674089 423.379426 292.674089 448.90896 292.674089 500 292.674089 363.128447 64.0072781 350.355687 42.6740887"></polygon>
    </g>
</svg>