<?xml version="1.0" encoding="utf-8"?>
<!-- Generator: Adobe Illustrator 16.0.0, SVG Export Plug-In . SVG Version: 6.00 Build 0)  -->
<!DOCTYPE svg PUBLIC "-//W3C//DTD SVG 1.1//EN" "http://www.w3.org/Graphics/SVG/1.1/DTD/svg11.dtd">
<svg version="1.1" xmlns="http://www.w3.org/2000/svg" xmlns:xlink="http://www.w3.org/1999/xlink" x="0px" y="0px" width="500px"
	 height="500px" viewBox="-95.225 726.961 500 500" enable-background="new -95.225 726.961 500 500" xml:space="preserve">
<g id="Layer_6">
</g>
<g id="Layer_2">
</g>
<g id="Layer_4">
</g>
<g id="Capa_1">
</g>
<g id="Layer_3">
</g>
<g id="Layer_5">
	<g>
		<g>
			<path fill="#FFFFFF" d="M-23.49,852.214c0.917-0.446,1.807-0.93,2.669-1.413c0.438,0.578,0.895,1.13,1.435,1.659l50.481,50.492
				c3.159-3.704,7.81-6.038,12.85-6.038c1.632,0,3.256,0.233,4.821,0.698l6.294,1.873l3.917-13.18L2.871,830.196
				c-0.889-0.88-1.847-1.619-2.879-2.251l0.131-0.581c0.134-0.534,0.307-0.935,0.469-1.396c0.129-0.344,0.265-0.706,0.393-1.083
				c0.164-0.368,0.326-0.759,0.489-1.165c0.28-0.677,0.575-1.411,0.957-2.156l1.054-2.14l1.199-2.121
				c0.507-0.973,1.079-1.818,1.731-2.786c0.35-0.512,0.7-1.045,1.057-1.583c0.315-0.423,0.645-0.853,0.972-1.297
				c0.817-1.08,1.579-2.104,2.408-2.987l0.578-0.639c1.095-1.195,2.191-2.431,3.466-3.483c0.406-0.362,0.711-0.642,1.034-0.928
				c0.431-0.4,0.867-0.811,1.333-1.178l2.458-1.787c0.083-0.048,0.139-0.102,0.195-0.154c0.983-0.785,2.165-1.451,3.426-2.154
				c0.505-0.275,0.996-0.55,1.492-0.846c1.056-0.678,2.146-1.114,3.304-1.577c0.585-0.246,1.156-0.479,1.741-0.73
				c0.335-0.133,0.68-0.287,1.018-0.438c0.368-0.15,0.729-0.332,1.095-0.425l2.705-0.76c0.537-0.131,1.161-0.313,1.791-0.494
				c0.878-0.257,1.729-0.5,2.301-0.576l7.24-1.061c1.053-0.151,1.986-0.642,2.706-1.353c0.784-0.794,1.311-1.866,1.384-3.047
				c0.155-2.251-1.276-4.307-3.438-4.942l-7.134-2.03c-1.241-0.372-2.558-0.565-3.829-0.752c-0.565-0.088-1.144-0.171-1.755-0.272
				l-3.124-0.484c-0.98-0.158-1.898-0.181-2.716-0.199c-0.321-0.009-0.646-0.017-0.984-0.033c-0.818-0.011-1.41-0.044-2.021-0.072
				c-1.819-0.074-3.877-0.156-6.063,0.131l-1.384,0.111c-2.093,0.173-4.49,0.365-6.896,0.942l-3.859,0.781
				c-1.188,0.295-2.181,0.602-3.176,0.91l-1.218,0.371c-2.79,0.775-5.43,1.883-7.985,2.961l-0.35,0.146
				c-2.192,0.908-4.181,1.969-6.105,2.994l-1.596,0.849c-0.111,0.056-0.196,0.119-0.308,0.176c-0.616,0.385-1.248,0.764-1.86,1.137
				c-1.666,1.01-3.399,2.053-5.001,3.242l-2.669,1.905c-0.056,0.048-0.318,0.238-0.384,0.293l-2.642,2.107
				c-0.711,0.55-1.367,1.106-1.997,1.658c-4.756,0.79-9.328,2.997-12.991,6.673l-5.656,5.645c-2.604,2.608-5.045,6.264-7.058,10.357
				c-8.865-1.701-20.895,11.391-38.836,29.325l40.119,40.1C-39.047,877.289-21.775,861.079-23.49,852.214z"/>
			<path fill="#FFFFFF" d="M291.099,849.728l25.274,4.889l25.725-32.48c4.697-5.895,12.509-8.591,19.801-6.868v-13.986h-37.993
				v30.394h-40.918L291.099,849.728z"/>
			<polygon fill="#FFFFFF" points="61.735,857.934 69.534,831.67 35.478,831.67 			"/>
			<path fill="#FFFFFF" d="M361.899,995.019v-97.356c-0.683,0.935-1.361,1.881-2.089,2.796
				c-10.573,13.353-24.603,22.963-40.329,28.081h4.439v66.479h-89.057h-12.737l47.698-65.034c0.865-1.106,1.662-2.252,2.4-3.422
				c26.648,6.68,55.969-2.217,74.104-25.102c13.233-16.708,18.378-38.277,14.105-59.191c-0.474-2.37-2.293-4.246-4.639-4.813
				c-2.36-0.555-4.822,0.297-6.332,2.187l-30.745,38.816l-39.971-7.739l-16.688-37.145l30.758-38.818
				c1.505-1.892,1.767-4.493,0.684-6.65c-1.087-2.166-3.325-3.501-5.735-3.434c-21.346,0.63-41.169,10.567-54.405,27.273
				c-18.115,22.875-20.074,53.435-7.508,77.839c-0.951,1-1.885,2.064-2.784,3.193l-61.723,73.428l14.938,14.939
				c3.87,3.871,6.577,8.562,8.023,13.672h-6.659c-1.218-3.353-3.142-6.5-5.841-9.189l-84.964-84.981l-2.209,7.408l5.758,1.715
				c4.332,1.281,7.903,4.177,10.054,8.146c2.149,3.968,2.626,8.546,1.342,12.874c-0.694,2.32-1.885,4.458-3.458,6.267
				c0.444,3.97,0.105,7.989-1.064,11.859l-7.63,25.695l20.208,20.195h-6.475H89.225H75.032l15.005-50.513
				c1.288-4.3,1.179-8.689-0.028-12.688c2.114-1.078,3.812-2.99,4.545-5.449c1.406-4.762-1.306-9.775-6.073-11.183l-13.336-3.972
				l36.25-122.014l1.141,0.34l9.39-18.181l3.684-28.354l-15.65-4.644l-12.181,25.839l-1.957,20.384l1.159,0.346L60.729,906.938
				l-13.879-4.124c-4.75-1.414-9.773,1.302-11.185,6.063c-0.681,2.303-0.4,4.656,0.608,6.646c-3.339,2.708-5.94,6.429-7.259,10.863
				L8.654,995.019H-4.915h-5.479v-66.474h25.228l4.51-15.2c1.136-3.809,1.913-4.855,4.178-8.031l-40.726-41.727
				c-5.577,7.681-11.1,15.649-19.689,24.177l-11.483,11.471v95.784h-12.356v132.975c0,41.954,34.029,75.976,75.991,75.976h283.023
				c41.967,0,75.976-34.016,75.976-75.976V995.019H361.899z M63.669,947.793c1.498-5.061,6.814-7.934,11.875-6.437
				c5.038,1.499,7.927,6.815,6.423,11.872L69.56,995.02H49.64L63.669,947.793z M32.894,938.653
				c1.499-5.053,6.815-7.934,11.873-6.437c5.055,1.5,7.935,6.813,6.43,11.867L36.068,995.02H16.153L32.894,938.653z"/>
			<path fill="#FFFFFF" d="M112.961,831.67l-14.699,49.479l47.403,47.396h25.41l42.263-50.271
				c-5.804-15.01-7.116-31.171-4.241-46.604L112.961,831.67L112.961,831.67z"/>
		</g>
	</g>
</g>
</svg>
