<?xml version="1.0" encoding="utf-8"?>
<!-- Generator: Adobe Illustrator 16.0.0, SVG Export Plug-In . SVG Version: 6.00 Build 0)  -->
<!DOCTYPE svg PUBLIC "-//W3C//DTD SVG 1.1//EN" "http://www.w3.org/Graphics/SVG/1.1/DTD/svg11.dtd">
<svg version="1.1" xmlns="http://www.w3.org/2000/svg" xmlns:xlink="http://www.w3.org/1999/xlink" x="0px" y="0px" width="500px"
	 height="500px" viewBox="-95.225 170.945 500 500" enable-background="new -95.225 170.945 500 500" xml:space="preserve">
<g id="Layer_6">
</g>
<g id="Layer_2">
</g>
<g id="Layer_4">
</g>
<g id="Capa_1">
	<path fill="#FFFFFF" stroke="#FFFFFF" stroke-width="5" stroke-miterlimit="10" d="M66.294,444.756
		c1.247-0.912,2.545-1.727,3.875-2.47c-1.528-1.698-2.902-3.569-4.127-5.61c-1.917,0.435-3.924,0.956-6.04,1.585
		c-47.117,13.979-124.526,90.382-125.303,91.15c-5.301,5.26-7.821,10.569-6.743,14.204c1.079,3.637,6.088,6.714,13.398,8.226
		c0.612,0.128,61.813,12.68,112.238,12.68c8.214,0,15.667-0.334,22.339-0.989c0.004,0.006,0.007,0.014,0.012,0.02
		c-14.071-25.743-26.092-54.571-26.092-77.938C49.851,466.224,55.229,452.86,66.294,444.756z"/>
	<path fill="#FFFFFF" stroke="#FFFFFF" stroke-width="5" stroke-miterlimit="10" d="M249.263,438.261
		c-2.118-0.627-4.125-1.147-6.042-1.585c-1.226,2.039-2.599,3.908-4.125,5.608c1.331,0.743,2.629,1.556,3.877,2.472
		c11.063,8.103,16.44,21.468,16.44,40.858c0,23.358-12.014,52.177-26.081,77.919c6.672,0.655,14.125,0.989,22.34,0.989
		c0.004,0,0.008,0,0.011,0c50.422,0,111.613-12.552,112.226-12.68c7.311-1.514,12.318-4.591,13.398-8.226
		c1.079-3.635-1.442-8.944-6.743-14.206C373.789,528.643,296.339,452.228,249.263,438.261z"/>
	<path fill="#FFFFFF" stroke="#FFFFFF" stroke-width="5" stroke-miterlimit="10" d="M108.49,432.044
		c0.619,1.033,1.197,2.106,1.746,3.208c5.533-0.042,11.641-0.412,18.088-0.813c-2.022-38.012-9.139-58.755-13.641-68.333
		c-6.032-0.571-10.765-6.046-10.765-12.727c0-7.058,5.285-12.781,11.803-12.781c6.518,0,11.802,5.723,11.802,12.781
		c0,2.647-0.743,5.104-2.015,7.145c5.273,11.065,12.846,33.447,14.965,73.222c2.649-0.124,5.337-0.227,8.074-0.29v-92.464
		c-3.42-2.238-5.717-6.292-5.717-10.938c0-7.056,5.283-12.779,11.802-12.779s11.803,5.723,11.803,12.78
		c0,4.645-2.297,8.7-5.717,10.938v92.463c2.768,0.065,5.486,0.168,8.165,0.296c2.116-39.684,9.657-62.055,14.93-73.148
		c-1.304-2.055-2.07-4.542-2.07-7.225c0-7.058,5.282-12.781,11.802-12.781c6.518,0,11.802,5.723,11.802,12.781
		c0,6.646-4.684,12.102-10.671,12.72c-4.501,9.58-11.62,30.325-13.643,68.345c6.412,0.398,12.488,0.767,17.994,0.809
		c0.55-1.102,1.128-2.177,1.747-3.21c6.41-10.679,16.111-16.4,28.857-17.04c0.597-3.644,0.909-7.924,0.909-12.984
		c0-53.123-59.775-144.492-60.378-145.41c-4.446-6.743-9.96-10.458-15.53-10.458c-5.569,0-11.086,3.714-15.53,10.459
		c-0.602,0.917-60.378,92.286-60.378,145.408c0,4.94,0.313,9.254,0.927,12.985C92.388,415.646,102.084,421.368,108.49,432.044z"/>
</g>
<g id="Layer_3">
	<g>
		
			<path fill="none" stroke="#FFFFFF" stroke-width="12" stroke-miterlimit="10" stroke-dasharray="16.4489,10.966,16.4489,10.966,16.4489,10.966" d="
			M59.03,417.505c-1.558,0.407-3.15,0.819-4.799,1.309c-14.986,4.447-32.184,14.06-49.151,25.565c0,0-1.692,1.153-3.344-0.114
			c-39.577-30.373-85.684-126.038-86.154-127.023c-3.217-6.75-3.764-12.682-1.497-16.275c2.031-3.218,6.633-4.991,12.958-4.991
			c1.021,0,2.093,0.048,3.185,0.142c1.044,0.09,99.128,8.03,143.845,33.044c1.909,1.069,1.974,2.763,1.678,3.48
			c-9.834,23.784-17.31,48.673-17.31,69.376c0,5.342,0.34,10.237,1.001,14.729C59.439,416.747,59.631,417.348,59.03,417.505z"/>
	</g>
	<g>
		
			<path fill="none" stroke="#FFFFFF" stroke-width="12" stroke-miterlimit="10" stroke-dasharray="18.3681,12.2454,18.3681,12.2454,18.3681,12.2454" d="
			M204.552,455.861c-6.559,0-13.832,0.376-21.532,0.776c-9.06,0.471-18.429,0.956-28.39,0.956s-19.329-0.487-28.39-0.956
			c-7.699-0.4-14.971-0.776-21.528-0.776c-24.386,0-34.579,4.134-34.579,29.753c0,48.136,64.813,130.98,65.467,131.811
			c5.216,6.617,11.975,10.264,19.029,10.264c7.056,0,13.814-3.646,19.032-10.267c0.653-0.829,65.466-83.672,65.466-131.81
			C239.13,459.995,228.935,455.861,204.552,455.861z"/>
	</g>
	<g>
		
			<path fill="none" stroke="#FFFFFF" stroke-width="12" stroke-miterlimit="10" stroke-dasharray="16.4752,10.9834,16.4752,10.9834,16.4752,10.9834" d="
			M249.81,416.842c0.635-4.522,1.015-9.444,1.015-14.823c0-20.873-7.6-46-17.553-69.96c-0.219-0.527-0.168-1.734,0.65-2.203
			c44.234-25.322,144.061-33.646,145.116-33.737c1.091-0.095,2.163-0.143,3.184-0.143c6.325,0,10.926,1.773,12.957,4.991
			c2.267,3.594,1.722,9.525-1.497,16.275c-0.475,0.995-47.179,98.653-87.183,127.761c-0.122,0.09-0.59,0.593-1.336,0.064
			c-17.208-12.189-34.747-21.689-50.13-26.253c-1.648-0.489-3.236-0.914-4.796-1.308C250.238,417.506,249.712,417.53,249.81,416.842
			z"/>
	</g>
</g>
<g id="Layer_5">
</g>
</svg>
