<?xml version="1.0" encoding="UTF-8" standalone="no"?><!DOCTYPE svg PUBLIC "-//W3C//DTD SVG 1.1//EN" "http://www.w3.org/Graphics/SVG/1.1/DTD/svg11.dtd"><svg width="100%" height="100%" viewBox="0 0 50 49" version="1.1" xmlns="http://www.w3.org/2000/svg" xmlns:xlink="http://www.w3.org/1999/xlink" xml:space="preserve" xmlns:serif="http://www.serif.com/" style="fill-rule:evenodd;clip-rule:evenodd;stroke-linejoin:round;stroke-miterlimit:2;"><g><path d="M49.815,24.269l0,21.714c0,1.405 -1.15,2.555 -2.555,2.555l-7.664,0l0,-24.269c0,-1.405 1.15,-2.555 2.555,-2.555l5.109,0c1.405,0 2.555,1.15 2.555,2.555Zm-42.151,-2.555l-5.109,0c-1.405,0 -2.555,1.15 -2.555,2.555l0,21.714c0,1.405 1.15,2.555 2.555,2.555l7.663,0l0,-24.269c0,-1.405 -1.149,-2.555 -2.554,-2.555Zm35.764,-2.554l0,-15.328c0,-2.172 -1.66,-3.832 -3.832,-3.832l-29.378,0c-2.171,0 -3.831,1.66 -3.831,3.832l0,15.328l1.277,0c2.81,0 5.109,2.299 5.109,5.109l0,2.554l24.269,0l0,-2.554c0,-2.81 2.299,-5.109 5.109,-5.109l1.277,0Zm-30.484,29.378l23.906,0l0,-19.16l-23.906,0l0,19.16Z" style="fill:#fff;fill-rule:nonzero;"/></g></svg>