<?xml version="1.0" encoding="UTF-8" standalone="no"?><!DOCTYPE svg PUBLIC "-//W3C//DTD SVG 1.1//EN" "http://www.w3.org/Graphics/SVG/1.1/DTD/svg11.dtd"><svg width="100%" height="100%" viewBox="0 0 512 512" version="1.1" xmlns="http://www.w3.org/2000/svg" xmlns:xlink="http://www.w3.org/1999/xlink" xml:space="preserve" xmlns:serif="http://www.serif.com/" style="fill-rule:evenodd;clip-rule:evenodd;stroke-linejoin:round;stroke-miterlimit:2;"><rect x="12.325" y="12.825" width="489" height="484" style="fill:#3c3c3c;"/><path d="M497,0l-482,0c-8.284,0 -15,6.716 -15,15l0,482c0,8.284 6.716,15 15,15l482,0c8.284,0 15,-6.716 15,-15l0,-482c0,-8.284 -6.716,-15 -15,-15Zm-15,482l-452,0l0,-452l452,0l0,452Z" style="fill:#fff;fill-rule:nonzero;"/><path d="M390.998,135.956c-0.024,-8.216 -6.709,-14.96 -15.003,-14.956l-59.995,0c-8.284,0 -15,6.716 -15,15c0,8.284 6.716,15 15,15l23.787,0l-188.787,188.787l0,-23.787c0,-8.284 -6.716,-15 -15,-15c-8.284,0 -15,6.716 -15,15l0,60c0,0.015 0.002,0.03 0.002,0.044c0.024,8.206 6.693,14.956 14.998,14.956l60,0c8.284,0 15,-6.716 15,-15c0,-8.284 -6.716,-15 -15,-15l-23.787,0l188.787,-188.787l0,23.787c0,8.284 6.716,15 15,15c8.284,0 15,-6.716 15,-15l0,-60c0,-0.015 -0.002,-0.03 -0.002,-0.044Z" style="fill:#fff;fill-rule:nonzero;stroke:#fff;stroke-width:1px;"/></svg>