<?xml version="1.0" encoding="UTF-8" standalone="no"?><!DOCTYPE svg PUBLIC "-//W3C//DTD SVG 1.1//EN" "http://www.w3.org/Graphics/SVG/1.1/DTD/svg11.dtd"><svg width="100%" height="100%" viewBox="0 0 1023 416" version="1.1" xmlns="http://www.w3.org/2000/svg" xmlns:xlink="http://www.w3.org/1999/xlink" xml:space="preserve" xmlns:serif="http://www.serif.com/" style="fill-rule:evenodd;clip-rule:evenodd;"><rect id="Artboard1" x="0" y="0" width="1022.65" height="415.534" style="fill:none;"/><clipPath id="_clip1"><rect x="0" y="0" width="1022.65" height="415.534"/></clipPath><g clip-path="url(#_clip1)"><rect x="-71" y="-140" width="1200" height="774.75" style="fill:#fff;"/><rect x="-71" y="-140" width="1200" height="774.75" style="fill:#fff;"/><rect x="-71" y="-92" width="1200" height="726.75" style="fill:#fff;"/><rect x="-71" y="-92" width="1200" height="626.25" style="fill:#fff;"/><rect x="-70.25" y="-92" width="1199.25" height="626.25" style="fill:#fff;"/><path d="M-70.25,425.5l0,-516c0,-0.414 0.146,-0.768 0.439,-1.061c0.293,-0.293 0.647,-0.439 1.061,-0.439l1196.25,0c0.414,0 0.768,0.146 1.061,0.439c0.292,0.293 0.439,0.647 0.439,1.061l0,516c0,0.414 -0.147,0.768 -0.439,1.061c-0.293,0.293 -0.647,0.439 -1.061,0.439l-1196.25,0c-0.414,0 -0.768,-0.146 -1.061,-0.439c-0.293,-0.293 -0.439,-0.647 -0.439,-1.061Z" style="fill:#fff;fill-rule:nonzero;"/><rect x="-70.25" y="16" width="1199.25" height="411" style="fill:#fff;"/><g><clipPath id="_clip2"><path d="M7.75,48.25l0,-11.25c0,-1.5 0.75,-2.25 2.25,-2.25l114.75,0c1.5,0 2.25,0.75 2.25,2.25l0,11.25c0,1.5 -0.75,2.25 -2.25,2.25l-114.75,0c-1.5,0 -2.25,-0.75 -2.25,-2.25Z" clip-rule="nonzero"/></clipPath><g clip-path="url(#_clip2)"><rect x="7.75" y="34.75" width="119.25" height="15.75" style="fill:#fff;"/><path d="M7.75,48.25l0,-11.25c0,-0.621 0.22,-1.152 0.659,-1.591c0.439,-0.439 0.97,-0.659 1.591,-0.659l114.75,0c0.621,0 1.152,0.22 1.591,0.659c0.439,0.439 0.659,0.97 0.659,1.591l0,11.25c0,0.621 -0.22,1.152 -0.659,1.591c-0.439,0.439 -0.97,0.659 -1.591,0.659l-114.75,0c-0.621,0 -1.152,-0.22 -1.591,-0.659c-0.439,-0.439 -0.659,-0.97 -0.659,-1.591Zm0.75,0l0,-11.25c0,-0.414 0.146,-0.768 0.439,-1.061c0.293,-0.293 0.647,-0.439 1.061,-0.439l114.75,0c0.414,0 0.768,0.146 1.061,0.439c0.293,0.293 0.439,0.647 0.439,1.061l0,11.25c0,0.414 -0.146,0.768 -0.439,1.061c-0.293,0.293 -0.647,0.439 -1.061,0.439l-114.75,0c-0.414,0 -0.768,-0.146 -1.061,-0.439c-0.293,-0.293 -0.439,-0.647 -0.439,-1.061Z" style="fill:#6b7d4b;"/></g></g><path d="M146.5,60.25l70.5,0l0,224.25l-12,0l-46.5,0l-12,0l0,-224.25Z" style="fill:#bebebe;fill-opacity:0.8;fill-rule:nonzero;stroke:#bebebe;stroke-width:0.6px;"/><path d="M146.5,318.25l12,0c23.25,0 23.25,7.5 46.5,7.5l12,0l0,30.75l-12,0c-23.25,0 -23.25,-7.5 -46.5,-7.5l-12,0l0,-30.75Z" style="fill:#bebebe;fill-opacity:0.8;fill-rule:nonzero;stroke:#bebebe;stroke-width:0.6px;"/><path d="M146.5,382.75l12,0c23.25,0 23.25,-98.25 46.5,-98.25l12,0l0,7.5l-12,0c-23.25,0 -23.25,98.25 -46.5,98.25l-12,0l0,-7.5Z" style="fill:#bebebe;fill-opacity:0.8;fill-rule:nonzero;stroke:#bebebe;stroke-width:0.6px;"/><path d="M356.5,60.25l70.5,0l0,23.25l-12,0l-46.5,0l-12,0l0,-23.25Z" style="fill:#bebebe;fill-opacity:0.8;fill-rule:nonzero;stroke:#bebebe;stroke-width:0.6px;"/><path d="M356.5,83.5l12,0c23.25,0 23.25,33.75 46.5,33.75l12,0l0,15.75l-12,0c-23.25,0 -23.25,-33.75 -46.5,-33.75l-12,0l0,-15.75Z" style="fill:#bebebe;fill-opacity:0.8;fill-rule:nonzero;stroke:#bebebe;stroke-width:0.6px;"/><path d="M356.5,137.5l12,0c23.25,0 23.25,168.75 46.5,168.75l12,0l0,23.25l-12,0c-23.25,0 -23.25,-168.75 -46.5,-168.75l-12,0l0,-23.25Z" style="fill:#bebebe;fill-opacity:0.8;fill-rule:nonzero;stroke:#bebebe;stroke-width:0.6px;"/><path d="M356.5,98.5l12,0c23.25,0 23.25,117 46.5,117l12,0l0,15.75l-12,0c-23.25,0 -23.25,-117 -46.5,-117l-12,0l0,-15.75Z" style="fill:#bebebe;fill-opacity:0.8;fill-rule:nonzero;stroke:#bebebe;stroke-width:0.6px;"/><path d="M356.5,114.25l12,0c23.25,0 23.25,51.75 46.5,51.75l12,0l0,15.75l-12,0c-23.25,0 -23.25,-51.75 -46.5,-51.75l-12,0l0,-15.75Z" style="fill:#bebebe;fill-opacity:0.8;fill-rule:nonzero;stroke:#bebebe;stroke-width:0.6px;"/><path d="M356.5,130l12,0c23.25,0 23.25,135 46.5,135l12,0l0,7.5l-12,0c-23.25,0 -23.25,-135 -46.5,-135l-12,0l0,-7.5Z" style="fill:#bebebe;fill-opacity:0.8;fill-rule:nonzero;stroke:#bebebe;stroke-width:0.6px;"/><path d="M356.5,325.75l12,0c23.25,0 23.25,3.75 46.5,3.75l12,0l0,7.5l-12,0c-23.25,0 -23.25,-3.75 -46.5,-3.75l-12,0l0,-7.5Z" style="fill:#bebebe;fill-opacity:0.8;fill-rule:nonzero;stroke:#bebebe;stroke-width:0.6px;"/><path d="M566.5,60.25l70.5,0l0,23.25l-12,0l-46.5,0l-12,0l0,-23.25Z" style="fill:#bebebe;fill-opacity:0.8;fill-rule:nonzero;stroke:#bebebe;stroke-width:0.6px;"/><path d="M566.5,117.25l12,0c23.25,0 23.25,-33.75 46.5,-33.75l12,0l0,7.5l-12,0c-23.25,0 -23.25,33.75 -46.5,33.75l-12,0l0,-7.5Z" style="fill:#bebebe;fill-opacity:0.8;fill-rule:nonzero;stroke:#bebebe;stroke-width:0.6px;"/><path d="M566.5,124.75l12,0c23.25,0 23.25,39 46.5,39l12,0l0,7.5l-12,0c-23.25,0 -23.25,-39 -46.5,-39l-12,0l0,-7.5Z" style="fill:#bebebe;fill-opacity:0.8;fill-rule:nonzero;stroke:#bebebe;stroke-width:0.6px;"/><path d="M566.5,166l12,0c23.25,0 23.25,-75 46.5,-75l12,0l0,7.5l-12,0c-23.25,0 -23.25,75 -46.5,75l-12,0l0,-7.5Z" style="fill:#bebebe;fill-opacity:0.8;fill-rule:nonzero;stroke:#bebebe;stroke-width:0.6px;"/><path d="M566.5,265l12,0c23.25,0 23.25,-166.5 46.5,-166.5l12,0l0,7.5l-12,0c-23.25,0 -23.25,166.5 -46.5,166.5l-12,0l0,-7.5Z" style="fill:#bebebe;fill-opacity:0.8;fill-rule:nonzero;stroke:#bebebe;stroke-width:0.6px;"/><path d="M566.5,306.25l12,0c23.25,0 23.25,-199.5 46.5,-199.5l12,0l0,23.25l-12,0c-23.25,0 -23.25,199.5 -46.5,199.5l-12,0l0,-23.25Z" style="fill:#bebebe;fill-opacity:0.8;fill-rule:nonzero;stroke:#bebebe;stroke-width:0.6px;"/><path d="M566.5,329.5l12,0c23.25,0 23.25,-158.25 46.5,-158.25l12,0l0,7.5l-12,0c-23.25,0 -23.25,158.25 -46.5,158.25l-12,0l0,-7.5Z" style="fill:#bebebe;fill-opacity:0.8;fill-rule:nonzero;stroke:#bebebe;stroke-width:0.6px;"/><path d="M776.5,106.75l12,0c23.25,0 23.25,176.25 46.5,176.25l12,0l0,7.5l-12,0c-23.25,0 -23.25,-176.25 -46.5,-176.25l-12,0l0,-7.5Z" style="fill:#bebebe;fill-opacity:0.8;fill-rule:nonzero;stroke:#bebebe;stroke-width:0.6px;"/><path d="M776.5,76l12,0c23.25,0 23.25,-15.75 46.5,-15.75l12,0l0,7.5l-12,0c-23.25,0 -23.25,15.75 -46.5,15.75l-12,0l0,-7.5Z" style="fill:#bebebe;fill-opacity:0.8;fill-rule:nonzero;stroke:#bebebe;stroke-width:0.6px;"/><path d="M776.5,83.5l12,0c23.25,0 23.25,116.25 46.5,116.25l12,0l0,7.5l-12,0c-23.25,0 -23.25,-116.25 -46.5,-116.25l-12,0l0,-7.5Z" style="fill:#bebebe;fill-opacity:0.8;fill-rule:nonzero;stroke:#bebebe;stroke-width:0.6px;"/><path d="M776.5,60.25l12,0c23.25,0 23.25,49.5 46.5,49.5l12,0l0,15.75l-12,0c-23.25,0 -23.25,-49.5 -46.5,-49.5l-12,0l0,-15.75Z" style="fill:#bebebe;fill-opacity:0.8;fill-rule:nonzero;stroke:#bebebe;stroke-width:0.6px;"/><path d="M776.5,91l12,0c23.25,0 23.25,67.5 46.5,67.5l12,0l0,7.5l-12,0c-23.25,0 -23.25,-67.5 -46.5,-67.5l-12,0l0,-7.5Z" style="fill:#bebebe;fill-opacity:0.8;fill-rule:nonzero;stroke:#bebebe;stroke-width:0.6px;"/><path d="M776.5,98.5l12,0c23.25,0 23.25,143.25 46.5,143.25l12,0l0,7.5l-12,0c-23.25,0 -23.25,-143.25 -46.5,-143.25l-12,0l0,-7.5Z" style="fill:#bebebe;fill-opacity:0.8;fill-rule:nonzero;stroke:#bebebe;stroke-width:0.6px;"/><path d="M776.5,171.25l12,0c23.25,0 23.25,119.25 46.5,119.25l12,0l0,7.5l-12,0c-23.25,0 -23.25,-119.25 -46.5,-119.25l-12,0l0,-7.5Z" style="fill:#bebebe;fill-opacity:0.8;fill-rule:nonzero;stroke:#bebebe;stroke-width:0.6px;"/><path d="M776.5,163.75l12,0c23.25,0 23.25,-96 46.5,-96l12,0l0,7.5l-12,0c-23.25,0 -23.25,96 -46.5,96l-12,0l0,-7.5Z" style="fill:#bebebe;fill-opacity:0.8;fill-rule:nonzero;stroke:#bebebe;stroke-width:0.6px;"/><g transform="matrix(1,0,0,1,-71,-140)"><text x="83.25px" y="185.25px" style="font-family:'Roboto-Bold', 'Roboto';font-weight:700;font-size:9px;fill:#ababab;">Landing</text><text x="117.843px" y="185.25px" style="font-family:'Roboto-Bold', 'Roboto';font-weight:700;font-size:9px;fill:#ababab;">P</text><text x="123.648px" y="185.25px" style="font-family:'Roboto-Bold', 'Roboto';font-weight:700;font-size:9px;fill:#ababab;">age</text></g><text x="217.75px" y="51.25px" style="font-family:'Roboto-Bold', 'Roboto';font-weight:700;font-size:9px;fill:#222;">34 sessions, 20 drop-offs</text><text x="427.75px" y="51.25px" style="font-family:'Roboto-Bold', 'Roboto';font-weight:700;font-size:9px;fill:#222;">14 sessions, 3 drop-offs</text><text x="637.75px" y="51.25px" style="font-family:'Roboto-Bold', 'Roboto';font-weight:700;font-size:9px;fill:#222;">11 sessions, 2 drop-offs</text><text x="847.75px" y="51.25px" style="font-family:'Roboto-Bold', 'Roboto';font-weight:700;font-size:9px;fill:#222;">9 sessions, 2 drop-offs</text><text x="217.75px" y="39.25px" style="font-family:'Roboto-Bold', 'Roboto';font-weight:700;font-size:9px;fill:#333;">Starting pages</text><text x="427.75px" y="39.25px" style="font-family:'Roboto-Bold', 'Roboto';font-weight:700;font-size:9px;fill:#333;">1st Interaction</text><text x="637.75px" y="39.25px" style="font-family:'Roboto-Bold', 'Roboto';font-weight:700;font-size:9px;fill:#333;">2nd Interaction</text><text x="847.75px" y="39.25px" style="font-family:'Roboto-Bold', 'Roboto';font-weight:700;font-size:9px;fill:#333;">3rd Interaction</text><g opacity="0.9"><g><clipPath id="_clip3"><rect x="7" y="60" width="140" height="225" clip-rule="nonzero"/></clipPath><g clip-path="url(#_clip3)"><path d="M7,281.5l0,-218.25c0,-1.036 0.366,-1.919 1.098,-2.652c0.733,-0.732 1.616,-1.098 2.652,-1.098l132.75,0c1.036,0 1.919,0.366 2.652,1.098c0.732,0.733 1.098,1.616 1.098,2.652l0,218.25c0,1.036 -0.366,1.919 -1.098,2.652c-0.733,0.732 -1.616,1.098 -2.652,1.098l-132.75,0c-1.036,0 -1.919,-0.366 -2.652,-1.098c-0.732,-0.733 -1.098,-1.616 -1.098,-2.652Zm2.25,-1.5l0,-215.25c0,-0.828 0.293,-1.536 0.879,-2.121c0.585,-0.586 1.293,-0.879 2.121,-0.879l129.75,0c0.828,0 1.536,0.293 2.121,0.879c0.586,0.585 0.879,1.293 0.879,2.121l0,215.25c0,0.828 -0.293,1.535 -0.879,2.121c-0.585,0.586 -1.293,0.879 -2.121,0.879l-129.75,0c-0.828,0 -1.536,-0.293 -2.121,-0.879c-0.586,-0.586 -0.879,-1.293 -0.879,-2.121Z" style="fill:#d1dfe0;"/><path d="M7.75,281.5l0,-218.25c0,-0.828 0.293,-1.536 0.879,-2.121c0.585,-0.586 1.293,-0.879 2.121,-0.879l132.75,0c0.828,0 1.536,0.293 2.121,0.879c0.586,0.585 0.879,1.293 0.879,2.121l0,218.25c0,0.828 -0.293,1.536 -0.879,2.121c-0.585,0.586 -1.293,0.879 -2.121,0.879l-132.75,0c-0.828,0 -1.536,-0.293 -2.121,-0.879c-0.586,-0.585 -0.879,-1.293 -0.879,-2.121Z" style="fill:#fff;fill-rule:nonzero;"/><g transform="matrix(1,0,0,1,-71,-140)"><text x="102px" y="214.5px" style="font-family:'ArialMT', 'Arial', sans-serif;font-size:9px;fill:#555;">/</text><text x="102px" y="224.25px" style="font-family:'Arial-BoldMT', 'Arial', sans-serif;font-weight:700;font-size:9px;fill:#555;">29</text></g></g></g></g><g opacity="0.9"><g><clipPath id="_clip4"><rect x="7" y="318" width="140" height="32" clip-rule="nonzero"/></clipPath><g clip-path="url(#_clip4)"><path d="M7,346l0,-24.75c0,-1.036 0.366,-1.919 1.098,-2.652c0.733,-0.732 1.616,-1.098 2.652,-1.098l132.75,0c1.036,0 1.919,0.366 2.652,1.098c0.732,0.733 1.098,1.616 1.098,2.652l0,24.75c0,1.036 -0.366,1.919 -1.098,2.652c-0.733,0.732 -1.616,1.098 -2.652,1.098l-132.75,0c-1.036,0 -1.919,-0.366 -2.652,-1.098c-0.732,-0.733 -1.098,-1.616 -1.098,-2.652Zm2.25,-1.5l0,-21.75c0,-0.828 0.293,-1.536 0.879,-2.121c0.585,-0.586 1.293,-0.879 2.121,-0.879l129.75,0c0.828,0 1.536,0.293 2.121,0.879c0.586,0.585 0.879,1.293 0.879,2.121l0,21.75c0,0.828 -0.293,1.535 -0.879,2.121c-0.585,0.586 -1.293,0.879 -2.121,0.879l-129.75,0c-0.828,0 -1.536,-0.293 -2.121,-0.879c-0.586,-0.586 -0.879,-1.293 -0.879,-2.121Z" style="fill:#d1dfe0;"/><path d="M7.75,346l0,-24.75c0,-0.828 0.293,-1.536 0.879,-2.121c0.585,-0.586 1.293,-0.879 2.121,-0.879l132.75,0c0.828,0 1.536,0.293 2.121,0.879c0.586,0.585 0.879,1.293 0.879,2.121l0,24.75c0,0.828 -0.293,1.536 -0.879,2.121c-0.585,0.586 -1.293,0.879 -2.121,0.879l-132.75,0c-0.828,0 -1.536,-0.293 -2.121,-0.879c-0.586,-0.585 -0.879,-1.293 -0.879,-2.121Z" style="fill:#fff;fill-rule:nonzero;"/><g transform="matrix(1,0,0,1,-71,-140)"><text x="102px" y="472.5px" style="font-family:'ArialMT', 'Arial', sans-serif;font-size:9px;fill:#555;">/tactileﬂux</text><text x="102px" y="482.25px" style="font-family:'Arial-BoldMT', 'Arial', sans-serif;font-weight:700;font-size:9px;fill:#555;">4</text></g></g></g></g><g opacity="0.9"><g><clipPath id="_clip5"><rect x="7" y="382" width="140" height="27" clip-rule="nonzero"/></clipPath><g clip-path="url(#_clip5)"><path d="M7,387.25l0,-1.5c0,-1.036 0.366,-1.919 1.098,-2.652c0.733,-0.732 1.616,-1.098 2.652,-1.098l132.75,0c1.036,0 1.919,0.366 2.652,1.098c0.732,0.733 1.098,1.616 1.098,2.652l0,1.5c0,1.036 -0.366,1.919 -1.098,2.652c-0.733,0.732 -1.616,1.098 -2.652,1.098l-132.75,0c-1.036,0 -1.919,-0.366 -2.652,-1.098c-0.732,-0.733 -1.098,-1.616 -1.098,-2.652Zm2.25,-0.75c0,-0.621 0.22,-1.152 0.659,-1.591c0.439,-0.439 0.97,-0.659 1.591,-0.659l131.25,0c0.621,0 1.152,0.22 1.591,0.659c0.439,0.439 0.659,0.97 0.659,1.591c0,0.621 -0.22,1.152 -0.659,1.591c-0.439,0.439 -0.97,0.659 -1.591,0.659l-131.25,0c-0.621,0 -1.152,-0.22 -1.591,-0.659c-0.439,-0.439 -0.659,-0.97 -0.659,-1.591Z" style="fill:#d1dfe0;"/><path d="M7.75,387.25l0,-1.5c0,-0.828 0.293,-1.536 0.879,-2.121c0.585,-0.586 1.293,-0.879 2.121,-0.879l132.75,0c0.828,0 1.536,0.293 2.121,0.879c0.586,0.585 0.879,1.293 0.879,2.121l0,1.5c0,0.828 -0.293,1.535 -0.879,2.121c-0.585,0.586 -1.293,0.879 -2.121,0.879l-132.75,0c-0.828,0 -1.536,-0.293 -2.121,-0.879c-0.586,-0.586 -0.879,-1.293 -0.879,-2.121Z" style="fill:#fff;fill-rule:nonzero;"/><g transform="matrix(1,0,0,1,-71,-140)"><text x="102px" y="537px" style="font-family:'ArialMT', 'Arial', sans-serif;font-size:9px;fill:#555;">/?fbclid=Iw.<tspan x="147.217px " y="537px ">.</tspan>.gSFxitSQ2I</text><text x="102px" y="546.75px" style="font-family:'Arial-BoldMT', 'Arial', sans-serif;font-weight:700;font-size:9px;fill:#555;">1</text></g></g></g></g><g opacity="0.9"><g><clipPath id="_clip6"><rect x="217" y="60" width="140" height="233" clip-rule="nonzero"/></clipPath><g clip-path="url(#_clip6)"><path d="M217,289l0,-225.75c0,-1.036 0.366,-1.919 1.098,-2.652c0.733,-0.732 1.616,-1.098 2.652,-1.098l132.75,0c1.036,0 1.919,0.366 2.652,1.098c0.732,0.733 1.098,1.616 1.098,2.652l0,225.75c0,1.036 -0.366,1.919 -1.098,2.652c-0.733,0.732 -1.616,1.098 -2.652,1.098l-132.75,0c-1.036,0 -1.919,-0.366 -2.652,-1.098c-0.732,-0.733 -1.098,-1.616 -1.098,-2.652Zm2.25,-1.5l0,-222.75c0,-0.828 0.293,-1.536 0.879,-2.121c0.585,-0.586 1.293,-0.879 2.121,-0.879l129.75,0c0.828,0 1.536,0.293 2.121,0.879c0.586,0.585 0.879,1.293 0.879,2.121l0,222.75c0,0.828 -0.293,1.536 -0.879,2.121c-0.585,0.586 -1.293,0.879 -2.121,0.879l-129.75,0c-0.828,0 -1.536,-0.293 -2.121,-0.879c-0.586,-0.585 -0.879,-1.293 -0.879,-2.121Z" style="fill:#d1dfe0;"/><path d="M217.75,289l0,-225.75c0,-0.828 0.293,-1.536 0.879,-2.121c0.585,-0.586 1.293,-0.879 2.121,-0.879l132.75,0c0.828,0 1.535,0.293 2.121,0.879c0.586,0.585 0.879,1.293 0.879,2.121l0,225.75c0,0.828 -0.293,1.536 -0.879,2.121c-0.586,0.586 -1.293,0.879 -2.121,0.879l-132.75,0c-0.828,0 -1.536,-0.293 -2.121,-0.879c-0.586,-0.585 -0.879,-1.293 -0.879,-2.121Z" style="fill:#85ca54;fill-rule:nonzero;"/><g transform="matrix(1,0,0,1,-71,-140)"><text x="312px" y="214.5px" style="font-family:'ArialMT', 'Arial', sans-serif;font-size:9px;fill:#555;">/</text><text x="312px" y="224.25px" style="font-family:'Arial-BoldMT', 'Arial', sans-serif;font-weight:700;font-size:9px;fill:#555;">30</text></g></g></g></g><g opacity="0.9"><g><clipPath id="_clip7"><rect x="217" y="325" width="140" height="32" clip-rule="nonzero"/></clipPath><g clip-path="url(#_clip7)"><path d="M217,353.5l0,-24.75c0,-1.036 0.366,-1.919 1.098,-2.652c0.733,-0.732 1.616,-1.098 2.652,-1.098l132.75,0c1.036,0 1.919,0.366 2.652,1.098c0.732,0.733 1.098,1.616 1.098,2.652l0,24.75c0,1.036 -0.366,1.919 -1.098,2.652c-0.733,0.732 -1.616,1.098 -2.652,1.098l-132.75,0c-1.036,0 -1.919,-0.366 -2.652,-1.098c-0.732,-0.733 -1.098,-1.616 -1.098,-2.652Zm2.25,-1.5l0,-21.75c0,-0.828 0.293,-1.536 0.879,-2.121c0.585,-0.586 1.293,-0.879 2.121,-0.879l129.75,0c0.828,0 1.536,0.293 2.121,0.879c0.586,0.585 0.879,1.293 0.879,2.121l0,21.75c0,0.828 -0.293,1.536 -0.879,2.121c-0.585,0.586 -1.293,0.879 -2.121,0.879l-129.75,0c-0.828,0 -1.536,-0.293 -2.121,-0.879c-0.586,-0.585 -0.879,-1.293 -0.879,-2.121Z" style="fill:#d1dfe0;"/><path d="M217.75,353.5l0,-24.75c0,-0.828 0.293,-1.536 0.879,-2.121c0.585,-0.586 1.293,-0.879 2.121,-0.879l132.75,0c0.828,0 1.535,0.293 2.121,0.879c0.586,0.585 0.879,1.293 0.879,2.121l0,24.75c0,0.828 -0.293,1.535 -0.879,2.121c-0.586,0.586 -1.293,0.879 -2.121,0.879l-132.75,0c-0.828,0 -1.536,-0.293 -2.121,-0.879c-0.586,-0.586 -0.879,-1.293 -0.879,-2.121Z" style="fill:#85ca54;fill-rule:nonzero;"/><g transform="matrix(1,0,0,1,-71,-140)"><text x="312px" y="480px" style="font-family:'ArialMT', 'Arial', sans-serif;font-size:9px;fill:#555;">tactileﬂux</text><text x="312px" y="489.75px" style="font-family:'Arial-BoldMT', 'Arial', sans-serif;font-weight:700;font-size:9px;fill:#555;">4</text></g></g></g></g><g opacity="0.9"><g><clipPath id="_clip8"><rect x="427" y="60" width="140" height="27" clip-rule="nonzero"/></clipPath><g clip-path="url(#_clip8)"><path d="M427,80.5l0,-17.25c0,-1.036 0.366,-1.919 1.098,-2.652c0.733,-0.732 1.616,-1.098 2.652,-1.098l132.75,0c1.036,0 1.919,0.366 2.652,1.098c0.732,0.733 1.098,1.616 1.098,2.652l0,17.25c0,1.036 -0.366,1.919 -1.098,2.652c-0.733,0.732 -1.616,1.098 -2.652,1.098l-132.75,0c-1.036,0 -1.919,-0.366 -2.652,-1.098c-0.732,-0.733 -1.098,-1.616 -1.098,-2.652Zm2.25,-1.5l0,-14.25c0,-0.828 0.293,-1.536 0.879,-2.121c0.585,-0.586 1.293,-0.879 2.121,-0.879l129.75,0c0.828,0 1.535,0.293 2.121,0.879c0.586,0.585 0.879,1.293 0.879,2.121l0,14.25c0,0.828 -0.293,1.536 -0.879,2.121c-0.586,0.586 -1.293,0.879 -2.121,0.879l-129.75,0c-0.828,0 -1.536,-0.293 -2.121,-0.879c-0.586,-0.585 -0.879,-1.293 -0.879,-2.121Z" style="fill:#d1dfe0;"/><path d="M427.75,80.5l0,-17.25c0,-0.828 0.293,-1.536 0.879,-2.121c0.585,-0.586 1.293,-0.879 2.121,-0.879l132.75,0c0.828,0 1.535,0.293 2.121,0.879c0.586,0.585 0.879,1.293 0.879,2.121l0,17.25c0,0.828 -0.293,1.536 -0.879,2.121c-0.586,0.586 -1.293,0.879 -2.121,0.879l-132.75,0c-0.828,0 -1.536,-0.293 -2.121,-0.879c-0.586,-0.585 -0.879,-1.293 -0.879,-2.121Z" style="fill:#85ca54;fill-rule:nonzero;"/><g transform="matrix(1,0,0,1,-71,-140)"><text x="522px" y="214.5px" style="font-family:'ArialMT', 'Arial', sans-serif;font-size:9px;fill:#555;">/fuelnutrition</text><text x="522px" y="224.25px" style="font-family:'Arial-BoldMT', 'Arial', sans-serif;font-weight:700;font-size:9px;fill:#555;">3</text></g></g></g></g><g opacity="0.9"><g><clipPath id="_clip9"><rect x="427" y="117" width="140" height="27" clip-rule="nonzero"/></clipPath><g clip-path="url(#_clip9)"><path d="M427,130l0,-9.75c0,-1.036 0.366,-1.919 1.098,-2.652c0.733,-0.732 1.616,-1.098 2.652,-1.098l132.75,0c1.036,0 1.919,0.366 2.652,1.098c0.732,0.733 1.098,1.616 1.098,2.652l0,9.75c0,1.036 -0.366,1.919 -1.098,2.652c-0.733,0.732 -1.616,1.098 -2.652,1.098l-132.75,0c-1.036,0 -1.919,-0.366 -2.652,-1.098c-0.732,-0.733 -1.098,-1.616 -1.098,-2.652Zm2.25,-1.5l0,-6.75c0,-0.828 0.293,-1.536 0.879,-2.121c0.585,-0.586 1.293,-0.879 2.121,-0.879l129.75,0c0.828,0 1.535,0.293 2.121,0.879c0.586,0.585 0.879,1.293 0.879,2.121l0,6.75c0,0.828 -0.293,1.536 -0.879,2.121c-0.586,0.586 -1.293,0.879 -2.121,0.879l-129.75,0c-0.828,0 -1.536,-0.293 -2.121,-0.879c-0.586,-0.585 -0.879,-1.293 -0.879,-2.121Z" style="fill:#d1dfe0;"/><path d="M427.75,130l0,-9.75c0,-0.828 0.293,-1.536 0.879,-2.121c0.585,-0.586 1.293,-0.879 2.121,-0.879l132.75,0c0.828,0 1.535,0.293 2.121,0.879c0.586,0.585 0.879,1.293 0.879,2.121l0,9.75c0,0.828 -0.293,1.536 -0.879,2.121c-0.586,0.586 -1.293,0.879 -2.121,0.879l-132.75,0c-0.828,0 -1.536,-0.293 -2.121,-0.879c-0.586,-0.585 -0.879,-1.293 -0.879,-2.121Z" style="fill:#85ca54;fill-rule:nonzero;"/><g transform="matrix(1,0,0,1,-71,-140)"><text x="522px" y="271.5px" style="font-family:'ArialMT', 'Arial', sans-serif;font-size:9px;fill:#555;">/cookiecaricature</text><text x="522px" y="281.25px" style="font-family:'Arial-BoldMT', 'Arial', sans-serif;font-weight:700;font-size:9px;fill:#555;">2</text></g></g></g></g><g opacity="0.9"><g><clipPath id="_clip10"><rect x="427" y="306" width="140" height="32" clip-rule="nonzero"/></clipPath><g clip-path="url(#_clip10)"><path d="M427,334l0,-24.75c0,-1.036 0.366,-1.919 1.098,-2.652c0.733,-0.732 1.616,-1.098 2.652,-1.098l132.75,0c1.036,0 1.919,0.366 2.652,1.098c0.732,0.733 1.098,1.616 1.098,2.652l0,24.75c0,1.036 -0.366,1.919 -1.098,2.652c-0.733,0.732 -1.616,1.098 -2.652,1.098l-132.75,0c-1.036,0 -1.919,-0.366 -2.652,-1.098c-0.732,-0.733 -1.098,-1.616 -1.098,-2.652Zm2.25,-1.5l0,-21.75c0,-0.828 0.293,-1.536 0.879,-2.121c0.585,-0.586 1.293,-0.879 2.121,-0.879l129.75,0c0.828,0 1.535,0.293 2.121,0.879c0.586,0.585 0.879,1.293 0.879,2.121l0,21.75c0,0.828 -0.293,1.536 -0.879,2.121c-0.586,0.586 -1.293,0.879 -2.121,0.879l-129.75,0c-0.828,0 -1.536,-0.293 -2.121,-0.879c-0.586,-0.585 -0.879,-1.293 -0.879,-2.121Z" style="fill:#d1dfe0;"/><path d="M427.75,334l0,-24.75c0,-0.828 0.293,-1.536 0.879,-2.121c0.585,-0.586 1.293,-0.879 2.121,-0.879l132.75,0c0.828,0 1.535,0.293 2.121,0.879c0.586,0.585 0.879,1.293 0.879,2.121l0,24.75c0,0.828 -0.293,1.535 -0.879,2.121c-0.586,0.586 -1.293,0.879 -2.121,0.879l-132.75,0c-0.828,0 -1.536,-0.293 -2.121,-0.879c-0.586,-0.586 -0.879,-1.293 -0.879,-2.121Z" style="fill:#85ca54;fill-rule:nonzero;"/><g transform="matrix(1,0,0,1,-71,-140)"><text x="522px" y="460.5px" style="font-family:'ArialMT', 'Arial', sans-serif;font-size:9px;fill:#555;">(4 more pages)</text><text x="522px" y="470.25px" style="font-family:'Arial-BoldMT', 'Arial', sans-serif;font-weight:700;font-size:9px;fill:#555;">4</text></g></g></g></g><g opacity="0.9"><g><clipPath id="_clip11"><rect x="427" y="215" width="140" height="27" clip-rule="nonzero"/></clipPath><g clip-path="url(#_clip11)"><path d="M427,228.25l0,-9.75c0,-1.036 0.366,-1.919 1.098,-2.652c0.733,-0.732 1.616,-1.098 2.652,-1.098l132.75,0c1.036,0 1.919,0.366 2.652,1.098c0.732,0.733 1.098,1.616 1.098,2.652l0,9.75c0,1.036 -0.366,1.919 -1.098,2.652c-0.733,0.732 -1.616,1.098 -2.652,1.098l-132.75,0c-1.036,0 -1.919,-0.366 -2.652,-1.098c-0.732,-0.733 -1.098,-1.616 -1.098,-2.652Zm2.25,-1.5l0,-6.75c0,-0.828 0.293,-1.536 0.879,-2.121c0.585,-0.586 1.293,-0.879 2.121,-0.879l129.75,0c0.828,0 1.535,0.293 2.121,0.879c0.586,0.585 0.879,1.293 0.879,2.121l0,6.75c0,0.828 -0.293,1.536 -0.879,2.121c-0.586,0.586 -1.293,0.879 -2.121,0.879l-129.75,0c-0.828,0 -1.536,-0.293 -2.121,-0.879c-0.586,-0.585 -0.879,-1.293 -0.879,-2.121Z" style="fill:#d1dfe0;"/><path d="M427.75,228.25l0,-9.75c0,-0.828 0.293,-1.536 0.879,-2.121c0.585,-0.586 1.293,-0.879 2.121,-0.879l132.75,0c0.828,0 1.535,0.293 2.121,0.879c0.586,0.585 0.879,1.293 0.879,2.121l0,9.75c0,0.828 -0.293,1.536 -0.879,2.121c-0.586,0.586 -1.293,0.879 -2.121,0.879l-132.75,0c-0.828,0 -1.536,-0.293 -2.121,-0.879c-0.586,-0.585 -0.879,-1.293 -0.879,-2.121Z" style="fill:#85ca54;fill-rule:nonzero;"/><g transform="matrix(1,0,0,1,-71,-140)"><text x="522px" y="369.75px" style="font-family:'ArialMT', 'Arial', sans-serif;font-size:9px;fill:#555;">/tactileﬂux</text><text x="522px" y="379.5px" style="font-family:'Arial-BoldMT', 'Arial', sans-serif;font-weight:700;font-size:9px;fill:#555;">2</text></g></g></g></g><g opacity="0.9"><g><clipPath id="_clip12"><rect x="427" y="165" width="140" height="27" clip-rule="nonzero"/></clipPath><g clip-path="url(#_clip12)"><path d="M427,178.75l0,-9.75c0,-1.036 0.366,-1.919 1.098,-2.652c0.733,-0.732 1.616,-1.098 2.652,-1.098l132.75,0c1.036,0 1.919,0.366 2.652,1.098c0.732,0.733 1.098,1.616 1.098,2.652l0,9.75c0,1.036 -0.366,1.919 -1.098,2.652c-0.733,0.732 -1.616,1.098 -2.652,1.098l-132.75,0c-1.036,0 -1.919,-0.366 -2.652,-1.098c-0.732,-0.733 -1.098,-1.616 -1.098,-2.652Zm2.25,-1.5l0,-6.75c0,-0.828 0.293,-1.536 0.879,-2.121c0.585,-0.586 1.293,-0.879 2.121,-0.879l129.75,0c0.828,0 1.535,0.293 2.121,0.879c0.586,0.585 0.879,1.293 0.879,2.121l0,6.75c0,0.828 -0.293,1.536 -0.879,2.121c-0.586,0.586 -1.293,0.879 -2.121,0.879l-129.75,0c-0.828,0 -1.536,-0.293 -2.121,-0.879c-0.586,-0.585 -0.879,-1.293 -0.879,-2.121Z" style="fill:#d1dfe0;"/><path d="M427.75,178.75l0,-9.75c0,-0.828 0.293,-1.536 0.879,-2.121c0.585,-0.586 1.293,-0.879 2.121,-0.879l132.75,0c0.828,0 1.535,0.293 2.121,0.879c0.586,0.585 0.879,1.293 0.879,2.121l0,9.75c0,0.828 -0.293,1.536 -0.879,2.121c-0.586,0.586 -1.293,0.879 -2.121,0.879l-132.75,0c-0.828,0 -1.536,-0.293 -2.121,-0.879c-0.586,-0.585 -0.879,-1.293 -0.879,-2.121Z" style="fill:#85ca54;fill-rule:nonzero;"/><g transform="matrix(1,0,0,1,-71,-140)"><text x="522px" y="320.25px" style="font-family:'ArialMT', 'Arial', sans-serif;font-size:9px;fill:#555;">/mywebsite/</text><text x="522px" y="330px" style="font-family:'Arial-BoldMT', 'Arial', sans-serif;font-weight:700;font-size:9px;fill:#555;">2</text></g></g></g></g><g opacity="0.9"><g><clipPath id="_clip13"><rect x="427" y="264" width="140" height="27" clip-rule="nonzero"/></clipPath><g clip-path="url(#_clip13)"><path d="M427,269.5l0,-1.5c0,-1.036 0.366,-1.919 1.098,-2.652c0.733,-0.732 1.616,-1.098 2.652,-1.098l132.75,0c1.036,0 1.919,0.366 2.652,1.098c0.732,0.733 1.098,1.616 1.098,2.652l0,1.5c0,1.036 -0.366,1.919 -1.098,2.652c-0.733,0.732 -1.616,1.098 -2.652,1.098l-132.75,0c-1.036,0 -1.919,-0.366 -2.652,-1.098c-0.732,-0.733 -1.098,-1.616 -1.098,-2.652Zm2.25,-0.75c0,-0.621 0.22,-1.152 0.659,-1.591c0.439,-0.439 0.97,-0.659 1.591,-0.659l131.25,0c0.621,0 1.152,0.22 1.591,0.659c0.439,0.439 0.659,0.97 0.659,1.591c0,0.621 -0.22,1.152 -0.659,1.591c-0.439,0.439 -0.97,0.659 -1.591,0.659l-131.25,0c-0.621,0 -1.152,-0.22 -1.591,-0.659c-0.439,-0.439 -0.659,-0.97 -0.659,-1.591Z" style="fill:#d1dfe0;"/><path d="M427.75,269.5l0,-1.5c0,-0.828 0.293,-1.536 0.879,-2.121c0.585,-0.586 1.293,-0.879 2.121,-0.879l132.75,0c0.828,0 1.535,0.293 2.121,0.879c0.586,0.585 0.879,1.293 0.879,2.121l0,1.5c0,0.828 -0.293,1.536 -0.879,2.121c-0.586,0.586 -1.293,0.879 -2.121,0.879l-132.75,0c-0.828,0 -1.536,-0.293 -2.121,-0.879c-0.586,-0.585 -0.879,-1.293 -0.879,-2.121Z" style="fill:#85ca54;fill-rule:nonzero;"/><g transform="matrix(1,0,0,1,-71,-140)"><text x="522px" y="419.25px" style="font-family:'ArialMT', 'Arial', sans-serif;font-size:9px;fill:#555;">/seated</text><text x="522px" y="429px" style="font-family:'Arial-BoldMT', 'Arial', sans-serif;font-weight:700;font-size:9px;fill:#555;">1</text></g></g></g></g><g opacity="0.9"><g><clipPath id="_clip14"><rect x="637" y="60" width="140" height="71" clip-rule="nonzero"/></clipPath><g clip-path="url(#_clip14)"><path d="M637,127l0,-63.75c0,-1.036 0.366,-1.919 1.098,-2.652c0.733,-0.732 1.616,-1.098 2.652,-1.098l132.75,0c1.036,0 1.919,0.366 2.652,1.098c0.732,0.733 1.098,1.616 1.098,2.652l0,63.75c0,1.036 -0.366,1.919 -1.098,2.652c-0.733,0.732 -1.616,1.098 -2.652,1.098l-132.75,0c-1.036,0 -1.919,-0.366 -2.652,-1.098c-0.732,-0.733 -1.098,-1.616 -1.098,-2.652Zm2.25,-1.5l0,-60.75c0,-0.828 0.293,-1.536 0.879,-2.121c0.585,-0.586 1.293,-0.879 2.121,-0.879l129.75,0c0.828,0 1.535,0.293 2.121,0.879c0.586,0.585 0.879,1.293 0.879,2.121l0,60.75c0,0.828 -0.293,1.536 -0.879,2.121c-0.586,0.586 -1.293,0.879 -2.121,0.879l-129.75,0c-0.828,0 -1.536,-0.293 -2.121,-0.879c-0.586,-0.585 -0.879,-1.293 -0.879,-2.121Z" style="fill:#d1dfe0;"/><path d="M637.75,127l0,-63.75c0,-0.828 0.293,-1.536 0.879,-2.121c0.585,-0.586 1.293,-0.879 2.121,-0.879l132.75,0c0.828,0 1.535,0.293 2.121,0.879c0.586,0.585 0.879,1.293 0.879,2.121l0,63.75c0,0.828 -0.293,1.536 -0.879,2.121c-0.586,0.586 -1.293,0.879 -2.121,0.879l-132.75,0c-0.828,0 -1.536,-0.293 -2.121,-0.879c-0.586,-0.585 -0.879,-1.293 -0.879,-2.121Z" style="fill:#85ca54;fill-rule:nonzero;"/><g transform="matrix(1,0,0,1,-71,-140)"><text x="732px" y="214.5px" style="font-family:'ArialMT', 'Arial', sans-serif;font-size:9px;fill:#555;">/</text><text x="732px" y="224.25px" style="font-family:'Arial-BoldMT', 'Arial', sans-serif;font-weight:700;font-size:9px;fill:#555;">9</text></g></g></g></g><g opacity="0.9"><g><clipPath id="_clip15"><rect x="637" y="163" width="140" height="27" clip-rule="nonzero"/></clipPath><g clip-path="url(#_clip15)"><path d="M637,176.5l0,-9.75c0,-1.036 0.366,-1.919 1.098,-2.652c0.733,-0.732 1.616,-1.098 2.652,-1.098l132.75,0c1.036,0 1.919,0.366 2.652,1.098c0.732,0.733 1.098,1.616 1.098,2.652l0,9.75c0,1.036 -0.366,1.919 -1.098,2.652c-0.733,0.732 -1.616,1.098 -2.652,1.098l-132.75,0c-1.036,0 -1.919,-0.366 -2.652,-1.098c-0.732,-0.733 -1.098,-1.616 -1.098,-2.652Zm2.25,-1.5l0,-6.75c0,-0.828 0.293,-1.536 0.879,-2.121c0.585,-0.586 1.293,-0.879 2.121,-0.879l129.75,0c0.828,0 1.535,0.293 2.121,0.879c0.586,0.585 0.879,1.293 0.879,2.121l0,6.75c0,0.828 -0.293,1.536 -0.879,2.121c-0.586,0.586 -1.293,0.879 -2.121,0.879l-129.75,0c-0.828,0 -1.536,-0.293 -2.121,-0.879c-0.586,-0.585 -0.879,-1.293 -0.879,-2.121Z" style="fill:#d1dfe0;"/><path d="M637.75,176.5l0,-9.75c0,-0.828 0.293,-1.536 0.879,-2.121c0.585,-0.586 1.293,-0.879 2.121,-0.879l132.75,0c0.828,0 1.535,0.293 2.121,0.879c0.586,0.585 0.879,1.293 0.879,2.121l0,9.75c0,0.828 -0.293,1.536 -0.879,2.121c-0.586,0.586 -1.293,0.879 -2.121,0.879l-132.75,0c-0.828,0 -1.536,-0.293 -2.121,-0.879c-0.586,-0.585 -0.879,-1.293 -0.879,-2.121Z" style="fill:#85ca54;fill-rule:nonzero;"/><g transform="matrix(1,0,0,1,-71,-140)"><text x="732px" y="318px" style="font-family:'ArialMT', 'Arial', sans-serif;font-size:9px;fill:#555;">tactileﬂux</text><text x="732px" y="327.75px" style="font-family:'Arial-BoldMT', 'Arial', sans-serif;font-weight:700;font-size:9px;fill:#555;">2</text></g></g></g></g><g opacity="0.9"><g><clipPath id="_clip16"><rect x="847" y="282" width="140" height="27" clip-rule="nonzero"/></clipPath><g clip-path="url(#_clip16)"><path d="M847,295.75l0,-9.75c0,-1.036 0.366,-1.919 1.098,-2.652c0.733,-0.732 1.616,-1.098 2.652,-1.098l132.75,0c1.035,0 1.919,0.366 2.652,1.098c0.732,0.733 1.098,1.616 1.098,2.652l0,9.75c0,1.036 -0.366,1.919 -1.098,2.652c-0.733,0.732 -1.617,1.098 -2.652,1.098l-132.75,0c-1.036,0 -1.919,-0.366 -2.652,-1.098c-0.732,-0.733 -1.098,-1.616 -1.098,-2.652Zm2.25,-1.5l0,-6.75c0,-0.828 0.293,-1.536 0.879,-2.121c0.585,-0.586 1.293,-0.879 2.121,-0.879l129.75,0c0.828,0 1.535,0.293 2.121,0.879c0.586,0.585 0.879,1.293 0.879,2.121l0,6.75c0,0.828 -0.293,1.535 -0.879,2.121c-0.586,0.586 -1.293,0.879 -2.121,0.879l-129.75,0c-0.828,0 -1.536,-0.293 -2.121,-0.879c-0.586,-0.586 -0.879,-1.293 -0.879,-2.121Z" style="fill:#d1dfe0;"/><path d="M847.75,295.75l0,-9.75c0,-0.828 0.293,-1.536 0.879,-2.121c0.585,-0.586 1.293,-0.879 2.121,-0.879l132.75,0c0.828,0 1.535,0.293 2.121,0.879c0.586,0.585 0.879,1.293 0.879,2.121l0,9.75c0,0.828 -0.293,1.535 -0.879,2.121c-0.586,0.586 -1.293,0.879 -2.121,0.879l-132.75,0c-0.828,0 -1.536,-0.293 -2.121,-0.879c-0.586,-0.586 -0.879,-1.293 -0.879,-2.121Z" style="fill:#85ca54;fill-rule:nonzero;"/><g transform="matrix(1,0,0,1,-71,-140)"><text x="942px" y="437.25px" style="font-family:'ArialMT', 'Arial', sans-serif;font-size:9px;fill:#555;">(2 more pages)</text><text x="942px" y="447px" style="font-family:'Arial-BoldMT', 'Arial', sans-serif;font-weight:700;font-size:9px;fill:#555;">2</text></g></g></g></g><g opacity="0.9"><g><clipPath id="_clip17"><rect x="847" y="60" width="140" height="27" clip-rule="nonzero"/></clipPath><g clip-path="url(#_clip17)"><path d="M847,73l0,-9.75c0,-1.036 0.366,-1.919 1.098,-2.652c0.733,-0.732 1.616,-1.098 2.652,-1.098l132.75,0c1.035,0 1.919,0.366 2.652,1.098c0.732,0.733 1.098,1.616 1.098,2.652l0,9.75c0,1.036 -0.366,1.919 -1.098,2.652c-0.733,0.732 -1.617,1.098 -2.652,1.098l-132.75,0c-1.036,0 -1.919,-0.366 -2.652,-1.098c-0.732,-0.733 -1.098,-1.616 -1.098,-2.652Zm2.25,-1.5l0,-6.75c0,-0.828 0.293,-1.536 0.879,-2.121c0.585,-0.586 1.293,-0.879 2.121,-0.879l129.75,0c0.828,0 1.535,0.293 2.121,0.879c0.586,0.585 0.879,1.293 0.879,2.121l0,6.75c0,0.828 -0.293,1.536 -0.879,2.121c-0.586,0.586 -1.293,0.879 -2.121,0.879l-129.75,0c-0.828,0 -1.536,-0.293 -2.121,-0.879c-0.586,-0.585 -0.879,-1.293 -0.879,-2.121Z" style="fill:#d1dfe0;"/><path d="M847.75,73l0,-9.75c0,-0.828 0.293,-1.536 0.879,-2.121c0.585,-0.586 1.293,-0.879 2.121,-0.879l132.75,0c0.828,0 1.535,0.293 2.121,0.879c0.586,0.585 0.879,1.293 0.879,2.121l0,9.75c0,0.828 -0.293,1.536 -0.879,2.121c-0.586,0.586 -1.293,0.879 -2.121,0.879l-132.75,0c-0.828,0 -1.536,-0.293 -2.121,-0.879c-0.586,-0.585 -0.879,-1.293 -0.879,-2.121Z" style="fill:#85ca54;fill-rule:nonzero;"/><g transform="matrix(1,0,0,1,-71,-140)"><text x="942px" y="214.5px" style="font-family:'ArialMT', 'Arial', sans-serif;font-size:9px;fill:#555;">/about/</text><text x="942px" y="224.25px" style="font-family:'Arial-BoldMT', 'Arial', sans-serif;font-weight:700;font-size:9px;fill:#555;">2</text></g></g></g></g><g opacity="0.9"><g><clipPath id="_clip18"><rect x="847" y="199" width="140" height="27" clip-rule="nonzero"/></clipPath><g clip-path="url(#_clip18)"><path d="M847,204.25l0,-1.5c0,-1.036 0.366,-1.919 1.098,-2.652c0.733,-0.732 1.616,-1.098 2.652,-1.098l132.75,0c1.035,0 1.919,0.366 2.652,1.098c0.732,0.733 1.098,1.616 1.098,2.652l0,1.5c0,1.036 -0.366,1.919 -1.098,2.652c-0.733,0.732 -1.617,1.098 -2.652,1.098l-132.75,0c-1.036,0 -1.919,-0.366 -2.652,-1.098c-0.732,-0.733 -1.098,-1.616 -1.098,-2.652Zm2.25,-0.75c0,-0.621 0.22,-1.152 0.659,-1.591c0.439,-0.439 0.97,-0.659 1.591,-0.659l131.25,0c0.621,0 1.152,0.22 1.591,0.659c0.439,0.439 0.659,0.97 0.659,1.591c0,0.621 -0.22,1.152 -0.659,1.591c-0.439,0.439 -0.97,0.659 -1.591,0.659l-131.25,0c-0.621,0 -1.152,-0.22 -1.591,-0.659c-0.439,-0.439 -0.659,-0.97 -0.659,-1.591Z" style="fill:#d1dfe0;"/><path d="M847.75,204.25l0,-1.5c0,-0.828 0.293,-1.536 0.879,-2.121c0.585,-0.586 1.293,-0.879 2.121,-0.879l132.75,0c0.828,0 1.535,0.293 2.121,0.879c0.586,0.585 0.879,1.293 0.879,2.121l0,1.5c0,0.828 -0.293,1.536 -0.879,2.121c-0.586,0.586 -1.293,0.879 -2.121,0.879l-132.75,0c-0.828,0 -1.536,-0.293 -2.121,-0.879c-0.586,-0.585 -0.879,-1.293 -0.879,-2.121Z" style="fill:#85ca54;fill-rule:nonzero;"/><g transform="matrix(1,0,0,1,-71,-140)"><text x="942px" y="354px" style="font-family:'ArialMT', 'Arial', sans-serif;font-size:9px;fill:#555;">/seated</text><text x="942px" y="363.75px" style="font-family:'Arial-BoldMT', 'Arial', sans-serif;font-weight:700;font-size:9px;fill:#555;">1</text></g></g></g></g><g opacity="0.9"><g><clipPath id="_clip19"><rect x="847" y="109" width="140" height="27" clip-rule="nonzero"/></clipPath><g clip-path="url(#_clip19)"><path d="M847,122.5l0,-9.75c0,-1.036 0.366,-1.919 1.098,-2.652c0.733,-0.732 1.616,-1.098 2.652,-1.098l132.75,0c1.035,0 1.919,0.366 2.652,1.098c0.732,0.733 1.098,1.616 1.098,2.652l0,9.75c0,1.036 -0.366,1.919 -1.098,2.652c-0.733,0.732 -1.617,1.098 -2.652,1.098l-132.75,0c-1.036,0 -1.919,-0.366 -2.652,-1.098c-0.732,-0.733 -1.098,-1.616 -1.098,-2.652Zm2.25,-1.5l0,-6.75c0,-0.828 0.293,-1.536 0.879,-2.121c0.585,-0.586 1.293,-0.879 2.121,-0.879l129.75,0c0.828,0 1.535,0.293 2.121,0.879c0.586,0.585 0.879,1.293 0.879,2.121l0,6.75c0,0.828 -0.293,1.536 -0.879,2.121c-0.586,0.586 -1.293,0.879 -2.121,0.879l-129.75,0c-0.828,0 -1.536,-0.293 -2.121,-0.879c-0.586,-0.585 -0.879,-1.293 -0.879,-2.121Z" style="fill:#d1dfe0;"/><path d="M847.75,122.5l0,-9.75c0,-0.828 0.293,-1.536 0.879,-2.121c0.585,-0.586 1.293,-0.879 2.121,-0.879l132.75,0c0.828,0 1.535,0.293 2.121,0.879c0.586,0.585 0.879,1.293 0.879,2.121l0,9.75c0,0.828 -0.293,1.536 -0.879,2.121c-0.586,0.586 -1.293,0.879 -2.121,0.879l-132.75,0c-0.828,0 -1.536,-0.293 -2.121,-0.879c-0.586,-0.585 -0.879,-1.293 -0.879,-2.121Z" style="fill:#85ca54;fill-rule:nonzero;"/><g transform="matrix(1,0,0,1,-71,-140)"><text x="942px" y="264px" style="font-family:'ArialMT', 'Arial', sans-serif;font-size:9px;fill:#555;">/fuelnutrition</text><text x="942px" y="273.75px" style="font-family:'Arial-BoldMT', 'Arial', sans-serif;font-weight:700;font-size:9px;fill:#555;">2</text></g></g></g></g><g opacity="0.9"><g><clipPath id="_clip20"><rect x="847" y="158" width="140" height="27" clip-rule="nonzero"/></clipPath><g clip-path="url(#_clip20)"><path d="M847,163l0,-1.5c0,-1.036 0.366,-1.919 1.098,-2.652c0.733,-0.732 1.616,-1.098 2.652,-1.098l132.75,0c1.035,0 1.919,0.366 2.652,1.098c0.732,0.733 1.098,1.616 1.098,2.652l0,1.5c0,1.036 -0.366,1.919 -1.098,2.652c-0.733,0.732 -1.617,1.098 -2.652,1.098l-132.75,0c-1.036,0 -1.919,-0.366 -2.652,-1.098c-0.732,-0.733 -1.098,-1.616 -1.098,-2.652Zm2.25,-0.75c0,-0.621 0.22,-1.152 0.659,-1.591c0.439,-0.439 0.97,-0.659 1.591,-0.659l131.25,0c0.621,0 1.152,0.22 1.591,0.659c0.439,0.439 0.659,0.97 0.659,1.591c0,0.621 -0.22,1.152 -0.659,1.591c-0.439,0.439 -0.97,0.659 -1.591,0.659l-131.25,0c-0.621,0 -1.152,-0.22 -1.591,-0.659c-0.439,-0.439 -0.659,-0.97 -0.659,-1.591Z" style="fill:#d1dfe0;"/><path d="M847.75,163l0,-1.5c0,-0.828 0.293,-1.536 0.879,-2.121c0.585,-0.586 1.293,-0.879 2.121,-0.879l132.75,0c0.828,0 1.535,0.293 2.121,0.879c0.586,0.585 0.879,1.293 0.879,2.121l0,1.5c0,0.828 -0.293,1.536 -0.879,2.121c-0.586,0.586 -1.293,0.879 -2.121,0.879l-132.75,0c-0.828,0 -1.536,-0.293 -2.121,-0.879c-0.586,-0.585 -0.879,-1.293 -0.879,-2.121Z" style="fill:#85ca54;fill-rule:nonzero;"/><g transform="matrix(1,0,0,1,-71,-140)"><text x="942px" y="312.75px" style="font-family:'ArialMT', 'Arial', sans-serif;font-size:9px;fill:#555;">/mywebsite/</text><text x="942px" y="322.5px" style="font-family:'Arial-BoldMT', 'Arial', sans-serif;font-weight:700;font-size:9px;fill:#555;">1</text></g></g></g></g><g opacity="0.9"><g><clipPath id="_clip21"><rect x="847" y="241" width="140" height="27" clip-rule="nonzero"/></clipPath><g clip-path="url(#_clip21)"><path d="M847,246.25l0,-1.5c0,-1.036 0.366,-1.919 1.098,-2.652c0.733,-0.732 1.616,-1.098 2.652,-1.098l132.75,0c1.035,0 1.919,0.366 2.652,1.098c0.732,0.733 1.098,1.616 1.098,2.652l0,1.5c0,1.036 -0.366,1.919 -1.098,2.652c-0.733,0.732 -1.617,1.098 -2.652,1.098l-132.75,0c-1.036,0 -1.919,-0.366 -2.652,-1.098c-0.732,-0.733 -1.098,-1.616 -1.098,-2.652Zm2.25,-0.75c0,-0.621 0.22,-1.152 0.659,-1.591c0.439,-0.439 0.97,-0.659 1.591,-0.659l131.25,0c0.621,0 1.152,0.22 1.591,0.659c0.439,0.439 0.659,0.97 0.659,1.591c0,0.621 -0.22,1.152 -0.659,1.591c-0.439,0.439 -0.97,0.659 -1.591,0.659l-131.25,0c-0.621,0 -1.152,-0.22 -1.591,-0.659c-0.439,-0.439 -0.659,-0.97 -0.659,-1.591Z" style="fill:#d1dfe0;"/><path d="M847.75,246.25l0,-1.5c0,-0.828 0.293,-1.536 0.879,-2.121c0.585,-0.586 1.293,-0.879 2.121,-0.879l132.75,0c0.828,0 1.535,0.293 2.121,0.879c0.586,0.585 0.879,1.293 0.879,2.121l0,1.5c0,0.828 -0.293,1.536 -0.879,2.121c-0.586,0.586 -1.293,0.879 -2.121,0.879l-132.75,0c-0.828,0 -1.536,-0.293 -2.121,-0.879c-0.586,-0.585 -0.879,-1.293 -0.879,-2.121Z" style="fill:#85ca54;fill-rule:nonzero;"/><g transform="matrix(1,0,0,1,-71,-140)"><text x="942px" y="396px" style="font-family:'ArialMT', 'Arial', sans-serif;font-size:9px;fill:#555;">/tactileﬂux</text><text x="942px" y="405.75px" style="font-family:'Arial-BoldMT', 'Arial', sans-serif;font-weight:700;font-size:9px;fill:#555;">1</text></g></g></g></g><g opacity="0.8"><clipPath id="_clip22"><rect x="357" y="161" width="12" height="135" clip-rule="nonzero"/></clipPath><g clip-path="url(#_clip22)"><path d="M356.5,295.75l0,-135c1.591,0 3.122,0.304 4.592,0.913c1.47,0.609 2.768,1.476 3.893,2.602c1.125,1.125 1.993,2.423 2.601,3.893c0.609,1.47 0.914,3.001 0.914,4.592l0,123l-12,0Z" style="fill:#ec5540;fill-rule:nonzero;"/></g></g><path d="M361.454,230.5l1.204,1.266l1.234,-1.266l-0.314,0l0,-2.906l-1.799,0l0,2.906l-0.325,0Zm2.903,-0.779l1.588,0l-3.293,3.175l-3.231,-3.175l1.579,0l0,-2.907l3.357,0l0,2.907Z" style="fill:#f00;fill-rule:nonzero;"/><g opacity="0.8"><clipPath id="_clip23"><rect x="357" y="333" width="12" height="27" clip-rule="nonzero"/></clipPath><g clip-path="url(#_clip23)"><path d="M356.5,360.25l0,-27c1.591,0 3.122,0.304 4.592,0.913c1.47,0.609 2.768,1.476 3.893,2.602c1.125,1.125 1.993,2.423 2.601,3.893c0.609,1.47 0.914,3.001 0.914,4.592l0,15l-12,0Z" style="fill:#ec5540;fill-rule:nonzero;"/></g></g><path d="M361.454,349l1.204,1.266l1.234,-1.266l-0.314,0l0,-2.906l-1.799,0l0,2.906l-0.325,0Zm2.903,-0.779l1.588,0l-3.293,3.175l-3.231,-3.175l1.579,0l0,-2.907l3.357,0l0,2.907Z" style="fill:#f00;fill-rule:nonzero;"/><g opacity="0.8"><clipPath id="_clip24"><rect x="567" y="174" width="7" height="12" clip-rule="nonzero"/></clipPath><g clip-path="url(#_clip24)"><path d="M566.5,185.5l0,-11.25c0.995,0 1.951,0.19 2.87,0.571c0.919,0.38 1.73,0.922 2.433,1.626c0.704,0.703 1.245,1.514 1.626,2.433c0.381,0.919 0.571,1.875 0.571,2.87l0,3.75l-7.5,0Z" style="fill:#ec5540;fill-rule:nonzero;"/></g></g><g opacity="0.8"><clipPath id="_clip25"><rect x="567" y="216" width="12" height="19" clip-rule="nonzero"/></clipPath><g clip-path="url(#_clip25)"><path d="M566.5,235l0,-19.5c1.591,0 3.122,0.304 4.592,0.913c1.47,0.609 2.768,1.476 3.893,2.602c1.125,1.125 1.993,2.423 2.601,3.893c0.609,1.47 0.914,3.001 0.914,4.592l0,7.5l-12,0Z" style="fill:#ec5540;fill-rule:nonzero;"/></g></g><g opacity="0.8"><clipPath id="_clip26"><rect x="777" y="114" width="12" height="20" clip-rule="nonzero"/></clipPath><g clip-path="url(#_clip26)"><path d="M776.5,133.75l0,-19.5c1.591,0 3.122,0.304 4.592,0.913c1.47,0.609 2.768,1.476 3.893,2.602c1.125,1.125 1.992,2.423 2.601,3.893c0.609,1.47 0.914,3.001 0.914,4.592l0,7.5l-12,0Z" style="fill:#ec5540;fill-rule:nonzero;"/></g></g><g opacity="0.8"><clipPath id="_clip27"><rect x="987" y="159" width="7" height="11" clip-rule="nonzero"/></clipPath><g clip-path="url(#_clip27)"><path d="M986.5,169.75l0,-11.25c0.995,0 1.951,0.19 2.87,0.571c0.919,0.38 1.73,0.922 2.433,1.626c0.703,0.703 1.245,1.514 1.626,2.433c0.381,0.919 0.571,1.875 0.571,2.87l0,3.75l-7.5,0Z" style="fill:#ec5540;fill-rule:nonzero;"/></g></g><g opacity="0.8"><clipPath id="_clip28"><rect x="987" y="291" width="7" height="11" clip-rule="nonzero"/></clipPath><g clip-path="url(#_clip28)"><path d="M986.5,301.75l0,-11.25c0.995,0 1.951,0.19 2.87,0.571c0.919,0.38 1.73,0.922 2.433,1.626c0.703,0.703 1.245,1.514 1.626,2.433c0.381,0.919 0.571,1.875 0.571,2.87l0,3.75l-7.5,0Z" style="fill:#ec5540;fill-rule:nonzero;"/></g></g><text x="359.5px" y="234.25px" style="font-family:'MS-Gothic', 'MS Gothic', monospace;font-size:12px;fill-opacity:0;">⇩</text><text x="359.5px" y="352.75px" style="font-family:'MS-Gothic', 'MS Gothic', monospace;font-size:12px;fill-opacity:0;">⇩</text></g></svg>