<svg width="1254" height="360" viewBox="0 0 1254 360" fill="none" xmlns="http://www.w3.org/2000/svg">
<rect width="360" height="360" rx="80" fill="#EDC700"/>
<mask id="path-2-outside-1" maskUnits="userSpaceOnUse" x="52" y="54" width="257" height="253" fill="black">
<rect fill="white" x="52" y="54" width="257" height="253"/>
<path fill-rule="evenodd" clip-rule="evenodd" d="M152.886 56.0808C150.312 56.3293 141.629 57.9154 137.943 58.8104C130.616 60.5892 124.791 62.7425 117.19 66.4815C111.349 69.355 110.67 69.7379 106.701 72.4046C105.25 73.3797 103.888 74.1771 103.674 74.1771C103.46 74.1771 103.276 74.3181 103.266 74.4899C103.255 74.6617 102.311 75.4596 101.169 76.2624C100.026 77.0652 98.653 78.0975 98.1176 78.5562C93.2746 82.7056 91.8443 84.0143 88.7624 87.1185C83.103 92.8181 77.2643 100.288 72.4711 107.959C70.0334 111.861 69.3892 113.03 67.1844 117.552C66.0097 119.96 64.8803 122.246 64.674 122.631C64 123.889 61.3519 130.896 60.0764 134.796C57.5631 142.481 55.5828 151.45 54.7208 159.049C53.5357 169.499 53.8387 183.803 55.4326 192.623C55.8115 194.72 56.044 198.125 56.0016 200.964C55.8053 214.124 57.8985 227.447 62.055 239.491C64.4678 246.483 68.413 255.209 71.384 260.125C72.2648 261.582 72.9853 262.927 72.9853 263.114C72.9853 263.301 73.1256 263.516 73.2966 263.593C73.4681 263.669 74.3542 264.858 75.2661 266.234C76.178 267.61 77.1119 268.949 77.3415 269.209C77.571 269.468 78.4019 270.501 79.1885 271.503C81.2995 274.192 88.105 281.029 90.3409 282.708C91.4105 283.511 92.4723 284.32 92.7006 284.505C95.2657 286.587 104.645 291.678 107.436 292.504C108.007 292.672 109.034 293.053 109.719 293.35C111.898 294.296 116.853 295.637 121.45 296.527C127.034 297.608 140.638 298.063 145.593 297.335C147.9 296.996 149.119 296.981 149.644 297.284C152.948 299.195 162.975 302.37 170.941 304.028C175.381 304.952 176.598 305.019 188.374 304.997C201.934 304.97 204.261 304.695 214.835 301.862C226.004 298.871 240.549 292.46 250.219 286.267C258.592 280.905 261.89 278.416 268.077 272.789C271.773 269.427 279.808 260.617 281.471 258.101C282.002 257.299 283.106 255.703 283.923 254.556C285.849 251.853 289.088 246.31 291.353 241.836C296.555 231.569 299.767 221.498 301.665 209.514C302.693 203.023 303.069 201.071 303.878 198.044C305.845 190.686 306.538 185.897 306.925 176.983C307.217 170.267 306.635 161.288 305.561 155.921C305.216 154.201 304.763 151.949 304.554 150.916C303.281 144.647 299.658 134.697 295.883 127.101C288.164 111.571 278.181 100.094 263.596 89.9825C254.597 83.7432 244.181 77.9586 237.767 75.6393C236.739 75.2677 234.685 74.5316 233.201 74.0036C231.717 73.4756 227.69 71.6564 224.252 69.961C220.813 68.2657 217.44 66.6437 216.754 66.3568C206.422 62.0302 197.342 59.3618 185.676 57.2231C180.409 56.258 178.679 56.1471 167.205 56.0391C160.243 55.9736 153.799 55.9924 152.886 56.0808ZM175.299 59.3681C185.212 60.2919 193.35 62.076 204.119 65.687C209.671 67.5491 211.414 68.2648 211.118 68.5622C211.032 68.6481 208.448 68.4492 205.375 68.1197C202.302 67.7902 198.13 67.517 196.104 67.5124C187.981 67.4941 172.101 69.5277 164.715 71.5321C155.176 74.1208 151.296 75.3732 143.962 78.2305C136.457 81.1545 122.394 88.24 116.232 92.2033C115.617 92.5983 114.461 93.3027 113.662 93.7694C111.905 94.7945 107.91 97.6068 103.71 100.776C99.269 104.125 91.4089 112.254 88.1353 116.881C87.6787 117.527 86.6331 118.927 85.8121 119.993C80.1722 127.314 73.4963 138.166 69.3527 146.746C66.9636 151.693 65.7835 154.542 63.0486 161.969C61.9898 164.843 60.2349 170.817 59.8925 172.713C59.3222 175.868 58.8731 174.642 58.8731 169.93C58.8731 165.681 60.6064 149.307 61.1497 148.424C61.263 148.24 61.6341 146.708 61.9749 145.02C63.0092 139.892 66.2521 129.74 68.4175 124.85C75.3454 109.205 82.7797 98.0335 93.2833 87.4851C101.18 79.5543 108.279 74.3393 117.612 69.614C123.719 66.5219 124.146 66.3372 129.019 64.6723C136.76 62.0281 136.306 62.1486 145.123 60.3869C152.907 58.8313 165.116 58.4192 175.299 59.3681ZM209.127 72.0413C217.102 73.3129 227.463 75.872 228.635 76.8596C228.978 77.1482 230.285 77.9815 231.541 78.7118C232.796 79.4417 234.29 80.3888 234.861 80.8167C235.432 81.2442 237.3 82.6155 239.012 83.8638C243.217 86.9304 245.034 88.5403 250.658 94.1806C255.141 98.6761 261.706 106.285 265.245 111.087C266.09 112.234 267.023 113.448 267.317 113.784C267.611 114.12 268.299 115.059 268.846 115.869C269.393 116.68 270.624 118.47 271.582 119.847C273.07 121.988 277.37 128.994 279.772 133.191C280.166 133.88 281.788 137.07 283.377 140.281C290.007 153.679 293.646 164.524 296.113 178.234C297.114 183.8 297.243 185.571 297.283 194.291L297.329 204.092L296.016 207.637C294.696 211.2 293.101 214.935 291.743 217.646C289.797 221.528 287.385 225.963 286.301 227.656C285.639 228.688 284.969 229.814 284.811 230.158C284.653 230.502 283.499 232.285 282.246 234.12C272.054 249.045 259.825 261.302 245.834 270.613C226.13 283.727 207.307 290.911 187.336 292.939C180.54 293.629 172.514 293.597 167.942 292.863L166.308 292.6L169.143 291.375C176.109 288.365 181.291 285.557 187.188 281.598C191.715 278.558 192.731 277.595 192.38 276.676C191.913 275.453 189.455 275.898 187.27 277.601C186.165 278.462 184.42 279.712 183.393 280.377C182.366 281.043 180.992 281.953 180.341 282.4C177.747 284.182 168.402 288.562 164.092 290.017L159.527 291.559L155.791 290.824C153.736 290.421 151.402 289.857 150.603 289.572C149.804 289.287 147.843 288.639 146.245 288.132C142.981 287.098 136.088 284.384 135.453 283.885C124.888 275.578 116.484 267.46 109.842 259.144C99.7123 246.46 93.8134 233.34 90.2475 215.561C87.242 200.576 86.6622 184.174 88.5561 167.707C89.1302 162.716 89.6839 158.351 89.7868 158.007C90.3173 156.229 91.6496 147.478 91.4413 147.139C91.0797 146.552 89.2887 146.665 87.9514 147.359C86.9419 147.884 86.6767 148.411 86.116 151.008C81.6611 171.644 81.1032 195.5 84.6317 214.518C86.3679 223.879 89.5054 233.907 93.1347 241.696C93.9234 243.389 94.5688 244.843 94.5688 244.928C94.5688 245.013 95.4442 246.651 96.5142 248.568C99.8036 254.463 103.757 259.901 109.467 266.386C112.774 270.142 112.403 270.254 108.2 266.766C101.44 261.155 95.0976 255.146 89.5834 249.129C87.1287 246.45 80.9036 238.808 79.2279 236.417C73.8171 228.696 70.9204 223.536 67.1682 214.935C65.5424 211.209 62.2878 200.787 61.7557 197.604C61.3182 194.986 61.346 193.454 61.9329 187.826C62.3156 184.156 62.8121 180.403 63.0358 179.485C63.2599 178.568 64.0016 175.471 64.684 172.604C66.1604 166.399 68.6886 158.829 71.2657 152.896C72.3652 150.365 76.9567 141.171 78.1176 139.175C78.6049 138.338 79.7364 136.367 80.6317 134.796C81.5274 133.226 82.9747 130.963 83.8484 129.769C84.7226 128.574 85.4373 127.491 85.4373 127.362C85.4373 126.982 91.941 118.49 95.3458 114.424C98.9535 110.115 103.349 105.597 106.502 102.955C109.299 100.613 116.517 95.5156 119.265 93.9425C119.722 93.6814 121.776 92.4799 123.831 91.2729C129.976 87.6628 138.528 83.4567 144.584 81.067C158.893 75.4204 168.538 73.0189 184.638 71.0954C188.441 70.6408 204.151 71.2477 209.127 72.0413ZM250.69 86.7932C253.963 88.5315 264.34 96.0028 267.859 99.1545C274.24 104.87 281.894 113.548 284.499 118.021C284.747 118.448 285.227 119.127 285.565 119.53C285.903 119.933 286.933 121.576 287.854 123.182C296.704 138.616 301.784 156.749 301.64 172.395C301.598 176.991 301.608 177.009 299.817 169.267C298.134 161.992 295.57 154.159 292.787 147.789C292.487 147.1 291.708 145.317 291.058 143.826C288.855 138.772 283.613 129.079 280.865 124.977C279.989 123.671 279.273 122.497 279.273 122.369C279.273 122.241 278.459 120.963 277.462 119.53C276.467 118.098 275.204 116.269 274.657 115.466C268.401 106.284 255.919 91.8776 250.473 87.5531C248.823 86.2427 248.932 85.8594 250.69 86.7932ZM63.4255 219.145C63.4641 220.479 69.2888 230.867 73.3427 236.831C78.7253 244.75 91.6799 259.034 99.1345 265.269C102.392 267.993 109.319 273.484 110.756 274.482C117.98 279.494 121.365 281.555 127.774 284.843C130.171 286.072 133.822 288.229 135.889 289.635C137.954 291.041 140.009 292.313 140.454 292.461C140.899 292.61 141.731 293.115 142.301 293.584L143.339 294.437L135.453 294.267C127.081 294.086 122.61 293.389 115.53 291.16C107.807 288.729 99.836 284.437 93.7386 279.428C82.3364 270.062 72.1826 254.387 66.8204 237.874C64.7749 231.576 62.7735 223.267 62.3397 219.274C62.1106 217.163 62.1367 217.074 62.7535 217.855C63.1159 218.314 63.4185 218.894 63.4255 219.145ZM292.178 228.731C283.016 253.905 266.317 273.383 241.917 287.351C237.57 289.84 229.383 293.969 228.795 293.969C228.662 293.969 227.964 294.239 227.245 294.57C225.208 295.507 219.595 297.54 216.391 298.503C206.88 301.36 199.337 302.482 189.619 302.483C178.261 302.486 168.969 300.718 158.281 296.521C155.336 295.364 156.714 294.987 161.288 295.698C163.708 296.074 168.666 296.255 176.129 296.241C185.843 296.222 188.055 296.093 192.732 295.275C207.084 292.763 218.733 288.937 231.52 282.537C236.328 280.13 240.747 277.713 241.502 277.077C241.845 276.789 242.685 276.243 243.37 275.864C245.075 274.921 246.46 274.031 249.269 272.073C267.248 259.537 280.852 245.061 292.315 226.264C293.503 224.316 293.453 225.226 292.178 228.731Z"/>
</mask>
<path fill-rule="evenodd" clip-rule="evenodd" d="M152.886 56.0808C150.312 56.3293 141.629 57.9154 137.943 58.8104C130.616 60.5892 124.791 62.7425 117.19 66.4815C111.349 69.355 110.67 69.7379 106.701 72.4046C105.25 73.3797 103.888 74.1771 103.674 74.1771C103.46 74.1771 103.276 74.3181 103.266 74.4899C103.255 74.6617 102.311 75.4596 101.169 76.2624C100.026 77.0652 98.653 78.0975 98.1176 78.5562C93.2746 82.7056 91.8443 84.0143 88.7624 87.1185C83.103 92.8181 77.2643 100.288 72.4711 107.959C70.0334 111.861 69.3892 113.03 67.1844 117.552C66.0097 119.96 64.8803 122.246 64.674 122.631C64 123.889 61.3519 130.896 60.0764 134.796C57.5631 142.481 55.5828 151.45 54.7208 159.049C53.5357 169.499 53.8387 183.803 55.4326 192.623C55.8115 194.72 56.044 198.125 56.0016 200.964C55.8053 214.124 57.8985 227.447 62.055 239.491C64.4678 246.483 68.413 255.209 71.384 260.125C72.2648 261.582 72.9853 262.927 72.9853 263.114C72.9853 263.301 73.1256 263.516 73.2966 263.593C73.4681 263.669 74.3542 264.858 75.2661 266.234C76.178 267.61 77.1119 268.949 77.3415 269.209C77.571 269.468 78.4019 270.501 79.1885 271.503C81.2995 274.192 88.105 281.029 90.3409 282.708C91.4105 283.511 92.4723 284.32 92.7006 284.505C95.2657 286.587 104.645 291.678 107.436 292.504C108.007 292.672 109.034 293.053 109.719 293.35C111.898 294.296 116.853 295.637 121.45 296.527C127.034 297.608 140.638 298.063 145.593 297.335C147.9 296.996 149.119 296.981 149.644 297.284C152.948 299.195 162.975 302.37 170.941 304.028C175.381 304.952 176.598 305.019 188.374 304.997C201.934 304.97 204.261 304.695 214.835 301.862C226.004 298.871 240.549 292.46 250.219 286.267C258.592 280.905 261.89 278.416 268.077 272.789C271.773 269.427 279.808 260.617 281.471 258.101C282.002 257.299 283.106 255.703 283.923 254.556C285.849 251.853 289.088 246.31 291.353 241.836C296.555 231.569 299.767 221.498 301.665 209.514C302.693 203.023 303.069 201.071 303.878 198.044C305.845 190.686 306.538 185.897 306.925 176.983C307.217 170.267 306.635 161.288 305.561 155.921C305.216 154.201 304.763 151.949 304.554 150.916C303.281 144.647 299.658 134.697 295.883 127.101C288.164 111.571 278.181 100.094 263.596 89.9825C254.597 83.7432 244.181 77.9586 237.767 75.6393C236.739 75.2677 234.685 74.5316 233.201 74.0036C231.717 73.4756 227.69 71.6564 224.252 69.961C220.813 68.2657 217.44 66.6437 216.754 66.3568C206.422 62.0302 197.342 59.3618 185.676 57.2231C180.409 56.258 178.679 56.1471 167.205 56.0391C160.243 55.9736 153.799 55.9924 152.886 56.0808ZM175.299 59.3681C185.212 60.2919 193.35 62.076 204.119 65.687C209.671 67.5491 211.414 68.2648 211.118 68.5622C211.032 68.6481 208.448 68.4492 205.375 68.1197C202.302 67.7902 198.13 67.517 196.104 67.5124C187.981 67.4941 172.101 69.5277 164.715 71.5321C155.176 74.1208 151.296 75.3732 143.962 78.2305C136.457 81.1545 122.394 88.24 116.232 92.2033C115.617 92.5983 114.461 93.3027 113.662 93.7694C111.905 94.7945 107.91 97.6068 103.71 100.776C99.269 104.125 91.4089 112.254 88.1353 116.881C87.6787 117.527 86.6331 118.927 85.8121 119.993C80.1722 127.314 73.4963 138.166 69.3527 146.746C66.9636 151.693 65.7835 154.542 63.0486 161.969C61.9898 164.843 60.2349 170.817 59.8925 172.713C59.3222 175.868 58.8731 174.642 58.8731 169.93C58.8731 165.681 60.6064 149.307 61.1497 148.424C61.263 148.24 61.6341 146.708 61.9749 145.02C63.0092 139.892 66.2521 129.74 68.4175 124.85C75.3454 109.205 82.7797 98.0335 93.2833 87.4851C101.18 79.5543 108.279 74.3393 117.612 69.614C123.719 66.5219 124.146 66.3372 129.019 64.6723C136.76 62.0281 136.306 62.1486 145.123 60.3869C152.907 58.8313 165.116 58.4192 175.299 59.3681ZM209.127 72.0413C217.102 73.3129 227.463 75.872 228.635 76.8596C228.978 77.1482 230.285 77.9815 231.541 78.7118C232.796 79.4417 234.29 80.3888 234.861 80.8167C235.432 81.2442 237.3 82.6155 239.012 83.8638C243.217 86.9304 245.034 88.5403 250.658 94.1806C255.141 98.6761 261.706 106.285 265.245 111.087C266.09 112.234 267.023 113.448 267.317 113.784C267.611 114.12 268.299 115.059 268.846 115.869C269.393 116.68 270.624 118.47 271.582 119.847C273.07 121.988 277.37 128.994 279.772 133.191C280.166 133.88 281.788 137.07 283.377 140.281C290.007 153.679 293.646 164.524 296.113 178.234C297.114 183.8 297.243 185.571 297.283 194.291L297.329 204.092L296.016 207.637C294.696 211.2 293.101 214.935 291.743 217.646C289.797 221.528 287.385 225.963 286.301 227.656C285.639 228.688 284.969 229.814 284.811 230.158C284.653 230.502 283.499 232.285 282.246 234.12C272.054 249.045 259.825 261.302 245.834 270.613C226.13 283.727 207.307 290.911 187.336 292.939C180.54 293.629 172.514 293.597 167.942 292.863L166.308 292.6L169.143 291.375C176.109 288.365 181.291 285.557 187.188 281.598C191.715 278.558 192.731 277.595 192.38 276.676C191.913 275.453 189.455 275.898 187.27 277.601C186.165 278.462 184.42 279.712 183.393 280.377C182.366 281.043 180.992 281.953 180.341 282.4C177.747 284.182 168.402 288.562 164.092 290.017L159.527 291.559L155.791 290.824C153.736 290.421 151.402 289.857 150.603 289.572C149.804 289.287 147.843 288.639 146.245 288.132C142.981 287.098 136.088 284.384 135.453 283.885C124.888 275.578 116.484 267.46 109.842 259.144C99.7123 246.46 93.8134 233.34 90.2475 215.561C87.242 200.576 86.6622 184.174 88.5561 167.707C89.1302 162.716 89.6839 158.351 89.7868 158.007C90.3173 156.229 91.6496 147.478 91.4413 147.139C91.0797 146.552 89.2887 146.665 87.9514 147.359C86.9419 147.884 86.6767 148.411 86.116 151.008C81.6611 171.644 81.1032 195.5 84.6317 214.518C86.3679 223.879 89.5054 233.907 93.1347 241.696C93.9234 243.389 94.5688 244.843 94.5688 244.928C94.5688 245.013 95.4442 246.651 96.5142 248.568C99.8036 254.463 103.757 259.901 109.467 266.386C112.774 270.142 112.403 270.254 108.2 266.766C101.44 261.155 95.0976 255.146 89.5834 249.129C87.1287 246.45 80.9036 238.808 79.2279 236.417C73.8171 228.696 70.9204 223.536 67.1682 214.935C65.5424 211.209 62.2878 200.787 61.7557 197.604C61.3182 194.986 61.346 193.454 61.9329 187.826C62.3156 184.156 62.8121 180.403 63.0358 179.485C63.2599 178.568 64.0016 175.471 64.684 172.604C66.1604 166.399 68.6886 158.829 71.2657 152.896C72.3652 150.365 76.9567 141.171 78.1176 139.175C78.6049 138.338 79.7364 136.367 80.6317 134.796C81.5274 133.226 82.9747 130.963 83.8484 129.769C84.7226 128.574 85.4373 127.491 85.4373 127.362C85.4373 126.982 91.941 118.49 95.3458 114.424C98.9535 110.115 103.349 105.597 106.502 102.955C109.299 100.613 116.517 95.5156 119.265 93.9425C119.722 93.6814 121.776 92.4799 123.831 91.2729C129.976 87.6628 138.528 83.4567 144.584 81.067C158.893 75.4204 168.538 73.0189 184.638 71.0954C188.441 70.6408 204.151 71.2477 209.127 72.0413ZM250.69 86.7932C253.963 88.5315 264.34 96.0028 267.859 99.1545C274.24 104.87 281.894 113.548 284.499 118.021C284.747 118.448 285.227 119.127 285.565 119.53C285.903 119.933 286.933 121.576 287.854 123.182C296.704 138.616 301.784 156.749 301.64 172.395C301.598 176.991 301.608 177.009 299.817 169.267C298.134 161.992 295.57 154.159 292.787 147.789C292.487 147.1 291.708 145.317 291.058 143.826C288.855 138.772 283.613 129.079 280.865 124.977C279.989 123.671 279.273 122.497 279.273 122.369C279.273 122.241 278.459 120.963 277.462 119.53C276.467 118.098 275.204 116.269 274.657 115.466C268.401 106.284 255.919 91.8776 250.473 87.5531C248.823 86.2427 248.932 85.8594 250.69 86.7932ZM63.4255 219.145C63.4641 220.479 69.2888 230.867 73.3427 236.831C78.7253 244.75 91.6799 259.034 99.1345 265.269C102.392 267.993 109.319 273.484 110.756 274.482C117.98 279.494 121.365 281.555 127.774 284.843C130.171 286.072 133.822 288.229 135.889 289.635C137.954 291.041 140.009 292.313 140.454 292.461C140.899 292.61 141.731 293.115 142.301 293.584L143.339 294.437L135.453 294.267C127.081 294.086 122.61 293.389 115.53 291.16C107.807 288.729 99.836 284.437 93.7386 279.428C82.3364 270.062 72.1826 254.387 66.8204 237.874C64.7749 231.576 62.7735 223.267 62.3397 219.274C62.1106 217.163 62.1367 217.074 62.7535 217.855C63.1159 218.314 63.4185 218.894 63.4255 219.145ZM292.178 228.731C283.016 253.905 266.317 273.383 241.917 287.351C237.57 289.84 229.383 293.969 228.795 293.969C228.662 293.969 227.964 294.239 227.245 294.57C225.208 295.507 219.595 297.54 216.391 298.503C206.88 301.36 199.337 302.482 189.619 302.483C178.261 302.486 168.969 300.718 158.281 296.521C155.336 295.364 156.714 294.987 161.288 295.698C163.708 296.074 168.666 296.255 176.129 296.241C185.843 296.222 188.055 296.093 192.732 295.275C207.084 292.763 218.733 288.937 231.52 282.537C236.328 280.13 240.747 277.713 241.502 277.077C241.845 276.789 242.685 276.243 243.37 275.864C245.075 274.921 246.46 274.031 249.269 272.073C267.248 259.537 280.852 245.061 292.315 226.264C293.503 224.316 293.453 225.226 292.178 228.731Z" fill="black"/>
<path fill-rule="evenodd" clip-rule="evenodd" d="M152.886 56.0808C150.312 56.3293 141.629 57.9154 137.943 58.8104C130.616 60.5892 124.791 62.7425 117.19 66.4815C111.349 69.355 110.67 69.7379 106.701 72.4046C105.25 73.3797 103.888 74.1771 103.674 74.1771C103.46 74.1771 103.276 74.3181 103.266 74.4899C103.255 74.6617 102.311 75.4596 101.169 76.2624C100.026 77.0652 98.653 78.0975 98.1176 78.5562C93.2746 82.7056 91.8443 84.0143 88.7624 87.1185C83.103 92.8181 77.2643 100.288 72.4711 107.959C70.0334 111.861 69.3892 113.03 67.1844 117.552C66.0097 119.96 64.8803 122.246 64.674 122.631C64 123.889 61.3519 130.896 60.0764 134.796C57.5631 142.481 55.5828 151.45 54.7208 159.049C53.5357 169.499 53.8387 183.803 55.4326 192.623C55.8115 194.72 56.044 198.125 56.0016 200.964C55.8053 214.124 57.8985 227.447 62.055 239.491C64.4678 246.483 68.413 255.209 71.384 260.125C72.2648 261.582 72.9853 262.927 72.9853 263.114C72.9853 263.301 73.1256 263.516 73.2966 263.593C73.4681 263.669 74.3542 264.858 75.2661 266.234C76.178 267.61 77.1119 268.949 77.3415 269.209C77.571 269.468 78.4019 270.501 79.1885 271.503C81.2995 274.192 88.105 281.029 90.3409 282.708C91.4105 283.511 92.4723 284.32 92.7006 284.505C95.2657 286.587 104.645 291.678 107.436 292.504C108.007 292.672 109.034 293.053 109.719 293.35C111.898 294.296 116.853 295.637 121.45 296.527C127.034 297.608 140.638 298.063 145.593 297.335C147.9 296.996 149.119 296.981 149.644 297.284C152.948 299.195 162.975 302.37 170.941 304.028C175.381 304.952 176.598 305.019 188.374 304.997C201.934 304.97 204.261 304.695 214.835 301.862C226.004 298.871 240.549 292.46 250.219 286.267C258.592 280.905 261.89 278.416 268.077 272.789C271.773 269.427 279.808 260.617 281.471 258.101C282.002 257.299 283.106 255.703 283.923 254.556C285.849 251.853 289.088 246.31 291.353 241.836C296.555 231.569 299.767 221.498 301.665 209.514C302.693 203.023 303.069 201.071 303.878 198.044C305.845 190.686 306.538 185.897 306.925 176.983C307.217 170.267 306.635 161.288 305.561 155.921C305.216 154.201 304.763 151.949 304.554 150.916C303.281 144.647 299.658 134.697 295.883 127.101C288.164 111.571 278.181 100.094 263.596 89.9825C254.597 83.7432 244.181 77.9586 237.767 75.6393C236.739 75.2677 234.685 74.5316 233.201 74.0036C231.717 73.4756 227.69 71.6564 224.252 69.961C220.813 68.2657 217.44 66.6437 216.754 66.3568C206.422 62.0302 197.342 59.3618 185.676 57.2231C180.409 56.258 178.679 56.1471 167.205 56.0391C160.243 55.9736 153.799 55.9924 152.886 56.0808ZM175.299 59.3681C185.212 60.2919 193.35 62.076 204.119 65.687C209.671 67.5491 211.414 68.2648 211.118 68.5622C211.032 68.6481 208.448 68.4492 205.375 68.1197C202.302 67.7902 198.13 67.517 196.104 67.5124C187.981 67.4941 172.101 69.5277 164.715 71.5321C155.176 74.1208 151.296 75.3732 143.962 78.2305C136.457 81.1545 122.394 88.24 116.232 92.2033C115.617 92.5983 114.461 93.3027 113.662 93.7694C111.905 94.7945 107.91 97.6068 103.71 100.776C99.269 104.125 91.4089 112.254 88.1353 116.881C87.6787 117.527 86.6331 118.927 85.8121 119.993C80.1722 127.314 73.4963 138.166 69.3527 146.746C66.9636 151.693 65.7835 154.542 63.0486 161.969C61.9898 164.843 60.2349 170.817 59.8925 172.713C59.3222 175.868 58.8731 174.642 58.8731 169.93C58.8731 165.681 60.6064 149.307 61.1497 148.424C61.263 148.24 61.6341 146.708 61.9749 145.02C63.0092 139.892 66.2521 129.74 68.4175 124.85C75.3454 109.205 82.7797 98.0335 93.2833 87.4851C101.18 79.5543 108.279 74.3393 117.612 69.614C123.719 66.5219 124.146 66.3372 129.019 64.6723C136.76 62.0281 136.306 62.1486 145.123 60.3869C152.907 58.8313 165.116 58.4192 175.299 59.3681ZM209.127 72.0413C217.102 73.3129 227.463 75.872 228.635 76.8596C228.978 77.1482 230.285 77.9815 231.541 78.7118C232.796 79.4417 234.29 80.3888 234.861 80.8167C235.432 81.2442 237.3 82.6155 239.012 83.8638C243.217 86.9304 245.034 88.5403 250.658 94.1806C255.141 98.6761 261.706 106.285 265.245 111.087C266.09 112.234 267.023 113.448 267.317 113.784C267.611 114.12 268.299 115.059 268.846 115.869C269.393 116.68 270.624 118.47 271.582 119.847C273.07 121.988 277.37 128.994 279.772 133.191C280.166 133.88 281.788 137.07 283.377 140.281C290.007 153.679 293.646 164.524 296.113 178.234C297.114 183.8 297.243 185.571 297.283 194.291L297.329 204.092L296.016 207.637C294.696 211.2 293.101 214.935 291.743 217.646C289.797 221.528 287.385 225.963 286.301 227.656C285.639 228.688 284.969 229.814 284.811 230.158C284.653 230.502 283.499 232.285 282.246 234.12C272.054 249.045 259.825 261.302 245.834 270.613C226.13 283.727 207.307 290.911 187.336 292.939C180.54 293.629 172.514 293.597 167.942 292.863L166.308 292.6L169.143 291.375C176.109 288.365 181.291 285.557 187.188 281.598C191.715 278.558 192.731 277.595 192.38 276.676C191.913 275.453 189.455 275.898 187.27 277.601C186.165 278.462 184.42 279.712 183.393 280.377C182.366 281.043 180.992 281.953 180.341 282.4C177.747 284.182 168.402 288.562 164.092 290.017L159.527 291.559L155.791 290.824C153.736 290.421 151.402 289.857 150.603 289.572C149.804 289.287 147.843 288.639 146.245 288.132C142.981 287.098 136.088 284.384 135.453 283.885C124.888 275.578 116.484 267.46 109.842 259.144C99.7123 246.46 93.8134 233.34 90.2475 215.561C87.242 200.576 86.6622 184.174 88.5561 167.707C89.1302 162.716 89.6839 158.351 89.7868 158.007C90.3173 156.229 91.6496 147.478 91.4413 147.139C91.0797 146.552 89.2887 146.665 87.9514 147.359C86.9419 147.884 86.6767 148.411 86.116 151.008C81.6611 171.644 81.1032 195.5 84.6317 214.518C86.3679 223.879 89.5054 233.907 93.1347 241.696C93.9234 243.389 94.5688 244.843 94.5688 244.928C94.5688 245.013 95.4442 246.651 96.5142 248.568C99.8036 254.463 103.757 259.901 109.467 266.386C112.774 270.142 112.403 270.254 108.2 266.766C101.44 261.155 95.0976 255.146 89.5834 249.129C87.1287 246.45 80.9036 238.808 79.2279 236.417C73.8171 228.696 70.9204 223.536 67.1682 214.935C65.5424 211.209 62.2878 200.787 61.7557 197.604C61.3182 194.986 61.346 193.454 61.9329 187.826C62.3156 184.156 62.8121 180.403 63.0358 179.485C63.2599 178.568 64.0016 175.471 64.684 172.604C66.1604 166.399 68.6886 158.829 71.2657 152.896C72.3652 150.365 76.9567 141.171 78.1176 139.175C78.6049 138.338 79.7364 136.367 80.6317 134.796C81.5274 133.226 82.9747 130.963 83.8484 129.769C84.7226 128.574 85.4373 127.491 85.4373 127.362C85.4373 126.982 91.941 118.49 95.3458 114.424C98.9535 110.115 103.349 105.597 106.502 102.955C109.299 100.613 116.517 95.5156 119.265 93.9425C119.722 93.6814 121.776 92.4799 123.831 91.2729C129.976 87.6628 138.528 83.4567 144.584 81.067C158.893 75.4204 168.538 73.0189 184.638 71.0954C188.441 70.6408 204.151 71.2477 209.127 72.0413ZM250.69 86.7932C253.963 88.5315 264.34 96.0028 267.859 99.1545C274.24 104.87 281.894 113.548 284.499 118.021C284.747 118.448 285.227 119.127 285.565 119.53C285.903 119.933 286.933 121.576 287.854 123.182C296.704 138.616 301.784 156.749 301.64 172.395C301.598 176.991 301.608 177.009 299.817 169.267C298.134 161.992 295.57 154.159 292.787 147.789C292.487 147.1 291.708 145.317 291.058 143.826C288.855 138.772 283.613 129.079 280.865 124.977C279.989 123.671 279.273 122.497 279.273 122.369C279.273 122.241 278.459 120.963 277.462 119.53C276.467 118.098 275.204 116.269 274.657 115.466C268.401 106.284 255.919 91.8776 250.473 87.5531C248.823 86.2427 248.932 85.8594 250.69 86.7932ZM63.4255 219.145C63.4641 220.479 69.2888 230.867 73.3427 236.831C78.7253 244.75 91.6799 259.034 99.1345 265.269C102.392 267.993 109.319 273.484 110.756 274.482C117.98 279.494 121.365 281.555 127.774 284.843C130.171 286.072 133.822 288.229 135.889 289.635C137.954 291.041 140.009 292.313 140.454 292.461C140.899 292.61 141.731 293.115 142.301 293.584L143.339 294.437L135.453 294.267C127.081 294.086 122.61 293.389 115.53 291.16C107.807 288.729 99.836 284.437 93.7386 279.428C82.3364 270.062 72.1826 254.387 66.8204 237.874C64.7749 231.576 62.7735 223.267 62.3397 219.274C62.1106 217.163 62.1367 217.074 62.7535 217.855C63.1159 218.314 63.4185 218.894 63.4255 219.145ZM292.178 228.731C283.016 253.905 266.317 273.383 241.917 287.351C237.57 289.84 229.383 293.969 228.795 293.969C228.662 293.969 227.964 294.239 227.245 294.57C225.208 295.507 219.595 297.54 216.391 298.503C206.88 301.36 199.337 302.482 189.619 302.483C178.261 302.486 168.969 300.718 158.281 296.521C155.336 295.364 156.714 294.987 161.288 295.698C163.708 296.074 168.666 296.255 176.129 296.241C185.843 296.222 188.055 296.093 192.732 295.275C207.084 292.763 218.733 288.937 231.52 282.537C236.328 280.13 240.747 277.713 241.502 277.077C241.845 276.789 242.685 276.243 243.37 275.864C245.075 274.921 246.46 274.031 249.269 272.073C267.248 259.537 280.852 245.061 292.315 226.264C293.503 224.316 293.453 225.226 292.178 228.731Z" stroke="black" stroke-width="4" mask="url(#path-2-outside-1)"/>
<path d="M421.4 261V256.8L441 248.8L498.8 97H502L556.6 253.8L575 256.8V261H516.2V256.8L532.6 254.2L515.6 206.8H462.4L446.2 248.8L464.2 256.8V261H421.4ZM464 202.6H514.2L490.2 132.2L464 202.6Z" fill="black"/>
<path d="M574.75 261V257L589.75 255V107L574.75 105V101H609.75V255L623.75 257V261H574.75Z" fill="black"/>
<path d="M683.829 256.8L702.229 253.8V108.2L683.829 105.4V101H760.429C775.095 101 788.095 104.333 799.429 111C810.895 117.533 819.829 126.867 826.229 139C832.629 151 835.829 165 835.829 181C835.829 197 832.629 211.067 826.229 223.2C819.829 235.2 810.895 244.533 799.429 251.2C787.962 257.733 774.962 261 760.429 261H683.829V256.8ZM760.429 256.2C770.162 256.2 778.762 253.933 786.229 249.4C793.829 244.867 799.762 238.133 804.029 229.2C808.295 220.133 810.429 209.2 810.429 196.4V165.6C810.429 152.8 808.295 141.933 804.029 133C799.762 124.067 793.829 117.333 786.229 112.8C778.762 108.267 770.162 106 760.429 106H724.229V256.2H760.429Z" fill="black"/>
<path d="M907.932 263C898.065 263 889.132 260.8 881.132 256.4C873.132 251.867 866.798 245.533 862.132 237.4C857.465 229.267 855.132 219.867 855.132 209.2C855.132 198.533 857.398 189.2 861.932 181.2C866.598 173.067 872.798 166.8 880.532 162.4C888.398 157.867 897.132 155.6 906.732 155.6C915.132 155.6 922.665 157.467 929.332 161.2C935.998 164.933 941.198 170.133 944.932 176.8C948.665 183.333 950.598 190.867 950.732 199.4H877.132V219.2C877.132 230.933 879.732 240.467 884.932 247.8C890.265 255 897.932 258.6 907.932 258.6C917.132 258.6 925.265 256 932.332 250.8C939.398 245.6 943.732 238.867 945.332 230.6H949.932C948.065 240.467 943.332 248.333 935.732 254.2C928.132 260.067 918.865 263 907.932 263ZM928.732 194.4C928.732 182.8 926.932 174.2 923.332 168.6C919.732 162.867 914.132 160 906.532 160C897.598 160 890.665 163.133 885.732 169.4C880.798 175.667 877.998 184 877.332 194.4H928.732Z" fill="black"/>
<path d="M964.041 257L978.041 255V163.4L964.041 161.4V157.4H998.041V179C1002.97 171.8 1008.77 166.133 1015.44 162C1022.11 157.733 1029.31 155.6 1037.04 155.6C1046.64 155.6 1054.17 158 1059.64 162.8C1065.24 167.6 1068.04 174.733 1068.04 184.2V255L1082.04 257V261H1036.04V257L1048.04 255V184.6C1048.04 177.667 1046.64 172.333 1043.84 168.6C1041.04 164.733 1036.71 162.8 1030.84 162.8C1024.71 162.8 1018.77 165.067 1013.04 169.6C1007.44 174 1002.44 179.467 998.041 186V255L1010.04 257V261H964.041V257Z" fill="black"/>
<path d="M1132.39 263C1123.59 263 1116.53 260.8 1111.19 256.4C1105.99 252 1103.39 245 1103.39 235.4V163.4L1089.19 161.4V157.4H1103.39V140.8L1123.39 135.8V157.4H1149.39V161.4L1123.39 163.4V235C1123.39 249.133 1128.46 256.2 1138.59 256.2C1140.73 256.2 1142.73 255.867 1144.59 255.2C1146.59 254.533 1148.13 253.867 1149.19 253.2C1150.39 252.533 1151.13 252.067 1151.39 251.8L1153.99 255C1147.99 260.333 1140.79 263 1132.39 263Z" fill="black"/>
<path d="M1210.28 263C1200.41 263 1191.48 260.8 1183.48 256.4C1175.48 251.867 1169.14 245.533 1164.48 237.4C1159.81 229.267 1157.48 219.867 1157.48 209.2C1157.48 198.533 1159.74 189.2 1164.28 181.2C1168.94 173.067 1175.14 166.8 1182.88 162.4C1190.74 157.867 1199.48 155.6 1209.08 155.6C1217.48 155.6 1225.01 157.467 1231.68 161.2C1238.34 164.933 1243.54 170.133 1247.28 176.8C1251.01 183.333 1252.94 190.867 1253.08 199.4H1179.48V219.2C1179.48 230.933 1182.08 240.467 1187.28 247.8C1192.61 255 1200.28 258.6 1210.28 258.6C1219.48 258.6 1227.61 256 1234.68 250.8C1241.74 245.6 1246.08 238.867 1247.68 230.6H1252.28C1250.41 240.467 1245.68 248.333 1238.08 254.2C1230.48 260.067 1221.21 263 1210.28 263ZM1231.08 194.4C1231.08 182.8 1229.28 174.2 1225.68 168.6C1222.08 162.867 1216.48 160 1208.88 160C1199.94 160 1193.01 163.133 1188.08 169.4C1183.14 175.667 1180.34 184 1179.68 194.4H1231.08Z" fill="black"/>
</svg>
