<?xml version="1.0" encoding="UTF-8" standalone="no"?><!DOCTYPE svg PUBLIC "-//W3C//DTD SVG 1.1//EN" "http://www.w3.org/Graphics/SVG/1.1/DTD/svg11.dtd"><svg width="100%" height="100%" viewBox="0 0 1093 305" version="1.1" xmlns="http://www.w3.org/2000/svg" xmlns:xlink="http://www.w3.org/1999/xlink" xml:space="preserve" xmlns:serif="http://www.serif.com/" style="fill-rule:evenodd;clip-rule:evenodd;stroke-miterlimit:10;"><g opacity="0.84"><rect x="331.376" y="95.914" width="90" height="36" style="fill:#fbea12;stroke:#231f20;stroke-width:0.5px;"/></g><g opacity="0.84"><rect x="2.512" y="261.122" width="90" height="36" style="fill:#a01d20;stroke:#231f20;stroke-width:0.5px;"/></g><g opacity="0.84"><rect x="743.435" y="175.987" width="90" height="36" style="fill:none;stroke:#231f20;stroke-width:0.5px;"/></g><g opacity="0.84"><rect x="743.435" y="175.987" width="90" height="36" style="fill:#ab8ec2;stroke:#231f20;stroke-width:0.5px;"/></g><g opacity="0.84"><rect x="331.376" y="263.914" width="90" height="36" style="fill:#f5831f;stroke:#231f20;stroke-width:0.5px;"/></g><g opacity="0.84"><rect x="331.376" y="179.914" width="90" height="36" style="fill:#f8f5a6;stroke:#231f20;stroke-width:0.5px;"/></g><g opacity="0.84"><rect x="743.435" y="261.859" width="90" height="36" style="fill:#838485;stroke:#231f20;stroke-width:0.5px;"/></g><g opacity="0.84"><rect x="743.435" y="91.987" width="90" height="36" style="fill:#7b56a4;stroke:#231f20;stroke-width:0.5px;"/></g><g opacity="0.84"><rect x="2.512" y="179.914" width="90" height="36" style="fill:#99daed;stroke:#231f20;stroke-width:0.5px;"/></g><text x="105.846px" y="214.495px" style="font-family:'RobotoCondensed-Regular', 'Roboto Condensed';font-size:30px;fill:#231f20;">O<tspan x="123.704px 133.037px 142.369px 149.08px 162.778px " y="214.495px 214.495px 214.495px 214.495px 214.495px ">ffice</tspan></text><g transform="matrix(1,0,0,1,-754.347,-38.635)"><text x="860.193px" y="169.13px" style="font-family:'RobotoCondensed-Regular', 'Roboto Condensed';font-size:30px;fill:#231f20;">O<tspan x="877.847px 886.976px 896.105px 902.611px 916.106px " y="169.13px 169.13px 169.13px 169.13px 169.13px ">ffice</tspan></text><text x="936.903px" y="169.13px" style="font-family:'RobotoCondensed-Regular', 'Roboto Condensed';font-size:30px;fill:#231f20;">C<tspan x="953.546px 960.053px 974.06px 987.363px " y="169.13px 169.13px 169.13px 169.13px ">lass</tspan></text><text x="1008.24px" y="169.13px" style="font-family:'RobotoCondensed-Regular', 'Roboto Condensed';font-size:30px;fill:#231f20;">A</text></g><text x="846.769px" y="210.567px" style="font-family:'RobotoCondensed-Regular', 'Roboto Condensed';font-size:30px;fill:#231f20;">C<tspan x="863.616px 878.515px 892.872px 901.853px 915.741px 924.429px 938.318px 952.675px 966.372px " y="210.567px 210.567px 210.567px 210.567px 210.567px 210.567px 210.567px 210.567px 210.567px ">onference</tspan></text><text x="105.846px" y="288.435px" style="font-family:'RobotoCondensed-Regular', 'Roboto Condensed';font-size:30px;fill:#231f20;">R<tspan x="121.609px 135.498px 144.2px 158.411px 165.121px " y="288.435px 288.435px 288.435px 288.435px 288.435px ">etail</tspan></text><text x="846.769px" y="126.567px" style="font-family:'RobotoCondensed-Regular', 'Roboto Condensed';font-size:30px;fill:#231f20;">O<tspan x="864.423px 873.552px 882.68px 889.187px 902.681px " y="126.567px 126.567px 126.567px 126.567px 126.567px ">ffice</tspan></text><text x="435.878px" y="214.495px" style="font-family:'RobotoCondensed-Regular', 'Roboto Condensed';font-size:30px;fill:#231f20;">R<tspan x="451.642px 465.53px 479.037px 485.748px 500.471px 514.359px 528.716px 537.419px 544.13px 558.34px 565.051px 571.175px 585.181px 600.08px 619.417px 633.774px 648.102px 663.001px 677.343px 690.851px 704.739px " y="214.495px 214.495px 214.495px 214.495px 214.495px 214.495px 214.495px 214.495px 214.495px 214.495px 214.495px 214.495px 214.495px 214.495px 214.495px 214.495px 214.495px 214.495px 214.495px 214.495px 214.495px ">esidential Townhouses</tspan></text><text x="435.878px" y="130.495px" style="font-family:'RobotoCondensed-Regular', 'Roboto Condensed';font-size:30px;fill:#231f20;">R<tspan x="451.438px 465.122px 478.426px 484.933px 499.452px 513.137px 527.29px 535.789px 542.296px 556.302px 562.809px 569.316px 585.315px 599.453px 605.96px 612.467px 626.986px 633.493px 647.646px 662.063px " y="130.495px 130.495px 130.495px 130.495px 130.495px 130.495px 130.495px 130.495px 130.495px 130.495px 130.495px 130.495px 130.495px 130.495px 130.495px 130.495px 130.495px 130.495px 130.495px 130.495px ">esidential Buildings</tspan></text><text x="847.937px" y="296.439px" style="font-family:'RobotoCondensed-Regular', 'Roboto Condensed';font-size:30px;fill:#231f20;">S<tspan x="863.32px 872.022px 880.989px 895.331px 909.029px 917.732px 932.074px 940.455px 954.665px 961.376px 968.086px 984.933px 991.644px 1000.33px 1014.03px 1028.37px 1035.08px 1049.29px 1058px 1064.71px 1079.61px " y="296.439px 296.439px 296.439px 296.439px 296.439px 296.439px 296.439px 296.439px 296.439px 296.439px 296.439px 296.439px 296.439px 296.439px 296.439px 296.439px 296.439px 296.439px 296.439px 296.439px 296.439px ">tructural Circulation</tspan></text><text x="435.878px" y="298.495px" style="font-family:'RobotoCondensed-Regular', 'Roboto Condensed';font-size:30px;fill:#231f20;">A<tspan x="452.8px 462.295px 470.794px 477.301px 490.605px 499.103px 505.61px 523.85px 538.546px 552.684px 565.988px 572.495px 586.648px " y="298.495px 298.495px 298.495px 298.495px 298.495px 298.495px 298.495px 298.495px 298.495px 298.495px 298.495px 298.495px 298.495px ">rtist Housing</tspan></text><g transform="matrix(1,0,0,1,-820.933,-38.635)"><text x="823.446px" y="65.635px" style="font-family:'RobotoCondensed-Bold', 'Roboto Condensed';font-weight:700;font-size:36px;fill:#231f20;">P<tspan x="843.476px 854.33px 871.794px 889.45px 900.41px 916.907px " y="65.635px 65.635px 65.635px 65.635px 65.635px 65.635px ">rogram</tspan></text><text x="950.22px" y="65.635px" style="font-family:'RobotoCondensed-Bold', 'Roboto Condensed';font-weight:700;font-size:36px;fill:#231f20;">D<tspan x="970.109px 978.731px 994.63px 1005.24px 1016.73px 1025.35px 1042.72px 1059.99px 1070.6px 1079.22px 1096.69px " y="65.635px 65.635px 65.635px 65.635px 65.635px 65.635px 65.635px 65.635px 65.635px 65.635px 65.635px ">istribution</tspan></text></g><g opacity="0.84"><rect x="2.512" y="95.914" width="90" height="36" style="fill:#2169a2;stroke:#231f20;stroke-width:0.5px;"/></g></svg>